<svg version="1.1" xmlns="http://www.w3.org/2000/svg" xmlns:xlink="http://www.w3.org/1999/xlink" width="514.60986328125" height="320"><defs/><g><g transform="translate(-254,-550) scale(1,1)"><rect fill="#C0C0C0" stroke="none" x="459" y="651" width="76.8017578125" height="44" opacity="0.2"/></g><g transform="translate(-254,-550) scale(1,1)"><rect fill="#ffffff" stroke="none" x="452" y="644" width="76.8017578125" height="44"/></g><g transform="translate(-254,-550) scale(1,1)"><path fill="none" stroke="#000000" d="M 452 644 L 528.8017578125 644 L 528.8017578125 688 L 452 688 L 452 644 Z Z" stroke-miterlimit="10"/></g><g transform="translate(-254,-550) scale(1,1)"><rect fill="#ffffff" stroke="none" x="442" y="651" width="20" height="10"/></g><g transform="translate(-254,-550) scale(1,1)"><path fill="none" stroke="#000000" d="M 442 651 L 462 651 L 462 661 L 442 661 L 442 651 Z Z" stroke-miterlimit="10"/></g><g transform="translate(-254,-550) scale(1,1)"><rect fill="#ffffff" stroke="none" x="442" y="671" width="20" height="10"/></g><g transform="translate(-254,-550) scale(1,1)"><path fill="none" stroke="#000000" d="M 442 671 L 462 671 L 462 681 L 442 681 L 442 671 Z Z" stroke-miterlimit="10"/></g><g transform="translate(-254,-550) scale(1,1)"><g><path fill="none" stroke="none"/><text fill="#000000" stroke="none" font-family="Arial" font-size="13px" font-style="normal" font-weight="normal" text-decoration="none" x="466.5" y="661.5">«System»</text></g></g><g transform="translate(-254,-550) scale(1,1)"><g><path fill="none" stroke="none"/><text fill="#000000" stroke="none" font-family="Arial" font-size="13px" font-style="normal" font-weight="bold" text-decoration="none" x="470.844970703125" y="676.5">S2G-MT</text></g></g><g transform="translate(-254,-550) scale(1,1)"><path fill="#568eff" stroke="none" d="M 478.14567844460225 777.6800000000001 C 478.14567844460225 772.8861679360001 482.03152076954774 769 486.824951171875 769 C 491.61838157420226 769 495.50422389914775 772.8861679360001 495.50422389914775 777.6800000000001 C 495.50422389914775 782.473832064 491.61838157420226 786.36 486.824951171875 786.36 C 482.03152076954774 786.36 478.14567844460225 782.473832064 478.14567844460225 777.6800000000001 Z"/></g><g transform="translate(-254,-550) scale(1,1)"><path fill="none" stroke="#000000" d="M 478.14567844460225 777.6800000000001 C 478.14567844460225 772.8861679360001 482.03152076954774 769 486.824951171875 769 C 491.61838157420226 769 495.50422389914775 772.8861679360001 495.50422389914775 777.6800000000001 C 495.50422389914775 782.473832064 491.61838157420226 786.36 486.824951171875 786.36 C 482.03152076954774 786.36 478.14567844460225 782.473832064 478.14567844460225 777.6800000000001 Z" stroke-miterlimit="10"/></g><g transform="translate(-254,-550) scale(1,1)"><path fill="none" stroke="#000000" d="M 486.824951171875 786.36 L 486.824951171875 803.64" stroke-miterlimit="10"/></g><g transform="translate(-254,-550) scale(1,1)"><path fill="none" stroke="#000000" d="M 477.63513299005683 792.84 L 496.01476935369317 792.84" stroke-miterlimit="10"/></g><g transform="translate(-254,-550) scale(1,1)"><path fill="none" stroke="#000000" d="M 486.824951171875 803.64 L 474.06131480823865 821" stroke-miterlimit="10"/></g><g transform="translate(-254,-550) scale(1,1)"><path fill="none" stroke="#000000" d="M 486.824951171875 803.64 L 499.58858753551135 821" stroke-miterlimit="10"/></g><g transform="translate(-254,-550) scale(1,1)"><g><path fill="none" stroke="none"/><text fill="#000000" stroke="none" font-family="Arial" font-size="13px" font-style="normal" font-weight="normal" text-decoration="none" x="452.5" y="839.5">«End User»</text></g></g><g transform="translate(-254,-550) scale(1,1)"><g><path fill="none" stroke="none"/><text fill="#000000" stroke="none" font-family="Arial" font-size="13px" font-style="normal" font-weight="bold" text-decoration="none" x="476.7099609375" y="854.5">Pro</text></g></g><g transform="translate(-254,-550) scale(1,1)"><path fill="#ffca2b" stroke="none" d="M 302.14567844460225 625.6800000000001 C 302.14567844460225 620.8861679360001 306.03152076954774 617 310.824951171875 617 C 315.61838157420226 617 319.50422389914775 620.8861679360001 319.50422389914775 625.6800000000001 C 319.50422389914775 630.473832064 315.61838157420226 634.36 310.824951171875 634.36 C 306.03152076954774 634.36 302.14567844460225 630.473832064 302.14567844460225 625.6800000000001 Z"/></g><g transform="translate(-254,-550) scale(1,1)"><path fill="none" stroke="#000000" d="M 302.14567844460225 625.6800000000001 C 302.14567844460225 620.8861679360001 306.03152076954774 617 310.824951171875 617 C 315.61838157420226 617 319.50422389914775 620.8861679360001 319.50422389914775 625.6800000000001 C 319.50422389914775 630.473832064 315.61838157420226 634.36 310.824951171875 634.36 C 306.03152076954774 634.36 302.14567844460225 630.473832064 302.14567844460225 625.6800000000001 Z" stroke-miterlimit="10"/></g><g transform="translate(-254,-550) scale(1,1)"><path fill="none" stroke="#000000" d="M 310.824951171875 634.36 L 310.824951171875 651.64" stroke-miterlimit="10"/></g><g transform="translate(-254,-550) scale(1,1)"><path fill="none" stroke="#000000" d="M 301.63513299005683 640.84 L 320.01476935369317 640.84" stroke-miterlimit="10"/></g><g transform="translate(-254,-550) scale(1,1)"><path fill="none" stroke="#000000" d="M 310.824951171875 651.64 L 298.06131480823865 669" stroke-miterlimit="10"/></g><g transform="translate(-254,-550) scale(1,1)"><path fill="none" stroke="#000000" d="M 310.824951171875 651.64 L 323.58858753551135 669" stroke-miterlimit="10"/></g><g transform="translate(-254,-550) scale(1,1)"><g><path fill="none" stroke="none"/><text fill="#000000" stroke="none" font-family="Arial" font-size="13px" font-style="normal" font-weight="normal" text-decoration="none" x="276.5" y="687.5">«End User»</text></g></g><g transform="translate(-254,-550) scale(1,1)"><g><path fill="none" stroke="none"/><text fill="#000000" stroke="none" font-family="Arial" font-size="13px" font-style="normal" font-weight="bold" text-decoration="none" x="290.956787109375" y="702.5">Citizen</text></g></g><g transform="translate(-254,-550) scale(1,1)"><path fill="#ff7f00" stroke="none" d="M 674.6256589133523 625.6800000000001 C 674.6256589133523 620.8861679360001 678.5115012382977 617 683.304931640625 617 C 688.0983620429523 617 691.9842043678977 620.8861679360001 691.9842043678977 625.6800000000001 C 691.9842043678977 630.473832064 688.0983620429523 634.36 683.304931640625 634.36 C 678.5115012382977 634.36 674.6256589133523 630.473832064 674.6256589133523 625.6800000000001 Z"/></g><g transform="translate(-254,-550) scale(1,1)"><path fill="none" stroke="#000000" d="M 674.6256589133523 625.6800000000001 C 674.6256589133523 620.8861679360001 678.5115012382977 617 683.304931640625 617 C 688.0983620429523 617 691.9842043678977 620.8861679360001 691.9842043678977 625.6800000000001 C 691.9842043678977 630.473832064 688.0983620429523 634.36 683.304931640625 634.36 C 678.5115012382977 634.36 674.6256589133523 630.473832064 674.6256589133523 625.6800000000001 Z" stroke-miterlimit="10"/></g><g transform="translate(-254,-550) scale(1,1)"><path fill="none" stroke="#000000" d="M 683.304931640625 634.36 L 683.304931640625 651.64" stroke-miterlimit="10"/></g><g transform="translate(-254,-550) scale(1,1)"><path fill="none" stroke="#000000" d="M 674.1151134588068 640.84 L 692.4947498224432 640.84" stroke-miterlimit="10"/></g><g transform="translate(-254,-550) scale(1,1)"><path fill="none" stroke="#000000" d="M 683.304931640625 651.64 L 670.5412952769886 669" stroke-miterlimit="10"/></g><g transform="translate(-254,-550) scale(1,1)"><path fill="none" stroke="#000000" d="M 683.304931640625 651.64 L 696.0685680042614 669" stroke-miterlimit="10"/></g><g transform="translate(-254,-550) scale(1,1)"><g><path fill="none" stroke="none"/><text fill="#000000" stroke="none" font-family="Arial" font-size="13px" font-style="normal" font-weight="normal" text-decoration="none" x="612.5" y="687.5">«Dara Provider System»</text></g></g><g transform="translate(-254,-550) scale(1,1)"><g><path fill="none" stroke="none"/><text fill="#000000" stroke="none" font-family="Arial" font-size="13px" font-style="normal" font-weight="bold" text-decoration="none" x="643.58447265625" y="702.5">GRDF ADICT</text></g></g><g transform="translate(-254,-550) scale(1,1)"><path fill="none" stroke="#000000" d="M 350 688 L 442 688" stroke-miterlimit="10" stroke-dasharray="3"/></g><g transform="translate(-254,-550) scale(1,1)"><path fill="none" stroke="#000000" d="M 431.83732514237585 692.209517756016 L 442 688 L 431.83732514237585 683.790482243984" stroke-miterlimit="10"/></g><g transform="translate(-254,-550) scale(1,1)"><path fill="none" stroke="#000000" d="M 442 648 L 350 648" stroke-miterlimit="10" stroke-dasharray="3"/></g><g transform="translate(-254,-550) scale(1,1)"><path fill="none" stroke="#000000" d="M 360.16267485762415 643.790482243984 L 350 648 L 360.16267485762415 652.209517756016" stroke-miterlimit="10"/></g><g transform="translate(-254,-550) scale(1,1)"><path fill="none" stroke="#000000" d="M 520 688 L 520 696 L 608 696" stroke-miterlimit="10" stroke-dasharray="3"/></g><g transform="translate(-254,-550) scale(1,1)"><path fill="none" stroke="#000000" d="M 597.8373251423759 700.209517756016 L 608 696 L 597.8373251423758 691.790482243984" stroke-miterlimit="10"/></g><g transform="translate(-254,-550) scale(1,1)"><path fill="none" stroke="#000000" d="M 608 616 L 485 616 L 485 644" stroke-miterlimit="10" stroke-dasharray="3"/></g><g transform="translate(-254,-550) scale(1,1)"><path fill="none" stroke="#000000" d="M 480.790482243984 633.8373251423759 L 485 644 L 489.209517756016 633.8373251423759" stroke-miterlimit="10"/></g><g transform="translate(-254,-550) scale(1,1)"><path fill="none" stroke="#000000" d="M 496 768 L 496 720 L 497 720 L 497 688" stroke-miterlimit="10" stroke-dasharray="3"/></g><g transform="translate(-254,-550) scale(1,1)"><path fill="none" stroke="#000000" d="M 501.209517756016 698.1626748576241 L 497 688 L 492.790482243984 698.1626748576241" stroke-miterlimit="10"/></g><g transform="translate(-254,-550) scale(1,1)"><path fill="none" stroke="#000000" d="M 469 688 L 469 720 L 464 720 L 464 768" stroke-miterlimit="10" stroke-dasharray="3"/></g><g transform="translate(-254,-550) scale(1,1)"><path fill="none" stroke="#000000" d="M 459.790482243984 757.8373251423759 L 464 768 L 468.209517756016 757.8373251423759" stroke-miterlimit="10"/></g><g transform="translate(-254,-550) scale(1,1)"><path fill="#ffffff" stroke="none" d="M 376 608 L 411.4599609375 608 L 421.4599609375 618 L 421.4599609375 631 L 376 631 L 376 608"/></g><g transform="translate(-254,-550) scale(1,1)"><path fill="none" stroke="#ffca2b" d="M 376 608 L 411.4599609375 608 L 421.4599609375 618 L 421.4599609375 631 L 376 631 L 376 608 L 376 608" stroke-miterlimit="10"/></g><g transform="translate(-254,-550) scale(1,1)"><path fill="none" stroke="#ffca2b" d="M 411.4599609375 608 L 411.4599609375 618 L 421.4599609375 618 L 411.4599609375 608" stroke-miterlimit="10"/></g><g transform="translate(-254,-550) scale(1,1)"><g><path fill="none" stroke="none"/><text fill="#000000" stroke="none" font-family="Arial" font-size="13px" font-style="normal" font-weight="normal" text-decoration="none" x="381" y="626">Data</text></g></g><g transform="translate(-254,-550) scale(1,1)"><path fill="none" stroke="#000000" d="M 396 648 L 398 633" stroke-miterlimit="10" stroke-dasharray="3"/></g><g transform="translate(-254,-550) scale(1,1)"><path fill="#ffffff" stroke="none" d="M 264 712 L 320.419921875 712 L 330.419921875 722 L 330.419921875 735 L 264 735 L 264 712"/></g><g transform="translate(-254,-550) scale(1,1)"><path fill="none" stroke="#ffca2b" d="M 264 712 L 320.419921875 712 L 330.419921875 722 L 330.419921875 735 L 264 735 L 264 712 L 264 712" stroke-miterlimit="10"/></g><g transform="translate(-254,-550) scale(1,1)"><path fill="none" stroke="#ffca2b" d="M 320.419921875 712 L 320.419921875 722 L 330.419921875 722 L 320.419921875 712" stroke-miterlimit="10"/></g><g transform="translate(-254,-550) scale(1,1)"><g><path fill="none" stroke="none"/><text fill="#000000" stroke="none" font-family="Arial" font-size="13px" font-style="normal" font-weight="normal" text-decoration="none" x="269" y="730">Consent</text></g></g><g transform="translate(-254,-550) scale(1,1)"><path fill="none" stroke="#000000" d="M 396 688 L 332 711" stroke-miterlimit="10" stroke-dasharray="3"/></g><g transform="translate(-254,-550) scale(1,1)"><path fill="#ffffff" stroke="none" d="M 464 560 L 530.5380859375 560 L 540.5380859375 570 L 540.5380859375 596 L 464 596 L 464 560"/></g><g transform="translate(-254,-550) scale(1,1)"><path fill="none" stroke="#ff7f00" d="M 464 560 L 530.5380859375 560 L 540.5380859375 570 L 540.5380859375 596 L 464 596 L 464 560 L 464 560" stroke-miterlimit="10"/></g><g transform="translate(-254,-550) scale(1,1)"><path fill="none" stroke="#ff7f00" d="M 530.5380859375 560 L 530.5380859375 570 L 540.5380859375 570 L 530.5380859375 560" stroke-miterlimit="10"/></g><g transform="translate(-254,-550) scale(1,1)"><g><path fill="none" stroke="none"/><text fill="#000000" stroke="none" font-family="Arial" font-size="13px" font-style="normal" font-weight="normal" text-decoration="none" x="469" y="578">API</text><text fill="#000000" stroke="none" font-family="Arial" font-size="13px" font-style="normal" font-weight="normal" text-decoration="none" x="469" y="591">Response</text></g></g><g transform="translate(-254,-550) scale(1,1)"><path fill="none" stroke="#000000" d="M 485 630 L 495 598" stroke-miterlimit="10" stroke-dasharray="3"/></g><g transform="translate(-254,-550) scale(1,1)"><path fill="#ffffff" stroke="none" d="M 568 712 L 624.419921875 712 L 634.419921875 722 L 634.419921875 748 L 568 748 L 568 712"/></g><g transform="translate(-254,-550) scale(1,1)"><path fill="none" stroke="#ff7f00" d="M 568 712 L 624.419921875 712 L 634.419921875 722 L 634.419921875 748 L 568 748 L 568 712 L 568 712" stroke-miterlimit="10"/></g><g transform="translate(-254,-550) scale(1,1)"><path fill="none" stroke="#ff7f00" d="M 624.419921875 712 L 624.419921875 722 L 634.419921875 722 L 624.419921875 712" stroke-miterlimit="10"/></g><g transform="translate(-254,-550) scale(1,1)"><g><path fill="none" stroke="none"/><text fill="#000000" stroke="none" font-family="Arial" font-size="13px" font-style="normal" font-weight="normal" text-decoration="none" x="573" y="730">API</text><text fill="#000000" stroke="none" font-family="Arial" font-size="13px" font-style="normal" font-weight="normal" text-decoration="none" x="573" y="743">Request</text></g></g><g transform="translate(-254,-550) scale(1,1)"><path fill="none" stroke="#000000" d="M 564 696 L 580 711" stroke-miterlimit="10" stroke-dasharray="3"/></g><g transform="translate(-254,-550) scale(1,1)"><path fill="#ffffff" stroke="none" d="M 528 760 L 600.30810546875 760 L 610.30810546875 770 L 610.30810546875 809 L 528 809 L 528 760"/></g><g transform="translate(-254,-550) scale(1,1)"><path fill="none" stroke="#568eff" d="M 528 760 L 600.30810546875 760 L 610.30810546875 770 L 610.30810546875 809 L 528 809 L 528 760 L 528 760" stroke-miterlimit="10"/></g><g transform="translate(-254,-550) scale(1,1)"><path fill="none" stroke="#568eff" d="M 600.30810546875 760 L 600.30810546875 770 L 610.30810546875 770 L 600.30810546875 760" stroke-miterlimit="10"/></g><g transform="translate(-254,-550) scale(1,1)"><g><path fill="none" stroke="none"/><text fill="#000000" stroke="none" font-family="Arial" font-size="13px" font-style="normal" font-weight="normal" text-decoration="none" x="533" y="778">Pro</text><text fill="#000000" stroke="none" font-family="Arial" font-size="13px" font-style="normal" font-weight="normal" text-decoration="none" x="533" y="791">Message</text><text fill="#000000" stroke="none" font-family="Arial" font-size="13px" font-style="normal" font-weight="normal" text-decoration="none" x="533" y="804">Processing</text></g></g><g transform="translate(-254,-550) scale(1,1)"><path fill="none" stroke="#000000" d="M 496 720 L 540 759" stroke-miterlimit="10" stroke-dasharray="3"/></g><g transform="translate(-254,-550) scale(1,1)"><path fill="#ffffff" stroke="none" d="M 368 728 L 428.7490234375 728 L 438.7490234375 738 L 438.7490234375 764 L 368 764 L 368 728"/></g><g transform="translate(-254,-550) scale(1,1)"><path fill="none" stroke="#568eff" d="M 368 728 L 428.7490234375 728 L 438.7490234375 738 L 438.7490234375 764 L 368 764 L 368 728 L 368 728" stroke-miterlimit="10"/></g><g transform="translate(-254,-550) scale(1,1)"><path fill="none" stroke="#568eff" d="M 428.7490234375 728 L 428.7490234375 738 L 438.7490234375 738 L 428.7490234375 728" stroke-miterlimit="10"/></g><g transform="translate(-254,-550) scale(1,1)"><g><path fill="none" stroke="none"/><text fill="#000000" stroke="none" font-family="Arial" font-size="13px" font-style="normal" font-weight="normal" text-decoration="none" x="373" y="746">Pro</text><text fill="#000000" stroke="none" font-family="Arial" font-size="13px" font-style="normal" font-weight="normal" text-decoration="none" x="373" y="759">Message</text></g></g><g transform="translate(-254,-550) scale(1,1)"><path fill="none" stroke="#000000" d="M 466 720 L 441 730" stroke-miterlimit="10" stroke-dasharray="3"/></g></g></svg>