<svg version="1.1" xmlns="http://www.w3.org/2000/svg" xmlns:xlink="http://www.w3.org/1999/xlink" width="675.60986328125" height="413"><defs/><g><g transform="translate(-422,-334) scale(1,1)"><rect fill="#C0C0C0" stroke="none" x="527" y="407" width="117.32275390625" height="37" opacity="0.2"/></g><g transform="translate(-422,-334) scale(1,1)"><rect fill="#ffffff" stroke="none" x="520" y="400" width="117.32275390625" height="37"/></g><g transform="translate(-422,-334) scale(1,1)"><path fill="none" stroke="#000000" d="M 520 400 L 637.32275390625 400 L 637.32275390625 437 L 520 437 L 520 400 Z Z" stroke-miterlimit="10"/></g><g transform="translate(-422,-334) scale(1,1)"><g><path fill="none" stroke="none"/><text fill="#000000" stroke="none" font-family="Arial" font-size="13px" font-style="normal" font-weight="normal" text-decoration="none" x="533.1328125" y="417.5">«Consumption»</text></g></g><g transform="translate(-422,-334) scale(1,1)"><g><path fill="none" stroke="none"/><text fill="#000000" stroke="none" font-family="Arial" font-size="13px" font-style="normal" font-weight="bold" text-decoration="none" x="528.8037109375" y="432.5">DsoConsumption</text></g></g><g transform="translate(-422,-334) scale(1,1)"><rect fill="#C0C0C0" stroke="none" x="839" y="391" width="95.68994140625" height="37" opacity="0.2"/></g><g transform="translate(-422,-334) scale(1,1)"><rect fill="#ffffff" stroke="none" x="832" y="384" width="95.68994140625" height="37"/></g><g transform="translate(-422,-334) scale(1,1)"><path fill="none" stroke="#000000" d="M 832 384 L 927.68994140625 384 L 927.68994140625 421 L 832 421 L 832 384 Z Z" stroke-miterlimit="10"/></g><g transform="translate(-422,-334) scale(1,1)"><g><path fill="none" stroke="none"/><text fill="#000000" stroke="none" font-family="Arial" font-size="13px" font-style="normal" font-weight="normal" text-decoration="none" x="843.345947265625" y="401.5">«Response»</text></g></g><g transform="translate(-422,-334) scale(1,1)"><g><path fill="none" stroke="none"/><text fill="#000000" stroke="none" font-family="Arial" font-size="13px" font-style="normal" font-weight="bold" text-decoration="none" x="839.016845703125" y="416.5">DpsResponse</text></g></g><g transform="translate(-422,-334) scale(1,1)"><rect fill="#C0C0C0" stroke="none" x="503" y="543" width="163.5654296875" height="37" opacity="0.2"/></g><g transform="translate(-422,-334) scale(1,1)"><rect fill="#ffffff" stroke="none" x="496" y="536" width="163.5654296875" height="37"/></g><g transform="translate(-422,-334) scale(1,1)"><path fill="none" stroke="#000000" d="M 496 536 L 659.5654296875 536 L 659.5654296875 573 L 496 573 L 496 536 Z Z" stroke-miterlimit="10"/></g><g transform="translate(-422,-334) scale(1,1)"><g><path fill="none" stroke="none"/><text fill="#000000" stroke="none" font-family="Arial" font-size="13px" font-style="normal" font-weight="normal" text-decoration="none" x="509.1328125" y="553.5">«Consumption Interval»</text></g></g><g transform="translate(-422,-334) scale(1,1)"><g><path fill="none" stroke="none"/><text fill="#000000" stroke="none" font-family="Arial" font-size="13px" font-style="normal" font-weight="bold" text-decoration="none" x="506.609619140625" y="568.5">DsoConsumptionInterval</text></g></g><g transform="translate(-422,-334) scale(1,1)"><path fill="none" stroke="#000000" d="M 578 536 L 578 437" stroke-miterlimit="10"/></g><g transform="translate(-422,-334) scale(1,1)"><path fill="none" stroke="#000000" d="M 582.209517756016 447.16267485762415 L 578 437 L 573.790482243984 447.16267485762415" stroke-miterlimit="10"/></g><g transform="translate(-422,-334) scale(1,1)"><g><path fill="none" stroke="none"/><text fill="#000000" stroke="none" font-family="Arial" font-size="13px" font-style="normal" font-weight="normal" text-decoration="none" x="519.5" y="468.5">#consumptions</text></g></g><g transform="translate(-422,-334) scale(1,1)"><g><path fill="none" stroke="none"/><text fill="#000000" stroke="none" font-family="Arial" font-size="13px" font-style="normal" font-weight="normal" text-decoration="none" x="503.5" y="483.5">{collection="List"}</text></g></g><g transform="translate(-422,-334) scale(1,1)"><g><path fill="none" stroke="none"/><text fill="#000000" stroke="none" font-family="Arial" font-size="13px" font-style="normal" font-weight="normal" text-decoration="none" x="587.5" y="464.5">*</text></g></g><g transform="translate(-422,-334) scale(1,1)"><rect fill="#C0C0C0" stroke="none" x="983" y="543" width="111.60986328125" height="37" opacity="0.2"/></g><g transform="translate(-422,-334) scale(1,1)"><rect fill="#ffffff" stroke="none" x="976" y="536" width="111.60986328125" height="37"/></g><g transform="translate(-422,-334) scale(1,1)"><path fill="none" stroke="#000000" d="M 976 536 L 1087.60986328125 536 L 1087.60986328125 573 L 976 573 L 976 536 Z Z" stroke-miterlimit="10"/></g><g transform="translate(-422,-334) scale(1,1)"><g><path fill="none" stroke="none"/><text fill="#000000" stroke="none" font-family="Arial" font-size="13px" font-style="normal" font-weight="normal" text-decoration="none" x="1002.90087890625" y="553.5">«Service»</text></g></g><g transform="translate(-422,-334) scale(1,1)"><g><path fill="none" stroke="none"/><text fill="#000000" stroke="none" font-family="Arial" font-size="13px" font-style="normal" font-weight="bold" text-decoration="none" x="984.127685546875" y="568.5">DpsErrorService</text></g></g><g transform="translate(-422,-334) scale(1,1)"><rect fill="#C0C0C0" stroke="none" x="735" y="543" width="134.6962890625" height="37" opacity="0.2"/></g><g transform="translate(-422,-334) scale(1,1)"><rect fill="#ffffff" stroke="none" x="728" y="536" width="134.6962890625" height="37"/></g><g transform="translate(-422,-334) scale(1,1)"><path fill="none" stroke="#000000" d="M 728 536 L 862.6962890625 536 L 862.6962890625 573 L 728 573 L 728 536 Z Z" stroke-miterlimit="10"/></g><g transform="translate(-422,-334) scale(1,1)"><g><path fill="none" stroke="none"/><text fill="#000000" stroke="none" font-family="Arial" font-size="13px" font-style="normal" font-weight="normal" text-decoration="none" x="765.35546875" y="553.5">«Handler»</text></g></g><g transform="translate(-422,-334) scale(1,1)"><g><path fill="none" stroke="none"/><text fill="#000000" stroke="none" font-family="Arial" font-size="13px" font-style="italic" font-weight="bold" text-decoration="none" x="737.1845703125" y="568.5">AbstractDpsHandler</text></g></g><g transform="translate(-422,-334) scale(1,1)"><path fill="none" stroke="#000000" d="M 863 554 L 976 554" stroke-miterlimit="10"/></g><g transform="translate(-422,-334) scale(1,1)"><path fill="none" stroke="#000000" d="M 965.8373251423759 558.209517756016 L 976 554 L 965.8373251423758 549.790482243984" stroke-miterlimit="10"/></g><g transform="translate(-422,-334) scale(1,1)"><g><path fill="none" stroke="none"/><text fill="#000000" stroke="none" font-family="Arial" font-size="13px" font-style="normal" font-weight="normal" text-decoration="none" x="899.5" y="545.5">+dpsErrorService</text></g></g><g transform="translate(-422,-334) scale(1,1)"><path fill="none" stroke="#000000" d="M 863 554 L 868 554 L 868 421" stroke-miterlimit="10" stroke-dasharray="3"/></g><g transform="translate(-422,-334) scale(1,1)"><path fill="none" stroke="#000000" d="M 872.209517756016 431.16267485762415 L 868 421 L 863.790482243984 431.16267485762415" stroke-miterlimit="10"/></g><g transform="translate(-422,-334) scale(1,1)"><path fill="none" stroke="#000000" d="M 728 554 L 610 554 L 610 437" stroke-miterlimit="10" stroke-dasharray="3"/></g><g transform="translate(-422,-334) scale(1,1)"><path fill="none" stroke="#000000" d="M 614.209517756016 447.16267485762415 L 610 437 L 605.790482243984 447.16267485762415" stroke-miterlimit="10"/></g><g transform="translate(-422,-334) scale(1,1)"><path fill="none" stroke="#000000" d="M 728 554 L 660 554" stroke-miterlimit="10" stroke-dasharray="3"/></g><g transform="translate(-422,-334) scale(1,1)"><path fill="none" stroke="#000000" d="M 670.1626748576241 549.790482243984 L 660 554 L 670.1626748576241 558.209517756016" stroke-miterlimit="10"/></g><g transform="translate(-422,-334) scale(1,1)"><rect fill="#C0C0C0" stroke="none" x="671" y="407" width="128.919921875" height="37" opacity="0.2"/></g><g transform="translate(-422,-334) scale(1,1)"><rect fill="#ffffff" stroke="none" x="664" y="400" width="128.919921875" height="37"/></g><g transform="translate(-422,-334) scale(1,1)"><path fill="none" stroke="#000000" d="M 664 400 L 792.919921875 400 L 792.919921875 437 L 664 437 L 664 400 Z Z" stroke-miterlimit="10"/></g><g transform="translate(-422,-334) scale(1,1)"><g><path fill="none" stroke="none"/><text fill="#000000" stroke="none" font-family="Arial" font-size="13px" font-style="normal" font-weight="normal" text-decoration="none" x="699.55908203125" y="417.5">«Factory»</text></g></g><g transform="translate(-422,-334) scale(1,1)"><g><path fill="none" stroke="none"/><text fill="#000000" stroke="none" font-family="Arial" font-size="13px" font-style="normal" font-weight="bold" text-decoration="none" x="672.46728515625" y="432.5">DpsHandlerFactory</text></g></g><g transform="translate(-422,-334) scale(1,1)"><path fill="none" stroke="#000000" d="M 738 437 L 738 536" stroke-miterlimit="10" stroke-dasharray="3"/></g><g transform="translate(-422,-334) scale(1,1)"><path fill="none" stroke="#000000" d="M 733.790482243984 525.8373251423759 L 738 536 L 742.209517756016 525.8373251423759" stroke-miterlimit="10"/></g><g transform="translate(-422,-334) scale(1,1)"><rect fill="#C0C0C0" stroke="none" x="535" y="655" width="59.95703125" height="15" opacity="0.2"/></g><g transform="translate(-422,-334) scale(1,1)"><rect fill="#C0C0C0" stroke="none" x="535" y="669" width="149.892578125" height="53" opacity="0.2"/></g><g transform="translate(-422,-334) scale(1,1)"><rect fill="#ffaa56" stroke="none" x="528" y="663" width="149.892578125" height="52"/></g><g transform="translate(-422,-334) scale(1,1)"><path fill="none" stroke="#000000" d="M 528 663 L 677.892578125 663 L 677.892578125 715 L 528 715 L 528 663 Z Z" stroke-miterlimit="10"/></g><g transform="translate(-422,-334) scale(1,1)"><rect fill="#ffaa56" stroke="none" x="528" y="648" width="59.95703125" height="15"/></g><g transform="translate(-422,-334) scale(1,1)"><path fill="none" stroke="#000000" d="M 528 648 L 587.95703125 648 L 587.95703125 663 L 528 663 L 528 648 Z Z" stroke-miterlimit="10"/></g><g transform="translate(-422,-334) scale(1,1)"><rect fill="#ffaa56" stroke="none" x="528" y="662" width="149.892578125" height="53"/></g><g transform="translate(-422,-334) scale(1,1)"><path fill="none" stroke="#000000" d="M 528 662 L 677.892578125 662 L 677.892578125 715 L 528 715 L 528 662 Z Z" stroke-miterlimit="10"/></g><g transform="translate(-422,-334) scale(1,1)"><g><path fill="none" stroke="none"/><text fill="#000000" stroke="none" font-family="Arial" font-size="13px" font-style="normal" font-weight="normal" text-decoration="none" x="532.5" y="680.5">«Data Provider System»</text></g></g><g transform="translate(-422,-334) scale(1,1)"><g><path fill="none" stroke="none"/><text fill="#000000" stroke="none" font-family="Arial" font-size="13px" font-style="normal" font-weight="bold" text-decoration="none" x="591.745849609375" y="695.5">grdf</text></g></g><g transform="translate(-422,-334) scale(1,1)"><g><path fill="none" stroke="none"/><text fill="#000000" stroke="none" font-family="Arial" font-size="13px" font-style="normal" font-weight="normal" text-decoration="none" x="549.121337890625" y="710.5">(from dpsConnect)</text></g></g><g transform="translate(-422,-334) scale(1,1)"><rect fill="#C0C0C0" stroke="none" x="775" y="655" width="59.95703125" height="15" opacity="0.2"/></g><g transform="translate(-422,-334) scale(1,1)"><rect fill="#C0C0C0" stroke="none" x="775" y="669" width="149.892578125" height="53" opacity="0.2"/></g><g transform="translate(-422,-334) scale(1,1)"><rect fill="#38bcff" stroke="none" x="768" y="663" width="149.892578125" height="52"/></g><g transform="translate(-422,-334) scale(1,1)"><path fill="none" stroke="#000000" d="M 768 663 L 917.892578125 663 L 917.892578125 715 L 768 715 L 768 663 Z Z" stroke-miterlimit="10"/></g><g transform="translate(-422,-334) scale(1,1)"><rect fill="#38bcff" stroke="none" x="768" y="648" width="59.95703125" height="15"/></g><g transform="translate(-422,-334) scale(1,1)"><path fill="none" stroke="#000000" d="M 768 648 L 827.95703125 648 L 827.95703125 663 L 768 663 L 768 648 Z Z" stroke-miterlimit="10"/></g><g transform="translate(-422,-334) scale(1,1)"><rect fill="#38bcff" stroke="none" x="768" y="662" width="149.892578125" height="53"/></g><g transform="translate(-422,-334) scale(1,1)"><path fill="none" stroke="#000000" d="M 768 662 L 917.892578125 662 L 917.892578125 715 L 768 715 L 768 662 Z Z" stroke-miterlimit="10"/></g><g transform="translate(-422,-334) scale(1,1)"><g><path fill="none" stroke="none"/><text fill="#000000" stroke="none" font-family="Arial" font-size="13px" font-style="normal" font-weight="normal" text-decoration="none" x="772.5" y="680.5">«Data Provider System»</text></g></g><g transform="translate(-422,-334) scale(1,1)"><g><path fill="none" stroke="none"/><text fill="#000000" stroke="none" font-family="Arial" font-size="13px" font-style="normal" font-weight="bold" text-decoration="none" x="823.792236328125" y="695.5">enedis</text></g></g><g transform="translate(-422,-334) scale(1,1)"><g><path fill="none" stroke="none"/><text fill="#000000" stroke="none" font-family="Arial" font-size="13px" font-style="normal" font-weight="normal" text-decoration="none" x="789.121337890625" y="710.5">(from dpsConnect)</text></g></g><g transform="translate(-422,-334) scale(1,1)"><path fill="none" stroke="#e77d14" d="M 528 670 L 432 670 L 432 360 L 840 360 L 840 384" stroke-miterlimit="10" stroke-dasharray="3"/></g><g transform="translate(-422,-334) scale(1,1)"><path fill="none" stroke="#e77d14" d="M 835.790482243984 373.83732514237585 L 840 384 L 844.209517756016 373.83732514237585" stroke-miterlimit="10"/></g><g transform="translate(-422,-334) scale(1,1)"><path fill="none" stroke="#e77d14" d="M 528 665 L 448 665 L 448 376 L 672 376 L 672 400" stroke-miterlimit="10" stroke-dasharray="3"/></g><g transform="translate(-422,-334) scale(1,1)"><path fill="none" stroke="#e77d14" d="M 667.790482243984 389.83732514237585 L 672 400 L 676.209517756016 389.83732514237585" stroke-miterlimit="10"/></g><g transform="translate(-422,-334) scale(1,1)"><path fill="none" stroke="#e77d14" d="M 678 681 L 752 681 L 752 573" stroke-miterlimit="10" stroke-dasharray="3"/></g><g transform="translate(-422,-334) scale(1,1)"><path fill="none" stroke="#e77d14" d="M 756.209517756016 583.1626748576241 L 752 573 L 747.790482243984 583.1626748576241" stroke-miterlimit="10"/></g><g transform="translate(-422,-334) scale(1,1)"><path fill="none" stroke="#e77d14" d="M 581 648 L 581 573" stroke-miterlimit="10" stroke-dasharray="3"/></g><g transform="translate(-422,-334) scale(1,1)"><path fill="none" stroke="#e77d14" d="M 585.209517756016 583.1626748576241 L 581 573 L 576.790482243984 583.1626748576241" stroke-miterlimit="10"/></g><g transform="translate(-422,-334) scale(1,1)"><path fill="none" stroke="#e77d14" d="M 672 715 L 672 736 L 1048 736 L 1048 600 L 1038 600 L 1038 573" stroke-miterlimit="10" stroke-dasharray="3"/></g><g transform="translate(-422,-334) scale(1,1)"><path fill="none" stroke="#e77d14" d="M 1042.2095177560159 583.1626748576241 L 1038 573 L 1033.7904822439841 583.1626748576241" stroke-miterlimit="10"/></g><g transform="translate(-422,-334) scale(1,1)"><path fill="none" stroke="#0990d5" d="M 918 681 L 1032 681 L 1032 680 L 1031 680 L 1031 573" stroke-miterlimit="10" stroke-dasharray="3"/></g><g transform="translate(-422,-334) scale(1,1)"><path fill="none" stroke="#0990d5" d="M 1035.2095177560159 583.1626748576241 L 1031 573 L 1026.7904822439841 583.1626748576241" stroke-miterlimit="10"/></g><g transform="translate(-422,-334) scale(1,1)"><path fill="none" stroke="#0990d5" d="M 802 648 L 802 573" stroke-miterlimit="10" stroke-dasharray="3"/></g><g transform="translate(-422,-334) scale(1,1)"><path fill="none" stroke="#0990d5" d="M 806.209517756016 583.1626748576241 L 802 573 L 797.790482243984 583.1626748576241" stroke-miterlimit="10"/></g><g transform="translate(-422,-334) scale(1,1)"><path fill="none" stroke="#0990d5" d="M 768 648 L 720 648 L 720 616 L 619 616 L 619 573" stroke-miterlimit="10" stroke-dasharray="3"/></g><g transform="translate(-422,-334) scale(1,1)"><path fill="none" stroke="#0990d5" d="M 623.209517756016 583.1626748576241 L 619 573 L 614.790482243984 583.1626748576241" stroke-miterlimit="10"/></g><g transform="translate(-422,-334) scale(1,1)"><path fill="none" stroke="#0990d5" d="M 918 672 L 952 672 L 952 344 L 752 344 L 752 400" stroke-miterlimit="10" stroke-dasharray="3"/></g><g transform="translate(-422,-334) scale(1,1)"><path fill="none" stroke="#0990d5" d="M 747.790482243984 389.83732514237585 L 752 400 L 756.209517756016 389.83732514237585" stroke-miterlimit="10"/></g><g transform="translate(-422,-334) scale(1,1)"><path fill="none" stroke="#0990d5" d="M 880 648 L 880 622 L 879 622 L 879 421" stroke-miterlimit="10" stroke-dasharray="3"/></g><g transform="translate(-422,-334) scale(1,1)"><path fill="none" stroke="#0990d5" d="M 883.209517756016 431.16267485762415 L 879 421 L 874.790482243984 431.16267485762415" stroke-miterlimit="10"/></g></g></svg>