<svg version="1.1" xmlns="http://www.w3.org/2000/svg" xmlns:xlink="http://www.w3.org/1999/xlink" width="441.0107421875" height="215"><defs/><g><g transform="translate(-238,-190) scale(1,1)"><rect fill="#C0C0C0" stroke="none" x="255" y="215" width="162.892578125" height="135" opacity="0.2"/></g><g transform="translate(-238,-190) scale(1,1)"><rect fill="#ffffff" stroke="none" x="248" y="208" width="162.892578125" height="135"/></g><g transform="translate(-238,-190) scale(1,1)"><path fill="none" stroke="#000000" d="M 248 208 L 410.892578125 208 L 410.892578125 343 L 248 343 L 248 208 Z Z" stroke-miterlimit="10"/></g><g transform="translate(-238,-190) scale(1,1)"><path fill="none" stroke="#000000" d="M 248 246 L 410.892578125 246" stroke-miterlimit="10"/></g><g transform="translate(-238,-190) scale(1,1)"><g><path fill="none" stroke="none"/><text fill="#000000" stroke="none" font-family="Arial" font-size="13px" font-style="normal" font-weight="normal" text-decoration="none" x="294.397705078125" y="225.5">«Resource»</text></g></g><g transform="translate(-238,-190) scale(1,1)"><g><path fill="none" stroke="none"/><text fill="#000000" stroke="none" font-family="Arial" font-size="13px" font-style="normal" font-weight="bold" text-decoration="none" x="269.83544921875" y="240.5">GrdfContractualData</text></g></g><g transform="translate(-238,-190) scale(1,1)"><g><path fill="none" stroke="none"/><text fill="#000000" stroke="none" font-family="Arial" font-size="13px" font-style="normal" font-weight="normal" text-decoration="none" x="253" y="263.5">-idPce: String</text></g></g><g transform="translate(-238,-190) scale(1,1)"><g><path fill="none" stroke="none"/><text fill="#000000" stroke="none" font-family="Arial" font-size="13px" font-style="normal" font-weight="normal" text-decoration="none" x="253" y="278.5">-car: Integer</text></g></g><g transform="translate(-238,-190) scale(1,1)"><g><path fill="none" stroke="none"/><text fill="#000000" stroke="none" font-family="Arial" font-size="13px" font-style="normal" font-weight="normal" text-decoration="none" x="253" y="293.5">-cja: Integer</text></g></g><g transform="translate(-238,-190) scale(1,1)"><g><path fill="none" stroke="none"/><text fill="#000000" stroke="none" font-family="Arial" font-size="13px" font-style="normal" font-weight="normal" text-decoration="none" x="253" y="308.5">-profilTypeActuel: String</text></g></g><g transform="translate(-238,-190) scale(1,1)"><g><path fill="none" stroke="none"/><text fill="#000000" stroke="none" font-family="Arial" font-size="13px" font-style="normal" font-weight="normal" text-decoration="none" x="253" y="323.5">-tarifAcheminement: String</text></g></g><g transform="translate(-238,-190) scale(1,1)"><g><path fill="none" stroke="none"/><text fill="#000000" stroke="none" font-family="Arial" font-size="13px" font-style="normal" font-weight="normal" text-decoration="none" x="253" y="338.5">-dateMes: String</text></g></g><g transform="translate(-238,-190) scale(1,1)"><rect fill="#C0C0C0" stroke="none" x="503" y="207" width="173.0107421875" height="195" opacity="0.2"/></g><g transform="translate(-238,-190) scale(1,1)"><rect fill="#ffffff" stroke="none" x="496" y="200" width="173.0107421875" height="195"/></g><g transform="translate(-238,-190) scale(1,1)"><path fill="none" stroke="#000000" d="M 496 200 L 669.0107421875 200 L 669.0107421875 395 L 496 395 L 496 200 Z Z" stroke-miterlimit="10"/></g><g transform="translate(-238,-190) scale(1,1)"><path fill="none" stroke="#000000" d="M 496 238 L 669.0107421875 238" stroke-miterlimit="10"/></g><g transform="translate(-238,-190) scale(1,1)"><g><path fill="none" stroke="none"/><text fill="#000000" stroke="none" font-family="Arial" font-size="13px" font-style="normal" font-weight="normal" text-decoration="none" x="547.456787109375" y="217.5">«Resource»</text></g></g><g transform="translate(-238,-190) scale(1,1)"><g><path fill="none" stroke="none"/><text fill="#000000" stroke="none" font-family="Arial" font-size="13px" font-style="normal" font-weight="bold" text-decoration="none" x="529.035888671875" y="232.5">GrdfTechnicalData</text></g></g><g transform="translate(-238,-190) scale(1,1)"><g><path fill="none" stroke="none"/><text fill="#000000" stroke="none" font-family="Arial" font-size="13px" font-style="normal" font-weight="normal" text-decoration="none" x="501" y="255.5">-idPce: String</text></g></g><g transform="translate(-238,-190) scale(1,1)"><g><path fill="none" stroke="none"/><text fill="#000000" stroke="none" font-family="Arial" font-size="13px" font-style="normal" font-weight="normal" text-decoration="none" x="501" y="270.5">-numeroRue: String</text></g></g><g transform="translate(-238,-190) scale(1,1)"><g><path fill="none" stroke="none"/><text fill="#000000" stroke="none" font-family="Arial" font-size="13px" font-style="normal" font-weight="normal" text-decoration="none" x="501" y="285.5">-nomRue: String</text></g></g><g transform="translate(-238,-190) scale(1,1)"><g><path fill="none" stroke="none"/><text fill="#000000" stroke="none" font-family="Arial" font-size="13px" font-style="normal" font-weight="normal" text-decoration="none" x="501" y="300.5">-complementAdresse: String</text></g></g><g transform="translate(-238,-190) scale(1,1)"><g><path fill="none" stroke="none"/><text fill="#000000" stroke="none" font-family="Arial" font-size="13px" font-style="normal" font-weight="normal" text-decoration="none" x="501" y="315.5">-codePostal: String</text></g></g><g transform="translate(-238,-190) scale(1,1)"><g><path fill="none" stroke="none"/><text fill="#000000" stroke="none" font-family="Arial" font-size="13px" font-style="normal" font-weight="normal" text-decoration="none" x="501" y="330.5">-commune: String</text></g></g><g transform="translate(-238,-190) scale(1,1)"><g><path fill="none" stroke="none"/><text fill="#000000" stroke="none" font-family="Arial" font-size="13px" font-style="normal" font-weight="normal" text-decoration="none" x="501" y="345.5">-frequence: String</text></g></g><g transform="translate(-238,-190) scale(1,1)"><g><path fill="none" stroke="none"/><text fill="#000000" stroke="none" font-family="Arial" font-size="13px" font-style="normal" font-weight="normal" text-decoration="none" x="501" y="360.5">-clientSensibleMig: String</text></g></g><g transform="translate(-238,-190) scale(1,1)"><g><path fill="none" stroke="none"/><text fill="#000000" stroke="none" font-family="Arial" font-size="13px" font-style="normal" font-weight="normal" text-decoration="none" x="501" y="375.5">-identifiantPitd: String</text></g></g><g transform="translate(-238,-190) scale(1,1)"><g><path fill="none" stroke="none"/><text fill="#000000" stroke="none" font-family="Arial" font-size="13px" font-style="normal" font-weight="normal" text-decoration="none" x="501" y="390.5">-libellePitd: String</text></g></g></g></svg>