<svg version="1.1" xmlns="http://www.w3.org/2000/svg" xmlns:xlink="http://www.w3.org/1999/xlink" width="658.7841796875" height="465"><defs/><g><g transform="translate(-65,-366) scale(1,1)"><rect fill="#C0C0C0" stroke="none" x="391" y="423" width="119.54443359375" height="37" opacity="0.2"/></g><g transform="translate(-65,-366) scale(1,1)"><rect fill="#ffffff" stroke="none" x="384" y="416" width="119.54443359375" height="37"/></g><g transform="translate(-65,-366) scale(1,1)"><path fill="none" stroke="#000000" d="M 384 416 L 503.54443359375 416 L 503.54443359375 453 L 384 453 L 384 416 Z Z" stroke-miterlimit="10"/></g><g transform="translate(-65,-366) scale(1,1)"><g><path fill="none" stroke="none"/><text fill="#000000" stroke="none" font-family="Arial" font-size="13px" font-style="normal" font-weight="normal" text-decoration="none" x="414.8681640625" y="433.5">«Service»</text></g></g><g transform="translate(-65,-366) scale(1,1)"><g><path fill="none" stroke="none"/><text fill="#000000" stroke="none" font-family="Arial" font-size="13px" font-style="normal" font-weight="bold" text-decoration="none" x="392.470458984375" y="448.5">LoginUserService</text></g></g><g transform="translate(-65,-366) scale(1,1)"><rect fill="#C0C0C0" stroke="none" x="271" y="527" width="131.8525390625" height="37" opacity="0.2"/></g><g transform="translate(-65,-366) scale(1,1)"><rect fill="#ffffff" stroke="none" x="264" y="520" width="131.8525390625" height="37"/></g><g transform="translate(-65,-366) scale(1,1)"><path fill="none" stroke="#000000" d="M 264 520 L 395.8525390625 520 L 395.8525390625 557 L 264 557 L 264 520 Z Z" stroke-miterlimit="10"/></g><g transform="translate(-65,-366) scale(1,1)"><g><path fill="none" stroke="none"/><text fill="#000000" stroke="none" font-family="Arial" font-size="13px" font-style="normal" font-weight="normal" text-decoration="none" x="301.022216796875" y="537.5">«Service»</text></g></g><g transform="translate(-65,-366) scale(1,1)"><g><path fill="none" stroke="none"/><text fill="#000000" stroke="none" font-family="Arial" font-size="13px" font-style="normal" font-weight="bold" text-decoration="none" x="271.7626953125" y="552.5">MessageProService</text></g></g><g transform="translate(-65,-366) scale(1,1)"><rect fill="#C0C0C0" stroke="none" x="487" y="527" width="95.71533203125" height="37" opacity="0.2"/></g><g transform="translate(-65,-366) scale(1,1)"><rect fill="#ffffff" stroke="none" x="480" y="520" width="95.71533203125" height="37"/></g><g transform="translate(-65,-366) scale(1,1)"><path fill="none" stroke="#000000" d="M 480 520 L 575.71533203125 520 L 575.71533203125 557 L 480 557 L 480 520 Z Z" stroke-miterlimit="10"/></g><g transform="translate(-65,-366) scale(1,1)"><g><path fill="none" stroke="none"/><text fill="#000000" stroke="none" font-family="Arial" font-size="13px" font-style="normal" font-weight="normal" text-decoration="none" x="501.1181640625" y="537.5">«Sevice»</text></g></g><g transform="translate(-65,-366) scale(1,1)"><g><path fill="none" stroke="none"/><text fill="#000000" stroke="none" font-family="Arial" font-size="13px" font-style="normal" font-weight="bold" text-decoration="none" x="487.759521484375" y="552.5">ProfileService</text></g></g><g transform="translate(-65,-366) scale(1,1)"><rect fill="#C0C0C0" stroke="none" x="207" y="647" width="127.49169921875" height="37" opacity="0.2"/></g><g transform="translate(-65,-366) scale(1,1)"><rect fill="#ffffff" stroke="none" x="200" y="640" width="127.49169921875" height="37"/></g><g transform="translate(-65,-366) scale(1,1)"><path fill="none" stroke="#000000" d="M 200 640 L 327.49169921875 640 L 327.49169921875 677 L 200 677 L 200 640 Z Z" stroke-miterlimit="10"/></g><g transform="translate(-65,-366) scale(1,1)"><g><path fill="none" stroke="none"/><text fill="#000000" stroke="none" font-family="Arial" font-size="13px" font-style="normal" font-weight="normal" text-decoration="none" x="225.447265625" y="657.5">«Repository»</text></g></g><g transform="translate(-65,-366) scale(1,1)"><g><path fill="none" stroke="none"/><text fill="#000000" stroke="none" font-family="Arial" font-size="13px" font-style="normal" font-weight="bold" text-decoration="none" x="208.838623046875" y="672.5">PremiseRepository</text></g></g><g transform="translate(-65,-366) scale(1,1)"><rect fill="#C0C0C0" stroke="none" x="391" y="647" width="175.638671875" height="37" opacity="0.2"/></g><g transform="translate(-65,-366) scale(1,1)"><rect fill="#ffffff" stroke="none" x="384" y="640" width="175.638671875" height="37"/></g><g transform="translate(-65,-366) scale(1,1)"><path fill="none" stroke="#000000" d="M 384 640 L 559.638671875 640 L 559.638671875 677 L 384 677 L 384 640 Z Z" stroke-miterlimit="10"/></g><g transform="translate(-65,-366) scale(1,1)"><g><path fill="none" stroke="none"/><text fill="#000000" stroke="none" font-family="Arial" font-size="13px" font-style="normal" font-weight="normal" text-decoration="none" x="433.520751953125" y="657.5">«Repository»</text></g></g><g transform="translate(-65,-366) scale(1,1)"><g><path fill="none" stroke="none"/><text fill="#000000" stroke="none" font-family="Arial" font-size="13px" font-style="normal" font-weight="bold" text-decoration="none" x="394.146240234375" y="672.5">PswResetTokenRepository</text></g></g><g transform="translate(-65,-366) scale(1,1)"><rect fill="#C0C0C0" stroke="none" x="95" y="791" width="128.919921875" height="37" opacity="0.2"/></g><g transform="translate(-65,-366) scale(1,1)"><rect fill="#ffffff" stroke="none" x="88" y="784" width="128.919921875" height="37"/></g><g transform="translate(-65,-366) scale(1,1)"><path fill="none" stroke="#000000" d="M 88 784 L 216.919921875 784 L 216.919921875 821 L 88 821 L 88 784 Z Z" stroke-miterlimit="10"/></g><g transform="translate(-65,-366) scale(1,1)"><g><path fill="none" stroke="none"/><text fill="#000000" stroke="none" font-family="Arial" font-size="13px" font-style="normal" font-weight="normal" text-decoration="none" x="114.161376953125" y="801.5">«Repository»</text></g></g><g transform="translate(-65,-366) scale(1,1)"><g><path fill="none" stroke="none"/><text fill="#000000" stroke="none" font-family="Arial" font-size="13px" font-style="normal" font-weight="bold" text-decoration="none" x="97.54638671875" y="816.5">AddressRepository</text></g></g><g transform="translate(-65,-366) scale(1,1)"><path fill="none" stroke="#000000" d="M 152 784 L 152 763 L 116 763 L 116 784" stroke-miterlimit="10"/></g><g transform="translate(-65,-366) scale(1,1)"><path fill="none" stroke="#000000" d="M 111.79048224398402 773.8373251423759 L 116 784 L 120.20951775601598 773.8373251423759" stroke-miterlimit="10"/></g><g transform="translate(-65,-366) scale(1,1)"><g><path fill="none" stroke="none"/><text fill="#000000" stroke="none" font-family="Arial" font-size="13px" font-style="normal" font-weight="normal" text-decoration="none" x="74.5" y="764.5">-addressRepository</text></g></g><g transform="translate(-65,-366) scale(1,1)"><rect fill="#C0C0C0" stroke="none" x="295" y="791" width="136.8544921875" height="37" opacity="0.2"/></g><g transform="translate(-65,-366) scale(1,1)"><rect fill="#ffffff" stroke="none" x="288" y="784" width="136.8544921875" height="37"/></g><g transform="translate(-65,-366) scale(1,1)"><path fill="none" stroke="#000000" d="M 288 784 L 424.8544921875 784 L 424.8544921875 821 L 288 821 L 288 784 Z Z" stroke-miterlimit="10"/></g><g transform="translate(-65,-366) scale(1,1)"><g><path fill="none" stroke="none"/><text fill="#000000" stroke="none" font-family="Arial" font-size="13px" font-style="normal" font-weight="normal" text-decoration="none" x="318.128662109375" y="801.5">«Repository»</text></g></g><g transform="translate(-65,-366) scale(1,1)"><g><path fill="none" stroke="none"/><text fill="#000000" stroke="none" font-family="Arial" font-size="13px" font-style="normal" font-weight="bold" text-decoration="none" x="297.536865234375" y="816.5">OccupantRepository</text></g></g><g transform="translate(-65,-366) scale(1,1)"><rect fill="#C0C0C0" stroke="none" x="543" y="791" width="177.7841796875" height="37" opacity="0.2"/></g><g transform="translate(-65,-366) scale(1,1)"><rect fill="#ffffff" stroke="none" x="536" y="784" width="177.7841796875" height="37"/></g><g transform="translate(-65,-366) scale(1,1)"><path fill="none" stroke="#000000" d="M 536 784 L 713.7841796875 784 L 713.7841796875 821 L 536 821 L 536 784 Z Z" stroke-miterlimit="10"/></g><g transform="translate(-65,-366) scale(1,1)"><g><path fill="none" stroke="none"/><text fill="#000000" stroke="none" font-family="Arial" font-size="13px" font-style="normal" font-weight="normal" text-decoration="none" x="586.593505859375" y="801.5">«Repository»</text></g></g><g transform="translate(-65,-366) scale(1,1)"><g><path fill="none" stroke="none"/><text fill="#000000" stroke="none" font-family="Arial" font-size="13px" font-style="normal" font-weight="bold" text-decoration="none" x="546.850830078125" y="816.5">OccupationTypeRepository</text></g></g><g transform="translate(-65,-366) scale(1,1)"><path fill="none" stroke="#000000" d="M 624 783 L 624 432 L 505 433" stroke-miterlimit="10"/></g><g transform="translate(-65,-366) scale(1,1)"><path fill="#000000" stroke="none" d="M 515.1269432005959 428.7052332529105 L 505 433 L 515.1976889003138 437.1239715193508 L 526.999223259837 432.81513257764846"/></g><g transform="translate(-65,-366) scale(1,1)"><path fill="none" stroke="#000000" d="M 515.1269432005959 428.7052332529105 L 505 433 L 515.1976889003138 437.1239715193508 L 526.999223259837 432.81513257764846 L 515.1269432005959 428.7052332529105" stroke-miterlimit="10"/></g><g transform="translate(-65,-366) scale(1,1)"><path fill="none" stroke="#000000" d="M 611 783 L 584 744 L 584 592 L 548 558" stroke-miterlimit="10"/></g><g transform="translate(-65,-366) scale(1,1)"><path fill="#000000" stroke="none" d="M 558.2787522402894 561.9175569405878 L 548 558 L 552.4980443328709 568.038306489619 L 563.994289356096 573.1057177252018"/></g><g transform="translate(-65,-366) scale(1,1)"><path fill="none" stroke="#000000" d="M 558.2787522402894 561.9175569405878 L 548 558 L 552.4980443328709 568.038306489619 L 563.994289356096 573.1057177252018 L 558.2787522402894 561.9175569405878" stroke-miterlimit="10"/></g><g transform="translate(-65,-366) scale(1,1)"><path fill="none" stroke="#000000" d="M 356 783 L 360 616 L 424 616 L 441 454" stroke-miterlimit="10"/></g><g transform="translate(-65,-366) scale(1,1)"><path fill="#000000" stroke="none" d="M 444.1259000756075 464.5465040993363 L 441 454 L 435.75284057432117 463.667849707226 L 438.70396542468546 475.8798588941739"/></g><g transform="translate(-65,-366) scale(1,1)"><path fill="none" stroke="#000000" d="M 444.1259000756075 464.5465040993363 L 441 454 L 435.75284057432117 463.667849707226 L 438.70396542468546 475.8798588941739 L 444.1259000756075 464.5465040993363" stroke-miterlimit="10"/></g><g transform="translate(-65,-366) scale(1,1)"><path fill="none" stroke="#000000" d="M 152 783 L 152 376 L 376 376 L 421 415" stroke-miterlimit="10"/></g><g transform="translate(-65,-366) scale(1,1)"><path fill="#000000" stroke="none" d="M 410.5632358277239 411.5252404957619 L 421 415 L 416.0771192885779 405.16306727169956 L 404.374840178624 400.59152815480746"/></g><g transform="translate(-65,-366) scale(1,1)"><path fill="none" stroke="#000000" d="M 410.5632358277239 411.5252404957619 L 421 415 L 416.0771192885779 405.16306727169956 L 404.374840178624 400.59152815480746 L 410.5632358277239 411.5252404957619" stroke-miterlimit="10"/></g><g transform="translate(-65,-366) scale(1,1)"><path fill="none" stroke="#000000" d="M 253 639 L 232 600 L 232 440 L 383 436" stroke-miterlimit="10"/></g><g transform="translate(-65,-366) scale(1,1)"><path fill="#000000" stroke="none" d="M 372.952360261281 440.477157098083 L 383 436 L 372.7294176613404 432.0610739503244 L 361.0077148996367 436.58257708875135"/></g><g transform="translate(-65,-366) scale(1,1)"><path fill="none" stroke="#000000" d="M 372.952360261281 440.477157098083 L 383 436 L 372.7294176613404 432.0610739503244 L 361.0077148996367 436.58257708875135 L 372.952360261281 440.477157098083" stroke-miterlimit="10"/></g><g transform="translate(-65,-366) scale(1,1)"><path fill="none" stroke="#000000" d="M 454 639 L 440 624 L 443 454" stroke-miterlimit="10"/></g><g transform="translate(-65,-366) scale(1,1)"><path fill="#000000" stroke="none" d="M 447.0295490454078 464.2353668469016 L 443 454 L 438.61182414975553 464.08681876050775 L 442.61182514362906 475.99657519435425"/></g><g transform="translate(-65,-366) scale(1,1)"><path fill="none" stroke="#000000" d="M 447.0295490454078 464.2353668469016 L 443 454 L 438.61182414975553 464.08681876050775 L 442.61182514362906 475.99657519435425 L 447.0295490454078 464.2353668469016" stroke-miterlimit="10"/></g><g transform="translate(-65,-366) scale(1,1)"><path fill="none" stroke="#000000" d="M 329 519 L 328 480 L 376 480 L 414 454" stroke-miterlimit="10"/></g><g transform="translate(-65,-366) scale(1,1)"><path fill="#000000" stroke="none" d="M 407.9897176155028 463.21284460189156 L 414 454 L 403.2356236770606 456.2645534610914 L 395.84324025250373 466.4230461430238"/></g><g transform="translate(-65,-366) scale(1,1)"><path fill="none" stroke="#000000" d="M 407.9897176155028 463.21284460189156 L 414 454 L 403.2356236770606 456.2645534610914 L 395.84324025250373 466.4230461430238 L 407.9897176155028 463.21284460189156" stroke-miterlimit="10"/></g><g transform="translate(-65,-366) scale(1,1)"><path fill="none" stroke="#000000" d="M 527 519 L 528 480 L 496 480 L 466 454" stroke-miterlimit="10"/></g><g transform="translate(-65,-366) scale(1,1)"><path fill="#000000" stroke="none" d="M 476.4367641722761 457.4747595042381 L 466 454 L 470.9228807114221 463.83693272830044 L 482.625159821376 468.40847184519254"/></g><g transform="translate(-65,-366) scale(1,1)"><path fill="none" stroke="#000000" d="M 476.4367641722761 457.4747595042381 L 466 454 L 470.9228807114221 463.83693272830044 L 482.625159821376 468.40847184519254 L 476.4367641722761 457.4747595042381" stroke-miterlimit="10"/></g></g></svg>