<svg version="1.1" xmlns="http://www.w3.org/2000/svg" xmlns:xlink="http://www.w3.org/1999/xlink" width="780.919921875" height="484"><defs/><g><g transform="translate(-214,-38) scale(1,1)"><rect fill="#C0C0C0" stroke="none" x="447" y="55" width="150.2607421875" height="100" opacity="0.2"/></g><g transform="translate(-214,-38) scale(1,1)"><rect fill="#ffffff" stroke="none" x="440" y="48" width="150.2607421875" height="100"/></g><g transform="translate(-214,-38) scale(1,1)"><path fill="none" stroke="#000000" d="M 440 48 L 590.2607421875 48 L 590.2607421875 148 L 440 148 L 440 48 Z Z" stroke-miterlimit="10"/></g><g transform="translate(-214,-38) scale(1,1)"><path fill="none" stroke="#000000" d="M 440 101 L 590.2607421875 101" stroke-miterlimit="10"/></g><g transform="translate(-214,-38) scale(1,1)"><path fill="none" stroke="#000000" d="M 440 111 L 590.2607421875 111" stroke-miterlimit="10"/></g><g transform="translate(-214,-38) scale(1,1)"><g><path fill="none" stroke="none"/><text fill="#000000" stroke="none" font-family="Arial" font-size="13px" font-style="normal" font-weight="normal" text-decoration="none" x="486.226318359375" y="65.5">«Service»</text></g></g><g transform="translate(-214,-38) scale(1,1)"><g><path fill="none" stroke="none"/><text fill="#000000" stroke="none" font-family="Arial" font-size="13px" font-style="normal" font-weight="bold" text-decoration="none" x="463.82861328125" y="80.5">LoginUserService</text></g></g><g transform="translate(-214,-38) scale(1,1)"><g><path fill="none" stroke="none"/><text fill="#000000" stroke="none" font-family="Arial" font-size="13px" font-style="normal" font-weight="normal" text-decoration="none" x="472.15673828125" y="95.5">(from services)</text></g></g><g transform="translate(-214,-38) scale(1,1)"><g><path fill="none" stroke="none"/><text fill="#000000" stroke="none" font-family="Arial" font-size="13px" font-style="normal" font-weight="normal" text-decoration="none" x="445" y="128.5">+subscribe(Message)</text></g></g><g transform="translate(-214,-38) scale(1,1)"><g><path fill="none" stroke="none"/><text fill="#000000" stroke="none" font-family="Arial" font-size="13px" font-style="normal" font-weight="normal" text-decoration="none" x="445" y="143.5">+requestLostPassword()</text></g></g><g transform="translate(-214,-38) scale(1,1)"><rect fill="#C0C0C0" stroke="none" x="559" y="231" width="131.8525390625" height="72" opacity="0.2"/></g><g transform="translate(-214,-38) scale(1,1)"><rect fill="#ffffff" stroke="none" x="552" y="224" width="131.8525390625" height="72"/></g><g transform="translate(-214,-38) scale(1,1)"><path fill="none" stroke="#000000" d="M 552 224 L 683.8525390625 224 L 683.8525390625 296 L 552 296 L 552 224 Z Z" stroke-miterlimit="10"/></g><g transform="translate(-214,-38) scale(1,1)"><path fill="none" stroke="#000000" d="M 552 277 L 683.8525390625 277" stroke-miterlimit="10"/></g><g transform="translate(-214,-38) scale(1,1)"><path fill="none" stroke="#000000" d="M 552 287 L 683.8525390625 287" stroke-miterlimit="10"/></g><g transform="translate(-214,-38) scale(1,1)"><g><path fill="none" stroke="none"/><text fill="#000000" stroke="none" font-family="Arial" font-size="13px" font-style="normal" font-weight="normal" text-decoration="none" x="584.32177734375" y="241.5">«Producer»</text></g></g><g transform="translate(-214,-38) scale(1,1)"><g><path fill="none" stroke="none"/><text fill="#000000" stroke="none" font-family="Arial" font-size="13px" font-style="normal" font-weight="bold" text-decoration="none" x="559.7626953125" y="256.5">MessageProService</text></g></g><g transform="translate(-214,-38) scale(1,1)"><g><path fill="none" stroke="none"/><text fill="#000000" stroke="none" font-family="Arial" font-size="13px" font-style="normal" font-weight="normal" text-decoration="none" x="573.13720703125" y="271.5">(from producer)</text></g></g><g transform="translate(-214,-38) scale(1,1)"><rect fill="#C0C0C0" stroke="none" x="335" y="231" width="98.578125" height="72" opacity="0.2"/></g><g transform="translate(-214,-38) scale(1,1)"><rect fill="#ffffff" stroke="none" x="328" y="224" width="98.578125" height="72"/></g><g transform="translate(-214,-38) scale(1,1)"><path fill="none" stroke="#000000" d="M 328 224 L 426.578125 224 L 426.578125 296 L 328 296 L 328 224 Z Z" stroke-miterlimit="10"/></g><g transform="translate(-214,-38) scale(1,1)"><path fill="none" stroke="#000000" d="M 328 277 L 426.578125 277" stroke-miterlimit="10"/></g><g transform="translate(-214,-38) scale(1,1)"><path fill="none" stroke="#000000" d="M 328 287 L 426.578125 287" stroke-miterlimit="10"/></g><g transform="translate(-214,-38) scale(1,1)"><g><path fill="none" stroke="none"/><text fill="#000000" stroke="none" font-family="Arial" font-size="13px" font-style="normal" font-weight="normal" text-decoration="none" x="343.6845703125" y="241.5">«Producer»</text></g></g><g transform="translate(-214,-38) scale(1,1)"><g><path fill="none" stroke="none"/><text fill="#000000" stroke="none" font-family="Arial" font-size="13px" font-style="normal" font-weight="bold" text-decoration="none" x="340.805908203125" y="256.5">ProfilService</text></g></g><g transform="translate(-214,-38) scale(1,1)"><g><path fill="none" stroke="none"/><text fill="#000000" stroke="none" font-family="Arial" font-size="13px" font-style="normal" font-weight="normal" text-decoration="none" x="332.5" y="271.5">(from producer)</text></g></g><g transform="translate(-214,-38) scale(1,1)"><path fill="none" stroke="#000000" d="M 409 223 L 472 149" stroke-miterlimit="10"/></g><g transform="translate(-214,-38) scale(1,1)"><path fill="#000000" stroke="none" d="M 468.6173495563716 159.46698027017442 L 472 149 L 462.20683220534056 154.00937766051285 L 457.738597106407 165.75148911310924"/></g><g transform="translate(-214,-38) scale(1,1)"><path fill="none" stroke="#000000" d="M 468.6173495563716 159.46698027017442 L 472 149 L 462.20683220534056 154.00937766051285 L 457.738597106407 165.75148911310924 L 468.6173495563716 159.46698027017442" stroke-miterlimit="10"/></g><g transform="translate(-214,-38) scale(1,1)"><g><path fill="none" stroke="none"/><text fill="#000000" stroke="none" font-family="Arial" font-size="13px" font-style="normal" font-weight="normal" text-decoration="none" x="428.5" y="220.5">1</text></g></g><g transform="translate(-214,-38) scale(1,1)"><g><path fill="none" stroke="none"/><text fill="#000000" stroke="none" font-family="Arial" font-size="13px" font-style="normal" font-weight="normal" text-decoration="none" x="463.5" y="179.5">1</text></g></g><g transform="translate(-214,-38) scale(1,1)"><path fill="none" stroke="#000000" d="M 594 223 L 547 149" stroke-miterlimit="10"/></g><g transform="translate(-214,-38) scale(1,1)"><path fill="#000000" stroke="none" d="M 556.0019716874857 155.32174862974685 L 547 149 L 548.8952038992197 159.8355065493212 L 558.7950178602666 167.57087918424952"/></g><g transform="translate(-214,-38) scale(1,1)"><path fill="none" stroke="#000000" d="M 556.0019716874857 155.32174862974685 L 547 149 L 548.8952038992197 159.8355065493212 L 558.7950178602666 167.57087918424952 L 556.0019716874857 155.32174862974685" stroke-miterlimit="10"/></g><g transform="translate(-214,-38) scale(1,1)"><g><path fill="none" stroke="none"/><text fill="#000000" stroke="none" font-family="Arial" font-size="13px" font-style="normal" font-weight="normal" text-decoration="none" x="588.5" y="204.5">1</text></g></g><g transform="translate(-214,-38) scale(1,1)"><g><path fill="none" stroke="none"/><text fill="#000000" stroke="none" font-family="Arial" font-size="13px" font-style="normal" font-weight="normal" text-decoration="none" x="565.5" y="166.5">1</text></g></g><g transform="translate(-214,-38) scale(1,1)"><rect fill="#C0C0C0" stroke="none" x="231" y="351" width="127.49169921875" height="72" opacity="0.2"/></g><g transform="translate(-214,-38) scale(1,1)"><rect fill="#ffffff" stroke="none" x="224" y="344" width="127.49169921875" height="72"/></g><g transform="translate(-214,-38) scale(1,1)"><path fill="none" stroke="#000000" d="M 224 344 L 351.49169921875 344 L 351.49169921875 416 L 224 416 L 224 344 Z Z" stroke-miterlimit="10"/></g><g transform="translate(-214,-38) scale(1,1)"><path fill="none" stroke="#000000" d="M 224 397 L 351.49169921875 397" stroke-miterlimit="10"/></g><g transform="translate(-214,-38) scale(1,1)"><path fill="none" stroke="#000000" d="M 224 407 L 351.49169921875 407" stroke-miterlimit="10"/></g><g transform="translate(-214,-38) scale(1,1)"><g><path fill="none" stroke="none"/><text fill="#000000" stroke="none" font-family="Arial" font-size="13px" font-style="normal" font-weight="normal" text-decoration="none" x="249.447265625" y="361.5">«Repository»</text></g></g><g transform="translate(-214,-38) scale(1,1)"><g><path fill="none" stroke="none"/><text fill="#000000" stroke="none" font-family="Arial" font-size="13px" font-style="normal" font-weight="bold" text-decoration="none" x="232.838623046875" y="376.5">PremiseRepository</text></g></g><g transform="translate(-214,-38) scale(1,1)"><g><path fill="none" stroke="none"/><text fill="#000000" stroke="none" font-family="Arial" font-size="13px" font-style="normal" font-weight="normal" text-decoration="none" x="257.765869140625" y="391.5">(from dao)</text></g></g><g transform="translate(-214,-38) scale(1,1)"><rect fill="#C0C0C0" stroke="none" x="495" y="367" width="175.638671875" height="72" opacity="0.2"/></g><g transform="translate(-214,-38) scale(1,1)"><rect fill="#ffffff" stroke="none" x="488" y="360" width="175.638671875" height="72"/></g><g transform="translate(-214,-38) scale(1,1)"><path fill="none" stroke="#000000" d="M 488 360 L 663.638671875 360 L 663.638671875 432 L 488 432 L 488 360 Z Z" stroke-miterlimit="10"/></g><g transform="translate(-214,-38) scale(1,1)"><path fill="none" stroke="#000000" d="M 488 413 L 663.638671875 413" stroke-miterlimit="10"/></g><g transform="translate(-214,-38) scale(1,1)"><path fill="none" stroke="#000000" d="M 488 423 L 663.638671875 423" stroke-miterlimit="10"/></g><g transform="translate(-214,-38) scale(1,1)"><g><path fill="none" stroke="none"/><text fill="#000000" stroke="none" font-family="Arial" font-size="13px" font-style="normal" font-weight="normal" text-decoration="none" x="537.520751953125" y="377.5">«Repository»</text></g></g><g transform="translate(-214,-38) scale(1,1)"><g><path fill="none" stroke="none"/><text fill="#000000" stroke="none" font-family="Arial" font-size="13px" font-style="normal" font-weight="bold" text-decoration="none" x="498.146240234375" y="392.5">PswResetTokenRepository</text></g></g><g transform="translate(-214,-38) scale(1,1)"><g><path fill="none" stroke="none"/><text fill="#000000" stroke="none" font-family="Arial" font-size="13px" font-style="normal" font-weight="normal" text-decoration="none" x="545.83935546875" y="407.5">(from dao)</text></g></g><g transform="translate(-214,-38) scale(1,1)"><path fill="none" stroke="#000000" d="M 522 359 L 512 352 L 514 149" stroke-miterlimit="10"/></g><g transform="translate(-214,-38) scale(1,1)"><path fill="#000000" stroke="none" d="M 518.1091934535656 159.20365273621042 L 514 149 L 509.6905665135765 159.1207105988706 L 513.7832617502482 170.99893234980038"/></g><g transform="translate(-214,-38) scale(1,1)"><path fill="none" stroke="#000000" d="M 518.1091934535656 159.20365273621042 L 514 149 L 509.6905665135765 159.1207105988706 L 513.7832617502482 170.99893234980038 L 518.1091934535656 159.20365273621042" stroke-miterlimit="10"/></g><g transform="translate(-214,-38) scale(1,1)"><g><path fill="none" stroke="none"/><text fill="#000000" stroke="none" font-family="Arial" font-size="13px" font-style="normal" font-weight="normal" text-decoration="none" x="518.5" y="341.5">1</text></g></g><g transform="translate(-214,-38) scale(1,1)"><g><path fill="none" stroke="none"/><text fill="#000000" stroke="none" font-family="Arial" font-size="13px" font-style="normal" font-weight="normal" text-decoration="none" x="522.5" y="176.5">1</text></g></g><g transform="translate(-214,-38) scale(1,1)"><path fill="none" stroke="#000000" d="M 287 343 L 288 304 L 288 96 L 439 97" stroke-miterlimit="10"/></g><g transform="translate(-214,-38) scale(1,1)"><path fill="#000000" stroke="none" d="M 428.8096710012187 101.14212444243259 L 439 97 L 428.86542498067723 92.72327354420248 L 417.00048241911264 96.85430783059016"/></g><g transform="translate(-214,-38) scale(1,1)"><path fill="none" stroke="#000000" d="M 428.8096710012187 101.14212444243259 L 439 97 L 428.86542498067723 92.72327354420248 L 417.00048241911264 96.85430783059016 L 428.8096710012187 101.14212444243259" stroke-miterlimit="10"/></g><g transform="translate(-214,-38) scale(1,1)"><g><path fill="none" stroke="none"/><text fill="#000000" stroke="none" font-family="Arial" font-size="13px" font-style="normal" font-weight="normal" text-decoration="none" x="296.5" y="327.5">1</text></g></g><g transform="translate(-214,-38) scale(1,1)"><g><path fill="none" stroke="none"/><text fill="#000000" stroke="none" font-family="Arial" font-size="13px" font-style="normal" font-weight="normal" text-decoration="none" x="413.5" y="115.5">1</text></g></g><g transform="translate(-214,-38) scale(1,1)"><rect fill="#C0C0C0" stroke="none" x="327" y="447" width="166.2314453125" height="72" opacity="0.2"/></g><g transform="translate(-214,-38) scale(1,1)"><rect fill="#ffffff" stroke="none" x="320" y="440" width="166.2314453125" height="72"/></g><g transform="translate(-214,-38) scale(1,1)"><path fill="none" stroke="#000000" d="M 320 440 L 486.2314453125 440 L 486.2314453125 512 L 320 512 L 320 440 Z Z" stroke-miterlimit="10"/></g><g transform="translate(-214,-38) scale(1,1)"><path fill="none" stroke="#000000" d="M 320 493 L 486.2314453125 493" stroke-miterlimit="10"/></g><g transform="translate(-214,-38) scale(1,1)"><path fill="none" stroke="#000000" d="M 320 503 L 486.2314453125 503" stroke-miterlimit="10"/></g><g transform="translate(-214,-38) scale(1,1)"><g><path fill="none" stroke="none"/><text fill="#000000" stroke="none" font-family="Arial" font-size="13px" font-style="normal" font-weight="normal" text-decoration="none" x="364.817138671875" y="457.5">«Repository»</text></g></g><g transform="translate(-214,-38) scale(1,1)"><g><path fill="none" stroke="none"/><text fill="#000000" stroke="none" font-family="Arial" font-size="13px" font-style="normal" font-weight="bold" text-decoration="none" x="330.133544921875" y="472.5">OccupantTypeRepository</text></g></g><g transform="translate(-214,-38) scale(1,1)"><g><path fill="none" stroke="none"/><text fill="#000000" stroke="none" font-family="Arial" font-size="13px" font-style="normal" font-weight="normal" text-decoration="none" x="373.1357421875" y="487.5">(from dao)</text></g></g><g transform="translate(-214,-38) scale(1,1)"><path fill="none" stroke="#000000" d="M 402 439 L 400 344 L 387 297" stroke-miterlimit="10"/></g><g transform="translate(-214,-38) scale(1,1)"><path fill="#000000" stroke="none" d="M 393.7664074180063 305.67270030922026 L 387 297 L 385.65204736969486 307.91709776939155 L 392.8648931998447 318.20384464559237"/></g><g transform="translate(-214,-38) scale(1,1)"><path fill="none" stroke="#000000" d="M 393.7664074180063 305.67270030922026 L 387 297 L 385.65204736969486 307.91709776939155 L 392.8648931998447 318.20384464559237 L 393.7664074180063 305.67270030922026" stroke-miterlimit="10"/></g><g transform="translate(-214,-38) scale(1,1)"><g><path fill="none" stroke="none"/><text fill="#000000" stroke="none" font-family="Arial" font-size="13px" font-style="normal" font-weight="normal" text-decoration="none" x="410.5" y="423.5">1</text></g></g><g transform="translate(-214,-38) scale(1,1)"><g><path fill="none" stroke="none"/><text fill="#000000" stroke="none" font-family="Arial" font-size="13px" font-style="normal" font-weight="normal" text-decoration="none" x="400.5" y="320.5">1</text></g></g><g transform="translate(-214,-38) scale(1,1)"><path fill="none" stroke="#000000" d="M 436 439 L 464 408 L 464 216 L 493 149" stroke-miterlimit="10"/></g><g transform="translate(-214,-38) scale(1,1)"><path fill="#000000" stroke="none" d="M 492.8263192920556 159.99862877870183 L 493 149 L 485.09998420047765 156.65439418682482 L 484.26109387279007 169.18988656976092"/></g><g transform="translate(-214,-38) scale(1,1)"><path fill="none" stroke="#000000" d="M 492.8263192920556 159.99862877870183 L 493 149 L 485.09998420047765 156.65439418682482 L 484.26109387279007 169.18988656976092 L 492.8263192920556 159.99862877870183" stroke-miterlimit="10"/></g><g transform="translate(-214,-38) scale(1,1)"><g><path fill="none" stroke="none"/><text fill="#000000" stroke="none" font-family="Arial" font-size="13px" font-style="normal" font-weight="normal" text-decoration="none" x="455.5" y="437.5">1</text></g></g><g transform="translate(-214,-38) scale(1,1)"><g><path fill="none" stroke="none"/><text fill="#000000" stroke="none" font-family="Arial" font-size="13px" font-style="normal" font-weight="normal" text-decoration="none" x="491.5" y="179.5">1</text></g></g><g transform="translate(-214,-38) scale(1,1)"><rect fill="#C0C0C0" stroke="none" x="703" y="367" width="136.8544921875" height="72" opacity="0.2"/></g><g transform="translate(-214,-38) scale(1,1)"><rect fill="#ffffff" stroke="none" x="696" y="360" width="136.8544921875" height="72"/></g><g transform="translate(-214,-38) scale(1,1)"><path fill="none" stroke="#000000" d="M 696 360 L 832.8544921875 360 L 832.8544921875 432 L 696 432 L 696 360 Z Z" stroke-miterlimit="10"/></g><g transform="translate(-214,-38) scale(1,1)"><path fill="none" stroke="#000000" d="M 696 413 L 832.8544921875 413" stroke-miterlimit="10"/></g><g transform="translate(-214,-38) scale(1,1)"><path fill="none" stroke="#000000" d="M 696 423 L 832.8544921875 423" stroke-miterlimit="10"/></g><g transform="translate(-214,-38) scale(1,1)"><g><path fill="none" stroke="none"/><text fill="#000000" stroke="none" font-family="Arial" font-size="13px" font-style="normal" font-weight="normal" text-decoration="none" x="726.128662109375" y="377.5">«Repository»</text></g></g><g transform="translate(-214,-38) scale(1,1)"><g><path fill="none" stroke="none"/><text fill="#000000" stroke="none" font-family="Arial" font-size="13px" font-style="normal" font-weight="bold" text-decoration="none" x="705.536865234375" y="392.5">OccupantRepository</text></g></g><g transform="translate(-214,-38) scale(1,1)"><g><path fill="none" stroke="none"/><text fill="#000000" stroke="none" font-family="Arial" font-size="13px" font-style="normal" font-weight="normal" text-decoration="none" x="734.447265625" y="407.5">(from dao)</text></g></g><g transform="translate(-214,-38) scale(1,1)"><rect fill="#C0C0C0" stroke="none" x="863" y="367" width="128.919921875" height="72" opacity="0.2"/></g><g transform="translate(-214,-38) scale(1,1)"><rect fill="#ffffff" stroke="none" x="856" y="360" width="128.919921875" height="72"/></g><g transform="translate(-214,-38) scale(1,1)"><path fill="none" stroke="#000000" d="M 856 360 L 984.919921875 360 L 984.919921875 432 L 856 432 L 856 360 Z Z" stroke-miterlimit="10"/></g><g transform="translate(-214,-38) scale(1,1)"><path fill="none" stroke="#000000" d="M 856 413 L 984.919921875 413" stroke-miterlimit="10"/></g><g transform="translate(-214,-38) scale(1,1)"><path fill="none" stroke="#000000" d="M 856 423 L 984.919921875 423" stroke-miterlimit="10"/></g><g transform="translate(-214,-38) scale(1,1)"><g><path fill="none" stroke="none"/><text fill="#000000" stroke="none" font-family="Arial" font-size="13px" font-style="normal" font-weight="normal" text-decoration="none" x="882.161376953125" y="377.5">«Repository»</text></g></g><g transform="translate(-214,-38) scale(1,1)"><g><path fill="none" stroke="none"/><text fill="#000000" stroke="none" font-family="Arial" font-size="13px" font-style="normal" font-weight="bold" text-decoration="none" x="865.54638671875" y="392.5">AddressRepository</text></g></g><g transform="translate(-214,-38) scale(1,1)"><g><path fill="none" stroke="none"/><text fill="#000000" stroke="none" font-family="Arial" font-size="13px" font-style="normal" font-weight="normal" text-decoration="none" x="890.47998046875" y="407.5">(from dao)</text></g></g><g transform="translate(-214,-38) scale(1,1)"><path fill="none" stroke="#000000" d="M 764 359 L 760 96 L 591 97" stroke-miterlimit="10"/></g><g transform="translate(-214,-38) scale(1,1)"><path fill="#000000" stroke="none" d="M 601.1375889975038 92.73042281745717 L 591 97 L 601.1874049035924 101.14931094644167 L 612.999614869537 96.86982476408558"/></g><g transform="translate(-214,-38) scale(1,1)"><path fill="none" stroke="#000000" d="M 601.1375889975038 92.73042281745717 L 591 97 L 601.1874049035924 101.14931094644167 L 612.999614869537 96.86982476408558 L 601.1375889975038 92.73042281745717" stroke-miterlimit="10"/></g><g transform="translate(-214,-38) scale(1,1)"><g><path fill="none" stroke="none"/><text fill="#000000" stroke="none" font-family="Arial" font-size="13px" font-style="normal" font-weight="normal" text-decoration="none" x="772.5" y="343.5">1</text></g></g><g transform="translate(-214,-38) scale(1,1)"><g><path fill="none" stroke="none"/><text fill="#000000" stroke="none" font-family="Arial" font-size="13px" font-style="normal" font-weight="normal" text-decoration="none" x="608.5" y="90.5">1</text></g></g><g transform="translate(-214,-38) scale(1,1)"><path fill="none" stroke="#000000" d="M 920 359 L 920 56 L 648 56 L 591 74" stroke-miterlimit="10"/></g><g transform="translate(-214,-38) scale(1,1)"><path fill="#000000" stroke="none" d="M 599.4233327354004 66.92557665751248 L 591 74 L 601.9585684158495 74.95382297893491 L 611.9788186329511 67.37510990538385"/></g><g transform="translate(-214,-38) scale(1,1)"><path fill="none" stroke="#000000" d="M 599.4233327354004 66.92557665751248 L 591 74 L 601.9585684158495 74.95382297893491 L 611.9788186329511 67.37510990538385 L 599.4233327354004 66.92557665751248" stroke-miterlimit="10"/></g><g transform="translate(-214,-38) scale(1,1)"><g><path fill="none" stroke="none"/><text fill="#000000" stroke="none" font-family="Arial" font-size="13px" font-style="normal" font-weight="normal" text-decoration="none" x="928.5" y="343.5">1</text></g></g><g transform="translate(-214,-38) scale(1,1)"><g><path fill="none" stroke="none"/><text fill="#000000" stroke="none" font-family="Arial" font-size="13px" font-style="normal" font-weight="normal" text-decoration="none" x="603.5" y="61.5">1</text></g></g></g></svg>