<svg version="1.1" xmlns="http://www.w3.org/2000/svg" xmlns:xlink="http://www.w3.org/1999/xlink" width="658.7841796875" height="465"><defs/><g><g transform="translate(-65,-366) scale(1,1)"><rect fill="#C0C0C0" stroke="none" x="391" y="423" width="119.54443359375" height="37" opacity="0.2"/></g><g transform="translate(-65,-366) scale(1,1)"><rect fill="#ffffff" stroke="none" x="384" y="416" width="119.54443359375" height="37"/></g><g transform="translate(-65,-366) scale(1,1)"><path fill="none" stroke="#000000" d="M 384 416 L 503.54443359375 416 L 503.54443359375 453 L 384 453 L 384 416 Z Z" stroke-miterlimit="10"/></g><g transform="translate(-65,-366) scale(1,1)"><g><path fill="none" stroke="none"/><text fill="#000000" stroke="none" font-family="Arial" font-size="13px" font-style="normal" font-weight="normal" text-decoration="none" x="414.8681640625" y="433.5">«Service»</text></g></g><g transform="translate(-65,-366) scale(1,1)"><g><path fill="none" stroke="none"/><text fill="#000000" stroke="none" font-family="Arial" font-size="13px" font-style="normal" font-weight="bold" text-decoration="none" x="392.470458984375" y="448.5">LoginUserService</text></g></g><g transform="translate(-65,-366) scale(1,1)"><rect fill="#C0C0C0" stroke="none" x="271" y="527" width="131.8525390625" height="37" opacity="0.2"/></g><g transform="translate(-65,-366) scale(1,1)"><rect fill="#ffffff" stroke="none" x="264" y="520" width="131.8525390625" height="37"/></g><g transform="translate(-65,-366) scale(1,1)"><path fill="none" stroke="#000000" d="M 264 520 L 395.8525390625 520 L 395.8525390625 557 L 264 557 L 264 520 Z Z" stroke-miterlimit="10"/></g><g transform="translate(-65,-366) scale(1,1)"><g><path fill="none" stroke="none"/><text fill="#000000" stroke="none" font-family="Arial" font-size="13px" font-style="normal" font-weight="normal" text-decoration="none" x="301.022216796875" y="537.5">«Service»</text></g></g><g transform="translate(-65,-366) scale(1,1)"><g><path fill="none" stroke="none"/><text fill="#000000" stroke="none" font-family="Arial" font-size="13px" font-style="normal" font-weight="bold" text-decoration="none" x="271.7626953125" y="552.5">MessageProService</text></g></g><g transform="translate(-65,-366) scale(1,1)"><rect fill="#C0C0C0" stroke="none" x="487" y="527" width="95.71533203125" height="37" opacity="0.2"/></g><g transform="translate(-65,-366) scale(1,1)"><rect fill="#ffffff" stroke="none" x="480" y="520" width="95.71533203125" height="37"/></g><g transform="translate(-65,-366) scale(1,1)"><path fill="none" stroke="#000000" d="M 480 520 L 575.71533203125 520 L 575.71533203125 557 L 480 557 L 480 520 Z Z" stroke-miterlimit="10"/></g><g transform="translate(-65,-366) scale(1,1)"><g><path fill="none" stroke="none"/><text fill="#000000" stroke="none" font-family="Arial" font-size="13px" font-style="normal" font-weight="normal" text-decoration="none" x="501.1181640625" y="537.5">«Sevice»</text></g></g><g transform="translate(-65,-366) scale(1,1)"><g><path fill="none" stroke="none"/><text fill="#000000" stroke="none" font-family="Arial" font-size="13px" font-style="normal" font-weight="bold" text-decoration="none" x="487.759521484375" y="552.5">ProfileService</text></g></g><g transform="translate(-65,-366) scale(1,1)"><rect fill="#C0C0C0" stroke="none" x="207" y="647" width="127.49169921875" height="37" opacity="0.2"/></g><g transform="translate(-65,-366) scale(1,1)"><rect fill="#ffffff" stroke="none" x="200" y="640" width="127.49169921875" height="37"/></g><g transform="translate(-65,-366) scale(1,1)"><path fill="none" stroke="#000000" d="M 200 640 L 327.49169921875 640 L 327.49169921875 677 L 200 677 L 200 640 Z Z" stroke-miterlimit="10"/></g><g transform="translate(-65,-366) scale(1,1)"><g><path fill="none" stroke="none"/><text fill="#000000" stroke="none" font-family="Arial" font-size="13px" font-style="normal" font-weight="normal" text-decoration="none" x="225.447265625" y="657.5">«Repository»</text></g></g><g transform="translate(-65,-366) scale(1,1)"><g><path fill="none" stroke="none"/><text fill="#000000" stroke="none" font-family="Arial" font-size="13px" font-style="normal" font-weight="bold" text-decoration="none" x="208.838623046875" y="672.5">PremiseRepository</text></g></g><g transform="translate(-65,-366) scale(1,1)"><rect fill="#C0C0C0" stroke="none" x="391" y="647" width="175.638671875" height="37" opacity="0.2"/></g><g transform="translate(-65,-366) scale(1,1)"><rect fill="#ffffff" stroke="none" x="384" y="640" width="175.638671875" height="37"/></g><g transform="translate(-65,-366) scale(1,1)"><path fill="none" stroke="#000000" d="M 384 640 L 559.638671875 640 L 559.638671875 677 L 384 677 L 384 640 Z Z" stroke-miterlimit="10"/></g><g transform="translate(-65,-366) scale(1,1)"><g><path fill="none" stroke="none"/><text fill="#000000" stroke="none" font-family="Arial" font-size="13px" font-style="normal" font-weight="normal" text-decoration="none" x="433.520751953125" y="657.5">«Repository»</text></g></g><g transform="translate(-65,-366) scale(1,1)"><g><path fill="none" stroke="none"/><text fill="#000000" stroke="none" font-family="Arial" font-size="13px" font-style="normal" font-weight="bold" text-decoration="none" x="394.146240234375" y="672.5">PswResetTokenRepository</text></g></g><g transform="translate(-65,-366) scale(1,1)"><rect fill="#C0C0C0" stroke="none" x="95" y="791" width="128.919921875" height="37" opacity="0.2"/></g><g transform="translate(-65,-366) scale(1,1)"><rect fill="#ffffff" stroke="none" x="88" y="784" width="128.919921875" height="37"/></g><g transform="translate(-65,-366) scale(1,1)"><path fill="none" stroke="#000000" d="M 88 784 L 216.919921875 784 L 216.919921875 821 L 88 821 L 88 784 Z Z" stroke-miterlimit="10"/></g><g transform="translate(-65,-366) scale(1,1)"><g><path fill="none" stroke="none"/><text fill="#000000" stroke="none" font-family="Arial" font-size="13px" font-style="normal" font-weight="normal" text-decoration="none" x="114.161376953125" y="801.5">«Repository»</text></g></g><g transform="translate(-65,-366) scale(1,1)"><g><path fill="none" stroke="none"/><text fill="#000000" stroke="none" font-family="Arial" font-size="13px" font-style="normal" font-weight="bold" text-decoration="none" x="97.54638671875" y="816.5">AddressRepository</text></g></g><g transform="translate(-65,-366) scale(1,1)"><path fill="none" stroke="#000000" d="M 152 784 L 152 763 L 116 763 L 116 784" stroke-miterlimit="10"/></g><g transform="translate(-65,-366) scale(1,1)"><path fill="none" stroke="#000000" d="M 111.79048224398402 773.8373251423759 L 116 784 L 120.20951775601598 773.8373251423759" stroke-miterlimit="10"/></g><g transform="translate(-65,-366) scale(1,1)"><g><path fill="none" stroke="none"/><text fill="#000000" stroke="none" font-family="Arial" font-size="13px" font-style="normal" font-weight="normal" text-decoration="none" x="74.5" y="764.5">-addressRepository</text></g></g><g transform="translate(-65,-366) scale(1,1)"><rect fill="#C0C0C0" stroke="none" x="295" y="791" width="136.8544921875" height="37" opacity="0.2"/></g><g transform="translate(-65,-366) scale(1,1)"><rect fill="#ffffff" stroke="none" x="288" y="784" width="136.8544921875" height="37"/></g><g transform="translate(-65,-366) scale(1,1)"><path fill="none" stroke="#000000" d="M 288 784 L 424.8544921875 784 L 424.8544921875 821 L 288 821 L 288 784 Z Z" stroke-miterlimit="10"/></g><g transform="translate(-65,-366) scale(1,1)"><g><path fill="none" stroke="none"/><text fill="#000000" stroke="none" font-family="Arial" font-size="13px" font-style="normal" font-weight="normal" text-decoration="none" x="318.128662109375" y="801.5">«Repository»</text></g></g><g transform="translate(-65,-366) scale(1,1)"><g><path fill="none" stroke="none"/><text fill="#000000" stroke="none" font-family="Arial" font-size="13px" font-style="normal" font-weight="bold" text-decoration="none" x="297.536865234375" y="816.5">OccupantRepository</text></g></g><g transform="translate(-65,-366) scale(1,1)"><rect fill="#C0C0C0" stroke="none" x="543" y="791" width="177.7841796875" height="37" opacity="0.2"/></g><g transform="translate(-65,-366) scale(1,1)"><rect fill="#ffffff" stroke="none" x="536" y="784" width="177.7841796875" height="37"/></g><g transform="translate(-65,-366) scale(1,1)"><path fill="none" stroke="#000000" d="M 536 784 L 713.7841796875 784 L 713.7841796875 821 L 536 821 L 536 784 Z Z" stroke-miterlimit="10"/></g><g transform="translate(-65,-366) scale(1,1)"><g><path fill="none" stroke="none"/><text fill="#000000" stroke="none" font-family="Arial" font-size="13px" font-style="normal" font-weight="normal" text-decoration="none" x="586.593505859375" y="801.5">«Repository»</text></g></g><g transform="translate(-65,-366) scale(1,1)"><g><path fill="none" stroke="none"/><text fill="#000000" stroke="none" font-family="Arial" font-size="13px" font-style="normal" font-weight="bold" text-decoration="none" x="546.850830078125" y="816.5">OccupationTypeRepository</text></g></g><g transform="translate(-65,-366) scale(1,1)"><path fill="none" stroke="#000000" d="M 624 784 L 624 433 L 504 433" stroke-miterlimit="10"/></g><g transform="translate(-65,-366) scale(1,1)"><path fill="#000000" stroke="none" d="M 514.1626748576241 428.790482243984 L 504 433 L 514.1626748576241 437.209517756016 L 526 433"/></g><g transform="translate(-65,-366) scale(1,1)"><path fill="none" stroke="#000000" d="M 514.1626748576241 428.790482243984 L 504 433 L 514.1626748576241 437.209517756016 L 526 433 L 514.1626748576241 428.790482243984" stroke-miterlimit="10"/></g><g transform="translate(-65,-366) scale(1,1)"><path fill="none" stroke="#000000" d="M 584 784 L 584 592 L 548 592 L 548 557" stroke-miterlimit="10"/></g><g transform="translate(-65,-366) scale(1,1)"><path fill="#000000" stroke="none" d="M 552.209517756016 567.1626748576241 L 548 557 L 543.790482243984 567.1626748576241 L 548 579"/></g><g transform="translate(-65,-366) scale(1,1)"><path fill="none" stroke="#000000" d="M 552.209517756016 567.1626748576241 L 548 557 L 543.790482243984 567.1626748576241 L 548 579 L 552.209517756016 567.1626748576241" stroke-miterlimit="10"/></g><g transform="translate(-65,-366) scale(1,1)"><path fill="none" stroke="#000000" d="M 360 784 L 360 616 L 424 616 L 424 453" stroke-miterlimit="10"/></g><g transform="translate(-65,-366) scale(1,1)"><path fill="#000000" stroke="none" d="M 428.209517756016 463.16267485762415 L 424 453 L 419.790482243984 463.16267485762415 L 424 475"/></g><g transform="translate(-65,-366) scale(1,1)"><path fill="none" stroke="#000000" d="M 428.209517756016 463.16267485762415 L 424 453 L 419.790482243984 463.16267485762415 L 424 475 L 428.209517756016 463.16267485762415" stroke-miterlimit="10"/></g><g transform="translate(-65,-366) scale(1,1)"><path fill="none" stroke="#000000" d="M 176 784 L 176 376 L 392 376 L 392 416" stroke-miterlimit="10"/></g><g transform="translate(-65,-366) scale(1,1)"><path fill="#000000" stroke="none" d="M 387.790482243984 405.83732514237585 L 392 416 L 396.209517756016 405.83732514237585 L 392 394"/></g><g transform="translate(-65,-366) scale(1,1)"><path fill="none" stroke="#000000" d="M 387.790482243984 405.83732514237585 L 392 416 L 396.209517756016 405.83732514237585 L 392 394 L 387.790482243984 405.83732514237585" stroke-miterlimit="10"/></g><g transform="translate(-65,-366) scale(1,1)"><path fill="none" stroke="#000000" d="M 232 640 L 232 440 L 384 440" stroke-miterlimit="10"/></g><g transform="translate(-65,-366) scale(1,1)"><path fill="#000000" stroke="none" d="M 373.83732514237585 444.209517756016 L 384 440 L 373.83732514237585 435.790482243984 L 362 440"/></g><g transform="translate(-65,-366) scale(1,1)"><path fill="none" stroke="#000000" d="M 373.83732514237585 444.209517756016 L 384 440 L 373.83732514237585 435.790482243984 L 362 440 L 373.83732514237585 444.209517756016" stroke-miterlimit="10"/></g><g transform="translate(-65,-366) scale(1,1)"><path fill="none" stroke="#000000" d="M 440 640 L 440 453" stroke-miterlimit="10"/></g><g transform="translate(-65,-366) scale(1,1)"><path fill="#000000" stroke="none" d="M 444.209517756016 463.16267485762415 L 440 453 L 435.790482243984 463.16267485762415 L 440 475"/></g><g transform="translate(-65,-366) scale(1,1)"><path fill="none" stroke="#000000" d="M 444.209517756016 463.16267485762415 L 440 453 L 435.790482243984 463.16267485762415 L 440 475 L 444.209517756016 463.16267485762415" stroke-miterlimit="10"/></g><g transform="translate(-65,-366) scale(1,1)"><path fill="none" stroke="#000000" d="M 328 520 L 328 480 L 414 480 L 414 453" stroke-miterlimit="10"/></g><g transform="translate(-65,-366) scale(1,1)"><path fill="#000000" stroke="none" d="M 418.209517756016 463.16267485762415 L 414 453 L 409.790482243984 463.16267485762415 L 414 475"/></g><g transform="translate(-65,-366) scale(1,1)"><path fill="none" stroke="#000000" d="M 418.209517756016 463.16267485762415 L 414 453 L 409.790482243984 463.16267485762415 L 414 475 L 418.209517756016 463.16267485762415" stroke-miterlimit="10"/></g><g transform="translate(-65,-366) scale(1,1)"><path fill="none" stroke="#000000" d="M 528 520 L 528 480 L 466 480 L 466 453" stroke-miterlimit="10"/></g><g transform="translate(-65,-366) scale(1,1)"><path fill="#000000" stroke="none" d="M 470.209517756016 463.16267485762415 L 466 453 L 461.790482243984 463.16267485762415 L 466 475"/></g><g transform="translate(-65,-366) scale(1,1)"><path fill="none" stroke="#000000" d="M 470.209517756016 463.16267485762415 L 466 453 L 461.790482243984 463.16267485762415 L 466 475 L 470.209517756016 463.16267485762415" stroke-miterlimit="10"/></g></g></svg>