<svg version="1.1" xmlns="http://www.w3.org/2000/svg" xmlns:xlink="http://www.w3.org/1999/xlink" width="478.39794921875" height="273"><defs/><g><g transform="translate(-977,-374) scale(1,1)"><rect fill="#C0C0C0" stroke="none" x="999" y="407" width="93.53173828125" height="70" opacity="0.2"/></g><g transform="translate(-977,-374) scale(1,1)"><rect fill="#ffffff" stroke="none" x="992" y="400" width="93.53173828125" height="70"/></g><g transform="translate(-977,-374) scale(1,1)"><path fill="none" stroke="#000000" d="M 992 400 L 1085.53173828125 400 L 1085.53173828125 470 L 992 470 L 992 400 Z Z" stroke-miterlimit="10"/></g><g transform="translate(-977,-374) scale(1,1)"><path fill="none" stroke="#000000" d="M 992 438 L 1085.53173828125 438" stroke-miterlimit="10"/></g><g transform="translate(-977,-374) scale(1,1)"><path fill="none" stroke="#000000" d="M 992 448 L 1085.53173828125 448" stroke-miterlimit="10"/></g><g transform="translate(-977,-374) scale(1,1)"><g><path fill="none" stroke="none"/><text fill="#000000" stroke="none" font-family="Arial" font-size="13px" font-style="normal" font-weight="normal" text-decoration="none" x="1009.1318359375" y="417.5">«Deleted»</text></g></g><g transform="translate(-977,-374) scale(1,1)"><g><path fill="none" stroke="none"/><text fill="#000000" stroke="none" font-family="Arial" font-size="13px" font-style="normal" font-weight="bold" text-decoration="none" x="1000.483154296875" y="432.5">redirectCtrl.js</text></g></g><g transform="translate(-977,-374) scale(1,1)"><g><path fill="none" stroke="none"/><text fill="#000000" stroke="none" font-family="Arial" font-size="13px" font-style="normal" font-weight="normal" text-decoration="none" x="997" y="465.5">+$scope.init()</text></g></g><g transform="translate(-977,-374) scale(1,1)"><rect fill="#C0C0C0" stroke="none" x="994" y="545" width="184.2587890625" height="85" opacity="0.2"/></g><g transform="translate(-977,-374) scale(1,1)"><rect fill="#ffffff" stroke="none" x="987" y="538" width="184.2587890625" height="85"/></g><g transform="translate(-977,-374) scale(1,1)"><path fill="none" stroke="#000000" d="M 987 538 L 1171.2587890625 538 L 1171.2587890625 623 L 987 623 L 987 538 Z Z" stroke-miterlimit="10"/></g><g transform="translate(-977,-374) scale(1,1)"><path fill="none" stroke="#000000" d="M 987 576 L 1171.2587890625 576" stroke-miterlimit="10"/></g><g transform="translate(-977,-374) scale(1,1)"><path fill="none" stroke="#000000" d="M 987 586 L 1171.2587890625 586" stroke-miterlimit="10"/></g><g transform="translate(-977,-374) scale(1,1)"><g><path fill="none" stroke="none"/><text fill="#000000" stroke="none" font-family="Arial" font-size="13px" font-style="normal" font-weight="normal" text-decoration="none" x="1049.495361328125" y="555.5">«Deleted»</text></g></g><g transform="translate(-977,-374) scale(1,1)"><g><path fill="none" stroke="none"/><text fill="#000000" stroke="none" font-family="Arial" font-size="13px" font-style="normal" font-weight="bold" text-decoration="none" x="1020.232666015625" y="570.5">enedisLandingCtrl.js</text></g></g><g transform="translate(-977,-374) scale(1,1)"><g><path fill="none" stroke="none"/><text fill="#000000" stroke="none" font-family="Arial" font-size="13px" font-style="normal" font-weight="normal" text-decoration="none" x="992" y="603.5">«POST»+$scope.init()</text></g></g><g transform="translate(-977,-374) scale(1,1)"><g><path fill="none" stroke="none"/><text fill="#000000" stroke="none" font-family="Arial" font-size="13px" font-style="normal" font-weight="normal" text-decoration="none" x="992" y="618.5">«authorizeCode»+$scope.on()</text></g></g><g transform="translate(-977,-374) scale(1,1)"><path fill="none" stroke="#000000" d="M 1048 471 L 1067 537" stroke-miterlimit="10" stroke-dasharray="3"/></g><g transform="translate(-977,-374) scale(1,1)"><path fill="none" stroke="#000000" d="M 1060.1433296599937 528.3984843284176 L 1067 537 L 1068.2337919660793 526.0694118463626" stroke-miterlimit="10"/></g><g transform="translate(-977,-374) scale(1,1)"><rect fill="#C0C0C0" stroke="none" x="1279" y="439" width="173.39794921875" height="205" opacity="0.2"/></g><g transform="translate(-977,-374) scale(1,1)"><rect fill="#ffffff" stroke="none" x="1272" y="432" width="173.39794921875" height="205"/></g><g transform="translate(-977,-374) scale(1,1)"><path fill="none" stroke="#000000" d="M 1272 432 L 1445.39794921875 432 L 1445.39794921875 637 L 1272 637 L 1272 432 Z Z" stroke-miterlimit="10"/></g><g transform="translate(-977,-374) scale(1,1)"><path fill="none" stroke="#000000" d="M 1272 485 L 1445.39794921875 485" stroke-miterlimit="10"/></g><g transform="translate(-977,-374) scale(1,1)"><path fill="none" stroke="#000000" d="M 1272 495 L 1445.39794921875 495" stroke-miterlimit="10"/></g><g transform="translate(-977,-374) scale(1,1)"><g><path fill="none" stroke="none"/><text fill="#000000" stroke="none" font-family="Arial" font-size="13px" font-style="normal" font-weight="normal" text-decoration="none" x="1329.794921875" y="449.5">«Service»</text></g></g><g transform="translate(-977,-374) scale(1,1)"><g><path fill="none" stroke="none"/><text fill="#000000" stroke="none" font-family="Arial" font-size="13px" font-style="normal" font-weight="bold" text-decoration="none" x="1323.304443359375" y="464.5">UserFactory</text></g></g><g transform="translate(-977,-374) scale(1,1)"><g><path fill="none" stroke="none"/><text fill="#000000" stroke="none" font-family="Arial" font-size="13px" font-style="normal" font-weight="normal" text-decoration="none" x="1314.639892578125" y="479.5">(from common)</text></g></g><g transform="translate(-977,-374) scale(1,1)"><g><path fill="none" stroke="none"/><text fill="#000000" stroke="none" font-family="Arial" font-size="13px" font-style="normal" font-weight="normal" text-decoration="none" x="1277" y="512.5">+changePasswordRequest()</text></g></g><g transform="translate(-977,-374) scale(1,1)"><g><path fill="none" stroke="none"/><text fill="#000000" stroke="none" font-family="Arial" font-size="13px" font-style="normal" font-weight="normal" text-decoration="none" x="1277" y="527.5">+clientConnectGrdfAdict()</text></g></g><g transform="translate(-977,-374) scale(1,1)"><g><path fill="none" stroke="none"/><text fill="#000000" stroke="none" font-family="Arial" font-size="13px" font-style="normal" font-weight="normal" text-decoration="none" x="1277" y="542.5">+isConnected()</text></g></g><g transform="translate(-977,-374) scale(1,1)"><g><path fill="none" stroke="none"/><text fill="#000000" stroke="none" font-family="Arial" font-size="13px" font-style="normal" font-weight="normal" text-decoration="none" x="1277" y="557.5">+getUserId()</text></g></g><g transform="translate(-977,-374) scale(1,1)"><g><path fill="none" stroke="none"/><text fill="#000000" stroke="none" font-family="Arial" font-size="13px" font-style="normal" font-weight="normal" text-decoration="none" x="1277" y="572.5">+getUserOccupyId()</text></g></g><g transform="translate(-977,-374) scale(1,1)"><g><path fill="none" stroke="none"/><text fill="#000000" stroke="none" font-family="Arial" font-size="13px" font-style="normal" font-weight="normal" text-decoration="none" x="1277" y="587.5">+getUserName()</text></g></g><g transform="translate(-977,-374) scale(1,1)"><g><path fill="none" stroke="none"/><text fill="#000000" stroke="none" font-family="Arial" font-size="13px" font-style="normal" font-weight="normal" text-decoration="none" x="1277" y="602.5">+getUserIdPromise()</text></g></g><g transform="translate(-977,-374) scale(1,1)"><g><path fill="none" stroke="none"/><text fill="#000000" stroke="none" font-family="Arial" font-size="13px" font-style="normal" font-weight="normal" text-decoration="none" x="1277" y="617.5">+getUserOccupyStartDate()</text></g></g><g transform="translate(-977,-374) scale(1,1)"><g><path fill="none" stroke="none"/><text fill="#000000" stroke="none" font-family="Arial" font-size="13px" font-style="normal" font-weight="normal" text-decoration="none" x="1277" y="632.5">+getUserOccupyEndDate()</text></g></g><g transform="translate(-977,-374) scale(1,1)"><path fill="none" stroke="#000000" d="M 1172 565 L 1271 548" stroke-miterlimit="10" stroke-dasharray="3"/></g><g transform="translate(-977,-374) scale(1,1)"><path fill="none" stroke="#000000" d="M 1261.6963425898177 553.8687271868746 L 1271 548 L 1260.2715039646507 545.5711375461965" stroke-miterlimit="10"/></g><g transform="translate(-977,-374) scale(1,1)"><path fill="#C0C0C0" stroke="none" d="M 1157.744970703125 391 L 1193.5849707031252 391 L 1208.9449707031251 406.36 L 1208.9449707031251 455 L 1157.744970703125 455" opacity="0.2"/></g><g transform="translate(-977,-374) scale(1,1)"><path fill="#ffffff" stroke="none" d="M 1150.744970703125 384 L 1186.584970703125 384 L 1201.944970703125 399.35999999999996 L 1201.944970703125 448 L 1150.744970703125 448"/></g><g transform="translate(-977,-374) scale(1,1)"><path fill="none" stroke="#000000" d="M 1150.744970703125 384 L 1186.584970703125 384 L 1201.944970703125 399.35999999999996 L 1201.944970703125 448 L 1150.744970703125 448 L 1150.744970703125 384" stroke-miterlimit="10"/></g><g transform="translate(-977,-374) scale(1,1)"><path fill="none" stroke="#000000" d="M 1186.584970703125 384 L 1186.584970703125 399.35999999999996 L 1201.944970703125 399.35999999999996 L 1186.584970703125 384" stroke-miterlimit="10"/></g><g transform="translate(-977,-374) scale(1,1)"><g><path fill="none" stroke="none"/><text fill="#000000" stroke="none" font-family="Arial" font-size="13px" font-style="normal" font-weight="bold" text-decoration="none" x="1106.35888671875" y="467.5">enedisLandingView.html</text></g></g><g transform="translate(-977,-374) scale(1,1)"><path fill="none" stroke="#000000" d="M 1147 474 L 1106 537" stroke-miterlimit="10" stroke-dasharray="3"/></g><g transform="translate(-977,-374) scale(1,1)"><path fill="none" stroke="#000000" d="M 1108.015127577096 526.1861542063876 L 1106 537 L 1115.0714540660895 530.7783666833517" stroke-miterlimit="10"/></g></g></svg>