<svg version="1.1" xmlns="http://www.w3.org/2000/svg" xmlns:xlink="http://www.w3.org/1999/xlink" width="290.4189453125" height="112"><defs/><g><g transform="translate(-441.79345703125,-10) scale(1,1)"><rect fill="#C0C0C0" stroke="none" x="458.79345703125" y="27" width="89.89453125" height="37" opacity="0.2"/></g><g transform="translate(-441.79345703125,-10) scale(1,1)"><rect fill="#ffffff" stroke="none" x="451.79345703125" y="20" width="89.89453125" height="37"/></g><g transform="translate(-441.79345703125,-10) scale(1,1)"><path fill="none" stroke="#000000" d="M 451.79345703125 20 L 541.68798828125 20 L 541.68798828125 57 L 451.79345703125 57 L 451.79345703125 20 Z Z" stroke-miterlimit="10"/></g><g transform="translate(-441.79345703125,-10) scale(1,1)"><g><path fill="none" stroke="none"/><text fill="#000000" stroke="none" font-family="Arial" font-size="13px" font-style="normal" font-weight="normal" text-decoration="none" x="460.96533203125" y="37.5">«Exception»</text></g></g><g transform="translate(-441.79345703125,-10) scale(1,1)"><g><path fill="none" stroke="none"/><text fill="#000000" stroke="none" font-family="Arial" font-size="13px" font-style="normal" font-weight="bold" text-decoration="none" x="458.810302734375" y="52.5">MTException</text></g></g><g transform="translate(-441.79345703125,-10) scale(1,1)"><rect fill="#C0C0C0" stroke="none" x="593.05615234375" y="82" width="136.15625" height="37" opacity="0.2"/></g><g transform="translate(-441.79345703125,-10) scale(1,1)"><rect fill="#ffffff" stroke="none" x="586.05615234375" y="75" width="136.15625" height="37"/></g><g transform="translate(-441.79345703125,-10) scale(1,1)"><path fill="none" stroke="#000000" d="M 586.05615234375 75 L 722.21240234375 75 L 722.21240234375 112 L 586.05615234375 112 L 586.05615234375 75 Z Z" stroke-miterlimit="10"/></g><g transform="translate(-441.79345703125,-10) scale(1,1)"><g><path fill="none" stroke="none"/><text fill="#000000" stroke="none" font-family="Arial" font-size="13px" font-style="normal" font-weight="normal" text-decoration="none" x="618.35888671875" y="92.5">«Exception»</text></g></g><g transform="translate(-441.79345703125,-10) scale(1,1)"><g><path fill="none" stroke="none"/><text fill="#000000" stroke="none" font-family="Arial" font-size="13px" font-style="normal" font-weight="bold" text-decoration="none" x="594.52978515625" y="107.5">MTServiceException</text></g></g><g transform="translate(-441.79345703125,-10) scale(1,1)"><path fill="none" stroke="#000000" d="M 655 74 Q 655 60 543 44" stroke-miterlimit="10"/></g><g transform="translate(-441.79345703125,-10) scale(1,1)"><path fill="#FFFFFF" stroke="none" d="M 564.3117010794178 38.5400185804766 L 543 44 L 561.9304382387745 55.20885846497946"/></g><g transform="translate(-441.79345703125,-10) scale(1,1)"><path fill="none" stroke="#000000" d="M 564.3117010794178 38.5400185804766 L 543 44 L 561.9304382387745 55.20885846497946 L 564.3117010794178 38.5400185804766" stroke-miterlimit="10"/></g></g></svg>