<svg version="1.1" xmlns="http://www.w3.org/2000/svg" xmlns:xlink="http://www.w3.org/1999/xlink" width="523.39453125" height="234"><defs/><g><g transform="translate(-407,-294) scale(1,1)"><rect fill="#C0C0C0" stroke="none" x="424" y="358" width="47.52070312500001" height="15" opacity="0.2"/></g><g transform="translate(-407,-294) scale(1,1)"><rect fill="#C0C0C0" stroke="none" x="424" y="372" width="118.8017578125" height="40" opacity="0.2"/></g><g transform="translate(-407,-294) scale(1,1)"><rect fill="#ffffff" stroke="none" x="417" y="366" width="118.8017578125" height="39"/></g><g transform="translate(-407,-294) scale(1,1)"><path fill="none" stroke="#000000" d="M 417 366 L 535.8017578125 366 L 535.8017578125 405 L 417 405 L 417 366 Z Z" stroke-miterlimit="10"/></g><g transform="translate(-407,-294) scale(1,1)"><rect fill="#ffffff" stroke="none" x="417" y="351" width="47.52070312500001" height="15"/></g><g transform="translate(-407,-294) scale(1,1)"><path fill="none" stroke="#000000" d="M 417 351 L 464.520703125 351 L 464.520703125 366 L 417 366 L 417 351 Z Z" stroke-miterlimit="10"/></g><g transform="translate(-407,-294) scale(1,1)"><rect fill="#ffffff" stroke="none" x="417" y="365" width="118.8017578125" height="40"/></g><g transform="translate(-407,-294) scale(1,1)"><path fill="none" stroke="#000000" d="M 417 365 L 535.8017578125 365 L 535.8017578125 405 L 417 405 L 417 365 Z Z" stroke-miterlimit="10"/></g><g transform="translate(-407,-294) scale(1,1)"><path fill="none" stroke="#000000" d="M 456.520703125 354 L 456.520703125 358" stroke-miterlimit="10"/></g><g transform="translate(-407,-294) scale(1,1)"><path fill="none" stroke="#000000" d="M 453.520703125 362 L 453.520703125 358 L 459.520703125 358" stroke-miterlimit="10"/></g><g transform="translate(-407,-294) scale(1,1)"><path fill="none" stroke="#000000" d="M 459.520703125 362 L 459.520703125 358 L 453.520703125 358" stroke-miterlimit="10"/></g><g transform="translate(-407,-294) scale(1,1)"><g><path fill="none" stroke="none"/><text fill="#000000" stroke="none" font-family="Arial" font-size="13px" font-style="normal" font-weight="bold" text-decoration="none" x="423.30908203125" y="385.5">S2G-MT-Pro-Back</text></g></g><g transform="translate(-407,-294) scale(1,1)"><g><path fill="none" stroke="none"/><text fill="#000000" stroke="none" font-family="Arial" font-size="13px" font-style="normal" font-weight="normal" text-decoration="none" x="432.7099609375" y="400.5">(from S2G-MT)</text></g></g><g transform="translate(-407,-294) scale(1,1)"><rect fill="#C0C0C0" stroke="none" x="615" y="359" width="46.086132812499955" height="15" opacity="0.2"/></g><g transform="translate(-407,-294) scale(1,1)"><rect fill="#C0C0C0" stroke="none" x="615" y="373" width="115.21533203125" height="40" opacity="0.2"/></g><g transform="translate(-407,-294) scale(1,1)"><rect fill="#ffffff" stroke="none" x="608" y="367" width="115.21533203125" height="39"/></g><g transform="translate(-407,-294) scale(1,1)"><path fill="none" stroke="#000000" d="M 608 367 L 723.21533203125 367 L 723.21533203125 406 L 608 406 L 608 367 Z Z" stroke-miterlimit="10"/></g><g transform="translate(-407,-294) scale(1,1)"><rect fill="#ffffff" stroke="none" x="608" y="352" width="46.086132812499955" height="15"/></g><g transform="translate(-407,-294) scale(1,1)"><path fill="none" stroke="#000000" d="M 608 352 L 654.0861328125 352 L 654.0861328125 367 L 608 367 L 608 352 Z Z" stroke-miterlimit="10"/></g><g transform="translate(-407,-294) scale(1,1)"><rect fill="#ffffff" stroke="none" x="608" y="366" width="115.21533203125" height="40"/></g><g transform="translate(-407,-294) scale(1,1)"><path fill="none" stroke="#000000" d="M 608 366 L 723.21533203125 366 L 723.21533203125 406 L 608 406 L 608 366 Z Z" stroke-miterlimit="10"/></g><g transform="translate(-407,-294) scale(1,1)"><path fill="none" stroke="#000000" d="M 646.0861328125 355 L 646.0861328125 359" stroke-miterlimit="10"/></g><g transform="translate(-407,-294) scale(1,1)"><path fill="none" stroke="#000000" d="M 643.0861328125 363 L 643.0861328125 359 L 649.0861328125 359" stroke-miterlimit="10"/></g><g transform="translate(-407,-294) scale(1,1)"><path fill="none" stroke="#000000" d="M 649.0861328125 363 L 649.0861328125 359 L 643.0861328125 359" stroke-miterlimit="10"/></g><g transform="translate(-407,-294) scale(1,1)"><g><path fill="none" stroke="none"/><text fill="#000000" stroke="none" font-family="Arial" font-size="13px" font-style="normal" font-weight="bold" text-decoration="none" x="614.32177734375" y="386.5">S2G-MT-Services</text></g></g><g transform="translate(-407,-294) scale(1,1)"><g><path fill="none" stroke="none"/><text fill="#000000" stroke="none" font-family="Arial" font-size="13px" font-style="normal" font-weight="normal" text-decoration="none" x="621.916748046875" y="401.5">(from S2G-MT)</text></g></g><g transform="translate(-407,-294) scale(1,1)"><rect fill="#C0C0C0" stroke="none" x="831" y="359" width="38.557812499999955" height="15" opacity="0.2"/></g><g transform="translate(-407,-294) scale(1,1)"><rect fill="#C0C0C0" stroke="none" x="831" y="373" width="96.39453125" height="40" opacity="0.2"/></g><g transform="translate(-407,-294) scale(1,1)"><rect fill="#ffffff" stroke="none" x="824" y="367" width="96.39453125" height="39"/></g><g transform="translate(-407,-294) scale(1,1)"><path fill="none" stroke="#000000" d="M 824 367 L 920.39453125 367 L 920.39453125 406 L 824 406 L 824 367 Z Z" stroke-miterlimit="10"/></g><g transform="translate(-407,-294) scale(1,1)"><rect fill="#ffffff" stroke="none" x="824" y="352" width="38.557812499999955" height="15"/></g><g transform="translate(-407,-294) scale(1,1)"><path fill="none" stroke="#000000" d="M 824 352 L 862.5578125 352 L 862.5578125 367 L 824 367 L 824 352 Z Z" stroke-miterlimit="10"/></g><g transform="translate(-407,-294) scale(1,1)"><rect fill="#ffffff" stroke="none" x="824" y="366" width="96.39453125" height="40"/></g><g transform="translate(-407,-294) scale(1,1)"><path fill="none" stroke="#000000" d="M 824 366 L 920.39453125 366 L 920.39453125 406 L 824 406 L 824 366 Z Z" stroke-miterlimit="10"/></g><g transform="translate(-407,-294) scale(1,1)"><path fill="none" stroke="#000000" d="M 854.5578125 355 L 854.5578125 359" stroke-miterlimit="10"/></g><g transform="translate(-407,-294) scale(1,1)"><path fill="none" stroke="#000000" d="M 851.5578125 363 L 851.5578125 359 L 857.5578125 359" stroke-miterlimit="10"/></g><g transform="translate(-407,-294) scale(1,1)"><path fill="none" stroke="#000000" d="M 857.5578125 363 L 857.5578125 359 L 851.5578125 359" stroke-miterlimit="10"/></g><g transform="translate(-407,-294) scale(1,1)"><g><path fill="none" stroke="none"/><text fill="#000000" stroke="none" font-family="Arial" font-size="13px" font-style="normal" font-weight="bold" text-decoration="none" x="830.65185546875" y="386.5">MT-datamodel</text></g></g><g transform="translate(-407,-294) scale(1,1)"><g><path fill="none" stroke="none"/><text fill="#000000" stroke="none" font-family="Arial" font-size="13px" font-style="normal" font-weight="normal" text-decoration="none" x="828.50634765625" y="401.5">(from S2G-MT)</text></g></g><g transform="translate(-407,-294) scale(1,1)"><path fill="none" stroke="#000000" d="M 474 350 L 472 304 L 872 304 L 872 351" stroke-miterlimit="10" stroke-dasharray="3"/></g><g transform="translate(-407,-294) scale(1,1)"><path fill="none" stroke="#000000" d="M 867.790482243984 340.83732514237585 L 872 351 L 876.209517756016 340.83732514237585" stroke-miterlimit="10"/></g><g transform="translate(-407,-294) scale(1,1)"><path fill="none" stroke="#000000" d="M 724 379 L 823 379" stroke-miterlimit="10" stroke-dasharray="3"/></g><g transform="translate(-407,-294) scale(1,1)"><path fill="none" stroke="#000000" d="M 812.8373251423759 383.209517756016 L 823 379 L 812.8373251423758 374.790482243984" stroke-miterlimit="10"/></g><g transform="translate(-407,-294) scale(1,1)"><rect fill="#C0C0C0" stroke="none" x="615" y="471" width="38.552734375" height="15" opacity="0.2"/></g><g transform="translate(-407,-294) scale(1,1)"><rect fill="#C0C0C0" stroke="none" x="615" y="485" width="96.3818359375" height="40" opacity="0.2"/></g><g transform="translate(-407,-294) scale(1,1)"><rect fill="#ffffff" stroke="none" x="608" y="479" width="96.3818359375" height="39"/></g><g transform="translate(-407,-294) scale(1,1)"><path fill="none" stroke="#000000" d="M 608 479 L 704.3818359375 479 L 704.3818359375 518 L 608 518 L 608 479 Z Z" stroke-miterlimit="10"/></g><g transform="translate(-407,-294) scale(1,1)"><rect fill="#ffffff" stroke="none" x="608" y="464" width="38.552734375" height="15"/></g><g transform="translate(-407,-294) scale(1,1)"><path fill="none" stroke="#000000" d="M 608 464 L 646.552734375 464 L 646.552734375 479 L 608 479 L 608 464 Z Z" stroke-miterlimit="10"/></g><g transform="translate(-407,-294) scale(1,1)"><rect fill="#ffffff" stroke="none" x="608" y="478" width="96.3818359375" height="40"/></g><g transform="translate(-407,-294) scale(1,1)"><path fill="none" stroke="#000000" d="M 608 478 L 704.3818359375 478 L 704.3818359375 518 L 608 518 L 608 478 Z Z" stroke-miterlimit="10"/></g><g transform="translate(-407,-294) scale(1,1)"><path fill="none" stroke="#000000" d="M 638.552734375 467 L 638.552734375 471" stroke-miterlimit="10"/></g><g transform="translate(-407,-294) scale(1,1)"><path fill="none" stroke="#000000" d="M 635.552734375 475 L 635.552734375 471 L 641.552734375 471" stroke-miterlimit="10"/></g><g transform="translate(-407,-294) scale(1,1)"><path fill="none" stroke="#000000" d="M 641.552734375 475 L 641.552734375 471 L 635.552734375 471" stroke-miterlimit="10"/></g><g transform="translate(-407,-294) scale(1,1)"><g><path fill="none" stroke="none"/><text fill="#000000" stroke="none" font-family="Arial" font-size="13px" font-style="normal" font-weight="bold" text-decoration="none" x="620.786865234375" y="498.5">MT-outillage</text></g></g><g transform="translate(-407,-294) scale(1,1)"><g><path fill="none" stroke="none"/><text fill="#000000" stroke="none" font-family="Arial" font-size="13px" font-style="normal" font-weight="normal" text-decoration="none" x="612.5" y="513.5">(from S2G-MT)</text></g></g><g transform="translate(-407,-294) scale(1,1)"><path fill="none" stroke="#000000" d="M 521 406 L 611 463" stroke-miterlimit="10" stroke-dasharray="3"/></g><g transform="translate(-407,-294) scale(1,1)"><path fill="none" stroke="#000000" d="M 600.162067185485 461.1187205661949 L 611 463 L 604.6666896577626 454.00615876786185" stroke-miterlimit="10"/></g><g transform="translate(-407,-294) scale(1,1)"><path fill="none" stroke="#000000" d="M 663 407 L 658 463" stroke-miterlimit="10" stroke-dasharray="3"/></g><g transform="translate(-407,-294) scale(1,1)"><path fill="none" stroke="#000000" d="M 654.7109479639106 452.5032320829745 L 658 463 L 663.0966247762759 453.25195322693565" stroke-miterlimit="10"/></g><g transform="translate(-407,-294) scale(1,1)"><path fill="none" stroke="#000000" d="M 705 465 L 823 404" stroke-miterlimit="10" stroke-dasharray="3"/></g><g transform="translate(-407,-294) scale(1,1)"><path fill="none" stroke="#000000" d="M 815.9053433609209 412.40629806594865 L 823 404 L 812.0391698132094 404.92747054742466" stroke-miterlimit="10"/></g><g transform="translate(-407,-294) scale(1,1)"><path fill="none" stroke="#000000" d="M 537 378 L 607 379" stroke-miterlimit="10" stroke-dasharray="3"/></g><g transform="translate(-407,-294) scale(1,1)"><path fill="none" stroke="#000000" d="M 596.7782321587569 383.06392202185606 L 607 379 L 596.8984918238746 374.6457454636101" stroke-miterlimit="10"/></g></g></svg>