<svg version="1.1" xmlns="http://www.w3.org/2000/svg" xmlns:xlink="http://www.w3.org/1999/xlink" width="510.387451171875" height="479"><defs/><g><g transform="translate(-10,-10) scale(1,1)"><rect fill="#C0C0C0" stroke="none" x="254.9642333984375" y="27" width="19.600000000000023" height="15" opacity="0.2"/></g><g transform="translate(-10,-10) scale(1,1)"><rect fill="#C0C0C0" stroke="none" x="254.9642333984375" y="41" width="49" height="25" opacity="0.2"/></g><g transform="translate(-10,-10) scale(1,1)"><rect fill="#ffffff" stroke="none" x="247.9642333984375" y="35" width="49" height="24"/></g><g transform="translate(-10,-10) scale(1,1)"><path fill="none" stroke="#000000" d="M 247.9642333984375 35 L 296.9642333984375 35 L 296.9642333984375 59 L 247.9642333984375 59 L 247.9642333984375 35 Z Z" stroke-miterlimit="10"/></g><g transform="translate(-10,-10) scale(1,1)"><rect fill="#ffffff" stroke="none" x="247.9642333984375" y="20" width="19.600000000000023" height="15"/></g><g transform="translate(-10,-10) scale(1,1)"><path fill="none" stroke="#000000" d="M 247.9642333984375 20 L 267.5642333984375 20 L 267.5642333984375 35 L 247.9642333984375 35 L 247.9642333984375 20 Z Z" stroke-miterlimit="10"/></g><g transform="translate(-10,-10) scale(1,1)"><rect fill="#ffffff" stroke="none" x="247.9642333984375" y="34" width="49" height="25"/></g><g transform="translate(-10,-10) scale(1,1)"><path fill="none" stroke="#000000" d="M 247.9642333984375 34 L 296.9642333984375 34 L 296.9642333984375 59 L 247.9642333984375 59 L 247.9642333984375 34 Z Z" stroke-miterlimit="10"/></g><g transform="translate(-10,-10) scale(1,1)"><g><path fill="none" stroke="none"/><text fill="#000000" stroke="none" font-family="Arial" font-size="13px" font-style="normal" font-weight="bold" text-decoration="none" x="263.4283447265625" y="54.5">net</text></g></g><g transform="translate(-10,-10) scale(1,1)"><rect fill="#C0C0C0" stroke="none" x="254.9642333984375" y="97" width="19.600000000000023" height="15" opacity="0.2"/></g><g transform="translate(-10,-10) scale(1,1)"><rect fill="#C0C0C0" stroke="none" x="254.9642333984375" y="111" width="49" height="25" opacity="0.2"/></g><g transform="translate(-10,-10) scale(1,1)"><rect fill="#ffffff" stroke="none" x="247.9642333984375" y="105" width="49" height="24"/></g><g transform="translate(-10,-10) scale(1,1)"><path fill="none" stroke="#000000" d="M 247.9642333984375 105 L 296.9642333984375 105 L 296.9642333984375 129 L 247.9642333984375 129 L 247.9642333984375 105 Z Z" stroke-miterlimit="10"/></g><g transform="translate(-10,-10) scale(1,1)"><rect fill="#ffffff" stroke="none" x="247.9642333984375" y="90" width="19.600000000000023" height="15"/></g><g transform="translate(-10,-10) scale(1,1)"><path fill="none" stroke="#000000" d="M 247.9642333984375 90 L 267.5642333984375 90 L 267.5642333984375 105 L 247.9642333984375 105 L 247.9642333984375 90 Z Z" stroke-miterlimit="10"/></g><g transform="translate(-10,-10) scale(1,1)"><rect fill="#ffffff" stroke="none" x="247.9642333984375" y="104" width="49" height="25"/></g><g transform="translate(-10,-10) scale(1,1)"><path fill="none" stroke="#000000" d="M 247.9642333984375 104 L 296.9642333984375 104 L 296.9642333984375 129 L 247.9642333984375 129 L 247.9642333984375 104 Z Z" stroke-miterlimit="10"/></g><g transform="translate(-10,-10) scale(1,1)"><g><path fill="none" stroke="none"/><text fill="#000000" stroke="none" font-family="Arial" font-size="13px" font-style="normal" font-weight="bold" text-decoration="none" x="260.1783447265625" y="124.5">atos</text></g></g><g transform="translate(-10,-10) scale(1,1)"><rect fill="#C0C0C0" stroke="none" x="254.9642333984375" y="167" width="19.600000000000023" height="15" opacity="0.2"/></g><g transform="translate(-10,-10) scale(1,1)"><rect fill="#C0C0C0" stroke="none" x="254.9642333984375" y="181" width="49" height="25" opacity="0.2"/></g><g transform="translate(-10,-10) scale(1,1)"><rect fill="#ffffff" stroke="none" x="247.9642333984375" y="175" width="49" height="24"/></g><g transform="translate(-10,-10) scale(1,1)"><path fill="none" stroke="#000000" d="M 247.9642333984375 175 L 296.9642333984375 175 L 296.9642333984375 199 L 247.9642333984375 199 L 247.9642333984375 175 Z Z" stroke-miterlimit="10"/></g><g transform="translate(-10,-10) scale(1,1)"><rect fill="#ffffff" stroke="none" x="247.9642333984375" y="160" width="19.600000000000023" height="15"/></g><g transform="translate(-10,-10) scale(1,1)"><path fill="none" stroke="#000000" d="M 247.9642333984375 160 L 267.5642333984375 160 L 267.5642333984375 175 L 247.9642333984375 175 L 247.9642333984375 160 Z Z" stroke-miterlimit="10"/></g><g transform="translate(-10,-10) scale(1,1)"><rect fill="#ffffff" stroke="none" x="247.9642333984375" y="174" width="49" height="25"/></g><g transform="translate(-10,-10) scale(1,1)"><path fill="none" stroke="#000000" d="M 247.9642333984375 174 L 296.9642333984375 174 L 296.9642333984375 199 L 247.9642333984375 199 L 247.9642333984375 174 Z Z" stroke-miterlimit="10"/></g><g transform="translate(-10,-10) scale(1,1)"><g><path fill="none" stroke="none"/><text fill="#000000" stroke="none" font-family="Arial" font-size="13px" font-style="normal" font-weight="bold" text-decoration="none" x="261.9842529296875" y="194.5">s2g</text></g></g><g transform="translate(-10,-10) scale(1,1)"><rect fill="#C0C0C0" stroke="none" x="254.9642333984375" y="237" width="19.600000000000023" height="15" opacity="0.2"/></g><g transform="translate(-10,-10) scale(1,1)"><rect fill="#C0C0C0" stroke="none" x="254.9642333984375" y="251" width="49" height="25" opacity="0.2"/></g><g transform="translate(-10,-10) scale(1,1)"><rect fill="#ffffff" stroke="none" x="247.9642333984375" y="245" width="49" height="24"/></g><g transform="translate(-10,-10) scale(1,1)"><path fill="none" stroke="#000000" d="M 247.9642333984375 245 L 296.9642333984375 245 L 296.9642333984375 269 L 247.9642333984375 269 L 247.9642333984375 245 Z Z" stroke-miterlimit="10"/></g><g transform="translate(-10,-10) scale(1,1)"><rect fill="#ffffff" stroke="none" x="247.9642333984375" y="230" width="19.600000000000023" height="15"/></g><g transform="translate(-10,-10) scale(1,1)"><path fill="none" stroke="#000000" d="M 247.9642333984375 230 L 267.5642333984375 230 L 267.5642333984375 245 L 247.9642333984375 245 L 247.9642333984375 230 Z Z" stroke-miterlimit="10"/></g><g transform="translate(-10,-10) scale(1,1)"><rect fill="#ffffff" stroke="none" x="247.9642333984375" y="244" width="49" height="25"/></g><g transform="translate(-10,-10) scale(1,1)"><path fill="none" stroke="#000000" d="M 247.9642333984375 244 L 296.9642333984375 244 L 296.9642333984375 269 L 247.9642333984375 269 L 247.9642333984375 244 Z Z" stroke-miterlimit="10"/></g><g transform="translate(-10,-10) scale(1,1)"><g><path fill="none" stroke="none"/><text fill="#000000" stroke="none" font-family="Arial" font-size="13px" font-style="normal" font-weight="bold" text-decoration="none" x="265.2437744140625" y="264.5">mt</text></g></g><g transform="translate(-10,-10) scale(1,1)"><rect fill="#C0C0C0" stroke="none" x="254.9642333984375" y="307" width="19.600000000000023" height="15" opacity="0.2"/></g><g transform="translate(-10,-10) scale(1,1)"><rect fill="#C0C0C0" stroke="none" x="254.9642333984375" y="321" width="49" height="25" opacity="0.2"/></g><g transform="translate(-10,-10) scale(1,1)"><rect fill="#ffffff" stroke="none" x="247.9642333984375" y="315" width="49" height="24"/></g><g transform="translate(-10,-10) scale(1,1)"><path fill="none" stroke="#000000" d="M 247.9642333984375 315 L 296.9642333984375 315 L 296.9642333984375 339 L 247.9642333984375 339 L 247.9642333984375 315 Z Z" stroke-miterlimit="10"/></g><g transform="translate(-10,-10) scale(1,1)"><rect fill="#ffffff" stroke="none" x="247.9642333984375" y="300" width="19.600000000000023" height="15"/></g><g transform="translate(-10,-10) scale(1,1)"><path fill="none" stroke="#000000" d="M 247.9642333984375 300 L 267.5642333984375 300 L 267.5642333984375 315 L 247.9642333984375 315 L 247.9642333984375 300 Z Z" stroke-miterlimit="10"/></g><g transform="translate(-10,-10) scale(1,1)"><rect fill="#ffffff" stroke="none" x="247.9642333984375" y="314" width="49" height="25"/></g><g transform="translate(-10,-10) scale(1,1)"><path fill="none" stroke="#000000" d="M 247.9642333984375 314 L 296.9642333984375 314 L 296.9642333984375 339 L 247.9642333984375 339 L 247.9642333984375 314 Z Z" stroke-miterlimit="10"/></g><g transform="translate(-10,-10) scale(1,1)"><g><path fill="none" stroke="none"/><text fill="#000000" stroke="none" font-family="Arial" font-size="13px" font-style="normal" font-weight="bold" text-decoration="none" x="263.0697021484375" y="334.5">pro</text></g></g><g transform="translate(-10,-10) scale(1,1)"><rect fill="#C0C0C0" stroke="none" x="44.555908203125" y="377" width="19.599999999999994" height="15" opacity="0.2"/></g><g transform="translate(-10,-10) scale(1,1)"><rect fill="#C0C0C0" stroke="none" x="44.555908203125" y="391" width="49" height="25" opacity="0.2"/></g><g transform="translate(-10,-10) scale(1,1)"><rect fill="#ffffff" stroke="none" x="37.555908203125" y="385" width="49" height="24"/></g><g transform="translate(-10,-10) scale(1,1)"><path fill="none" stroke="#000000" d="M 37.555908203125 385 L 86.555908203125 385 L 86.555908203125 409 L 37.555908203125 409 L 37.555908203125 385 Z Z" stroke-miterlimit="10"/></g><g transform="translate(-10,-10) scale(1,1)"><rect fill="#ffffff" stroke="none" x="37.555908203125" y="370" width="19.6" height="15"/></g><g transform="translate(-10,-10) scale(1,1)"><path fill="none" stroke="#000000" d="M 37.555908203125 370 L 57.155908203125 370 L 57.155908203125 385 L 37.555908203125 385 L 37.555908203125 370 Z Z" stroke-miterlimit="10"/></g><g transform="translate(-10,-10) scale(1,1)"><rect fill="#ffffff" stroke="none" x="37.555908203125" y="384" width="49" height="25"/></g><g transform="translate(-10,-10) scale(1,1)"><path fill="none" stroke="#000000" d="M 37.555908203125 384 L 86.555908203125 384 L 86.555908203125 409 L 37.555908203125 409 L 37.555908203125 384 Z Z" stroke-miterlimit="10"/></g><g transform="translate(-10,-10) scale(1,1)"><g><path fill="none" stroke="none"/><text fill="#000000" stroke="none" font-family="Arial" font-size="13px" font-style="normal" font-weight="bold" text-decoration="none" x="49.411376953125" y="404.5">cron</text></g></g><g transform="translate(-10,-10) scale(1,1)"><rect fill="#C0C0C0" stroke="none" x="27" y="447" width="33.6447265625" height="15" opacity="0.2"/></g><g transform="translate(-10,-10) scale(1,1)"><rect fill="#C0C0C0" stroke="none" x="27" y="461" width="84.11181640625" height="25" opacity="0.2"/></g><g transform="translate(-10,-10) scale(1,1)"><rect fill="#ffffff" stroke="none" x="20" y="455" width="84.11181640625" height="24"/></g><g transform="translate(-10,-10) scale(1,1)"><path fill="none" stroke="#000000" d="M 20 455 L 104.11181640625 455 L 104.11181640625 479 L 20 479 L 20 455 Z Z" stroke-miterlimit="10"/></g><g transform="translate(-10,-10) scale(1,1)"><rect fill="#ffffff" stroke="none" x="20" y="440" width="33.6447265625" height="15"/></g><g transform="translate(-10,-10) scale(1,1)"><path fill="none" stroke="#000000" d="M 20 440 L 53.6447265625 440 L 53.6447265625 455 L 20 455 L 20 440 Z Z" stroke-miterlimit="10"/></g><g transform="translate(-10,-10) scale(1,1)"><rect fill="#ffffff" stroke="none" x="20" y="454" width="84.11181640625" height="25"/></g><g transform="translate(-10,-10) scale(1,1)"><path fill="none" stroke="#000000" d="M 20 454 L 104.11181640625 454 L 104.11181640625 479 L 20 479 L 20 454 Z Z" stroke-miterlimit="10"/></g><g transform="translate(-10,-10) scale(1,1)"><g><path fill="none" stroke="none"/><text fill="#000000" stroke="none" font-family="Arial" font-size="13px" font-style="normal" font-weight="bold" text-decoration="none" x="27.365966796875" y="474.5">dpsConnect</text></g></g><g transform="translate(-10,-10) scale(1,1)"><rect fill="#C0C0C0" stroke="none" x="124.555908203125" y="377" width="19.599999999999994" height="15" opacity="0.2"/></g><g transform="translate(-10,-10) scale(1,1)"><rect fill="#C0C0C0" stroke="none" x="124.555908203125" y="391" width="49" height="25" opacity="0.2"/></g><g transform="translate(-10,-10) scale(1,1)"><rect fill="#ffffff" stroke="none" x="117.555908203125" y="385" width="49" height="24"/></g><g transform="translate(-10,-10) scale(1,1)"><path fill="none" stroke="#000000" d="M 117.555908203125 385 L 166.555908203125 385 L 166.555908203125 409 L 117.555908203125 409 L 117.555908203125 385 Z Z" stroke-miterlimit="10"/></g><g transform="translate(-10,-10) scale(1,1)"><rect fill="#ffffff" stroke="none" x="117.555908203125" y="370" width="19.599999999999994" height="15"/></g><g transform="translate(-10,-10) scale(1,1)"><path fill="none" stroke="#000000" d="M 117.555908203125 370 L 137.155908203125 370 L 137.155908203125 385 L 117.555908203125 385 L 117.555908203125 370 Z Z" stroke-miterlimit="10"/></g><g transform="translate(-10,-10) scale(1,1)"><rect fill="#ffffff" stroke="none" x="117.555908203125" y="384" width="49" height="25"/></g><g transform="translate(-10,-10) scale(1,1)"><path fill="none" stroke="#000000" d="M 117.555908203125 384 L 166.555908203125 384 L 166.555908203125 409 L 117.555908203125 409 L 117.555908203125 384 Z Z" stroke-miterlimit="10"/></g><g transform="translate(-10,-10) scale(1,1)"><g><path fill="none" stroke="none"/><text fill="#000000" stroke="none" font-family="Arial" font-size="13px" font-style="normal" font-weight="bold" text-decoration="none" x="131.220458984375" y="404.5">rest</text></g></g><g transform="translate(-10,-10) scale(1,1)"><rect fill="#C0C0C0" stroke="none" x="204.555908203125" y="377" width="23.544335937499994" height="15" opacity="0.2"/></g><g transform="translate(-10,-10) scale(1,1)"><rect fill="#C0C0C0" stroke="none" x="204.555908203125" y="391" width="58.86083984375" height="25" opacity="0.2"/></g><g transform="translate(-10,-10) scale(1,1)"><rect fill="#ffffff" stroke="none" x="197.555908203125" y="385" width="58.86083984375" height="24"/></g><g transform="translate(-10,-10) scale(1,1)"><path fill="none" stroke="#000000" d="M 197.555908203125 385 L 256.416748046875 385 L 256.416748046875 409 L 197.555908203125 409 L 197.555908203125 385 Z Z" stroke-miterlimit="10"/></g><g transform="translate(-10,-10) scale(1,1)"><rect fill="#ffffff" stroke="none" x="197.555908203125" y="370" width="23.544335937499994" height="15"/></g><g transform="translate(-10,-10) scale(1,1)"><path fill="none" stroke="#000000" d="M 197.555908203125 370 L 221.100244140625 370 L 221.100244140625 385 L 197.555908203125 385 L 197.555908203125 370 Z Z" stroke-miterlimit="10"/></g><g transform="translate(-10,-10) scale(1,1)"><rect fill="#ffffff" stroke="none" x="197.555908203125" y="384" width="58.86083984375" height="25"/></g><g transform="translate(-10,-10) scale(1,1)"><path fill="none" stroke="#000000" d="M 197.555908203125 384 L 256.416748046875 384 L 256.416748046875 409 L 197.555908203125 409 L 197.555908203125 384 Z Z" stroke-miterlimit="10"/></g><g transform="translate(-10,-10) scale(1,1)"><g><path fill="none" stroke="none"/><text fill="#000000" stroke="none" font-family="Arial" font-size="13px" font-style="normal" font-weight="bold" text-decoration="none" x="204.591796875" y="404.5">security</text></g></g><g transform="translate(-10,-10) scale(1,1)"><rect fill="#C0C0C0" stroke="none" x="294.416748046875" y="377" width="24.420312500000023" height="15" opacity="0.2"/></g><g transform="translate(-10,-10) scale(1,1)"><rect fill="#C0C0C0" stroke="none" x="294.416748046875" y="391" width="61.05078125" height="25" opacity="0.2"/></g><g transform="translate(-10,-10) scale(1,1)"><rect fill="#ffffff" stroke="none" x="287.416748046875" y="385" width="61.05078125" height="24"/></g><g transform="translate(-10,-10) scale(1,1)"><path fill="none" stroke="#000000" d="M 287.416748046875 385 L 348.467529296875 385 L 348.467529296875 409 L 287.416748046875 409 L 287.416748046875 385 Z Z" stroke-miterlimit="10"/></g><g transform="translate(-10,-10) scale(1,1)"><rect fill="#ffffff" stroke="none" x="287.416748046875" y="370" width="24.420312500000023" height="15"/></g><g transform="translate(-10,-10) scale(1,1)"><path fill="none" stroke="#000000" d="M 287.416748046875 370 L 311.837060546875 370 L 311.837060546875 385 L 287.416748046875 385 L 287.416748046875 370 Z Z" stroke-miterlimit="10"/></g><g transform="translate(-10,-10) scale(1,1)"><rect fill="#ffffff" stroke="none" x="287.416748046875" y="384" width="61.05078125" height="25"/></g><g transform="translate(-10,-10) scale(1,1)"><path fill="none" stroke="#000000" d="M 287.416748046875 384 L 348.467529296875 384 L 348.467529296875 409 L 287.416748046875 409 L 287.416748046875 384 Z Z" stroke-miterlimit="10"/></g><g transform="translate(-10,-10) scale(1,1)"><g><path fill="none" stroke="none"/><text fill="#000000" stroke="none" font-family="Arial" font-size="13px" font-style="normal" font-weight="bold" text-decoration="none" x="294.103515625" y="404.5">services</text></g></g><g transform="translate(-10,-10) scale(1,1)"><rect fill="#C0C0C0" stroke="none" x="386.467529296875" y="377" width="20.36796874999999" height="15" opacity="0.2"/></g><g transform="translate(-10,-10) scale(1,1)"><rect fill="#C0C0C0" stroke="none" x="386.467529296875" y="391" width="50.919921875" height="25" opacity="0.2"/></g><g transform="translate(-10,-10) scale(1,1)"><rect fill="#ffffff" stroke="none" x="379.467529296875" y="385" width="50.919921875" height="24"/></g><g transform="translate(-10,-10) scale(1,1)"><path fill="none" stroke="#000000" d="M 379.467529296875 385 L 430.387451171875 385 L 430.387451171875 409 L 379.467529296875 409 L 379.467529296875 385 Z Z" stroke-miterlimit="10"/></g><g transform="translate(-10,-10) scale(1,1)"><rect fill="#ffffff" stroke="none" x="379.467529296875" y="370" width="20.36796874999999" height="15"/></g><g transform="translate(-10,-10) scale(1,1)"><path fill="none" stroke="#000000" d="M 379.467529296875 370 L 399.835498046875 370 L 399.835498046875 385 L 379.467529296875 385 L 379.467529296875 370 Z Z" stroke-miterlimit="10"/></g><g transform="translate(-10,-10) scale(1,1)"><rect fill="#ffffff" stroke="none" x="379.467529296875" y="384" width="50.919921875" height="25"/></g><g transform="translate(-10,-10) scale(1,1)"><path fill="none" stroke="#000000" d="M 379.467529296875 384 L 430.387451171875 384 L 430.387451171875 409 L 379.467529296875 409 L 379.467529296875 384 Z Z" stroke-miterlimit="10"/></g><g transform="translate(-10,-10) scale(1,1)"><g><path fill="none" stroke="none"/><text fill="#000000" stroke="none" font-family="Arial" font-size="13px" font-style="normal" font-weight="bold" text-decoration="none" x="385.782958984375" y="404.5">servlet</text></g></g><g transform="translate(-10,-10) scale(1,1)"><rect fill="#C0C0C0" stroke="none" x="468.387451171875" y="377" width="19.600000000000023" height="15" opacity="0.2"/></g><g transform="translate(-10,-10) scale(1,1)"><rect fill="#C0C0C0" stroke="none" x="468.387451171875" y="391" width="49" height="25" opacity="0.2"/></g><g transform="translate(-10,-10) scale(1,1)"><rect fill="#ffffff" stroke="none" x="461.387451171875" y="385" width="49" height="24"/></g><g transform="translate(-10,-10) scale(1,1)"><path fill="none" stroke="#000000" d="M 461.387451171875 385 L 510.387451171875 385 L 510.387451171875 409 L 461.387451171875 409 L 461.387451171875 385 Z Z" stroke-miterlimit="10"/></g><g transform="translate(-10,-10) scale(1,1)"><rect fill="#ffffff" stroke="none" x="461.387451171875" y="370" width="19.600000000000023" height="15"/></g><g transform="translate(-10,-10) scale(1,1)"><path fill="none" stroke="#000000" d="M 461.387451171875 370 L 480.987451171875 370 L 480.987451171875 385 L 461.387451171875 385 L 461.387451171875 370 Z Z" stroke-miterlimit="10"/></g><g transform="translate(-10,-10) scale(1,1)"><rect fill="#ffffff" stroke="none" x="461.387451171875" y="384" width="49" height="25"/></g><g transform="translate(-10,-10) scale(1,1)"><path fill="none" stroke="#000000" d="M 461.387451171875 384 L 510.387451171875 384 L 510.387451171875 409 L 461.387451171875 409 L 461.387451171875 384 Z Z" stroke-miterlimit="10"/></g><g transform="translate(-10,-10) scale(1,1)"><g><path fill="none" stroke="none"/><text fill="#000000" stroke="none" font-family="Arial" font-size="13px" font-style="normal" font-weight="bold" text-decoration="none" x="477.578369140625" y="404.5">util</text></g></g><g transform="translate(-10,-10) scale(1,1)"><path fill="none" stroke="#000000" d="M 273 89 Q 273 75 273 60" stroke-miterlimit="10"/></g><g transform="translate(-10,-10) scale(1,1)"><path fill="#FFFFFF" stroke="none" d="M 266 67 C 266 63.1340064 269.1340064 60 273 60 C 276.8659936 60 280 63.1340064 280 67 C 280 70.8659936 276.8659936 74 273 74 C 269.1340064 74 266 70.8659936 266 67 Z"/></g><g transform="translate(-10,-10) scale(1,1)"><path fill="none" stroke="#000000" d="M 266 67 C 266 63.1340064 269.1340064 60 273 60 C 276.8659936 60 280 63.1340064 280 67 C 280 70.8659936 276.8659936 74 273 74 C 269.1340064 74 266 70.8659936 266 67 Z" stroke-miterlimit="10"/></g><g transform="translate(-10,-10) scale(1,1)"><path fill="none" stroke="#000000" d="M 273 74 L 273 60" stroke-miterlimit="10"/></g><g transform="translate(-10,-10) scale(1,1)"><path fill="none" stroke="#000000" d="M 280 67 L 266 67" stroke-miterlimit="10"/></g><g transform="translate(-10,-10) scale(1,1)"><path fill="none" stroke="#000000" d="M 273 159 Q 273 145 273 130" stroke-miterlimit="10"/></g><g transform="translate(-10,-10) scale(1,1)"><path fill="#FFFFFF" stroke="none" d="M 266 137 C 266 133.1340064 269.1340064 130 273 130 C 276.8659936 130 280 133.1340064 280 137 C 280 140.8659936 276.8659936 144 273 144 C 269.1340064 144 266 140.8659936 266 137 Z"/></g><g transform="translate(-10,-10) scale(1,1)"><path fill="none" stroke="#000000" d="M 266 137 C 266 133.1340064 269.1340064 130 273 130 C 276.8659936 130 280 133.1340064 280 137 C 280 140.8659936 276.8659936 144 273 144 C 269.1340064 144 266 140.8659936 266 137 Z" stroke-miterlimit="10"/></g><g transform="translate(-10,-10) scale(1,1)"><path fill="none" stroke="#000000" d="M 273 144 L 273 130" stroke-miterlimit="10"/></g><g transform="translate(-10,-10) scale(1,1)"><path fill="none" stroke="#000000" d="M 280 137 L 266 137" stroke-miterlimit="10"/></g><g transform="translate(-10,-10) scale(1,1)"><path fill="none" stroke="#000000" d="M 273 229 Q 273 215 273 200" stroke-miterlimit="10"/></g><g transform="translate(-10,-10) scale(1,1)"><path fill="#FFFFFF" stroke="none" d="M 266 207 C 266 203.1340064 269.1340064 200 273 200 C 276.8659936 200 280 203.1340064 280 207 C 280 210.8659936 276.8659936 214 273 214 C 269.1340064 214 266 210.8659936 266 207 Z"/></g><g transform="translate(-10,-10) scale(1,1)"><path fill="none" stroke="#000000" d="M 266 207 C 266 203.1340064 269.1340064 200 273 200 C 276.8659936 200 280 203.1340064 280 207 C 280 210.8659936 276.8659936 214 273 214 C 269.1340064 214 266 210.8659936 266 207 Z" stroke-miterlimit="10"/></g><g transform="translate(-10,-10) scale(1,1)"><path fill="none" stroke="#000000" d="M 273 214 L 273 200" stroke-miterlimit="10"/></g><g transform="translate(-10,-10) scale(1,1)"><path fill="none" stroke="#000000" d="M 280 207 L 266 207" stroke-miterlimit="10"/></g><g transform="translate(-10,-10) scale(1,1)"><path fill="none" stroke="#000000" d="M 273 299 Q 273 285 273 270" stroke-miterlimit="10"/></g><g transform="translate(-10,-10) scale(1,1)"><path fill="#FFFFFF" stroke="none" d="M 266 277 C 266 273.1340064 269.1340064 270 273 270 C 276.8659936 270 280 273.1340064 280 277 C 280 280.8659936 276.8659936 284 273 284 C 269.1340064 284 266 280.8659936 266 277 Z"/></g><g transform="translate(-10,-10) scale(1,1)"><path fill="none" stroke="#000000" d="M 266 277 C 266 273.1340064 269.1340064 270 273 270 C 276.8659936 270 280 273.1340064 280 277 C 280 280.8659936 276.8659936 284 273 284 C 269.1340064 284 266 280.8659936 266 277 Z" stroke-miterlimit="10"/></g><g transform="translate(-10,-10) scale(1,1)"><path fill="none" stroke="#000000" d="M 273 284 L 273 270" stroke-miterlimit="10"/></g><g transform="translate(-10,-10) scale(1,1)"><path fill="none" stroke="#000000" d="M 280 277 L 266 277" stroke-miterlimit="10"/></g><g transform="translate(-10,-10) scale(1,1)"><path fill="none" stroke="#000000" d="M 63 369 Q 63 355 247 323" stroke-miterlimit="10"/></g><g transform="translate(-10,-10) scale(1,1)"><path fill="#FFFFFF" stroke="none" d="M 233.10351771626227 324.1993882232587 C 233.10351771626227 320.3333946232587 236.23752411626228 317.1993882232587 240.10351771626227 317.1993882232587 C 243.96951131626227 317.1993882232587 247.10351771626227 320.3333946232587 247.10351771626227 324.1993882232587 C 247.10351771626227 328.06538182325875 243.96951131626227 331.1993882232587 240.10351771626227 331.1993882232587 C 236.23752411626228 331.1993882232587 233.10351771626227 328.06538182325875 233.10351771626227 324.1993882232587 Z"/></g><g transform="translate(-10,-10) scale(1,1)"><path fill="none" stroke="#000000" d="M 233.10351771626227 324.1993882232587 C 233.10351771626227 320.3333946232587 236.23752411626228 317.1993882232587 240.10351771626227 317.1993882232587 C 243.96951131626227 317.1993882232587 247.10351771626227 320.3333946232587 247.10351771626227 324.1993882232587 C 247.10351771626227 328.06538182325875 243.96951131626227 331.1993882232587 240.10351771626227 331.1993882232587 C 236.23752411626228 331.1993882232587 233.10351771626227 328.06538182325875 233.10351771626227 324.1993882232587 Z" stroke-miterlimit="10"/></g><g transform="translate(-10,-10) scale(1,1)"><path fill="none" stroke="#000000" d="M 233.20703543252455 325.39877644651745 L 247 323" stroke-miterlimit="10"/></g><g transform="translate(-10,-10) scale(1,1)"><path fill="none" stroke="#000000" d="M 241.302905939521 331.09587050699645 L 238.90412949300355 317.302905939521" stroke-miterlimit="10"/></g><g transform="translate(-10,-10) scale(1,1)"><path fill="none" stroke="#000000" d="M 63 439 Q 63 425 63 410" stroke-miterlimit="10"/></g><g transform="translate(-10,-10) scale(1,1)"><path fill="#FFFFFF" stroke="none" d="M 56 417 C 56 413.1340064 59.1340064 410 63 410 C 66.8659936 410 70 413.1340064 70 417 C 70 420.8659936 66.8659936 424 63 424 C 59.1340064 424 56 420.8659936 56 417 Z"/></g><g transform="translate(-10,-10) scale(1,1)"><path fill="none" stroke="#000000" d="M 56 417 C 56 413.1340064 59.1340064 410 63 410 C 66.8659936 410 70 413.1340064 70 417 C 70 420.8659936 66.8659936 424 63 424 C 59.1340064 424 56 420.8659936 56 417 Z" stroke-miterlimit="10"/></g><g transform="translate(-10,-10) scale(1,1)"><path fill="none" stroke="#000000" d="M 63 424 L 63 410" stroke-miterlimit="10"/></g><g transform="translate(-10,-10) scale(1,1)"><path fill="none" stroke="#000000" d="M 70 417 L 56 417" stroke-miterlimit="10"/></g><g transform="translate(-10,-10) scale(1,1)"><path fill="none" stroke="#000000" d="M 143 369 Q 143 355 247 326" stroke-miterlimit="10"/></g><g transform="translate(-10,-10) scale(1,1)"><path fill="#FFFFFF" stroke="none" d="M 233.25723566383743 327.88019390142995 C 233.25723566383743 324.0142003014299 236.39124206383744 320.88019390142995 240.25723566383743 320.88019390142995 C 244.12322926383743 320.88019390142995 247.25723566383743 324.0142003014299 247.25723566383743 327.88019390142995 C 247.25723566383743 331.74618750143 244.12322926383743 334.88019390142995 240.25723566383743 334.88019390142995 C 236.39124206383744 334.88019390142995 233.25723566383743 331.74618750143 233.25723566383743 327.88019390142995 Z"/></g><g transform="translate(-10,-10) scale(1,1)"><path fill="none" stroke="#000000" d="M 233.25723566383743 327.88019390142995 C 233.25723566383743 324.0142003014299 236.39124206383744 320.88019390142995 240.25723566383743 320.88019390142995 C 244.12322926383743 320.88019390142995 247.25723566383743 324.0142003014299 247.25723566383743 327.88019390142995 C 247.25723566383743 331.74618750143 244.12322926383743 334.88019390142995 240.25723566383743 334.88019390142995 C 236.39124206383744 334.88019390142995 233.25723566383743 331.74618750143 233.25723566383743 327.88019390142995 Z" stroke-miterlimit="10"/></g><g transform="translate(-10,-10) scale(1,1)"><path fill="none" stroke="#000000" d="M 233.5144713276749 329.7603878028599 L 247 326" stroke-miterlimit="10"/></g><g transform="translate(-10,-10) scale(1,1)"><path fill="none" stroke="#000000" d="M 242.13742956526738 334.6229582375925 L 238.3770417624075 321.1374295652674" stroke-miterlimit="10"/></g><g transform="translate(-10,-10) scale(1,1)"><path fill="none" stroke="#000000" d="M 227 369 Q 227 355 247 339" stroke-miterlimit="10"/></g><g transform="translate(-10,-10) scale(1,1)"><path fill="#FFFFFF" stroke="none" d="M 234.53391833389878 343.37286533288096 C 234.53391833389878 339.50687173288094 237.6679247338988 336.37286533288096 241.53391833389878 336.37286533288096 C 245.39991193389878 336.37286533288096 248.53391833389878 339.50687173288094 248.53391833389878 343.37286533288096 C 248.53391833389878 347.238858932881 245.39991193389878 350.37286533288096 241.53391833389878 350.37286533288096 C 237.6679247338988 350.37286533288096 234.53391833389878 347.238858932881 234.53391833389878 343.37286533288096 Z"/></g><g transform="translate(-10,-10) scale(1,1)"><path fill="none" stroke="#000000" d="M 234.53391833389878 343.37286533288096 C 234.53391833389878 339.50687173288094 237.6679247338988 336.37286533288096 241.53391833389878 336.37286533288096 C 245.39991193389878 336.37286533288096 248.53391833389878 339.50687173288094 248.53391833389878 343.37286533288096 C 248.53391833389878 347.238858932881 245.39991193389878 350.37286533288096 241.53391833389878 350.37286533288096 C 237.6679247338988 350.37286533288096 234.53391833389878 347.238858932881 234.53391833389878 343.37286533288096 Z" stroke-miterlimit="10"/></g><g transform="translate(-10,-10) scale(1,1)"><path fill="none" stroke="#000000" d="M 236.06783666779756 347.7457306657619 L 247 339" stroke-miterlimit="10"/></g><g transform="translate(-10,-10) scale(1,1)"><path fill="none" stroke="#000000" d="M 245.90678366677975 348.8389469989822 L 237.16105300101782 337.90678366677975" stroke-miterlimit="10"/></g><g transform="translate(-10,-10) scale(1,1)"><path fill="none" stroke="#000000" d="M 318 369 Q 318 355 298 339" stroke-miterlimit="10"/></g><g transform="translate(-10,-10) scale(1,1)"><path fill="#FFFFFF" stroke="none" d="M 296.4660816661012 343.37286533288096 C 296.4660816661012 339.50687173288094 299.6000880661012 336.37286533288096 303.4660816661012 336.37286533288096 C 307.33207526610124 336.37286533288096 310.4660816661012 339.50687173288094 310.4660816661012 343.37286533288096 C 310.4660816661012 347.238858932881 307.33207526610124 350.37286533288096 303.4660816661012 350.37286533288096 C 299.6000880661012 350.37286533288096 296.4660816661012 347.238858932881 296.4660816661012 343.37286533288096 Z"/></g><g transform="translate(-10,-10) scale(1,1)"><path fill="none" stroke="#000000" d="M 296.4660816661012 343.37286533288096 C 296.4660816661012 339.50687173288094 299.6000880661012 336.37286533288096 303.4660816661012 336.37286533288096 C 307.33207526610124 336.37286533288096 310.4660816661012 339.50687173288094 310.4660816661012 343.37286533288096 C 310.4660816661012 347.238858932881 307.33207526610124 350.37286533288096 303.4660816661012 350.37286533288096 C 299.6000880661012 350.37286533288096 296.4660816661012 347.238858932881 296.4660816661012 343.37286533288096 Z" stroke-miterlimit="10"/></g><g transform="translate(-10,-10) scale(1,1)"><path fill="none" stroke="#000000" d="M 308.93216333220244 347.7457306657619 L 298 339" stroke-miterlimit="10"/></g><g transform="translate(-10,-10) scale(1,1)"><path fill="none" stroke="#000000" d="M 307.8389469989822 337.90678366677975 L 299.09321633322025 348.8389469989822" stroke-miterlimit="10"/></g><g transform="translate(-10,-10) scale(1,1)"><path fill="none" stroke="#000000" d="M 405 369 Q 405 355 298 326" stroke-miterlimit="10"/></g><g transform="translate(-10,-10) scale(1,1)"><path fill="#FFFFFF" stroke="none" d="M 297.7562525662391 327.8311338730928 C 297.7562525662391 323.9651402730928 300.89025896623906 320.8311338730928 304.7562525662391 320.8311338730928 C 308.6222461662391 320.8311338730928 311.7562525662391 323.9651402730928 311.7562525662391 327.8311338730928 C 311.7562525662391 331.69712747309285 308.6222461662391 334.8311338730928 304.7562525662391 334.8311338730928 C 300.89025896623906 334.8311338730928 297.7562525662391 331.69712747309285 297.7562525662391 327.8311338730928 Z"/></g><g transform="translate(-10,-10) scale(1,1)"><path fill="none" stroke="#000000" d="M 297.7562525662391 327.8311338730928 C 297.7562525662391 323.9651402730928 300.89025896623906 320.8311338730928 304.7562525662391 320.8311338730928 C 308.6222461662391 320.8311338730928 311.7562525662391 323.9651402730928 311.7562525662391 327.8311338730928 C 311.7562525662391 331.69712747309285 308.6222461662391 334.8311338730928 304.7562525662391 334.8311338730928 C 300.89025896623906 334.8311338730928 297.7562525662391 331.69712747309285 297.7562525662391 327.8311338730928 Z" stroke-miterlimit="10"/></g><g transform="translate(-10,-10) scale(1,1)"><path fill="none" stroke="#000000" d="M 311.51250513247817 329.66226774618565 L 298 326" stroke-miterlimit="10"/></g><g transform="translate(-10,-10) scale(1,1)"><path fill="none" stroke="#000000" d="M 306.5873864393319 321.07488130685374 L 302.92511869314626 334.5873864393319" stroke-miterlimit="10"/></g><g transform="translate(-10,-10) scale(1,1)"><path fill="none" stroke="#000000" d="M 486 369 Q 486 355 298 323" stroke-miterlimit="10"/></g><g transform="translate(-10,-10) scale(1,1)"><path fill="#FFFFFF" stroke="none" d="M 297.9007481884889 324.1745954363385 C 297.9007481884889 320.3086018363385 301.03475458848885 317.1745954363385 304.9007481884889 317.1745954363385 C 308.7667417884889 317.1745954363385 311.9007481884889 320.3086018363385 311.9007481884889 324.1745954363385 C 311.9007481884889 328.04058903633853 308.7667417884889 331.1745954363385 304.9007481884889 331.1745954363385 C 301.03475458848885 331.1745954363385 297.9007481884889 328.04058903633853 297.9007481884889 324.1745954363385 Z"/></g><g transform="translate(-10,-10) scale(1,1)"><path fill="none" stroke="#000000" d="M 297.9007481884889 324.1745954363385 C 297.9007481884889 320.3086018363385 301.03475458848885 317.1745954363385 304.9007481884889 317.1745954363385 C 308.7667417884889 317.1745954363385 311.9007481884889 320.3086018363385 311.9007481884889 324.1745954363385 C 311.9007481884889 328.04058903633853 308.7667417884889 331.1745954363385 304.9007481884889 331.1745954363385 C 301.03475458848885 331.1745954363385 297.9007481884889 328.04058903633853 297.9007481884889 324.1745954363385 Z" stroke-miterlimit="10"/></g><g transform="translate(-10,-10) scale(1,1)"><path fill="none" stroke="#000000" d="M 311.80149637697775 325.34919087267707 L 298 323" stroke-miterlimit="10"/></g><g transform="translate(-10,-10) scale(1,1)"><path fill="none" stroke="#000000" d="M 306.0753436248274 317.27384724784963 L 303.72615275215037 331.0753436248274" stroke-miterlimit="10"/></g></g></svg>