<svg version="1.1" xmlns="http://www.w3.org/2000/svg" xmlns:xlink="http://www.w3.org/1999/xlink" width="1565.33203125" height="57"><defs/><g><g transform="translate(-136.72802734375,-10) scale(1,1)"><rect fill="#C0C0C0" stroke="none" x="153.72802734375" y="33.5" width="105.09716796875" height="24" opacity="0.2"/></g><g transform="translate(-136.72802734375,-10) scale(1,1)"><rect fill="#ffffff" stroke="none" x="146.72802734375" y="26.5" width="105.09716796875" height="24"/></g><g transform="translate(-136.72802734375,-10) scale(1,1)"><path fill="none" stroke="#000000" d="M 146.72802734375 26.5 L 251.8251953125 26.5 L 251.8251953125 50.5 L 146.72802734375 50.5 L 146.72802734375 26.5 Z Z" stroke-miterlimit="10"/></g><g transform="translate(-136.72802734375,-10) scale(1,1)"><g><path fill="none" stroke="none"/><text fill="#000000" stroke="none" font-family="Arial" font-size="13px" font-style="normal" font-weight="bold" text-decoration="none" x="153.389404296875" y="46">DatabaseGetter</text></g></g><g transform="translate(-136.72802734375,-10) scale(1,1)"><rect fill="#C0C0C0" stroke="none" x="289.8251953125" y="27" width="95.72802734375" height="37" opacity="0.2"/></g><g transform="translate(-136.72802734375,-10) scale(1,1)"><rect fill="#ffffff" stroke="none" x="282.8251953125" y="20" width="95.72802734375" height="37"/></g><g transform="translate(-136.72802734375,-10) scale(1,1)"><path fill="none" stroke="#000000" d="M 282.8251953125 20 L 378.55322265625 20 L 378.55322265625 57 L 282.8251953125 57 L 282.8251953125 20 Z Z" stroke-miterlimit="10"/></g><g transform="translate(-136.72802734375,-10) scale(1,1)"><g><path fill="none" stroke="none"/><text fill="#000000" stroke="none" font-family="Arial" font-size="13px" font-style="normal" font-weight="normal" text-decoration="none" x="287.3251953125" y="37.5">«enumeration»</text></g></g><g transform="translate(-136.72802734375,-10) scale(1,1)"><g><path fill="none" stroke="none"/><text fill="#000000" stroke="none" font-family="Arial" font-size="13px" font-style="normal" font-weight="bold" text-decoration="none" x="293.123779296875" y="52.5">MTFluidType</text></g></g><g transform="translate(-136.72802734375,-10) scale(1,1)"><rect fill="#C0C0C0" stroke="none" x="416.55322265625" y="27" width="95.72802734375" height="37" opacity="0.2"/></g><g transform="translate(-136.72802734375,-10) scale(1,1)"><rect fill="#ffffff" stroke="none" x="409.55322265625" y="20" width="95.72802734375" height="37"/></g><g transform="translate(-136.72802734375,-10) scale(1,1)"><path fill="none" stroke="#000000" d="M 409.55322265625 20 L 505.28125 20 L 505.28125 57 L 409.55322265625 57 L 409.55322265625 20 Z Z" stroke-miterlimit="10"/></g><g transform="translate(-136.72802734375,-10) scale(1,1)"><g><path fill="none" stroke="none"/><text fill="#000000" stroke="none" font-family="Arial" font-size="13px" font-style="normal" font-weight="normal" text-decoration="none" x="414.05322265625" y="37.5">«enumeration»</text></g></g><g transform="translate(-136.72802734375,-10) scale(1,1)"><g><path fill="none" stroke="none"/><text fill="#000000" stroke="none" font-family="Arial" font-size="13px" font-style="normal" font-weight="bold" text-decoration="none" x="418.03955078125" y="52.5">MTIndexType</text></g></g><g transform="translate(-136.72802734375,-10) scale(1,1)"><rect fill="#C0C0C0" stroke="none" x="543.28125" y="27" width="112.04150390625" height="37" opacity="0.2"/></g><g transform="translate(-136.72802734375,-10) scale(1,1)"><rect fill="#ffffff" stroke="none" x="536.28125" y="20" width="112.04150390625" height="37"/></g><g transform="translate(-136.72802734375,-10) scale(1,1)"><path fill="none" stroke="#000000" d="M 536.28125 20 L 648.32275390625 20 L 648.32275390625 57 L 536.28125 57 L 536.28125 20 Z Z" stroke-miterlimit="10"/></g><g transform="translate(-136.72802734375,-10) scale(1,1)"><g><path fill="none" stroke="none"/><text fill="#000000" stroke="none" font-family="Arial" font-size="13px" font-style="normal" font-weight="normal" text-decoration="none" x="548.93798828125" y="37.5">«enumeration»</text></g></g><g transform="translate(-136.72802734375,-10) scale(1,1)"><g><path fill="none" stroke="none"/><text fill="#000000" stroke="none" font-family="Arial" font-size="13px" font-style="normal" font-weight="bold" text-decoration="none" x="543.894775390625" y="52.5">MTIndicatorType</text></g></g><g transform="translate(-136.72802734375,-10) scale(1,1)"><rect fill="#C0C0C0" stroke="none" x="686.32275390625" y="27" width="136.6005859375" height="37" opacity="0.2"/></g><g transform="translate(-136.72802734375,-10) scale(1,1)"><rect fill="#ffffff" stroke="none" x="679.32275390625" y="20" width="136.6005859375" height="37"/></g><g transform="translate(-136.72802734375,-10) scale(1,1)"><path fill="none" stroke="#000000" d="M 679.32275390625 20 L 815.92333984375 20 L 815.92333984375 57 L 679.32275390625 57 L 679.32275390625 20 Z Z" stroke-miterlimit="10"/></g><g transform="translate(-136.72802734375,-10) scale(1,1)"><g><path fill="none" stroke="none"/><text fill="#000000" stroke="none" font-family="Arial" font-size="13px" font-style="normal" font-weight="normal" text-decoration="none" x="704.259033203125" y="37.5">«enumeration»</text></g></g><g transform="translate(-136.72802734375,-10) scale(1,1)"><g><path fill="none" stroke="none"/><text fill="#000000" stroke="none" font-family="Arial" font-size="13px" font-style="normal" font-weight="bold" text-decoration="none" x="686.9267578125" y="52.5">MTInternalCodeType</text></g></g><g transform="translate(-136.72802734375,-10) scale(1,1)"><rect fill="#C0C0C0" stroke="none" x="853.92333984375" y="33.5" width="88.94873046875" height="24" opacity="0.2"/></g><g transform="translate(-136.72802734375,-10) scale(1,1)"><rect fill="#ffffff" stroke="none" x="846.92333984375" y="26.5" width="88.94873046875" height="24"/></g><g transform="translate(-136.72802734375,-10) scale(1,1)"><path fill="none" stroke="#000000" d="M 846.92333984375 26.5 L 935.8720703125 26.5 L 935.8720703125 50.5 L 846.92333984375 50.5 L 846.92333984375 26.5 Z Z" stroke-miterlimit="10"/></g><g transform="translate(-136.72802734375,-10) scale(1,1)"><g><path fill="none" stroke="none"/><text fill="#000000" stroke="none" font-family="Arial" font-size="13px" font-style="normal" font-weight="bold" text-decoration="none" x="853.11181640625" y="46">MTPriceType</text></g></g><g transform="translate(-136.72802734375,-10) scale(1,1)"><rect fill="#C0C0C0" stroke="none" x="973.8720703125" y="27" width="131.53515625" height="37" opacity="0.2"/></g><g transform="translate(-136.72802734375,-10) scale(1,1)"><rect fill="#ffffff" stroke="none" x="966.8720703125" y="20" width="131.53515625" height="37"/></g><g transform="translate(-136.72802734375,-10) scale(1,1)"><path fill="none" stroke="#000000" d="M 966.8720703125 20 L 1098.4072265625 20 L 1098.4072265625 57 L 966.8720703125 57 L 966.8720703125 20 Z Z" stroke-miterlimit="10"/></g><g transform="translate(-136.72802734375,-10) scale(1,1)"><g><path fill="none" stroke="none"/><text fill="#000000" stroke="none" font-family="Arial" font-size="13px" font-style="normal" font-weight="normal" text-decoration="none" x="989.275634765625" y="37.5">«enumeration»</text></g></g><g transform="translate(-136.72802734375,-10) scale(1,1)"><g><path fill="none" stroke="none"/><text fill="#000000" stroke="none" font-family="Arial" font-size="13px" font-style="normal" font-weight="bold" text-decoration="none" x="974.1142578125" y="52.5">MTReturnCodeType</text></g></g><g transform="translate(-136.72802734375,-10) scale(1,1)"><rect fill="#C0C0C0" stroke="none" x="1136.4072265625" y="27" width="190.060546875" height="37" opacity="0.2"/></g><g transform="translate(-136.72802734375,-10) scale(1,1)"><rect fill="#ffffff" stroke="none" x="1129.4072265625" y="20" width="190.060546875" height="37"/></g><g transform="translate(-136.72802734375,-10) scale(1,1)"><path fill="none" stroke="#000000" d="M 1129.4072265625 20 L 1319.4677734375 20 L 1319.4677734375 57 L 1129.4072265625 57 L 1129.4072265625 20 Z Z" stroke-miterlimit="10"/></g><g transform="translate(-136.72802734375,-10) scale(1,1)"><g><path fill="none" stroke="none"/><text fill="#000000" stroke="none" font-family="Arial" font-size="13px" font-style="normal" font-weight="normal" text-decoration="none" x="1181.073486328125" y="37.5">«enumeration»</text></g></g><g transform="translate(-136.72802734375,-10) scale(1,1)"><g><path fill="none" stroke="none"/><text fill="#000000" stroke="none" font-family="Arial" font-size="13px" font-style="normal" font-weight="bold" text-decoration="none" x="1139.178955078125" y="52.5">MTReturnCodeTypePrevision</text></g></g><g transform="translate(-136.72802734375,-10) scale(1,1)"><rect fill="#C0C0C0" stroke="none" x="1357.4677734375" y="33.5" width="74.7236328125" height="24" opacity="0.2"/></g><g transform="translate(-136.72802734375,-10) scale(1,1)"><rect fill="#ffffff" stroke="none" x="1350.4677734375" y="26.5" width="74.7236328125" height="24"/></g><g transform="translate(-136.72802734375,-10) scale(1,1)"><path fill="none" stroke="#000000" d="M 1350.4677734375 26.5 L 1425.19140625 26.5 L 1425.19140625 50.5 L 1350.4677734375 50.5 L 1350.4677734375 26.5 Z Z" stroke-miterlimit="10"/></g><g transform="translate(-136.72802734375,-10) scale(1,1)"><g><path fill="none" stroke="none"/><text fill="#000000" stroke="none" font-family="Arial" font-size="13px" font-style="normal" font-weight="bold" text-decoration="none" x="1357.497314453125" y="46">MTUtilities</text></g></g><g transform="translate(-136.72802734375,-10) scale(1,1)"><rect fill="#C0C0C0" stroke="none" x="1463.19140625" y="33.5" width="75.47900390625" height="24" opacity="0.2"/></g><g transform="translate(-136.72802734375,-10) scale(1,1)"><rect fill="#ffffff" stroke="none" x="1456.19140625" y="26.5" width="75.47900390625" height="24"/></g><g transform="translate(-136.72802734375,-10) scale(1,1)"><path fill="none" stroke="#000000" d="M 1456.19140625 26.5 L 1531.67041015625 26.5 L 1531.67041015625 50.5 L 1456.19140625 50.5 L 1456.19140625 26.5 Z Z" stroke-miterlimit="10"/></g><g transform="translate(-136.72802734375,-10) scale(1,1)"><g><path fill="none" stroke="none"/><text fill="#000000" stroke="none" font-family="Arial" font-size="13px" font-style="normal" font-weight="bold" text-decoration="none" x="1462.8623046875" y="46">Resources</text></g></g><g transform="translate(-136.72802734375,-10) scale(1,1)"><rect fill="#C0C0C0" stroke="none" x="1569.67041015625" y="27" width="129.3896484375" height="37" opacity="0.2"/></g><g transform="translate(-136.72802734375,-10) scale(1,1)"><rect fill="#ffffff" stroke="none" x="1562.67041015625" y="20" width="129.3896484375" height="37"/></g><g transform="translate(-136.72802734375,-10) scale(1,1)"><path fill="none" stroke="#000000" d="M 1562.67041015625 20 L 1692.06005859375 20 L 1692.06005859375 57 L 1562.67041015625 57 L 1562.67041015625 20 Z Z" stroke-miterlimit="10"/></g><g transform="translate(-136.72802734375,-10) scale(1,1)"><g><path fill="none" stroke="none"/><text fill="#000000" stroke="none" font-family="Arial" font-size="13px" font-style="normal" font-weight="normal" text-decoration="none" x="1584.001220703125" y="37.5">«enumeration»</text></g></g><g transform="translate(-136.72802734375,-10) scale(1,1)"><g><path fill="none" stroke="none"/><text fill="#000000" stroke="none" font-family="Arial" font-size="13px" font-style="normal" font-weight="bold" text-decoration="none" x="1570.283935546875" y="52.5">SQLErrorCodeType</text></g></g></g></svg>