<svg version="1.1" xmlns="http://www.w3.org/2000/svg" xmlns:xlink="http://www.w3.org/1999/xlink" width="1046.12255859375" height="605"><defs/><g><g transform="translate(-646,-270) scale(1,1)"><rect fill="#C0C0C0" stroke="none" x="711" y="287" width="232.6787109375" height="75" opacity="0.2"/></g><g transform="translate(-646,-270) scale(1,1)"><rect fill="#ffffff" stroke="none" x="704" y="280" width="232.6787109375" height="75"/></g><g transform="translate(-646,-270) scale(1,1)"><path fill="none" stroke="#000000" d="M 704 280 L 936.6787109375 280 L 936.6787109375 355 L 704 355 L 704 280 Z Z" stroke-miterlimit="10"/></g><g transform="translate(-646,-270) scale(1,1)"><path fill="none" stroke="#000000" d="M 704 318 L 936.6787109375 318" stroke-miterlimit="10"/></g><g transform="translate(-646,-270) scale(1,1)"><g><path fill="none" stroke="none"/><text fill="#000000" stroke="none" font-family="Arial" font-size="13px" font-style="normal" font-weight="normal" text-decoration="none" x="799.13818359375" y="297.5">«View»</text></g></g><g transform="translate(-646,-270) scale(1,1)"><g><path fill="none" stroke="none"/><text fill="#000000" stroke="none" font-family="Arial" font-size="13px" font-style="normal" font-weight="bold" text-decoration="none" x="766.61279296875" y="312.5">dpsLandingView.js</text></g></g><g transform="translate(-646,-270) scale(1,1)"><g><path fill="none" stroke="none"/><text fill="#000000" stroke="none" font-family="Arial" font-size="13px" font-style="normal" font-weight="normal" text-decoration="none" x="709" y="335.5">+state(root.home.dataconnectLanding)</text></g></g><g transform="translate(-646,-270) scale(1,1)"><g><path fill="none" stroke="none"/><text fill="#000000" stroke="none" font-family="Arial" font-size="13px" font-style="normal" font-weight="normal" text-decoration="none" x="709" y="350.5">+state(root.redirect)</text></g></g><g transform="translate(-646,-270) scale(1,1)"><rect fill="#C0C0C0" stroke="none" x="1015" y="303" width="119.5" height="37" opacity="0.2"/></g><g transform="translate(-646,-270) scale(1,1)"><rect fill="#ffffff" stroke="none" x="1008" y="296" width="119.5" height="37"/></g><g transform="translate(-646,-270) scale(1,1)"><path fill="none" stroke="#000000" d="M 1008 296 L 1127.5 296 L 1127.5 333 L 1008 333 L 1008 296 Z Z" stroke-miterlimit="10"/></g><g transform="translate(-646,-270) scale(1,1)"><g><path fill="none" stroke="none"/><text fill="#000000" stroke="none" font-family="Arial" font-size="13px" font-style="normal" font-weight="normal" text-decoration="none" x="1032.3427734375" y="313.5">«Controller»</text></g></g><g transform="translate(-646,-270) scale(1,1)"><g><path fill="none" stroke="none"/><text fill="#000000" stroke="none" font-family="Arial" font-size="13px" font-style="normal" font-weight="bold" text-decoration="none" x="1017.52734375" y="328.5">dpsLandingCtrl.js</text></g></g><g transform="translate(-646,-270) scale(1,1)"><rect fill="#C0C0C0" stroke="none" x="1231" y="303" width="84.8671875" height="37" opacity="0.2"/></g><g transform="translate(-646,-270) scale(1,1)"><rect fill="#ffffff" stroke="none" x="1224" y="296" width="84.8671875" height="37"/></g><g transform="translate(-646,-270) scale(1,1)"><path fill="none" stroke="#000000" d="M 1224 296 L 1308.8671875 296 L 1308.8671875 333 L 1224 333 L 1224 296 Z Z" stroke-miterlimit="10"/></g><g transform="translate(-646,-270) scale(1,1)"><g><path fill="none" stroke="none"/><text fill="#000000" stroke="none" font-family="Arial" font-size="13px" font-style="normal" font-weight="normal" text-decoration="none" x="1237.529541015625" y="313.5">«Service»</text></g></g><g transform="translate(-646,-270) scale(1,1)"><g><path fill="none" stroke="none"/><text fill="#000000" stroke="none" font-family="Arial" font-size="13px" font-style="normal" font-weight="bold" text-decoration="none" x="1231.0390625" y="328.5">UserFactory</text></g></g><g transform="translate(-646,-270) scale(1,1)"><rect fill="#C0C0C0" stroke="none" x="1223" y="399" width="107.2236328125" height="37" opacity="0.2"/></g><g transform="translate(-646,-270) scale(1,1)"><rect fill="#ffffff" stroke="none" x="1216" y="392" width="107.2236328125" height="37"/></g><g transform="translate(-646,-270) scale(1,1)"><path fill="none" stroke="#000000" d="M 1216 392 L 1323.2236328125 392 L 1323.2236328125 429 L 1216 429 L 1216 392 Z Z" stroke-miterlimit="10"/></g><g transform="translate(-646,-270) scale(1,1)"><g><path fill="none" stroke="none"/><text fill="#000000" stroke="none" font-family="Arial" font-size="13px" font-style="normal" font-weight="normal" text-decoration="none" x="1234.20458984375" y="409.5">«Controller»</text></g></g><g transform="translate(-646,-270) scale(1,1)"><g><path fill="none" stroke="none"/><text fill="#000000" stroke="none" font-family="Arial" font-size="13px" font-style="normal" font-weight="bold" text-decoration="none" x="1224.09912109375" y="424.5">mpPopUpCtrl.js</text></g></g><g transform="translate(-646,-270) scale(1,1)"><path fill="none" stroke="#000000" d="M 1267 392 L 1267 333" stroke-miterlimit="10" stroke-dasharray="3"/></g><g transform="translate(-646,-270) scale(1,1)"><path fill="none" stroke="#000000" d="M 1271.2095177560159 343.16267485762415 L 1267 333 L 1262.7904822439841 343.16267485762415" stroke-miterlimit="10"/></g><g transform="translate(-646,-270) scale(1,1)"><rect fill="#C0C0C0" stroke="none" x="807" y="407" width="118.83984375" height="37" opacity="0.2"/></g><g transform="translate(-646,-270) scale(1,1)"><rect fill="#ffffff" stroke="none" x="800" y="400" width="118.83984375" height="37"/></g><g transform="translate(-646,-270) scale(1,1)"><path fill="none" stroke="#000000" d="M 800 400 L 918.83984375 400 L 918.83984375 437 L 800 437 L 800 400 Z Z" stroke-miterlimit="10"/></g><g transform="translate(-646,-270) scale(1,1)"><g><path fill="none" stroke="none"/><text fill="#000000" stroke="none" font-family="Arial" font-size="13px" font-style="normal" font-weight="normal" text-decoration="none" x="824.0126953125" y="417.5">«Controller»</text></g></g><g transform="translate(-646,-270) scale(1,1)"><g><path fill="none" stroke="none"/><text fill="#000000" stroke="none" font-family="Arial" font-size="13px" font-style="normal" font-weight="bold" text-decoration="none" x="806.686767578125" y="432.5">UserRESTService</text></g></g><g transform="translate(-646,-270) scale(1,1)"><path fill="none" stroke="#000000" d="M 1027 333 L 1027 418 L 919 418" stroke-miterlimit="10" stroke-dasharray="3"/></g><g transform="translate(-646,-270) scale(1,1)"><path fill="none" stroke="#000000" d="M 929.1626748576241 413.790482243984 L 919 418 L 929.1626748576241 422.209517756016" stroke-miterlimit="10"/></g><g transform="translate(-646,-270) scale(1,1)"><rect fill="#C0C0C0" stroke="none" x="1055" y="527" width="152.76171875" height="37" opacity="0.2"/></g><g transform="translate(-646,-270) scale(1,1)"><rect fill="#ffffff" stroke="none" x="1048" y="520" width="152.76171875" height="37"/></g><g transform="translate(-646,-270) scale(1,1)"><path fill="none" stroke="#000000" d="M 1048 520 L 1200.76171875 520 L 1200.76171875 557 L 1048 557 L 1048 520 Z Z" stroke-miterlimit="10"/></g><g transform="translate(-646,-270) scale(1,1)"><g><path fill="none" stroke="none"/><text fill="#000000" stroke="none" font-family="Arial" font-size="13px" font-style="normal" font-weight="normal" text-decoration="none" x="1094.38818359375" y="537.5">«Handler»</text></g></g><g transform="translate(-646,-270) scale(1,1)"><g><path fill="none" stroke="none"/><text fill="#000000" stroke="none" font-family="Arial" font-size="13px" font-style="italic" font-weight="bold" text-decoration="none" x="1057.90185546875" y="552.5">AbstractEnedisHandler</text></g></g><g transform="translate(-646,-270) scale(1,1)"><rect fill="#C0C0C0" stroke="none" x="1183" y="471" width="134.6962890625" height="37" opacity="0.2"/></g><g transform="translate(-646,-270) scale(1,1)"><rect fill="#ffffff" stroke="none" x="1176" y="464" width="134.6962890625" height="37"/></g><g transform="translate(-646,-270) scale(1,1)"><path fill="none" stroke="#000000" d="M 1176 464 L 1310.6962890625 464 L 1310.6962890625 501 L 1176 501 L 1176 464 Z Z" stroke-miterlimit="10"/></g><g transform="translate(-646,-270) scale(1,1)"><g><path fill="none" stroke="none"/><text fill="#000000" stroke="none" font-family="Arial" font-size="13px" font-style="normal" font-weight="normal" text-decoration="none" x="1213.35546875" y="481.5">«Handler»</text></g></g><g transform="translate(-646,-270) scale(1,1)"><g><path fill="none" stroke="none"/><text fill="#000000" stroke="none" font-family="Arial" font-size="13px" font-style="italic" font-weight="bold" text-decoration="none" x="1185.1845703125" y="496.5">AbstractDpsHandler</text></g></g><g transform="translate(-646,-270) scale(1,1)"><path fill="none" stroke="#000000" d="M 1201 538 L 1215 538 L 1215 501" stroke-miterlimit="10"/></g><g transform="translate(-646,-270) scale(1,1)"><path fill="#FFFFFF" stroke="none" d="M 1223.419035512032 521.3253497152483 L 1215 501 L 1206.580964487968 521.3253497152483"/></g><g transform="translate(-646,-270) scale(1,1)"><path fill="none" stroke="#000000" d="M 1223.419035512032 521.3253497152483 L 1215 501 L 1206.580964487968 521.3253497152483 L 1223.419035512032 521.3253497152483" stroke-miterlimit="10"/></g><g transform="translate(-646,-270) scale(1,1)"><rect fill="#C0C0C0" stroke="none" x="1271" y="583" width="127.47900390625" height="37" opacity="0.2"/></g><g transform="translate(-646,-270) scale(1,1)"><rect fill="#ffffff" stroke="none" x="1264" y="576" width="127.47900390625" height="37"/></g><g transform="translate(-646,-270) scale(1,1)"><path fill="none" stroke="#000000" d="M 1264 576 L 1391.47900390625 576 L 1391.47900390625 613 L 1264 613 L 1264 576 Z Z" stroke-miterlimit="10"/></g><g transform="translate(-646,-270) scale(1,1)"><g><path fill="none" stroke="none"/><text fill="#000000" stroke="none" font-family="Arial" font-size="13px" font-style="normal" font-weight="normal" text-decoration="none" x="1297.746826171875" y="593.5">«Handler»</text></g></g><g transform="translate(-646,-270) scale(1,1)"><g><path fill="none" stroke="none"/><text fill="#000000" stroke="none" font-family="Arial" font-size="13px" font-style="normal" font-weight="bold" text-decoration="none" x="1271.978515625" y="608.5">EnedisTrueHandler</text></g></g><g transform="translate(-646,-270) scale(1,1)"><path fill="none" stroke="#000000" d="M 1264 583 L 1132 583 L 1132 557" stroke-miterlimit="10"/></g><g transform="translate(-646,-270) scale(1,1)"><path fill="#FFFFFF" stroke="none" d="M 1140.419035512032 577.3253497152483 L 1132 557 L 1123.580964487968 577.3253497152483"/></g><g transform="translate(-646,-270) scale(1,1)"><path fill="none" stroke="#000000" d="M 1140.419035512032 577.3253497152483 L 1132 557 L 1123.580964487968 577.3253497152483 L 1140.419035512032 577.3253497152483" stroke-miterlimit="10"/></g><g transform="translate(-646,-270) scale(1,1)"><rect fill="#C0C0C0" stroke="none" x="935" y="471" width="184.55078125" height="37" opacity="0.2"/></g><g transform="translate(-646,-270) scale(1,1)"><rect fill="#ffffff" stroke="none" x="928" y="464" width="184.55078125" height="37"/></g><g transform="translate(-646,-270) scale(1,1)"><path fill="none" stroke="#000000" d="M 928 464 L 1112.55078125 464 L 1112.55078125 501 L 928 501 L 928 464 Z Z" stroke-miterlimit="10"/></g><g transform="translate(-646,-270) scale(1,1)"><g><path fill="none" stroke="none"/><text fill="#000000" stroke="none" font-family="Arial" font-size="13px" font-style="normal" font-weight="normal" text-decoration="none" x="991.371337890625" y="481.5">«Service»</text></g></g><g transform="translate(-646,-270) scale(1,1)"><g><path fill="none" stroke="none"/><text fill="#000000" stroke="none" font-family="Arial" font-size="13px" font-style="normal" font-weight="bold" text-decoration="none" x="938.622314453125" y="496.5">MeteringPointEnedisService</text></g></g><g transform="translate(-646,-270) scale(1,1)"><path fill="none" stroke="#000000" d="M 1113 482 L 1176 482" stroke-miterlimit="10" stroke-dasharray="3"/></g><g transform="translate(-646,-270) scale(1,1)"><path fill="none" stroke="#000000" d="M 1165.837325142376 486.209517756016 L 1176 482 L 1165.837325142376 477.790482243984" stroke-miterlimit="10"/></g><g transform="translate(-646,-270) scale(1,1)"><path fill="none" stroke="#000000" d="M 1048 501 L 1048 520" stroke-miterlimit="10" stroke-dasharray="3"/></g><g transform="translate(-646,-270) scale(1,1)"><path fill="none" stroke="#000000" d="M 1043.7904822439841 509.83732514237585 L 1048 520 L 1052.2095177560159 509.83732514237585" stroke-miterlimit="10"/></g><g transform="translate(-646,-270) scale(1,1)"><path fill="none" stroke="#000000" d="M 909 437 L 909 482 L 928 482" stroke-miterlimit="10"/></g><g transform="translate(-646,-270) scale(1,1)"><path fill="none" stroke="#000000" d="M 917.8373251423759 486.209517756016 L 928 482 L 917.8373251423758 477.790482243984" stroke-miterlimit="10"/></g><g transform="translate(-646,-270) scale(1,1)"><rect fill="#C0C0C0" stroke="none" x="1271" y="527" width="128.9072265625" height="37" opacity="0.2"/></g><g transform="translate(-646,-270) scale(1,1)"><rect fill="#ffffff" stroke="none" x="1264" y="520" width="128.9072265625" height="37"/></g><g transform="translate(-646,-270) scale(1,1)"><path fill="none" stroke="#000000" d="M 1264 520 L 1392.9072265625 520 L 1392.9072265625 557 L 1264 557 L 1264 520 Z Z" stroke-miterlimit="10"/></g><g transform="translate(-646,-270) scale(1,1)"><g><path fill="none" stroke="none"/><text fill="#000000" stroke="none" font-family="Arial" font-size="13px" font-style="normal" font-weight="normal" text-decoration="none" x="1298.4609375" y="537.5">«Handler»</text></g></g><g transform="translate(-646,-270) scale(1,1)"><g><path fill="none" stroke="none"/><text fill="#000000" stroke="none" font-family="Arial" font-size="13px" font-style="normal" font-weight="bold" text-decoration="none" x="1272.445068359375" y="552.5">EnedisStubHandler</text></g></g><g transform="translate(-646,-270) scale(1,1)"><path fill="none" stroke="#000000" d="M 1264 552 L 1201 552" stroke-miterlimit="10"/></g><g transform="translate(-646,-270) scale(1,1)"><path fill="#FFFFFF" stroke="none" d="M 1221.3253497152482 543.580964487968 L 1201 552 L 1221.3253497152482 560.419035512032"/></g><g transform="translate(-646,-270) scale(1,1)"><path fill="none" stroke="#000000" d="M 1221.3253497152482 543.580964487968 L 1201 552 L 1221.3253497152482 560.419035512032 L 1221.3253497152482 543.580964487968" stroke-miterlimit="10"/></g><g transform="translate(-646,-270) scale(1,1)"><rect fill="#C0C0C0" stroke="none" x="663" y="407" width="88.94873046875" height="37" opacity="0.2"/></g><g transform="translate(-646,-270) scale(1,1)"><rect fill="#ffffff" stroke="none" x="656" y="400" width="88.94873046875" height="37"/></g><g transform="translate(-646,-270) scale(1,1)"><path fill="none" stroke="#000000" d="M 656 400 L 744.94873046875 400 L 744.94873046875 437 L 656 437 L 656 400 Z Z" stroke-miterlimit="10"/></g><g transform="translate(-646,-270) scale(1,1)"><g><path fill="none" stroke="none"/><text fill="#000000" stroke="none" font-family="Arial" font-size="13px" font-style="normal" font-weight="normal" text-decoration="none" x="669.764404296875" y="417.5">«Security»</text></g></g><g transform="translate(-646,-270) scale(1,1)"><g><path fill="none" stroke="none"/><text fill="#000000" stroke="none" font-family="Arial" font-size="13px" font-style="normal" font-weight="bold" text-decoration="none" x="663.267578125" y="432.5">TokenClaims</text></g></g><g transform="translate(-646,-270) scale(1,1)"><rect fill="#C0C0C0" stroke="none" x="719" y="559" width="146.9599609375" height="37" opacity="0.2"/></g><g transform="translate(-646,-270) scale(1,1)"><rect fill="#ffffff" stroke="none" x="712" y="552" width="146.9599609375" height="37"/></g><g transform="translate(-646,-270) scale(1,1)"><path fill="none" stroke="#000000" d="M 712 552 L 858.9599609375 552 L 858.9599609375 589 L 712 589 L 712 552 Z Z" stroke-miterlimit="10"/></g><g transform="translate(-646,-270) scale(1,1)"><g><path fill="none" stroke="none"/><text fill="#000000" stroke="none" font-family="Arial" font-size="13px" font-style="normal" font-weight="normal" text-decoration="none" x="747.181396484375" y="569.5">«Repository»</text></g></g><g transform="translate(-646,-270) scale(1,1)"><g><path fill="none" stroke="none"/><text fill="#000000" stroke="none" font-family="Arial" font-size="13px" font-style="normal" font-weight="bold" text-decoration="none" x="721.171875" y="584.5">RequestMpRepository</text></g></g><g transform="translate(-646,-270) scale(1,1)"><rect fill="#C0C0C0" stroke="none" x="991" y="639" width="128.90087890625" height="37" opacity="0.2"/></g><g transform="translate(-646,-270) scale(1,1)"><rect fill="#ffffff" stroke="none" x="984" y="632" width="128.90087890625" height="37"/></g><g transform="translate(-646,-270) scale(1,1)"><path fill="none" stroke="#000000" d="M 984 632 L 1112.90087890625 632 L 1112.90087890625 669 L 984 669 L 984 632 Z Z" stroke-miterlimit="10"/></g><g transform="translate(-646,-270) scale(1,1)"><g><path fill="none" stroke="none"/><text fill="#000000" stroke="none" font-family="Arial" font-size="13px" font-style="normal" font-weight="normal" text-decoration="none" x="1010.15185546875" y="649.5">«Repository»</text></g></g><g transform="translate(-646,-270) scale(1,1)"><g><path fill="none" stroke="none"/><text fill="#000000" stroke="none" font-family="Arial" font-size="13px" font-style="normal" font-weight="bold" text-decoration="none" x="993.171875" y="664.5">ConsentRepository</text></g></g><g transform="translate(-646,-270) scale(1,1)"><rect fill="#C0C0C0" stroke="none" x="1207" y="647" width="157.09716796875" height="37" opacity="0.2"/></g><g transform="translate(-646,-270) scale(1,1)"><rect fill="#ffffff" stroke="none" x="1200" y="640" width="157.09716796875" height="37"/></g><g transform="translate(-646,-270) scale(1,1)"><path fill="none" stroke="#000000" d="M 1200 640 L 1357.09716796875 640 L 1357.09716796875 677 L 1200 677 L 1200 640 Z Z" stroke-miterlimit="10"/></g><g transform="translate(-646,-270) scale(1,1)"><g><path fill="none" stroke="none"/><text fill="#000000" stroke="none" font-family="Arial" font-size="13px" font-style="normal" font-weight="normal" text-decoration="none" x="1240.25" y="657.5">«Repository»</text></g></g><g transform="translate(-646,-270) scale(1,1)"><g><path fill="none" stroke="none"/><text fill="#000000" stroke="none" font-family="Arial" font-size="13px" font-style="normal" font-weight="bold" text-decoration="none" x="1210.2763671875" y="672.5">DfcRegistersRepository</text></g></g><g transform="translate(-646,-270) scale(1,1)"><rect fill="#C0C0C0" stroke="none" x="1415" y="479" width="274.12255859375" height="37" opacity="0.2"/></g><g transform="translate(-646,-270) scale(1,1)"><rect fill="#ffffff" stroke="none" x="1408" y="472" width="274.12255859375" height="37"/></g><g transform="translate(-646,-270) scale(1,1)"><path fill="none" stroke="#000000" d="M 1408 472 L 1682.12255859375 472 L 1682.12255859375 509 L 1408 509 L 1408 472 Z Z" stroke-miterlimit="10"/></g><g transform="translate(-646,-270) scale(1,1)"><g><path fill="none" stroke="none"/><text fill="#000000" stroke="none" font-family="Arial" font-size="13px" font-style="normal" font-weight="normal" text-decoration="none" x="1506.7626953125" y="489.5">«Repository»</text></g></g><g transform="translate(-646,-270) scale(1,1)"><g><path fill="none" stroke="none"/><text fill="#000000" stroke="none" font-family="Arial" font-size="13px" font-style="normal" font-weight="bold" text-decoration="none" x="1421.878662109375" y="504.5">CustomDataProviderSystemObjRepository</text></g></g><g transform="translate(-646,-270) scale(1,1)"><rect fill="#C0C0C0" stroke="none" x="1359" y="407" width="79.05908203125" height="37" opacity="0.2"/></g><g transform="translate(-646,-270) scale(1,1)"><rect fill="#ffffff" stroke="none" x="1352" y="400" width="79.05908203125" height="37"/></g><g transform="translate(-646,-270) scale(1,1)"><path fill="none" stroke="#000000" d="M 1352 400 L 1431.05908203125 400 L 1431.05908203125 437 L 1352 437 L 1352 400 Z Z" stroke-miterlimit="10"/></g><g transform="translate(-646,-270) scale(1,1)"><g><path fill="none" stroke="none"/><text fill="#000000" stroke="none" font-family="Arial" font-size="13px" font-style="normal" font-weight="normal" text-decoration="none" x="1368.043212890625" y="417.5">«Entity»</text></g></g><g transform="translate(-646,-270) scale(1,1)"><g><path fill="none" stroke="none"/><text fill="#000000" stroke="none" font-family="Arial" font-size="13px" font-style="normal" font-weight="bold" text-decoration="none" x="1358.2900390625" y="432.5">RequestMp</text></g></g><g transform="translate(-646,-270) scale(1,1)"><rect fill="#C0C0C0" stroke="none" x="1031" y="799" width="95.66455078125" height="37" opacity="0.2"/></g><g transform="translate(-646,-270) scale(1,1)"><rect fill="#ffffff" stroke="none" x="1024" y="792" width="95.66455078125" height="37"/></g><g transform="translate(-646,-270) scale(1,1)"><path fill="none" stroke="#000000" d="M 1024 792 L 1119.66455078125 792 L 1119.66455078125 829 L 1024 829 L 1024 792 Z Z" stroke-miterlimit="10"/></g><g transform="translate(-646,-270) scale(1,1)"><g><path fill="none" stroke="none"/><text fill="#000000" stroke="none" font-family="Arial" font-size="13px" font-style="normal" font-weight="normal" text-decoration="none" x="1048.345947265625" y="809.5">«Entity»</text></g></g><g transform="translate(-646,-270) scale(1,1)"><g><path fill="none" stroke="none"/><text fill="#000000" stroke="none" font-family="Arial" font-size="13px" font-style="normal" font-weight="bold" text-decoration="none" x="1031.727783203125" y="824.5">MeteringPoint</text></g></g><g transform="translate(-646,-270) scale(1,1)"><rect fill="#C0C0C0" stroke="none" x="1343" y="695" width="61" height="37" opacity="0.2"/></g><g transform="translate(-646,-270) scale(1,1)"><rect fill="#ffffff" stroke="none" x="1336" y="688" width="61" height="37"/></g><g transform="translate(-646,-270) scale(1,1)"><path fill="none" stroke="#000000" d="M 1336 688 L 1397 688 L 1397 725 L 1336 725 L 1336 688 Z Z" stroke-miterlimit="10"/></g><g transform="translate(-646,-270) scale(1,1)"><g><path fill="none" stroke="none"/><text fill="#000000" stroke="none" font-family="Arial" font-size="13px" font-style="normal" font-weight="normal" text-decoration="none" x="1343.013671875" y="705.5">«Entity»</text></g></g><g transform="translate(-646,-270) scale(1,1)"><g><path fill="none" stroke="none"/><text fill="#000000" stroke="none" font-family="Arial" font-size="13px" font-style="normal" font-weight="bold" text-decoration="none" x="1342.2900390625" y="720.5">Consent</text></g></g><g transform="translate(-646,-270) scale(1,1)"><path fill="none" stroke="#000000" d="M 1366 725 L 1366 736 L 1160 736 L 1160 810 L 1120 810" stroke-miterlimit="10"/></g><g transform="translate(-646,-270) scale(1,1)"><path fill="none" stroke="#000000" d="M 1130.162674857624 805.790482243984 L 1120 810 L 1130.162674857624 814.209517756016" stroke-miterlimit="10"/></g><g transform="translate(-646,-270) scale(1,1)"><g><path fill="none" stroke="none"/><text fill="#000000" stroke="none" font-family="Arial" font-size="13px" font-style="normal" font-weight="normal" text-decoration="none" x="1126.5" y="832.5">-meteringPoint</text></g></g><g transform="translate(-646,-270) scale(1,1)"><path fill="none" stroke="#000000" d="M 1366 725 L 1366 776 L 1216 776 L 1216 798 L 1120 798" stroke-miterlimit="10"/></g><g transform="translate(-646,-270) scale(1,1)"><path fill="none" stroke="#000000" d="M 1130.162674857624 793.790482243984 L 1120 798 L 1130.162674857624 802.209517756016" stroke-miterlimit="10"/></g><g transform="translate(-646,-270) scale(1,1)"><g><path fill="none" stroke="none"/><text fill="#000000" stroke="none" font-family="Arial" font-size="13px" font-style="normal" font-weight="normal" text-decoration="none" x="1129.5" y="834.5">-meteringPoints</text></g></g><g transform="translate(-646,-270) scale(1,1)"><g><path fill="none" stroke="none"/><text fill="#000000" stroke="none" font-family="Arial" font-size="13px" font-style="normal" font-weight="normal" text-decoration="none" x="1138.5" y="791.5">*</text></g></g><g transform="translate(-646,-270) scale(1,1)"><path fill="none" stroke="#000000" d="M 1120 810 L 1152 810 L 1152 720 L 1336 720" stroke-miterlimit="10"/></g><g transform="translate(-646,-270) scale(1,1)"><path fill="none" stroke="#000000" d="M 1325.837325142376 724.209517756016 L 1336 720 L 1325.837325142376 715.790482243984" stroke-miterlimit="10"/></g><g transform="translate(-646,-270) scale(1,1)"><g><path fill="none" stroke="none"/><text fill="#000000" stroke="none" font-family="Arial" font-size="13px" font-style="normal" font-weight="normal" text-decoration="none" x="1240.5" y="717.5">-consent</text></g></g><g transform="translate(-646,-270) scale(1,1)"><path fill="none" stroke="#000000" d="M 1120 795 L 1208 795 L 1208 768 L 1366 768 L 1366 725" stroke-miterlimit="10"/></g><g transform="translate(-646,-270) scale(1,1)"><path fill="none" stroke="#000000" d="M 1370.2095177560159 735.1626748576241 L 1366 725 L 1361.7904822439841 735.1626748576241" stroke-miterlimit="10"/></g><g transform="translate(-646,-270) scale(1,1)"><g><path fill="none" stroke="none"/><text fill="#000000" stroke="none" font-family="Arial" font-size="13px" font-style="normal" font-weight="normal" text-decoration="none" x="1317.5" y="778.5">-consents</text></g></g><g transform="translate(-646,-270) scale(1,1)"><g><path fill="none" stroke="none"/><text fill="#000000" stroke="none" font-family="Arial" font-size="13px" font-style="normal" font-weight="normal" text-decoration="none" x="1375.5" y="752.5">*</text></g></g><g transform="translate(-646,-270) scale(1,1)"><rect fill="#C0C0C0" stroke="none" x="1311" y="783" width="89.1962890625" height="37" opacity="0.2"/></g><g transform="translate(-646,-270) scale(1,1)"><rect fill="#ffffff" stroke="none" x="1304" y="776" width="89.1962890625" height="37"/></g><g transform="translate(-646,-270) scale(1,1)"><path fill="none" stroke="#000000" d="M 1304 776 L 1393.1962890625 776 L 1393.1962890625 813 L 1304 813 L 1304 776 Z Z" stroke-miterlimit="10"/></g><g transform="translate(-646,-270) scale(1,1)"><g><path fill="none" stroke="none"/><text fill="#000000" stroke="none" font-family="Arial" font-size="13px" font-style="normal" font-weight="normal" text-decoration="none" x="1325.11181640625" y="793.5">«Entity»</text></g></g><g transform="translate(-646,-270) scale(1,1)"><g><path fill="none" stroke="none"/><text fill="#000000" stroke="none" font-family="Arial" font-size="13px" font-style="normal" font-weight="bold" text-decoration="none" x="1311.39453125" y="808.5">DfcRegisters</text></g></g><g transform="translate(-646,-270) scale(1,1)"><path fill="none" stroke="#000000" d="M 1304 807 L 1120 807" stroke-miterlimit="10"/></g><g transform="translate(-646,-270) scale(1,1)"><path fill="none" stroke="#000000" d="M 1130.162674857624 802.790482243984 L 1120 807 L 1130.162674857624 811.209517756016" stroke-miterlimit="10"/></g><g transform="translate(-646,-270) scale(1,1)"><g><path fill="none" stroke="none"/><text fill="#000000" stroke="none" font-family="Arial" font-size="13px" font-style="normal" font-weight="normal" text-decoration="none" x="1074.5" y="865.5">-meteringPoint</text></g></g><g transform="translate(-646,-270) scale(1,1)"><path fill="none" stroke="#000000" d="M 1068 829 L 1068 848 L 1329 848 L 1329 813" stroke-miterlimit="10"/></g><g transform="translate(-646,-270) scale(1,1)"><path fill="none" stroke="#000000" d="M 1333.2095177560159 823.1626748576241 L 1329 813 L 1324.7904822439841 823.1626748576241" stroke-miterlimit="10"/></g><g transform="translate(-646,-270) scale(1,1)"><g><path fill="none" stroke="none"/><text fill="#000000" stroke="none" font-family="Arial" font-size="13px" font-style="normal" font-weight="normal" text-decoration="none" x="1268.5" y="844.5">-dfcRegisterses</text></g></g><g transform="translate(-646,-270) scale(1,1)"><g><path fill="none" stroke="none"/><text fill="#000000" stroke="none" font-family="Arial" font-size="13px" font-style="normal" font-weight="normal" text-decoration="none" x="1338.5" y="840.5">*</text></g></g><g transform="translate(-646,-270) scale(1,1)"><path fill="none" stroke="#000000" d="M 937 316 L 1008 316" stroke-miterlimit="10" stroke-dasharray="3"/></g><g transform="translate(-646,-270) scale(1,1)"><path fill="none" stroke="#000000" d="M 997.8373251423759 320.209517756016 L 1008 316 L 997.8373251423758 311.790482243984" stroke-miterlimit="10"/></g><g transform="translate(-646,-270) scale(1,1)"><path fill="none" stroke="#000000" d="M 1128 314 L 1224 314" stroke-miterlimit="10" stroke-dasharray="3"/></g><g transform="translate(-646,-270) scale(1,1)"><path fill="none" stroke="#000000" d="M 1213.837325142376 318.209517756016 L 1224 314 L 1213.837325142376 309.790482243984" stroke-miterlimit="10"/></g><g transform="translate(-646,-270) scale(1,1)"><path fill="none" stroke="#000000" d="M 1266 333 L 1266 402 L 919 402" stroke-miterlimit="10" stroke-dasharray="3"/></g><g transform="translate(-646,-270) scale(1,1)"><path fill="none" stroke="#000000" d="M 929.1626748576241 397.790482243984 L 919 402 L 929.1626748576241 406.209517756016" stroke-miterlimit="10"/></g><g transform="translate(-646,-270) scale(1,1)"><path fill="none" stroke="#000000" d="M 859 570 L 967 570 L 967 501" stroke-miterlimit="10"/></g><g transform="translate(-646,-270) scale(1,1)"><path fill="#000000" stroke="none" d="M 971.209517756016 511.16267485762415 L 967 501 L 962.790482243984 511.16267485762415 L 967 523"/></g><g transform="translate(-646,-270) scale(1,1)"><path fill="none" stroke="#000000" d="M 971.209517756016 511.16267485762415 L 967 501 L 962.790482243984 511.16267485762415 L 967 523 L 971.209517756016 511.16267485762415" stroke-miterlimit="10"/></g><g transform="translate(-646,-270) scale(1,1)"><rect fill="#C0C0C0" stroke="none" x="679" y="471" width="163.5654296875" height="37" opacity="0.2"/></g><g transform="translate(-646,-270) scale(1,1)"><rect fill="#ffffff" stroke="none" x="672" y="464" width="163.5654296875" height="37"/></g><g transform="translate(-646,-270) scale(1,1)"><path fill="none" stroke="#000000" d="M 672 464 L 835.5654296875 464 L 835.5654296875 501 L 672 501 L 672 464 Z Z" stroke-miterlimit="10"/></g><g transform="translate(-646,-270) scale(1,1)"><g><path fill="none" stroke="none"/><text fill="#000000" stroke="none" font-family="Arial" font-size="13px" font-style="normal" font-weight="normal" text-decoration="none" x="715.484130859375" y="481.5">«Repository»</text></g></g><g transform="translate(-646,-270) scale(1,1)"><g><path fill="none" stroke="none"/><text fill="#000000" stroke="none" font-family="Arial" font-size="13px" font-style="normal" font-weight="bold" text-decoration="none" x="682.609619140625" y="496.5">MeteringPointRepository</text></g></g><g transform="translate(-646,-270) scale(1,1)"><path fill="none" stroke="#000000" d="M 836 488 L 928 488" stroke-miterlimit="10"/></g><g transform="translate(-646,-270) scale(1,1)"><path fill="#000000" stroke="none" d="M 917.8373251423759 492.209517756016 L 928 488 L 917.8373251423758 483.790482243984 L 906 488"/></g><g transform="translate(-646,-270) scale(1,1)"><path fill="none" stroke="#000000" d="M 917.8373251423759 492.209517756016 L 928 488 L 917.8373251423758 483.790482243984 L 906 488 L 917.8373251423759 492.209517756016" stroke-miterlimit="10"/></g><g transform="translate(-646,-270) scale(1,1)"><path fill="none" stroke="#000000" d="M 1009 501 L 1009 648 L 928 648 L 928 793 L 1024 793" stroke-miterlimit="10" stroke-dasharray="3"/></g><g transform="translate(-646,-270) scale(1,1)"><path fill="none" stroke="#000000" d="M 1013.8373251423759 797.209517756016 L 1024 793 L 1013.8373251423758 788.790482243984" stroke-miterlimit="10"/></g><g transform="translate(-646,-270) scale(1,1)"><path fill="none" stroke="#000000" d="M 800 418 L 745 418" stroke-miterlimit="10" stroke-dasharray="3"/></g><g transform="translate(-646,-270) scale(1,1)"><path fill="none" stroke="#000000" d="M 755.1626748576241 413.790482243984 L 745 418 L 755.1626748576241 422.209517756016" stroke-miterlimit="10"/></g><g transform="translate(-646,-270) scale(1,1)"><path fill="none" stroke="#000000" d="M 1408 486 L 1311 486" stroke-miterlimit="10"/></g><g transform="translate(-646,-270) scale(1,1)"><path fill="#000000" stroke="none" d="M 1321.162674857624 481.790482243984 L 1311 486 L 1321.162674857624 490.209517756016 L 1333 486"/></g><g transform="translate(-646,-270) scale(1,1)"><path fill="none" stroke="#000000" d="M 1321.162674857624 481.790482243984 L 1311 486 L 1321.162674857624 490.209517756016 L 1333 486 L 1321.162674857624 481.790482243984" stroke-miterlimit="10"/></g><g transform="translate(-646,-270) scale(1,1)"><path fill="none" stroke="#000000" d="M 1113 637 L 1327 637 L 1327 613" stroke-miterlimit="10"/></g><g transform="translate(-646,-270) scale(1,1)"><path fill="#000000" stroke="none" d="M 1331.2095177560159 623.1626748576241 L 1327 613 L 1322.7904822439841 623.1626748576241 L 1327 635"/></g><g transform="translate(-646,-270) scale(1,1)"><path fill="none" stroke="#000000" d="M 1331.2095177560159 623.1626748576241 L 1327 613 L 1322.7904822439841 623.1626748576241 L 1327 635 L 1331.2095177560159 623.1626748576241" stroke-miterlimit="10"/></g><g transform="translate(-646,-270) scale(1,1)"><path fill="none" stroke="#000000" d="M 734 501 L 734 568 L 672 568 L 672 640 L 720 640 L 720 704 L 1278 704 L 1278 677" stroke-miterlimit="10"/></g><g transform="translate(-646,-270) scale(1,1)"><path fill="#000000" stroke="none" d="M 1282.2095177560159 687.1626748576241 L 1278 677 L 1273.7904822439841 687.1626748576241 L 1278 699"/></g><g transform="translate(-646,-270) scale(1,1)"><path fill="none" stroke="#000000" d="M 1282.2095177560159 687.1626748576241 L 1278 677 L 1273.7904822439841 687.1626748576241 L 1278 699 L 1282.2095177560159 687.1626748576241" stroke-miterlimit="10"/></g><g transform="translate(-646,-270) scale(1,1)"><path fill="none" stroke="#000000" d="M 1311 482 L 1391 482 L 1391 437" stroke-miterlimit="10" stroke-dasharray="3"/></g><g transform="translate(-646,-270) scale(1,1)"><path fill="none" stroke="#000000" d="M 1395.2095177560159 447.16267485762415 L 1391 437 L 1386.7904822439841 447.16267485762415" stroke-miterlimit="10"/></g></g></svg>