<svg version="1.1" xmlns="http://www.w3.org/2000/svg" xmlns:xlink="http://www.w3.org/1999/xlink" width="9095.4189453125" height="417"><defs/><g><g transform="translate(-354.3671875,-10) scale(1,1)"><rect fill="#C0C0C0" stroke="none" x="371.3671875" y="179" width="128.919921875" height="37" opacity="0.2"/></g><g transform="translate(-354.3671875,-10) scale(1,1)"><rect fill="#ffffff" stroke="none" x="364.3671875" y="172" width="128.919921875" height="37"/></g><g transform="translate(-354.3671875,-10) scale(1,1)"><path fill="none" stroke="#000000" d="M 364.3671875 172 L 493.287109375 172 L 493.287109375 209 L 364.3671875 209 L 364.3671875 172 Z Z" stroke-miterlimit="10"/></g><g transform="translate(-354.3671875,-10) scale(1,1)"><g><path fill="none" stroke="none"/><text fill="#000000" stroke="none" font-family="Arial" font-size="13px" font-style="normal" font-weight="normal" text-decoration="none" x="390.528564453125" y="189.5">«Repository»</text></g></g><g transform="translate(-354.3671875,-10) scale(1,1)"><g><path fill="none" stroke="none"/><text fill="#000000" stroke="none" font-family="Arial" font-size="13px" font-style="normal" font-weight="bold" text-decoration="none" x="373.91357421875" y="204.5">AddressRepository</text></g></g><g transform="translate(-354.3671875,-10) scale(1,1)"><rect fill="#C0C0C0" stroke="none" x="742.74072265625" y="179" width="137.57177734375" height="37" opacity="0.2"/></g><g transform="translate(-354.3671875,-10) scale(1,1)"><rect fill="#ffffff" stroke="none" x="735.74072265625" y="172" width="137.57177734375" height="37"/></g><g transform="translate(-354.3671875,-10) scale(1,1)"><path fill="none" stroke="#000000" d="M 735.74072265625 172 L 873.3125 172 L 873.3125 209 L 735.74072265625 209 L 735.74072265625 172 Z Z" stroke-miterlimit="10"/></g><g transform="translate(-354.3671875,-10) scale(1,1)"><g><path fill="none" stroke="none"/><text fill="#000000" stroke="none" font-family="Arial" font-size="13px" font-style="normal" font-weight="normal" text-decoration="none" x="766.22802734375" y="189.5">«Repository»</text></g></g><g transform="translate(-354.3671875,-10) scale(1,1)"><g><path fill="none" stroke="none"/><text fill="#000000" stroke="none" font-family="Arial" font-size="13px" font-style="normal" font-weight="bold" text-decoration="none" x="745.271240234375" y="204.5">AppEventRepository</text></g></g><g transform="translate(-354.3671875,-10) scale(1,1)"><rect fill="#C0C0C0" stroke="none" x="2941.6953125" y="179" width="128.90087890625" height="37" opacity="0.2"/></g><g transform="translate(-354.3671875,-10) scale(1,1)"><rect fill="#ffffff" stroke="none" x="2934.6953125" y="172" width="128.90087890625" height="37"/></g><g transform="translate(-354.3671875,-10) scale(1,1)"><path fill="none" stroke="#000000" d="M 2934.6953125 172 L 3063.59619140625 172 L 3063.59619140625 209 L 2934.6953125 209 L 2934.6953125 172 Z Z" stroke-miterlimit="10"/></g><g transform="translate(-354.3671875,-10) scale(1,1)"><g><path fill="none" stroke="none"/><text fill="#000000" stroke="none" font-family="Arial" font-size="13px" font-style="normal" font-weight="normal" text-decoration="none" x="2960.84716796875" y="189.5">«Repository»</text></g></g><g transform="translate(-354.3671875,-10) scale(1,1)"><g><path fill="none" stroke="none"/><text fill="#000000" stroke="none" font-family="Arial" font-size="13px" font-style="normal" font-weight="bold" text-decoration="none" x="2943.8671875" y="204.5">ConsentRepository</text></g></g><g transform="translate(-354.3671875,-10) scale(1,1)"><rect fill="#C0C0C0" stroke="none" x="3188.2318115234375" y="39" width="140.21875" height="24" opacity="0.2"/></g><g transform="translate(-354.3671875,-10) scale(1,1)"><rect fill="#ffffff" stroke="none" x="3181.2318115234375" y="32" width="140.21875" height="24"/></g><g transform="translate(-354.3671875,-10) scale(1,1)"><path fill="none" stroke="#000000" d="M 3181.2318115234375 32 L 3321.4505615234375 32 L 3321.4505615234375 56 L 3181.2318115234375 56 L 3181.2318115234375 32 Z Z" stroke-miterlimit="10"/></g><g transform="translate(-354.3671875,-10) scale(1,1)"><g><path fill="none" stroke="none"/><text fill="#000000" stroke="none" font-family="Arial" font-size="13px" font-style="normal" font-weight="bold" text-decoration="none" x="3190.6448974609375" y="51.5">CronTableRepository</text></g></g><g transform="translate(-354.3671875,-10) scale(1,1)"><rect fill="#C0C0C0" stroke="none" x="3741.30517578125" y="179" width="274.12255859375" height="37" opacity="0.2"/></g><g transform="translate(-354.3671875,-10) scale(1,1)"><rect fill="#ffffff" stroke="none" x="3734.30517578125" y="172" width="274.12255859375" height="37"/></g><g transform="translate(-354.3671875,-10) scale(1,1)"><path fill="none" stroke="#000000" d="M 3734.30517578125 172 L 4008.427734375 172 L 4008.427734375 209 L 3734.30517578125 209 L 3734.30517578125 172 Z Z" stroke-miterlimit="10"/></g><g transform="translate(-354.3671875,-10) scale(1,1)"><g><path fill="none" stroke="none"/><text fill="#000000" stroke="none" font-family="Arial" font-size="13px" font-style="normal" font-weight="normal" text-decoration="none" x="3833.06787109375" y="189.5">«Repository»</text></g></g><g transform="translate(-354.3671875,-10) scale(1,1)"><g><path fill="none" stroke="none"/><text fill="#000000" stroke="none" font-family="Arial" font-size="13px" font-style="normal" font-weight="bold" text-decoration="none" x="3748.183837890625" y="204.5">CustomDataProviderSystemObjRepository</text></g></g><g transform="translate(-354.3671875,-10) scale(1,1)"><rect fill="#C0C0C0" stroke="none" x="8655.16259765625" y="234" width="157.09716796875" height="37" opacity="0.2"/></g><g transform="translate(-354.3671875,-10) scale(1,1)"><rect fill="#ffffff" stroke="none" x="8648.16259765625" y="227" width="157.09716796875" height="37"/></g><g transform="translate(-354.3671875,-10) scale(1,1)"><path fill="none" stroke="#000000" d="M 8648.16259765625 227 L 8805.259765625 227 L 8805.259765625 264 L 8648.16259765625 264 L 8648.16259765625 227 Z Z" stroke-miterlimit="10"/></g><g transform="translate(-354.3671875,-10) scale(1,1)"><g><path fill="none" stroke="none"/><text fill="#000000" stroke="none" font-family="Arial" font-size="13px" font-style="normal" font-weight="normal" text-decoration="none" x="8688.41259765625" y="244.5">«Repository»</text></g></g><g transform="translate(-354.3671875,-10) scale(1,1)"><g><path fill="none" stroke="none"/><text fill="#000000" stroke="none" font-family="Arial" font-size="13px" font-style="normal" font-weight="bold" text-decoration="none" x="8658.43896484375" y="259.5">DfcRegistersRepository</text></g></g><g transform="translate(-354.3671875,-10) scale(1,1)"><rect fill="#C0C0C0" stroke="none" x="4408.15576171875" y="179" width="165.7490234375" height="37" opacity="0.2"/></g><g transform="translate(-354.3671875,-10) scale(1,1)"><rect fill="#ffffff" stroke="none" x="4401.15576171875" y="172" width="165.7490234375" height="37"/></g><g transform="translate(-354.3671875,-10) scale(1,1)"><path fill="none" stroke="#000000" d="M 4401.15576171875 172 L 4566.90478515625 172 L 4566.90478515625 209 L 4401.15576171875 209 L 4401.15576171875 172 Z Z" stroke-miterlimit="10"/></g><g transform="translate(-354.3671875,-10) scale(1,1)"><g><path fill="none" stroke="none"/><text fill="#000000" stroke="none" font-family="Arial" font-size="13px" font-style="normal" font-weight="normal" text-decoration="none" x="4445.731689453125" y="189.5">«Repository»</text></g></g><g transform="translate(-354.3671875,-10) scale(1,1)"><g><path fill="none" stroke="none"/><text fill="#000000" stroke="none" font-family="Arial" font-size="13px" font-style="normal" font-weight="bold" text-decoration="none" x="4411.41943359375" y="204.5">DpsErrorCodeRepository</text></g></g><g transform="translate(-354.3671875,-10) scale(1,1)"><rect fill="#C0C0C0" stroke="none" x="4604.90478515625" y="179" width="162.87353515625" height="24" opacity="0.2"/></g><g transform="translate(-354.3671875,-10) scale(1,1)"><rect fill="#ffffff" stroke="none" x="4597.90478515625" y="172" width="162.87353515625" height="24"/></g><g transform="translate(-354.3671875,-10) scale(1,1)"><path fill="none" stroke="#000000" d="M 4597.90478515625 172 L 4760.7783203125 172 L 4760.7783203125 196 L 4597.90478515625 196 L 4597.90478515625 172 Z Z" stroke-miterlimit="10"/></g><g transform="translate(-354.3671875,-10) scale(1,1)"><g><path fill="none" stroke="none"/><text fill="#000000" stroke="none" font-family="Arial" font-size="13px" font-style="normal" font-weight="bold" text-decoration="none" x="4607.451171875" y="191.5">EmailDemandRepository</text></g></g><g transform="translate(-354.3671875,-10) scale(1,1)"><rect fill="#C0C0C0" stroke="none" x="4798.7783203125" y="179" width="149.13720703125" height="24" opacity="0.2"/></g><g transform="translate(-354.3671875,-10) scale(1,1)"><rect fill="#ffffff" stroke="none" x="4791.7783203125" y="172" width="149.13720703125" height="24"/></g><g transform="translate(-354.3671875,-10) scale(1,1)"><path fill="none" stroke="#000000" d="M 4791.7783203125 172 L 4940.91552734375 172 L 4940.91552734375 196 L 4791.7783203125 196 L 4791.7783203125 172 Z Z" stroke-miterlimit="10"/></g><g transform="translate(-354.3671875,-10) scale(1,1)"><g><path fill="none" stroke="none"/><text fill="#000000" stroke="none" font-family="Arial" font-size="13px" font-style="normal" font-weight="bold" text-decoration="none" x="4801.321533203125" y="191.5">EmailModelRepository</text></g></g><g transform="translate(-354.3671875,-10) scale(1,1)"><rect fill="#C0C0C0" stroke="none" x="4383.6810302734375" y="31.5" width="20.3603515625" height="15" opacity="0.2"/></g><g transform="translate(-354.3671875,-10) scale(1,1)"><rect fill="#C0C0C0" stroke="none" x="4383.6810302734375" y="45.5" width="50.90087890625" height="25" opacity="0.2"/></g><g transform="translate(-354.3671875,-10) scale(1,1)"><rect fill="#ffffff" stroke="none" x="4376.6810302734375" y="39.5" width="50.90087890625" height="24"/></g><g transform="translate(-354.3671875,-10) scale(1,1)"><path fill="none" stroke="#000000" d="M 4376.6810302734375 39.5 L 4427.5819091796875 39.5 L 4427.5819091796875 63.5 L 4376.6810302734375 63.5 L 4376.6810302734375 39.5 Z Z" stroke-miterlimit="10"/></g><g transform="translate(-354.3671875,-10) scale(1,1)"><rect fill="#ffffff" stroke="none" x="4376.6810302734375" y="24.5" width="20.3603515625" height="15"/></g><g transform="translate(-354.3671875,-10) scale(1,1)"><path fill="none" stroke="#000000" d="M 4376.6810302734375 24.5 L 4397.0413818359375 24.5 L 4397.0413818359375 39.5 L 4376.6810302734375 39.5 L 4376.6810302734375 24.5 Z Z" stroke-miterlimit="10"/></g><g transform="translate(-354.3671875,-10) scale(1,1)"><rect fill="#ffffff" stroke="none" x="4376.6810302734375" y="38.5" width="50.90087890625" height="25"/></g><g transform="translate(-354.3671875,-10) scale(1,1)"><path fill="none" stroke="#000000" d="M 4376.6810302734375 38.5 L 4427.5819091796875 38.5 L 4427.5819091796875 63.5 L 4376.6810302734375 63.5 L 4376.6810302734375 38.5 Z Z" stroke-miterlimit="10"/></g><g transform="translate(-354.3671875,-10) scale(1,1)"><g><path fill="none" stroke="none"/><text fill="#000000" stroke="none" font-family="Arial" font-size="13px" font-style="normal" font-weight="bold" text-decoration="none" x="4382.6219482421875" y="59">enums</text></g></g><g transform="translate(-354.3671875,-10) scale(1,1)"><path fill="#C0C0C0" stroke="none" d="M 4805.4627685546875 38.5 C 4805.4627685546875 32.1487248 4810.611493354688 27 4816.9627685546875 27 C 4823.314043754687 27 4828.4627685546875 32.1487248 4828.4627685546875 38.5 C 4828.4627685546875 44.8512752 4823.314043754687 50 4816.9627685546875 50 C 4810.611493354688 50 4805.4627685546875 44.8512752 4805.4627685546875 38.5 Z" opacity="0.2"/></g><g transform="translate(-354.3671875,-10) scale(1,1)"><path fill="#ffffff" stroke="none" d="M 4798.4627685546875 31.5 C 4798.4627685546875 25.1487248 4803.611493354688 20 4809.9627685546875 20 C 4816.314043754687 20 4821.4627685546875 25.1487248 4821.4627685546875 31.5 C 4821.4627685546875 37.8512752 4816.314043754687 43 4809.9627685546875 43 C 4803.611493354688 43 4798.4627685546875 37.8512752 4798.4627685546875 31.5 Z"/></g><g transform="translate(-354.3671875,-10) scale(1,1)"><path fill="none" stroke="#000000" d="M 4798.4627685546875 31.5 C 4798.4627685546875 25.1487248 4803.611493354688 20 4809.9627685546875 20 C 4816.314043754687 20 4821.4627685546875 25.1487248 4821.4627685546875 31.5 C 4821.4627685546875 37.8512752 4816.314043754687 43 4809.9627685546875 43 C 4803.611493354688 43 4798.4627685546875 37.8512752 4798.4627685546875 31.5 Z" stroke-miterlimit="10"/></g><g transform="translate(-354.3671875,-10) scale(1,1)"><g><path fill="none" stroke="none"/><text fill="#000000" stroke="none" font-family="Arial" font-size="13px" font-style="normal" font-weight="bold" text-decoration="none" x="4775.2791748046875" y="62.5">GenericDao</text></g></g><g transform="translate(-354.3671875,-10) scale(1,1)"><rect fill="#C0C0C0" stroke="none" x="5220.94091796875" y="124" width="128.6962890625" height="24" opacity="0.2"/></g><g transform="translate(-354.3671875,-10) scale(1,1)"><rect fill="#C0C0C0" stroke="none" x="5341.6962890625" y="106" width="16.94091796875" height="22" opacity="0.2"/></g><g transform="translate(-354.3671875,-10) scale(1,1)"><rect fill="#ffffff" stroke="none" x="5213.94091796875" y="117" width="128.6962890625" height="24"/></g><g transform="translate(-354.3671875,-10) scale(1,1)"><path fill="none" stroke="#000000" d="M 5213.94091796875 117 L 5342.63720703125 117 L 5342.63720703125 141 L 5213.94091796875 141 L 5213.94091796875 117 Z Z" stroke-miterlimit="10"/></g><g transform="translate(-354.3671875,-10) scale(1,1)"><g><path fill="none" stroke="none"/><text fill="#000000" stroke="none" font-family="Arial" font-size="13px" font-style="italic" font-weight="bold" text-decoration="none" x="5231.325927734375" y="136.5">GenericDaoImpl</text></g></g><g transform="translate(-354.3671875,-10) scale(1,1)"><rect fill="#ffffff" stroke="none" x="5334.6962890625" y="99" width="16.94091796875" height="22"/></g><g transform="translate(-354.3671875,-10) scale(1,1)"><path fill="none" stroke="#000000" d="M 5334.6962890625 99 L 5351.63720703125 99 L 5351.63720703125 121 L 5334.6962890625 121 L 5334.6962890625 99 Z Z" stroke-miterlimit="10" stroke-dasharray="3"/></g><g transform="translate(-354.3671875,-10) scale(1,1)"><g><path fill="none" stroke="none"/><text fill="#000000" stroke="none" font-family="Arial" font-size="13px" font-style="normal" font-weight="normal" text-decoration="none" x="5339.6962890625" y="116.5">T</text></g></g><g transform="translate(-354.3671875,-10) scale(1,1)"><rect fill="#C0C0C0" stroke="none" x="5768.72802734375" y="179" width="136.130859375" height="24" opacity="0.2"/></g><g transform="translate(-354.3671875,-10) scale(1,1)"><rect fill="#ffffff" stroke="none" x="5761.72802734375" y="172" width="136.130859375" height="24"/></g><g transform="translate(-354.3671875,-10) scale(1,1)"><path fill="none" stroke="#000000" d="M 5761.72802734375 172 L 5897.85888671875 172 L 5897.85888671875 196 L 5761.72802734375 196 L 5761.72802734375 172 Z Z" stroke-miterlimit="10"/></g><g transform="translate(-354.3671875,-10) scale(1,1)"><g><path fill="none" stroke="none"/><text fill="#000000" stroke="none" font-family="Arial" font-size="13px" font-style="normal" font-weight="bold" text-decoration="none" x="5770.909423828125" y="191.5">ManEntryRepository</text></g></g><g transform="translate(-354.3671875,-10) scale(1,1)"><rect fill="#C0C0C0" stroke="none" x="5935.85888671875" y="179" width="153.49169921875" height="24" opacity="0.2"/></g><g transform="translate(-354.3671875,-10) scale(1,1)"><rect fill="#ffffff" stroke="none" x="5928.85888671875" y="172" width="153.49169921875" height="24"/></g><g transform="translate(-354.3671875,-10) scale(1,1)"><path fill="none" stroke="#000000" d="M 5928.85888671875 172 L 6082.3505859375 172 L 6082.3505859375 196 L 5928.85888671875 196 L 5928.85888671875 172 Z Z" stroke-miterlimit="10"/></g><g transform="translate(-354.3671875,-10) scale(1,1)"><g><path fill="none" stroke="none"/><text fill="#000000" stroke="none" font-family="Arial" font-size="13px" font-style="normal" font-weight="bold" text-decoration="none" x="5938.046630859375" y="191.5">MessageProRepository</text></g></g><g transform="translate(-354.3671875,-10) scale(1,1)"><rect fill="#C0C0C0" stroke="none" x="6120.3505859375" y="179" width="136.8544921875" height="37" opacity="0.2"/></g><g transform="translate(-354.3671875,-10) scale(1,1)"><rect fill="#ffffff" stroke="none" x="6113.3505859375" y="172" width="136.8544921875" height="37"/></g><g transform="translate(-354.3671875,-10) scale(1,1)"><path fill="none" stroke="#000000" d="M 6113.3505859375 172 L 6250.205078125 172 L 6250.205078125 209 L 6113.3505859375 209 L 6113.3505859375 172 Z Z" stroke-miterlimit="10"/></g><g transform="translate(-354.3671875,-10) scale(1,1)"><g><path fill="none" stroke="none"/><text fill="#000000" stroke="none" font-family="Arial" font-size="13px" font-style="normal" font-weight="normal" text-decoration="none" x="6143.479248046875" y="189.5">«Repository»</text></g></g><g transform="translate(-354.3671875,-10) scale(1,1)"><g><path fill="none" stroke="none"/><text fill="#000000" stroke="none" font-family="Arial" font-size="13px" font-style="normal" font-weight="bold" text-decoration="none" x="6122.887451171875" y="204.5">OccupantRepository</text></g></g><g transform="translate(-354.3671875,-10) scale(1,1)"><rect fill="#C0C0C0" stroke="none" x="6288.205078125" y="179" width="188.1435546875" height="24" opacity="0.2"/></g><g transform="translate(-354.3671875,-10) scale(1,1)"><rect fill="#ffffff" stroke="none" x="6281.205078125" y="172" width="188.1435546875" height="24"/></g><g transform="translate(-354.3671875,-10) scale(1,1)"><path fill="none" stroke="#000000" d="M 6281.205078125 172 L 6469.3486328125 172 L 6469.3486328125 196 L 6281.205078125 196 L 6281.205078125 172 Z Z" stroke-miterlimit="10"/></g><g transform="translate(-354.3671875,-10) scale(1,1)"><g><path fill="none" stroke="none"/><text fill="#000000" stroke="none" font-family="Arial" font-size="13px" font-style="normal" font-weight="bold" text-decoration="none" x="6292.176513671875" y="191.5">OccupantRequestRepository</text></g></g><g transform="translate(-354.3671875,-10) scale(1,1)"><rect fill="#C0C0C0" stroke="none" x="5300.4681396484375" y="39" width="177.7841796875" height="37" opacity="0.2"/></g><g transform="translate(-354.3671875,-10) scale(1,1)"><rect fill="#ffffff" stroke="none" x="5293.4681396484375" y="32" width="177.7841796875" height="37"/></g><g transform="translate(-354.3671875,-10) scale(1,1)"><path fill="none" stroke="#000000" d="M 5293.4681396484375 32 L 5471.2523193359375 32 L 5471.2523193359375 69 L 5293.4681396484375 69 L 5293.4681396484375 32 Z Z" stroke-miterlimit="10"/></g><g transform="translate(-354.3671875,-10) scale(1,1)"><g><path fill="none" stroke="none"/><text fill="#000000" stroke="none" font-family="Arial" font-size="13px" font-style="normal" font-weight="normal" text-decoration="none" x="5344.0616455078125" y="49.5">«Repository»</text></g></g><g transform="translate(-354.3671875,-10) scale(1,1)"><g><path fill="none" stroke="none"/><text fill="#000000" stroke="none" font-family="Arial" font-size="13px" font-style="normal" font-weight="bold" text-decoration="none" x="5304.3189697265625" y="64.5">OccupationTypeRepository</text></g></g><g transform="translate(-354.3671875,-10) scale(1,1)"><rect fill="#C0C0C0" stroke="none" x="6507.3486328125" y="179" width="124.58447265625" height="24" opacity="0.2"/></g><g transform="translate(-354.3671875,-10) scale(1,1)"><rect fill="#ffffff" stroke="none" x="6500.3486328125" y="172" width="124.58447265625" height="24"/></g><g transform="translate(-354.3671875,-10) scale(1,1)"><path fill="none" stroke="#000000" d="M 6500.3486328125 172 L 6624.93310546875 172 L 6624.93310546875 196 L 6500.3486328125 196 L 6500.3486328125 172 Z Z" stroke-miterlimit="10"/></g><g transform="translate(-354.3671875,-10) scale(1,1)"><g><path fill="none" stroke="none"/><text fill="#000000" stroke="none" font-family="Arial" font-size="13px" font-style="normal" font-weight="bold" text-decoration="none" x="6509.536376953125" y="191.5">OccupyRepository</text></g></g><g transform="translate(-354.3671875,-10) scale(1,1)"><rect fill="#C0C0C0" stroke="none" x="6187.643310546875" y="115" width="165.76806640625" height="37" opacity="0.2"/></g><g transform="translate(-354.3671875,-10) scale(1,1)"><rect fill="#ffffff" stroke="none" x="6180.643310546875" y="108" width="165.76806640625" height="37"/></g><g transform="translate(-354.3671875,-10) scale(1,1)"><path fill="none" stroke="#000000" d="M 6180.643310546875 108 L 6346.411376953125 108 L 6346.411376953125 145 L 6180.643310546875 145 L 6180.643310546875 108 Z Z" stroke-miterlimit="10"/></g><g transform="translate(-354.3671875,-10) scale(1,1)"><g><path fill="none" stroke="none"/><text fill="#000000" stroke="none" font-family="Arial" font-size="13px" font-style="normal" font-weight="normal" text-decoration="none" x="6225.228759765625" y="125.5">«Repository»</text></g></g><g transform="translate(-354.3671875,-10) scale(1,1)"><g><path fill="none" stroke="none"/><text fill="#000000" stroke="none" font-family="Arial" font-size="13px" font-style="normal" font-weight="bold" text-decoration="none" x="6190.54833984375" y="140.5">ParameterAppRepository</text></g></g><g transform="translate(-354.3671875,-10) scale(1,1)"><rect fill="#C0C0C0" stroke="none" x="7397.90380859375" y="179" width="180.919921875" height="37" opacity="0.2"/></g><g transform="translate(-354.3671875,-10) scale(1,1)"><rect fill="#ffffff" stroke="none" x="7390.90380859375" y="172" width="180.919921875" height="37"/></g><g transform="translate(-354.3671875,-10) scale(1,1)"><path fill="none" stroke="#000000" d="M 7390.90380859375 172 L 7571.82373046875 172 L 7571.82373046875 209 L 7390.90380859375 209 L 7390.90380859375 172 Z Z" stroke-miterlimit="10"/></g><g transform="translate(-354.3671875,-10) scale(1,1)"><g><path fill="none" stroke="none"/><text fill="#000000" stroke="none" font-family="Arial" font-size="13px" font-style="normal" font-weight="normal" text-decoration="none" x="7463.65380859375" y="189.5">«Job»</text></g></g><g transform="translate(-354.3671875,-10) scale(1,1)"><g><path fill="none" stroke="none"/><text fill="#000000" stroke="none" font-family="Arial" font-size="13px" font-style="normal" font-weight="bold" text-decoration="none" x="7401.87841796875" y="204.5">PeriodSlideConsRepository</text></g></g><g transform="translate(-354.3671875,-10) scale(1,1)"><rect fill="#C0C0C0" stroke="none" x="8034.6572265625" y="179" width="127.49169921875" height="37" opacity="0.2"/></g><g transform="translate(-354.3671875,-10) scale(1,1)"><rect fill="#ffffff" stroke="none" x="8027.6572265625" y="172" width="127.49169921875" height="37"/></g><g transform="translate(-354.3671875,-10) scale(1,1)"><path fill="none" stroke="#000000" d="M 8027.6572265625 172 L 8155.14892578125 172 L 8155.14892578125 209 L 8027.6572265625 209 L 8027.6572265625 172 Z Z" stroke-miterlimit="10"/></g><g transform="translate(-354.3671875,-10) scale(1,1)"><g><path fill="none" stroke="none"/><text fill="#000000" stroke="none" font-family="Arial" font-size="13px" font-style="normal" font-weight="normal" text-decoration="none" x="8053.1044921875" y="189.5">«Repository»</text></g></g><g transform="translate(-354.3671875,-10) scale(1,1)"><g><path fill="none" stroke="none"/><text fill="#000000" stroke="none" font-family="Arial" font-size="13px" font-style="normal" font-weight="bold" text-decoration="none" x="8036.495849609375" y="204.5">PremiseRepository</text></g></g><g transform="translate(-354.3671875,-10) scale(1,1)"><rect fill="#C0C0C0" stroke="none" x="8193.14892578125" y="179" width="175.638671875" height="37" opacity="0.2"/></g><g transform="translate(-354.3671875,-10) scale(1,1)"><rect fill="#ffffff" stroke="none" x="8186.14892578125" y="172" width="175.638671875" height="37"/></g><g transform="translate(-354.3671875,-10) scale(1,1)"><path fill="none" stroke="#000000" d="M 8186.14892578125 172 L 8361.78759765625 172 L 8361.78759765625 209 L 8186.14892578125 209 L 8186.14892578125 172 Z Z" stroke-miterlimit="10"/></g><g transform="translate(-354.3671875,-10) scale(1,1)"><g><path fill="none" stroke="none"/><text fill="#000000" stroke="none" font-family="Arial" font-size="13px" font-style="normal" font-weight="normal" text-decoration="none" x="8235.669677734375" y="189.5">«Repository»</text></g></g><g transform="translate(-354.3671875,-10) scale(1,1)"><g><path fill="none" stroke="none"/><text fill="#000000" stroke="none" font-family="Arial" font-size="13px" font-style="normal" font-weight="bold" text-decoration="none" x="8196.295166015625" y="204.5">PswResetTokenRepository</text></g></g><g transform="translate(-354.3671875,-10) scale(1,1)"><rect fill="#C0C0C0" stroke="none" x="8399.78759765625" y="179" width="146.9599609375" height="37" opacity="0.2"/></g><g transform="translate(-354.3671875,-10) scale(1,1)"><rect fill="#ffffff" stroke="none" x="8392.78759765625" y="172" width="146.9599609375" height="37"/></g><g transform="translate(-354.3671875,-10) scale(1,1)"><path fill="none" stroke="#000000" d="M 8392.78759765625 172 L 8539.74755859375 172 L 8539.74755859375 209 L 8392.78759765625 209 L 8392.78759765625 172 Z Z" stroke-miterlimit="10"/></g><g transform="translate(-354.3671875,-10) scale(1,1)"><g><path fill="none" stroke="none"/><text fill="#000000" stroke="none" font-family="Arial" font-size="13px" font-style="normal" font-weight="normal" text-decoration="none" x="8427.968994140625" y="189.5">«Repository»</text></g></g><g transform="translate(-354.3671875,-10) scale(1,1)"><g><path fill="none" stroke="none"/><text fill="#000000" stroke="none" font-family="Arial" font-size="13px" font-style="normal" font-weight="bold" text-decoration="none" x="8401.95947265625" y="204.5">RequestMpRepository</text></g></g><g transform="translate(-354.3671875,-10) scale(1,1)"><rect fill="#C0C0C0" stroke="none" x="8577.74755859375" y="179" width="128.20263671875" height="24" opacity="0.2"/></g><g transform="translate(-354.3671875,-10) scale(1,1)"><rect fill="#ffffff" stroke="none" x="8570.74755859375" y="172" width="128.20263671875" height="24"/></g><g transform="translate(-354.3671875,-10) scale(1,1)"><path fill="none" stroke="#000000" d="M 8570.74755859375 172 L 8698.9501953125 172 L 8698.9501953125 196 L 8570.74755859375 196 L 8570.74755859375 172 Z Z" stroke-miterlimit="10"/></g><g transform="translate(-354.3671875,-10) scale(1,1)"><g><path fill="none" stroke="none"/><text fill="#000000" stroke="none" font-family="Arial" font-size="13px" font-style="normal" font-weight="bold" text-decoration="none" x="8580.30029296875" y="191.5">SecurityRepository</text></g></g><g transform="translate(-354.3671875,-10) scale(1,1)"><rect fill="#C0C0C0" stroke="none" x="9290.43798828125" y="179" width="156.34814453125" height="24" opacity="0.2"/></g><g transform="translate(-354.3671875,-10) scale(1,1)"><rect fill="#ffffff" stroke="none" x="9283.43798828125" y="172" width="156.34814453125" height="24"/></g><g transform="translate(-354.3671875,-10) scale(1,1)"><path fill="none" stroke="#000000" d="M 9283.43798828125 172 L 9439.7861328125 172 L 9439.7861328125 196 L 9283.43798828125 196 L 9283.43798828125 172 Z Z" stroke-miterlimit="10"/></g><g transform="translate(-354.3671875,-10) scale(1,1)"><g><path fill="none" stroke="none"/><text fill="#000000" stroke="none" font-family="Arial" font-size="13px" font-style="normal" font-weight="bold" text-decoration="none" x="9294.7744140625" y="191.5">SubscriptionRepository</text></g></g><g transform="translate(-354.3671875,-10) scale(1,1)"><path fill="none" stroke="#000000" d="M 429 171 Q 429 157 5213 121" stroke-miterlimit="10"/></g><g transform="translate(-354.3671875,-10) scale(1,1)"><path fill="#FFFFFF" stroke="none" d="M 5192.738577893385 129.57174277597963 L 5213 121 L 5192.611873588447 112.73414847541127"/></g><g transform="translate(-354.3671875,-10) scale(1,1)"><path fill="none" stroke="#000000" d="M 5192.738577893385 129.57174277597963 L 5213 121 L 5192.611873588447 112.73414847541127 L 5192.738577893385 129.57174277597963" stroke-miterlimit="10"/></g><g transform="translate(-354.3671875,-10) scale(1,1)"><path fill="none" stroke="#000000" d="M 428 172 L 428 152 L 522 152 L 522 184 L 493 184" stroke-miterlimit="10"/></g><g transform="translate(-354.3671875,-10) scale(1,1)"><path fill="none" stroke="#000000" d="M 503.16267485762415 179.790482243984 L 493 184 L 503.16267485762415 188.209517756016" stroke-miterlimit="10"/></g><g transform="translate(-354.3671875,-10) scale(1,1)"><g><path fill="none" stroke="none"/><text fill="#000000" stroke="none" font-family="Arial" font-size="13px" font-style="normal" font-weight="normal" text-decoration="none" x="461.5" y="204.5">-addressRepository</text></g></g><g transform="translate(-354.3671875,-10) scale(1,1)"><path fill="none" stroke="#000000" d="M 493 194 L 494 194 L 494 197 L 529 197 L 529 185 L 523 185 L 523 172 L 518 172 L 518 175 L 493 175" stroke-miterlimit="10"/></g><g transform="translate(-354.3671875,-10) scale(1,1)"><path fill="none" stroke="#000000" d="M 503.16267485762415 170.790482243984 L 493 175 L 503.16267485762415 179.209517756016" stroke-miterlimit="10"/></g><g transform="translate(-354.3671875,-10) scale(1,1)"><g><path fill="none" stroke="none"/><text fill="#000000" stroke="none" font-family="Arial" font-size="13px" font-style="normal" font-weight="normal" text-decoration="none" x="461.5" y="195.5">-addressRepository</text></g></g><g transform="translate(-354.3671875,-10) scale(1,1)"><path fill="none" stroke="#000000" d="M 805 171 Q 805 157 5213 121" stroke-miterlimit="10"/></g><g transform="translate(-354.3671875,-10) scale(1,1)"><path fill="#FFFFFF" stroke="none" d="M 5192.744083805339 129.5847457222021 L 5213 121 L 5192.606572384678 112.74723621454005"/></g><g transform="translate(-354.3671875,-10) scale(1,1)"><path fill="none" stroke="#000000" d="M 5192.744083805339 129.5847457222021 L 5213 121 L 5192.606572384678 112.74723621454005 L 5192.744083805339 129.5847457222021" stroke-miterlimit="10"/></g><g transform="translate(-354.3671875,-10) scale(1,1)"><path fill="none" stroke="#000000" d="M 2962 171 Q 2934 157 5213 121" stroke-miterlimit="10"/></g><g transform="translate(-354.3671875,-10) scale(1,1)"><path fill="#FFFFFF" stroke="none" d="M 5192.810159544686 129.7390126667129 L 5213 121 L 5192.544211785465 112.90304202048085"/></g><g transform="translate(-354.3671875,-10) scale(1,1)"><path fill="none" stroke="#000000" d="M 5192.810159544686 129.7390126667129 L 5213 121 L 5192.544211785465 112.90304202048085 L 5192.810159544686 129.7390126667129" stroke-miterlimit="10"/></g><g transform="translate(-354.3671875,-10) scale(1,1)"><path fill="none" stroke="#000000" d="M 3018 171 Q 3032 157 6180 127" stroke-miterlimit="10"/></g><g transform="translate(-354.3671875,-10) scale(1,1)"><path fill="none" stroke="#000000" d="M 6169.877900883379 131.3061710919673 L 6180 127 L 6169.797672294715 122.88751785487428" stroke-miterlimit="10"/></g><g transform="translate(-354.3671875,-10) scale(1,1)"><g><path fill="none" stroke="none"/><text fill="#000000" stroke="none" font-family="Arial" font-size="13px" font-style="normal" font-weight="normal" text-decoration="none" x="6076.5" y="118.5">~parameterAppRepository</text></g></g><g transform="translate(-354.3671875,-10) scale(1,1)"><path fill="none" stroke="#000000" d="M 3872 171 Q 3872 157 5213 122" stroke-miterlimit="10"/></g><g transform="translate(-354.3671875,-10) scale(1,1)"><path fill="#FFFFFF" stroke="none" d="M 5192.901231020452 130.94647894463137 L 5213 122 L 5192.461908231568 114.11414009055082"/></g><g transform="translate(-354.3671875,-10) scale(1,1)"><path fill="none" stroke="#000000" d="M 5192.901231020452 130.94647894463137 L 5213 122 L 5192.461908231568 114.11414009055082 L 5192.901231020452 130.94647894463137" stroke-miterlimit="10"/></g><g transform="translate(-354.3671875,-10) scale(1,1)"><path fill="none" stroke="#000000" d="M 8647 244 Q 5284 212 5284 198.5 Q 5284 185 5284 171 Q 5284 157 5284 142" stroke-miterlimit="10"/></g><g transform="translate(-354.3671875,-10) scale(1,1)"><path fill="#FFFFFF" stroke="none" d="M 5292.419035512032 162.3253497152483 L 5284 142 L 5275.580964487968 162.3253497152483"/></g><g transform="translate(-354.3671875,-10) scale(1,1)"><path fill="none" stroke="#000000" d="M 5292.419035512032 162.3253497152483 L 5284 142 L 5275.580964487968 162.3253497152483 L 5292.419035512032 162.3253497152483" stroke-miterlimit="10"/></g><g transform="translate(-354.3671875,-10) scale(1,1)"><path fill="none" stroke="#000000" d="M 8647 241 Q 8092 212 8092 210" stroke-miterlimit="10"/></g><g transform="translate(-354.3671875,-10) scale(1,1)"><path fill="none" stroke="#000000" d="M 8096.209517756016 220.16267485762415 L 8092 210 L 8087.790482243984 220.16267485762415" stroke-miterlimit="10"/></g><g transform="translate(-354.3671875,-10) scale(1,1)"><g><path fill="none" stroke="none"/><text fill="#000000" stroke="none" font-family="Arial" font-size="13px" font-style="normal" font-weight="normal" text-decoration="none" x="8009.5" y="241.5">~m_PremiseRepository</text></g></g><g transform="translate(-354.3671875,-10) scale(1,1)"><path fill="none" stroke="#000000" d="M 4485 171 Q 4485 157 5213 123" stroke-miterlimit="10"/></g><g transform="translate(-354.3671875,-10) scale(1,1)"><path fill="#FFFFFF" stroke="none" d="M 5193.089549486968 132.3580959798514 L 5213 123 L 5192.304012299409 115.53835855210353"/></g><g transform="translate(-354.3671875,-10) scale(1,1)"><path fill="none" stroke="#000000" d="M 5193.089549486968 132.3580959798514 L 5213 123 L 5192.304012299409 115.53835855210353 L 5193.089549486968 132.3580959798514" stroke-miterlimit="10"/></g><g transform="translate(-354.3671875,-10) scale(1,1)"><path fill="none" stroke="#000000" d="M 4679 171 Q 4680 157 5213 124" stroke-miterlimit="10"/></g><g transform="translate(-354.3671875,-10) scale(1,1)"><path fill="#FFFFFF" stroke="none" d="M 5193.233752688587 133.65895787463796 L 5213 124 L 5192.193237875137 116.8530670998407"/></g><g transform="translate(-354.3671875,-10) scale(1,1)"><path fill="none" stroke="#000000" d="M 5193.233752688587 133.65895787463796 L 5213 124 L 5192.193237875137 116.8530670998407 L 5193.233752688587 133.65895787463796" stroke-miterlimit="10"/></g><g transform="translate(-354.3671875,-10) scale(1,1)"><path fill="none" stroke="#000000" d="M 4866 171 Q 4867 157 5213 126" stroke-miterlimit="10"/></g><g transform="translate(-354.3671875,-10) scale(1,1)"><path fill="#FFFFFF" stroke="none" d="M 5193.507038780032 136.19923834787926 L 5213 126 L 5192.004444337232 119.42834553467802"/></g><g transform="translate(-354.3671875,-10) scale(1,1)"><path fill="none" stroke="#000000" d="M 5193.507038780032 136.19923834787926 L 5213 126 L 5192.004444337232 119.42834553467802 L 5193.507038780032 136.19923834787926" stroke-miterlimit="10"/></g><g transform="translate(-354.3671875,-10) scale(1,1)"><path fill="none" stroke="#000000" d="M 5213 115 Q 4810 84 4809.315789473684 43" stroke-miterlimit="10"/></g><g transform="translate(-354.3671875,-10) scale(1,1)"><path fill="none" stroke="#000000" d="M 5829 171 Q 5830 157 5354 125" stroke-miterlimit="10"/></g><g transform="translate(-354.3671875,-10) scale(1,1)"><path fill="#FFFFFF" stroke="none" d="M 5374.844285990653 117.96325774666506 L 5354 125 L 5373.714864137777 134.7634078081874"/></g><g transform="translate(-354.3671875,-10) scale(1,1)"><path fill="none" stroke="#000000" d="M 5374.844285990653 117.96325774666506 L 5354 125 L 5373.714864137777 134.7634078081874 L 5374.844285990653 117.96325774666506" stroke-miterlimit="10"/></g><g transform="translate(-354.3671875,-10) scale(1,1)"><path fill="none" stroke="#000000" d="M 6005 171 Q 6006 157 5354 124" stroke-miterlimit="10"/></g><g transform="translate(-354.3671875,-10) scale(1,1)"><path fill="#FFFFFF" stroke="none" d="M 5374.724937715701 116.61914932542888 L 5354 124 L 5373.873793561355 133.43569443552641"/></g><g transform="translate(-354.3671875,-10) scale(1,1)"><path fill="none" stroke="#000000" d="M 5374.724937715701 116.61914932542888 L 5354 124 L 5373.873793561355 133.43569443552641 L 5374.724937715701 116.61914932542888" stroke-miterlimit="10"/></g><g transform="translate(-354.3671875,-10) scale(1,1)"><path fill="none" stroke="#000000" d="M 6140 171 Q 6109 157 5354 123" stroke-miterlimit="10"/></g><g transform="translate(-354.3671875,-10) scale(1,1)"><path fill="#FFFFFF" stroke="none" d="M 5374.683522813686 115.50387540019945 L 5354 123 L 5373.926019777522 132.32489870324568"/></g><g transform="translate(-354.3671875,-10) scale(1,1)"><path fill="none" stroke="#000000" d="M 5374.683522813686 115.50387540019945 L 5354 123 L 5373.926019777522 132.32489870324568 L 5374.683522813686 115.50387540019945" stroke-miterlimit="10"/></g><g transform="translate(-354.3671875,-10) scale(1,1)"><path fill="none" stroke="#000000" d="M 6375 171 Q 6376 157 5354 122" stroke-miterlimit="10"/></g><g transform="translate(-354.3671875,-10) scale(1,1)"><path fill="#FFFFFF" stroke="none" d="M 5374.601595326273 114.28156298124524 L 5354 122 L 5374.025286914592 131.109768602346"/></g><g transform="translate(-354.3671875,-10) scale(1,1)"><path fill="none" stroke="#000000" d="M 5374.601595326273 114.28156298124524 L 5354 122 L 5374.025286914592 131.109768602346 L 5374.601595326273 114.28156298124524" stroke-miterlimit="10"/></g><g transform="translate(-354.3671875,-10) scale(1,1)"><path fill="none" stroke="#000000" d="M 6562 171 Q 6563 157 5354 122" stroke-miterlimit="10"/></g><g transform="translate(-354.3671875,-10) scale(1,1)"><path fill="#FFFFFF" stroke="none" d="M 5374.560463150697 114.17265338515996 L 5354 122 L 5374.073212788245 131.00367304814273"/></g><g transform="translate(-354.3671875,-10) scale(1,1)"><path fill="none" stroke="#000000" d="M 5374.560463150697 114.17265338515996 L 5354 122 L 5374.073212788245 131.00367304814273 L 5374.560463150697 114.17265338515996" stroke-miterlimit="10"/></g><g transform="translate(-354.3671875,-10) scale(1,1)"><path fill="none" stroke="#000000" d="M 7482 171 Q 7482 157 5354 121" stroke-miterlimit="10"/></g><g transform="translate(-354.3671875,-10) scale(1,1)"><path fill="#FFFFFF" stroke="none" d="M 5374.46484875049 112.92596967930037 L 5354 121 L 5374.180034918701 129.76163173615586"/></g><g transform="translate(-354.3671875,-10) scale(1,1)"><path fill="none" stroke="#000000" d="M 5374.46484875049 112.92596967930037 L 5354 121 L 5374.180034918701 129.76163173615586 L 5374.46484875049 112.92596967930037" stroke-miterlimit="10"/></g><g transform="translate(-354.3671875,-10) scale(1,1)"><path fill="none" stroke="#000000" d="M 8038 171 Q 7999 157 5354 121" stroke-miterlimit="10"/></g><g transform="translate(-354.3671875,-10) scale(1,1)"><path fill="#FFFFFF" stroke="none" d="M 5374.438044755896 112.85835848517044 L 5354 121 L 5374.208889966214 129.69487011596226"/></g><g transform="translate(-354.3671875,-10) scale(1,1)"><path fill="none" stroke="#000000" d="M 5374.438044755896 112.85835848517044 L 5354 121 L 5374.208889966214 129.69487011596226 L 5374.438044755896 112.85835848517044" stroke-miterlimit="10"/></g><g transform="translate(-354.3671875,-10) scale(1,1)"><path fill="none" stroke="#000000" d="M 8230 171 Q 8198 157 5354 121" stroke-miterlimit="10"/></g><g transform="translate(-354.3671875,-10) scale(1,1)"><path fill="#FFFFFF" stroke="none" d="M 5374.430283070973 112.83890119898562 L 5354 121 L 5374.217160005176 129.675623396915"/></g><g transform="translate(-354.3671875,-10) scale(1,1)"><path fill="none" stroke="#000000" d="M 5374.430283070973 112.83890119898562 L 5354 121 L 5374.217160005176 129.675623396915 L 5374.430283070973 112.83890119898562" stroke-miterlimit="10"/></g><g transform="translate(-354.3671875,-10) scale(1,1)"><path fill="none" stroke="#000000" d="M 8467 171 Q 8467 157 5354 121" stroke-miterlimit="10"/></g><g transform="translate(-354.3671875,-10) scale(1,1)"><path fill="#FFFFFF" stroke="none" d="M 5374.421345387248 112.81656230092115 L 5354 121 L 5374.226636094712 129.6535075138397"/></g><g transform="translate(-354.3671875,-10) scale(1,1)"><path fill="none" stroke="#000000" d="M 5374.421345387248 112.81656230092115 L 5354 121 L 5374.226636094712 129.6535075138397 L 5374.421345387248 112.81656230092115" stroke-miterlimit="10"/></g><g transform="translate(-354.3671875,-10) scale(1,1)"><path fill="none" stroke="#000000" d="M 8634 171 Q 8635 157 5354 121" stroke-miterlimit="10"/></g><g transform="translate(-354.3671875,-10) scale(1,1)"><path fill="#FFFFFF" stroke="none" d="M 5374.416496660125 112.80447291950665 L 5354 121 L 5374.231756010462 129.64153046243214"/></g><g transform="translate(-354.3671875,-10) scale(1,1)"><path fill="none" stroke="#000000" d="M 5374.416496660125 112.80447291950665 L 5354 121 L 5374.231756010462 129.64153046243214 L 5374.416496660125 112.80447291950665" stroke-miterlimit="10"/></g><g transform="translate(-354.3671875,-10) scale(1,1)"><path fill="none" stroke="#000000" d="M 9361 171 Q 9362 157 5354 121" stroke-miterlimit="10"/></g><g transform="translate(-354.3671875,-10) scale(1,1)"><path fill="#FFFFFF" stroke="none" d="M 5374.400146900281 112.76385973607992 L 5354 121 L 5374.248912841812 129.6012515789688"/></g><g transform="translate(-354.3671875,-10) scale(1,1)"><path fill="none" stroke="#000000" d="M 5374.400146900281 112.76385973607992 L 5354 121 L 5374.248912841812 129.6012515789688 L 5374.400146900281 112.76385973607992" stroke-miterlimit="10"/></g><g transform="translate(-354.3671875,-10) scale(1,1)"><path fill="none" stroke="#000000" d="M 6229 171 Q 6264 157 6264 146" stroke-miterlimit="10"/></g><g transform="translate(-354.3671875,-10) scale(1,1)"><path fill="none" stroke="#000000" d="M 6268.209517756016 156.16267485762415 L 6264 146 L 6259.790482243984 156.16267485762415" stroke-miterlimit="10"/></g><g transform="translate(-354.3671875,-10) scale(1,1)"><g><path fill="none" stroke="none"/><text fill="#000000" stroke="none" font-family="Arial" font-size="13px" font-style="normal" font-weight="normal" text-decoration="none" x="6172.5" y="177.5">~parameterAppRepository</text></g></g><g transform="translate(-354.3671875,-10) scale(1,1)"><path fill="none" stroke="#000000" d="M 8321 171 Q 8356 157 6347 127" stroke-miterlimit="10"/></g><g transform="translate(-354.3671875,-10) scale(1,1)"><path fill="none" stroke="#000000" d="M 6357.224394856289 122.94269180087532 L 6347 127 L 6357.098689077376 131.3607887954462" stroke-miterlimit="10"/></g><g transform="translate(-354.3671875,-10) scale(1,1)"><g><path fill="none" stroke="none"/><text fill="#000000" stroke="none" font-family="Arial" font-size="13px" font-style="normal" font-weight="normal" text-decoration="none" x="6295.5" y="148.5">~parameterAppRepository</text></g></g><g transform="translate(-354.3671875,-10) scale(1,1)"><rect fill="#C0C0C0" stroke="none" x="655" y="367" width="163.5654296875" height="57" opacity="0.2"/></g><g transform="translate(-354.3671875,-10) scale(1,1)"><rect fill="#ffffff" stroke="none" x="648" y="360" width="163.5654296875" height="57"/></g><g transform="translate(-354.3671875,-10) scale(1,1)"><path fill="none" stroke="#000000" d="M 648 360 L 811.5654296875 360 L 811.5654296875 417 L 648 417 L 648 360 Z Z" stroke-miterlimit="10"/></g><g transform="translate(-354.3671875,-10) scale(1,1)"><path fill="none" stroke="#000000" d="M 648 398 L 811.5654296875 398" stroke-miterlimit="10"/></g><g transform="translate(-354.3671875,-10) scale(1,1)"><path fill="none" stroke="#000000" d="M 648 408 L 811.5654296875 408" stroke-miterlimit="10"/></g><g transform="translate(-354.3671875,-10) scale(1,1)"><g><path fill="none" stroke="none"/><text fill="#000000" stroke="none" font-family="Arial" font-size="13px" font-style="normal" font-weight="normal" text-decoration="none" x="691.484130859375" y="377.5">«Repository»</text></g></g><g transform="translate(-354.3671875,-10) scale(1,1)"><g><path fill="none" stroke="none"/><text fill="#000000" stroke="none" font-family="Arial" font-size="13px" font-style="normal" font-weight="bold" text-decoration="none" x="658.609619140625" y="392.5">MeteringPointRepository</text></g></g></g></svg>