<svg version="1.1" xmlns="http://www.w3.org/2000/svg" xmlns:xlink="http://www.w3.org/1999/xlink" width="377.76806640625" height="213"><defs/><g><g transform="translate(-566,-198) scale(1,1)"><rect fill="#C0C0C0" stroke="none" x="583" y="215" width="118.83984375" height="37" opacity="0.2"/></g><g transform="translate(-566,-198) scale(1,1)"><rect fill="#ffffff" stroke="none" x="576" y="208" width="118.83984375" height="37"/></g><g transform="translate(-566,-198) scale(1,1)"><path fill="none" stroke="#000000" d="M 576 208 L 694.83984375 208 L 694.83984375 245 L 576 245 L 576 208 Z Z" stroke-miterlimit="10"/></g><g transform="translate(-566,-198) scale(1,1)"><g><path fill="none" stroke="none"/><text fill="#000000" stroke="none" font-family="Arial" font-size="13px" font-style="normal" font-weight="normal" text-decoration="none" x="600.0126953125" y="225.5">«Controller»</text></g></g><g transform="translate(-566,-198) scale(1,1)"><g><path fill="none" stroke="none"/><text fill="#000000" stroke="none" font-family="Arial" font-size="13px" font-style="normal" font-weight="bold" text-decoration="none" x="582.686767578125" y="240.5">UserRESTService</text></g></g><g transform="translate(-566,-198) scale(1,1)"><rect fill="#C0C0C0" stroke="none" x="791" y="215" width="128.919921875" height="37" opacity="0.2"/></g><g transform="translate(-566,-198) scale(1,1)"><rect fill="#ffffff" stroke="none" x="784" y="208" width="128.919921875" height="37"/></g><g transform="translate(-566,-198) scale(1,1)"><path fill="none" stroke="#000000" d="M 784 208 L 912.919921875 208 L 912.919921875 245 L 784 245 L 784 208 Z Z" stroke-miterlimit="10"/></g><g transform="translate(-566,-198) scale(1,1)"><g><path fill="none" stroke="none"/><text fill="#000000" stroke="none" font-family="Arial" font-size="13px" font-style="normal" font-weight="normal" text-decoration="none" x="819.55908203125" y="225.5">«Factory»</text></g></g><g transform="translate(-566,-198) scale(1,1)"><g><path fill="none" stroke="none"/><text fill="#000000" stroke="none" font-family="Arial" font-size="13px" font-style="normal" font-weight="bold" text-decoration="none" x="792.46728515625" y="240.5">DpsHandlerFactory</text></g></g><g transform="translate(-566,-198) scale(1,1)"><rect fill="#C0C0C0" stroke="none" x="583" y="351" width="112.29541015625" height="37" opacity="0.2"/></g><g transform="translate(-566,-198) scale(1,1)"><rect fill="#ffffff" stroke="none" x="576" y="344" width="112.29541015625" height="37"/></g><g transform="translate(-566,-198) scale(1,1)"><path fill="none" stroke="#000000" d="M 576 344 L 688.29541015625 344 L 688.29541015625 381 L 576 381 L 576 344 Z Z" stroke-miterlimit="10"/></g><g transform="translate(-566,-198) scale(1,1)"><g><path fill="none" stroke="none"/><text fill="#000000" stroke="none" font-family="Arial" font-size="13px" font-style="normal" font-weight="normal" text-decoration="none" x="602.155029296875" y="361.5">«Handler»</text></g></g><g transform="translate(-566,-198) scale(1,1)"><g><path fill="none" stroke="none"/><text fill="#000000" stroke="none" font-family="Arial" font-size="13px" font-style="normal" font-weight="bold" text-decoration="none" x="583.619873046875" y="376.5">GrdfTrueHandler</text></g></g><g transform="translate(-566,-198) scale(1,1)"><rect fill="#C0C0C0" stroke="none" x="775" y="351" width="165.76806640625" height="37" opacity="0.2"/></g><g transform="translate(-566,-198) scale(1,1)"><rect fill="#ffffff" stroke="none" x="768" y="344" width="165.76806640625" height="37"/></g><g transform="translate(-566,-198) scale(1,1)"><path fill="none" stroke="#000000" d="M 768 344 L 933.76806640625 344 L 933.76806640625 381 L 768 381 L 768 344 Z Z" stroke-miterlimit="10"/></g><g transform="translate(-566,-198) scale(1,1)"><g><path fill="none" stroke="none"/><text fill="#000000" stroke="none" font-family="Arial" font-size="13px" font-style="normal" font-weight="normal" text-decoration="none" x="812.58544921875" y="361.5">«Repository»</text></g></g><g transform="translate(-566,-198) scale(1,1)"><g><path fill="none" stroke="none"/><text fill="#000000" stroke="none" font-family="Arial" font-size="13px" font-style="normal" font-weight="bold" text-decoration="none" x="777.905029296875" y="376.5">ParameterAppRepository</text></g></g><g transform="translate(-566,-198) scale(1,1)"><path fill="none" stroke="#000000" d="M 850 343 L 848 246" stroke-miterlimit="10"/></g><g transform="translate(-566,-198) scale(1,1)"><path fill="#000000" stroke="none" d="M 852.4181184175603 256.07373960594646 L 848 246 L 844.0008719058699 256.2472910804143 L 848.4535118580787 267.9953251168193"/></g><g transform="translate(-566,-198) scale(1,1)"><path fill="none" stroke="#000000" d="M 852.4181184175603 256.07373960594646 L 848 246 L 844.0008719058699 256.2472910804143 L 848.4535118580787 267.9953251168193 L 852.4181184175603 256.07373960594646" stroke-miterlimit="10"/></g><g transform="translate(-566,-198) scale(1,1)"><path fill="none" stroke="#000000" d="M 767 362 L 689 362" stroke-miterlimit="10"/></g><g transform="translate(-566,-198) scale(1,1)"><path fill="#000000" stroke="none" d="M 699.1626748576241 357.790482243984 L 689 362 L 699.1626748576241 366.209517756016 L 711 362"/></g><g transform="translate(-566,-198) scale(1,1)"><path fill="none" stroke="#000000" d="M 699.1626748576241 357.790482243984 L 689 362 L 699.1626748576241 366.209517756016 L 711 362 L 699.1626748576241 357.790482243984" stroke-miterlimit="10"/></g><g transform="translate(-566,-198) scale(1,1)"><path fill="none" stroke="#000000" d="M 696 226 L 783 226" stroke-miterlimit="10"/></g><g transform="translate(-566,-198) scale(1,1)"><path fill="none" stroke="#000000" d="M 772.8373251423759 230.209517756016 L 783 226 L 772.8373251423758 221.790482243984" stroke-miterlimit="10"/></g><g transform="translate(-566,-198) scale(1,1)"><path fill="none" stroke="#000000" d="M 635 246 L 632 343" stroke-miterlimit="10" stroke-dasharray="3"/></g><g transform="translate(-566,-198) scale(1,1)"><path fill="none" stroke="#000000" d="M 628.106653383927 332.71205306549876 L 632 343 L 636.5216652481382 332.9723111643919" stroke-miterlimit="10"/></g><g transform="translate(-566,-198) scale(1,1)"><path fill="none" stroke="#000000" d="M 632 382 L 632 400 L 848 400 L 849 382" stroke-miterlimit="10" stroke-dasharray="3"/></g><g transform="translate(-566,-198) scale(1,1)"><path fill="none" stroke="#000000" d="M 852.6393128117264 392.3805299603827 L 849 382 L 844.233239640734 391.9135258953276" stroke-miterlimit="10"/></g></g></svg>