<svg version="1.1" xmlns="http://www.w3.org/2000/svg" xmlns:xlink="http://www.w3.org/1999/xlink" width="556.55078125" height="65"><defs/><g><g transform="translate(-934,-470) scale(1,1)"><rect fill="#C0C0C0" stroke="none" x="951" y="495" width="154.91357421875" height="37" opacity="0.2"/></g><g transform="translate(-934,-470) scale(1,1)"><rect fill="#ffffff" stroke="none" x="944" y="488" width="154.91357421875" height="37"/></g><g transform="translate(-934,-470) scale(1,1)"><path fill="none" stroke="#000000" d="M 944 488 L 1098.91357421875 488 L 1098.91357421875 525 L 944 525 L 944 488 Z Z" stroke-miterlimit="10"/></g><g transform="translate(-934,-470) scale(1,1)"><g><path fill="none" stroke="none"/><text fill="#000000" stroke="none" font-family="Arial" font-size="13px" font-style="normal" font-weight="normal" text-decoration="none" x="1003.746826171875" y="505.5">«Job»</text></g></g><g transform="translate(-934,-470) scale(1,1)"><g><path fill="none" stroke="none"/><text fill="#000000" stroke="none" font-family="Arial" font-size="13px" font-style="normal" font-weight="bold" text-decoration="none" x="953.162353515625" y="520.5">DataConnectEnedisJob</text></g></g><g transform="translate(-934,-470) scale(1,1)"><rect fill="#C0C0C0" stroke="none" x="1143" y="487" width="127.47900390625" height="37" opacity="0.2"/></g><g transform="translate(-934,-470) scale(1,1)"><rect fill="#ffffff" stroke="none" x="1136" y="480" width="127.47900390625" height="37"/></g><g transform="translate(-934,-470) scale(1,1)"><path fill="none" stroke="#000000" d="M 1136 480 L 1263.47900390625 480 L 1263.47900390625 517 L 1136 517 L 1136 480 Z Z" stroke-miterlimit="10"/></g><g transform="translate(-934,-470) scale(1,1)"><g><path fill="none" stroke="none"/><text fill="#000000" stroke="none" font-family="Arial" font-size="13px" font-style="normal" font-weight="normal" text-decoration="none" x="1169.746826171875" y="497.5">«Handler»</text></g></g><g transform="translate(-934,-470) scale(1,1)"><g><path fill="none" stroke="none"/><text fill="#000000" stroke="none" font-family="Arial" font-size="13px" font-style="normal" font-weight="bold" text-decoration="none" x="1143.978515625" y="512.5">EnedisTrueHandler</text></g></g><g transform="translate(-934,-470) scale(1,1)"><rect fill="#C0C0C0" stroke="none" x="1303" y="487" width="184.55078125" height="37" opacity="0.2"/></g><g transform="translate(-934,-470) scale(1,1)"><rect fill="#ffffff" stroke="none" x="1296" y="480" width="184.55078125" height="37"/></g><g transform="translate(-934,-470) scale(1,1)"><path fill="none" stroke="#000000" d="M 1296 480 L 1480.55078125 480 L 1480.55078125 517 L 1296 517 L 1296 480 Z Z" stroke-miterlimit="10"/></g><g transform="translate(-934,-470) scale(1,1)"><g><path fill="none" stroke="none"/><text fill="#000000" stroke="none" font-family="Arial" font-size="13px" font-style="normal" font-weight="normal" text-decoration="none" x="1359.371337890625" y="497.5">«Service»</text></g></g><g transform="translate(-934,-470) scale(1,1)"><g><path fill="none" stroke="none"/><text fill="#000000" stroke="none" font-family="Arial" font-size="13px" font-style="normal" font-weight="bold" text-decoration="none" x="1306.622314453125" y="512.5">MeteringPointEnedisService</text></g></g><g transform="translate(-934,-470) scale(1,1)"><path fill="none" stroke="#000000" d="M 1100 502 L 1135 501" stroke-miterlimit="10" stroke-dasharray="3"/></g><g transform="translate(-934,-470) scale(1,1)"><path fill="none" stroke="#000000" d="M 1124.9616935103809 505.4980443328709 L 1135 501 L 1124.7212477597106 497.0824430594122" stroke-miterlimit="10"/></g><g transform="translate(-934,-470) scale(1,1)"><path fill="none" stroke="#000000" d="M 1295 498 L 1264 498" stroke-miterlimit="10" stroke-dasharray="3"/></g><g transform="translate(-934,-470) scale(1,1)"><path fill="none" stroke="#000000" d="M 1274.162674857624 493.790482243984 L 1264 498 L 1274.162674857624 502.209517756016" stroke-miterlimit="10"/></g></g></svg>