<svg version="1.1" xmlns="http://www.w3.org/2000/svg" xmlns:xlink="http://www.w3.org/1999/xlink" width="477.578125" height="353"><defs/><g><g transform="translate(-166,-142) scale(1,1)"><rect fill="#C0C0C0" stroke="none" x="359" y="159" width="117.32275390625" height="37" opacity="0.2"/></g><g transform="translate(-166,-142) scale(1,1)"><rect fill="#ffffff" stroke="none" x="352" y="152" width="117.32275390625" height="37"/></g><g transform="translate(-166,-142) scale(1,1)"><path fill="none" stroke="#000000" d="M 352 152 L 469.32275390625 152 L 469.32275390625 189 L 352 189 L 352 152 Z Z" stroke-miterlimit="10"/></g><g transform="translate(-166,-142) scale(1,1)"><g><path fill="none" stroke="none"/><text fill="#000000" stroke="none" font-family="Arial" font-size="13px" font-style="normal" font-weight="normal" text-decoration="none" x="365.1328125" y="169.5">«Consumption»</text></g></g><g transform="translate(-166,-142) scale(1,1)"><g><path fill="none" stroke="none"/><text fill="#000000" stroke="none" font-family="Arial" font-size="13px" font-style="normal" font-weight="bold" text-decoration="none" x="360.8037109375" y="184.5">DsoConsumption</text></g></g><g transform="translate(-166,-142) scale(1,1)"><rect fill="#C0C0C0" stroke="none" x="231" y="263" width="163.5654296875" height="37" opacity="0.2"/></g><g transform="translate(-166,-142) scale(1,1)"><rect fill="#ffffff" stroke="none" x="224" y="256" width="163.5654296875" height="37"/></g><g transform="translate(-166,-142) scale(1,1)"><path fill="none" stroke="#000000" d="M 224 256 L 387.5654296875 256 L 387.5654296875 293 L 224 293 L 224 256 Z Z" stroke-miterlimit="10"/></g><g transform="translate(-166,-142) scale(1,1)"><g><path fill="none" stroke="none"/><text fill="#000000" stroke="none" font-family="Arial" font-size="13px" font-style="normal" font-weight="normal" text-decoration="none" x="237.1328125" y="273.5">«Consumption Interval»</text></g></g><g transform="translate(-166,-142) scale(1,1)"><g><path fill="none" stroke="none"/><text fill="#000000" stroke="none" font-family="Arial" font-size="13px" font-style="normal" font-weight="bold" text-decoration="none" x="234.609619140625" y="288.5">DsoConsumptionInterval</text></g></g><g transform="translate(-166,-142) scale(1,1)"><path fill="none" stroke="#000000" d="M 304 256 L 304 169 L 352 169" stroke-miterlimit="10"/></g><g transform="translate(-166,-142) scale(1,1)"><path fill="none" stroke="#000000" d="M 341.83732514237585 173.209517756016 L 352 169 L 341.83732514237585 164.790482243984" stroke-miterlimit="10"/></g><g transform="translate(-166,-142) scale(1,1)"><g><path fill="none" stroke="none"/><text fill="#000000" stroke="none" font-family="Arial" font-size="13px" font-style="normal" font-weight="normal" text-decoration="none" x="242.5" y="222.5">#consumptions</text></g></g><g transform="translate(-166,-142) scale(1,1)"><g><path fill="none" stroke="none"/><text fill="#000000" stroke="none" font-family="Arial" font-size="13px" font-style="normal" font-weight="normal" text-decoration="none" x="327.5" y="187.5">*</text></g></g><g transform="translate(-166,-142) scale(1,1)"><rect fill="#C0C0C0" stroke="none" x="527" y="183" width="95.68994140625" height="37" opacity="0.2"/></g><g transform="translate(-166,-142) scale(1,1)"><rect fill="#ffffff" stroke="none" x="520" y="176" width="95.68994140625" height="37"/></g><g transform="translate(-166,-142) scale(1,1)"><path fill="none" stroke="#000000" d="M 520 176 L 615.68994140625 176 L 615.68994140625 213 L 520 213 L 520 176 Z Z" stroke-miterlimit="10"/></g><g transform="translate(-166,-142) scale(1,1)"><g><path fill="none" stroke="none"/><text fill="#000000" stroke="none" font-family="Arial" font-size="13px" font-style="normal" font-weight="normal" text-decoration="none" x="531.345947265625" y="193.5">«Response»</text></g></g><g transform="translate(-166,-142) scale(1,1)"><g><path fill="none" stroke="none"/><text fill="#000000" stroke="none" font-family="Arial" font-size="13px" font-style="normal" font-weight="bold" text-decoration="none" x="527.016845703125" y="208.5">DpsResponse</text></g></g><g transform="translate(-166,-142) scale(1,1)"><rect fill="#C0C0C0" stroke="none" x="503" y="263" width="134.6962890625" height="37" opacity="0.2"/></g><g transform="translate(-166,-142) scale(1,1)"><rect fill="#ffffff" stroke="none" x="496" y="256" width="134.6962890625" height="37"/></g><g transform="translate(-166,-142) scale(1,1)"><path fill="none" stroke="#000000" d="M 496 256 L 630.6962890625 256 L 630.6962890625 293 L 496 293 L 496 256 Z Z" stroke-miterlimit="10"/></g><g transform="translate(-166,-142) scale(1,1)"><g><path fill="none" stroke="none"/><text fill="#000000" stroke="none" font-family="Arial" font-size="13px" font-style="normal" font-weight="normal" text-decoration="none" x="533.35546875" y="273.5">«Handler»</text></g></g><g transform="translate(-166,-142) scale(1,1)"><g><path fill="none" stroke="none"/><text fill="#000000" stroke="none" font-family="Arial" font-size="13px" font-style="italic" font-weight="bold" text-decoration="none" x="505.1845703125" y="288.5">AbstractDpsHandler</text></g></g><g transform="translate(-166,-142) scale(1,1)"><rect fill="#C0C0C0" stroke="none" x="503" y="351" width="137.578125" height="37" opacity="0.2"/></g><g transform="translate(-166,-142) scale(1,1)"><rect fill="#ffffff" stroke="none" x="496" y="344" width="137.578125" height="37"/></g><g transform="translate(-166,-142) scale(1,1)"><path fill="none" stroke="#000000" d="M 496 344 L 633.578125 344 L 633.578125 381 L 496 381 L 496 344 Z Z" stroke-miterlimit="10"/></g><g transform="translate(-166,-142) scale(1,1)"><g><path fill="none" stroke="none"/><text fill="#000000" stroke="none" font-family="Arial" font-size="13px" font-style="normal" font-weight="normal" text-decoration="none" x="534.79638671875" y="361.5">«Handler»</text></g></g><g transform="translate(-166,-142) scale(1,1)"><g><path fill="none" stroke="none"/><text fill="#000000" stroke="none" font-family="Arial" font-size="13px" font-style="italic" font-weight="bold" text-decoration="none" x="505.543212890625" y="376.5">AbstractGrdfHandler</text></g></g><g transform="translate(-166,-142) scale(1,1)"><path fill="none" stroke="#000000" d="M 563 344 L 563 293" stroke-miterlimit="10"/></g><g transform="translate(-166,-142) scale(1,1)"><path fill="#FFFFFF" stroke="none" d="M 571.419035512032 313.3253497152483 L 563 293 L 554.580964487968 313.3253497152483"/></g><g transform="translate(-166,-142) scale(1,1)"><path fill="none" stroke="#000000" d="M 571.419035512032 313.3253497152483 L 563 293 L 554.580964487968 313.3253497152483 L 571.419035512032 313.3253497152483" stroke-miterlimit="10"/></g><g transform="translate(-166,-142) scale(1,1)"><rect fill="#C0C0C0" stroke="none" x="519" y="455" width="112.29541015625" height="37" opacity="0.2"/></g><g transform="translate(-166,-142) scale(1,1)"><rect fill="#ffffff" stroke="none" x="512" y="448" width="112.29541015625" height="37"/></g><g transform="translate(-166,-142) scale(1,1)"><path fill="none" stroke="#000000" d="M 512 448 L 624.29541015625 448 L 624.29541015625 485 L 512 485 L 512 448 Z Z" stroke-miterlimit="10"/></g><g transform="translate(-166,-142) scale(1,1)"><g><path fill="none" stroke="none"/><text fill="#000000" stroke="none" font-family="Arial" font-size="13px" font-style="normal" font-weight="normal" text-decoration="none" x="538.155029296875" y="465.5">«Handler»</text></g></g><g transform="translate(-166,-142) scale(1,1)"><g><path fill="none" stroke="none"/><text fill="#000000" stroke="none" font-family="Arial" font-size="13px" font-style="normal" font-weight="bold" text-decoration="none" x="519.619873046875" y="480.5">GrdfTrueHandler</text></g></g><g transform="translate(-166,-142) scale(1,1)"><path fill="none" stroke="#000000" d="M 565 448 L 565 381" stroke-miterlimit="10"/></g><g transform="translate(-166,-142) scale(1,1)"><path fill="#FFFFFF" stroke="none" d="M 573.419035512032 401.3253497152483 L 565 381 L 556.580964487968 401.3253497152483"/></g><g transform="translate(-166,-142) scale(1,1)"><path fill="none" stroke="#000000" d="M 573.419035512032 401.3253497152483 L 565 381 L 556.580964487968 401.3253497152483 L 573.419035512032 401.3253497152483" stroke-miterlimit="10"/></g><g transform="translate(-166,-142) scale(1,1)"><rect fill="#C0C0C0" stroke="none" x="207" y="359" width="218.45361328125" height="37" opacity="0.2"/></g><g transform="translate(-166,-142) scale(1,1)"><rect fill="#ffffff" stroke="none" x="200" y="352" width="218.45361328125" height="37"/></g><g transform="translate(-166,-142) scale(1,1)"><path fill="none" stroke="#000000" d="M 200 352 L 418.45361328125 352 L 418.45361328125 389 L 200 389 L 200 352 Z Z" stroke-miterlimit="10"/></g><g transform="translate(-166,-142) scale(1,1)"><g><path fill="none" stroke="none"/><text fill="#000000" stroke="none" font-family="Arial" font-size="13px" font-style="normal" font-weight="normal" text-decoration="none" x="263.6982421875" y="369.5">«Consumption»</text></g></g><g transform="translate(-166,-142) scale(1,1)"><g><path fill="none" stroke="none"/><text fill="#000000" stroke="none" font-family="Arial" font-size="13px" font-style="normal" font-weight="bold" text-decoration="none" x="212.406005859375" y="384.5">GrdfInformativeConsumptionData</text></g></g><g transform="translate(-166,-142) scale(1,1)"><path fill="none" stroke="#000000" d="M 418 370 L 424 370 L 424 226 L 415 226 L 415 189" stroke-miterlimit="10"/></g><g transform="translate(-166,-142) scale(1,1)"><path fill="#FFFFFF" stroke="none" d="M 423.419035512032 209.3253497152483 L 415 189 L 406.580964487968 209.3253497152483"/></g><g transform="translate(-166,-142) scale(1,1)"><path fill="none" stroke="#000000" d="M 423.419035512032 209.3253497152483 L 415 189 L 406.580964487968 209.3253497152483 L 423.419035512032 209.3253497152483" stroke-miterlimit="10"/></g><g transform="translate(-166,-142) scale(1,1)"><rect fill="#C0C0C0" stroke="none" x="231" y="431" width="166.447265625" height="37" opacity="0.2"/></g><g transform="translate(-166,-142) scale(1,1)"><rect fill="#ffffff" stroke="none" x="224" y="424" width="166.447265625" height="37"/></g><g transform="translate(-166,-142) scale(1,1)"><path fill="none" stroke="#000000" d="M 224 424 L 390.447265625 424 L 390.447265625 461 L 224 461 L 224 424 Z Z" stroke-miterlimit="10"/></g><g transform="translate(-166,-142) scale(1,1)"><g><path fill="none" stroke="none"/><text fill="#000000" stroke="none" font-family="Arial" font-size="13px" font-style="normal" font-weight="normal" text-decoration="none" x="238.57373046875" y="441.5">«Consumption Interval»</text></g></g><g transform="translate(-166,-142) scale(1,1)"><g><path fill="none" stroke="none"/><text fill="#000000" stroke="none" font-family="Arial" font-size="13px" font-style="normal" font-weight="bold" text-decoration="none" x="234.96826171875" y="456.5">GrdfConsumptionInterval</text></g></g><g transform="translate(-166,-142) scale(1,1)"><path fill="none" stroke="#000000" d="M 224 442 L 176 442 L 176 344 L 268 344 L 268 293" stroke-miterlimit="10"/></g><g transform="translate(-166,-142) scale(1,1)"><path fill="#FFFFFF" stroke="none" d="M 276.419035512032 313.3253497152483 L 268 293 L 259.580964487968 313.3253497152483"/></g><g transform="translate(-166,-142) scale(1,1)"><path fill="none" stroke="#000000" d="M 276.419035512032 313.3253497152483 L 268 293 L 259.580964487968 313.3253497152483 L 276.419035512032 313.3253497152483" stroke-miterlimit="10"/></g><g transform="translate(-166,-142) scale(1,1)"><path fill="none" stroke="#000000" d="M 566 256 L 566 213" stroke-miterlimit="10" stroke-dasharray="3"/></g><g transform="translate(-166,-142) scale(1,1)"><path fill="none" stroke="#000000" d="M 570.209517756016 223.16267485762415 L 566 213 L 561.790482243984 223.16267485762415" stroke-miterlimit="10"/></g><g transform="translate(-166,-142) scale(1,1)"><path fill="none" stroke="#000000" d="M 496 256 L 496 160 L 469 160" stroke-miterlimit="10" stroke-dasharray="3"/></g><g transform="translate(-166,-142) scale(1,1)"><path fill="none" stroke="#000000" d="M 479.16267485762415 155.790482243984 L 469 160 L 479.16267485762415 164.209517756016" stroke-miterlimit="10"/></g><g transform="translate(-166,-142) scale(1,1)"><path fill="none" stroke="#000000" d="M 496 274 L 388 274" stroke-miterlimit="10" stroke-dasharray="3"/></g><g transform="translate(-166,-142) scale(1,1)"><path fill="none" stroke="#000000" d="M 398.16267485762415 269.790482243984 L 388 274 L 398.16267485762415 278.209517756016" stroke-miterlimit="10"/></g><g transform="translate(-166,-142) scale(1,1)"><path fill="none" stroke="#f40202" d="M 418 362 L 456 362 L 456 216 L 430 216 L 430 189" stroke-miterlimit="10" stroke-dasharray="3"/></g><g transform="translate(-166,-142) scale(1,1)"><path fill="none" stroke="#f40202" d="M 434.209517756016 199.16267485762415 L 430 189 L 425.790482243984 199.16267485762415" stroke-miterlimit="10"/></g><g transform="translate(-166,-142) scale(1,1)"><path fill="none" stroke="#000000" d="M 528 381 L 528 416 L 375 416 L 375 389" stroke-miterlimit="10" stroke-dasharray="3"/></g><g transform="translate(-166,-142) scale(1,1)"><path fill="none" stroke="#000000" d="M 379.209517756016 399.16267485762415 L 375 389 L 370.790482243984 399.16267485762415" stroke-miterlimit="10"/></g><g transform="translate(-166,-142) scale(1,1)"><path fill="none" stroke="#000000" d="M 308 389 L 308 424" stroke-miterlimit="10" stroke-dasharray="3"/></g><g transform="translate(-166,-142) scale(1,1)"><path fill="none" stroke="#000000" d="M 303.790482243984 413.83732514237585 L 308 424 L 312.209517756016 413.83732514237585" stroke-miterlimit="10"/></g></g></svg>