<svg version="1.1" xmlns="http://www.w3.org/2000/svg" xmlns:xlink="http://www.w3.org/1999/xlink" width="556" height="452"><defs/><g><g transform="translate(-326,-310) scale(1,1)"><path fill="none" stroke="#000000" d="M 432 320 L 744 320 L 744 752 L 432 752 L 432 320" stroke-miterlimit="10"/></g><g transform="translate(-326,-310) scale(1,1)"><path fill="#ffffff" stroke="none" d="M 432 320 L 432 342 L 713.17333984375 342 L 724.17333984375 331 L 724.17333984375 320 L 432 320"/></g><g transform="translate(-326,-310) scale(1,1)"><path fill="none" stroke="#000000" d="M 432 320 L 432 342 L 713.17333984375 342 L 724.17333984375 331 L 724.17333984375 320 L 432 320 L 432 320" stroke-miterlimit="10"/></g><g transform="translate(-326,-310) scale(1,1)"><g><path fill="none" stroke="none"/><text fill="#000000" stroke="none" font-family="Arial" font-size="13px" font-style="normal" font-weight="normal" text-decoration="none" x="507.32080078125" y="337.5">FOB. 200 : GRDF Data Acquisition</text></g></g><g transform="translate(-326,-310) scale(1,1)"><g><path fill="none" stroke="none"/><text fill="#000000" stroke="none" font-family="Arial" font-size="13px" font-style="normal" font-weight="bold" text-decoration="none" x="437" y="337.5">component</text></g></g><g transform="translate(-326,-310) scale(1,1)"><path fill="#ffffff" stroke="none" d="M 366.9657263849432 396.23 C 366.9657263849432 390.027841696 371.93096935570685 385 378.055908203125 385 C 384.18084705054315 385 389.1460900213068 390.027841696 389.1460900213068 396.23 C 389.1460900213068 402.43215830400004 384.18084705054315 407.46 378.055908203125 407.46 C 371.93096935570685 407.46 366.9657263849432 402.43215830400004 366.9657263849432 396.23 Z"/></g><g transform="translate(-326,-310) scale(1,1)"><path fill="none" stroke="#000000" d="M 366.9657263849432 396.23 C 366.9657263849432 390.027841696 371.93096935570685 385 378.055908203125 385 C 384.18084705054315 385 389.1460900213068 390.027841696 389.1460900213068 396.23 C 389.1460900213068 402.43215830400004 384.18084705054315 407.46 378.055908203125 407.46 C 371.93096935570685 407.46 366.9657263849432 402.43215830400004 366.9657263849432 396.23 Z" stroke-miterlimit="10"/></g><g transform="translate(-326,-310) scale(1,1)"><path fill="none" stroke="#000000" d="M 378.055908203125 407.46 L 378.055908203125 429.54" stroke-miterlimit="10"/></g><g transform="translate(-326,-310) scale(1,1)"><path fill="none" stroke="#000000" d="M 366.31336274857955 415.74 L 389.79845365767045 415.74" stroke-miterlimit="10"/></g><g transform="translate(-326,-310) scale(1,1)"><path fill="none" stroke="#000000" d="M 378.055908203125 429.54 L 361.7468172940341 452" stroke-miterlimit="10"/></g><g transform="translate(-326,-310) scale(1,1)"><path fill="none" stroke="#000000" d="M 378.055908203125 429.54 L 394.3649991122159 452" stroke-miterlimit="10"/></g><g transform="translate(-326,-310) scale(1,1)"><g><path fill="none" stroke="none"/><text fill="#000000" stroke="none" font-family="Arial" font-size="13px" font-style="normal" font-weight="normal" text-decoration="none" x="343.73095703125" y="470.5">«End User»</text></g></g><g transform="translate(-326,-310) scale(1,1)"><g><path fill="none" stroke="none"/><text fill="#000000" stroke="none" font-family="Arial" font-size="13px" font-style="normal" font-weight="bold" text-decoration="none" x="358.187744140625" y="485.5">Citizen</text></g></g><g transform="translate(-326,-310) scale(1,1)"><path fill="#ffffff" stroke="none" d="M 794.9992727272727 570.02 C 794.9992727272727 565.038391104 799.0290351383272 561 804 561 C 808.9709648616728 561 813.0007272727273 565.038391104 813.0007272727273 570.02 C 813.0007272727273 575.001608896 808.9709648616728 579.04 804 579.04 C 799.0290351383272 579.04 794.9992727272727 575.001608896 794.9992727272727 570.02 Z"/></g><g transform="translate(-326,-310) scale(1,1)"><path fill="none" stroke="#000000" d="M 794.9992727272727 570.02 C 794.9992727272727 565.038391104 799.0290351383272 561 804 561 C 808.9709648616728 561 813.0007272727273 565.038391104 813.0007272727273 570.02 C 813.0007272727273 575.001608896 808.9709648616728 579.04 804 579.04 C 799.0290351383272 579.04 794.9992727272727 575.001608896 794.9992727272727 570.02 Z" stroke-miterlimit="10"/></g><g transform="translate(-326,-310) scale(1,1)"><path fill="none" stroke="#000000" d="M 804 579.04 L 804 596.96" stroke-miterlimit="10"/></g><g transform="translate(-326,-310) scale(1,1)"><path fill="none" stroke="#000000" d="M 794.4698181818181 585.76 L 813.5301818181819 585.76" stroke-miterlimit="10"/></g><g transform="translate(-326,-310) scale(1,1)"><path fill="none" stroke="#000000" d="M 804 596.96 L 790.7636363636364 615" stroke-miterlimit="10"/></g><g transform="translate(-326,-310) scale(1,1)"><path fill="none" stroke="#000000" d="M 804 596.96 L 817.2363636363636 615" stroke-miterlimit="10"/></g><g transform="translate(-326,-310) scale(1,1)"><g><path fill="none" stroke="none"/><text fill="#000000" stroke="none" font-family="Arial" font-size="13px" font-style="normal" font-weight="normal" text-decoration="none" x="749.438720703125" y="633.5">«JEE Component»</text></g></g><g transform="translate(-326,-310) scale(1,1)"><g><path fill="none" stroke="none"/><text fill="#000000" stroke="none" font-family="Arial" font-size="13px" font-style="normal" font-weight="bold" text-decoration="none" x="758.839599609375" y="648.5">Entreprise Java</text><text fill="#000000" stroke="none" font-family="Arial" font-size="13px" font-style="normal" font-weight="bold" text-decoration="none" x="757.024169921875" y="661.5">Bean Container </text></g></g><g transform="translate(-326,-310) scale(1,1)"><path fill="#C0C0C0" stroke="none" d="M 487 427 C 487 411.5360256 522.817216 399 567 399 C 611.182784 399 647 411.5360256 647 427 C 647 442.4639744 611.182784 455 567 455 C 522.817216 455 487 442.4639744 487 427 Z" opacity="0.2"/></g><g transform="translate(-326,-310) scale(1,1)"><path fill="#ffffff" stroke="none" d="M 480 420 C 480 404.5360256 515.817216 392 560 392 C 604.182784 392 640 404.5360256 640 420 C 640 435.4639744 604.182784 448 560 448 C 515.817216 448 480 435.4639744 480 420 Z"/></g><g transform="translate(-326,-310) scale(1,1)"><path fill="none" stroke="#000000" d="M 480 420 C 480 404.5360256 515.817216 392 560 392 C 604.182784 392 640 404.5360256 640 420 C 640 435.4639744 604.182784 448 560 448 C 515.817216 448 480 435.4639744 480 420 Z" stroke-miterlimit="10"/></g><g transform="translate(-326,-310) scale(1,1)"><g><path fill="none" stroke="none"/><text fill="#000000" stroke="none" font-family="Arial" font-size="13px" font-style="normal" font-weight="bold" text-decoration="none" x="513.0400390625" y="420.5">Susbcribe smart</text><text fill="#000000" stroke="none" font-family="Arial" font-size="13px" font-style="normal" font-weight="bold" text-decoration="none" x="518.81005859375" y="433.5">metering point</text></g></g><g transform="translate(-326,-310) scale(1,1)"><path fill="#C0C0C0" stroke="none" d="M 479 497 C 479 482.6405952 521.9806592 471 575 471 C 628.0193408 471 671 482.6405952 671 497 C 671 511.3594048 628.0193408 523 575 523 C 521.9806592 523 479 511.3594048 479 497 Z" opacity="0.2"/></g><g transform="translate(-326,-310) scale(1,1)"><path fill="#ffffff" stroke="none" d="M 472 490 C 472 475.6405952 514.9806592 464 568 464 C 621.0193408 464 664 475.6405952 664 490 C 664 504.3594048 621.0193408 516 568 516 C 514.9806592 516 472 504.3594048 472 490 Z"/></g><g transform="translate(-326,-310) scale(1,1)"><path fill="none" stroke="#000000" d="M 472 490 C 472 475.6405952 514.9806592 464 568 464 C 621.0193408 464 664 475.6405952 664 490 C 664 504.3594048 621.0193408 516 568 516 C 514.9806592 516 472 504.3594048 472 490 Z" stroke-miterlimit="10"/></g><g transform="translate(-326,-310) scale(1,1)"><g><path fill="none" stroke="none"/><text fill="#000000" stroke="none" font-family="Arial" font-size="13px" font-style="normal" font-weight="bold" text-decoration="none" x="534.0400390625" y="490.5">Monitor gas</text><text fill="#000000" stroke="none" font-family="Arial" font-size="13px" font-style="normal" font-weight="bold" text-decoration="none" x="511.63916015625" y="503.5">consumption charts</text></g></g><g transform="translate(-326,-310) scale(1,1)"><path fill="#C0C0C0" stroke="none" d="M 511 577 C 511 562.6405952 541.8923488 551 580 551 C 618.1076512 551 649 562.6405952 649 577 C 649 591.3594048 618.1076512 603 580 603 C 541.8923488 603 511 591.3594048 511 577 Z" opacity="0.2"/></g><g transform="translate(-326,-310) scale(1,1)"><path fill="#ffffff" stroke="none" d="M 504 570 C 504 555.6405952 534.8923488 544 573 544 C 611.1076512 544 642 555.6405952 642 570 C 642 584.3594048 611.1076512 596 573 596 C 534.8923488 596 504 584.3594048 504 570 Z"/></g><g transform="translate(-326,-310) scale(1,1)"><path fill="none" stroke="#000000" d="M 504 570 C 504 555.6405952 534.8923488 544 573 544 C 611.1076512 544 642 555.6405952 642 570 C 642 584.3594048 611.1076512 596 573 596 C 534.8923488 596 504 584.3594048 504 570 Z" stroke-miterlimit="10"/></g><g transform="translate(-326,-310) scale(1,1)"><g><path fill="none" stroke="none"/><text fill="#000000" stroke="none" font-family="Arial" font-size="13px" font-style="normal" font-weight="bold" text-decoration="none" x="541.569580078125" y="570.5">Fetch daily</text><text fill="#000000" stroke="none" font-family="Arial" font-size="13px" font-style="normal" font-weight="bold" text-decoration="none" x="532.8955078125" y="583.5">consumptions</text></g></g><g transform="translate(-326,-310) scale(1,1)"><path fill="#C0C0C0" stroke="none" d="M 511 650.5 C 511 630.8938896 541.8923488 615 580 615 C 618.1076512 615 649 630.8938896 649 650.5 C 649 670.1061104 618.1076512 686 580 686 C 541.8923488 686 511 670.1061104 511 650.5 Z" opacity="0.2"/></g><g transform="translate(-326,-310) scale(1,1)"><path fill="#ffffff" stroke="none" d="M 504 643.5 C 504 623.8938896 534.8923488 608 573 608 C 611.1076512 608 642 623.8938896 642 643.5 C 642 663.1061104 611.1076512 679 573 679 C 534.8923488 679 504 663.1061104 504 643.5 Z"/></g><g transform="translate(-326,-310) scale(1,1)"><path fill="none" stroke="#000000" d="M 504 643.5 C 504 623.8938896 534.8923488 608 573 608 C 611.1076512 608 642 623.8938896 642 643.5 C 642 663.1061104 611.1076512 679 573 679 C 534.8923488 679 504 663.1061104 504 643.5 Z" stroke-miterlimit="10"/></g><g transform="translate(-326,-310) scale(1,1)"><g><path fill="none" stroke="none"/><text fill="#000000" stroke="none" font-family="Arial" font-size="13px" font-style="normal" font-weight="bold" text-decoration="none" x="552.0400390625" y="637.5">Update</text><text fill="#000000" stroke="none" font-family="Arial" font-size="13px" font-style="normal" font-weight="bold" text-decoration="none" x="550.240478515625" y="650.5">Monthly</text><text fill="#000000" stroke="none" font-family="Arial" font-size="13px" font-style="normal" font-weight="bold" text-decoration="none" x="532.8955078125" y="663.5">consumptions</text></g></g><g transform="translate(-326,-310) scale(1,1)"><path fill="none" stroke="#000000" d="M 421 433 L 479 428" stroke-miterlimit="10"/></g><g transform="translate(-326,-310) scale(1,1)"><path fill="none" stroke="#000000" d="M 421 449 L 471 463" stroke-miterlimit="10"/></g><g transform="translate(-326,-310) scale(1,1)"><path fill="none" stroke="#000000" d="M 735 600 L 643 583" stroke-miterlimit="10"/></g><g transform="translate(-326,-310) scale(1,1)"><path fill="none" stroke="#000000" d="M 735 622 L 643 634" stroke-miterlimit="10"/></g></g></svg>