<svg version="1.1" xmlns="http://www.w3.org/2000/svg" xmlns:xlink="http://www.w3.org/1999/xlink" width="564.76171875" height="129"><defs/><g><g transform="translate(-222,-158) scale(1,1)"><rect fill="#C0C0C0" stroke="none" x="239" y="175" width="118.83984375" height="37" opacity="0.2"/></g><g transform="translate(-222,-158) scale(1,1)"><rect fill="#ffffff" stroke="none" x="232" y="168" width="118.83984375" height="37"/></g><g transform="translate(-222,-158) scale(1,1)"><path fill="none" stroke="#000000" d="M 232 168 L 350.83984375 168 L 350.83984375 205 L 232 205 L 232 168 Z Z" stroke-miterlimit="10"/></g><g transform="translate(-222,-158) scale(1,1)"><g><path fill="none" stroke="none"/><text fill="#000000" stroke="none" font-family="Arial" font-size="13px" font-style="normal" font-weight="normal" text-decoration="none" x="256.0126953125" y="185.5">«Controller»</text></g></g><g transform="translate(-222,-158) scale(1,1)"><g><path fill="none" stroke="none"/><text fill="#000000" stroke="none" font-family="Arial" font-size="13px" font-style="normal" font-weight="bold" text-decoration="none" x="238.686767578125" y="200.5">UserRESTService</text></g></g><g transform="translate(-222,-158) scale(1,1)"><rect fill="#C0C0C0" stroke="none" x="463" y="175" width="184.55078125" height="37" opacity="0.2"/></g><g transform="translate(-222,-158) scale(1,1)"><rect fill="#ffffff" stroke="none" x="456" y="168" width="184.55078125" height="37"/></g><g transform="translate(-222,-158) scale(1,1)"><path fill="none" stroke="#000000" d="M 456 168 L 640.55078125 168 L 640.55078125 205 L 456 205 L 456 168 Z Z" stroke-miterlimit="10"/></g><g transform="translate(-222,-158) scale(1,1)"><g><path fill="none" stroke="none"/><text fill="#000000" stroke="none" font-family="Arial" font-size="13px" font-style="normal" font-weight="normal" text-decoration="none" x="519.371337890625" y="185.5">«Service»</text></g></g><g transform="translate(-222,-158) scale(1,1)"><g><path fill="none" stroke="none"/><text fill="#000000" stroke="none" font-family="Arial" font-size="13px" font-style="normal" font-weight="bold" text-decoration="none" x="466.622314453125" y="200.5">MeteringPointEnedisService</text></g></g><g transform="translate(-222,-158) scale(1,1)"><path fill="none" stroke="#000000" d="M 352 186 L 455 186" stroke-miterlimit="10"/></g><g transform="translate(-222,-158) scale(1,1)"><path fill="none" stroke="#000000" d="M 444.83732514237585 190.209517756016 L 455 186 L 444.83732514237585 181.790482243984" stroke-miterlimit="10"/></g><g transform="translate(-222,-158) scale(1,1)"><rect fill="#C0C0C0" stroke="none" x="239" y="247" width="131.8525390625" height="37" opacity="0.2"/></g><g transform="translate(-222,-158) scale(1,1)"><rect fill="#ffffff" stroke="none" x="232" y="240" width="131.8525390625" height="37"/></g><g transform="translate(-222,-158) scale(1,1)"><path fill="none" stroke="#000000" d="M 232 240 L 363.8525390625 240 L 363.8525390625 277 L 232 277 L 232 240 Z Z" stroke-miterlimit="10"/></g><g transform="translate(-222,-158) scale(1,1)"><g><path fill="none" stroke="none"/><text fill="#000000" stroke="none" font-family="Arial" font-size="13px" font-style="normal" font-weight="normal" text-decoration="none" x="269.022216796875" y="257.5">«Service»</text></g></g><g transform="translate(-222,-158) scale(1,1)"><g><path fill="none" stroke="none"/><text fill="#000000" stroke="none" font-family="Arial" font-size="13px" font-style="normal" font-weight="bold" text-decoration="none" x="239.7626953125" y="272.5">MessageProService</text></g></g><g transform="translate(-222,-158) scale(1,1)"><rect fill="#C0C0C0" stroke="none" x="439" y="247" width="111.60986328125" height="37" opacity="0.2"/></g><g transform="translate(-222,-158) scale(1,1)"><rect fill="#ffffff" stroke="none" x="432" y="240" width="111.60986328125" height="37"/></g><g transform="translate(-222,-158) scale(1,1)"><path fill="none" stroke="#000000" d="M 432 240 L 543.60986328125 240 L 543.60986328125 277 L 432 277 L 432 240 Z Z" stroke-miterlimit="10"/></g><g transform="translate(-222,-158) scale(1,1)"><g><path fill="none" stroke="none"/><text fill="#000000" stroke="none" font-family="Arial" font-size="13px" font-style="normal" font-weight="normal" text-decoration="none" x="458.90087890625" y="257.5">«Service»</text></g></g><g transform="translate(-222,-158) scale(1,1)"><g><path fill="none" stroke="none"/><text fill="#000000" stroke="none" font-family="Arial" font-size="13px" font-style="normal" font-weight="bold" text-decoration="none" x="440.127685546875" y="272.5">DpsErrorService</text></g></g><g transform="translate(-222,-158) scale(1,1)"><rect fill="#C0C0C0" stroke="none" x="631" y="247" width="152.76171875" height="37" opacity="0.2"/></g><g transform="translate(-222,-158) scale(1,1)"><rect fill="#ffffff" stroke="none" x="624" y="240" width="152.76171875" height="37"/></g><g transform="translate(-222,-158) scale(1,1)"><path fill="none" stroke="#000000" d="M 624 240 L 776.76171875 240 L 776.76171875 277 L 624 277 L 624 240 Z Z" stroke-miterlimit="10"/></g><g transform="translate(-222,-158) scale(1,1)"><g><path fill="none" stroke="none"/><text fill="#000000" stroke="none" font-family="Arial" font-size="13px" font-style="normal" font-weight="normal" text-decoration="none" x="670.38818359375" y="257.5">«Handler»</text></g></g><g transform="translate(-222,-158) scale(1,1)"><g><path fill="none" stroke="none"/><text fill="#000000" stroke="none" font-family="Arial" font-size="13px" font-style="italic" font-weight="bold" text-decoration="none" x="633.90185546875" y="272.5">AbstractEnedisHandler</text></g></g><g transform="translate(-222,-158) scale(1,1)"><path fill="none" stroke="#000000" d="M 642 185 L 696 184 L 699 239" stroke-miterlimit="10" stroke-dasharray="3"/></g><g transform="translate(-222,-158) scale(1,1)"><path fill="none" stroke="#000000" d="M 694.2432254625347 229.08167877109628 L 699 239 L 702.6497646669271 228.62314026903852" stroke-miterlimit="10"/></g><g transform="translate(-222,-158) scale(1,1)"><path fill="none" stroke="#000000" d="M 365 258 L 431 258" stroke-miterlimit="10"/></g><g transform="translate(-222,-158) scale(1,1)"><path fill="#000000" stroke="none" d="M 420.83732514237585 262.209517756016 L 431 258 L 420.83732514237585 253.790482243984 L 409 258"/></g><g transform="translate(-222,-158) scale(1,1)"><path fill="none" stroke="#000000" d="M 420.83732514237585 262.209517756016 L 431 258 L 420.83732514237585 253.790482243984 L 409 258 L 420.83732514237585 262.209517756016" stroke-miterlimit="10"/></g><g transform="translate(-222,-158) scale(1,1)"><path fill="none" stroke="#000000" d="M 545 258 L 623 258" stroke-miterlimit="10"/></g><g transform="translate(-222,-158) scale(1,1)"><path fill="#000000" stroke="none" d="M 612.8373251423759 262.209517756016 L 623 258 L 612.8373251423758 253.790482243984 L 601 258"/></g><g transform="translate(-222,-158) scale(1,1)"><path fill="none" stroke="#000000" d="M 612.8373251423759 262.209517756016 L 623 258 L 612.8373251423758 253.790482243984 L 601 258 L 612.8373251423759 262.209517756016" stroke-miterlimit="10"/></g></g></svg>