<svg version="1.1" xmlns="http://www.w3.org/2000/svg" xmlns:xlink="http://www.w3.org/1999/xlink" width="238.45361328125" height="550"><defs/><g><g transform="translate(-462,-118) scale(1,1)"><rect fill="#C0C0C0" stroke="none" x="487" y="303" width="201.9306640625" height="210" opacity="0.2"/></g><g transform="translate(-462,-118) scale(1,1)"><rect fill="#ffffff" stroke="none" x="480" y="296" width="201.9306640625" height="210"/></g><g transform="translate(-462,-118) scale(1,1)"><path fill="none" stroke="#000000" d="M 480 296 L 681.9306640625 296 L 681.9306640625 506 L 480 506 L 480 296 Z Z" stroke-miterlimit="10"/></g><g transform="translate(-462,-118) scale(1,1)"><path fill="none" stroke="#000000" d="M 480 334 L 681.9306640625 334" stroke-miterlimit="10"/></g><g transform="translate(-462,-118) scale(1,1)"><g><path fill="none" stroke="none"/><text fill="#000000" stroke="none" font-family="Arial" font-size="13px" font-style="normal" font-weight="normal" text-decoration="none" x="535.436767578125" y="313.5">«Consumption»</text></g></g><g transform="translate(-462,-118) scale(1,1)"><g><path fill="none" stroke="none"/><text fill="#000000" stroke="none" font-family="Arial" font-size="13px" font-style="normal" font-weight="bold" text-decoration="none" x="530.025390625" y="328.5">GrdfConsumption</text></g></g><g transform="translate(-462,-118) scale(1,1)"><g><path fill="none" stroke="none"/><text fill="#000000" stroke="none" font-family="Arial" font-size="13px" font-style="normal" font-weight="normal" text-decoration="none" x="485" y="351.5">-dateDebutConsommation: String</text></g></g><g transform="translate(-462,-118) scale(1,1)"><g><path fill="none" stroke="none"/><text fill="#000000" stroke="none" font-family="Arial" font-size="13px" font-style="normal" font-weight="normal" text-decoration="none" x="485" y="366.5">-dateFinConsommation: String</text></g></g><g transform="translate(-462,-118) scale(1,1)"><g><path fill="none" stroke="none"/><text fill="#000000" stroke="none" font-family="Arial" font-size="13px" font-style="normal" font-weight="normal" text-decoration="none" x="485" y="381.5">-flagRetourZero</text></g></g><g transform="translate(-462,-118) scale(1,1)"><g><path fill="none" stroke="none"/><text fill="#000000" stroke="none" font-family="Arial" font-size="13px" font-style="normal" font-weight="normal" text-decoration="none" x="485" y="396.5">-volumeBrut: Float</text></g></g><g transform="translate(-462,-118) scale(1,1)"><g><path fill="none" stroke="none"/><text fill="#000000" stroke="none" font-family="Arial" font-size="13px" font-style="normal" font-weight="normal" text-decoration="none" x="485" y="411.5">-volumeConverti: Float</text></g></g><g transform="translate(-462,-118) scale(1,1)"><g><path fill="none" stroke="none"/><text fill="#000000" stroke="none" font-family="Arial" font-size="13px" font-style="normal" font-weight="normal" text-decoration="none" x="485" y="426.5">-typeQualifConso: String</text></g></g><g transform="translate(-462,-118) scale(1,1)"><g><path fill="none" stroke="none"/><text fill="#000000" stroke="none" font-family="Arial" font-size="13px" font-style="normal" font-weight="normal" text-decoration="none" x="485" y="441.5">-sensFluxGaz: String</text></g></g><g transform="translate(-462,-118) scale(1,1)"><g><path fill="none" stroke="none"/><text fill="#000000" stroke="none" font-family="Arial" font-size="13px" font-style="normal" font-weight="normal" text-decoration="none" x="485" y="456.5">-statutConso: String</text></g></g><g transform="translate(-462,-118) scale(1,1)"><g><path fill="none" stroke="none"/><text fill="#000000" stroke="none" font-family="Arial" font-size="13px" font-style="normal" font-weight="normal" text-decoration="none" x="485" y="471.5">-journeeGaziere: String</text></g></g><g transform="translate(-462,-118) scale(1,1)"><g><path fill="none" stroke="none"/><text fill="#000000" stroke="none" font-family="Arial" font-size="13px" font-style="normal" font-weight="normal" text-decoration="none" x="485" y="486.5">-energie: Float</text></g></g><g transform="translate(-462,-118) scale(1,1)"><g><path fill="none" stroke="none"/><text fill="#000000" stroke="none" font-family="Arial" font-size="13px" font-style="normal" font-weight="normal" text-decoration="none" x="485" y="501.5">-typeConso: String</text></g></g><g transform="translate(-462,-118) scale(1,1)"><rect fill="#C0C0C0" stroke="none" x="479" y="135" width="218.45361328125" height="90" opacity="0.2"/></g><g transform="translate(-462,-118) scale(1,1)"><rect fill="#ffffff" stroke="none" x="472" y="128" width="218.45361328125" height="90"/></g><g transform="translate(-462,-118) scale(1,1)"><path fill="none" stroke="#000000" d="M 472 128 L 690.45361328125 128 L 690.45361328125 218 L 472 218 L 472 128 Z Z" stroke-miterlimit="10"/></g><g transform="translate(-462,-118) scale(1,1)"><path fill="none" stroke="#000000" d="M 472 166 L 690.45361328125 166" stroke-miterlimit="10"/></g><g transform="translate(-462,-118) scale(1,1)"><g><path fill="none" stroke="none"/><text fill="#000000" stroke="none" font-family="Arial" font-size="13px" font-style="normal" font-weight="normal" text-decoration="none" x="535.6982421875" y="145.5">«Consumption»</text></g></g><g transform="translate(-462,-118) scale(1,1)"><g><path fill="none" stroke="none"/><text fill="#000000" stroke="none" font-family="Arial" font-size="13px" font-style="normal" font-weight="bold" text-decoration="none" x="484.406005859375" y="160.5">GrdfInformativeConsumptionData</text></g></g><g transform="translate(-462,-118) scale(1,1)"><g><path fill="none" stroke="none"/><text fill="#000000" stroke="none" font-family="Arial" font-size="13px" font-style="normal" font-weight="normal" text-decoration="none" x="477" y="183.5">-pce</text></g></g><g transform="translate(-462,-118) scale(1,1)"><g><path fill="none" stroke="none"/><text fill="#000000" stroke="none" font-family="Arial" font-size="13px" font-style="normal" font-weight="normal" text-decoration="none" x="477" y="198.5">-releveDebut</text></g></g><g transform="translate(-462,-118) scale(1,1)"><g><path fill="none" stroke="none"/><text fill="#000000" stroke="none" font-family="Arial" font-size="13px" font-style="normal" font-weight="normal" text-decoration="none" x="477" y="213.5">-releveFin</text></g></g><g transform="translate(-462,-118) scale(1,1)"><path fill="none" stroke="#000000" d="M 581 219 L 580 295" stroke-miterlimit="10"/></g><g transform="translate(-462,-118) scale(1,1)"><path fill="none" stroke="#000000" d="M 575.9245544260782 284.7828211636479 L 580 295 L 584.3428612381035 284.89358835854296" stroke-miterlimit="10"/></g><g transform="translate(-462,-118) scale(1,1)"><g><path fill="none" stroke="none"/><text fill="#000000" stroke="none" font-family="Arial" font-size="13px" font-style="normal" font-weight="normal" text-decoration="none" x="589.5" y="259.5">-consommation</text></g></g><g transform="translate(-462,-118) scale(1,1)"><rect fill="#C0C0C0" stroke="none" x="503" y="575" width="173.67724609375" height="90" opacity="0.2"/></g><g transform="translate(-462,-118) scale(1,1)"><rect fill="#ffffff" stroke="none" x="496" y="568" width="173.67724609375" height="90"/></g><g transform="translate(-462,-118) scale(1,1)"><path fill="none" stroke="#000000" d="M 496 568 L 669.67724609375 568 L 669.67724609375 658 L 496 658 L 496 568 Z Z" stroke-miterlimit="10"/></g><g transform="translate(-462,-118) scale(1,1)"><path fill="none" stroke="#000000" d="M 496 606 L 669.67724609375 606" stroke-miterlimit="10"/></g><g transform="translate(-462,-118) scale(1,1)"><g><path fill="none" stroke="none"/><text fill="#000000" stroke="none" font-family="Arial" font-size="13px" font-style="normal" font-weight="normal" text-decoration="none" x="545.01611328125" y="585.5">«Coefficient»</text></g></g><g transform="translate(-462,-118) scale(1,1)"><g><path fill="none" stroke="none"/><text fill="#000000" stroke="none" font-family="Arial" font-size="13px" font-style="normal" font-weight="bold" text-decoration="none" x="507.447509765625" y="600.5">GrdfCalculationCoefficient</text></g></g><g transform="translate(-462,-118) scale(1,1)"><g><path fill="none" stroke="none"/><text fill="#000000" stroke="none" font-family="Arial" font-size="13px" font-style="normal" font-weight="normal" text-decoration="none" x="501" y="623.5">-coeffPta: Float</text></g></g><g transform="translate(-462,-118) scale(1,1)"><g><path fill="none" stroke="none"/><text fill="#000000" stroke="none" font-family="Arial" font-size="13px" font-style="normal" font-weight="normal" text-decoration="none" x="501" y="638.5">-valeurPcs: Float</text></g></g><g transform="translate(-462,-118) scale(1,1)"><g><path fill="none" stroke="none"/><text fill="#000000" stroke="none" font-family="Arial" font-size="13px" font-style="normal" font-weight="normal" text-decoration="none" x="501" y="653.5">-coeffConversion: Float</text></g></g><g transform="translate(-462,-118) scale(1,1)"><path fill="none" stroke="#000000" d="M 581 507 L 582 567" stroke-miterlimit="10"/></g><g transform="translate(-462,-118) scale(1,1)"><path fill="none" stroke="#000000" d="M 577.6217123829697 556.9088852180466 L 582 567 L 586.0395788280638 556.7685874439617" stroke-miterlimit="10"/></g><g transform="translate(-462,-118) scale(1,1)"><g><path fill="none" stroke="none"/><text fill="#000000" stroke="none" font-family="Arial" font-size="13px" font-style="normal" font-weight="normal" text-decoration="none" x="591.5" y="548.5">-coefCalcul</text></g></g></g></svg>