<svg version="1.1" xmlns="http://www.w3.org/2000/svg" xmlns:xlink="http://www.w3.org/1999/xlink" width="443.80712890625" height="195"><defs/><g><g transform="translate(-190,-198) scale(1,1)"><rect fill="#C0C0C0" stroke="none" x="207" y="215" width="197.95703125" height="100" opacity="0.2"/></g><g transform="translate(-190,-198) scale(1,1)"><rect fill="#ffffff" stroke="none" x="200" y="208" width="197.95703125" height="100"/></g><g transform="translate(-190,-198) scale(1,1)"><path fill="none" stroke="#000000" d="M 200 208 L 397.95703125 208 L 397.95703125 308 L 200 308 L 200 208 Z Z" stroke-miterlimit="10"/></g><g transform="translate(-190,-198) scale(1,1)"><path fill="none" stroke="#000000" d="M 200 246 L 397.95703125 246" stroke-miterlimit="10"/></g><g transform="translate(-190,-198) scale(1,1)"><path fill="none" stroke="#000000" d="M 200 256 L 397.95703125 256" stroke-miterlimit="10"/></g><g transform="translate(-190,-198) scale(1,1)"><g><path fill="none" stroke="none"/><text fill="#000000" stroke="none" font-family="Arial" font-size="13px" font-style="normal" font-weight="normal" text-decoration="none" x="263.5712890625" y="225.5">«Controller»</text></g></g><g transform="translate(-190,-198) scale(1,1)"><g><path fill="none" stroke="none"/><text fill="#000000" stroke="none" font-family="Arial" font-size="13px" font-style="normal" font-weight="bold" text-decoration="none" x="256.350830078125" y="240.5">lostLoginCtrl.js</text></g></g><g transform="translate(-190,-198) scale(1,1)"><g><path fill="none" stroke="none"/><text fill="#000000" stroke="none" font-family="Arial" font-size="13px" font-style="normal" font-weight="normal" text-decoration="none" x="205" y="273.5">+$scope.isValideMail()</text></g></g><g transform="translate(-190,-198) scale(1,1)"><g><path fill="none" stroke="none"/><text fill="#000000" stroke="none" font-family="Arial" font-size="13px" font-style="normal" font-weight="normal" text-decoration="none" x="205" y="288.5">+$scope.changeUserPassword()</text></g></g><g transform="translate(-190,-198) scale(1,1)"><g><path fill="none" stroke="none"/><text fill="#000000" stroke="none" font-family="Arial" font-size="13px" font-style="normal" font-weight="normal" text-decoration="none" x="205" y="303.5">+$scope.init()</text></g></g><g transform="translate(-190,-198) scale(1,1)"><rect fill="#C0C0C0" stroke="none" x="495" y="215" width="135.80712890625" height="175" opacity="0.2"/></g><g transform="translate(-190,-198) scale(1,1)"><rect fill="#ffffff" stroke="none" x="488" y="208" width="135.80712890625" height="175"/></g><g transform="translate(-190,-198) scale(1,1)"><path fill="none" stroke="#000000" d="M 488 208 L 623.80712890625 208 L 623.80712890625 383 L 488 383 L 488 208 Z Z" stroke-miterlimit="10"/></g><g transform="translate(-190,-198) scale(1,1)"><path fill="none" stroke="#000000" d="M 488 246 L 623.80712890625 246" stroke-miterlimit="10"/></g><g transform="translate(-190,-198) scale(1,1)"><path fill="none" stroke="#000000" d="M 488 256 L 623.80712890625 256" stroke-miterlimit="10"/></g><g transform="translate(-190,-198) scale(1,1)"><g><path fill="none" stroke="none"/><text fill="#000000" stroke="none" font-family="Arial" font-size="13px" font-style="normal" font-weight="normal" text-decoration="none" x="520.496337890625" y="225.5">«Controller»</text></g></g><g transform="translate(-190,-198) scale(1,1)"><g><path fill="none" stroke="none"/><text fill="#000000" stroke="none" font-family="Arial" font-size="13px" font-style="normal" font-weight="bold" text-decoration="none" x="511.476318359375" y="240.5">subscribeCtrl.js</text></g></g><g transform="translate(-190,-198) scale(1,1)"><g><path fill="none" stroke="none"/><text fill="#000000" stroke="none" font-family="Arial" font-size="13px" font-style="normal" font-weight="normal" text-decoration="none" x="493" y="273.5">+$scope.init()</text></g></g><g transform="translate(-190,-198) scale(1,1)"><g><path fill="none" stroke="none"/><text fill="#000000" stroke="none" font-family="Arial" font-size="13px" font-style="normal" font-weight="normal" text-decoration="none" x="493" y="288.5">+$scope.back()</text></g></g><g transform="translate(-190,-198) scale(1,1)"><g><path fill="none" stroke="none"/><text fill="#000000" stroke="none" font-family="Arial" font-size="13px" font-style="normal" font-weight="normal" text-decoration="none" x="493" y="303.5">+$scope.resetBools()</text></g></g><g transform="translate(-190,-198) scale(1,1)"><g><path fill="none" stroke="none"/><text fill="#000000" stroke="none" font-family="Arial" font-size="13px" font-style="normal" font-weight="normal" text-decoration="none" x="493" y="318.5">+$scope.getAllCities()</text></g></g><g transform="translate(-190,-198) scale(1,1)"><g><path fill="none" stroke="none"/><text fill="#000000" stroke="none" font-family="Arial" font-size="13px" font-style="normal" font-weight="normal" text-decoration="none" x="493" y="333.5">+$scope.next()</text></g></g><g transform="translate(-190,-198) scale(1,1)"><g><path fill="none" stroke="none"/><text fill="#000000" stroke="none" font-family="Arial" font-size="13px" font-style="normal" font-weight="normal" text-decoration="none" x="493" y="348.5">+$scope.compile()</text></g></g><g transform="translate(-190,-198) scale(1,1)"><g><path fill="none" stroke="none"/><text fill="#000000" stroke="none" font-family="Arial" font-size="13px" font-style="normal" font-weight="normal" text-decoration="none" x="493" y="363.5">+$scope.suscribe()</text></g></g><g transform="translate(-190,-198) scale(1,1)"><g><path fill="none" stroke="none"/><text fill="#000000" stroke="none" font-family="Arial" font-size="13px" font-style="normal" font-weight="normal" text-decoration="none" x="493" y="378.5">+$scope.callback()</text></g></g></g></svg>