<svg version="1.1" xmlns="http://www.w3.org/2000/svg" xmlns:xlink="http://www.w3.org/1999/xlink" width="383.025390625" height="75"><defs/><g><g transform="translate(-180,-237) scale(1,1)"><rect fill="#C0C0C0" stroke="none" x="197" y="254" width="46.08613281250001" height="15" opacity="0.2"/></g><g transform="translate(-180,-237) scale(1,1)"><rect fill="#C0C0C0" stroke="none" x="197" y="268" width="115.21533203125" height="40" opacity="0.2"/></g><g transform="translate(-180,-237) scale(1,1)"><rect fill="#ffffff" stroke="none" x="190" y="262" width="115.21533203125" height="39"/></g><g transform="translate(-180,-237) scale(1,1)"><path fill="none" stroke="#000000" d="M 190 262 L 305.21533203125 262 L 305.21533203125 301 L 190 301 L 190 262 Z Z" stroke-miterlimit="10"/></g><g transform="translate(-180,-237) scale(1,1)"><rect fill="#ffffff" stroke="none" x="190" y="247" width="46.08613281250001" height="15"/></g><g transform="translate(-180,-237) scale(1,1)"><path fill="none" stroke="#000000" d="M 190 247 L 236.0861328125 247 L 236.0861328125 262 L 190 262 L 190 247 Z Z" stroke-miterlimit="10"/></g><g transform="translate(-180,-237) scale(1,1)"><rect fill="#ffffff" stroke="none" x="190" y="261" width="115.21533203125" height="40"/></g><g transform="translate(-180,-237) scale(1,1)"><path fill="none" stroke="#000000" d="M 190 261 L 305.21533203125 261 L 305.21533203125 301 L 190 301 L 190 261 Z Z" stroke-miterlimit="10"/></g><g transform="translate(-180,-237) scale(1,1)"><path fill="none" stroke="#000000" d="M 228.0861328125 250 L 228.0861328125 254" stroke-miterlimit="10"/></g><g transform="translate(-180,-237) scale(1,1)"><path fill="none" stroke="#000000" d="M 225.0861328125 258 L 225.0861328125 254 L 231.0861328125 254" stroke-miterlimit="10"/></g><g transform="translate(-180,-237) scale(1,1)"><path fill="none" stroke="#000000" d="M 231.0861328125 258 L 231.0861328125 254 L 225.0861328125 254" stroke-miterlimit="10"/></g><g transform="translate(-180,-237) scale(1,1)"><g><path fill="none" stroke="none"/><text fill="#000000" stroke="none" font-family="Arial" font-size="13px" font-style="normal" font-weight="bold" text-decoration="none" x="196.32177734375" y="281.5">S2G-MT-Services</text></g></g><g transform="translate(-180,-237) scale(1,1)"><g><path fill="none" stroke="none"/><text fill="#000000" stroke="none" font-family="Arial" font-size="13px" font-style="normal" font-weight="normal" text-decoration="none" x="203.916748046875" y="296.5">(from S2G-MT)</text></g></g><g transform="translate(-180,-237) scale(1,1)"><rect fill="#C0C0C0" stroke="none" x="447" y="255" width="45.21015625000001" height="15" opacity="0.2"/></g><g transform="translate(-180,-237) scale(1,1)"><rect fill="#C0C0C0" stroke="none" x="447" y="269" width="113.025390625" height="40" opacity="0.2"/></g><g transform="translate(-180,-237) scale(1,1)"><rect fill="#ffffff" stroke="none" x="440" y="263" width="113.025390625" height="39"/></g><g transform="translate(-180,-237) scale(1,1)"><path fill="none" stroke="#000000" d="M 440 263 L 553.025390625 263 L 553.025390625 302 L 440 302 L 440 263 Z Z" stroke-miterlimit="10"/></g><g transform="translate(-180,-237) scale(1,1)"><rect fill="#ffffff" stroke="none" x="440" y="248" width="45.21015625000001" height="15"/></g><g transform="translate(-180,-237) scale(1,1)"><path fill="none" stroke="#000000" d="M 440 248 L 485.21015625 248 L 485.21015625 263 L 440 263 L 440 248 Z Z" stroke-miterlimit="10"/></g><g transform="translate(-180,-237) scale(1,1)"><rect fill="#ffffff" stroke="none" x="440" y="262" width="113.025390625" height="40"/></g><g transform="translate(-180,-237) scale(1,1)"><path fill="none" stroke="#000000" d="M 440 262 L 553.025390625 262 L 553.025390625 302 L 440 302 L 440 262 Z Z" stroke-miterlimit="10"/></g><g transform="translate(-180,-237) scale(1,1)"><path fill="none" stroke="#000000" d="M 477.21015625 251 L 477.21015625 255" stroke-miterlimit="10"/></g><g transform="translate(-180,-237) scale(1,1)"><path fill="none" stroke="#000000" d="M 474.21015625 259 L 474.21015625 255 L 480.21015625 255" stroke-miterlimit="10"/></g><g transform="translate(-180,-237) scale(1,1)"><path fill="none" stroke="#000000" d="M 480.21015625 259 L 480.21015625 255 L 474.21015625 255" stroke-miterlimit="10"/></g><g transform="translate(-180,-237) scale(1,1)"><g><path fill="none" stroke="none"/><text fill="#000000" stroke="none" font-family="Arial" font-size="13px" font-style="normal" font-weight="bold" text-decoration="none" x="446.6708984375" y="282.5">S2G-MT-Security</text></g></g><g transform="translate(-180,-237) scale(1,1)"><g><path fill="none" stroke="none"/><text fill="#000000" stroke="none" font-family="Arial" font-size="13px" font-style="normal" font-weight="normal" text-decoration="none" x="452.82177734375" y="297.5">(from S2G-MT)</text></g></g><g transform="translate(-180,-237) scale(1,1)"><path fill="none" stroke="#000000" d="M 306 274 L 439 275" stroke-miterlimit="10" stroke-dasharray="3"/></g><g transform="translate(-180,-237) scale(1,1)"><path fill="none" stroke="#000000" d="M 428.80596277508704 279.1329898447841 L 439 275 L 428.869262004774 270.7141922964179" stroke-miterlimit="10"/></g></g></svg>