<svg version="1.1" xmlns="http://www.w3.org/2000/svg" xmlns:xlink="http://www.w3.org/1999/xlink" width="551.32080078125" height="419"><defs/><g><g transform="translate(-318,-222) scale(1,1)"><rect fill="#C0C0C0" stroke="none" x="335" y="239" width="372.9111328125" height="75" opacity="0.2"/></g><g transform="translate(-318,-222) scale(1,1)"><rect fill="#ffffff" stroke="none" x="328" y="232" width="372.9111328125" height="75"/></g><g transform="translate(-318,-222) scale(1,1)"><path fill="none" stroke="#000000" d="M 328 232 L 700.9111328125 232 L 700.9111328125 307 L 328 307 L 328 232 Z Z" stroke-miterlimit="10"/></g><g transform="translate(-318,-222) scale(1,1)"><path fill="none" stroke="#000000" d="M 328 270 L 700.9111328125 270" stroke-miterlimit="10"/></g><g transform="translate(-318,-222) scale(1,1)"><g><path fill="none" stroke="none"/><text fill="#000000" stroke="none" font-family="Arial" font-size="13px" font-style="normal" font-weight="normal" text-decoration="none" x="496.74560546875" y="249.5">«Job»</text></g></g><g transform="translate(-318,-222) scale(1,1)"><g><path fill="none" stroke="none"/><text fill="#000000" stroke="none" font-family="Arial" font-size="13px" font-style="normal" font-weight="bold" text-decoration="none" x="473.62744140625" y="264.5">SimulationJob</text></g></g><g transform="translate(-318,-222) scale(1,1)"><g><path fill="none" stroke="none"/><text fill="#000000" stroke="none" font-family="Arial" font-size="13px" font-style="normal" font-weight="normal" text-decoration="none" x="333" y="287.5">+startTraitement()</text></g></g><g transform="translate(-318,-222) scale(1,1)"><g><path fill="none" stroke="none"/><text fill="#000000" stroke="none" font-family="Arial" font-size="13px" font-style="normal" font-weight="normal" text-decoration="none" x="333" y="302.5">-simulation(p_CurrentDay, p_ListOfSuscribedMeteringPoints[*])</text></g></g><g transform="translate(-318,-222) scale(1,1)"><rect fill="#C0C0C0" stroke="none" x="615" y="327" width="210.2333984375" height="135" opacity="0.2"/></g><g transform="translate(-318,-222) scale(1,1)"><rect fill="#ffffff" stroke="none" x="608" y="320" width="210.2333984375" height="135"/></g><g transform="translate(-318,-222) scale(1,1)"><path fill="none" stroke="#000000" d="M 608 320 L 818.2333984375 320 L 818.2333984375 455 L 608 455 L 608 320 Z Z" stroke-miterlimit="10"/></g><g transform="translate(-318,-222) scale(1,1)"><path fill="none" stroke="#000000" d="M 608 358 L 818.2333984375 358" stroke-miterlimit="10"/></g><g transform="translate(-318,-222) scale(1,1)"><g><path fill="none" stroke="none"/><text fill="#000000" stroke="none" font-family="Arial" font-size="13px" font-style="normal" font-weight="normal" text-decoration="none" x="695.40673828125" y="337.5">«Job»</text></g></g><g transform="translate(-318,-222) scale(1,1)"><g><path fill="none" stroke="none"/><text fill="#000000" stroke="none" font-family="Arial" font-size="13px" font-style="normal" font-weight="bold" text-decoration="none" x="633.63134765625" y="352.5">PeriodSlideConsRepository</text></g></g><g transform="translate(-318,-222) scale(1,1)"><g><path fill="none" stroke="none"/><text fill="#000000" stroke="none" font-family="Arial" font-size="13px" font-style="normal" font-weight="normal" text-decoration="none" x="613" y="375.5">+findById(id)</text></g></g><g transform="translate(-318,-222) scale(1,1)"><g><path fill="none" stroke="none"/><text fill="#000000" stroke="none" font-family="Arial" font-size="13px" font-style="normal" font-weight="normal" text-decoration="none" x="613" y="390.5">+findAllOrderedById(): [*]</text></g></g><g transform="translate(-318,-222) scale(1,1)"><g><path fill="none" stroke="none"/><text fill="#000000" stroke="none" font-family="Arial" font-size="13px" font-style="normal" font-weight="normal" text-decoration="none" x="613" y="405.5">+getMaxPeriodSlideCons()</text></g></g><g transform="translate(-318,-222) scale(1,1)"><g><path fill="none" stroke="none"/><text fill="#000000" stroke="none" font-family="Arial" font-size="13px" font-style="normal" font-weight="normal" text-decoration="none" x="613" y="420.5">+insert(p_PeriodSlideConsEntry)</text></g></g><g transform="translate(-318,-222) scale(1,1)"><g><path fill="none" stroke="none"/><text fill="#000000" stroke="none" font-family="Arial" font-size="13px" font-style="normal" font-weight="normal" text-decoration="none" x="613" y="435.5">+remove(p_PeriodSlideConsEntry)</text></g></g><g transform="translate(-318,-222) scale(1,1)"><g><path fill="none" stroke="none"/><text fill="#000000" stroke="none" font-family="Arial" font-size="13px" font-style="normal" font-weight="normal" text-decoration="none" x="613" y="450.5">+update(p_PeriodSlideConsEntry)</text></g></g><g transform="translate(-318,-222) scale(1,1)"><rect fill="#C0C0C0" stroke="none" x="447" y="495" width="243.8251953125" height="143" opacity="0.2"/></g><g transform="translate(-318,-222) scale(1,1)"><rect fill="#ffffff" stroke="none" x="440" y="488" width="243.8251953125" height="143"/></g><g transform="translate(-318,-222) scale(1,1)"><path fill="none" stroke="#000000" d="M 440 488 L 683.8251953125 488 L 683.8251953125 631 L 440 631 L 440 488 Z Z" stroke-miterlimit="10"/></g><g transform="translate(-318,-222) scale(1,1)"><path fill="none" stroke="#000000" d="M 440 526 L 683.8251953125 526" stroke-miterlimit="10"/></g><g transform="translate(-318,-222) scale(1,1)"><path fill="none" stroke="#000000" d="M 440 579 L 683.8251953125 579" stroke-miterlimit="10"/></g><g transform="translate(-318,-222) scale(1,1)"><g><path fill="none" stroke="none"/><text fill="#000000" stroke="none" font-family="Arial" font-size="13px" font-style="normal" font-weight="normal" text-decoration="none" x="544.20263671875" y="505.5">«Job»</text></g></g><g transform="translate(-318,-222) scale(1,1)"><g><path fill="none" stroke="none"/><text fill="#000000" stroke="none" font-family="Arial" font-size="13px" font-style="normal" font-weight="bold" text-decoration="none" x="527.5908203125" y="520.5">JobAbstract</text></g></g><g transform="translate(-318,-222) scale(1,1)"><g><path fill="none" stroke="none"/><text fill="#000000" stroke="none" font-family="Arial" font-size="13px" font-style="normal" font-weight="normal" text-decoration="none" x="445" y="543.5">-indicatorRepository</text></g></g><g transform="translate(-318,-222) scale(1,1)"><g><path fill="none" stroke="none"/><text fill="#000000" stroke="none" font-family="Arial" font-size="13px" font-style="normal" font-weight="normal" text-decoration="none" x="445" y="558.5">-cronRepository: CronTableRepository</text></g></g><g transform="translate(-318,-222) scale(1,1)"><g><path fill="none" stroke="none"/><text fill="#000000" stroke="none" font-family="Arial" font-size="13px" font-style="normal" font-weight="normal" text-decoration="none" x="445" y="573.5">-params: String</text></g></g><g transform="translate(-318,-222) scale(1,1)"><g><path fill="none" stroke="none"/><text fill="#000000" stroke="none" font-family="Arial" font-size="13px" font-style="normal" font-weight="normal" text-decoration="none" x="445" y="596.5">+getParam(int): String</text></g></g><g transform="translate(-318,-222) scale(1,1)"><g><path fill="none" stroke="none"/><text fill="#000000" stroke="none" font-family="Arial" font-size="13px" font-style="normal" font-weight="normal" text-decoration="none" x="445" y="611.5">+startTraitement(): void</text></g></g><g transform="translate(-318,-222) scale(1,1)"><g><path fill="none" stroke="none"/><text fill="#000000" stroke="none" font-family="Arial" font-size="13px" font-style="normal" font-weight="normal" text-decoration="none" x="445" y="626.5">+execute(JobExecutionContext): void</text></g></g><g transform="translate(-318,-222) scale(1,1)"><path fill="#C0C0C0" stroke="none" d="M 800.160400390625 579.5 C 800.160400390625 572.59644 805.756840390625 567 812.660400390625 567 C 819.563960390625 567 825.160400390625 572.59644 825.160400390625 579.5 C 825.160400390625 586.40356 819.563960390625 592 812.660400390625 592 C 805.756840390625 592 800.160400390625 586.40356 800.160400390625 579.5 Z" opacity="0.2"/></g><g transform="translate(-318,-222) scale(1,1)"><path fill="#ffffff" stroke="none" d="M 793.160400390625 572.5 C 793.160400390625 565.59644 798.756840390625 560 805.660400390625 560 C 812.563960390625 560 818.160400390625 565.59644 818.160400390625 572.5 C 818.160400390625 579.40356 812.563960390625 585 805.660400390625 585 C 798.756840390625 585 793.160400390625 579.40356 793.160400390625 572.5 Z"/></g><g transform="translate(-318,-222) scale(1,1)"><path fill="none" stroke="#000000" d="M 793.160400390625 572.5 C 793.160400390625 565.59644 798.756840390625 560 805.660400390625 560 C 812.563960390625 560 818.160400390625 565.59644 818.160400390625 572.5 C 818.160400390625 579.40356 812.563960390625 585 805.660400390625 585 C 798.756840390625 585 793.160400390625 579.40356 793.160400390625 572.5 Z" stroke-miterlimit="10"/></g><g transform="translate(-318,-222) scale(1,1)"><g><path fill="none" stroke="none"/><text fill="#000000" stroke="none" font-family="Arial" font-size="13px" font-style="normal" font-weight="normal" text-decoration="none" x="773.5" y="602.5">«interface»</text></g></g><g transform="translate(-318,-222) scale(1,1)"><g><path fill="none" stroke="none"/><text fill="#000000" stroke="none" font-family="Arial" font-size="13px" font-style="normal" font-weight="bold" text-decoration="none" x="795.180419921875" y="617.5">Job</text></g></g><g transform="translate(-318,-222) scale(1,1)"><path fill="none" stroke="#000000" d="M 685 575 L 793.160400390625 574.6310221354166" stroke-miterlimit="10"/></g><g transform="translate(-318,-222) scale(1,1)"><path fill="none" stroke="#000000" d="M 652 456 L 625 487" stroke-miterlimit="10"/></g><g transform="translate(-318,-222) scale(1,1)"><path fill="#FFFFFF" stroke="none" d="M 632.0006585896501 466.1435674356529 L 625 487 L 644.6979380591232 477.20248826390366"/></g><g transform="translate(-318,-222) scale(1,1)"><path fill="none" stroke="#000000" d="M 632.0006585896501 466.1435674356529 L 625 487 L 644.6979380591232 477.20248826390366 L 632.0006585896501 466.1435674356529" stroke-miterlimit="10"/></g><g transform="translate(-318,-222) scale(1,1)"><path fill="none" stroke="#000000" d="M 520 308 L 549 487" stroke-miterlimit="10"/></g><g transform="translate(-318,-222) scale(1,1)"><path fill="#FFFFFF" stroke="none" d="M 537.4387752886537 468.28267959418986 L 549 487 L 554.0601237923752 465.5898354231959"/></g><g transform="translate(-318,-222) scale(1,1)"><path fill="none" stroke="#000000" d="M 537.4387752886537 468.28267959418986 L 549 487 L 554.0601237923752 465.5898354231959 L 537.4387752886537 468.28267959418986" stroke-miterlimit="10"/></g></g></svg>