<svg version="1.1" xmlns="http://www.w3.org/2000/svg" xmlns:xlink="http://www.w3.org/1999/xlink" width="738.2607421875" height="373"><defs/><g><g transform="translate(-126,-494) scale(1,1)"><rect fill="#C0C0C0" stroke="none" x="143" y="511" width="477.59033203125" height="353" opacity="0.2"/></g><g transform="translate(-126,-494) scale(1,1)"><rect fill="#ffffff" stroke="none" x="136" y="504" width="477.59033203125" height="353"/></g><g transform="translate(-126,-494) scale(1,1)"><path fill="none" stroke="#000000" d="M 136 504 L 613.59033203125 504 L 613.59033203125 857 L 136 857 L 136 504 Z Z" stroke-miterlimit="10"/></g><g transform="translate(-126,-494) scale(1,1)"><path fill="none" stroke="#000000" d="M 136 542 L 613.59033203125 542" stroke-miterlimit="10"/></g><g transform="translate(-126,-494) scale(1,1)"><path fill="none" stroke="#000000" d="M 136 670 L 613.59033203125 670" stroke-miterlimit="10"/></g><g transform="translate(-126,-494) scale(1,1)"><g><path fill="none" stroke="none"/><text fill="#000000" stroke="none" font-family="Arial" font-size="13px" font-style="normal" font-weight="normal" text-decoration="none" x="339.387939453125" y="521.5">«Controller»</text></g></g><g transform="translate(-126,-494) scale(1,1)"><g><path fill="none" stroke="none"/><text fill="#000000" stroke="none" font-family="Arial" font-size="13px" font-style="normal" font-weight="bold" text-decoration="none" x="312.29931640625" y="536.5">AccountRESTService</text></g></g><g transform="translate(-126,-494) scale(1,1)"><g><path fill="none" stroke="none"/><text fill="#000000" stroke="none" font-family="Arial" font-size="13px" font-style="normal" font-weight="normal" text-decoration="none" x="141" y="559.5">-serviceCrypt</text></g></g><g transform="translate(-126,-494) scale(1,1)"><g><path fill="none" stroke="none"/><text fill="#000000" stroke="none" font-family="Arial" font-size="13px" font-style="normal" font-weight="normal" text-decoration="none" x="141" y="574.5">-profileMessageProducer</text></g></g><g transform="translate(-126,-494) scale(1,1)"><g><path fill="none" stroke="none"/><text fill="#000000" stroke="none" font-family="Arial" font-size="13px" font-style="normal" font-weight="normal" text-decoration="none" x="141" y="589.5">-loginUserMessageProducer</text></g></g><g transform="translate(-126,-494) scale(1,1)"><g><path fill="none" stroke="none"/><text fill="#000000" stroke="none" font-family="Arial" font-size="13px" font-style="normal" font-weight="normal" text-decoration="none" x="141" y="604.5">-log</text></g></g><g transform="translate(-126,-494) scale(1,1)"><g><path fill="none" stroke="none"/><text fill="#000000" stroke="none" font-family="Arial" font-size="13px" font-style="normal" font-weight="normal" text-decoration="none" x="141" y="619.5">-honeyPot</text></g></g><g transform="translate(-126,-494) scale(1,1)"><g><path fill="none" stroke="none"/><text fill="#000000" stroke="none" font-family="Arial" font-size="13px" font-style="normal" font-weight="normal" text-decoration="none" x="141" y="634.5">-singletonSecurity</text></g></g><g transform="translate(-126,-494) scale(1,1)"><g><path fill="none" stroke="none"/><text fill="#000000" stroke="none" font-family="Arial" font-size="13px" font-style="normal" font-weight="normal" text-decoration="none" x="141" y="649.5">-loginUserService</text></g></g><g transform="translate(-126,-494) scale(1,1)"><g><path fill="none" stroke="none"/><text fill="#000000" stroke="none" font-family="Arial" font-size="13px" font-style="normal" font-weight="normal" text-decoration="none" x="141" y="664.5">-loginLogger</text></g></g><g transform="translate(-126,-494) scale(1,1)"><g><path fill="none" stroke="none"/><text fill="#000000" stroke="none" font-family="Arial" font-size="13px" font-style="normal" font-weight="normal" text-decoration="none" x="141" y="687.5">+checkLoginUser(username: String, password: String): null</text></g></g><g transform="translate(-126,-494) scale(1,1)"><g><path fill="none" stroke="none"/><text fill="#000000" stroke="none" font-family="Arial" font-size="13px" font-style="normal" font-weight="normal" text-decoration="none" x="141" y="702.5">+changePassword(oldPassword: String, newPassword: String, token: String): null</text></g></g><g transform="translate(-126,-494) scale(1,1)"><g><path fill="none" stroke="none"/><text fill="#000000" stroke="none" font-family="Arial" font-size="13px" font-style="normal" font-weight="normal" text-decoration="none" x="141" y="717.5">+subscribeAccountUser(message): null</text></g></g><g transform="translate(-126,-494) scale(1,1)"><g><path fill="none" stroke="none"/><text fill="#000000" stroke="none" font-family="Arial" font-size="13px" font-style="normal" font-weight="normal" text-decoration="none" x="141" y="732.5">+acceptConditions(token: String, req): null</text></g></g><g transform="translate(-126,-494) scale(1,1)"><g><path fill="none" stroke="none"/><text fill="#000000" stroke="none" font-family="Arial" font-size="13px" font-style="normal" font-weight="normal" text-decoration="none" x="141" y="747.5">+requestLostPassword(message): null</text></g></g><g transform="translate(-126,-494) scale(1,1)"><g><path fill="none" stroke="none"/><text fill="#000000" stroke="none" font-family="Arial" font-size="13px" font-style="normal" font-weight="normal" text-decoration="none" x="141" y="762.5">+changeLostPassword(message): null</text></g></g><g transform="translate(-126,-494) scale(1,1)"><g><path fill="none" stroke="none"/><text fill="#000000" stroke="none" font-family="Arial" font-size="13px" font-style="normal" font-weight="normal" text-decoration="none" x="141" y="777.5">+postTrackData(token: String, idWidget: String): null</text></g></g><g transform="translate(-126,-494) scale(1,1)"><g><path fill="none" stroke="none"/><text fill="#000000" stroke="none" font-family="Arial" font-size="13px" font-style="normal" font-weight="normal" text-decoration="none" x="141" y="792.5">+createOccupantToRemove(token: String): null</text></g></g><g transform="translate(-126,-494) scale(1,1)"><g><path fill="none" stroke="none"/><text fill="#000000" stroke="none" font-family="Arial" font-size="13px" font-style="normal" font-weight="normal" text-decoration="none" x="141" y="807.5">+deleteOccupantToRemove(token: String): null</text></g></g><g transform="translate(-126,-494) scale(1,1)"><g><path fill="none" stroke="none"/><text fill="#000000" stroke="none" font-family="Arial" font-size="13px" font-style="normal" font-weight="normal" text-decoration="none" x="141" y="822.5">+requestMailChange(token: String, message): null</text></g></g><g transform="translate(-126,-494) scale(1,1)"><g><path fill="none" stroke="none"/><text fill="#000000" stroke="none" font-family="Arial" font-size="13px" font-style="normal" font-weight="normal" text-decoration="none" x="141" y="837.5">+checkConfirmationCode(token: String, message): null</text></g></g><g transform="translate(-126,-494) scale(1,1)"><g><path fill="none" stroke="none"/><text fill="#000000" stroke="none" font-family="Arial" font-size="13px" font-style="normal" font-weight="normal" text-decoration="none" x="141" y="852.5">+refreshToken(token: String): null</text></g></g><g transform="translate(-126,-494) scale(1,1)"><rect fill="#C0C0C0" stroke="none" x="711" y="639" width="150.2607421875" height="85" opacity="0.2"/></g><g transform="translate(-126,-494) scale(1,1)"><rect fill="#ffffff" stroke="none" x="704" y="632" width="150.2607421875" height="85"/></g><g transform="translate(-126,-494) scale(1,1)"><path fill="none" stroke="#000000" d="M 704 632 L 854.2607421875 632 L 854.2607421875 717 L 704 717 L 704 632 Z Z" stroke-miterlimit="10"/></g><g transform="translate(-126,-494) scale(1,1)"><path fill="none" stroke="#000000" d="M 704 670 L 854.2607421875 670" stroke-miterlimit="10"/></g><g transform="translate(-126,-494) scale(1,1)"><path fill="none" stroke="#000000" d="M 704 680 L 854.2607421875 680" stroke-miterlimit="10"/></g><g transform="translate(-126,-494) scale(1,1)"><g><path fill="none" stroke="none"/><text fill="#000000" stroke="none" font-family="Arial" font-size="13px" font-style="normal" font-weight="normal" text-decoration="none" x="750.226318359375" y="649.5">«Service»</text></g></g><g transform="translate(-126,-494) scale(1,1)"><g><path fill="none" stroke="none"/><text fill="#000000" stroke="none" font-family="Arial" font-size="13px" font-style="normal" font-weight="bold" text-decoration="none" x="727.82861328125" y="664.5">LoginUserService</text></g></g><g transform="translate(-126,-494) scale(1,1)"><g><path fill="none" stroke="none"/><text fill="#000000" stroke="none" font-family="Arial" font-size="13px" font-style="normal" font-weight="normal" text-decoration="none" x="709" y="697.5">+subscribe(Message)</text></g></g><g transform="translate(-126,-494) scale(1,1)"><g><path fill="none" stroke="none"/><text fill="#000000" stroke="none" font-family="Arial" font-size="13px" font-style="normal" font-weight="normal" text-decoration="none" x="709" y="712.5">+requestLostPassword()</text></g></g><g transform="translate(-126,-494) scale(1,1)"><path fill="none" stroke="#000000" d="M 615 676 L 703 675" stroke-miterlimit="10"/></g><g transform="translate(-126,-494) scale(1,1)"><path fill="none" stroke="#000000" d="M 692.8858135840712 679.3247234759974 L 703 675 L 692.7901489024775 670.9062314957464" stroke-miterlimit="10"/></g><g transform="translate(-126,-494) scale(1,1)"><g><path fill="none" stroke="none"/><text fill="#000000" stroke="none" font-family="Arial" font-size="13px" font-style="normal" font-weight="normal" text-decoration="none" x="632.5" y="694.5">1</text></g></g><g transform="translate(-126,-494) scale(1,1)"><g><path fill="none" stroke="none"/><text fill="#000000" stroke="none" font-family="Arial" font-size="13px" font-style="normal" font-weight="normal" text-decoration="none" x="677.5" y="693.5">1</text></g></g></g></svg>