<svg version="1.1" xmlns="http://www.w3.org/2000/svg" xmlns:xlink="http://www.w3.org/1999/xlink" width="235.29248046875" height="296"><defs/><g><g transform="translate(-334,-438) scale(1,1)"><rect fill="#C0C0C0" stroke="none" x="351" y="455" width="215.29248046875" height="100" opacity="0.2"/></g><g transform="translate(-334,-438) scale(1,1)"><rect fill="#ffffff" stroke="none" x="344" y="448" width="215.29248046875" height="100"/></g><g transform="translate(-334,-438) scale(1,1)"><path fill="none" stroke="#000000" d="M 344 448 L 559.29248046875 448 L 559.29248046875 548 L 344 548 L 344 448 Z Z" stroke-miterlimit="10"/></g><g transform="translate(-334,-438) scale(1,1)"><path fill="none" stroke="#000000" d="M 344 501 L 559.29248046875 501" stroke-miterlimit="10"/></g><g transform="translate(-334,-438) scale(1,1)"><path fill="none" stroke="#000000" d="M 344 511 L 559.29248046875 511" stroke-miterlimit="10"/></g><g transform="translate(-334,-438) scale(1,1)"><g><path fill="none" stroke="none"/><text fill="#000000" stroke="none" font-family="Arial" font-size="13px" font-style="normal" font-weight="normal" text-decoration="none" x="416.239013671875" y="465.5">«Controller»</text></g></g><g transform="translate(-334,-438) scale(1,1)"><g><path fill="none" stroke="none"/><text fill="#000000" stroke="none" font-family="Arial" font-size="13px" font-style="normal" font-weight="bold" text-decoration="none" x="389.150390625" y="480.5">AccountRESTService</text></g></g><g transform="translate(-334,-438) scale(1,1)"><g><path fill="none" stroke="none"/><text fill="#000000" stroke="none" font-family="Arial" font-size="13px" font-style="normal" font-weight="normal" text-decoration="none" x="421.67578125" y="495.5">(from rest)</text></g></g><g transform="translate(-334,-438) scale(1,1)"><g><path fill="none" stroke="none"/><text fill="#000000" stroke="none" font-family="Arial" font-size="13px" font-style="normal" font-weight="normal" text-decoration="none" x="349" y="528.5">+subscribeAccountser(JsonObject)</text></g></g><g transform="translate(-334,-438) scale(1,1)"><g><path fill="none" stroke="none"/><text fill="#000000" stroke="none" font-family="Arial" font-size="13px" font-style="normal" font-weight="normal" text-decoration="none" x="349" y="543.5">+requestLostPassword(JsonObject)</text></g></g><g transform="translate(-334,-438) scale(1,1)"><rect fill="#C0C0C0" stroke="none" x="383" y="631" width="150.2607421875" height="100" opacity="0.2"/></g><g transform="translate(-334,-438) scale(1,1)"><rect fill="#ffffff" stroke="none" x="376" y="624" width="150.2607421875" height="100"/></g><g transform="translate(-334,-438) scale(1,1)"><path fill="none" stroke="#000000" d="M 376 624 L 526.2607421875 624 L 526.2607421875 724 L 376 724 L 376 624 Z Z" stroke-miterlimit="10"/></g><g transform="translate(-334,-438) scale(1,1)"><path fill="none" stroke="#000000" d="M 376 677 L 526.2607421875 677" stroke-miterlimit="10"/></g><g transform="translate(-334,-438) scale(1,1)"><path fill="none" stroke="#000000" d="M 376 687 L 526.2607421875 687" stroke-miterlimit="10"/></g><g transform="translate(-334,-438) scale(1,1)"><g><path fill="none" stroke="none"/><text fill="#000000" stroke="none" font-family="Arial" font-size="13px" font-style="normal" font-weight="normal" text-decoration="none" x="422.226318359375" y="641.5">«Service»</text></g></g><g transform="translate(-334,-438) scale(1,1)"><g><path fill="none" stroke="none"/><text fill="#000000" stroke="none" font-family="Arial" font-size="13px" font-style="normal" font-weight="bold" text-decoration="none" x="399.82861328125" y="656.5">LoginUserService</text></g></g><g transform="translate(-334,-438) scale(1,1)"><g><path fill="none" stroke="none"/><text fill="#000000" stroke="none" font-family="Arial" font-size="13px" font-style="normal" font-weight="normal" text-decoration="none" x="408.15673828125" y="671.5">(from services)</text></g></g><g transform="translate(-334,-438) scale(1,1)"><g><path fill="none" stroke="none"/><text fill="#000000" stroke="none" font-family="Arial" font-size="13px" font-style="normal" font-weight="normal" text-decoration="none" x="381" y="704.5">+subscribe(Message)</text></g></g><g transform="translate(-334,-438) scale(1,1)"><g><path fill="none" stroke="none"/><text fill="#000000" stroke="none" font-family="Arial" font-size="13px" font-style="normal" font-weight="normal" text-decoration="none" x="381" y="719.5">+requestLostPassword()</text></g></g><g transform="translate(-334,-438) scale(1,1)"><path fill="none" stroke="#000000" d="M 451 549 L 451 623" stroke-miterlimit="10"/></g><g transform="translate(-334,-438) scale(1,1)"><path fill="none" stroke="#000000" d="M 446.790482243984 612.8373251423759 L 451 623 L 455.209517756016 612.8373251423759" stroke-miterlimit="10"/></g></g></svg>