<svg version="1.1" xmlns="http://www.w3.org/2000/svg" xmlns:xlink="http://www.w3.org/1999/xlink" width="254.04638671875" height="538"><defs/><g><g transform="translate(-950,-374) scale(1,1)"><rect fill="#C0C0C0" stroke="none" x="1063" y="391" width="68.95361328125" height="37" opacity="0.2"/></g><g transform="translate(-950,-374) scale(1,1)"><rect fill="#ffffff" stroke="none" x="1056" y="384" width="68.95361328125" height="37"/></g><g transform="translate(-950,-374) scale(1,1)"><path fill="none" stroke="#000000" d="M 1056 384 L 1124.95361328125 384 L 1124.95361328125 421 L 1056 421 L 1056 384 Z Z" stroke-miterlimit="10"/></g><g transform="translate(-950,-374) scale(1,1)"><g><path fill="none" stroke="none"/><text fill="#000000" stroke="none" font-family="Arial" font-size="13px" font-style="normal" font-weight="normal" text-decoration="none" x="1066.990478515625" y="401.5">«Entity»</text></g></g><g transform="translate(-950,-374) scale(1,1)"><g><path fill="none" stroke="none"/><text fill="#000000" stroke="none" font-family="Arial" font-size="13px" font-style="normal" font-weight="bold" text-decoration="none" x="1062.655029296875" y="416.5">Occupant</text></g></g><g transform="translate(-950,-374) scale(1,1)"><rect fill="#C0C0C0" stroke="none" x="1063" y="575" width="56.68359375" height="37" opacity="0.2"/></g><g transform="translate(-950,-374) scale(1,1)"><rect fill="#ffffff" stroke="none" x="1056" y="568" width="56.68359375" height="37"/></g><g transform="translate(-950,-374) scale(1,1)"><path fill="none" stroke="#000000" d="M 1056 568 L 1112.68359375 568 L 1112.68359375 605 L 1056 605 L 1056 568 Z Z" stroke-miterlimit="10"/></g><g transform="translate(-950,-374) scale(1,1)"><g><path fill="none" stroke="none"/><text fill="#000000" stroke="none" font-family="Arial" font-size="13px" font-style="normal" font-weight="normal" text-decoration="none" x="1060.85546875" y="585.5">«Entity»</text></g></g><g transform="translate(-950,-374) scale(1,1)"><g><path fill="none" stroke="none"/><text fill="#000000" stroke="none" font-family="Arial" font-size="13px" font-style="normal" font-weight="bold" text-decoration="none" x="1062.305908203125" y="600.5">Occupy</text></g></g><g transform="translate(-950,-374) scale(1,1)"><path fill="none" stroke="#000000" d="M 1099 421 L 1099 464 L 1136 464 L 1136 580 L 1113 580" stroke-miterlimit="10"/></g><g transform="translate(-950,-374) scale(1,1)"><path fill="none" stroke="#000000" d="M 1123.162674857624 575.790482243984 L 1113 580 L 1123.162674857624 584.209517756016" stroke-miterlimit="10"/></g><g transform="translate(-950,-374) scale(1,1)"><g><path fill="none" stroke="none"/><text fill="#000000" stroke="none" font-family="Arial" font-size="13px" font-style="normal" font-weight="normal" text-decoration="none" x="1110.5" y="600.5">-occupies</text></g></g><g transform="translate(-950,-374) scale(1,1)"><g><path fill="none" stroke="none"/><text fill="#000000" stroke="none" font-family="Arial" font-size="13px" font-style="normal" font-weight="normal" text-decoration="none" x="1131.5" y="573.5">*</text></g></g><g transform="translate(-950,-374) scale(1,1)"><path fill="none" stroke="#000000" d="M 1056 580 L 1048 580 L 1048 464 L 1082 464 L 1082 421" stroke-miterlimit="10"/></g><g transform="translate(-950,-374) scale(1,1)"><path fill="none" stroke="#000000" d="M 1086.2095177560159 431.16267485762415 L 1082 421 L 1077.7904822439841 431.16267485762415" stroke-miterlimit="10"/></g><g transform="translate(-950,-374) scale(1,1)"><g><path fill="none" stroke="none"/><text fill="#000000" stroke="none" font-family="Arial" font-size="13px" font-style="normal" font-weight="normal" text-decoration="none" x="1038.5" y="452.5">-occupant</text></g></g><g transform="translate(-950,-374) scale(1,1)"><rect fill="#C0C0C0" stroke="none" x="1063" y="711" width="61" height="37" opacity="0.2"/></g><g transform="translate(-950,-374) scale(1,1)"><rect fill="#ffffff" stroke="none" x="1056" y="704" width="61" height="37"/></g><g transform="translate(-950,-374) scale(1,1)"><path fill="none" stroke="#000000" d="M 1056 704 L 1117 704 L 1117 741 L 1056 741 L 1056 704 Z Z" stroke-miterlimit="10"/></g><g transform="translate(-950,-374) scale(1,1)"><g><path fill="none" stroke="none"/><text fill="#000000" stroke="none" font-family="Arial" font-size="13px" font-style="normal" font-weight="normal" text-decoration="none" x="1063.013671875" y="721.5">«Entity»</text></g></g><g transform="translate(-950,-374) scale(1,1)"><g><path fill="none" stroke="none"/><text fill="#000000" stroke="none" font-family="Arial" font-size="13px" font-style="normal" font-weight="bold" text-decoration="none" x="1062.2900390625" y="736.5">Consent</text></g></g><g transform="translate(-950,-374) scale(1,1)"><path fill="none" stroke="#000000" d="M 1056 722 L 1008 722 L 1008 632 L 1065 632 L 1065 605" stroke-miterlimit="10"/></g><g transform="translate(-950,-374) scale(1,1)"><path fill="none" stroke="#000000" d="M 1069.2095177560159 615.1626748576241 L 1065 605 L 1060.7904822439841 615.1626748576241" stroke-miterlimit="10"/></g><g transform="translate(-950,-374) scale(1,1)"><g><path fill="none" stroke="none"/><text fill="#000000" stroke="none" font-family="Arial" font-size="13px" font-style="normal" font-weight="normal" text-decoration="none" x="1027.5" y="636.5">-occupy</text></g></g><g transform="translate(-950,-374) scale(1,1)"><path fill="none" stroke="#000000" d="M 1101 605 L 1101 632 L 1152 632 L 1152 722 L 1117 722" stroke-miterlimit="10"/></g><g transform="translate(-950,-374) scale(1,1)"><path fill="none" stroke="#000000" d="M 1127.162674857624 717.790482243984 L 1117 722 L 1127.162674857624 726.209517756016" stroke-miterlimit="10"/></g><g transform="translate(-950,-374) scale(1,1)"><g><path fill="none" stroke="none"/><text fill="#000000" stroke="none" font-family="Arial" font-size="13px" font-style="normal" font-weight="normal" text-decoration="none" x="1113.5" y="742.5">-consents</text></g></g><g transform="translate(-950,-374) scale(1,1)"><g><path fill="none" stroke="none"/><text fill="#000000" stroke="none" font-family="Arial" font-size="13px" font-style="normal" font-weight="normal" text-decoration="none" x="1135.5" y="715.5">*</text></g></g><g transform="translate(-950,-374) scale(1,1)"><rect fill="#C0C0C0" stroke="none" x="1039" y="871" width="95.66455078125" height="37" opacity="0.2"/></g><g transform="translate(-950,-374) scale(1,1)"><rect fill="#ffffff" stroke="none" x="1032" y="864" width="95.66455078125" height="37"/></g><g transform="translate(-950,-374) scale(1,1)"><path fill="none" stroke="#000000" d="M 1032 864 L 1127.66455078125 864 L 1127.66455078125 901 L 1032 901 L 1032 864 Z Z" stroke-miterlimit="10"/></g><g transform="translate(-950,-374) scale(1,1)"><g><path fill="none" stroke="none"/><text fill="#000000" stroke="none" font-family="Arial" font-size="13px" font-style="normal" font-weight="normal" text-decoration="none" x="1056.345947265625" y="881.5">«Entity»</text></g></g><g transform="translate(-950,-374) scale(1,1)"><g><path fill="none" stroke="none"/><text fill="#000000" stroke="none" font-family="Arial" font-size="13px" font-style="normal" font-weight="bold" text-decoration="none" x="1039.727783203125" y="896.5">MeteringPoint</text></g></g><g transform="translate(-950,-374) scale(1,1)"><path fill="none" stroke="#000000" d="M 1086 741 L 1086 784 L 960 784 L 960 882 L 1032 882" stroke-miterlimit="10"/></g><g transform="translate(-950,-374) scale(1,1)"><path fill="none" stroke="#000000" d="M 1021.8373251423759 886.209517756016 L 1032 882 L 1021.8373251423758 877.790482243984" stroke-miterlimit="10"/></g><g transform="translate(-950,-374) scale(1,1)"><g><path fill="none" stroke="none"/><text fill="#000000" stroke="none" font-family="Arial" font-size="13px" font-style="normal" font-weight="normal" text-decoration="none" x="963.5" y="873.5">-meteringPoint</text></g></g><g transform="translate(-950,-374) scale(1,1)"><path fill="none" stroke="#000000" d="M 1109 741 L 1109 792 L 1168 792 L 1168 882 L 1128 882" stroke-miterlimit="10"/></g><g transform="translate(-950,-374) scale(1,1)"><path fill="none" stroke="#000000" d="M 1138.162674857624 877.790482243984 L 1128 882 L 1138.162674857624 886.209517756016" stroke-miterlimit="10"/></g><g transform="translate(-950,-374) scale(1,1)"><g><path fill="none" stroke="none"/><text fill="#000000" stroke="none" font-family="Arial" font-size="13px" font-style="normal" font-weight="normal" text-decoration="none" x="1107.5" y="902.5">-meteringPoints</text></g></g><g transform="translate(-950,-374) scale(1,1)"><g><path fill="none" stroke="none"/><text fill="#000000" stroke="none" font-family="Arial" font-size="13px" font-style="normal" font-weight="normal" text-decoration="none" x="1146.5" y="875.5">*</text></g></g><g transform="translate(-950,-374) scale(1,1)"><path fill="none" stroke="#000000" d="M 1032 882 L 1016 882 L 1016 784 L 1063 784 L 1063 741" stroke-miterlimit="10"/></g><g transform="translate(-950,-374) scale(1,1)"><path fill="none" stroke="#000000" d="M 1067.2095177560159 751.1626748576241 L 1063 741 L 1058.7904822439841 751.1626748576241" stroke-miterlimit="10"/></g><g transform="translate(-950,-374) scale(1,1)"><g><path fill="none" stroke="none"/><text fill="#000000" stroke="none" font-family="Arial" font-size="13px" font-style="normal" font-weight="normal" text-decoration="none" x="1023.5" y="772.5">-consent</text></g></g><g transform="translate(-950,-374) scale(1,1)"><path fill="none" stroke="#000000" d="M 1128 882 L 1128 882 L 1128 784 L 1100 784 L 1100 741" stroke-miterlimit="10"/></g><g transform="translate(-950,-374) scale(1,1)"><path fill="none" stroke="#000000" d="M 1104.2095177560159 751.1626748576241 L 1100 741 L 1095.7904822439841 751.1626748576241" stroke-miterlimit="10"/></g><g transform="translate(-950,-374) scale(1,1)"><g><path fill="none" stroke="none"/><text fill="#000000" stroke="none" font-family="Arial" font-size="13px" font-style="normal" font-weight="normal" text-decoration="none" x="1056.5" y="772.5">-consents</text></g></g><g transform="translate(-950,-374) scale(1,1)"><g><path fill="none" stroke="none"/><text fill="#000000" stroke="none" font-family="Arial" font-size="13px" font-style="normal" font-weight="normal" text-decoration="none" x="1109.5" y="768.5">*</text></g></g></g></svg>