<svg version="1.1" xmlns="http://www.w3.org/2000/svg" xmlns:xlink="http://www.w3.org/1999/xlink" width="260.73876953125" height="140"><defs/><g><g transform="translate(-454,-358) scale(1,1)"><rect fill="#C0C0C0" stroke="none" x="471" y="375" width="240.73876953125" height="120" opacity="0.2"/></g><g transform="translate(-454,-358) scale(1,1)"><rect fill="#ffffff" stroke="none" x="464" y="368" width="240.73876953125" height="120"/></g><g transform="translate(-454,-358) scale(1,1)"><path fill="none" stroke="#000000" d="M 464 368 L 704.73876953125 368 L 704.73876953125 488 L 464 488 L 464 368 Z Z" stroke-miterlimit="10"/></g><g transform="translate(-454,-358) scale(1,1)"><path fill="none" stroke="#000000" d="M 464 391 L 704.73876953125 391" stroke-miterlimit="10"/></g><g transform="translate(-454,-358) scale(1,1)"><path fill="none" stroke="#000000" d="M 492.05908203125 391 L 492.05908203125 488" stroke-miterlimit="10"/></g><g transform="translate(-454,-358) scale(1,1)"><path fill="none" stroke="#000000" d="M 611.181640625 391 L 611.181640625 488" stroke-miterlimit="10"/></g><g transform="translate(-454,-358) scale(1,1)"><g><path fill="none" stroke="none"/><text fill="#000000" stroke="none" font-family="Arial" font-size="13px" font-style="normal" font-weight="bold" text-decoration="none" x="554.014892578125" y="385.5">cron_table</text></g></g><g transform="translate(-454,-358) scale(1,1)"><g><path fill="none" stroke="none"/><text fill="#000000" stroke="none" font-family="Arial" font-size="13px" font-style="normal" font-weight="normal" text-decoration="none" x="469" y="409">PK</text></g></g><g transform="translate(-454,-358) scale(1,1)"><g><path fill="none" stroke="none"/><text fill="#000000" stroke="none" font-family="Arial" font-size="13px" font-style="normal" font-weight="normal" text-decoration="none" x="497.05908203125" y="409">id_cron</text></g></g><g transform="translate(-454,-358) scale(1,1)"><g><path fill="none" stroke="none"/><text fill="#000000" stroke="none" font-family="Arial" font-size="13px" font-style="normal" font-weight="normal" text-decoration="none" x="616.181640625" y="409">varchar(255)</text></g></g><g transform="translate(-454,-358) scale(1,1)"><g><path fill="none" stroke="none"/><text fill="#000000" stroke="none" font-family="Arial" font-size="13px" font-style="normal" font-weight="normal" text-decoration="none" x="469" y="408.5"></text></g></g><g transform="translate(-454,-358) scale(1,1)"><g><path fill="none" stroke="none"/><text fill="#000000" stroke="none" font-family="Arial" font-size="13px" font-style="normal" font-weight="normal" text-decoration="none" x="469" y="424"></text></g></g><g transform="translate(-454,-358) scale(1,1)"><g><path fill="none" stroke="none"/><text fill="#000000" stroke="none" font-family="Arial" font-size="13px" font-style="normal" font-weight="normal" text-decoration="none" x="497.05908203125" y="424">cron_expression</text></g></g><g transform="translate(-454,-358) scale(1,1)"><g><path fill="none" stroke="none"/><text fill="#000000" stroke="none" font-family="Arial" font-size="13px" font-style="normal" font-weight="normal" text-decoration="none" x="616.181640625" y="424">varchar(255)</text></g></g><g transform="translate(-454,-358) scale(1,1)"><g><path fill="none" stroke="none"/><text fill="#000000" stroke="none" font-family="Arial" font-size="13px" font-style="normal" font-weight="normal" text-decoration="none" x="469" y="423.5"></text></g></g><g transform="translate(-454,-358) scale(1,1)"><g><path fill="none" stroke="none"/><text fill="#000000" stroke="none" font-family="Arial" font-size="13px" font-style="normal" font-weight="normal" text-decoration="none" x="469" y="439"></text></g></g><g transform="translate(-454,-358) scale(1,1)"><g><path fill="none" stroke="none"/><text fill="#000000" stroke="none" font-family="Arial" font-size="13px" font-style="normal" font-weight="normal" text-decoration="none" x="497.05908203125" y="439">cron_activated</text></g></g><g transform="translate(-454,-358) scale(1,1)"><g><path fill="none" stroke="none"/><text fill="#000000" stroke="none" font-family="Arial" font-size="13px" font-style="normal" font-weight="normal" text-decoration="none" x="616.181640625" y="439">varchar(255)</text></g></g><g transform="translate(-454,-358) scale(1,1)"><g><path fill="none" stroke="none"/><text fill="#000000" stroke="none" font-family="Arial" font-size="13px" font-style="normal" font-weight="normal" text-decoration="none" x="469" y="438.5"></text></g></g><g transform="translate(-454,-358) scale(1,1)"><g><path fill="none" stroke="none"/><text fill="#000000" stroke="none" font-family="Arial" font-size="13px" font-style="normal" font-weight="normal" text-decoration="none" x="469" y="454"></text></g></g><g transform="translate(-454,-358) scale(1,1)"><g><path fill="none" stroke="none"/><text fill="#000000" stroke="none" font-family="Arial" font-size="13px" font-style="normal" font-weight="normal" text-decoration="none" x="497.05908203125" y="454">cron_class_name</text></g></g><g transform="translate(-454,-358) scale(1,1)"><g><path fill="none" stroke="none"/><text fill="#000000" stroke="none" font-family="Arial" font-size="13px" font-style="normal" font-weight="normal" text-decoration="none" x="616.181640625" y="454">boolean</text></g></g><g transform="translate(-454,-358) scale(1,1)"><g><path fill="none" stroke="none"/><text fill="#000000" stroke="none" font-family="Arial" font-size="13px" font-style="normal" font-weight="normal" text-decoration="none" x="469" y="453.5"></text></g></g><g transform="translate(-454,-358) scale(1,1)"><g><path fill="none" stroke="none"/><text fill="#000000" stroke="none" font-family="Arial" font-size="13px" font-style="normal" font-weight="normal" text-decoration="none" x="469" y="469"></text></g></g><g transform="translate(-454,-358) scale(1,1)"><g><path fill="none" stroke="none"/><text fill="#000000" stroke="none" font-family="Arial" font-size="13px" font-style="normal" font-weight="normal" text-decoration="none" x="497.05908203125" y="469">cron_desr</text></g></g><g transform="translate(-454,-358) scale(1,1)"><g><path fill="none" stroke="none"/><text fill="#000000" stroke="none" font-family="Arial" font-size="13px" font-style="normal" font-weight="normal" text-decoration="none" x="616.181640625" y="469">varchar(255)</text></g></g><g transform="translate(-454,-358) scale(1,1)"><g><path fill="none" stroke="none"/><text fill="#000000" stroke="none" font-family="Arial" font-size="13px" font-style="normal" font-weight="normal" text-decoration="none" x="469" y="468.5"></text></g></g><g transform="translate(-454,-358) scale(1,1)"><g><path fill="none" stroke="none"/><text fill="#000000" stroke="none" font-family="Arial" font-size="13px" font-style="normal" font-weight="normal" text-decoration="none" x="469" y="484"></text></g></g><g transform="translate(-454,-358) scale(1,1)"><g><path fill="none" stroke="none"/><text fill="#000000" stroke="none" font-family="Arial" font-size="13px" font-style="normal" font-weight="normal" text-decoration="none" x="497.05908203125" y="484">cron_params</text></g></g><g transform="translate(-454,-358) scale(1,1)"><g><path fill="none" stroke="none"/><text fill="#000000" stroke="none" font-family="Arial" font-size="13px" font-style="normal" font-weight="normal" text-decoration="none" x="616.181640625" y="484">varchar(1000)</text></g></g><g transform="translate(-454,-358) scale(1,1)"><g><path fill="none" stroke="none"/><text fill="#000000" stroke="none" font-family="Arial" font-size="13px" font-style="normal" font-weight="normal" text-decoration="none" x="469" y="483.5"></text></g></g></g></svg>