<svg version="1.1" xmlns="http://www.w3.org/2000/svg" xmlns:xlink="http://www.w3.org/1999/xlink" width="439.3662109375" height="329"><defs/><g><g transform="translate(-198,-478) scale(1,1)"><rect fill="#C0C0C0" stroke="none" x="215" y="495" width="197.95703125" height="115" opacity="0.2"/></g><g transform="translate(-198,-478) scale(1,1)"><rect fill="#ffffff" stroke="none" x="208" y="488" width="197.95703125" height="115"/></g><g transform="translate(-198,-478) scale(1,1)"><path fill="none" stroke="#000000" d="M 208 488 L 405.95703125 488 L 405.95703125 603 L 208 603 L 208 488 Z Z" stroke-miterlimit="10"/></g><g transform="translate(-198,-478) scale(1,1)"><path fill="none" stroke="#000000" d="M 208 541 L 405.95703125 541" stroke-miterlimit="10"/></g><g transform="translate(-198,-478) scale(1,1)"><path fill="none" stroke="#000000" d="M 208 551 L 405.95703125 551" stroke-miterlimit="10"/></g><g transform="translate(-198,-478) scale(1,1)"><g><path fill="none" stroke="none"/><text fill="#000000" stroke="none" font-family="Arial" font-size="13px" font-style="normal" font-weight="normal" text-decoration="none" x="271.5712890625" y="505.5">«Controller»</text></g></g><g transform="translate(-198,-478) scale(1,1)"><g><path fill="none" stroke="none"/><text fill="#000000" stroke="none" font-family="Arial" font-size="13px" font-style="normal" font-weight="bold" text-decoration="none" x="264.350830078125" y="520.5">lostLoginCtrl.js</text></g></g><g transform="translate(-198,-478) scale(1,1)"><g><path fill="none" stroke="none"/><text fill="#000000" stroke="none" font-family="Arial" font-size="13px" font-style="normal" font-weight="normal" text-decoration="none" x="260.13916015625" y="535.5">(from loginView)</text></g></g><g transform="translate(-198,-478) scale(1,1)"><g><path fill="none" stroke="none"/><text fill="#000000" stroke="none" font-family="Arial" font-size="13px" font-style="normal" font-weight="normal" text-decoration="none" x="213" y="568.5">+$scope.isValideMail()</text></g></g><g transform="translate(-198,-478) scale(1,1)"><g><path fill="none" stroke="none"/><text fill="#000000" stroke="none" font-family="Arial" font-size="13px" font-style="normal" font-weight="normal" text-decoration="none" x="213" y="583.5">+$scope.changeUserPassword()</text></g></g><g transform="translate(-198,-478) scale(1,1)"><g><path fill="none" stroke="none"/><text fill="#000000" stroke="none" font-family="Arial" font-size="13px" font-style="normal" font-weight="normal" text-decoration="none" x="213" y="598.5">+$scope.init()</text></g></g><g transform="translate(-198,-478) scale(1,1)"><rect fill="#C0C0C0" stroke="none" x="495" y="495" width="135.80712890625" height="190" opacity="0.2"/></g><g transform="translate(-198,-478) scale(1,1)"><rect fill="#ffffff" stroke="none" x="488" y="488" width="135.80712890625" height="190"/></g><g transform="translate(-198,-478) scale(1,1)"><path fill="none" stroke="#000000" d="M 488 488 L 623.80712890625 488 L 623.80712890625 678 L 488 678 L 488 488 Z Z" stroke-miterlimit="10"/></g><g transform="translate(-198,-478) scale(1,1)"><path fill="none" stroke="#000000" d="M 488 541 L 623.80712890625 541" stroke-miterlimit="10"/></g><g transform="translate(-198,-478) scale(1,1)"><path fill="none" stroke="#000000" d="M 488 551 L 623.80712890625 551" stroke-miterlimit="10"/></g><g transform="translate(-198,-478) scale(1,1)"><g><path fill="none" stroke="none"/><text fill="#000000" stroke="none" font-family="Arial" font-size="13px" font-style="normal" font-weight="normal" text-decoration="none" x="520.496337890625" y="505.5">«Controller»</text></g></g><g transform="translate(-198,-478) scale(1,1)"><g><path fill="none" stroke="none"/><text fill="#000000" stroke="none" font-family="Arial" font-size="13px" font-style="normal" font-weight="bold" text-decoration="none" x="511.476318359375" y="520.5">subscribeCtrl.js</text></g></g><g transform="translate(-198,-478) scale(1,1)"><g><path fill="none" stroke="none"/><text fill="#000000" stroke="none" font-family="Arial" font-size="13px" font-style="normal" font-weight="normal" text-decoration="none" x="509.064208984375" y="535.5">(from loginView)</text></g></g><g transform="translate(-198,-478) scale(1,1)"><g><path fill="none" stroke="none"/><text fill="#000000" stroke="none" font-family="Arial" font-size="13px" font-style="normal" font-weight="normal" text-decoration="none" x="493" y="568.5">+$scope.init()</text></g></g><g transform="translate(-198,-478) scale(1,1)"><g><path fill="none" stroke="none"/><text fill="#000000" stroke="none" font-family="Arial" font-size="13px" font-style="normal" font-weight="normal" text-decoration="none" x="493" y="583.5">+$scope.back()</text></g></g><g transform="translate(-198,-478) scale(1,1)"><g><path fill="none" stroke="none"/><text fill="#000000" stroke="none" font-family="Arial" font-size="13px" font-style="normal" font-weight="normal" text-decoration="none" x="493" y="598.5">+$scope.resetBools()</text></g></g><g transform="translate(-198,-478) scale(1,1)"><g><path fill="none" stroke="none"/><text fill="#000000" stroke="none" font-family="Arial" font-size="13px" font-style="normal" font-weight="normal" text-decoration="none" x="493" y="613.5">+$scope.getAllCities()</text></g></g><g transform="translate(-198,-478) scale(1,1)"><g><path fill="none" stroke="none"/><text fill="#000000" stroke="none" font-family="Arial" font-size="13px" font-style="normal" font-weight="normal" text-decoration="none" x="493" y="628.5">+$scope.next()</text></g></g><g transform="translate(-198,-478) scale(1,1)"><g><path fill="none" stroke="none"/><text fill="#000000" stroke="none" font-family="Arial" font-size="13px" font-style="normal" font-weight="normal" text-decoration="none" x="493" y="643.5">+$scope.compile()</text></g></g><g transform="translate(-198,-478) scale(1,1)"><g><path fill="none" stroke="none"/><text fill="#000000" stroke="none" font-family="Arial" font-size="13px" font-style="normal" font-weight="normal" text-decoration="none" x="493" y="658.5">+$scope.suscribe()</text></g></g><g transform="translate(-198,-478) scale(1,1)"><g><path fill="none" stroke="none"/><text fill="#000000" stroke="none" font-family="Arial" font-size="13px" font-style="normal" font-weight="normal" text-decoration="none" x="493" y="673.5">+$scope.callback()</text></g></g><g transform="translate(-198,-478) scale(1,1)"><rect fill="#C0C0C0" stroke="none" x="223" y="647" width="173.39794921875" height="85" opacity="0.2"/></g><g transform="translate(-198,-478) scale(1,1)"><rect fill="#ffffff" stroke="none" x="216" y="640" width="173.39794921875" height="85"/></g><g transform="translate(-198,-478) scale(1,1)"><path fill="none" stroke="#000000" d="M 216 640 L 389.39794921875 640 L 389.39794921875 725 L 216 725 L 216 640 Z Z" stroke-miterlimit="10"/></g><g transform="translate(-198,-478) scale(1,1)"><path fill="none" stroke="#000000" d="M 216 693 L 389.39794921875 693" stroke-miterlimit="10"/></g><g transform="translate(-198,-478) scale(1,1)"><path fill="none" stroke="#000000" d="M 216 703 L 389.39794921875 703" stroke-miterlimit="10"/></g><g transform="translate(-198,-478) scale(1,1)"><g><path fill="none" stroke="none"/><text fill="#000000" stroke="none" font-family="Arial" font-size="13px" font-style="normal" font-weight="normal" text-decoration="none" x="273.794921875" y="657.5">«Service»</text></g></g><g transform="translate(-198,-478) scale(1,1)"><g><path fill="none" stroke="none"/><text fill="#000000" stroke="none" font-family="Arial" font-size="13px" font-style="normal" font-weight="bold" text-decoration="none" x="271.27490234375" y="672.5">Useractory</text></g></g><g transform="translate(-198,-478) scale(1,1)"><g><path fill="none" stroke="none"/><text fill="#000000" stroke="none" font-family="Arial" font-size="13px" font-style="normal" font-weight="normal" text-decoration="none" x="258.639892578125" y="687.5">(from common)</text></g></g><g transform="translate(-198,-478) scale(1,1)"><g><path fill="none" stroke="none"/><text fill="#000000" stroke="none" font-family="Arial" font-size="13px" font-style="normal" font-weight="normal" text-decoration="none" x="221" y="720.5">+changePasswordRequest()</text></g></g><g transform="translate(-198,-478) scale(1,1)"><path fill="none" stroke="#000000" d="M 304 604 L 303 639" stroke-miterlimit="10" stroke-dasharray="3"/></g><g transform="translate(-198,-478) scale(1,1)"><path fill="none" stroke="#000000" d="M 299.0824430594122 628.7212477597106 L 303 639 L 307.4980443328709 628.961693510381" stroke-miterlimit="10"/></g><g transform="translate(-198,-478) scale(1,1)"><rect fill="#C0C0C0" stroke="none" x="487" y="719" width="147.3662109375" height="85" opacity="0.2"/></g><g transform="translate(-198,-478) scale(1,1)"><rect fill="#ffffff" stroke="none" x="480" y="712" width="147.3662109375" height="85"/></g><g transform="translate(-198,-478) scale(1,1)"><path fill="none" stroke="#000000" d="M 480 712 L 627.3662109375 712 L 627.3662109375 797 L 480 797 L 480 712 Z Z" stroke-miterlimit="10"/></g><g transform="translate(-198,-478) scale(1,1)"><path fill="none" stroke="#000000" d="M 480 765 L 627.3662109375 765" stroke-miterlimit="10"/></g><g transform="translate(-198,-478) scale(1,1)"><path fill="none" stroke="#000000" d="M 480 775 L 627.3662109375 775" stroke-miterlimit="10"/></g><g transform="translate(-198,-478) scale(1,1)"><g><path fill="none" stroke="none"/><text fill="#000000" stroke="none" font-family="Arial" font-size="13px" font-style="normal" font-weight="normal" text-decoration="none" x="524.779052734375" y="729.5">«Service»</text></g></g><g transform="translate(-198,-478) scale(1,1)"><g><path fill="none" stroke="none"/><text fill="#000000" stroke="none" font-family="Arial" font-size="13px" font-style="normal" font-weight="bold" text-decoration="none" x="516.108154296875" y="744.5">LoginFactory</text></g></g><g transform="translate(-198,-478) scale(1,1)"><g><path fill="none" stroke="none"/><text fill="#000000" stroke="none" font-family="Arial" font-size="13px" font-style="normal" font-weight="normal" text-decoration="none" x="509.6240234375" y="759.5">(from common)</text></g></g><g transform="translate(-198,-478) scale(1,1)"><g><path fill="none" stroke="none"/><text fill="#000000" stroke="none" font-family="Arial" font-size="13px" font-style="normal" font-weight="normal" text-decoration="none" x="485" y="792.5">+subcribeNewAccount()</text></g></g><g transform="translate(-198,-478) scale(1,1)"><path fill="none" stroke="#000000" d="M 554 679 L 554 711" stroke-miterlimit="10" stroke-dasharray="3"/></g><g transform="translate(-198,-478) scale(1,1)"><path fill="none" stroke="#000000" d="M 549.790482243984 700.8373251423759 L 554 711 L 558.209517756016 700.8373251423759" stroke-miterlimit="10"/></g></g></svg>