<svg version="1.1" xmlns="http://www.w3.org/2000/svg" xmlns:xlink="http://www.w3.org/1999/xlink" width="439.3662109375" height="362"><defs/><g><g transform="translate(-198,-478) scale(1,1)"><rect fill="#C0C0C0" stroke="none" x="215" y="495" width="197.95703125" height="100" opacity="0.2"/></g><g transform="translate(-198,-478) scale(1,1)"><rect fill="#ffffff" stroke="none" x="208" y="488" width="197.95703125" height="100"/></g><g transform="translate(-198,-478) scale(1,1)"><path fill="none" stroke="#000000" d="M 208 488 L 405.95703125 488 L 405.95703125 588 L 208 588 L 208 488 Z Z" stroke-miterlimit="10"/></g><g transform="translate(-198,-478) scale(1,1)"><path fill="none" stroke="#000000" d="M 208 526 L 405.95703125 526" stroke-miterlimit="10"/></g><g transform="translate(-198,-478) scale(1,1)"><path fill="none" stroke="#000000" d="M 208 536 L 405.95703125 536" stroke-miterlimit="10"/></g><g transform="translate(-198,-478) scale(1,1)"><g><path fill="none" stroke="none"/><text fill="#000000" stroke="none" font-family="Arial" font-size="13px" font-style="normal" font-weight="normal" text-decoration="none" x="271.5712890625" y="505.5">«Controller»</text></g></g><g transform="translate(-198,-478) scale(1,1)"><g><path fill="none" stroke="none"/><text fill="#000000" stroke="none" font-family="Arial" font-size="13px" font-style="normal" font-weight="bold" text-decoration="none" x="264.350830078125" y="520.5">lostLoginCtrl.js</text></g></g><g transform="translate(-198,-478) scale(1,1)"><g><path fill="none" stroke="none"/><text fill="#000000" stroke="none" font-family="Arial" font-size="13px" font-style="normal" font-weight="normal" text-decoration="none" x="213" y="553.5">+$scope.isValideMail()</text></g></g><g transform="translate(-198,-478) scale(1,1)"><g><path fill="none" stroke="none"/><text fill="#000000" stroke="none" font-family="Arial" font-size="13px" font-style="normal" font-weight="normal" text-decoration="none" x="213" y="568.5">+$scope.changeUserPassword()</text></g></g><g transform="translate(-198,-478) scale(1,1)"><g><path fill="none" stroke="none"/><text fill="#000000" stroke="none" font-family="Arial" font-size="13px" font-style="normal" font-weight="normal" text-decoration="none" x="213" y="583.5">+$scope.init()</text></g></g><g transform="translate(-198,-478) scale(1,1)"><rect fill="#C0C0C0" stroke="none" x="495" y="495" width="135.80712890625" height="175" opacity="0.2"/></g><g transform="translate(-198,-478) scale(1,1)"><rect fill="#ffffff" stroke="none" x="488" y="488" width="135.80712890625" height="175"/></g><g transform="translate(-198,-478) scale(1,1)"><path fill="none" stroke="#000000" d="M 488 488 L 623.80712890625 488 L 623.80712890625 663 L 488 663 L 488 488 Z Z" stroke-miterlimit="10"/></g><g transform="translate(-198,-478) scale(1,1)"><path fill="none" stroke="#000000" d="M 488 526 L 623.80712890625 526" stroke-miterlimit="10"/></g><g transform="translate(-198,-478) scale(1,1)"><path fill="none" stroke="#000000" d="M 488 536 L 623.80712890625 536" stroke-miterlimit="10"/></g><g transform="translate(-198,-478) scale(1,1)"><g><path fill="none" stroke="none"/><text fill="#000000" stroke="none" font-family="Arial" font-size="13px" font-style="normal" font-weight="normal" text-decoration="none" x="520.496337890625" y="505.5">«Controller»</text></g></g><g transform="translate(-198,-478) scale(1,1)"><g><path fill="none" stroke="none"/><text fill="#000000" stroke="none" font-family="Arial" font-size="13px" font-style="normal" font-weight="bold" text-decoration="none" x="511.476318359375" y="520.5">subscribeCtrl.js</text></g></g><g transform="translate(-198,-478) scale(1,1)"><g><path fill="none" stroke="none"/><text fill="#000000" stroke="none" font-family="Arial" font-size="13px" font-style="normal" font-weight="normal" text-decoration="none" x="493" y="553.5">+$scope.init()</text></g></g><g transform="translate(-198,-478) scale(1,1)"><g><path fill="none" stroke="none"/><text fill="#000000" stroke="none" font-family="Arial" font-size="13px" font-style="normal" font-weight="normal" text-decoration="none" x="493" y="568.5">+$scope.back()</text></g></g><g transform="translate(-198,-478) scale(1,1)"><g><path fill="none" stroke="none"/><text fill="#000000" stroke="none" font-family="Arial" font-size="13px" font-style="normal" font-weight="normal" text-decoration="none" x="493" y="583.5">+$scope.resetBools()</text></g></g><g transform="translate(-198,-478) scale(1,1)"><g><path fill="none" stroke="none"/><text fill="#000000" stroke="none" font-family="Arial" font-size="13px" font-style="normal" font-weight="normal" text-decoration="none" x="493" y="598.5">+$scope.getAllCities()</text></g></g><g transform="translate(-198,-478) scale(1,1)"><g><path fill="none" stroke="none"/><text fill="#000000" stroke="none" font-family="Arial" font-size="13px" font-style="normal" font-weight="normal" text-decoration="none" x="493" y="613.5">+$scope.next()</text></g></g><g transform="translate(-198,-478) scale(1,1)"><g><path fill="none" stroke="none"/><text fill="#000000" stroke="none" font-family="Arial" font-size="13px" font-style="normal" font-weight="normal" text-decoration="none" x="493" y="628.5">+$scope.compile()</text></g></g><g transform="translate(-198,-478) scale(1,1)"><g><path fill="none" stroke="none"/><text fill="#000000" stroke="none" font-family="Arial" font-size="13px" font-style="normal" font-weight="normal" text-decoration="none" x="493" y="643.5">+$scope.suscribe()</text></g></g><g transform="translate(-198,-478) scale(1,1)"><g><path fill="none" stroke="none"/><text fill="#000000" stroke="none" font-family="Arial" font-size="13px" font-style="normal" font-weight="normal" text-decoration="none" x="493" y="658.5">+$scope.callback()</text></g></g><g transform="translate(-198,-478) scale(1,1)"><rect fill="#C0C0C0" stroke="none" x="223" y="647" width="173.39794921875" height="190" opacity="0.2"/></g><g transform="translate(-198,-478) scale(1,1)"><rect fill="#ffffff" stroke="none" x="216" y="640" width="173.39794921875" height="190"/></g><g transform="translate(-198,-478) scale(1,1)"><path fill="none" stroke="#000000" d="M 216 640 L 389.39794921875 640 L 389.39794921875 830 L 216 830 L 216 640 Z Z" stroke-miterlimit="10"/></g><g transform="translate(-198,-478) scale(1,1)"><path fill="none" stroke="#000000" d="M 216 678 L 389.39794921875 678" stroke-miterlimit="10"/></g><g transform="translate(-198,-478) scale(1,1)"><path fill="none" stroke="#000000" d="M 216 688 L 389.39794921875 688" stroke-miterlimit="10"/></g><g transform="translate(-198,-478) scale(1,1)"><g><path fill="none" stroke="none"/><text fill="#000000" stroke="none" font-family="Arial" font-size="13px" font-style="normal" font-weight="normal" text-decoration="none" x="273.794921875" y="657.5">«Service»</text></g></g><g transform="translate(-198,-478) scale(1,1)"><g><path fill="none" stroke="none"/><text fill="#000000" stroke="none" font-family="Arial" font-size="13px" font-style="normal" font-weight="bold" text-decoration="none" x="267.304443359375" y="672.5">UserFactory</text></g></g><g transform="translate(-198,-478) scale(1,1)"><g><path fill="none" stroke="none"/><text fill="#000000" stroke="none" font-family="Arial" font-size="13px" font-style="normal" font-weight="normal" text-decoration="none" x="221" y="705.5">+changePasswordRequest()</text></g></g><g transform="translate(-198,-478) scale(1,1)"><g><path fill="none" stroke="none"/><text fill="#000000" stroke="none" font-family="Arial" font-size="13px" font-style="normal" font-weight="normal" text-decoration="none" x="221" y="720.5">+clientConnectGrdfAdict()</text></g></g><g transform="translate(-198,-478) scale(1,1)"><g><path fill="none" stroke="none"/><text fill="#000000" stroke="none" font-family="Arial" font-size="13px" font-style="normal" font-weight="normal" text-decoration="none" x="221" y="735.5">+isConnected()</text></g></g><g transform="translate(-198,-478) scale(1,1)"><g><path fill="none" stroke="none"/><text fill="#000000" stroke="none" font-family="Arial" font-size="13px" font-style="normal" font-weight="normal" text-decoration="none" x="221" y="750.5">+getUserId()</text></g></g><g transform="translate(-198,-478) scale(1,1)"><g><path fill="none" stroke="none"/><text fill="#000000" stroke="none" font-family="Arial" font-size="13px" font-style="normal" font-weight="normal" text-decoration="none" x="221" y="765.5">+getUserOccupyId()</text></g></g><g transform="translate(-198,-478) scale(1,1)"><g><path fill="none" stroke="none"/><text fill="#000000" stroke="none" font-family="Arial" font-size="13px" font-style="normal" font-weight="normal" text-decoration="none" x="221" y="780.5">+getUserName()</text></g></g><g transform="translate(-198,-478) scale(1,1)"><g><path fill="none" stroke="none"/><text fill="#000000" stroke="none" font-family="Arial" font-size="13px" font-style="normal" font-weight="normal" text-decoration="none" x="221" y="795.5">+getUserIdPromise()</text></g></g><g transform="translate(-198,-478) scale(1,1)"><g><path fill="none" stroke="none"/><text fill="#000000" stroke="none" font-family="Arial" font-size="13px" font-style="normal" font-weight="normal" text-decoration="none" x="221" y="810.5">+getUserOccupyStartDate()</text></g></g><g transform="translate(-198,-478) scale(1,1)"><g><path fill="none" stroke="none"/><text fill="#000000" stroke="none" font-family="Arial" font-size="13px" font-style="normal" font-weight="normal" text-decoration="none" x="221" y="825.5">+getUserOccupyEndDate()</text></g></g><g transform="translate(-198,-478) scale(1,1)"><path fill="none" stroke="#000000" d="M 305 589 L 304 639" stroke-miterlimit="10" stroke-dasharray="3"/></g><g transform="translate(-198,-478) scale(1,1)"><path fill="none" stroke="#000000" d="M 299.9945367536925 628.755183545691 L 304 639 L 308.4118889635959 628.9235305898891" stroke-miterlimit="10"/></g><g transform="translate(-198,-478) scale(1,1)"><rect fill="#C0C0C0" stroke="none" x="487" y="719" width="147.3662109375" height="70" opacity="0.2"/></g><g transform="translate(-198,-478) scale(1,1)"><rect fill="#ffffff" stroke="none" x="480" y="712" width="147.3662109375" height="70"/></g><g transform="translate(-198,-478) scale(1,1)"><path fill="none" stroke="#000000" d="M 480 712 L 627.3662109375 712 L 627.3662109375 782 L 480 782 L 480 712 Z Z" stroke-miterlimit="10"/></g><g transform="translate(-198,-478) scale(1,1)"><path fill="none" stroke="#000000" d="M 480 750 L 627.3662109375 750" stroke-miterlimit="10"/></g><g transform="translate(-198,-478) scale(1,1)"><path fill="none" stroke="#000000" d="M 480 760 L 627.3662109375 760" stroke-miterlimit="10"/></g><g transform="translate(-198,-478) scale(1,1)"><g><path fill="none" stroke="none"/><text fill="#000000" stroke="none" font-family="Arial" font-size="13px" font-style="normal" font-weight="normal" text-decoration="none" x="524.779052734375" y="729.5">«Service»</text></g></g><g transform="translate(-198,-478) scale(1,1)"><g><path fill="none" stroke="none"/><text fill="#000000" stroke="none" font-family="Arial" font-size="13px" font-style="normal" font-weight="bold" text-decoration="none" x="516.108154296875" y="744.5">LoginFactory</text></g></g><g transform="translate(-198,-478) scale(1,1)"><g><path fill="none" stroke="none"/><text fill="#000000" stroke="none" font-family="Arial" font-size="13px" font-style="normal" font-weight="normal" text-decoration="none" x="485" y="777.5">+subcribeNewAccount()</text></g></g><g transform="translate(-198,-478) scale(1,1)"><path fill="none" stroke="#000000" d="M 554 664 L 553 711" stroke-miterlimit="10" stroke-dasharray="3"/></g><g transform="translate(-198,-478) scale(1,1)"><path fill="none" stroke="#000000" d="M 549.0076129302576 700.7500807083493 L 553 711 L 557.4247434676047 700.9291685921227" stroke-miterlimit="10"/></g></g></svg>