<svg version="1.1" xmlns="http://www.w3.org/2000/svg" xmlns:xlink="http://www.w3.org/1999/xlink" width="545.59033203125" height="637"><defs/><g><g transform="translate(-206,-526) scale(1,1)"><rect fill="#C0C0C0" stroke="none" x="223" y="543" width="173.39794921875" height="190" opacity="0.2"/></g><g transform="translate(-206,-526) scale(1,1)"><rect fill="#ffffff" stroke="none" x="216" y="536" width="173.39794921875" height="190"/></g><g transform="translate(-206,-526) scale(1,1)"><path fill="none" stroke="#000000" d="M 216 536 L 389.39794921875 536 L 389.39794921875 726 L 216 726 L 216 536 Z Z" stroke-miterlimit="10"/></g><g transform="translate(-206,-526) scale(1,1)"><path fill="none" stroke="#000000" d="M 216 574 L 389.39794921875 574" stroke-miterlimit="10"/></g><g transform="translate(-206,-526) scale(1,1)"><path fill="none" stroke="#000000" d="M 216 584 L 389.39794921875 584" stroke-miterlimit="10"/></g><g transform="translate(-206,-526) scale(1,1)"><g><path fill="none" stroke="none"/><text fill="#000000" stroke="none" font-family="Arial" font-size="13px" font-style="normal" font-weight="normal" text-decoration="none" x="273.794921875" y="553.5">«Service»</text></g></g><g transform="translate(-206,-526) scale(1,1)"><g><path fill="none" stroke="none"/><text fill="#000000" stroke="none" font-family="Arial" font-size="13px" font-style="normal" font-weight="bold" text-decoration="none" x="267.304443359375" y="568.5">UserFactory</text></g></g><g transform="translate(-206,-526) scale(1,1)"><g><path fill="none" stroke="none"/><text fill="#000000" stroke="none" font-family="Arial" font-size="13px" font-style="normal" font-weight="normal" text-decoration="none" x="221" y="601.5">+changePasswordRequest()</text></g></g><g transform="translate(-206,-526) scale(1,1)"><g><path fill="none" stroke="none"/><text fill="#000000" stroke="none" font-family="Arial" font-size="13px" font-style="normal" font-weight="normal" text-decoration="none" x="221" y="616.5">+clientConnectGrdfAdict()</text></g></g><g transform="translate(-206,-526) scale(1,1)"><g><path fill="none" stroke="none"/><text fill="#000000" stroke="none" font-family="Arial" font-size="13px" font-style="normal" font-weight="normal" text-decoration="none" x="221" y="631.5">+isConnected()</text></g></g><g transform="translate(-206,-526) scale(1,1)"><g><path fill="none" stroke="none"/><text fill="#000000" stroke="none" font-family="Arial" font-size="13px" font-style="normal" font-weight="normal" text-decoration="none" x="221" y="646.5">+getUserId()</text></g></g><g transform="translate(-206,-526) scale(1,1)"><g><path fill="none" stroke="none"/><text fill="#000000" stroke="none" font-family="Arial" font-size="13px" font-style="normal" font-weight="normal" text-decoration="none" x="221" y="661.5">+getUserOccupyId()</text></g></g><g transform="translate(-206,-526) scale(1,1)"><g><path fill="none" stroke="none"/><text fill="#000000" stroke="none" font-family="Arial" font-size="13px" font-style="normal" font-weight="normal" text-decoration="none" x="221" y="676.5">+getUserName()</text></g></g><g transform="translate(-206,-526) scale(1,1)"><g><path fill="none" stroke="none"/><text fill="#000000" stroke="none" font-family="Arial" font-size="13px" font-style="normal" font-weight="normal" text-decoration="none" x="221" y="691.5">+getUserIdPromise()</text></g></g><g transform="translate(-206,-526) scale(1,1)"><g><path fill="none" stroke="none"/><text fill="#000000" stroke="none" font-family="Arial" font-size="13px" font-style="normal" font-weight="normal" text-decoration="none" x="221" y="706.5">+getUserOccupyStartDate()</text></g></g><g transform="translate(-206,-526) scale(1,1)"><g><path fill="none" stroke="none"/><text fill="#000000" stroke="none" font-family="Arial" font-size="13px" font-style="normal" font-weight="normal" text-decoration="none" x="221" y="721.5">+getUserOccupyEndDate()</text></g></g><g transform="translate(-206,-526) scale(1,1)"><rect fill="#C0C0C0" stroke="none" x="551" y="543" width="147.3662109375" height="70" opacity="0.2"/></g><g transform="translate(-206,-526) scale(1,1)"><rect fill="#ffffff" stroke="none" x="544" y="536" width="147.3662109375" height="70"/></g><g transform="translate(-206,-526) scale(1,1)"><path fill="none" stroke="#000000" d="M 544 536 L 691.3662109375 536 L 691.3662109375 606 L 544 606 L 544 536 Z Z" stroke-miterlimit="10"/></g><g transform="translate(-206,-526) scale(1,1)"><path fill="none" stroke="#000000" d="M 544 574 L 691.3662109375 574" stroke-miterlimit="10"/></g><g transform="translate(-206,-526) scale(1,1)"><path fill="none" stroke="#000000" d="M 544 584 L 691.3662109375 584" stroke-miterlimit="10"/></g><g transform="translate(-206,-526) scale(1,1)"><g><path fill="none" stroke="none"/><text fill="#000000" stroke="none" font-family="Arial" font-size="13px" font-style="normal" font-weight="normal" text-decoration="none" x="588.779052734375" y="553.5">«Service»</text></g></g><g transform="translate(-206,-526) scale(1,1)"><g><path fill="none" stroke="none"/><text fill="#000000" stroke="none" font-family="Arial" font-size="13px" font-style="normal" font-weight="bold" text-decoration="none" x="580.108154296875" y="568.5">LoginFactory</text></g></g><g transform="translate(-206,-526) scale(1,1)"><g><path fill="none" stroke="none"/><text fill="#000000" stroke="none" font-family="Arial" font-size="13px" font-style="normal" font-weight="normal" text-decoration="none" x="549" y="601.5">+subcribeNewAccount()</text></g></g><g transform="translate(-206,-526) scale(1,1)"><rect fill="#C0C0C0" stroke="none" x="271" y="807" width="477.59033203125" height="353" opacity="0.2"/></g><g transform="translate(-206,-526) scale(1,1)"><rect fill="#ffffff" stroke="none" x="264" y="800" width="477.59033203125" height="353"/></g><g transform="translate(-206,-526) scale(1,1)"><path fill="none" stroke="#000000" d="M 264 800 L 741.59033203125 800 L 741.59033203125 1153 L 264 1153 L 264 800 Z Z" stroke-miterlimit="10"/></g><g transform="translate(-206,-526) scale(1,1)"><path fill="none" stroke="#000000" d="M 264 838 L 741.59033203125 838" stroke-miterlimit="10"/></g><g transform="translate(-206,-526) scale(1,1)"><path fill="none" stroke="#000000" d="M 264 966 L 741.59033203125 966" stroke-miterlimit="10"/></g><g transform="translate(-206,-526) scale(1,1)"><g><path fill="none" stroke="none"/><text fill="#000000" stroke="none" font-family="Arial" font-size="13px" font-style="normal" font-weight="normal" text-decoration="none" x="467.387939453125" y="817.5">«Controller»</text></g></g><g transform="translate(-206,-526) scale(1,1)"><g><path fill="none" stroke="none"/><text fill="#000000" stroke="none" font-family="Arial" font-size="13px" font-style="normal" font-weight="bold" text-decoration="none" x="440.29931640625" y="832.5">AccountRESTService</text></g></g><g transform="translate(-206,-526) scale(1,1)"><g><path fill="none" stroke="none"/><text fill="#000000" stroke="none" font-family="Arial" font-size="13px" font-style="normal" font-weight="normal" text-decoration="none" x="269" y="855.5">-serviceCrypt</text></g></g><g transform="translate(-206,-526) scale(1,1)"><g><path fill="none" stroke="none"/><text fill="#000000" stroke="none" font-family="Arial" font-size="13px" font-style="normal" font-weight="normal" text-decoration="none" x="269" y="870.5">-profileMessageProducer</text></g></g><g transform="translate(-206,-526) scale(1,1)"><g><path fill="none" stroke="none"/><text fill="#000000" stroke="none" font-family="Arial" font-size="13px" font-style="normal" font-weight="normal" text-decoration="none" x="269" y="885.5">-loginUserMessageProducer</text></g></g><g transform="translate(-206,-526) scale(1,1)"><g><path fill="none" stroke="none"/><text fill="#000000" stroke="none" font-family="Arial" font-size="13px" font-style="normal" font-weight="normal" text-decoration="none" x="269" y="900.5">-log</text></g></g><g transform="translate(-206,-526) scale(1,1)"><g><path fill="none" stroke="none"/><text fill="#000000" stroke="none" font-family="Arial" font-size="13px" font-style="normal" font-weight="normal" text-decoration="none" x="269" y="915.5">-honeyPot</text></g></g><g transform="translate(-206,-526) scale(1,1)"><g><path fill="none" stroke="none"/><text fill="#000000" stroke="none" font-family="Arial" font-size="13px" font-style="normal" font-weight="normal" text-decoration="none" x="269" y="930.5">-singletonSecurity</text></g></g><g transform="translate(-206,-526) scale(1,1)"><g><path fill="none" stroke="none"/><text fill="#000000" stroke="none" font-family="Arial" font-size="13px" font-style="normal" font-weight="normal" text-decoration="none" x="269" y="945.5">-loginUserService</text></g></g><g transform="translate(-206,-526) scale(1,1)"><g><path fill="none" stroke="none"/><text fill="#000000" stroke="none" font-family="Arial" font-size="13px" font-style="normal" font-weight="normal" text-decoration="none" x="269" y="960.5">-loginLogger</text></g></g><g transform="translate(-206,-526) scale(1,1)"><g><path fill="none" stroke="none"/><text fill="#000000" stroke="none" font-family="Arial" font-size="13px" font-style="normal" font-weight="normal" text-decoration="none" x="269" y="983.5">+checkLoginUser(username: String, password: String): null</text></g></g><g transform="translate(-206,-526) scale(1,1)"><g><path fill="none" stroke="none"/><text fill="#000000" stroke="none" font-family="Arial" font-size="13px" font-style="normal" font-weight="normal" text-decoration="none" x="269" y="998.5">+changePassword(oldPassword: String, newPassword: String, token: String): null</text></g></g><g transform="translate(-206,-526) scale(1,1)"><g><path fill="none" stroke="none"/><text fill="#000000" stroke="none" font-family="Arial" font-size="13px" font-style="normal" font-weight="normal" text-decoration="none" x="269" y="1013.5">+subscribeAccountUser(message): null</text></g></g><g transform="translate(-206,-526) scale(1,1)"><g><path fill="none" stroke="none"/><text fill="#000000" stroke="none" font-family="Arial" font-size="13px" font-style="normal" font-weight="normal" text-decoration="none" x="269" y="1028.5">+acceptConditions(token: String, req): null</text></g></g><g transform="translate(-206,-526) scale(1,1)"><g><path fill="none" stroke="none"/><text fill="#000000" stroke="none" font-family="Arial" font-size="13px" font-style="normal" font-weight="normal" text-decoration="none" x="269" y="1043.5">+requestLostPassword(message): null</text></g></g><g transform="translate(-206,-526) scale(1,1)"><g><path fill="none" stroke="none"/><text fill="#000000" stroke="none" font-family="Arial" font-size="13px" font-style="normal" font-weight="normal" text-decoration="none" x="269" y="1058.5">+changeLostPassword(message): null</text></g></g><g transform="translate(-206,-526) scale(1,1)"><g><path fill="none" stroke="none"/><text fill="#000000" stroke="none" font-family="Arial" font-size="13px" font-style="normal" font-weight="normal" text-decoration="none" x="269" y="1073.5">+postTrackData(token: String, idWidget: String): null</text></g></g><g transform="translate(-206,-526) scale(1,1)"><g><path fill="none" stroke="none"/><text fill="#000000" stroke="none" font-family="Arial" font-size="13px" font-style="normal" font-weight="normal" text-decoration="none" x="269" y="1088.5">+createOccupantToRemove(token: String): null</text></g></g><g transform="translate(-206,-526) scale(1,1)"><g><path fill="none" stroke="none"/><text fill="#000000" stroke="none" font-family="Arial" font-size="13px" font-style="normal" font-weight="normal" text-decoration="none" x="269" y="1103.5">+deleteOccupantToRemove(token: String): null</text></g></g><g transform="translate(-206,-526) scale(1,1)"><g><path fill="none" stroke="none"/><text fill="#000000" stroke="none" font-family="Arial" font-size="13px" font-style="normal" font-weight="normal" text-decoration="none" x="269" y="1118.5">+requestMailChange(token: String, message): null</text></g></g><g transform="translate(-206,-526) scale(1,1)"><g><path fill="none" stroke="none"/><text fill="#000000" stroke="none" font-family="Arial" font-size="13px" font-style="normal" font-weight="normal" text-decoration="none" x="269" y="1133.5">+checkConfirmationCode(token: String, message): null</text></g></g><g transform="translate(-206,-526) scale(1,1)"><g><path fill="none" stroke="none"/><text fill="#000000" stroke="none" font-family="Arial" font-size="13px" font-style="normal" font-weight="normal" text-decoration="none" x="269" y="1148.5">+refreshToken(token: String): null</text></g></g><g transform="translate(-206,-526) scale(1,1)"><path fill="none" stroke="#000000" d="M 358 727 L 399 799" stroke-miterlimit="10" stroke-dasharray="3"/></g><g transform="translate(-206,-526) scale(1,1)"><path fill="none" stroke="#000000" d="M 390.31310868118345 792.2518210445285 L 399 799 L 397.62912334110854 788.0857571409599" stroke-miterlimit="10"/></g><g transform="translate(-206,-526) scale(1,1)"><path fill="none" stroke="#000000" d="M 607 607 L 552 799" stroke-miterlimit="10" stroke-dasharray="3"/></g><g transform="translate(-206,-526) scale(1,1)"><path fill="none" stroke="#000000" d="M 550.7518655504257 788.071040287576 L 552 799 L 558.845377190843 790.3894941429039" stroke-miterlimit="10"/></g></g></svg>