<svg version="1.1" xmlns="http://www.w3.org/2000/svg" xmlns:xlink="http://www.w3.org/1999/xlink" width="495.3662109375" height="312"><defs/><g><g transform="translate(-206,-526) scale(1,1)"><rect fill="#C0C0C0" stroke="none" x="223" y="543" width="173.39794921875" height="85" opacity="0.2"/></g><g transform="translate(-206,-526) scale(1,1)"><rect fill="#ffffff" stroke="none" x="216" y="536" width="173.39794921875" height="85"/></g><g transform="translate(-206,-526) scale(1,1)"><path fill="none" stroke="#000000" d="M 216 536 L 389.39794921875 536 L 389.39794921875 621 L 216 621 L 216 536 Z Z" stroke-miterlimit="10"/></g><g transform="translate(-206,-526) scale(1,1)"><path fill="none" stroke="#000000" d="M 216 589 L 389.39794921875 589" stroke-miterlimit="10"/></g><g transform="translate(-206,-526) scale(1,1)"><path fill="none" stroke="#000000" d="M 216 599 L 389.39794921875 599" stroke-miterlimit="10"/></g><g transform="translate(-206,-526) scale(1,1)"><g><path fill="none" stroke="none"/><text fill="#000000" stroke="none" font-family="Arial" font-size="13px" font-style="normal" font-weight="normal" text-decoration="none" x="273.794921875" y="553.5">«Service»</text></g></g><g transform="translate(-206,-526) scale(1,1)"><g><path fill="none" stroke="none"/><text fill="#000000" stroke="none" font-family="Arial" font-size="13px" font-style="normal" font-weight="bold" text-decoration="none" x="271.27490234375" y="568.5">Useractory</text></g></g><g transform="translate(-206,-526) scale(1,1)"><g><path fill="none" stroke="none"/><text fill="#000000" stroke="none" font-family="Arial" font-size="13px" font-style="normal" font-weight="normal" text-decoration="none" x="258.639892578125" y="583.5">(from common)</text></g></g><g transform="translate(-206,-526) scale(1,1)"><g><path fill="none" stroke="none"/><text fill="#000000" stroke="none" font-family="Arial" font-size="13px" font-style="normal" font-weight="normal" text-decoration="none" x="221" y="616.5">+changePasswordRequest()</text></g></g><g transform="translate(-206,-526) scale(1,1)"><rect fill="#C0C0C0" stroke="none" x="551" y="543" width="147.3662109375" height="85" opacity="0.2"/></g><g transform="translate(-206,-526) scale(1,1)"><rect fill="#ffffff" stroke="none" x="544" y="536" width="147.3662109375" height="85"/></g><g transform="translate(-206,-526) scale(1,1)"><path fill="none" stroke="#000000" d="M 544 536 L 691.3662109375 536 L 691.3662109375 621 L 544 621 L 544 536 Z Z" stroke-miterlimit="10"/></g><g transform="translate(-206,-526) scale(1,1)"><path fill="none" stroke="#000000" d="M 544 589 L 691.3662109375 589" stroke-miterlimit="10"/></g><g transform="translate(-206,-526) scale(1,1)"><path fill="none" stroke="#000000" d="M 544 599 L 691.3662109375 599" stroke-miterlimit="10"/></g><g transform="translate(-206,-526) scale(1,1)"><g><path fill="none" stroke="none"/><text fill="#000000" stroke="none" font-family="Arial" font-size="13px" font-style="normal" font-weight="normal" text-decoration="none" x="588.779052734375" y="553.5">«Service»</text></g></g><g transform="translate(-206,-526) scale(1,1)"><g><path fill="none" stroke="none"/><text fill="#000000" stroke="none" font-family="Arial" font-size="13px" font-style="normal" font-weight="bold" text-decoration="none" x="580.108154296875" y="568.5">LoginFactory</text></g></g><g transform="translate(-206,-526) scale(1,1)"><g><path fill="none" stroke="none"/><text fill="#000000" stroke="none" font-family="Arial" font-size="13px" font-style="normal" font-weight="normal" text-decoration="none" x="573.6240234375" y="583.5">(from common)</text></g></g><g transform="translate(-206,-526) scale(1,1)"><g><path fill="none" stroke="none"/><text fill="#000000" stroke="none" font-family="Arial" font-size="13px" font-style="normal" font-weight="normal" text-decoration="none" x="549" y="616.5">+subcribeNewAccount()</text></g></g><g transform="translate(-206,-526) scale(1,1)"><rect fill="#C0C0C0" stroke="none" x="359" y="735" width="215.29248046875" height="100" opacity="0.2"/></g><g transform="translate(-206,-526) scale(1,1)"><rect fill="#ffffff" stroke="none" x="352" y="728" width="215.29248046875" height="100"/></g><g transform="translate(-206,-526) scale(1,1)"><path fill="none" stroke="#000000" d="M 352 728 L 567.29248046875 728 L 567.29248046875 828 L 352 828 L 352 728 Z Z" stroke-miterlimit="10"/></g><g transform="translate(-206,-526) scale(1,1)"><path fill="none" stroke="#000000" d="M 352 781 L 567.29248046875 781" stroke-miterlimit="10"/></g><g transform="translate(-206,-526) scale(1,1)"><path fill="none" stroke="#000000" d="M 352 791 L 567.29248046875 791" stroke-miterlimit="10"/></g><g transform="translate(-206,-526) scale(1,1)"><g><path fill="none" stroke="none"/><text fill="#000000" stroke="none" font-family="Arial" font-size="13px" font-style="normal" font-weight="normal" text-decoration="none" x="424.239013671875" y="745.5">«Controller»</text></g></g><g transform="translate(-206,-526) scale(1,1)"><g><path fill="none" stroke="none"/><text fill="#000000" stroke="none" font-family="Arial" font-size="13px" font-style="normal" font-weight="bold" text-decoration="none" x="397.150390625" y="760.5">AccountRESTService</text></g></g><g transform="translate(-206,-526) scale(1,1)"><g><path fill="none" stroke="none"/><text fill="#000000" stroke="none" font-family="Arial" font-size="13px" font-style="normal" font-weight="normal" text-decoration="none" x="429.67578125" y="775.5">(from rest)</text></g></g><g transform="translate(-206,-526) scale(1,1)"><g><path fill="none" stroke="none"/><text fill="#000000" stroke="none" font-family="Arial" font-size="13px" font-style="normal" font-weight="normal" text-decoration="none" x="357" y="808.5">+subscribeAccountser(JsonObject)</text></g></g><g transform="translate(-206,-526) scale(1,1)"><g><path fill="none" stroke="none"/><text fill="#000000" stroke="none" font-family="Arial" font-size="13px" font-style="normal" font-weight="normal" text-decoration="none" x="357" y="823.5">+requestLostPassword(JsonObject)</text></g></g><g transform="translate(-206,-526) scale(1,1)"><path fill="none" stroke="#000000" d="M 302 622 L 304 784 L 351 782" stroke-miterlimit="10" stroke-dasharray="3"/></g><g transform="translate(-206,-526) scale(1,1)"><path fill="none" stroke="#000000" d="M 341.0254802740569 786.6377749230393 L 351 782 L 340.66754736500866 778.2263515604047" stroke-miterlimit="10"/></g><g transform="translate(-206,-526) scale(1,1)"><path fill="none" stroke="#000000" d="M 617 622 L 616 776 L 568 777" stroke-miterlimit="10" stroke-dasharray="3"/></g><g transform="translate(-206,-526) scale(1,1)"><path fill="none" stroke="#000000" d="M 578.072790872659 772.5797190094205 L 568 777 L 578.2481493947198 780.9969280683424" stroke-miterlimit="10"/></g></g></svg>