<svg version="1.1" xmlns="http://www.w3.org/2000/svg" xmlns:xlink="http://www.w3.org/1999/xlink" width="1148" height="416"><defs/><g><g transform="translate(-62,-134) scale(1,1)"><path fill="#C0C0C0" stroke="none" d="M 79 161 L 380 161 L 380 438 L 79 438" opacity="0.2"/></g><g transform="translate(-62,-134) scale(1,1)"><path fill="#C0C0C0" stroke="none" d="M 79 161 L 89 151 L 390 151 L 380 161" opacity="0.2"/></g><g transform="translate(-62,-134) scale(1,1)"><path fill="#C0C0C0" stroke="none" d="M 390 151 L 380 161 L 380 438 L 390 428" opacity="0.2"/></g><g transform="translate(-62,-134) scale(1,1)"><path fill="#ffffff" stroke="none" d="M 72 154 L 373 154 L 373 431 L 72 431"/></g><g transform="translate(-62,-134) scale(1,1)"><path fill="#ffffff" stroke="none" d="M 72 154 L 82 144 L 383 144 L 373 154"/></g><g transform="translate(-62,-134) scale(1,1)"><path fill="#ffffff" stroke="none" d="M 383 144 L 373 154 L 373 431 L 383 421"/></g><g transform="translate(-62,-134) scale(1,1)"><path fill="none" stroke="#000000" d="M 72 154 L 373 154 L 373 431 L 72 431 L 72 154" stroke-miterlimit="10"/></g><g transform="translate(-62,-134) scale(1,1)"><path fill="none" stroke="#000000" d="M 72 154 L 82 144 L 383 144 L 373 154 L 72 154" stroke-miterlimit="10"/></g><g transform="translate(-62,-134) scale(1,1)"><path fill="none" stroke="#000000" d="M 383 144 L 373 154 L 373 431 L 383 421 L 383 144" stroke-miterlimit="10"/></g><g transform="translate(-62,-134) scale(1,1)"><g><path fill="none" stroke="none"/><text fill="#000000" stroke="none" font-family="Arial" font-size="13px" font-style="normal" font-weight="normal" text-decoration="none" x="196.62548828125" y="171.5">«Server»</text></g></g><g transform="translate(-62,-134) scale(1,1)"><g><path fill="none" stroke="none"/><text fill="#000000" stroke="none" font-family="Arial" font-size="13px" font-style="normal" font-weight="bold" text-decoration="none" x="179.064697265625" y="186.5">INTEGRATION</text></g></g><g transform="translate(-62,-134) scale(1,1)"><path fill="#C0C0C0" stroke="none" d="M 423 161 L 788 161 L 788 318 L 423 318" opacity="0.2"/></g><g transform="translate(-62,-134) scale(1,1)"><path fill="#C0C0C0" stroke="none" d="M 423 161 L 433 151 L 798 151 L 788 161" opacity="0.2"/></g><g transform="translate(-62,-134) scale(1,1)"><path fill="#C0C0C0" stroke="none" d="M 798 151 L 788 161 L 788 318 L 798 308" opacity="0.2"/></g><g transform="translate(-62,-134) scale(1,1)"><path fill="#ffffff" stroke="none" d="M 416 154 L 781 154 L 781 311 L 416 311"/></g><g transform="translate(-62,-134) scale(1,1)"><path fill="#ffffff" stroke="none" d="M 416 154 L 426 144 L 791 144 L 781 154"/></g><g transform="translate(-62,-134) scale(1,1)"><path fill="#ffffff" stroke="none" d="M 791 144 L 781 154 L 781 311 L 791 301"/></g><g transform="translate(-62,-134) scale(1,1)"><path fill="none" stroke="#000000" d="M 416 154 L 781 154 L 781 311 L 416 311 L 416 154" stroke-miterlimit="10"/></g><g transform="translate(-62,-134) scale(1,1)"><path fill="none" stroke="#000000" d="M 416 154 L 426 144 L 791 144 L 781 154 L 416 154" stroke-miterlimit="10"/></g><g transform="translate(-62,-134) scale(1,1)"><path fill="none" stroke="#000000" d="M 791 144 L 781 154 L 781 311 L 791 301 L 791 144" stroke-miterlimit="10"/></g><g transform="translate(-62,-134) scale(1,1)"><g><path fill="none" stroke="none"/><text fill="#000000" stroke="none" font-family="Arial" font-size="13px" font-style="normal" font-weight="normal" text-decoration="none" x="572.62548828125" y="171.5">«Server»</text></g></g><g transform="translate(-62,-134) scale(1,1)"><g><path fill="none" stroke="none"/><text fill="#000000" stroke="none" font-family="Arial" font-size="13px" font-style="normal" font-weight="bold" text-decoration="none" x="566.85546875" y="186.5">PREPROD</text></g></g><g transform="translate(-62,-134) scale(1,1)"><path fill="#C0C0C0" stroke="none" d="M 831 161 L 1196 161 L 1196 318 L 831 318" opacity="0.2"/></g><g transform="translate(-62,-134) scale(1,1)"><path fill="#C0C0C0" stroke="none" d="M 831 161 L 841 151 L 1206 151 L 1196 161" opacity="0.2"/></g><g transform="translate(-62,-134) scale(1,1)"><path fill="#C0C0C0" stroke="none" d="M 1206 151 L 1196 161 L 1196 318 L 1206 308" opacity="0.2"/></g><g transform="translate(-62,-134) scale(1,1)"><path fill="#ffffff" stroke="none" d="M 824 154 L 1189 154 L 1189 311 L 824 311"/></g><g transform="translate(-62,-134) scale(1,1)"><path fill="#ffffff" stroke="none" d="M 824 154 L 834 144 L 1199 144 L 1189 154"/></g><g transform="translate(-62,-134) scale(1,1)"><path fill="#ffffff" stroke="none" d="M 1199 144 L 1189 154 L 1189 311 L 1199 301"/></g><g transform="translate(-62,-134) scale(1,1)"><path fill="none" stroke="#000000" d="M 824 154 L 1189 154 L 1189 311 L 824 311 L 824 154" stroke-miterlimit="10"/></g><g transform="translate(-62,-134) scale(1,1)"><path fill="none" stroke="#000000" d="M 824 154 L 834 144 L 1199 144 L 1189 154 L 824 154" stroke-miterlimit="10"/></g><g transform="translate(-62,-134) scale(1,1)"><path fill="none" stroke="#000000" d="M 1199 144 L 1189 154 L 1189 311 L 1199 301 L 1199 144" stroke-miterlimit="10"/></g><g transform="translate(-62,-134) scale(1,1)"><g><path fill="none" stroke="none"/><text fill="#000000" stroke="none" font-family="Arial" font-size="13px" font-style="normal" font-weight="normal" text-decoration="none" x="980.62548828125" y="171.5">«Server»</text></g></g><g transform="translate(-62,-134) scale(1,1)"><g><path fill="none" stroke="none"/><text fill="#000000" stroke="none" font-family="Arial" font-size="13px" font-style="normal" font-weight="bold" text-decoration="none" x="988.220458984375" y="186.5">PROD</text></g></g><g transform="translate(-62,-134) scale(1,1)"><path fill="#C0C0C0" stroke="none" d="M 655 433 L 956 433 L 956 546 L 655 546" opacity="0.2"/></g><g transform="translate(-62,-134) scale(1,1)"><path fill="#C0C0C0" stroke="none" d="M 655 433 L 665 423 L 966 423 L 956 433" opacity="0.2"/></g><g transform="translate(-62,-134) scale(1,1)"><path fill="#C0C0C0" stroke="none" d="M 966 423 L 956 433 L 956 546 L 966 536" opacity="0.2"/></g><g transform="translate(-62,-134) scale(1,1)"><path fill="#ffffff" stroke="none" d="M 648 426 L 949 426 L 949 539 L 648 539"/></g><g transform="translate(-62,-134) scale(1,1)"><path fill="#ffffff" stroke="none" d="M 648 426 L 658 416 L 959 416 L 949 426"/></g><g transform="translate(-62,-134) scale(1,1)"><path fill="#ffffff" stroke="none" d="M 959 416 L 949 426 L 949 539 L 959 529"/></g><g transform="translate(-62,-134) scale(1,1)"><path fill="none" stroke="#000000" d="M 648 426 L 949 426 L 949 539 L 648 539 L 648 426" stroke-miterlimit="10"/></g><g transform="translate(-62,-134) scale(1,1)"><path fill="none" stroke="#000000" d="M 648 426 L 658 416 L 959 416 L 949 426 L 648 426" stroke-miterlimit="10"/></g><g transform="translate(-62,-134) scale(1,1)"><path fill="none" stroke="#000000" d="M 959 416 L 949 426 L 949 539 L 959 529 L 959 416" stroke-miterlimit="10"/></g><g transform="translate(-62,-134) scale(1,1)"><g><path fill="none" stroke="none"/><text fill="#000000" stroke="none" font-family="Arial" font-size="13px" font-style="normal" font-weight="normal" text-decoration="none" x="772.62548828125" y="443.5">«Server»</text></g></g><g transform="translate(-62,-134) scale(1,1)"><g><path fill="none" stroke="none"/><text fill="#000000" stroke="none" font-family="Arial" font-size="13px" font-style="normal" font-weight="bold" text-decoration="none" x="760.9521484375" y="458.5">DATABASES</text></g></g><g transform="translate(-62,-134) scale(1,1)"><rect fill="#C0C0C0" stroke="none" x="689" y="487" width="125.6796875" height="44" opacity="0.2"/></g><g transform="translate(-62,-134) scale(1,1)"><rect fill="#ffffff" stroke="none" x="682" y="480" width="125.6796875" height="44"/></g><g transform="translate(-62,-134) scale(1,1)"><path fill="none" stroke="#000000" d="M 682 480 L 807.6796875 480 L 807.6796875 524 L 682 524 L 682 480 Z Z" stroke-miterlimit="10"/></g><g transform="translate(-62,-134) scale(1,1)"><rect fill="#ffffff" stroke="none" x="672" y="487" width="20" height="10"/></g><g transform="translate(-62,-134) scale(1,1)"><path fill="none" stroke="#000000" d="M 672 487 L 692 487 L 692 497 L 672 497 L 672 487 Z Z" stroke-miterlimit="10"/></g><g transform="translate(-62,-134) scale(1,1)"><rect fill="#ffffff" stroke="none" x="672" y="507" width="20" height="10"/></g><g transform="translate(-62,-134) scale(1,1)"><path fill="none" stroke="#000000" d="M 672 507 L 692 507 L 692 517 L 672 517 L 672 507 Z Z" stroke-miterlimit="10"/></g><g transform="translate(-62,-134) scale(1,1)"><g><path fill="none" stroke="none"/><text fill="#000000" stroke="none" font-family="Arial" font-size="13px" font-style="normal" font-weight="normal" text-decoration="none" x="714.784912109375" y="497.5">«Database»</text></g></g><g transform="translate(-62,-134) scale(1,1)"><g><path fill="none" stroke="none"/><text fill="#000000" stroke="none" font-family="Arial" font-size="13px" font-style="normal" font-weight="bold" text-decoration="none" x="706.85986328125" y="512.5">PREPROD DB</text></g></g><g transform="translate(-62,-134) scale(1,1)"><rect fill="#C0C0C0" stroke="none" x="841" y="487" width="105.2890625" height="44" opacity="0.2"/></g><g transform="translate(-62,-134) scale(1,1)"><rect fill="#ffffff" stroke="none" x="834" y="480" width="105.2890625" height="44"/></g><g transform="translate(-62,-134) scale(1,1)"><path fill="none" stroke="#000000" d="M 834 480 L 939.2890625 480 L 939.2890625 524 L 834 524 L 834 480 Z Z" stroke-miterlimit="10"/></g><g transform="translate(-62,-134) scale(1,1)"><rect fill="#ffffff" stroke="none" x="824" y="487" width="20" height="10"/></g><g transform="translate(-62,-134) scale(1,1)"><path fill="none" stroke="#000000" d="M 824 487 L 844 487 L 844 497 L 824 497 L 824 487 Z Z" stroke-miterlimit="10"/></g><g transform="translate(-62,-134) scale(1,1)"><rect fill="#ffffff" stroke="none" x="824" y="507" width="20" height="10"/></g><g transform="translate(-62,-134) scale(1,1)"><path fill="none" stroke="#000000" d="M 824 507 L 844 507 L 844 517 L 824 517 L 824 507 Z Z" stroke-miterlimit="10"/></g><g transform="translate(-62,-134) scale(1,1)"><g><path fill="none" stroke="none"/><text fill="#000000" stroke="none" font-family="Arial" font-size="13px" font-style="normal" font-weight="normal" text-decoration="none" x="856.589599609375" y="497.5">«Database»</text></g></g><g transform="translate(-62,-134) scale(1,1)"><g><path fill="none" stroke="none"/><text fill="#000000" stroke="none" font-family="Arial" font-size="13px" font-style="normal" font-weight="bold" text-decoration="none" x="862.029541015625" y="512.5">PROD DB</text></g></g><g transform="translate(-62,-134) scale(1,1)"><rect fill="#C0C0C0" stroke="none" x="97" y="207" width="262" height="200" opacity="0.2"/></g><g transform="translate(-62,-134) scale(1,1)"><rect fill="#ffffff" stroke="none" x="90" y="200" width="262" height="200"/></g><g transform="translate(-62,-134) scale(1,1)"><path fill="none" stroke="#000000" d="M 90 200 L 352 200 L 352 400 L 90 400 L 90 200 Z Z" stroke-miterlimit="10"/></g><g transform="translate(-62,-134) scale(1,1)"><rect fill="#ffffff" stroke="none" x="80" y="207" width="20" height="10"/></g><g transform="translate(-62,-134) scale(1,1)"><path fill="none" stroke="#000000" d="M 80 207 L 100 207 L 100 217 L 80 217 L 80 207 Z Z" stroke-miterlimit="10"/></g><g transform="translate(-62,-134) scale(1,1)"><rect fill="#ffffff" stroke="none" x="80" y="227" width="20" height="10"/></g><g transform="translate(-62,-134) scale(1,1)"><path fill="none" stroke="#000000" d="M 80 227 L 100 227 L 100 237 L 80 237 L 80 227 Z Z" stroke-miterlimit="10"/></g><g transform="translate(-62,-134) scale(1,1)"><g><path fill="none" stroke="none"/><text fill="#000000" stroke="none" font-family="Arial" font-size="15px" font-style="normal" font-weight="normal" text-decoration="none" x="166.1025390625" y="219.5">«Virtual Machine»</text></g></g><g transform="translate(-62,-134) scale(1,1)"><g><path fill="none" stroke="none"/><text fill="#000000" stroke="none" font-family="Arial" font-size="15px" font-style="normal" font-weight="bold" text-decoration="none" x="161.9716796875" y="236.5">VM INTEGRATION</text></g></g><g transform="translate(-62,-134) scale(1,1)"><rect fill="#C0C0C0" stroke="none" x="633" y="207" width="138.18359375" height="96" opacity="0.2"/></g><g transform="translate(-62,-134) scale(1,1)"><rect fill="#ffffff" stroke="none" x="626" y="200" width="138.18359375" height="96"/></g><g transform="translate(-62,-134) scale(1,1)"><path fill="none" stroke="#000000" d="M 626 200 L 764.18359375 200 L 764.18359375 296 L 626 296 L 626 200 Z Z" stroke-miterlimit="10"/></g><g transform="translate(-62,-134) scale(1,1)"><rect fill="#ffffff" stroke="none" x="616" y="207" width="20" height="10"/></g><g transform="translate(-62,-134) scale(1,1)"><path fill="none" stroke="#000000" d="M 616 207 L 636 207 L 636 217 L 616 217 L 616 207 Z Z" stroke-miterlimit="10"/></g><g transform="translate(-62,-134) scale(1,1)"><rect fill="#ffffff" stroke="none" x="616" y="227" width="20" height="10"/></g><g transform="translate(-62,-134) scale(1,1)"><path fill="none" stroke="#000000" d="M 616 227 L 636 227 L 636 237 L 616 237 L 616 227 Z Z" stroke-miterlimit="10"/></g><g transform="translate(-62,-134) scale(1,1)"><g><path fill="none" stroke="none"/><text fill="#000000" stroke="none" font-family="Arial" font-size="13px" font-style="normal" font-weight="normal" text-decoration="none" x="648.1806640625" y="217.5">«Virtual Machine»</text></g></g><g transform="translate(-62,-134) scale(1,1)"><g><path fill="none" stroke="none"/><text fill="#000000" stroke="none" font-family="Arial" font-size="13px" font-style="normal" font-weight="bold" text-decoration="none" x="640.5" y="232.5">VM PREPROD PRO</text></g></g><g transform="translate(-62,-134) scale(1,1)"><rect fill="#C0C0C0" stroke="none" x="657" y="247" width="102.3203125" height="44" opacity="0.2"/></g><g transform="translate(-62,-134) scale(1,1)"><rect fill="#ffffff" stroke="none" x="650" y="240" width="102.3203125" height="44"/></g><g transform="translate(-62,-134) scale(1,1)"><path fill="none" stroke="#000000" d="M 650 240 L 752.3203125 240 L 752.3203125 284 L 650 284 L 650 240 Z Z" stroke-miterlimit="10"/></g><g transform="translate(-62,-134) scale(1,1)"><rect fill="#ffffff" stroke="none" x="640" y="247" width="20" height="10"/></g><g transform="translate(-62,-134) scale(1,1)"><path fill="none" stroke="#000000" d="M 640 247 L 660 247 L 660 257 L 640 257 L 640 247 Z Z" stroke-miterlimit="10"/></g><g transform="translate(-62,-134) scale(1,1)"><rect fill="#ffffff" stroke="none" x="640" y="267" width="20" height="10"/></g><g transform="translate(-62,-134) scale(1,1)"><path fill="none" stroke="#000000" d="M 640 267 L 660 267 L 660 277 L 640 277 L 640 267 Z Z" stroke-miterlimit="10"/></g><g transform="translate(-62,-134) scale(1,1)"><g><path fill="none" stroke="none"/><text fill="#000000" stroke="none" font-family="Arial" font-size="13px" font-style="normal" font-weight="normal" text-decoration="none" x="672.311279296875" y="257.5">«Web App»</text></g></g><g transform="translate(-62,-134) scale(1,1)"><g><path fill="none" stroke="none"/><text fill="#000000" stroke="none" font-family="Arial" font-size="13px" font-style="normal" font-weight="bold" text-decoration="none" x="675.815185546875" y="272.5">Portail Pro</text></g></g><g transform="translate(-62,-134) scale(1,1)"><rect fill="#C0C0C0" stroke="none" x="441" y="207" width="166" height="96" opacity="0.2"/></g><g transform="translate(-62,-134) scale(1,1)"><rect fill="#ffffff" stroke="none" x="434" y="200" width="166" height="96"/></g><g transform="translate(-62,-134) scale(1,1)"><path fill="none" stroke="#000000" d="M 434 200 L 600 200 L 600 296 L 434 296 L 434 200 Z Z" stroke-miterlimit="10"/></g><g transform="translate(-62,-134) scale(1,1)"><rect fill="#ffffff" stroke="none" x="424" y="207" width="20" height="10"/></g><g transform="translate(-62,-134) scale(1,1)"><path fill="none" stroke="#000000" d="M 424 207 L 444 207 L 444 217 L 424 217 L 424 207 Z Z" stroke-miterlimit="10"/></g><g transform="translate(-62,-134) scale(1,1)"><rect fill="#ffffff" stroke="none" x="424" y="227" width="20" height="10"/></g><g transform="translate(-62,-134) scale(1,1)"><path fill="none" stroke="#000000" d="M 424 227 L 444 227 L 444 237 L 424 237 L 424 227 Z Z" stroke-miterlimit="10"/></g><g transform="translate(-62,-134) scale(1,1)"><g><path fill="none" stroke="none"/><text fill="#000000" stroke="none" font-family="Arial" font-size="13px" font-style="normal" font-weight="normal" text-decoration="none" x="470.0888671875" y="217.5">«Virtual Machine»</text></g></g><g transform="translate(-62,-134) scale(1,1)"><g><path fill="none" stroke="none"/><text fill="#000000" stroke="none" font-family="Arial" font-size="13px" font-style="normal" font-weight="bold" text-decoration="none" x="449.043212890625" y="232.5">VM PREPROD USAGER</text></g></g><g transform="translate(-62,-134) scale(1,1)"><rect fill="#C0C0C0" stroke="none" x="113" y="255" width="127.484375" height="44" opacity="0.2"/></g><g transform="translate(-62,-134) scale(1,1)"><rect fill="#ffffff" stroke="none" x="106" y="248" width="127.484375" height="44"/></g><g transform="translate(-62,-134) scale(1,1)"><path fill="none" stroke="#000000" d="M 106 248 L 233.484375 248 L 233.484375 292 L 106 292 L 106 248 Z Z" stroke-miterlimit="10"/></g><g transform="translate(-62,-134) scale(1,1)"><rect fill="#ffffff" stroke="none" x="96" y="255" width="20" height="10"/></g><g transform="translate(-62,-134) scale(1,1)"><path fill="none" stroke="#000000" d="M 96 255 L 116 255 L 116 265 L 96 265 L 96 255 Z Z" stroke-miterlimit="10"/></g><g transform="translate(-62,-134) scale(1,1)"><rect fill="#ffffff" stroke="none" x="96" y="275" width="20" height="10"/></g><g transform="translate(-62,-134) scale(1,1)"><path fill="none" stroke="#000000" d="M 96 275 L 116 275 L 116 285 L 96 285 L 96 275 Z Z" stroke-miterlimit="10"/></g><g transform="translate(-62,-134) scale(1,1)"><g><path fill="none" stroke="none"/><text fill="#000000" stroke="none" font-family="Arial" font-size="13px" font-style="normal" font-weight="normal" text-decoration="none" x="140.893310546875" y="265.5">«Web App»</text></g></g><g transform="translate(-62,-134) scale(1,1)"><g><path fill="none" stroke="none"/><text fill="#000000" stroke="none" font-family="Arial" font-size="13px" font-style="normal" font-weight="bold" text-decoration="none" x="133.55859375" y="280.5">Portail Usager</text></g></g><g transform="translate(-62,-134) scale(1,1)"><rect fill="#C0C0C0" stroke="none" x="249" y="255" width="102.3203125" height="44" opacity="0.2"/></g><g transform="translate(-62,-134) scale(1,1)"><rect fill="#ffffff" stroke="none" x="242" y="248" width="102.3203125" height="44"/></g><g transform="translate(-62,-134) scale(1,1)"><path fill="none" stroke="#000000" d="M 242 248 L 344.3203125 248 L 344.3203125 292 L 242 292 L 242 248 Z Z" stroke-miterlimit="10"/></g><g transform="translate(-62,-134) scale(1,1)"><rect fill="#ffffff" stroke="none" x="232" y="255" width="20" height="10"/></g><g transform="translate(-62,-134) scale(1,1)"><path fill="none" stroke="#000000" d="M 232 255 L 252 255 L 252 265 L 232 265 L 232 255 Z Z" stroke-miterlimit="10"/></g><g transform="translate(-62,-134) scale(1,1)"><rect fill="#ffffff" stroke="none" x="232" y="275" width="20" height="10"/></g><g transform="translate(-62,-134) scale(1,1)"><path fill="none" stroke="#000000" d="M 232 275 L 252 275 L 252 285 L 232 285 L 232 275 Z Z" stroke-miterlimit="10"/></g><g transform="translate(-62,-134) scale(1,1)"><g><path fill="none" stroke="none"/><text fill="#000000" stroke="none" font-family="Arial" font-size="13px" font-style="normal" font-weight="normal" text-decoration="none" x="264.311279296875" y="265.5">«Web App»</text></g></g><g transform="translate(-62,-134) scale(1,1)"><g><path fill="none" stroke="none"/><text fill="#000000" stroke="none" font-family="Arial" font-size="13px" font-style="normal" font-weight="bold" text-decoration="none" x="267.815185546875" y="280.5">Portail Pro</text></g></g><g transform="translate(-62,-134) scale(1,1)"><rect fill="#C0C0C0" stroke="none" x="169" y="343" width="155.5859375" height="44" opacity="0.2"/></g><g transform="translate(-62,-134) scale(1,1)"><rect fill="#ffffff" stroke="none" x="162" y="336" width="155.5859375" height="44"/></g><g transform="translate(-62,-134) scale(1,1)"><path fill="none" stroke="#000000" d="M 162 336 L 317.5859375 336 L 317.5859375 380 L 162 380 L 162 336 Z Z" stroke-miterlimit="10"/></g><g transform="translate(-62,-134) scale(1,1)"><rect fill="#ffffff" stroke="none" x="152" y="343" width="20" height="10"/></g><g transform="translate(-62,-134) scale(1,1)"><path fill="none" stroke="#000000" d="M 152 343 L 172 343 L 172 353 L 152 353 L 152 343 Z Z" stroke-miterlimit="10"/></g><g transform="translate(-62,-134) scale(1,1)"><rect fill="#ffffff" stroke="none" x="152" y="363" width="20" height="10"/></g><g transform="translate(-62,-134) scale(1,1)"><path fill="none" stroke="#000000" d="M 152 363 L 172 363 L 172 373 L 152 373 L 152 363 Z Z" stroke-miterlimit="10"/></g><g transform="translate(-62,-134) scale(1,1)"><g><path fill="none" stroke="none"/><text fill="#000000" stroke="none" font-family="Arial" font-size="13px" font-style="normal" font-weight="normal" text-decoration="none" x="212.988037109375" y="353.5">«Databae»</text></g></g><g transform="translate(-62,-134) scale(1,1)"><g><path fill="none" stroke="none"/><text fill="#000000" stroke="none" font-family="Arial" font-size="13px" font-style="normal" font-weight="bold" text-decoration="none" x="190.022216796875" y="368.5">DB INTEGRATION</text></g></g><g transform="translate(-62,-134) scale(1,1)"><path fill="none" stroke="#000000" d="M 157 293 L 152 312 L 192 312 L 213 335" stroke-miterlimit="10" stroke-dasharray="3"/></g><g transform="translate(-62,-134) scale(1,1)"><path fill="none" stroke="#000000" d="M 203.0389518877435 330.33336089832187 L 213 335 L 209.25628748624484 324.6566631779511" stroke-miterlimit="10"/></g><g transform="translate(-62,-134) scale(1,1)"><path fill="none" stroke="#000000" d="M 288 293 L 288 312 L 240 312 L 237 335" stroke-miterlimit="10" stroke-dasharray="3"/></g><g transform="translate(-62,-134) scale(1,1)"><path fill="none" stroke="#000000" d="M 234.14027253626998 324.3782318405461 L 237 335 L 242.4885916117923 325.4671430243099" stroke-miterlimit="10"/></g><g transform="translate(-62,-134) scale(1,1)"><rect fill="#C0C0C0" stroke="none" x="465" y="247" width="127.484375" height="44" opacity="0.2"/></g><g transform="translate(-62,-134) scale(1,1)"><rect fill="#ffffff" stroke="none" x="458" y="240" width="127.484375" height="44"/></g><g transform="translate(-62,-134) scale(1,1)"><path fill="none" stroke="#000000" d="M 458 240 L 585.484375 240 L 585.484375 284 L 458 284 L 458 240 Z Z" stroke-miterlimit="10"/></g><g transform="translate(-62,-134) scale(1,1)"><rect fill="#ffffff" stroke="none" x="448" y="247" width="20" height="10"/></g><g transform="translate(-62,-134) scale(1,1)"><path fill="none" stroke="#000000" d="M 448 247 L 468 247 L 468 257 L 448 257 L 448 247 Z Z" stroke-miterlimit="10"/></g><g transform="translate(-62,-134) scale(1,1)"><rect fill="#ffffff" stroke="none" x="448" y="267" width="20" height="10"/></g><g transform="translate(-62,-134) scale(1,1)"><path fill="none" stroke="#000000" d="M 448 267 L 468 267 L 468 277 L 448 277 L 448 267 Z Z" stroke-miterlimit="10"/></g><g transform="translate(-62,-134) scale(1,1)"><g><path fill="none" stroke="none"/><text fill="#000000" stroke="none" font-family="Arial" font-size="13px" font-style="normal" font-weight="normal" text-decoration="none" x="492.893310546875" y="257.5">«Web App»</text></g></g><g transform="translate(-62,-134) scale(1,1)"><g><path fill="none" stroke="none"/><text fill="#000000" stroke="none" font-family="Arial" font-size="13px" font-style="normal" font-weight="bold" text-decoration="none" x="485.55859375" y="272.5">Portail Usager</text></g></g><g transform="translate(-62,-134) scale(1,1)"><rect fill="#C0C0C0" stroke="none" x="849" y="207" width="166.5703125" height="96" opacity="0.2"/></g><g transform="translate(-62,-134) scale(1,1)"><rect fill="#ffffff" stroke="none" x="842" y="200" width="166.5703125" height="96"/></g><g transform="translate(-62,-134) scale(1,1)"><path fill="none" stroke="#000000" d="M 842 200 L 1008.5703125 200 L 1008.5703125 296 L 842 296 L 842 200 Z Z" stroke-miterlimit="10"/></g><g transform="translate(-62,-134) scale(1,1)"><rect fill="#ffffff" stroke="none" x="832" y="207" width="20" height="10"/></g><g transform="translate(-62,-134) scale(1,1)"><path fill="none" stroke="#000000" d="M 832 207 L 852 207 L 852 217 L 832 217 L 832 207 Z Z" stroke-miterlimit="10"/></g><g transform="translate(-62,-134) scale(1,1)"><rect fill="#ffffff" stroke="none" x="832" y="227" width="20" height="10"/></g><g transform="translate(-62,-134) scale(1,1)"><path fill="none" stroke="#000000" d="M 832 227 L 852 227 L 852 237 L 832 237 L 832 227 Z Z" stroke-miterlimit="10"/></g><g transform="translate(-62,-134) scale(1,1)"><g><path fill="none" stroke="none"/><text fill="#000000" stroke="none" font-family="Arial" font-size="13px" font-style="normal" font-weight="normal" text-decoration="none" x="877.894775390625" y="217.5">«VIrtual Machine»</text></g></g><g transform="translate(-62,-134) scale(1,1)"><g><path fill="none" stroke="none"/><text fill="#000000" stroke="none" font-family="Arial" font-size="13px" font-style="normal" font-weight="bold" text-decoration="none" x="870.693359375" y="232.5">VM PROD USAGER</text></g></g><g transform="translate(-62,-134) scale(1,1)"><rect fill="#C0C0C0" stroke="none" x="1041" y="207" width="146.78125" height="96" opacity="0.2"/></g><g transform="translate(-62,-134) scale(1,1)"><rect fill="#ffffff" stroke="none" x="1034" y="200" width="146.78125" height="96"/></g><g transform="translate(-62,-134) scale(1,1)"><path fill="none" stroke="#000000" d="M 1034 200 L 1180.78125 200 L 1180.78125 296 L 1034 296 L 1034 200 Z Z" stroke-miterlimit="10"/></g><g transform="translate(-62,-134) scale(1,1)"><rect fill="#ffffff" stroke="none" x="1024" y="207" width="20" height="10"/></g><g transform="translate(-62,-134) scale(1,1)"><path fill="none" stroke="#000000" d="M 1024 207 L 1044 207 L 1044 217 L 1024 217 L 1024 207 Z Z" stroke-miterlimit="10"/></g><g transform="translate(-62,-134) scale(1,1)"><rect fill="#ffffff" stroke="none" x="1024" y="227" width="20" height="10"/></g><g transform="translate(-62,-134) scale(1,1)"><path fill="none" stroke="#000000" d="M 1024 227 L 1044 227 L 1044 237 L 1024 237 L 1024 227 Z Z" stroke-miterlimit="10"/></g><g transform="translate(-62,-134) scale(1,1)"><g><path fill="none" stroke="none"/><text fill="#000000" stroke="none" font-family="Arial" font-size="13px" font-style="normal" font-weight="normal" text-decoration="none" x="1060.4794921875" y="217.5">«Virtual Machine»</text></g></g><g transform="translate(-62,-134) scale(1,1)"><g><path fill="none" stroke="none"/><text fill="#000000" stroke="none" font-family="Arial" font-size="13px" font-style="normal" font-weight="bold" text-decoration="none" x="1066.163818359375" y="232.5">VM PROD PRO</text></g></g><g transform="translate(-62,-134) scale(1,1)"><rect fill="#C0C0C0" stroke="none" x="873" y="247" width="127.484375" height="44" opacity="0.2"/></g><g transform="translate(-62,-134) scale(1,1)"><rect fill="#ffffff" stroke="none" x="866" y="240" width="127.484375" height="44"/></g><g transform="translate(-62,-134) scale(1,1)"><path fill="none" stroke="#000000" d="M 866 240 L 993.484375 240 L 993.484375 284 L 866 284 L 866 240 Z Z" stroke-miterlimit="10"/></g><g transform="translate(-62,-134) scale(1,1)"><rect fill="#ffffff" stroke="none" x="856" y="247" width="20" height="10"/></g><g transform="translate(-62,-134) scale(1,1)"><path fill="none" stroke="#000000" d="M 856 247 L 876 247 L 876 257 L 856 257 L 856 247 Z Z" stroke-miterlimit="10"/></g><g transform="translate(-62,-134) scale(1,1)"><rect fill="#ffffff" stroke="none" x="856" y="267" width="20" height="10"/></g><g transform="translate(-62,-134) scale(1,1)"><path fill="none" stroke="#000000" d="M 856 267 L 876 267 L 876 277 L 856 277 L 856 267 Z Z" stroke-miterlimit="10"/></g><g transform="translate(-62,-134) scale(1,1)"><g><path fill="none" stroke="none"/><text fill="#000000" stroke="none" font-family="Arial" font-size="13px" font-style="normal" font-weight="normal" text-decoration="none" x="900.893310546875" y="257.5">«Web App»</text></g></g><g transform="translate(-62,-134) scale(1,1)"><g><path fill="none" stroke="none"/><text fill="#000000" stroke="none" font-family="Arial" font-size="13px" font-style="normal" font-weight="bold" text-decoration="none" x="893.55859375" y="272.5">Portail Usager</text></g></g><g transform="translate(-62,-134) scale(1,1)"><rect fill="#C0C0C0" stroke="none" x="1065" y="247" width="102.3203125" height="44" opacity="0.2"/></g><g transform="translate(-62,-134) scale(1,1)"><rect fill="#ffffff" stroke="none" x="1058" y="240" width="102.3203125" height="44"/></g><g transform="translate(-62,-134) scale(1,1)"><path fill="none" stroke="#000000" d="M 1058 240 L 1160.3203125 240 L 1160.3203125 284 L 1058 284 L 1058 240 Z Z" stroke-miterlimit="10"/></g><g transform="translate(-62,-134) scale(1,1)"><rect fill="#ffffff" stroke="none" x="1048" y="247" width="20" height="10"/></g><g transform="translate(-62,-134) scale(1,1)"><path fill="none" stroke="#000000" d="M 1048 247 L 1068 247 L 1068 257 L 1048 257 L 1048 247 Z Z" stroke-miterlimit="10"/></g><g transform="translate(-62,-134) scale(1,1)"><rect fill="#ffffff" stroke="none" x="1048" y="267" width="20" height="10"/></g><g transform="translate(-62,-134) scale(1,1)"><path fill="none" stroke="#000000" d="M 1048 267 L 1068 267 L 1068 277 L 1048 277 L 1048 267 Z Z" stroke-miterlimit="10"/></g><g transform="translate(-62,-134) scale(1,1)"><g><path fill="none" stroke="none"/><text fill="#000000" stroke="none" font-family="Arial" font-size="13px" font-style="normal" font-weight="normal" text-decoration="none" x="1080.311279296875" y="257.5">«Web App»</text></g></g><g transform="translate(-62,-134) scale(1,1)"><g><path fill="none" stroke="none"/><text fill="#000000" stroke="none" font-family="Arial" font-size="13px" font-style="normal" font-weight="bold" text-decoration="none" x="1083.815185546875" y="272.5">Portail Pro</text></g></g><g transform="translate(-62,-134) scale(1,1)"><path fill="none" stroke="#000000" d="M 719 313 L 728 320 L 728 352 L 800 352 L 802 415" stroke-miterlimit="10"/></g><g transform="translate(-62,-134) scale(1,1)"><g><path fill="none" stroke="none"/><text fill="#000000" stroke="none" font-family="Arial" font-size="13px" font-style="normal" font-weight="normal" text-decoration="none" x="734.2099609375" y="340.5">+TCP IP</text></g></g><g transform="translate(-62,-134) scale(1,1)"><path fill="none" stroke="#000000" d="M 911 313 L 864 352 L 824 352 L 814 415" stroke-miterlimit="10"/></g><g transform="translate(-62,-134) scale(1,1)"><g><path fill="none" stroke="none"/><text fill="#000000" stroke="none" font-family="Arial" font-size="13px" font-style="normal" font-weight="normal" text-decoration="none" x="823.2099609375" y="348.5">+TCP IP</text></g></g><g transform="translate(-62,-134) scale(1,1)"><path fill="none" stroke="#000000" d="M 516 285 L 520 504 L 671 503" stroke-miterlimit="10" stroke-dasharray="3"/></g><g transform="translate(-62,-134) scale(1,1)"><path fill="none" stroke="#000000" d="M 660.8654249806772 507.27672645579753 L 671 503 L 660.8096710012187 498.8578755575674" stroke-miterlimit="10"/></g><g transform="translate(-62,-134) scale(1,1)"><path fill="none" stroke="#000000" d="M 696 285 L 696 376 L 728 376 L 737 479" stroke-miterlimit="10" stroke-dasharray="3"/></g><g transform="translate(-62,-134) scale(1,1)"><path fill="none" stroke="#000000" d="M 731.9218306454605 469.24232630148884 L 737 479 L 740.3089092542143 468.5094747725686" stroke-miterlimit="10"/></g><g transform="translate(-62,-134) scale(1,1)"><path fill="none" stroke="#000000" d="M 923 285 L 920 376 L 880 376 L 881 479" stroke-miterlimit="10" stroke-dasharray="3"/></g><g transform="translate(-62,-134) scale(1,1)"><path fill="none" stroke="#000000" d="M 876.6920185272949 468.8786712517165 L 881 479 L 885.1106572799538 468.7969368948946" stroke-miterlimit="10"/></g><g transform="translate(-62,-134) scale(1,1)"><path fill="none" stroke="#000000" d="M 1104 285 L 1104 496 L 940 500" stroke-miterlimit="10" stroke-dasharray="3"/></g><g transform="translate(-62,-134) scale(1,1)"><path fill="none" stroke="#000000" d="M 950.0570127596144 495.543937348628 L 940 500 L 950.2622940389803 503.96046980262577" stroke-miterlimit="10"/></g></g></svg>