<svg version="1.1" xmlns="http://www.w3.org/2000/svg" xmlns:xlink="http://www.w3.org/1999/xlink" width="508.76171875" height="433"><defs/><g><g transform="translate(-254,-270) scale(1,1)"><rect fill="#C0C0C0" stroke="none" x="415" y="383" width="109.4072265625" height="37" opacity="0.2"/></g><g transform="translate(-254,-270) scale(1,1)"><rect fill="#ffffff" stroke="none" x="408" y="376" width="109.4072265625" height="37"/></g><g transform="translate(-254,-270) scale(1,1)"><path fill="none" stroke="#000000" d="M 408 376 L 517.4072265625 376 L 517.4072265625 413 L 408 413 L 408 376 Z Z" stroke-miterlimit="10"/></g><g transform="translate(-254,-270) scale(1,1)"><g><path fill="none" stroke="none"/><text fill="#000000" stroke="none" font-family="Arial" font-size="13px" font-style="normal" font-weight="normal" text-decoration="none" x="419.345947265625" y="393.5">«Abstract Job»</text></g></g><g transform="translate(-254,-270) scale(1,1)"><g><path fill="none" stroke="none"/><text fill="#000000" stroke="none" font-family="Arial" font-size="13px" font-style="italic" font-weight="bold" text-decoration="none" x="416.82275390625" y="408.5">AbstractDpsJob</text></g></g><g transform="translate(-254,-270) scale(1,1)"><rect fill="#C0C0C0" stroke="none" x="639" y="383" width="92.052734375" height="37" opacity="0.2"/></g><g transform="translate(-254,-270) scale(1,1)"><rect fill="#ffffff" stroke="none" x="632" y="376" width="92.052734375" height="37"/></g><g transform="translate(-254,-270) scale(1,1)"><path fill="none" stroke="#000000" d="M 632 376 L 724.052734375 376 L 724.052734375 413 L 632 413 L 632 376 Z Z" stroke-miterlimit="10"/></g><g transform="translate(-254,-270) scale(1,1)"><g><path fill="none" stroke="none"/><text fill="#000000" stroke="none" font-family="Arial" font-size="13px" font-style="normal" font-weight="normal" text-decoration="none" x="660.31640625" y="393.5">«Job»</text></g></g><g transform="translate(-254,-270) scale(1,1)"><g><path fill="none" stroke="none"/><text fill="#000000" stroke="none" font-family="Arial" font-size="13px" font-style="normal" font-weight="bold" text-decoration="none" x="640.45458984375" y="408.5">GrdfAdictJob</text></g></g><g transform="translate(-254,-270) scale(1,1)"><path fill="none" stroke="#000000" d="M 632 394 L 517 394" stroke-miterlimit="10"/></g><g transform="translate(-254,-270) scale(1,1)"><path fill="#FFFFFF" stroke="none" d="M 537.3253497152483 385.580964487968 L 517 394 L 537.3253497152483 402.419035512032"/></g><g transform="translate(-254,-270) scale(1,1)"><path fill="none" stroke="#000000" d="M 537.3253497152483 385.580964487968 L 517 394 L 537.3253497152483 402.419035512032 L 537.3253497152483 385.580964487968" stroke-miterlimit="10"/></g><g transform="translate(-254,-270) scale(1,1)"><rect fill="#C0C0C0" stroke="none" x="415" y="287" width="112.2890625" height="37" opacity="0.2"/></g><g transform="translate(-254,-270) scale(1,1)"><rect fill="#ffffff" stroke="none" x="408" y="280" width="112.2890625" height="37"/></g><g transform="translate(-254,-270) scale(1,1)"><path fill="none" stroke="#000000" d="M 408 280 L 520.2890625 280 L 520.2890625 317 L 408 317 L 408 280 Z Z" stroke-miterlimit="10"/></g><g transform="translate(-254,-270) scale(1,1)"><g><path fill="none" stroke="none"/><text fill="#000000" stroke="none" font-family="Arial" font-size="13px" font-style="normal" font-weight="normal" text-decoration="none" x="446.4345703125" y="297.5">«Job»</text></g></g><g transform="translate(-254,-270) scale(1,1)"><g><path fill="none" stroke="none"/><text fill="#000000" stroke="none" font-family="Arial" font-size="13px" font-style="normal" font-weight="bold" text-decoration="none" x="415.724609375" y="312.5">DataConnectJob</text></g></g><g transform="translate(-254,-270) scale(1,1)"><path fill="none" stroke="#000000" d="M 464 317 L 464 376" stroke-miterlimit="10"/></g><g transform="translate(-254,-270) scale(1,1)"><path fill="#FFFFFF" stroke="none" d="M 455.580964487968 355.6746502847517 L 464 376 L 472.419035512032 355.6746502847517"/></g><g transform="translate(-254,-270) scale(1,1)"><path fill="none" stroke="#000000" d="M 455.580964487968 355.6746502847517 L 464 376 L 472.419035512032 355.6746502847517 L 455.580964487968 355.6746502847517" stroke-miterlimit="10"/></g><g transform="translate(-254,-270) scale(1,1)"><rect fill="#C0C0C0" stroke="none" x="503" y="455" width="137.578125" height="37" opacity="0.2"/></g><g transform="translate(-254,-270) scale(1,1)"><rect fill="#ffffff" stroke="none" x="496" y="448" width="137.578125" height="37"/></g><g transform="translate(-254,-270) scale(1,1)"><path fill="none" stroke="#000000" d="M 496 448 L 633.578125 448 L 633.578125 485 L 496 485 L 496 448 Z Z" stroke-miterlimit="10"/></g><g transform="translate(-254,-270) scale(1,1)"><g><path fill="none" stroke="none"/><text fill="#000000" stroke="none" font-family="Arial" font-size="13px" font-style="normal" font-weight="normal" text-decoration="none" x="534.79638671875" y="465.5">«Handler»</text></g></g><g transform="translate(-254,-270) scale(1,1)"><g><path fill="none" stroke="none"/><text fill="#000000" stroke="none" font-family="Arial" font-size="13px" font-style="italic" font-weight="bold" text-decoration="none" x="505.543212890625" y="480.5">AbstractGrdfHandler</text></g></g><g transform="translate(-254,-270) scale(1,1)"><rect fill="#C0C0C0" stroke="none" x="607" y="503" width="152.76171875" height="37" opacity="0.2"/></g><g transform="translate(-254,-270) scale(1,1)"><rect fill="#ffffff" stroke="none" x="600" y="496" width="152.76171875" height="37"/></g><g transform="translate(-254,-270) scale(1,1)"><path fill="none" stroke="#000000" d="M 600 496 L 752.76171875 496 L 752.76171875 533 L 600 533 L 600 496 Z Z" stroke-miterlimit="10"/></g><g transform="translate(-254,-270) scale(1,1)"><g><path fill="none" stroke="none"/><text fill="#000000" stroke="none" font-family="Arial" font-size="13px" font-style="normal" font-weight="normal" text-decoration="none" x="646.38818359375" y="513.5">«Handler»</text></g></g><g transform="translate(-254,-270) scale(1,1)"><g><path fill="none" stroke="none"/><text fill="#000000" stroke="none" font-family="Arial" font-size="13px" font-style="italic" font-weight="bold" text-decoration="none" x="609.90185546875" y="528.5">AbstractEnedisHandler</text></g></g><g transform="translate(-254,-270) scale(1,1)"><rect fill="#C0C0C0" stroke="none" x="519" y="591" width="134.6962890625" height="37" opacity="0.2"/></g><g transform="translate(-254,-270) scale(1,1)"><rect fill="#ffffff" stroke="none" x="512" y="584" width="134.6962890625" height="37"/></g><g transform="translate(-254,-270) scale(1,1)"><path fill="none" stroke="#000000" d="M 512 584 L 646.6962890625 584 L 646.6962890625 621 L 512 621 L 512 584 Z Z" stroke-miterlimit="10"/></g><g transform="translate(-254,-270) scale(1,1)"><g><path fill="none" stroke="none"/><text fill="#000000" stroke="none" font-family="Arial" font-size="13px" font-style="normal" font-weight="normal" text-decoration="none" x="549.35546875" y="601.5">«Handler»</text></g></g><g transform="translate(-254,-270) scale(1,1)"><g><path fill="none" stroke="none"/><text fill="#000000" stroke="none" font-family="Arial" font-size="13px" font-style="italic" font-weight="bold" text-decoration="none" x="521.1845703125" y="616.5">AbstractDpsHandler</text></g></g><g transform="translate(-254,-270) scale(1,1)"><path fill="none" stroke="#000000" d="M 720 533 L 720 610 L 647 610" stroke-miterlimit="10"/></g><g transform="translate(-254,-270) scale(1,1)"><path fill="#FFFFFF" stroke="none" d="M 667.3253497152483 601.580964487968 L 647 610 L 667.3253497152483 618.419035512032"/></g><g transform="translate(-254,-270) scale(1,1)"><path fill="none" stroke="#000000" d="M 667.3253497152483 601.580964487968 L 647 610 L 667.3253497152483 618.419035512032 L 667.3253497152483 601.580964487968" stroke-miterlimit="10"/></g><g transform="translate(-254,-270) scale(1,1)"><path fill="none" stroke="#000000" d="M 564 485 L 564 584" stroke-miterlimit="10"/></g><g transform="translate(-254,-270) scale(1,1)"><path fill="#FFFFFF" stroke="none" d="M 555.580964487968 563.6746502847517 L 564 584 L 572.419035512032 563.6746502847517"/></g><g transform="translate(-254,-270) scale(1,1)"><path fill="none" stroke="#000000" d="M 555.580964487968 563.6746502847517 L 564 584 L 572.419035512032 563.6746502847517 L 555.580964487968 563.6746502847517" stroke-miterlimit="10"/></g><g transform="translate(-254,-270) scale(1,1)"><rect fill="#C0C0C0" stroke="none" x="407" y="663" width="128.919921875" height="37" opacity="0.2"/></g><g transform="translate(-254,-270) scale(1,1)"><rect fill="#ffffff" stroke="none" x="400" y="656" width="128.919921875" height="37"/></g><g transform="translate(-254,-270) scale(1,1)"><path fill="none" stroke="#000000" d="M 400 656 L 528.919921875 656 L 528.919921875 693 L 400 693 L 400 656 Z Z" stroke-miterlimit="10"/></g><g transform="translate(-254,-270) scale(1,1)"><g><path fill="none" stroke="none"/><text fill="#000000" stroke="none" font-family="Arial" font-size="13px" font-style="normal" font-weight="normal" text-decoration="none" x="435.55908203125" y="673.5">«Factory»</text></g></g><g transform="translate(-254,-270) scale(1,1)"><g><path fill="none" stroke="none"/><text fill="#000000" stroke="none" font-family="Arial" font-size="13px" font-style="normal" font-weight="bold" text-decoration="none" x="408.46728515625" y="688.5">DpsHandlerFactory</text></g></g><g transform="translate(-254,-270) scale(1,1)"><rect fill="#C0C0C0" stroke="none" x="295" y="575" width="163.5654296875" height="37" opacity="0.2"/></g><g transform="translate(-254,-270) scale(1,1)"><rect fill="#ffffff" stroke="none" x="288" y="568" width="163.5654296875" height="37"/></g><g transform="translate(-254,-270) scale(1,1)"><path fill="none" stroke="#000000" d="M 288 568 L 451.5654296875 568 L 451.5654296875 605 L 288 605 L 288 568 Z Z" stroke-miterlimit="10"/></g><g transform="translate(-254,-270) scale(1,1)"><g><path fill="none" stroke="none"/><text fill="#000000" stroke="none" font-family="Arial" font-size="13px" font-style="normal" font-weight="normal" text-decoration="none" x="331.484130859375" y="585.5">«Repository»</text></g></g><g transform="translate(-254,-270) scale(1,1)"><g><path fill="none" stroke="none"/><text fill="#000000" stroke="none" font-family="Arial" font-size="13px" font-style="normal" font-weight="bold" text-decoration="none" x="298.609619140625" y="600.5">MeteringPointRepository</text></g></g><g transform="translate(-254,-270) scale(1,1)"><rect fill="#C0C0C0" stroke="none" x="271" y="487" width="137.57177734375" height="37" opacity="0.2"/></g><g transform="translate(-254,-270) scale(1,1)"><rect fill="#ffffff" stroke="none" x="264" y="480" width="137.57177734375" height="37"/></g><g transform="translate(-254,-270) scale(1,1)"><path fill="none" stroke="#000000" d="M 264 480 L 401.57177734375 480 L 401.57177734375 517 L 264 517 L 264 480 Z Z" stroke-miterlimit="10"/></g><g transform="translate(-254,-270) scale(1,1)"><g><path fill="none" stroke="none"/><text fill="#000000" stroke="none" font-family="Arial" font-size="13px" font-style="normal" font-weight="normal" text-decoration="none" x="294.4873046875" y="497.5">«Repository»</text></g></g><g transform="translate(-254,-270) scale(1,1)"><g><path fill="none" stroke="none"/><text fill="#000000" stroke="none" font-family="Arial" font-size="13px" font-style="normal" font-weight="bold" text-decoration="none" x="273.530517578125" y="512.5">AppEventRepository</text></g></g><g transform="translate(-254,-270) scale(1,1)"><path fill="none" stroke="#000000" d="M 424 413 L 424 544 L 332 544 L 332 517" stroke-miterlimit="10"/></g><g transform="translate(-254,-270) scale(1,1)"><path fill="#000000" stroke="none" d="M 336.209517756016 527.1626748576241 L 332 517 L 327.790482243984 527.1626748576241 L 332 539"/></g><g transform="translate(-254,-270) scale(1,1)"><path fill="none" stroke="#000000" d="M 336.209517756016 527.1626748576241 L 332 517 L 327.790482243984 527.1626748576241 L 332 539 L 336.209517756016 527.1626748576241" stroke-miterlimit="10"/></g><g transform="translate(-254,-270) scale(1,1)"><path fill="none" stroke="#000000" d="M 454 413 L 454 446 L 448 446 L 448 568" stroke-miterlimit="10"/></g><g transform="translate(-254,-270) scale(1,1)"><path fill="#000000" stroke="none" d="M 443.790482243984 557.8373251423759 L 448 568 L 452.209517756016 557.8373251423759 L 448 546"/></g><g transform="translate(-254,-270) scale(1,1)"><path fill="none" stroke="#000000" d="M 443.790482243984 557.8373251423759 L 448 568 L 452.209517756016 557.8373251423759 L 448 546 L 443.790482243984 557.8373251423759" stroke-miterlimit="10"/></g><g transform="translate(-254,-270) scale(1,1)"><path fill="none" stroke="#000000" d="M 462 413 L 462 656" stroke-miterlimit="10"/></g><g transform="translate(-254,-270) scale(1,1)"><path fill="#000000" stroke="none" d="M 457.790482243984 645.8373251423759 L 462 656 L 466.209517756016 645.8373251423759 L 462 634"/></g><g transform="translate(-254,-270) scale(1,1)"><path fill="none" stroke="#000000" d="M 457.790482243984 645.8373251423759 L 462 656 L 466.209517756016 645.8373251423759 L 462 634 L 457.790482243984 645.8373251423759" stroke-miterlimit="10"/></g><g transform="translate(-254,-270) scale(1,1)"><path fill="none" stroke="#000000" d="M 468 413 L 468 454 L 480 454 L 480 610 L 512 610" stroke-miterlimit="10"/></g><g transform="translate(-254,-270) scale(1,1)"><path fill="#000000" stroke="none" d="M 501.83732514237585 614.209517756016 L 512 610 L 501.83732514237585 605.790482243984 L 490 610"/></g><g transform="translate(-254,-270) scale(1,1)"><path fill="none" stroke="#000000" d="M 501.83732514237585 614.209517756016 L 512 610 L 501.83732514237585 605.790482243984 L 490 610 L 501.83732514237585 614.209517756016" stroke-miterlimit="10"/></g></g></svg>