<svg version="1.1" xmlns="http://www.w3.org/2000/svg" xmlns:xlink="http://www.w3.org/1999/xlink" width="233.82080078125" height="409"><defs/><g><g transform="translate(-10,-10) scale(1,1)"><rect fill="#C0C0C0" stroke="none" x="111.82080078125" y="27" width="19.599999999999994" height="15" opacity="0.2"/></g><g transform="translate(-10,-10) scale(1,1)"><rect fill="#C0C0C0" stroke="none" x="111.82080078125" y="41" width="49" height="25" opacity="0.2"/></g><g transform="translate(-10,-10) scale(1,1)"><rect fill="#ffffff" stroke="none" x="104.82080078125" y="35" width="49" height="24"/></g><g transform="translate(-10,-10) scale(1,1)"><path fill="none" stroke="#000000" d="M 104.82080078125 35 L 153.82080078125 35 L 153.82080078125 59 L 104.82080078125 59 L 104.82080078125 35 Z Z" stroke-miterlimit="10"/></g><g transform="translate(-10,-10) scale(1,1)"><rect fill="#ffffff" stroke="none" x="104.82080078125" y="20" width="19.599999999999994" height="15"/></g><g transform="translate(-10,-10) scale(1,1)"><path fill="none" stroke="#000000" d="M 104.82080078125 20 L 124.42080078125 20 L 124.42080078125 35 L 104.82080078125 35 L 104.82080078125 20 Z Z" stroke-miterlimit="10"/></g><g transform="translate(-10,-10) scale(1,1)"><rect fill="#ffffff" stroke="none" x="104.82080078125" y="34" width="49" height="25"/></g><g transform="translate(-10,-10) scale(1,1)"><path fill="none" stroke="#000000" d="M 104.82080078125 34 L 153.82080078125 34 L 153.82080078125 59 L 104.82080078125 59 L 104.82080078125 34 Z Z" stroke-miterlimit="10"/></g><g transform="translate(-10,-10) scale(1,1)"><g><path fill="none" stroke="none"/><text fill="#000000" stroke="none" font-family="Arial" font-size="13px" font-style="normal" font-weight="bold" text-decoration="none" x="120.284912109375" y="54.5">net</text></g></g><g transform="translate(-10,-10) scale(1,1)"><rect fill="#C0C0C0" stroke="none" x="111.82080078125" y="97" width="19.599999999999994" height="15" opacity="0.2"/></g><g transform="translate(-10,-10) scale(1,1)"><rect fill="#C0C0C0" stroke="none" x="111.82080078125" y="111" width="49" height="25" opacity="0.2"/></g><g transform="translate(-10,-10) scale(1,1)"><rect fill="#ffffff" stroke="none" x="104.82080078125" y="105" width="49" height="24"/></g><g transform="translate(-10,-10) scale(1,1)"><path fill="none" stroke="#000000" d="M 104.82080078125 105 L 153.82080078125 105 L 153.82080078125 129 L 104.82080078125 129 L 104.82080078125 105 Z Z" stroke-miterlimit="10"/></g><g transform="translate(-10,-10) scale(1,1)"><rect fill="#ffffff" stroke="none" x="104.82080078125" y="90" width="19.599999999999994" height="15"/></g><g transform="translate(-10,-10) scale(1,1)"><path fill="none" stroke="#000000" d="M 104.82080078125 90 L 124.42080078125 90 L 124.42080078125 105 L 104.82080078125 105 L 104.82080078125 90 Z Z" stroke-miterlimit="10"/></g><g transform="translate(-10,-10) scale(1,1)"><rect fill="#ffffff" stroke="none" x="104.82080078125" y="104" width="49" height="25"/></g><g transform="translate(-10,-10) scale(1,1)"><path fill="none" stroke="#000000" d="M 104.82080078125 104 L 153.82080078125 104 L 153.82080078125 129 L 104.82080078125 129 L 104.82080078125 104 Z Z" stroke-miterlimit="10"/></g><g transform="translate(-10,-10) scale(1,1)"><g><path fill="none" stroke="none"/><text fill="#000000" stroke="none" font-family="Arial" font-size="13px" font-style="normal" font-weight="bold" text-decoration="none" x="117.034912109375" y="124.5">atos</text></g></g><g transform="translate(-10,-10) scale(1,1)"><rect fill="#C0C0C0" stroke="none" x="111.82080078125" y="167" width="19.599999999999994" height="15" opacity="0.2"/></g><g transform="translate(-10,-10) scale(1,1)"><rect fill="#C0C0C0" stroke="none" x="111.82080078125" y="181" width="49" height="25" opacity="0.2"/></g><g transform="translate(-10,-10) scale(1,1)"><rect fill="#ffffff" stroke="none" x="104.82080078125" y="175" width="49" height="24"/></g><g transform="translate(-10,-10) scale(1,1)"><path fill="none" stroke="#000000" d="M 104.82080078125 175 L 153.82080078125 175 L 153.82080078125 199 L 104.82080078125 199 L 104.82080078125 175 Z Z" stroke-miterlimit="10"/></g><g transform="translate(-10,-10) scale(1,1)"><rect fill="#ffffff" stroke="none" x="104.82080078125" y="160" width="19.599999999999994" height="15"/></g><g transform="translate(-10,-10) scale(1,1)"><path fill="none" stroke="#000000" d="M 104.82080078125 160 L 124.42080078125 160 L 124.42080078125 175 L 104.82080078125 175 L 104.82080078125 160 Z Z" stroke-miterlimit="10"/></g><g transform="translate(-10,-10) scale(1,1)"><rect fill="#ffffff" stroke="none" x="104.82080078125" y="174" width="49" height="25"/></g><g transform="translate(-10,-10) scale(1,1)"><path fill="none" stroke="#000000" d="M 104.82080078125 174 L 153.82080078125 174 L 153.82080078125 199 L 104.82080078125 199 L 104.82080078125 174 Z Z" stroke-miterlimit="10"/></g><g transform="translate(-10,-10) scale(1,1)"><g><path fill="none" stroke="none"/><text fill="#000000" stroke="none" font-family="Arial" font-size="13px" font-style="normal" font-weight="bold" text-decoration="none" x="118.8408203125" y="194.5">s2g</text></g></g><g transform="translate(-10,-10) scale(1,1)"><rect fill="#C0C0C0" stroke="none" x="111.82080078125" y="237" width="19.599999999999994" height="15" opacity="0.2"/></g><g transform="translate(-10,-10) scale(1,1)"><rect fill="#C0C0C0" stroke="none" x="111.82080078125" y="251" width="49" height="25" opacity="0.2"/></g><g transform="translate(-10,-10) scale(1,1)"><rect fill="#ffffff" stroke="none" x="104.82080078125" y="245" width="49" height="24"/></g><g transform="translate(-10,-10) scale(1,1)"><path fill="none" stroke="#000000" d="M 104.82080078125 245 L 153.82080078125 245 L 153.82080078125 269 L 104.82080078125 269 L 104.82080078125 245 Z Z" stroke-miterlimit="10"/></g><g transform="translate(-10,-10) scale(1,1)"><rect fill="#ffffff" stroke="none" x="104.82080078125" y="230" width="19.599999999999994" height="15"/></g><g transform="translate(-10,-10) scale(1,1)"><path fill="none" stroke="#000000" d="M 104.82080078125 230 L 124.42080078125 230 L 124.42080078125 245 L 104.82080078125 245 L 104.82080078125 230 Z Z" stroke-miterlimit="10"/></g><g transform="translate(-10,-10) scale(1,1)"><rect fill="#ffffff" stroke="none" x="104.82080078125" y="244" width="49" height="25"/></g><g transform="translate(-10,-10) scale(1,1)"><path fill="none" stroke="#000000" d="M 104.82080078125 244 L 153.82080078125 244 L 153.82080078125 269 L 104.82080078125 269 L 104.82080078125 244 Z Z" stroke-miterlimit="10"/></g><g transform="translate(-10,-10) scale(1,1)"><g><path fill="none" stroke="none"/><text fill="#000000" stroke="none" font-family="Arial" font-size="13px" font-style="normal" font-weight="bold" text-decoration="none" x="122.100341796875" y="264.5">mt</text></g></g><g transform="translate(-10,-10) scale(1,1)"><rect fill="#C0C0C0" stroke="none" x="106.890380859375" y="307" width="23.544335937499994" height="15" opacity="0.2"/></g><g transform="translate(-10,-10) scale(1,1)"><rect fill="#C0C0C0" stroke="none" x="106.890380859375" y="321" width="58.86083984375" height="25" opacity="0.2"/></g><g transform="translate(-10,-10) scale(1,1)"><rect fill="#ffffff" stroke="none" x="99.890380859375" y="315" width="58.86083984375" height="24"/></g><g transform="translate(-10,-10) scale(1,1)"><path fill="none" stroke="#000000" d="M 99.890380859375 315 L 158.751220703125 315 L 158.751220703125 339 L 99.890380859375 339 L 99.890380859375 315 Z Z" stroke-miterlimit="10"/></g><g transform="translate(-10,-10) scale(1,1)"><rect fill="#ffffff" stroke="none" x="99.890380859375" y="300" width="23.544335937499994" height="15"/></g><g transform="translate(-10,-10) scale(1,1)"><path fill="none" stroke="#000000" d="M 99.890380859375 300 L 123.434716796875 300 L 123.434716796875 315 L 99.890380859375 315 L 99.890380859375 300 Z Z" stroke-miterlimit="10"/></g><g transform="translate(-10,-10) scale(1,1)"><rect fill="#ffffff" stroke="none" x="99.890380859375" y="314" width="58.86083984375" height="25"/></g><g transform="translate(-10,-10) scale(1,1)"><path fill="none" stroke="#000000" d="M 99.890380859375 314 L 158.751220703125 314 L 158.751220703125 339 L 99.890380859375 339 L 99.890380859375 314 Z Z" stroke-miterlimit="10"/></g><g transform="translate(-10,-10) scale(1,1)"><g><path fill="none" stroke="none"/><text fill="#000000" stroke="none" font-family="Arial" font-size="13px" font-style="normal" font-weight="bold" text-decoration="none" x="106.92626953125" y="334.5">security</text></g></g><g transform="translate(-10,-10) scale(1,1)"><rect fill="#C0C0C0" stroke="none" x="27" y="377" width="21.5283203125" height="15" opacity="0.2"/></g><g transform="translate(-10,-10) scale(1,1)"><rect fill="#C0C0C0" stroke="none" x="27" y="391" width="53.82080078125" height="25" opacity="0.2"/></g><g transform="translate(-10,-10) scale(1,1)"><rect fill="#ffffff" stroke="none" x="20" y="385" width="53.82080078125" height="24"/></g><g transform="translate(-10,-10) scale(1,1)"><path fill="none" stroke="#000000" d="M 20 385 L 73.82080078125 385 L 73.82080078125 409 L 20 409 L 20 385 Z Z" stroke-miterlimit="10"/></g><g transform="translate(-10,-10) scale(1,1)"><rect fill="#ffffff" stroke="none" x="20" y="370" width="21.5283203125" height="15"/></g><g transform="translate(-10,-10) scale(1,1)"><path fill="none" stroke="#000000" d="M 20 370 L 41.5283203125 370 L 41.5283203125 385 L 20 385 L 20 370 Z Z" stroke-miterlimit="10"/></g><g transform="translate(-10,-10) scale(1,1)"><rect fill="#ffffff" stroke="none" x="20" y="384" width="53.82080078125" height="25"/></g><g transform="translate(-10,-10) scale(1,1)"><path fill="none" stroke="#000000" d="M 20 384 L 73.82080078125 384 L 73.82080078125 409 L 20 409 L 20 384 Z Z" stroke-miterlimit="10"/></g><g transform="translate(-10,-10) scale(1,1)"><g><path fill="none" stroke="none"/><text fill="#000000" stroke="none" font-family="Arial" font-size="13px" font-style="normal" font-weight="bold" text-decoration="none" x="26.32177734375" y="404.5">service</text></g></g><g transform="translate(-10,-10) scale(1,1)"><rect fill="#C0C0C0" stroke="none" x="111.82080078125" y="377" width="19.599999999999994" height="15" opacity="0.2"/></g><g transform="translate(-10,-10) scale(1,1)"><rect fill="#C0C0C0" stroke="none" x="111.82080078125" y="391" width="49" height="25" opacity="0.2"/></g><g transform="translate(-10,-10) scale(1,1)"><rect fill="#ffffff" stroke="none" x="104.82080078125" y="385" width="49" height="24"/></g><g transform="translate(-10,-10) scale(1,1)"><path fill="none" stroke="#000000" d="M 104.82080078125 385 L 153.82080078125 385 L 153.82080078125 409 L 104.82080078125 409 L 104.82080078125 385 Z Z" stroke-miterlimit="10"/></g><g transform="translate(-10,-10) scale(1,1)"><rect fill="#ffffff" stroke="none" x="104.82080078125" y="370" width="19.599999999999994" height="15"/></g><g transform="translate(-10,-10) scale(1,1)"><path fill="none" stroke="#000000" d="M 104.82080078125 370 L 124.42080078125 370 L 124.42080078125 385 L 104.82080078125 385 L 104.82080078125 370 Z Z" stroke-miterlimit="10"/></g><g transform="translate(-10,-10) scale(1,1)"><rect fill="#ffffff" stroke="none" x="104.82080078125" y="384" width="49" height="25"/></g><g transform="translate(-10,-10) scale(1,1)"><path fill="none" stroke="#000000" d="M 104.82080078125 384 L 153.82080078125 384 L 153.82080078125 409 L 104.82080078125 409 L 104.82080078125 384 Z Z" stroke-miterlimit="10"/></g><g transform="translate(-10,-10) scale(1,1)"><g><path fill="none" stroke="none"/><text fill="#000000" stroke="none" font-family="Arial" font-size="13px" font-style="normal" font-weight="bold" text-decoration="none" x="113.419921875" y="404.5">token</text></g></g><g transform="translate(-10,-10) scale(1,1)"><rect fill="#C0C0C0" stroke="none" x="191.82080078125" y="377" width="19.599999999999994" height="15" opacity="0.2"/></g><g transform="translate(-10,-10) scale(1,1)"><rect fill="#C0C0C0" stroke="none" x="191.82080078125" y="391" width="49" height="25" opacity="0.2"/></g><g transform="translate(-10,-10) scale(1,1)"><rect fill="#ffffff" stroke="none" x="184.82080078125" y="385" width="49" height="24"/></g><g transform="translate(-10,-10) scale(1,1)"><path fill="none" stroke="#000000" d="M 184.82080078125 385 L 233.82080078125 385 L 233.82080078125 409 L 184.82080078125 409 L 184.82080078125 385 Z Z" stroke-miterlimit="10"/></g><g transform="translate(-10,-10) scale(1,1)"><rect fill="#ffffff" stroke="none" x="184.82080078125" y="370" width="19.599999999999994" height="15"/></g><g transform="translate(-10,-10) scale(1,1)"><path fill="none" stroke="#000000" d="M 184.82080078125 370 L 204.42080078125 370 L 204.42080078125 385 L 184.82080078125 385 L 184.82080078125 370 Z Z" stroke-miterlimit="10"/></g><g transform="translate(-10,-10) scale(1,1)"><rect fill="#ffffff" stroke="none" x="184.82080078125" y="384" width="49" height="25"/></g><g transform="translate(-10,-10) scale(1,1)"><path fill="none" stroke="#000000" d="M 184.82080078125 384 L 233.82080078125 384 L 233.82080078125 409 L 184.82080078125 409 L 184.82080078125 384 Z Z" stroke-miterlimit="10"/></g><g transform="translate(-10,-10) scale(1,1)"><g><path fill="none" stroke="none"/><text fill="#000000" stroke="none" font-family="Arial" font-size="13px" font-style="normal" font-weight="bold" text-decoration="none" x="197.76171875" y="404.5">utils</text></g></g><g transform="translate(-10,-10) scale(1,1)"><path fill="none" stroke="#000000" d="M 130 89 Q 130 75 130 60" stroke-miterlimit="10"/></g><g transform="translate(-10,-10) scale(1,1)"><path fill="#FFFFFF" stroke="none" d="M 123 67 C 123 63.1340064 126.1340064 60 130 60 C 133.8659936 60 137 63.1340064 137 67 C 137 70.8659936 133.8659936 74 130 74 C 126.1340064 74 123 70.8659936 123 67 Z"/></g><g transform="translate(-10,-10) scale(1,1)"><path fill="none" stroke="#000000" d="M 123 67 C 123 63.1340064 126.1340064 60 130 60 C 133.8659936 60 137 63.1340064 137 67 C 137 70.8659936 133.8659936 74 130 74 C 126.1340064 74 123 70.8659936 123 67 Z" stroke-miterlimit="10"/></g><g transform="translate(-10,-10) scale(1,1)"><path fill="none" stroke="#000000" d="M 130 74 L 130 60" stroke-miterlimit="10"/></g><g transform="translate(-10,-10) scale(1,1)"><path fill="none" stroke="#000000" d="M 137 67 L 123 67" stroke-miterlimit="10"/></g><g transform="translate(-10,-10) scale(1,1)"><path fill="none" stroke="#000000" d="M 130 159 Q 130 145 130 130" stroke-miterlimit="10"/></g><g transform="translate(-10,-10) scale(1,1)"><path fill="#FFFFFF" stroke="none" d="M 123 137 C 123 133.1340064 126.1340064 130 130 130 C 133.8659936 130 137 133.1340064 137 137 C 137 140.8659936 133.8659936 144 130 144 C 126.1340064 144 123 140.8659936 123 137 Z"/></g><g transform="translate(-10,-10) scale(1,1)"><path fill="none" stroke="#000000" d="M 123 137 C 123 133.1340064 126.1340064 130 130 130 C 133.8659936 130 137 133.1340064 137 137 C 137 140.8659936 133.8659936 144 130 144 C 126.1340064 144 123 140.8659936 123 137 Z" stroke-miterlimit="10"/></g><g transform="translate(-10,-10) scale(1,1)"><path fill="none" stroke="#000000" d="M 130 144 L 130 130" stroke-miterlimit="10"/></g><g transform="translate(-10,-10) scale(1,1)"><path fill="none" stroke="#000000" d="M 137 137 L 123 137" stroke-miterlimit="10"/></g><g transform="translate(-10,-10) scale(1,1)"><path fill="none" stroke="#000000" d="M 130 229 Q 130 215 130 200" stroke-miterlimit="10"/></g><g transform="translate(-10,-10) scale(1,1)"><path fill="#FFFFFF" stroke="none" d="M 123 207 C 123 203.1340064 126.1340064 200 130 200 C 133.8659936 200 137 203.1340064 137 207 C 137 210.8659936 133.8659936 214 130 214 C 126.1340064 214 123 210.8659936 123 207 Z"/></g><g transform="translate(-10,-10) scale(1,1)"><path fill="none" stroke="#000000" d="M 123 207 C 123 203.1340064 126.1340064 200 130 200 C 133.8659936 200 137 203.1340064 137 207 C 137 210.8659936 133.8659936 214 130 214 C 126.1340064 214 123 210.8659936 123 207 Z" stroke-miterlimit="10"/></g><g transform="translate(-10,-10) scale(1,1)"><path fill="none" stroke="#000000" d="M 130 214 L 130 200" stroke-miterlimit="10"/></g><g transform="translate(-10,-10) scale(1,1)"><path fill="none" stroke="#000000" d="M 137 207 L 123 207" stroke-miterlimit="10"/></g><g transform="translate(-10,-10) scale(1,1)"><path fill="none" stroke="#000000" d="M 130 299 Q 130 285 130 270" stroke-miterlimit="10"/></g><g transform="translate(-10,-10) scale(1,1)"><path fill="#FFFFFF" stroke="none" d="M 123 277 C 123 273.1340064 126.1340064 270 130 270 C 133.8659936 270 137 273.1340064 137 277 C 137 280.8659936 133.8659936 284 130 284 C 126.1340064 284 123 280.8659936 123 277 Z"/></g><g transform="translate(-10,-10) scale(1,1)"><path fill="none" stroke="#000000" d="M 123 277 C 123 273.1340064 126.1340064 270 130 270 C 133.8659936 270 137 273.1340064 137 277 C 137 280.8659936 133.8659936 284 130 284 C 126.1340064 284 123 280.8659936 123 277 Z" stroke-miterlimit="10"/></g><g transform="translate(-10,-10) scale(1,1)"><path fill="none" stroke="#000000" d="M 130 284 L 130 270" stroke-miterlimit="10"/></g><g transform="translate(-10,-10) scale(1,1)"><path fill="none" stroke="#000000" d="M 137 277 L 123 277" stroke-miterlimit="10"/></g><g transform="translate(-10,-10) scale(1,1)"><path fill="none" stroke="#000000" d="M 47 369 Q 47 355 99 332" stroke-miterlimit="10"/></g><g transform="translate(-10,-10) scale(1,1)"><path fill="#FFFFFF" stroke="none" d="M 85.598252635692 334.8315421034439 C 85.598252635692 330.96554850344387 88.73225903569201 327.8315421034439 92.598252635692 327.8315421034439 C 96.464246235692 327.8315421034439 99.598252635692 330.96554850344387 99.598252635692 334.8315421034439 C 99.598252635692 338.6975357034439 96.464246235692 341.8315421034439 92.598252635692 341.8315421034439 C 88.73225903569201 341.8315421034439 85.598252635692 338.6975357034439 85.598252635692 334.8315421034439 Z"/></g><g transform="translate(-10,-10) scale(1,1)"><path fill="none" stroke="#000000" d="M 85.598252635692 334.8315421034439 C 85.598252635692 330.96554850344387 88.73225903569201 327.8315421034439 92.598252635692 327.8315421034439 C 96.464246235692 327.8315421034439 99.598252635692 330.96554850344387 99.598252635692 334.8315421034439 C 99.598252635692 338.6975357034439 96.464246235692 341.8315421034439 92.598252635692 341.8315421034439 C 88.73225903569201 341.8315421034439 85.598252635692 338.6975357034439 85.598252635692 334.8315421034439 Z" stroke-miterlimit="10"/></g><g transform="translate(-10,-10) scale(1,1)"><path fill="none" stroke="#000000" d="M 86.19650527138401 337.66308420688785 L 99 332" stroke-miterlimit="10"/></g><g transform="translate(-10,-10) scale(1,1)"><path fill="none" stroke="#000000" d="M 95.42979473913593 341.2332894677519 L 89.76671053224808 328.4297947391359" stroke-miterlimit="10"/></g><g transform="translate(-10,-10) scale(1,1)"><path fill="none" stroke="#000000" d="M 130 369 Q 130 355 130 340" stroke-miterlimit="10"/></g><g transform="translate(-10,-10) scale(1,1)"><path fill="#FFFFFF" stroke="none" d="M 123 347 C 123 343.1340064 126.1340064 340 130 340 C 133.8659936 340 137 343.1340064 137 347 C 137 350.8659936 133.8659936 354 130 354 C 126.1340064 354 123 350.8659936 123 347 Z"/></g><g transform="translate(-10,-10) scale(1,1)"><path fill="none" stroke="#000000" d="M 123 347 C 123 343.1340064 126.1340064 340 130 340 C 133.8659936 340 137 343.1340064 137 347 C 137 350.8659936 133.8659936 354 130 354 C 126.1340064 354 123 350.8659936 123 347 Z" stroke-miterlimit="10"/></g><g transform="translate(-10,-10) scale(1,1)"><path fill="none" stroke="#000000" d="M 130 354 L 130 340" stroke-miterlimit="10"/></g><g transform="translate(-10,-10) scale(1,1)"><path fill="none" stroke="#000000" d="M 137 347 L 123 347" stroke-miterlimit="10"/></g><g transform="translate(-10,-10) scale(1,1)"><path fill="none" stroke="#000000" d="M 210 369 Q 210 355 160 333" stroke-miterlimit="10"/></g><g transform="translate(-10,-10) scale(1,1)"><path fill="#FFFFFF" stroke="none" d="M 159.40720522695935 335.8191702998621 C 159.40720522695935 331.95317669986207 162.54121162695935 328.8191702998621 166.40720522695935 328.8191702998621 C 170.27319882695934 328.8191702998621 173.40720522695935 331.95317669986207 173.40720522695935 335.8191702998621 C 173.40720522695935 339.6851638998621 170.27319882695934 342.8191702998621 166.40720522695935 342.8191702998621 C 162.54121162695935 342.8191702998621 159.40720522695935 339.6851638998621 159.40720522695935 335.8191702998621 Z"/></g><g transform="translate(-10,-10) scale(1,1)"><path fill="none" stroke="#000000" d="M 159.40720522695935 335.8191702998621 C 159.40720522695935 331.95317669986207 162.54121162695935 328.8191702998621 166.40720522695935 328.8191702998621 C 170.27319882695934 328.8191702998621 173.40720522695935 331.95317669986207 173.40720522695935 335.8191702998621 C 173.40720522695935 339.6851638998621 170.27319882695934 342.8191702998621 166.40720522695935 342.8191702998621 C 162.54121162695935 342.8191702998621 159.40720522695935 339.6851638998621 159.40720522695935 335.8191702998621 Z" stroke-miterlimit="10"/></g><g transform="translate(-10,-10) scale(1,1)"><path fill="none" stroke="#000000" d="M 172.81441045391873 338.63834059972424 L 160 333" stroke-miterlimit="10"/></g><g transform="translate(-10,-10) scale(1,1)"><path fill="none" stroke="#000000" d="M 169.22637552682147 329.4119650729027 L 163.58803492709723 342.22637552682147" stroke-miterlimit="10"/></g></g></svg>