<svg version="1.1" xmlns="http://www.w3.org/2000/svg" xmlns:xlink="http://www.w3.org/1999/xlink" width="252.6787109375" height="105"><defs/><g><g transform="translate(-710,-182) scale(1,1)"><rect fill="#C0C0C0" stroke="none" x="727" y="199" width="232.6787109375" height="85" opacity="0.2"/></g><g transform="translate(-710,-182) scale(1,1)"><rect fill="#ffffff" stroke="none" x="720" y="192" width="232.6787109375" height="85"/></g><g transform="translate(-710,-182) scale(1,1)"><path fill="none" stroke="#000000" d="M 720 192 L 952.6787109375 192 L 952.6787109375 277 L 720 277 L 720 192 Z Z" stroke-miterlimit="10"/></g><g transform="translate(-710,-182) scale(1,1)"><path fill="none" stroke="#000000" d="M 720 230 L 952.6787109375 230" stroke-miterlimit="10"/></g><g transform="translate(-710,-182) scale(1,1)"><path fill="none" stroke="#000000" d="M 720 240 L 952.6787109375 240" stroke-miterlimit="10"/></g><g transform="translate(-710,-182) scale(1,1)"><g><path fill="none" stroke="none"/><text fill="#000000" stroke="none" font-family="Arial" font-size="13px" font-style="normal" font-weight="normal" text-decoration="none" x="815.13818359375" y="209.5">«View»</text></g></g><g transform="translate(-710,-182) scale(1,1)"><g><path fill="none" stroke="none"/><text fill="#000000" stroke="none" font-family="Arial" font-size="13px" font-style="normal" font-weight="bold" text-decoration="none" x="782.61279296875" y="224.5">dpsLandingView.js</text></g></g><g transform="translate(-710,-182) scale(1,1)"><g><path fill="none" stroke="none"/><text fill="#000000" stroke="none" font-family="Arial" font-size="13px" font-style="normal" font-weight="normal" text-decoration="none" x="725" y="257.5">+state(root.home.dataconnectLanding)</text></g></g><g transform="translate(-710,-182) scale(1,1)"><g><path fill="none" stroke="none"/><text fill="#000000" stroke="none" font-family="Arial" font-size="13px" font-style="normal" font-weight="normal" text-decoration="none" x="725" y="272.5">+state(root.redirect)</text></g></g></g></svg>