<svg version="1.1" xmlns="http://www.w3.org/2000/svg" xmlns:xlink="http://www.w3.org/1999/xlink" width="1126.064453125" height="173"><defs/><g><g transform="translate(-10,-10) scale(1,1)"><rect fill="#C0C0C0" stroke="none" x="126.010986328125" y="106" width="134.6962890625" height="37" opacity="0.2"/></g><g transform="translate(-10,-10) scale(1,1)"><rect fill="#ffffff" stroke="none" x="119.010986328125" y="99" width="134.6962890625" height="37"/></g><g transform="translate(-10,-10) scale(1,1)"><path fill="none" stroke="#000000" d="M 119.010986328125 99 L 253.707275390625 99 L 253.707275390625 136 L 119.010986328125 136 L 119.010986328125 99 Z Z" stroke-miterlimit="10"/></g><g transform="translate(-10,-10) scale(1,1)"><g><path fill="none" stroke="none"/><text fill="#000000" stroke="none" font-family="Arial" font-size="13px" font-style="normal" font-weight="normal" text-decoration="none" x="156.366455078125" y="116.5">«Handler»</text></g></g><g transform="translate(-10,-10) scale(1,1)"><g><path fill="none" stroke="none"/><text fill="#000000" stroke="none" font-family="Arial" font-size="13px" font-style="italic" font-weight="bold" text-decoration="none" x="128.195556640625" y="131.5">AbstractDpsHandler</text></g></g><g transform="translate(-10,-10) scale(1,1)"><rect fill="#C0C0C0" stroke="none" x="27" y="39" width="79.55419921875" height="24" opacity="0.2"/></g><g transform="translate(-10,-10) scale(1,1)"><rect fill="#ffffff" stroke="none" x="20" y="32" width="79.55419921875" height="24"/></g><g transform="translate(-10,-10) scale(1,1)"><path fill="none" stroke="#000000" d="M 20 32 L 99.55419921875 32 L 99.55419921875 56 L 20 56 L 20 32 Z Z" stroke-miterlimit="10"/></g><g transform="translate(-10,-10) scale(1,1)"><g><path fill="none" stroke="none"/><text fill="#000000" stroke="none" font-family="Arial" font-size="13px" font-style="normal" font-weight="bold" text-decoration="none" x="26.53759765625" y="51.5">CodeTester</text></g></g><g transform="translate(-10,-10) scale(1,1)"><rect fill="#C0C0C0" stroke="none" x="137.55419921875" y="39" width="111.60986328125" height="37" opacity="0.2"/></g><g transform="translate(-10,-10) scale(1,1)"><rect fill="#ffffff" stroke="none" x="130.55419921875" y="32" width="111.60986328125" height="37"/></g><g transform="translate(-10,-10) scale(1,1)"><path fill="none" stroke="#000000" d="M 130.55419921875 32 L 242.1640625 32 L 242.1640625 69 L 130.55419921875 69 L 130.55419921875 32 Z Z" stroke-miterlimit="10"/></g><g transform="translate(-10,-10) scale(1,1)"><g><path fill="none" stroke="none"/><text fill="#000000" stroke="none" font-family="Arial" font-size="13px" font-style="normal" font-weight="normal" text-decoration="none" x="157.455078125" y="49.5">«Service»</text></g></g><g transform="translate(-10,-10) scale(1,1)"><g><path fill="none" stroke="none"/><text fill="#000000" stroke="none" font-family="Arial" font-size="13px" font-style="normal" font-weight="bold" text-decoration="none" x="138.681884765625" y="64.5">DpsErrorService</text></g></g><g transform="translate(-10,-10) scale(1,1)"><rect fill="#C0C0C0" stroke="none" x="280.1640625" y="39" width="128.919921875" height="37" opacity="0.2"/></g><g transform="translate(-10,-10) scale(1,1)"><rect fill="#ffffff" stroke="none" x="273.1640625" y="32" width="128.919921875" height="37"/></g><g transform="translate(-10,-10) scale(1,1)"><path fill="none" stroke="#000000" d="M 273.1640625 32 L 402.083984375 32 L 402.083984375 69 L 273.1640625 69 L 273.1640625 32 Z Z" stroke-miterlimit="10"/></g><g transform="translate(-10,-10) scale(1,1)"><g><path fill="none" stroke="none"/><text fill="#000000" stroke="none" font-family="Arial" font-size="13px" font-style="normal" font-weight="normal" text-decoration="none" x="308.72314453125" y="49.5">«Factory»</text></g></g><g transform="translate(-10,-10) scale(1,1)"><g><path fill="none" stroke="none"/><text fill="#000000" stroke="none" font-family="Arial" font-size="13px" font-style="normal" font-weight="bold" text-decoration="none" x="281.63134765625" y="64.5">DpsHandlerFactory</text></g></g><g transform="translate(-10,-10) scale(1,1)"><rect fill="#C0C0C0" stroke="none" x="440.083984375" y="39" width="95.68994140625" height="37" opacity="0.2"/></g><g transform="translate(-10,-10) scale(1,1)"><rect fill="#ffffff" stroke="none" x="433.083984375" y="32" width="95.68994140625" height="37"/></g><g transform="translate(-10,-10) scale(1,1)"><path fill="none" stroke="#000000" d="M 433.083984375 32 L 528.77392578125 32 L 528.77392578125 69 L 433.083984375 69 L 433.083984375 32 Z Z" stroke-miterlimit="10"/></g><g transform="translate(-10,-10) scale(1,1)"><g><path fill="none" stroke="none"/><text fill="#000000" stroke="none" font-family="Arial" font-size="13px" font-style="normal" font-weight="normal" text-decoration="none" x="444.429931640625" y="49.5">«Response»</text></g></g><g transform="translate(-10,-10) scale(1,1)"><g><path fill="none" stroke="none"/><text fill="#000000" stroke="none" font-family="Arial" font-size="13px" font-style="normal" font-weight="bold" text-decoration="none" x="440.100830078125" y="64.5">DpsResponse</text></g></g><g transform="translate(-10,-10) scale(1,1)"><rect fill="#C0C0C0" stroke="none" x="566.77392578125" y="39" width="117.32275390625" height="37" opacity="0.2"/></g><g transform="translate(-10,-10) scale(1,1)"><rect fill="#ffffff" stroke="none" x="559.77392578125" y="32" width="117.32275390625" height="37"/></g><g transform="translate(-10,-10) scale(1,1)"><path fill="none" stroke="#000000" d="M 559.77392578125 32 L 677.0966796875 32 L 677.0966796875 69 L 559.77392578125 69 L 559.77392578125 32 Z Z" stroke-miterlimit="10"/></g><g transform="translate(-10,-10) scale(1,1)"><g><path fill="none" stroke="none"/><text fill="#000000" stroke="none" font-family="Arial" font-size="13px" font-style="normal" font-weight="normal" text-decoration="none" x="572.90673828125" y="49.5">«Consumption»</text></g></g><g transform="translate(-10,-10) scale(1,1)"><g><path fill="none" stroke="none"/><text fill="#000000" stroke="none" font-family="Arial" font-size="13px" font-style="normal" font-weight="bold" text-decoration="none" x="568.57763671875" y="64.5">DsoConsumption</text></g></g><g transform="translate(-10,-10) scale(1,1)"><rect fill="#C0C0C0" stroke="none" x="543.652587890625" y="143" width="163.5654296875" height="37" opacity="0.2"/></g><g transform="translate(-10,-10) scale(1,1)"><rect fill="#ffffff" stroke="none" x="536.652587890625" y="136" width="163.5654296875" height="37"/></g><g transform="translate(-10,-10) scale(1,1)"><path fill="none" stroke="#000000" d="M 536.652587890625 136 L 700.218017578125 136 L 700.218017578125 173 L 536.652587890625 173 L 536.652587890625 136 Z Z" stroke-miterlimit="10"/></g><g transform="translate(-10,-10) scale(1,1)"><g><path fill="none" stroke="none"/><text fill="#000000" stroke="none" font-family="Arial" font-size="13px" font-style="normal" font-weight="normal" text-decoration="none" x="549.785400390625" y="153.5">«Consumption Interval»</text></g></g><g transform="translate(-10,-10) scale(1,1)"><g><path fill="none" stroke="none"/><text fill="#000000" stroke="none" font-family="Arial" font-size="13px" font-style="normal" font-weight="bold" text-decoration="none" x="547.26220703125" y="168.5">DsoConsumptionInterval</text></g></g><g transform="translate(-10,-10) scale(1,1)"><rect fill="#C0C0C0" stroke="none" x="715.0966796875" y="31.5" width="59.95703125" height="15" opacity="0.2"/></g><g transform="translate(-10,-10) scale(1,1)"><rect fill="#C0C0C0" stroke="none" x="715.0966796875" y="45.5" width="149.892578125" height="38" opacity="0.2"/></g><g transform="translate(-10,-10) scale(1,1)"><rect fill="#ffffff" stroke="none" x="708.0966796875" y="39.5" width="149.892578125" height="37"/></g><g transform="translate(-10,-10) scale(1,1)"><path fill="none" stroke="#000000" d="M 708.0966796875 39.5 L 857.9892578125 39.5 L 857.9892578125 76.5 L 708.0966796875 76.5 L 708.0966796875 39.5 Z Z" stroke-miterlimit="10"/></g><g transform="translate(-10,-10) scale(1,1)"><rect fill="#ffffff" stroke="none" x="708.0966796875" y="24.5" width="59.95703125" height="15"/></g><g transform="translate(-10,-10) scale(1,1)"><path fill="none" stroke="#000000" d="M 708.0966796875 24.5 L 768.0537109375 24.5 L 768.0537109375 39.5 L 708.0966796875 39.5 L 708.0966796875 24.5 Z Z" stroke-miterlimit="10"/></g><g transform="translate(-10,-10) scale(1,1)"><rect fill="#ffffff" stroke="none" x="708.0966796875" y="38.5" width="149.892578125" height="38"/></g><g transform="translate(-10,-10) scale(1,1)"><path fill="none" stroke="#000000" d="M 708.0966796875 38.5 L 857.9892578125 38.5 L 857.9892578125 76.5 L 708.0966796875 76.5 L 708.0966796875 38.5 Z Z" stroke-miterlimit="10"/></g><g transform="translate(-10,-10) scale(1,1)"><g><path fill="none" stroke="none"/><text fill="#000000" stroke="none" font-family="Arial" font-size="13px" font-style="normal" font-weight="normal" text-decoration="none" x="712.5966796875" y="57">«Data Provider System»</text></g></g><g transform="translate(-10,-10) scale(1,1)"><g><path fill="none" stroke="none"/><text fill="#000000" stroke="none" font-family="Arial" font-size="13px" font-style="normal" font-weight="bold" text-decoration="none" x="763.888916015625" y="72">enedis</text></g></g><g transform="translate(-10,-10) scale(1,1)"><rect fill="#C0C0C0" stroke="none" x="796.2802734375" y="31.5" width="59.95703125" height="15" opacity="0.2"/></g><g transform="translate(-10,-10) scale(1,1)"><rect fill="#C0C0C0" stroke="none" x="796.2802734375" y="45.5" width="149.892578125" height="38" opacity="0.2"/></g><g transform="translate(-10,-10) scale(1,1)"><rect fill="#ffffff" stroke="none" x="789.2802734375" y="39.5" width="149.892578125" height="37"/></g><g transform="translate(-10,-10) scale(1,1)"><path fill="none" stroke="#000000" d="M 789.2802734375 39.5 L 939.1728515625 39.5 L 939.1728515625 76.5 L 789.2802734375 76.5 L 789.2802734375 39.5 Z Z" stroke-miterlimit="10"/></g><g transform="translate(-10,-10) scale(1,1)"><rect fill="#ffffff" stroke="none" x="789.2802734375" y="24.5" width="59.95703125" height="15"/></g><g transform="translate(-10,-10) scale(1,1)"><path fill="none" stroke="#000000" d="M 789.2802734375 24.5 L 849.2373046875 24.5 L 849.2373046875 39.5 L 789.2802734375 39.5 L 789.2802734375 24.5 Z Z" stroke-miterlimit="10"/></g><g transform="translate(-10,-10) scale(1,1)"><rect fill="#ffffff" stroke="none" x="789.2802734375" y="38.5" width="149.892578125" height="38"/></g><g transform="translate(-10,-10) scale(1,1)"><path fill="none" stroke="#000000" d="M 789.2802734375 38.5 L 939.1728515625 38.5 L 939.1728515625 76.5 L 789.2802734375 76.5 L 789.2802734375 38.5 Z Z" stroke-miterlimit="10"/></g><g transform="translate(-10,-10) scale(1,1)"><g><path fill="none" stroke="none"/><text fill="#000000" stroke="none" font-family="Arial" font-size="13px" font-style="normal" font-weight="normal" text-decoration="none" x="793.7802734375" y="57">«Data Provider System»</text></g></g><g transform="translate(-10,-10) scale(1,1)"><g><path fill="none" stroke="none"/><text fill="#000000" stroke="none" font-family="Arial" font-size="13px" font-style="normal" font-weight="bold" text-decoration="none" x="853.026123046875" y="72">grdf</text></g></g><g transform="translate(-10,-10) scale(1,1)"><path fill="#C0C0C0" stroke="none" d="M 934.657958984375 38.5 C 934.657958984375 32.1487248 939.806683784375 27 946.157958984375 27 C 952.509234184375 27 957.657958984375 32.1487248 957.657958984375 38.5 C 957.657958984375 44.8512752 952.509234184375 50 946.157958984375 50 C 939.806683784375 50 934.657958984375 44.8512752 934.657958984375 38.5 Z" opacity="0.2"/></g><g transform="translate(-10,-10) scale(1,1)"><path fill="#ffffff" stroke="none" d="M 927.657958984375 31.5 C 927.657958984375 25.1487248 932.806683784375 20 939.157958984375 20 C 945.509234184375 20 950.657958984375 25.1487248 950.657958984375 31.5 C 950.657958984375 37.8512752 945.509234184375 43 939.157958984375 43 C 932.806683784375 43 927.657958984375 37.8512752 927.657958984375 31.5 Z"/></g><g transform="translate(-10,-10) scale(1,1)"><path fill="none" stroke="#000000" d="M 927.657958984375 31.5 C 927.657958984375 25.1487248 932.806683784375 20 939.157958984375 20 C 945.509234184375 20 950.657958984375 25.1487248 950.657958984375 31.5 C 950.657958984375 37.8512752 945.509234184375 43 939.157958984375 43 C 932.806683784375 43 927.657958984375 37.8512752 927.657958984375 31.5 Z" stroke-miterlimit="10"/></g><g transform="translate(-10,-10) scale(1,1)"><g><path fill="none" stroke="none"/><text fill="#000000" stroke="none" font-family="Arial" font-size="13px" font-style="normal" font-weight="bold" text-decoration="none" x="877.738037109375" y="62.5">IDpsResponseObject</text></g></g><g transform="translate(-10,-10) scale(1,1)"><rect fill="#C0C0C0" stroke="none" x="1047.03564453125" y="39" width="86.02880859375" height="24" opacity="0.2"/></g><g transform="translate(-10,-10) scale(1,1)"><rect fill="#ffffff" stroke="none" x="1040.03564453125" y="32" width="86.02880859375" height="24"/></g><g transform="translate(-10,-10) scale(1,1)"><path fill="none" stroke="#000000" d="M 1040.03564453125 32 L 1126.064453125 32 L 1126.064453125 56 L 1040.03564453125 56 L 1040.03564453125 32 Z Z" stroke-miterlimit="10"/></g><g transform="translate(-10,-10) scale(1,1)"><g><path fill="none" stroke="none"/><text fill="#000000" stroke="none" font-family="Arial" font-size="13px" font-style="normal" font-weight="bold" text-decoration="none" x="1047.27783203125" y="51.5">OAuthToken</text></g></g><g transform="translate(-10,-10) scale(1,1)"><path fill="none" stroke="#000000" d="M 187 98 Q 187 84 187 70" stroke-miterlimit="10"/></g><g transform="translate(-10,-10) scale(1,1)"><path fill="none" stroke="#000000" d="M 191.209517756016 80.16267485762415 L 187 70 L 182.790482243984 80.16267485762415" stroke-miterlimit="10"/></g><g transform="translate(-10,-10) scale(1,1)"><g><path fill="none" stroke="none"/><text fill="#000000" stroke="none" font-family="Arial" font-size="13px" font-style="normal" font-weight="normal" text-decoration="none" x="197.5" y="104.5">+dpsErrorService</text></g></g><g transform="translate(-10,-10) scale(1,1)"><path fill="none" stroke="#000000" d="M 618 135 Q 619 84 619 70" stroke-miterlimit="10"/></g><g transform="translate(-10,-10) scale(1,1)"><path fill="none" stroke="#000000" d="M 623.209517756016 80.16267485762415 L 619 70 L 614.790482243984 80.16267485762415" stroke-miterlimit="10"/></g><g transform="translate(-10,-10) scale(1,1)"><g><path fill="none" stroke="none"/><text fill="#000000" stroke="none" font-family="Arial" font-size="13px" font-style="normal" font-weight="normal" text-decoration="none" x="621.5" y="138.5">#consumptions</text></g></g><g transform="translate(-10,-10) scale(1,1)"><g><path fill="none" stroke="none"/><text fill="#000000" stroke="none" font-family="Arial" font-size="13px" font-style="normal" font-weight="normal" text-decoration="none" x="517.487060546875" y="135.5">{collection="List"}</text></g></g><g transform="translate(-10,-10) scale(1,1)"><g><path fill="none" stroke="none"/><text fill="#000000" stroke="none" font-family="Arial" font-size="13px" font-style="normal" font-weight="normal" text-decoration="none" x="628.220458984375" y="97.5">*</text></g></g></g></svg>