<svg version="1.1" xmlns="http://www.w3.org/2000/svg" xmlns:xlink="http://www.w3.org/1999/xlink" width="525.564453125" height="539"><defs/><g><g transform="translate(-878,-398) scale(1,1)"><rect fill="#C0C0C0" stroke="none" x="983" y="415" width="315.73779296875" height="188" opacity="0.2"/></g><g transform="translate(-878,-398) scale(1,1)"><rect fill="#ffffff" stroke="none" x="976" y="408" width="315.73779296875" height="188"/></g><g transform="translate(-878,-398) scale(1,1)"><path fill="none" stroke="#000000" d="M 976 408 L 1291.73779296875 408 L 1291.73779296875 596 L 976 596 L 976 408 Z Z" stroke-miterlimit="10"/></g><g transform="translate(-878,-398) scale(1,1)"><path fill="none" stroke="#000000" d="M 976 461 L 1291.73779296875 461" stroke-miterlimit="10"/></g><g transform="translate(-878,-398) scale(1,1)"><path fill="none" stroke="#000000" d="M 976 529 L 1291.73779296875 529" stroke-miterlimit="10"/></g><g transform="translate(-878,-398) scale(1,1)"><g><path fill="none" stroke="none"/><text fill="#000000" stroke="none" font-family="Arial" font-size="13px" font-style="normal" font-weight="normal" text-decoration="none" x="1098.461669921875" y="425.5">«Controller»</text></g></g><g transform="translate(-878,-398) scale(1,1)"><g><path fill="none" stroke="none"/><text fill="#000000" stroke="none" font-family="Arial" font-size="13px" font-style="normal" font-weight="bold" text-decoration="none" x="1081.1357421875" y="440.5">UserRESTService</text></g></g><g transform="translate(-878,-398) scale(1,1)"><g><path fill="none" stroke="none"/><text fill="#000000" stroke="none" font-family="Arial" font-size="13px" font-style="normal" font-weight="normal" text-decoration="none" x="1103.8984375" y="455.5">(from rest)</text></g></g><g transform="translate(-878,-398) scale(1,1)"><g><path fill="none" stroke="none"/><text fill="#000000" stroke="none" font-family="Arial" font-size="13px" font-style="normal" font-weight="normal" text-decoration="none" x="981" y="478.5">-log</text></g></g><g transform="translate(-878,-398) scale(1,1)"><g><path fill="none" stroke="none"/><text fill="#000000" stroke="none" font-family="Arial" font-size="13px" font-style="normal" font-weight="normal" text-decoration="none" x="981" y="493.5">-serviceCrypt</text></g></g><g transform="translate(-878,-398) scale(1,1)"><g><path fill="none" stroke="none"/><text fill="#000000" stroke="none" font-family="Arial" font-size="13px" font-style="normal" font-weight="normal" text-decoration="none" x="981" y="508.5">-loginLogger</text></g></g><g transform="translate(-878,-398) scale(1,1)"><g><path fill="none" stroke="none"/><text fill="#000000" stroke="none" font-family="Arial" font-size="13px" font-style="normal" font-weight="normal" text-decoration="none" x="981" y="523.5">-loginUserMessageProducer</text></g></g><g transform="translate(-878,-398) scale(1,1)"><g><path fill="none" stroke="none"/><text fill="#000000" stroke="none" font-family="Arial" font-size="13px" font-style="normal" font-weight="normal" text-decoration="none" x="981" y="546.5">+checkLogin(token: String, message): null</text></g></g><g transform="translate(-878,-398) scale(1,1)"><g><path fill="none" stroke="none"/><text fill="#000000" stroke="none" font-family="Arial" font-size="13px" font-style="normal" font-weight="normal" text-decoration="none" x="981" y="561.5">+getUser(token: String): null</text></g></g><g transform="translate(-878,-398) scale(1,1)"><g><path fill="none" stroke="none"/><text fill="#000000" stroke="none" font-family="Arial" font-size="13px" font-style="normal" font-weight="normal" text-decoration="none" x="981" y="576.5">+updatePassword(token: String, message): null</text></g></g><g transform="translate(-878,-398) scale(1,1)"><g><path fill="none" stroke="none"/><text fill="#000000" stroke="none" font-family="Arial" font-size="13px" font-style="normal" font-weight="normal" text-decoration="none" x="981" y="591.5">+acceptConditions(version: String, token: String): null</text></g></g><g transform="translate(-878,-398) scale(1,1)"><rect fill="#C0C0C0" stroke="none" x="895" y="671" width="505.564453125" height="263" opacity="0.2"/></g><g transform="translate(-878,-398) scale(1,1)"><rect fill="#ffffff" stroke="none" x="888" y="664" width="505.564453125" height="263"/></g><g transform="translate(-878,-398) scale(1,1)"><path fill="none" stroke="#000000" d="M 888 664 L 1393.564453125 664 L 1393.564453125 927 L 888 927 L 888 664 Z Z" stroke-miterlimit="10"/></g><g transform="translate(-878,-398) scale(1,1)"><path fill="none" stroke="#000000" d="M 888 717 L 1393.564453125 717" stroke-miterlimit="10"/></g><g transform="translate(-878,-398) scale(1,1)"><path fill="none" stroke="#000000" d="M 888 860 L 1393.564453125 860" stroke-miterlimit="10"/></g><g transform="translate(-878,-398) scale(1,1)"><g><path fill="none" stroke="none"/><text fill="#000000" stroke="none" font-family="Arial" font-size="13px" font-style="normal" font-weight="normal" text-decoration="none" x="1111.878173828125" y="681.5">«Service»</text></g></g><g transform="translate(-878,-398) scale(1,1)"><g><path fill="none" stroke="none"/><text fill="#000000" stroke="none" font-family="Arial" font-size="13px" font-style="normal" font-weight="bold" text-decoration="none" x="1059.129150390625" y="696.5">MeteringPointEnedisService</text></g></g><g transform="translate(-878,-398) scale(1,1)"><g><path fill="none" stroke="none"/><text fill="#000000" stroke="none" font-family="Arial" font-size="13px" font-style="normal" font-weight="normal" text-decoration="none" x="1081.542724609375" y="711.5">(from meteringPoint)</text></g></g><g transform="translate(-878,-398) scale(1,1)"><g><path fill="none" stroke="none"/><text fill="#000000" stroke="none" font-family="Arial" font-size="13px" font-style="normal" font-weight="normal" text-decoration="none" x="893" y="734.5">~requestMpRepository</text></g></g><g transform="translate(-878,-398) scale(1,1)"><g><path fill="none" stroke="none"/><text fill="#000000" stroke="none" font-family="Arial" font-size="13px" font-style="normal" font-weight="normal" text-decoration="none" x="893" y="749.5">~emailParamsService</text></g></g><g transform="translate(-878,-398) scale(1,1)"><g><path fill="none" stroke="none"/><text fill="#000000" stroke="none" font-family="Arial" font-size="13px" font-style="normal" font-weight="normal" text-decoration="none" x="893" y="764.5">~organisationRepository</text></g></g><g transform="translate(-878,-398) scale(1,1)"><g><path fill="none" stroke="none"/><text fill="#000000" stroke="none" font-family="Arial" font-size="13px" font-style="normal" font-weight="normal" text-decoration="none" x="893" y="779.5">~messageProRepository</text></g></g><g transform="translate(-878,-398) scale(1,1)"><g><path fill="none" stroke="none"/><text fill="#000000" stroke="none" font-family="Arial" font-size="13px" font-style="normal" font-weight="normal" text-decoration="none" x="893" y="794.5">~requestMpService</text></g></g><g transform="translate(-878,-398) scale(1,1)"><g><path fill="none" stroke="none"/><text fill="#000000" stroke="none" font-family="Arial" font-size="13px" font-style="normal" font-weight="normal" text-decoration="none" x="893" y="809.5">~requestMpControlService</text></g></g><g transform="translate(-878,-398) scale(1,1)"><g><path fill="none" stroke="none"/><text fill="#000000" stroke="none" font-family="Arial" font-size="13px" font-style="normal" font-weight="normal" text-decoration="none" x="893" y="824.5">~dpsHandlerFactory</text></g></g><g transform="translate(-878,-398) scale(1,1)"><g><path fill="none" stroke="none"/><text fill="#000000" stroke="none" font-family="Arial" font-size="13px" font-style="normal" font-weight="normal" text-decoration="none" x="893" y="839.5">~meteringPointRepository</text></g></g><g transform="translate(-878,-398) scale(1,1)"><g><path fill="none" stroke="none"/><text fill="#000000" stroke="none" font-family="Arial" font-size="13px" font-style="normal" font-weight="normal" text-decoration="none" x="893" y="854.5">-log</text></g></g><g transform="translate(-878,-398) scale(1,1)"><g><path fill="none" stroke="none"/><text fill="#000000" stroke="none" font-family="Arial" font-size="13px" font-style="normal" font-weight="normal" text-decoration="none" x="893" y="877.5">+insertExternalMeteringPointEnedis(occupy, code: String, usage_point_id: String): null</text></g></g><g transform="translate(-878,-398) scale(1,1)"><g><path fill="none" stroke="none"/><text fill="#000000" stroke="none" font-family="Arial" font-size="13px" font-style="normal" font-weight="normal" text-decoration="none" x="893" y="892.5">+interpretAuthorizeErrorResponse(message, occupantLogin: String): void</text></g></g><g transform="translate(-878,-398) scale(1,1)"><g><path fill="none" stroke="none"/><text fill="#000000" stroke="none" font-family="Arial" font-size="13px" font-style="normal" font-weight="normal" text-decoration="none" x="893" y="907.5">+interpretAuthorizeUnexpectedResponse(message, occupantLogin: String): null</text></g></g><g transform="translate(-878,-398) scale(1,1)"><g><path fill="none" stroke="none"/><text fill="#000000" stroke="none" font-family="Arial" font-size="13px" font-style="normal" font-weight="normal" text-decoration="none" x="893" y="922.5">+getEnedisHandler(): null</text></g></g><g transform="translate(-878,-398) scale(1,1)"><path fill="none" stroke="#000000" d="M 1135 597 L 1137 663" stroke-miterlimit="10"/></g><g transform="translate(-878,-398) scale(1,1)"><path fill="none" stroke="#000000" d="M 1132.4845951127468 652.9694906059477 L 1137 663 L 1140.8997677957102 652.7144853731307" stroke-miterlimit="10"/></g></g></svg>