<svg version="1.1" xmlns="http://www.w3.org/2000/svg" xmlns:xlink="http://www.w3.org/1999/xlink" width="607.53173828125" height="329"><defs/><g><g transform="translate(-118,-150) scale(1,1)"><rect fill="#C0C0C0" stroke="none" x="167" y="263" width="165.76806640625" height="37" opacity="0.2"/></g><g transform="translate(-118,-150) scale(1,1)"><rect fill="#ffffff" stroke="none" x="160" y="256" width="165.76806640625" height="37"/></g><g transform="translate(-118,-150) scale(1,1)"><path fill="none" stroke="#000000" d="M 160 256 L 325.76806640625 256 L 325.76806640625 293 L 160 293 L 160 256 Z Z" stroke-miterlimit="10"/></g><g transform="translate(-118,-150) scale(1,1)"><g><path fill="none" stroke="none"/><text fill="#000000" stroke="none" font-family="Arial" font-size="13px" font-style="normal" font-weight="normal" text-decoration="none" x="204.58544921875" y="273.5">«Repository»</text></g></g><g transform="translate(-118,-150) scale(1,1)"><g><path fill="none" stroke="none"/><text fill="#000000" stroke="none" font-family="Arial" font-size="13px" font-style="normal" font-weight="bold" text-decoration="none" x="169.905029296875" y="288.5">ParameterAppRepository</text></g></g><g transform="translate(-118,-150) scale(1,1)"><rect fill="#C0C0C0" stroke="none" x="375" y="200" width="134.6962890625" height="37" opacity="0.2"/></g><g transform="translate(-118,-150) scale(1,1)"><rect fill="#ffffff" stroke="none" x="368" y="193" width="134.6962890625" height="37"/></g><g transform="translate(-118,-150) scale(1,1)"><path fill="none" stroke="#000000" d="M 368 193 L 502.6962890625 193 L 502.6962890625 230 L 368 230 L 368 193 Z Z" stroke-miterlimit="10"/></g><g transform="translate(-118,-150) scale(1,1)"><g><path fill="none" stroke="none"/><text fill="#000000" stroke="none" font-family="Arial" font-size="13px" font-style="normal" font-weight="normal" text-decoration="none" x="405.35546875" y="210.5">«Handler»</text></g></g><g transform="translate(-118,-150) scale(1,1)"><g><path fill="none" stroke="none"/><text fill="#000000" stroke="none" font-family="Arial" font-size="13px" font-style="italic" font-weight="bold" text-decoration="none" x="377.1845703125" y="225.5">AbstractDpsHandler</text></g></g><g transform="translate(-118,-150) scale(1,1)"><rect fill="#C0C0C0" stroke="none" x="575" y="199" width="146.9599609375" height="37" opacity="0.2"/></g><g transform="translate(-118,-150) scale(1,1)"><rect fill="#ffffff" stroke="none" x="568" y="192" width="146.9599609375" height="37"/></g><g transform="translate(-118,-150) scale(1,1)"><path fill="none" stroke="#000000" d="M 568 192 L 714.9599609375 192 L 714.9599609375 229 L 568 229 L 568 192 Z Z" stroke-miterlimit="10"/></g><g transform="translate(-118,-150) scale(1,1)"><g><path fill="none" stroke="none"/><text fill="#000000" stroke="none" font-family="Arial" font-size="13px" font-style="normal" font-weight="normal" text-decoration="none" x="603.181396484375" y="209.5">«Repository»</text></g></g><g transform="translate(-118,-150) scale(1,1)"><g><path fill="none" stroke="none"/><text fill="#000000" stroke="none" font-family="Arial" font-size="13px" font-style="normal" font-weight="bold" text-decoration="none" x="577.171875" y="224.5">RequestMpRepository</text></g></g><g transform="translate(-118,-150) scale(1,1)"><rect fill="#C0C0C0" stroke="none" x="191" y="191" width="125.29541015625" height="37" opacity="0.2"/></g><g transform="translate(-118,-150) scale(1,1)"><rect fill="#ffffff" stroke="none" x="184" y="184" width="125.29541015625" height="37"/></g><g transform="translate(-118,-150) scale(1,1)"><path fill="none" stroke="#000000" d="M 184 184 L 309.29541015625 184 L 309.29541015625 221 L 184 221 L 184 184 Z Z" stroke-miterlimit="10"/></g><g transform="translate(-118,-150) scale(1,1)"><g><path fill="none" stroke="none"/><text fill="#000000" stroke="none" font-family="Arial" font-size="13px" font-style="normal" font-weight="normal" text-decoration="none" x="211.246826171875" y="201.5">«Formatter»</text></g></g><g transform="translate(-118,-150) scale(1,1)"><g><path fill="none" stroke="none"/><text fill="#000000" stroke="none" font-family="Arial" font-size="13px" font-style="normal" font-weight="bold" text-decoration="none" x="192.10546875" y="216.5">GrdfDateFormatter</text></g></g><g transform="translate(-118,-150) scale(1,1)"><rect fill="#C0C0C0" stroke="none" x="375" y="279" width="137.578125" height="37" opacity="0.2"/></g><g transform="translate(-118,-150) scale(1,1)"><rect fill="#ffffff" stroke="none" x="368" y="272" width="137.578125" height="37"/></g><g transform="translate(-118,-150) scale(1,1)"><path fill="none" stroke="#000000" d="M 368 272 L 505.578125 272 L 505.578125 309 L 368 309 L 368 272 Z Z" stroke-miterlimit="10"/></g><g transform="translate(-118,-150) scale(1,1)"><g><path fill="none" stroke="none"/><text fill="#000000" stroke="none" font-family="Arial" font-size="13px" font-style="normal" font-weight="normal" text-decoration="none" x="406.79638671875" y="289.5">«Handler»</text></g></g><g transform="translate(-118,-150) scale(1,1)"><g><path fill="none" stroke="none"/><text fill="#000000" stroke="none" font-family="Arial" font-size="13px" font-style="italic" font-weight="bold" text-decoration="none" x="377.543212890625" y="304.5">AbstractGrdfHandler</text></g></g><g transform="translate(-118,-150) scale(1,1)"><path fill="none" stroke="#000000" d="M 435 272 L 435 230" stroke-miterlimit="10"/></g><g transform="translate(-118,-150) scale(1,1)"><path fill="#FFFFFF" stroke="none" d="M 443.419035512032 250.3253497152483 L 435 230 L 426.580964487968 250.3253497152483"/></g><g transform="translate(-118,-150) scale(1,1)"><path fill="none" stroke="#000000" d="M 443.419035512032 250.3253497152483 L 435 230 L 426.580964487968 250.3253497152483 L 443.419035512032 250.3253497152483" stroke-miterlimit="10"/></g><g transform="translate(-118,-150) scale(1,1)"><rect fill="#C0C0C0" stroke="none" x="183" y="383" width="128.919921875" height="37" opacity="0.2"/></g><g transform="translate(-118,-150) scale(1,1)"><rect fill="#ffffff" stroke="none" x="176" y="376" width="128.919921875" height="37"/></g><g transform="translate(-118,-150) scale(1,1)"><path fill="none" stroke="#000000" d="M 176 376 L 304.919921875 376 L 304.919921875 413 L 176 413 L 176 376 Z Z" stroke-miterlimit="10"/></g><g transform="translate(-118,-150) scale(1,1)"><g><path fill="none" stroke="none"/><text fill="#000000" stroke="none" font-family="Arial" font-size="13px" font-style="normal" font-weight="normal" text-decoration="none" x="211.55908203125" y="393.5">«Factory»</text></g></g><g transform="translate(-118,-150) scale(1,1)"><g><path fill="none" stroke="none"/><text fill="#000000" stroke="none" font-family="Arial" font-size="13px" font-style="normal" font-weight="bold" text-decoration="none" x="184.46728515625" y="408.5">DpsHandlerFactory</text></g></g><g transform="translate(-118,-150) scale(1,1)"><rect fill="#C0C0C0" stroke="none" x="551" y="439" width="171.53173828125" height="37" opacity="0.2"/></g><g transform="translate(-118,-150) scale(1,1)"><rect fill="#ffffff" stroke="none" x="544" y="432" width="171.53173828125" height="37"/></g><g transform="translate(-118,-150) scale(1,1)"><path fill="none" stroke="#000000" d="M 544 432 L 715.53173828125 432 L 715.53173828125 469 L 544 469 L 544 432 Z Z" stroke-miterlimit="10"/></g><g transform="translate(-118,-150) scale(1,1)"><g><path fill="none" stroke="none"/><text fill="#000000" stroke="none" font-family="Arial" font-size="13px" font-style="normal" font-weight="normal" text-decoration="none" x="600.86181640625" y="449.5">«Service»</text></g></g><g transform="translate(-118,-150) scale(1,1)"><g><path fill="none" stroke="none"/><text fill="#000000" stroke="none" font-family="Arial" font-size="13px" font-style="normal" font-weight="bold" text-decoration="none" x="553.898681640625" y="464.5">RequestMpControlService</text></g></g><g transform="translate(-118,-150) scale(1,1)"><rect fill="#C0C0C0" stroke="none" x="383" y="375" width="112.29541015625" height="37" opacity="0.2"/></g><g transform="translate(-118,-150) scale(1,1)"><rect fill="#ffffff" stroke="none" x="376" y="368" width="112.29541015625" height="37"/></g><g transform="translate(-118,-150) scale(1,1)"><path fill="none" stroke="#000000" d="M 376 368 L 488.29541015625 368 L 488.29541015625 405 L 376 405 L 376 368 Z Z" stroke-miterlimit="10"/></g><g transform="translate(-118,-150) scale(1,1)"><g><path fill="none" stroke="none"/><text fill="#000000" stroke="none" font-family="Arial" font-size="13px" font-style="normal" font-weight="normal" text-decoration="none" x="402.155029296875" y="385.5">«Handler»</text></g></g><g transform="translate(-118,-150) scale(1,1)"><g><path fill="none" stroke="none"/><text fill="#000000" stroke="none" font-family="Arial" font-size="13px" font-style="normal" font-weight="bold" text-decoration="none" x="383.619873046875" y="400.5">GrdfTrueHandler</text></g></g><g transform="translate(-118,-150) scale(1,1)"><path fill="none" stroke="#000000" d="M 435 368 L 435 309" stroke-miterlimit="10"/></g><g transform="translate(-118,-150) scale(1,1)"><path fill="#FFFFFF" stroke="none" d="M 443.419035512032 329.3253497152483 L 435 309 L 426.580964487968 329.3253497152483"/></g><g transform="translate(-118,-150) scale(1,1)"><path fill="none" stroke="#000000" d="M 443.419035512032 329.3253497152483 L 435 309 L 426.580964487968 329.3253497152483 L 443.419035512032 329.3253497152483" stroke-miterlimit="10"/></g><g transform="translate(-118,-150) scale(1,1)"><rect fill="#C0C0C0" stroke="none" x="511" y="343" width="169.3671875" height="37" opacity="0.2"/></g><g transform="translate(-118,-150) scale(1,1)"><rect fill="#ffffff" stroke="none" x="504" y="336" width="169.3671875" height="37"/></g><g transform="translate(-118,-150) scale(1,1)"><path fill="none" stroke="#000000" d="M 504 336 L 673.3671875 336 L 673.3671875 373 L 504 373 L 504 336 Z Z" stroke-miterlimit="10"/></g><g transform="translate(-118,-150) scale(1,1)"><g><path fill="none" stroke="none"/><text fill="#000000" stroke="none" font-family="Arial" font-size="13px" font-style="normal" font-weight="normal" text-decoration="none" x="559.779541015625" y="353.5">«Service»</text></g></g><g transform="translate(-118,-150) scale(1,1)"><g><path fill="none" stroke="none"/><text fill="#000000" stroke="none" font-family="Arial" font-size="13px" font-style="normal" font-weight="bold" text-decoration="none" x="514.263671875" y="368.5">MeteringPointGrdfService</text></g></g><g transform="translate(-118,-150) scale(1,1)"><path fill="none" stroke="#000000" d="M 592 336 L 592 289 L 506 289" stroke-miterlimit="10" stroke-dasharray="3"/></g><g transform="translate(-118,-150) scale(1,1)"><path fill="none" stroke="#000000" d="M 516.1626748576241 284.790482243984 L 506 289 L 516.1626748576241 293.209517756016" stroke-miterlimit="10"/></g><g transform="translate(-118,-150) scale(1,1)"><path fill="none" stroke="#000000" d="M 251 293 L 251 304 L 368 304" stroke-miterlimit="10"/></g><g transform="translate(-118,-150) scale(1,1)"><path fill="#000000" stroke="none" d="M 357.83732514237585 308.209517756016 L 368 304 L 357.83732514237585 299.790482243984 L 346 304"/></g><g transform="translate(-118,-150) scale(1,1)"><path fill="none" stroke="#000000" d="M 357.83732514237585 308.209517756016 L 368 304 L 357.83732514237585 299.790482243984 L 346 304 L 357.83732514237585 308.209517756016" stroke-miterlimit="10"/></g><g transform="translate(-118,-150) scale(1,1)"><path fill="none" stroke="#000000" d="M 242 293 L 242 376" stroke-miterlimit="10"/></g><g transform="translate(-118,-150) scale(1,1)"><path fill="#000000" stroke="none" d="M 237.790482243984 365.83732514237585 L 242 376 L 246.209517756016 365.83732514237585 L 242 354"/></g><g transform="translate(-118,-150) scale(1,1)"><path fill="none" stroke="#000000" d="M 237.790482243984 365.83732514237585 L 242 376 L 246.209517756016 365.83732514237585 L 242 354 L 237.790482243984 365.83732514237585" stroke-miterlimit="10"/></g><g transform="translate(-118,-150) scale(1,1)"><path fill="none" stroke="#000000" d="M 620 229 L 620 240 L 480 240 L 480 272" stroke-miterlimit="10"/></g><g transform="translate(-118,-150) scale(1,1)"><path fill="#000000" stroke="none" d="M 475.790482243984 261.83732514237585 L 480 272 L 484.209517756016 261.83732514237585 L 480 250"/></g><g transform="translate(-118,-150) scale(1,1)"><path fill="none" stroke="#000000" d="M 475.790482243984 261.83732514237585 L 480 272 L 484.209517756016 261.83732514237585 L 480 250 L 475.790482243984 261.83732514237585" stroke-miterlimit="10"/></g><g transform="translate(-118,-150) scale(1,1)"><path fill="none" stroke="#000000" d="M 641 229 L 641 304 L 640 304 L 640 336" stroke-miterlimit="10"/></g><g transform="translate(-118,-150) scale(1,1)"><path fill="#000000" stroke="none" d="M 635.790482243984 325.83732514237585 L 640 336 L 644.209517756016 325.83732514237585 L 640 314"/></g><g transform="translate(-118,-150) scale(1,1)"><path fill="none" stroke="#000000" d="M 635.790482243984 325.83732514237585 L 640 336 L 644.209517756016 325.83732514237585 L 640 314 L 635.790482243984 325.83732514237585" stroke-miterlimit="10"/></g><g transform="translate(-118,-150) scale(1,1)"><path fill="none" stroke="#000000" d="M 668 229 L 668 256 L 688 256 L 688 432" stroke-miterlimit="10"/></g><g transform="translate(-118,-150) scale(1,1)"><path fill="#000000" stroke="none" d="M 683.790482243984 421.83732514237585 L 688 432 L 692.209517756016 421.83732514237585 L 688 410"/></g><g transform="translate(-118,-150) scale(1,1)"><path fill="none" stroke="#000000" d="M 683.790482243984 421.83732514237585 L 688 432 L 692.209517756016 421.83732514237585 L 688 410 L 683.790482243984 421.83732514237585" stroke-miterlimit="10"/></g><g transform="translate(-118,-150) scale(1,1)"><path fill="none" stroke="#000000" d="M 247 293 L 247 336 L 360 336 L 360 386 L 376 386" stroke-miterlimit="10"/></g><g transform="translate(-118,-150) scale(1,1)"><path fill="#000000" stroke="none" d="M 365.83732514237585 390.209517756016 L 376 386 L 365.83732514237585 381.790482243984 L 354 386"/></g><g transform="translate(-118,-150) scale(1,1)"><path fill="none" stroke="#000000" d="M 365.83732514237585 390.209517756016 L 376 386 L 365.83732514237585 381.790482243984 L 354 386 L 365.83732514237585 390.209517756016" stroke-miterlimit="10"/></g><g transform="translate(-118,-150) scale(1,1)"><path fill="none" stroke="#000000" d="M 368 290 L 344 290 L 344 246 L 328 246 L 328 200 L 309 200" stroke-miterlimit="10" stroke-dasharray="3"/></g><g transform="translate(-118,-150) scale(1,1)"><path fill="none" stroke="#000000" d="M 319.16267485762415 195.790482243984 L 309 200 L 319.16267485762415 204.209517756016" stroke-miterlimit="10"/></g><g transform="translate(-118,-150) scale(1,1)"><path fill="none" stroke="#000000" d="M 245 221 L 245 256" stroke-miterlimit="10" stroke-dasharray="3"/></g><g transform="translate(-118,-150) scale(1,1)"><path fill="none" stroke="#000000" d="M 240.790482243984 245.83732514237585 L 245 256 L 249.209517756016 245.83732514237585" stroke-miterlimit="10"/></g><g transform="translate(-118,-150) scale(1,1)"><path fill="none" stroke="#000000" d="M 261 413 L 261 432 L 562 432 L 562 373" stroke-miterlimit="10"/></g><g transform="translate(-118,-150) scale(1,1)"><path fill="#000000" stroke="none" d="M 566.209517756016 383.16267485762415 L 562 373 L 557.790482243984 383.16267485762415 L 562 395"/></g><g transform="translate(-118,-150) scale(1,1)"><path fill="none" stroke="#000000" d="M 566.209517756016 383.16267485762415 L 562 373 L 557.790482243984 383.16267485762415 L 562 395 L 566.209517756016 383.16267485762415" stroke-miterlimit="10"/></g><g transform="translate(-118,-150) scale(1,1)"><path fill="none" stroke="#000000" d="M 255 413 L 255 448 L 280 448 L 280 450 L 544 450" stroke-miterlimit="10"/></g><g transform="translate(-118,-150) scale(1,1)"><path fill="#000000" stroke="none" d="M 533.8373251423759 454.209517756016 L 544 450 L 533.8373251423758 445.790482243984 L 522 450"/></g><g transform="translate(-118,-150) scale(1,1)"><path fill="none" stroke="#000000" d="M 533.8373251423759 454.209517756016 L 544 450 L 533.8373251423758 445.790482243984 L 522 450 L 533.8373251423759 454.209517756016" stroke-miterlimit="10"/></g><g transform="translate(-118,-150) scale(1,1)"><path fill="none" stroke="#000000" d="M 176 384 L 128 384 L 128 160 L 432 160 L 432 193" stroke-miterlimit="10" stroke-dasharray="3"/></g><g transform="translate(-118,-150) scale(1,1)"><path fill="none" stroke="#000000" d="M 427.790482243984 182.83732514237585 L 432 193 L 436.209517756016 182.83732514237585" stroke-miterlimit="10"/></g><g transform="translate(-118,-150) scale(1,1)"><path fill="none" stroke="#000000" d="M 597 373 L 597 432" stroke-miterlimit="10"/></g><g transform="translate(-118,-150) scale(1,1)"><path fill="#000000" stroke="none" d="M 592.790482243984 421.83732514237585 L 597 432 L 601.209517756016 421.83732514237585 L 597 410"/></g><g transform="translate(-118,-150) scale(1,1)"><path fill="none" stroke="#000000" d="M 592.790482243984 421.83732514237585 L 597 432 L 601.209517756016 421.83732514237585 L 597 410 L 592.790482243984 421.83732514237585" stroke-miterlimit="10"/></g><g transform="translate(-118,-150) scale(1,1)"><path fill="none" stroke="#000000" d="M 376 372 L 296 372 L 296 352 L 144 352 L 144 201 L 184 201" stroke-miterlimit="10" stroke-dasharray="3"/></g><g transform="translate(-118,-150) scale(1,1)"><path fill="none" stroke="#000000" d="M 173.83732514237585 205.209517756016 L 184 201 L 173.83732514237585 196.790482243984" stroke-miterlimit="10"/></g></g></svg>