<svg version="1.1" xmlns="http://www.w3.org/2000/svg" xmlns:xlink="http://www.w3.org/1999/xlink" width="381.7236328125" height="311"><defs/><g><g transform="translate(-630,-382) scale(1,1)"><rect fill="#C0C0C0" stroke="none" x="679" y="623" width="34.23886718749998" height="15" opacity="0.2"/></g><g transform="translate(-630,-382) scale(1,1)"><rect fill="#C0C0C0" stroke="none" x="679" y="637" width="85.59716796875" height="53" opacity="0.2"/></g><g transform="translate(-630,-382) scale(1,1)"><rect fill="#ffffff" stroke="none" x="672" y="631" width="85.59716796875" height="52"/></g><g transform="translate(-630,-382) scale(1,1)"><path fill="none" stroke="#000000" d="M 672 631 L 757.59716796875 631 L 757.59716796875 683 L 672 683 L 672 631 Z Z" stroke-miterlimit="10"/></g><g transform="translate(-630,-382) scale(1,1)"><rect fill="#ffffff" stroke="none" x="672" y="616" width="34.23886718749998" height="15"/></g><g transform="translate(-630,-382) scale(1,1)"><path fill="none" stroke="#000000" d="M 672 616 L 706.2388671875 616 L 706.2388671875 631 L 672 631 L 672 616 Z Z" stroke-miterlimit="10"/></g><g transform="translate(-630,-382) scale(1,1)"><rect fill="#ffffff" stroke="none" x="672" y="630" width="85.59716796875" height="53"/></g><g transform="translate(-630,-382) scale(1,1)"><path fill="none" stroke="#000000" d="M 672 630 L 757.59716796875 630 L 757.59716796875 683 L 672 683 L 672 630 Z Z" stroke-miterlimit="10"/></g><g transform="translate(-630,-382) scale(1,1)"><g><path fill="none" stroke="none"/><text fill="#000000" stroke="none" font-family="Arial" font-size="13px" font-style="normal" font-weight="normal" text-decoration="none" x="676.5" y="648.5">«Resources»</text></g></g><g transform="translate(-630,-382) scale(1,1)"><g><path fill="none" stroke="none"/><text fill="#000000" stroke="none" font-family="Arial" font-size="13px" font-style="normal" font-weight="bold" text-decoration="none" x="689.8681640625" y="663.5">grdfData</text></g></g><g transform="translate(-630,-382) scale(1,1)"><g><path fill="none" stroke="none"/><text fill="#000000" stroke="none" font-family="Arial" font-size="13px" font-style="normal" font-weight="normal" text-decoration="none" x="684.463134765625" y="678.5">(from grdf)</text></g></g><g transform="translate(-630,-382) scale(1,1)"><rect fill="#C0C0C0" stroke="none" x="871" y="591" width="36.843945312499955" height="15" opacity="0.2"/></g><g transform="translate(-630,-382) scale(1,1)"><rect fill="#C0C0C0" stroke="none" x="871" y="605" width="92.10986328125" height="53" opacity="0.2"/></g><g transform="translate(-630,-382) scale(1,1)"><rect fill="#ffffff" stroke="none" x="864" y="599" width="92.10986328125" height="52"/></g><g transform="translate(-630,-382) scale(1,1)"><path fill="none" stroke="#000000" d="M 864 599 L 956.10986328125 599 L 956.10986328125 651 L 864 651 L 864 599 Z Z" stroke-miterlimit="10"/></g><g transform="translate(-630,-382) scale(1,1)"><rect fill="#ffffff" stroke="none" x="864" y="584" width="36.843945312499955" height="15"/></g><g transform="translate(-630,-382) scale(1,1)"><path fill="none" stroke="#000000" d="M 864 584 L 900.8439453125 584 L 900.8439453125 599 L 864 599 L 864 584 Z Z" stroke-miterlimit="10"/></g><g transform="translate(-630,-382) scale(1,1)"><rect fill="#ffffff" stroke="none" x="864" y="598" width="92.10986328125" height="53"/></g><g transform="translate(-630,-382) scale(1,1)"><path fill="none" stroke="#000000" d="M 864 598 L 956.10986328125 598 L 956.10986328125 651 L 864 651 L 864 598 Z Z" stroke-miterlimit="10"/></g><g transform="translate(-630,-382) scale(1,1)"><g><path fill="none" stroke="none"/><text fill="#000000" stroke="none" font-family="Arial" font-size="13px" font-style="normal" font-weight="normal" text-decoration="none" x="868.5" y="616.5">«Enumations»</text></g></g><g transform="translate(-630,-382) scale(1,1)"><g><path fill="none" stroke="none"/><text fill="#000000" stroke="none" font-family="Arial" font-size="13px" font-style="normal" font-weight="bold" text-decoration="none" x="890.54541015625" y="631.5">enums</text></g></g><g transform="translate(-630,-382) scale(1,1)"><g><path fill="none" stroke="none"/><text fill="#000000" stroke="none" font-family="Arial" font-size="13px" font-style="normal" font-weight="normal" text-decoration="none" x="879.719482421875" y="646.5">(from grdf)</text></g></g><g transform="translate(-630,-382) scale(1,1)"><rect fill="#C0C0C0" stroke="none" x="751" y="399" width="137.578125" height="52" opacity="0.2"/></g><g transform="translate(-630,-382) scale(1,1)"><rect fill="#ffffff" stroke="none" x="744" y="392" width="137.578125" height="52"/></g><g transform="translate(-630,-382) scale(1,1)"><path fill="none" stroke="#000000" d="M 744 392 L 881.578125 392 L 881.578125 444 L 744 444 L 744 392 Z Z" stroke-miterlimit="10"/></g><g transform="translate(-630,-382) scale(1,1)"><g><path fill="none" stroke="none"/><text fill="#000000" stroke="none" font-family="Arial" font-size="13px" font-style="normal" font-weight="normal" text-decoration="none" x="782.79638671875" y="409.5">«Handler»</text></g></g><g transform="translate(-630,-382) scale(1,1)"><g><path fill="none" stroke="none"/><text fill="#000000" stroke="none" font-family="Arial" font-size="13px" font-style="italic" font-weight="bold" text-decoration="none" x="753.543212890625" y="424.5">AbstractGrdfHandler</text></g></g><g transform="translate(-630,-382) scale(1,1)"><g><path fill="none" stroke="none"/><text fill="#000000" stroke="none" font-family="Arial" font-size="13px" font-style="normal" font-weight="normal" text-decoration="none" x="782.45361328125" y="439.5">(from grdf)</text></g></g><g transform="translate(-630,-382) scale(1,1)"><rect fill="#C0C0C0" stroke="none" x="895" y="487" width="113.7236328125" height="52" opacity="0.2"/></g><g transform="translate(-630,-382) scale(1,1)"><rect fill="#ffffff" stroke="none" x="888" y="480" width="113.7236328125" height="52"/></g><g transform="translate(-630,-382) scale(1,1)"><path fill="none" stroke="#000000" d="M 888 480 L 1001.7236328125 480 L 1001.7236328125 532 L 888 532 L 888 480 Z Z" stroke-miterlimit="10"/></g><g transform="translate(-630,-382) scale(1,1)"><g><path fill="none" stroke="none"/><text fill="#000000" stroke="none" font-family="Arial" font-size="13px" font-style="normal" font-weight="normal" text-decoration="none" x="914.869140625" y="497.5">«Handler»</text></g></g><g transform="translate(-630,-382) scale(1,1)"><g><path fill="none" stroke="none"/><text fill="#000000" stroke="none" font-family="Arial" font-size="13px" font-style="normal" font-weight="bold" text-decoration="none" x="896.08642578125" y="512.5">GrdfStubHandler</text></g></g><g transform="translate(-630,-382) scale(1,1)"><g><path fill="none" stroke="none"/><text fill="#000000" stroke="none" font-family="Arial" font-size="13px" font-style="normal" font-weight="normal" text-decoration="none" x="914.5263671875" y="527.5">(from grdf)</text></g></g><g transform="translate(-630,-382) scale(1,1)"><path fill="none" stroke="#000000" d="M 888 496 L 830 496 L 830 444" stroke-miterlimit="10"/></g><g transform="translate(-630,-382) scale(1,1)"><path fill="#FFFFFF" stroke="none" d="M 838.419035512032 464.3253497152483 L 830 444 L 821.580964487968 464.3253497152483"/></g><g transform="translate(-630,-382) scale(1,1)"><path fill="none" stroke="#000000" d="M 838.419035512032 464.3253497152483 L 830 444 L 821.580964487968 464.3253497152483 L 838.419035512032 464.3253497152483" stroke-miterlimit="10"/></g><g transform="translate(-630,-382) scale(1,1)"><rect fill="#C0C0C0" stroke="none" x="647" y="503" width="112.29541015625" height="52" opacity="0.2"/></g><g transform="translate(-630,-382) scale(1,1)"><rect fill="#ffffff" stroke="none" x="640" y="496" width="112.29541015625" height="52"/></g><g transform="translate(-630,-382) scale(1,1)"><path fill="none" stroke="#000000" d="M 640 496 L 752.29541015625 496 L 752.29541015625 548 L 640 548 L 640 496 Z Z" stroke-miterlimit="10"/></g><g transform="translate(-630,-382) scale(1,1)"><g><path fill="none" stroke="none"/><text fill="#000000" stroke="none" font-family="Arial" font-size="13px" font-style="normal" font-weight="normal" text-decoration="none" x="666.155029296875" y="513.5">«Handler»</text></g></g><g transform="translate(-630,-382) scale(1,1)"><g><path fill="none" stroke="none"/><text fill="#000000" stroke="none" font-family="Arial" font-size="13px" font-style="normal" font-weight="bold" text-decoration="none" x="647.619873046875" y="528.5">GrdfTrueHandler</text></g></g><g transform="translate(-630,-382) scale(1,1)"><g><path fill="none" stroke="none"/><text fill="#000000" stroke="none" font-family="Arial" font-size="13px" font-style="normal" font-weight="normal" text-decoration="none" x="665.812255859375" y="543.5">(from grdf)</text></g></g><g transform="translate(-630,-382) scale(1,1)"><path fill="none" stroke="#000000" d="M 752 530 L 792 530 L 792 444" stroke-miterlimit="10"/></g><g transform="translate(-630,-382) scale(1,1)"><path fill="#FFFFFF" stroke="none" d="M 800.419035512032 464.3253497152483 L 792 444 L 783.580964487968 464.3253497152483"/></g><g transform="translate(-630,-382) scale(1,1)"><path fill="none" stroke="#000000" d="M 800.419035512032 464.3253497152483 L 792 444 L 783.580964487968 464.3253497152483 L 800.419035512032 464.3253497152483" stroke-miterlimit="10"/></g><g transform="translate(-630,-382) scale(1,1)"><path fill="none" stroke="#000000" d="M 734 548 L 734 616" stroke-miterlimit="10" stroke-dasharray="3"/></g><g transform="translate(-630,-382) scale(1,1)"><path fill="none" stroke="#000000" d="M 729.790482243984 605.8373251423759 L 734 616 L 738.209517756016 605.8373251423759" stroke-miterlimit="10"/></g><g transform="translate(-630,-382) scale(1,1)"><path fill="none" stroke="#000000" d="M 968 532 L 968 672 L 758 672" stroke-miterlimit="10" stroke-dasharray="3"/></g><g transform="translate(-630,-382) scale(1,1)"><path fill="none" stroke="#000000" d="M 768.1626748576241 667.790482243984 L 758 672 L 768.1626748576241 676.209517756016" stroke-miterlimit="10"/></g><g transform="translate(-630,-382) scale(1,1)"><path fill="none" stroke="#000000" d="M 904 532 L 904 584" stroke-miterlimit="10" stroke-dasharray="3"/></g><g transform="translate(-630,-382) scale(1,1)"><path fill="none" stroke="#000000" d="M 899.790482243984 573.8373251423759 L 904 584 L 908.209517756016 573.8373251423759" stroke-miterlimit="10"/></g><g transform="translate(-630,-382) scale(1,1)"><path fill="none" stroke="#000000" d="M 696 548 L 696 568 L 872 568 L 872 584" stroke-miterlimit="10" stroke-dasharray="3"/></g><g transform="translate(-630,-382) scale(1,1)"><path fill="none" stroke="#000000" d="M 867.790482243984 573.8373251423759 L 872 584 L 876.209517756016 573.8373251423759" stroke-miterlimit="10"/></g></g></svg>