<svg version="1.1" xmlns="http://www.w3.org/2000/svg" xmlns:xlink="http://www.w3.org/1999/xlink" width="148.81201171875" height="149"><defs/><g><g transform="translate(-12.580322265625,-10) scale(1,1)"><rect fill="#C0C0C0" stroke="none" x="44.097412109375" y="27" width="99.77783203125" height="24" opacity="0.2"/></g><g transform="translate(-12.580322265625,-10) scale(1,1)"><rect fill="#ffffff" stroke="none" x="37.097412109375" y="20" width="99.77783203125" height="24"/></g><g transform="translate(-12.580322265625,-10) scale(1,1)"><path fill="none" stroke="#000000" d="M 37.097412109375 20 L 136.875244140625 20 L 136.875244140625 44 L 37.097412109375 44 L 37.097412109375 20 Z Z" stroke-miterlimit="10"/></g><g transform="translate(-12.580322265625,-10) scale(1,1)"><g><path fill="none" stroke="none"/><text fill="#000000" stroke="none" font-family="Arial" font-size="13px" font-style="normal" font-weight="bold" text-decoration="none" x="43.9873046875" y="39.5">TokenManager</text></g></g><g transform="translate(-12.580322265625,-10) scale(1,1)"><rect fill="#C0C0C0" stroke="none" x="29.580322265625" y="62" width="128.81201171875" height="24" opacity="0.2"/></g><g transform="translate(-12.580322265625,-10) scale(1,1)"><rect fill="#ffffff" stroke="none" x="22.580322265625" y="55" width="128.81201171875" height="24"/></g><g transform="translate(-12.580322265625,-10) scale(1,1)"><path fill="none" stroke="#000000" d="M 22.580322265625 55 L 151.392333984375 55 L 151.392333984375 79 L 22.580322265625 79 L 22.580322265625 55 Z Z" stroke-miterlimit="10"/></g><g transform="translate(-12.580322265625,-10) scale(1,1)"><g><path fill="none" stroke="none"/><text fill="#000000" stroke="none" font-family="Arial" font-size="13px" font-style="normal" font-weight="bold" text-decoration="none" x="31.71728515625" y="74.5">SecurityWithJose4j</text></g></g><g transform="translate(-12.580322265625,-10) scale(1,1)"><rect fill="#C0C0C0" stroke="none" x="49.511962890625" y="97" width="88.94873046875" height="24" opacity="0.2"/></g><g transform="translate(-12.580322265625,-10) scale(1,1)"><rect fill="#ffffff" stroke="none" x="42.511962890625" y="90" width="88.94873046875" height="24"/></g><g transform="translate(-12.580322265625,-10) scale(1,1)"><path fill="none" stroke="#000000" d="M 42.511962890625 90 L 131.460693359375 90 L 131.460693359375 114 L 42.511962890625 114 L 42.511962890625 90 Z Z" stroke-miterlimit="10"/></g><g transform="translate(-12.580322265625,-10) scale(1,1)"><g><path fill="none" stroke="none"/><text fill="#000000" stroke="none" font-family="Arial" font-size="13px" font-style="normal" font-weight="bold" text-decoration="none" x="49.779541015625" y="109.5">TokenClaims</text></g></g><g transform="translate(-12.580322265625,-10) scale(1,1)"><rect fill="#C0C0C0" stroke="none" x="72.636474609375" y="132" width="42.69970703125" height="24" opacity="0.2"/></g><g transform="translate(-12.580322265625,-10) scale(1,1)"><rect fill="#ffffff" stroke="none" x="65.636474609375" y="125" width="42.69970703125" height="24"/></g><g transform="translate(-12.580322265625,-10) scale(1,1)"><path fill="none" stroke="#000000" d="M 65.636474609375 125 L 108.336181640625 125 L 108.336181640625 149 L 65.636474609375 149 L 65.636474609375 125 Z Z" stroke-miterlimit="10"/></g><g transform="translate(-12.580322265625,-10) scale(1,1)"><g><path fill="none" stroke="none"/><text fill="#000000" stroke="none" font-family="Arial" font-size="13px" font-style="normal" font-weight="bold" text-decoration="none" x="71.812255859375" y="144.5">Tools</text></g></g></g></svg>