<svg version="1.1" xmlns="http://www.w3.org/2000/svg" xmlns:xlink="http://www.w3.org/1999/xlink" width="717" height="86"><defs/><g><g transform="translate(-174,-438) scale(1,1)"><path fill="#C0C0C0" stroke="none" d="M 191 488.5 C 191 483.2532944 195.2532944 479 200.5 479 C 205.7467056 479 210 483.2532944 210 488.5 C 210 493.7467056 205.7467056 498 200.5 498 C 195.2532944 498 191 493.7467056 191 488.5 Z" opacity="0.2"/></g><g transform="translate(-174,-438) scale(1,1)"><path fill="#000000" stroke="none" d="M 184 481.5 C 184 476.2532944 188.2532944 472 193.5 472 C 198.7467056 472 203 476.2532944 203 481.5 C 203 486.7467056 198.7467056 491 193.5 491 C 188.2532944 491 184 486.7467056 184 481.5 Z"/></g><g transform="translate(-174,-438) scale(1,1)"><path fill="#C0C0C0" stroke="none" d="M 273 455 L 357 455 Q 367 455 367 465 L 367 511 Q 367 521 357 521 L 273 521 Q 263 521 263 511 L 263 465 Q 263 455 273 455 Z" opacity="0.2"/></g><g transform="translate(-174,-438) scale(1,1)"><path fill="#b6ff6d" stroke="none" d="M 266 448 L 350 448 Q 360 448 360 458 L 360 504 Q 360 514 350 514 L 266 514 Q 256 514 256 504 L 256 458 Q 256 448 266 448 Z"/></g><g transform="translate(-174,-438) scale(1,1)"><path fill="none" stroke="#000000" d="M 266 448 L 350 448 Q 360 448 360 458 L 360 504 Q 360 514 350 514 L 266 514 Q 256 514 256 504 L 256 458 Q 256 448 266 448 Z" stroke-miterlimit="10"/></g><g transform="translate(-174,-438) scale(1,1)"><g><path fill="none" stroke="none"/><text fill="#000000" stroke="none" font-family="Arial" font-size="13px" font-style="normal" font-weight="normal" text-decoration="none" x="264.280517578125" y="465.5">«Sub-process»</text></g></g><g transform="translate(-174,-438) scale(1,1)"><g><path fill="none" stroke="none"/><text fill="#000000" stroke="none" font-family="Arial" font-size="13px" font-style="normal" font-weight="bold" text-decoration="none" x="270.548828125" y="480.5">Take off from</text><text fill="#000000" stroke="none" font-family="Arial" font-size="13px" font-style="normal" font-weight="bold" text-decoration="none" x="283.444091796875" y="493.5">S2G-MT</text></g></g><g transform="translate(-174,-438) scale(1,1)"><path fill="#C0C0C0" stroke="none" d="M 417 455 L 493.43896484375 455 Q 503.43896484375 455 503.43896484375 465 L 503.43896484375 511 Q 503.43896484375 521 493.43896484375 521 L 417 521 Q 407 521 407 511 L 407 465 Q 407 455 417 455 Z" opacity="0.2"/></g><g transform="translate(-174,-438) scale(1,1)"><path fill="#ffd456" stroke="none" d="M 410 448 L 486.43896484375 448 Q 496.43896484375 448 496.43896484375 458 L 496.43896484375 504 Q 496.43896484375 514 486.43896484375 514 L 410 514 Q 400 514 400 504 L 400 458 Q 400 448 410 448 Z"/></g><g transform="translate(-174,-438) scale(1,1)"><path fill="none" stroke="#000000" d="M 410 448 L 486.43896484375 448 Q 496.43896484375 448 496.43896484375 458 L 496.43896484375 504 Q 496.43896484375 514 486.43896484375 514 L 410 514 Q 400 514 400 504 L 400 458 Q 400 448 410 448 Z" stroke-miterlimit="10"/></g><g transform="translate(-174,-438) scale(1,1)"><g><path fill="none" stroke="none"/><text fill="#000000" stroke="none" font-family="Arial" font-size="13px" font-style="normal" font-weight="normal" text-decoration="none" x="404.5" y="465.5">«Sub-process»</text></g></g><g transform="translate(-174,-438) scale(1,1)"><g><path fill="none" stroke="none"/><text fill="#000000" stroke="none" font-family="Arial" font-size="13px" font-style="normal" font-weight="bold" text-decoration="none" x="426.53271484375" y="480.5">Land at</text><text fill="#000000" stroke="none" font-family="Arial" font-size="13px" font-style="normal" font-weight="bold" text-decoration="none" x="423.66357421875" y="493.5">S2G-MT</text></g></g><g transform="translate(-174,-438) scale(1,1)"><path fill="#C0C0C0" stroke="none" d="M 561 455 L 653 455 Q 663 455 663 465 L 663 511 Q 663 521 653 521 L 561 521 Q 551 521 551 511 L 551 465 Q 551 455 561 455 Z" opacity="0.2"/></g><g transform="translate(-174,-438) scale(1,1)"><path fill="#ffaa56" stroke="none" d="M 554 448 L 646 448 Q 656 448 656 458 L 656 504 Q 656 514 646 514 L 554 514 Q 544 514 544 504 L 544 458 Q 544 448 554 448 Z"/></g><g transform="translate(-174,-438) scale(1,1)"><path fill="none" stroke="#000000" d="M 554 448 L 646 448 Q 656 448 656 458 L 656 504 Q 656 514 646 514 L 554 514 Q 544 514 544 504 L 544 458 Q 544 448 554 448 Z" stroke-miterlimit="10"/></g><g transform="translate(-174,-438) scale(1,1)"><g><path fill="none" stroke="none"/><text fill="#000000" stroke="none" font-family="Arial" font-size="13px" font-style="normal" font-weight="normal" text-decoration="none" x="556.280517578125" y="465.5">«Sub-process»</text></g></g><g transform="translate(-174,-438) scale(1,1)"><g><path fill="none" stroke="none"/><text fill="#000000" stroke="none" font-family="Arial" font-size="13px" font-style="normal" font-weight="bold" text-decoration="none" x="551.95458984375" y="480.5">Request MP Full</text><text fill="#000000" stroke="none" font-family="Arial" font-size="13px" font-style="normal" font-weight="bold" text-decoration="none" x="579.04638671875" y="493.5">Control</text></g></g><g transform="translate(-174,-438) scale(1,1)"><path fill="#C0C0C0" stroke="none" d="M 729 455 L 805.43896484375 455 Q 815.43896484375 455 815.43896484375 465 L 815.43896484375 511 Q 815.43896484375 521 805.43896484375 521 L 729 521 Q 719 521 719 511 L 719 465 Q 719 455 729 455 Z" opacity="0.2"/></g><g transform="translate(-174,-438) scale(1,1)"><path fill="#ff602b" stroke="none" d="M 722 448 L 798.43896484375 448 Q 808.43896484375 448 808.43896484375 458 L 808.43896484375 504 Q 808.43896484375 514 798.43896484375 514 L 722 514 Q 712 514 712 504 L 712 458 Q 712 448 722 448 Z"/></g><g transform="translate(-174,-438) scale(1,1)"><path fill="none" stroke="#000000" d="M 722 448 L 798.43896484375 448 Q 808.43896484375 448 808.43896484375 458 L 808.43896484375 504 Q 808.43896484375 514 798.43896484375 514 L 722 514 Q 712 514 712 504 L 712 458 Q 712 448 722 448 Z" stroke-miterlimit="10"/></g><g transform="translate(-174,-438) scale(1,1)"><g><path fill="none" stroke="none"/><text fill="#000000" stroke="none" font-family="Arial" font-size="13px" font-style="normal" font-weight="normal" text-decoration="none" x="716.5" y="465.5">«Sub-process»</text></g></g><g transform="translate(-174,-438) scale(1,1)"><g><path fill="none" stroke="none"/><text fill="#000000" stroke="none" font-family="Arial" font-size="13px" font-style="normal" font-weight="bold" text-decoration="none" x="727.713134765625" y="480.5">Get History</text><text fill="#000000" stroke="none" font-family="Arial" font-size="13px" font-style="normal" font-weight="bold" text-decoration="none" x="746.489501953125" y="493.5">Data</text></g></g><g transform="translate(-174,-438) scale(1,1)"><path fill="#C0C0C0" stroke="none" d="M 863 483.5 C 863 476.59644 868.59644 471 875.5 471 C 882.40356 471 888 476.59644 888 483.5 C 888 490.40356 882.40356 496 875.5 496 C 868.59644 496 863 490.40356 863 483.5 Z" opacity="0.2"/></g><g transform="translate(-174,-438) scale(1,1)"><path fill="none" stroke="#000000" d="M 856 476.5 C 856 469.59644 861.59644 464 868.5 464 C 875.40356 464 881 469.59644 881 476.5 C 881 483.40356 875.40356 489 868.5 489 C 861.59644 489 856 483.40356 856 476.5 Z" stroke-miterlimit="10"/></g><g transform="translate(-174,-438) scale(1,1)"><path fill="#000000" stroke="none" d="M 861 476.5 C 861 472.357864 864.357864 469 868.5 469 C 872.642136 469 876 472.357864 876 476.5 C 876 480.642136 872.642136 484 868.5 484 C 864.357864 484 861 480.642136 861 476.5 Z"/></g><g transform="translate(-174,-438) scale(1,1)"><path fill="none" stroke="#000000" d="M 204 481 L 255 481" stroke-miterlimit="10"/></g><g transform="translate(-174,-438) scale(1,1)"><path fill="none" stroke="#000000" d="M 244.83732514237585 485.209517756016 L 255 481 L 244.83732514237585 476.790482243984" stroke-miterlimit="10"/></g><g transform="translate(-174,-438) scale(1,1)"><path fill="none" stroke="#000000" d="M 361 481 L 399 481" stroke-miterlimit="10"/></g><g transform="translate(-174,-438) scale(1,1)"><path fill="none" stroke="#000000" d="M 388.83732514237585 485.209517756016 L 399 481 L 388.83732514237585 476.790482243984" stroke-miterlimit="10"/></g><g transform="translate(-174,-438) scale(1,1)"><path fill="none" stroke="#000000" d="M 497 481 L 543 481" stroke-miterlimit="10"/></g><g transform="translate(-174,-438) scale(1,1)"><path fill="none" stroke="#000000" d="M 532.8373251423759 485.209517756016 L 543 481 L 532.8373251423758 476.790482243984" stroke-miterlimit="10"/></g><g transform="translate(-174,-438) scale(1,1)"><path fill="none" stroke="#000000" d="M 657 481 L 711 481" stroke-miterlimit="10"/></g><g transform="translate(-174,-438) scale(1,1)"><path fill="none" stroke="#000000" d="M 700.8373251423759 485.209517756016 L 711 481 L 700.8373251423758 476.790482243984" stroke-miterlimit="10"/></g><g transform="translate(-174,-438) scale(1,1)"><path fill="none" stroke="#000000" d="M 809 479 L 855 477" stroke-miterlimit="10"/></g><g transform="translate(-174,-438) scale(1,1)"><path fill="none" stroke="#000000" d="M 845.0297668649936 481.6469830248906 L 855 477 L 844.6640673312673 473.23589374918504" stroke-miterlimit="10"/></g></g></svg>