<svg version="1.1" xmlns="http://www.w3.org/2000/svg" xmlns:xlink="http://www.w3.org/1999/xlink" width="337.39453125" height="75"><defs/><g><g transform="translate(-185,-269) scale(1,1)"><rect fill="#C0C0C0" stroke="none" x="202" y="286" width="46.08613281250001" height="15" opacity="0.2"/></g><g transform="translate(-185,-269) scale(1,1)"><rect fill="#C0C0C0" stroke="none" x="202" y="300" width="115.21533203125" height="40" opacity="0.2"/></g><g transform="translate(-185,-269) scale(1,1)"><rect fill="#ffffff" stroke="none" x="195" y="294" width="115.21533203125" height="39"/></g><g transform="translate(-185,-269) scale(1,1)"><path fill="none" stroke="#000000" d="M 195 294 L 310.21533203125 294 L 310.21533203125 333 L 195 333 L 195 294 Z Z" stroke-miterlimit="10"/></g><g transform="translate(-185,-269) scale(1,1)"><rect fill="#ffffff" stroke="none" x="195" y="279" width="46.08613281250001" height="15"/></g><g transform="translate(-185,-269) scale(1,1)"><path fill="none" stroke="#000000" d="M 195 279 L 241.0861328125 279 L 241.0861328125 294 L 195 294 L 195 279 Z Z" stroke-miterlimit="10"/></g><g transform="translate(-185,-269) scale(1,1)"><rect fill="#ffffff" stroke="none" x="195" y="293" width="115.21533203125" height="40"/></g><g transform="translate(-185,-269) scale(1,1)"><path fill="none" stroke="#000000" d="M 195 293 L 310.21533203125 293 L 310.21533203125 333 L 195 333 L 195 293 Z Z" stroke-miterlimit="10"/></g><g transform="translate(-185,-269) scale(1,1)"><path fill="none" stroke="#000000" d="M 233.0861328125 282 L 233.0861328125 286" stroke-miterlimit="10"/></g><g transform="translate(-185,-269) scale(1,1)"><path fill="none" stroke="#000000" d="M 230.0861328125 290 L 230.0861328125 286 L 236.0861328125 286" stroke-miterlimit="10"/></g><g transform="translate(-185,-269) scale(1,1)"><path fill="none" stroke="#000000" d="M 236.0861328125 290 L 236.0861328125 286 L 230.0861328125 286" stroke-miterlimit="10"/></g><g transform="translate(-185,-269) scale(1,1)"><g><path fill="none" stroke="none"/><text fill="#000000" stroke="none" font-family="Arial" font-size="13px" font-style="normal" font-weight="bold" text-decoration="none" x="201.32177734375" y="313.5">S2G-MT-Services</text></g></g><g transform="translate(-185,-269) scale(1,1)"><g><path fill="none" stroke="none"/><text fill="#000000" stroke="none" font-family="Arial" font-size="13px" font-style="normal" font-weight="normal" text-decoration="none" x="208.916748046875" y="328.5">(from S2G-MT)</text></g></g><g transform="translate(-185,-269) scale(1,1)"><rect fill="#C0C0C0" stroke="none" x="423" y="287" width="38.55781250000001" height="15" opacity="0.2"/></g><g transform="translate(-185,-269) scale(1,1)"><rect fill="#C0C0C0" stroke="none" x="423" y="301" width="96.39453125" height="40" opacity="0.2"/></g><g transform="translate(-185,-269) scale(1,1)"><rect fill="#ffffff" stroke="none" x="416" y="295" width="96.39453125" height="39"/></g><g transform="translate(-185,-269) scale(1,1)"><path fill="none" stroke="#000000" d="M 416 295 L 512.39453125 295 L 512.39453125 334 L 416 334 L 416 295 Z Z" stroke-miterlimit="10"/></g><g transform="translate(-185,-269) scale(1,1)"><rect fill="#ffffff" stroke="none" x="416" y="280" width="38.55781250000001" height="15"/></g><g transform="translate(-185,-269) scale(1,1)"><path fill="none" stroke="#000000" d="M 416 280 L 454.5578125 280 L 454.5578125 295 L 416 295 L 416 280 Z Z" stroke-miterlimit="10"/></g><g transform="translate(-185,-269) scale(1,1)"><rect fill="#ffffff" stroke="none" x="416" y="294" width="96.39453125" height="40"/></g><g transform="translate(-185,-269) scale(1,1)"><path fill="none" stroke="#000000" d="M 416 294 L 512.39453125 294 L 512.39453125 334 L 416 334 L 416 294 Z Z" stroke-miterlimit="10"/></g><g transform="translate(-185,-269) scale(1,1)"><path fill="none" stroke="#000000" d="M 446.5578125 283 L 446.5578125 287" stroke-miterlimit="10"/></g><g transform="translate(-185,-269) scale(1,1)"><path fill="none" stroke="#000000" d="M 443.5578125 291 L 443.5578125 287 L 449.5578125 287" stroke-miterlimit="10"/></g><g transform="translate(-185,-269) scale(1,1)"><path fill="none" stroke="#000000" d="M 449.5578125 291 L 449.5578125 287 L 443.5578125 287" stroke-miterlimit="10"/></g><g transform="translate(-185,-269) scale(1,1)"><g><path fill="none" stroke="none"/><text fill="#000000" stroke="none" font-family="Arial" font-size="13px" font-style="normal" font-weight="bold" text-decoration="none" x="422.65185546875" y="314.5">MT-datamodel</text></g></g><g transform="translate(-185,-269) scale(1,1)"><g><path fill="none" stroke="none"/><text fill="#000000" stroke="none" font-family="Arial" font-size="13px" font-style="normal" font-weight="normal" text-decoration="none" x="420.50634765625" y="329.5">(from S2G-MT)</text></g></g><g transform="translate(-185,-269) scale(1,1)"><path fill="none" stroke="#000000" d="M 311 306 L 415 307" stroke-miterlimit="10" stroke-dasharray="3"/></g><g transform="translate(-185,-269) scale(1,1)"><path fill="none" stroke="#000000" d="M 404.79732064673465 311.111609662219 L 415 307 L 404.8782691692869 302.69296331678123" stroke-miterlimit="10"/></g></g></svg>