<svg version="1.1" xmlns="http://www.w3.org/2000/svg" xmlns:xlink="http://www.w3.org/1999/xlink" width="223.21533203125" height="138"><defs/><g><g transform="translate(-494,-262) scale(1,1)"><rect fill="#C0C0C0" stroke="none" x="599" y="343" width="46.086132812499955" height="15" opacity="0.2"/></g><g transform="translate(-494,-262) scale(1,1)"><rect fill="#C0C0C0" stroke="none" x="599" y="357" width="115.21533203125" height="40" opacity="0.2"/></g><g transform="translate(-494,-262) scale(1,1)"><rect fill="#ffffff" stroke="none" x="592" y="351" width="115.21533203125" height="39"/></g><g transform="translate(-494,-262) scale(1,1)"><path fill="none" stroke="#000000" d="M 592 351 L 707.21533203125 351 L 707.21533203125 390 L 592 390 L 592 351 Z Z" stroke-miterlimit="10"/></g><g transform="translate(-494,-262) scale(1,1)"><rect fill="#ffffff" stroke="none" x="592" y="336" width="46.086132812499955" height="15"/></g><g transform="translate(-494,-262) scale(1,1)"><path fill="none" stroke="#000000" d="M 592 336 L 638.0861328125 336 L 638.0861328125 351 L 592 351 L 592 336 Z Z" stroke-miterlimit="10"/></g><g transform="translate(-494,-262) scale(1,1)"><rect fill="#ffffff" stroke="none" x="592" y="350" width="115.21533203125" height="40"/></g><g transform="translate(-494,-262) scale(1,1)"><path fill="none" stroke="#000000" d="M 592 350 L 707.21533203125 350 L 707.21533203125 390 L 592 390 L 592 350 Z Z" stroke-miterlimit="10"/></g><g transform="translate(-494,-262) scale(1,1)"><path fill="none" stroke="#000000" d="M 630.0861328125 339 L 630.0861328125 343" stroke-miterlimit="10"/></g><g transform="translate(-494,-262) scale(1,1)"><path fill="none" stroke="#000000" d="M 627.0861328125 347 L 627.0861328125 343 L 633.0861328125 343" stroke-miterlimit="10"/></g><g transform="translate(-494,-262) scale(1,1)"><path fill="none" stroke="#000000" d="M 633.0861328125 347 L 633.0861328125 343 L 627.0861328125 343" stroke-miterlimit="10"/></g><g transform="translate(-494,-262) scale(1,1)"><g><path fill="none" stroke="none"/><text fill="#000000" stroke="none" font-family="Arial" font-size="13px" font-style="normal" font-weight="bold" text-decoration="none" x="598.32177734375" y="370.5">S2G-MT-Services</text></g></g><g transform="translate(-494,-262) scale(1,1)"><g><path fill="none" stroke="none"/><text fill="#000000" stroke="none" font-family="Arial" font-size="13px" font-style="normal" font-weight="normal" text-decoration="none" x="605.916748046875" y="385.5">(from S2G-MT)</text></g></g><g transform="translate(-494,-262) scale(1,1)"><path fill="#ffffff" stroke="none" d="M 504 272 L 564.0380859375 272 L 574.0380859375 282 L 574.0380859375 321 L 504 321 L 504 272"/></g><g transform="translate(-494,-262) scale(1,1)"><path fill="none" stroke="#000000" d="M 504 272 L 564.0380859375 272 L 574.0380859375 282 L 574.0380859375 321 L 504 321 L 504 272 L 504 272" stroke-miterlimit="10"/></g><g transform="translate(-494,-262) scale(1,1)"><path fill="none" stroke="#000000" d="M 564.0380859375 272 L 564.0380859375 282 L 574.0380859375 282 L 564.0380859375 272" stroke-miterlimit="10"/></g><g transform="translate(-494,-262) scale(1,1)"><g><path fill="none" stroke="none"/><text fill="#000000" stroke="none" font-family="Arial" font-size="13px" font-style="normal" font-weight="normal" text-decoration="none" x="509" y="290">The only</text><text fill="#000000" stroke="none" font-family="Arial" font-size="13px" font-style="normal" font-weight="normal" text-decoration="none" x="509" y="303">module</text><text fill="#000000" stroke="none" font-family="Arial" font-size="13px" font-style="normal" font-weight="normal" text-decoration="none" x="509" y="316">envolved</text></g></g></g></svg>