<svg version="1.1" xmlns="http://www.w3.org/2000/svg" xmlns:xlink="http://www.w3.org/1999/xlink" width="535.73779296875" height="193"><defs/><g><g transform="translate(-1646,-702) scale(1,1)"><rect fill="#C0C0C0" stroke="none" x="1863" y="719" width="315.73779296875" height="173" opacity="0.2"/></g><g transform="translate(-1646,-702) scale(1,1)"><rect fill="#ffffff" stroke="none" x="1856" y="712" width="315.73779296875" height="173"/></g><g transform="translate(-1646,-702) scale(1,1)"><path fill="none" stroke="#000000" d="M 1856 712 L 2171.73779296875 712 L 2171.73779296875 885 L 1856 885 L 1856 712 Z Z" stroke-miterlimit="10"/></g><g transform="translate(-1646,-702) scale(1,1)"><path fill="none" stroke="#000000" d="M 1856 750 L 2171.73779296875 750" stroke-miterlimit="10"/></g><g transform="translate(-1646,-702) scale(1,1)"><path fill="none" stroke="#000000" d="M 1856 818 L 2171.73779296875 818" stroke-miterlimit="10"/></g><g transform="translate(-1646,-702) scale(1,1)"><g><path fill="none" stroke="none"/><text fill="#000000" stroke="none" font-family="Arial" font-size="13px" font-style="normal" font-weight="normal" text-decoration="none" x="1978.461669921875" y="729.5">«Controller»</text></g></g><g transform="translate(-1646,-702) scale(1,1)"><g><path fill="none" stroke="none"/><text fill="#000000" stroke="none" font-family="Arial" font-size="13px" font-style="normal" font-weight="bold" text-decoration="none" x="1961.1357421875" y="744.5">UserRESTService</text></g></g><g transform="translate(-1646,-702) scale(1,1)"><g><path fill="none" stroke="none"/><text fill="#000000" stroke="none" font-family="Arial" font-size="13px" font-style="normal" font-weight="normal" text-decoration="none" x="1861" y="767.5">-log</text></g></g><g transform="translate(-1646,-702) scale(1,1)"><g><path fill="none" stroke="none"/><text fill="#000000" stroke="none" font-family="Arial" font-size="13px" font-style="normal" font-weight="normal" text-decoration="none" x="1861" y="782.5">-serviceCrypt</text></g></g><g transform="translate(-1646,-702) scale(1,1)"><g><path fill="none" stroke="none"/><text fill="#000000" stroke="none" font-family="Arial" font-size="13px" font-style="normal" font-weight="normal" text-decoration="none" x="1861" y="797.5">-loginLogger</text></g></g><g transform="translate(-1646,-702) scale(1,1)"><g><path fill="none" stroke="none"/><text fill="#000000" stroke="none" font-family="Arial" font-size="13px" font-style="normal" font-weight="normal" text-decoration="none" x="1861" y="812.5">-loginUserMessageProducer</text></g></g><g transform="translate(-1646,-702) scale(1,1)"><g><path fill="none" stroke="none"/><text fill="#000000" stroke="none" font-family="Arial" font-size="13px" font-style="normal" font-weight="normal" text-decoration="none" x="1861" y="835.5">+checkLogin(token: String, message): null</text></g></g><g transform="translate(-1646,-702) scale(1,1)"><g><path fill="none" stroke="none"/><text fill="#000000" stroke="none" font-family="Arial" font-size="13px" font-style="normal" font-weight="normal" text-decoration="none" x="1861" y="850.5">+getUser(token: String): null</text></g></g><g transform="translate(-1646,-702) scale(1,1)"><g><path fill="none" stroke="none"/><text fill="#000000" stroke="none" font-family="Arial" font-size="13px" font-style="normal" font-weight="normal" text-decoration="none" x="1861" y="865.5">+updatePassword(token: String, message): null</text></g></g><g transform="translate(-1646,-702) scale(1,1)"><g><path fill="none" stroke="none"/><text fill="#000000" stroke="none" font-family="Arial" font-size="13px" font-style="normal" font-weight="normal" text-decoration="none" x="1861" y="880.5">+acceptConditions(version: String, token: String): null</text></g></g><g transform="translate(-1646,-702) scale(1,1)"><rect fill="#C0C0C0" stroke="none" x="1663" y="783" width="95.71533203125" height="37" opacity="0.2"/></g><g transform="translate(-1646,-702) scale(1,1)"><rect fill="#ffffff" stroke="none" x="1656" y="776" width="95.71533203125" height="37"/></g><g transform="translate(-1646,-702) scale(1,1)"><path fill="none" stroke="#000000" d="M 1656 776 L 1751.71533203125 776 L 1751.71533203125 813 L 1656 813 L 1656 776 Z Z" stroke-miterlimit="10"/></g><g transform="translate(-1646,-702) scale(1,1)"><g><path fill="none" stroke="none"/><text fill="#000000" stroke="none" font-family="Arial" font-size="13px" font-style="normal" font-weight="normal" text-decoration="none" x="1677.1181640625" y="793.5">«Sevice»</text></g></g><g transform="translate(-1646,-702) scale(1,1)"><g><path fill="none" stroke="none"/><text fill="#000000" stroke="none" font-family="Arial" font-size="13px" font-style="normal" font-weight="bold" text-decoration="none" x="1663.759521484375" y="808.5">ProfileService</text></g></g><g transform="translate(-1646,-702) scale(1,1)"><path fill="none" stroke="#000000" d="M 1855 796 L 1753 795" stroke-miterlimit="10"/></g><g transform="translate(-1646,-702) scale(1,1)"><path fill="none" stroke="#000000" d="M 1763.2034542892422 790.8903138115732 L 1753 795 L 1763.1209186918354 799.3089447470649" stroke-miterlimit="10"/></g></g></svg>