<svg version="1.1" xmlns="http://www.w3.org/2000/svg" xmlns:xlink="http://www.w3.org/1999/xlink" width="5216.258544921875" height="1119"><defs/><g><g transform="translate(-1573.955322265625,-103) scale(1,1)"><rect fill="#C0C0C0" stroke="none" x="4742.1097412109375" y="687" width="61" height="37" opacity="0.2"/></g><g transform="translate(-1573.955322265625,-103) scale(1,1)"><rect fill="#ffffff" stroke="none" x="4735.1097412109375" y="680" width="61" height="37"/></g><g transform="translate(-1573.955322265625,-103) scale(1,1)"><path fill="none" stroke="#000000" d="M 4735.1097412109375 680 L 4796.1097412109375 680 L 4796.1097412109375 717 L 4735.1097412109375 717 L 4735.1097412109375 680 Z Z" stroke-miterlimit="10"/></g><g transform="translate(-1573.955322265625,-103) scale(1,1)"><g><path fill="none" stroke="none"/><text fill="#000000" stroke="none" font-family="Arial" font-size="13px" font-style="normal" font-weight="normal" text-decoration="none" x="4742.1234130859375" y="697.5">«Entity»</text></g></g><g transform="translate(-1573.955322265625,-103) scale(1,1)"><g><path fill="none" stroke="none"/><text fill="#000000" stroke="none" font-family="Arial" font-size="13px" font-style="normal" font-weight="bold" text-decoration="none" x="4741.3997802734375" y="712.5">Consent</text></g></g><g transform="translate(-1573.955322265625,-103) scale(1,1)"><rect fill="#C0C0C0" stroke="none" x="4042.3558349609375" y="687" width="89.1962890625" height="37" opacity="0.2"/></g><g transform="translate(-1573.955322265625,-103) scale(1,1)"><rect fill="#ffffff" stroke="none" x="4035.3558349609375" y="680" width="89.1962890625" height="37"/></g><g transform="translate(-1573.955322265625,-103) scale(1,1)"><path fill="none" stroke="#000000" d="M 4035.3558349609375 680 L 4124.5521240234375 680 L 4124.5521240234375 717 L 4035.3558349609375 717 L 4035.3558349609375 680 Z Z" stroke-miterlimit="10"/></g><g transform="translate(-1573.955322265625,-103) scale(1,1)"><g><path fill="none" stroke="none"/><text fill="#000000" stroke="none" font-family="Arial" font-size="13px" font-style="normal" font-weight="normal" text-decoration="none" x="4056.4676513671875" y="697.5">«Entity»</text></g></g><g transform="translate(-1573.955322265625,-103) scale(1,1)"><g><path fill="none" stroke="none"/><text fill="#000000" stroke="none" font-family="Arial" font-size="13px" font-style="normal" font-weight="bold" text-decoration="none" x="4042.7503662109375" y="712.5">DfcRegisters</text></g></g><g transform="translate(-1573.955322265625,-103) scale(1,1)"><rect fill="#C0C0C0" stroke="none" x="5265.8887939453125" y="632" width="95.66455078125" height="37" opacity="0.2"/></g><g transform="translate(-1573.955322265625,-103) scale(1,1)"><rect fill="#ffffff" stroke="none" x="5258.8887939453125" y="625" width="95.66455078125" height="37"/></g><g transform="translate(-1573.955322265625,-103) scale(1,1)"><path fill="none" stroke="#000000" d="M 5258.8887939453125 625 L 5354.5533447265625 625 L 5354.5533447265625 662 L 5258.8887939453125 662 L 5258.8887939453125 625 Z Z" stroke-miterlimit="10"/></g><g transform="translate(-1573.955322265625,-103) scale(1,1)"><g><path fill="none" stroke="none"/><text fill="#000000" stroke="none" font-family="Arial" font-size="13px" font-style="normal" font-weight="normal" text-decoration="none" x="5283.2347412109375" y="642.5">«Entity»</text></g></g><g transform="translate(-1573.955322265625,-103) scale(1,1)"><g><path fill="none" stroke="none"/><text fill="#000000" stroke="none" font-family="Arial" font-size="13px" font-style="normal" font-weight="bold" text-decoration="none" x="5266.6165771484375" y="657.5">MeteringPoint</text></g></g><g transform="translate(-1573.955322265625,-103) scale(1,1)"><rect fill="#C0C0C0" stroke="none" x="1590.955322265625" y="357" width="68.95361328125" height="37" opacity="0.2"/></g><g transform="translate(-1573.955322265625,-103) scale(1,1)"><rect fill="#ffffff" stroke="none" x="1583.955322265625" y="350" width="68.95361328125" height="37"/></g><g transform="translate(-1573.955322265625,-103) scale(1,1)"><path fill="none" stroke="#000000" d="M 1583.955322265625 350 L 1652.908935546875 350 L 1652.908935546875 387 L 1583.955322265625 387 L 1583.955322265625 350 Z Z" stroke-miterlimit="10"/></g><g transform="translate(-1573.955322265625,-103) scale(1,1)"><g><path fill="none" stroke="none"/><text fill="#000000" stroke="none" font-family="Arial" font-size="13px" font-style="normal" font-weight="normal" text-decoration="none" x="1594.94580078125" y="367.5">«Entity»</text></g></g><g transform="translate(-1573.955322265625,-103) scale(1,1)"><g><path fill="none" stroke="none"/><text fill="#000000" stroke="none" font-family="Arial" font-size="13px" font-style="normal" font-weight="bold" text-decoration="none" x="1590.6103515625" y="382.5">Occupant</text></g></g><g transform="translate(-1573.955322265625,-103) scale(1,1)"><rect fill="#C0C0C0" stroke="none" x="4179.4266357421875" y="137" width="56.68359375" height="37" opacity="0.2"/></g><g transform="translate(-1573.955322265625,-103) scale(1,1)"><rect fill="#ffffff" stroke="none" x="4172.4266357421875" y="130" width="56.68359375" height="37"/></g><g transform="translate(-1573.955322265625,-103) scale(1,1)"><path fill="none" stroke="#000000" d="M 4172.4266357421875 130 L 4229.1102294921875 130 L 4229.1102294921875 167 L 4172.4266357421875 167 L 4172.4266357421875 130 Z Z" stroke-miterlimit="10"/></g><g transform="translate(-1573.955322265625,-103) scale(1,1)"><g><path fill="none" stroke="none"/><text fill="#000000" stroke="none" font-family="Arial" font-size="13px" font-style="normal" font-weight="normal" text-decoration="none" x="4177.2821044921875" y="147.5">«Entity»</text></g></g><g transform="translate(-1573.955322265625,-103) scale(1,1)"><g><path fill="none" stroke="none"/><text fill="#000000" stroke="none" font-family="Arial" font-size="13px" font-style="normal" font-weight="bold" text-decoration="none" x="4178.7325439453125" y="162.5">Occupy</text></g></g><g transform="translate(-1573.955322265625,-103) scale(1,1)"><rect fill="#C0C0C0" stroke="none" x="6653.2852783203125" y="1182" width="79.05908203125" height="37" opacity="0.2"/></g><g transform="translate(-1573.955322265625,-103) scale(1,1)"><rect fill="#ffffff" stroke="none" x="6646.2852783203125" y="1175" width="79.05908203125" height="37"/></g><g transform="translate(-1573.955322265625,-103) scale(1,1)"><path fill="none" stroke="#000000" d="M 6646.2852783203125 1175 L 6725.3443603515625 1175 L 6725.3443603515625 1212 L 6646.2852783203125 1212 L 6646.2852783203125 1175 Z Z" stroke-miterlimit="10"/></g><g transform="translate(-1573.955322265625,-103) scale(1,1)"><g><path fill="none" stroke="none"/><text fill="#000000" stroke="none" font-family="Arial" font-size="13px" font-style="normal" font-weight="normal" text-decoration="none" x="6662.3284912109375" y="1192.5">«Entity»</text></g></g><g transform="translate(-1573.955322265625,-103) scale(1,1)"><g><path fill="none" stroke="none"/><text fill="#000000" stroke="none" font-family="Arial" font-size="13px" font-style="normal" font-weight="bold" text-decoration="none" x="6652.5753173828125" y="1207.5">RequestMp</text></g></g><g transform="translate(-1573.955322265625,-103) scale(1,1)"><path fill="none" stroke="#000000" d="M 4734 685 Q 4684 665 4684 651.5 Q 4684 638 4684 624 Q 4684 610 4684 596.5 Q 4684 583 4684 569 Q 4684 555 4684 541.5 Q 4684 528 4684 514 Q 4684 500 4684 486.5 Q 4684 473 4684 459 Q 4684 445 4684 431.5 Q 4684 418 4684 404 Q 4684 390 4684 376.5 Q 4684 363 4684 349 Q 4684 335 4684 321.5 Q 4684 308 4684 294 Q 4684 280 4684 266.5 Q 4684 253 4684 239 Q 4684 225 4684 211.5 Q 4684 198 4684 184 Q 4684 170 4230 149" stroke-miterlimit="10"/></g><g transform="translate(-1573.955322265625,-103) scale(1,1)"><path fill="none" stroke="#000000" d="M 4240.3463257941385 145.26455590838964 L 4230 149 L 4239.957314977321 153.67459928147963" stroke-miterlimit="10"/></g><g transform="translate(-1573.955322265625,-103) scale(1,1)"><g><path fill="none" stroke="none"/><text fill="#000000" stroke="none" font-family="Arial" font-size="13px" font-style="normal" font-weight="normal" text-decoration="none" x="4232.5" y="171.5">-occupy</text></g></g><g transform="translate(-1573.955322265625,-103) scale(1,1)"><path fill="none" stroke="#000000" d="M 4797 695 L 5258 648" stroke-miterlimit="10"/></g><g transform="translate(-1573.955322265625,-103) scale(1,1)"><path fill="none" stroke="#000000" d="M 5248.3166904188865 653.2185740922512 L 5258 648 L 5247.462777002111 644.8429552596211" stroke-miterlimit="10"/></g><g transform="translate(-1573.955322265625,-103) scale(1,1)"><g><path fill="none" stroke="none"/><text fill="#000000" stroke="none" font-family="Arial" font-size="13px" font-style="normal" font-weight="normal" text-decoration="none" x="5187.5" y="641.5">-meteringPoint</text></g></g><g transform="translate(-1573.955322265625,-103) scale(1,1)"><path fill="none" stroke="#000000" d="M 4736 679 Q 4714 665 5258 645" stroke-miterlimit="10"/></g><g transform="translate(-1573.955322265625,-103) scale(1,1)"><path fill="none" stroke="#000000" d="M 5247.998843541738 649.5800512548833 L 5258 645 L 5247.689529148145 641.1666997491651" stroke-miterlimit="10"/></g><g transform="translate(-1573.955322265625,-103) scale(1,1)"><g><path fill="none" stroke="none"/><text fill="#000000" stroke="none" font-family="Arial" font-size="13px" font-style="normal" font-weight="normal" text-decoration="none" x="5185.5" y="636.5">-meteringPoints</text></g></g><g transform="translate(-1573.955322265625,-103) scale(1,1)"><g><path fill="none" stroke="none"/><text fill="#000000" stroke="none" font-family="Arial" font-size="13px" font-style="normal" font-weight="normal" text-decoration="none" x="5178.5" y="623.5">{collection="Set"}</text></g></g><g transform="translate(-1573.955322265625,-103) scale(1,1)"><g><path fill="none" stroke="none"/><text fill="#000000" stroke="none" font-family="Arial" font-size="13px" font-style="normal" font-weight="normal" text-decoration="none" x="5233.220458984375" y="664.5">*</text></g></g><g transform="translate(-1573.955322265625,-103) scale(1,1)"><path fill="none" stroke="#000000" d="M 5258 648 L 4797 695" stroke-miterlimit="10"/></g><g transform="translate(-1573.955322265625,-103) scale(1,1)"><path fill="none" stroke="#000000" d="M 4806.6833095811135 689.7814259077488 L 4797 695 L 4807.537222997889 698.1570447403789" stroke-miterlimit="10"/></g><g transform="translate(-1573.955322265625,-103) scale(1,1)"><g><path fill="none" stroke="none"/><text fill="#000000" stroke="none" font-family="Arial" font-size="13px" font-style="normal" font-weight="normal" text-decoration="none" x="4799.5" y="713.5">-consent</text></g></g><g transform="translate(-1573.955322265625,-103) scale(1,1)"><path fill="none" stroke="#000000" d="M 5258 645 Q 4744 665 4753 679" stroke-miterlimit="10"/></g><g transform="translate(-1573.955322265625,-103) scale(1,1)"><path fill="none" stroke="#000000" d="M 4743.963500694613 672.7277053398507 L 4753 679 L 4751.045412150765 668.1750479751814" stroke-miterlimit="10"/></g><g transform="translate(-1573.955322265625,-103) scale(1,1)"><g><path fill="none" stroke="none"/><text fill="#000000" stroke="none" font-family="Arial" font-size="13px" font-style="normal" font-weight="normal" text-decoration="none" x="4722.5" y="655.5">-consents</text></g></g><g transform="translate(-1573.955322265625,-103) scale(1,1)"><g><path fill="none" stroke="none"/><text fill="#000000" stroke="none" font-family="Arial" font-size="13px" font-style="normal" font-weight="normal" text-decoration="none" x="4711.5" y="645.5">{collection="Set"}</text></g></g><g transform="translate(-1573.955322265625,-103) scale(1,1)"><g><path fill="none" stroke="none"/><text fill="#000000" stroke="none" font-family="Arial" font-size="13px" font-style="normal" font-weight="normal" text-decoration="none" x="4727.220458984375" y="673.5">*</text></g></g><g transform="translate(-1573.955322265625,-103) scale(1,1)"><path fill="none" stroke="#000000" d="M 4200 148 Q 4230 144 4520.5 157 Q 4811 170 4811 184 Q 4811 198 4811 211.5 Q 4811 225 4811 239 Q 4811 253 4811 266.5 Q 4811 280 4811 294 Q 4811 308 4811 321.5 Q 4811 335 4811 349 Q 4811 363 4811 376.5 Q 4811 390 4811 404 Q 4811 418 4811 431.5 Q 4811 445 4811 459 Q 4811 473 4811 486.5 Q 4811 500 4811 514 Q 4811 528 4811 541.5 Q 4811 555 4811 569 Q 4811 583 4811 596.5 Q 4811 610 4811 624 Q 4811 638 4811 651.5 Q 4811 665 4791 679" stroke-miterlimit="10"/></g><g transform="translate(-1573.955322265625,-103) scale(1,1)"><path fill="none" stroke="#000000" d="M 4796.911587720218 669.7235173354246 L 4791 679 L 4801.739587562226 676.6206599668645" stroke-miterlimit="10"/></g><g transform="translate(-1573.955322265625,-103) scale(1,1)"><g><path fill="none" stroke="none"/><text fill="#000000" stroke="none" font-family="Arial" font-size="13px" font-style="normal" font-weight="normal" text-decoration="none" x="4791.5" y="682.5">-consents</text></g></g><g transform="translate(-1573.955322265625,-103) scale(1,1)"><g><path fill="none" stroke="none"/><text fill="#000000" stroke="none" font-family="Arial" font-size="13px" font-style="normal" font-weight="normal" text-decoration="none" x="4780.5" y="691.5">{collection="Set"}</text></g></g><g transform="translate(-1573.955322265625,-103) scale(1,1)"><g><path fill="none" stroke="none"/><text fill="#000000" stroke="none" font-family="Arial" font-size="13px" font-style="normal" font-weight="normal" text-decoration="none" x="4798.220458984375" y="662.5">*</text></g></g><g transform="translate(-1573.955322265625,-103) scale(1,1)"><path fill="none" stroke="#000000" d="M 4080 679 Q 4080 665 5258 644" stroke-miterlimit="10"/></g><g transform="translate(-1573.955322265625,-103) scale(1,1)"><path fill="none" stroke="#000000" d="M 5247.913970000426 648.3899884792224 L 5258 644 L 5247.763909169062 639.9722904150397" stroke-miterlimit="10"/></g><g transform="translate(-1573.955322265625,-103) scale(1,1)"><g><path fill="none" stroke="none"/><text fill="#000000" stroke="none" font-family="Arial" font-size="13px" font-style="normal" font-weight="normal" text-decoration="none" x="5188.5" y="635.5">-meteringPoint</text></g></g><g transform="translate(-1573.955322265625,-103) scale(1,1)"><path fill="none" stroke="#000000" d="M 5258 644 Q 4110 665 4097 679" stroke-miterlimit="10"/></g><g transform="translate(-1573.955322265625,-103) scale(1,1)"><path fill="none" stroke="#000000" d="M 4100.830496064888 668.6884870219317 L 4097 679 L 4106.999910493876 674.417228991706" stroke-miterlimit="10"/></g><g transform="translate(-1573.955322265625,-103) scale(1,1)"><g><path fill="none" stroke="none"/><text fill="#000000" stroke="none" font-family="Arial" font-size="13px" font-style="normal" font-weight="normal" text-decoration="none" x="4079.5" y="676.5">-dfcRegisterses</text></g></g><g transform="translate(-1573.955322265625,-103) scale(1,1)"><g><path fill="none" stroke="none"/><text fill="#000000" stroke="none" font-family="Arial" font-size="13px" font-style="normal" font-weight="normal" text-decoration="none" x="4086.5" y="683.5">{collection="Set"}</text></g></g><g transform="translate(-1573.955322265625,-103) scale(1,1)"><g><path fill="none" stroke="none"/><text fill="#000000" stroke="none" font-family="Arial" font-size="13px" font-style="normal" font-weight="normal" text-decoration="none" x="4099.220458984375" y="660.5">*</text></g></g><g transform="translate(-1573.955322265625,-103) scale(1,1)"><path fill="none" stroke="#000000" d="M 1654 357 Q 1654 357 1730 346 Q 1806 335 1806 321.5 Q 1806 308 1806 294 Q 1806 280 1806 266.5 Q 1806 253 1806 239 Q 1806 225 1806 211.5 Q 1806 198 1806 184 Q 1806 170 4171 148" stroke-miterlimit="10"/></g><g transform="translate(-1573.955322265625,-103) scale(1,1)"><path fill="none" stroke="#000000" d="M 4160.87692142911 152.3038680564783 L 4171 148 L 4160.798608207971 143.885196784107" stroke-miterlimit="10"/></g><g transform="translate(-1573.955322265625,-103) scale(1,1)"><g><path fill="none" stroke="none"/><text fill="#000000" stroke="none" font-family="Arial" font-size="13px" font-style="normal" font-weight="normal" text-decoration="none" x="4116.5" y="139.5">-occupies</text></g></g><g transform="translate(-1573.955322265625,-103) scale(1,1)"><g><path fill="none" stroke="none"/><text fill="#000000" stroke="none" font-family="Arial" font-size="13px" font-style="normal" font-weight="normal" text-decoration="none" x="4092.5" y="125.5">{collection="Set"}</text></g></g><g transform="translate(-1573.955322265625,-103) scale(1,1)"><g><path fill="none" stroke="none"/><text fill="#000000" stroke="none" font-family="Arial" font-size="13px" font-style="normal" font-weight="normal" text-decoration="none" x="4146.220458984375" y="166.5">*</text></g></g><g transform="translate(-1573.955322265625,-103) scale(1,1)"><path fill="none" stroke="#000000" d="M 4171 148 Q 2808 170 2808 184 Q 2808 198 2808 211.5 Q 2808 225 2808 239 Q 2808 253 2808 266.5 Q 2808 280 2808 294 Q 2808 308 2808 321.5 Q 2808 335 1654 367" stroke-miterlimit="10"/></g><g transform="translate(-1573.955322265625,-103) scale(1,1)"><path fill="none" stroke="#000000" d="M 1664.0420863598408 362.51040073709254 L 1654 367 L 1664.2754534459164 370.92620127869236" stroke-miterlimit="10"/></g><g transform="translate(-1573.955322265625,-103) scale(1,1)"><g><path fill="none" stroke="none"/><text fill="#000000" stroke="none" font-family="Arial" font-size="13px" font-style="normal" font-weight="normal" text-decoration="none" x="1651.5" y="387.5">-occupant</text></g></g><g transform="translate(-1573.955322265625,-103) scale(1,1)"><path fill="none" stroke="#000000" d="M 4200 148 Q 4230 143 5465.5 156.5 Q 6701 170 6701 184 Q 6701 198 6701 211.5 Q 6701 225 6701 239 Q 6701 253 6701 266.5 Q 6701 280 6701 294 Q 6701 308 6701 321.5 Q 6701 335 6701 349 Q 6701 363 6701 376.5 Q 6701 390 6701 404 Q 6701 418 6701 431.5 Q 6701 445 6701 459 Q 6701 473 6701 486.5 Q 6701 500 6701 514 Q 6701 528 6701 541.5 Q 6701 555 6701 569 Q 6701 583 6701 596.5 Q 6701 610 6701 624 Q 6701 638 6701 651.5 Q 6701 665 6701 679 Q 6701 693 6701 706.5 Q 6701 720 6701 734 Q 6701 748 6701 761.5 Q 6701 775 6701 789 Q 6701 803 6701 816.5 Q 6701 830 6701 844 Q 6701 858 6701 871.5 Q 6701 885 6701 899 Q 6701 913 6701 926.5 Q 6701 940 6701 954 Q 6701 968 6701 981.5 Q 6701 995 6701 1009 Q 6701 1023 6701 1036.5 Q 6701 1050 6701 1064 Q 6701 1078 6701 1091.5 Q 6701 1105 6701 1119 Q 6701 1133 6701 1146.5 Q 6701 1160 6694 1174" stroke-miterlimit="10"/></g><g transform="translate(-1573.955322265625,-103) scale(1,1)"><path fill="none" stroke="#000000" d="M 6694.779779220998 1163.0276737030608 L 6694 1174 L 6702.309993504953 1166.7927808450386" stroke-miterlimit="10"/></g><g transform="translate(-1573.955322265625,-103) scale(1,1)"><g><path fill="none" stroke="none"/><text fill="#000000" stroke="none" font-family="Arial" font-size="13px" font-style="normal" font-weight="normal" text-decoration="none" x="6682.5" y="1163.5">-requestMps</text></g></g><g transform="translate(-1573.955322265625,-103) scale(1,1)"><g><path fill="none" stroke="none"/><text fill="#000000" stroke="none" font-family="Arial" font-size="13px" font-style="normal" font-weight="normal" text-decoration="none" x="6681.5" y="1167.5">{collection="Set"}</text></g></g><g transform="translate(-1573.955322265625,-103) scale(1,1)"><g><path fill="none" stroke="none"/><text fill="#000000" stroke="none" font-family="Arial" font-size="13px" font-style="normal" font-weight="normal" text-decoration="none" x="6689.220458984375" y="1155.5">*</text></g></g><g transform="translate(-1573.955322265625,-103) scale(1,1)"><path fill="none" stroke="#000000" d="M 6660 1174 Q 6641 1160 6641 1146.5 Q 6641 1133 6641 1119 Q 6641 1105 6641 1091.5 Q 6641 1078 6641 1064 Q 6641 1050 6641 1036.5 Q 6641 1023 6641 1009 Q 6641 995 6641 981.5 Q 6641 968 6641 954 Q 6641 940 6641 926.5 Q 6641 913 6641 899 Q 6641 885 6641 871.5 Q 6641 858 6641 844 Q 6641 830 6641 816.5 Q 6641 803 6641 789 Q 6641 775 6641 761.5 Q 6641 748 6641 734 Q 6641 720 6641 706.5 Q 6641 693 6641 679 Q 6641 665 6641 651.5 Q 6641 638 6641 624 Q 6641 610 6641 596.5 Q 6641 583 6641 569 Q 6641 555 6641 541.5 Q 6641 528 6641 514 Q 6641 500 6641 486.5 Q 6641 473 6641 459 Q 6641 445 6641 431.5 Q 6641 418 6641 404 Q 6641 390 6641 376.5 Q 6641 363 6641 349 Q 6641 335 6641 321.5 Q 6641 308 6641 294 Q 6641 280 6641 266.5 Q 6641 253 6641 239 Q 6641 225 6641 211.5 Q 6641 198 6641 184 Q 6641 170 4230 148" stroke-miterlimit="10"/></g><g transform="translate(-1573.955322265625,-103) scale(1,1)"><path fill="none" stroke="#000000" d="M 4240.2006613935055 143.88338644817696 L 4230 148 L 4240.123842201954 152.30207148591683" stroke-miterlimit="10"/></g><g transform="translate(-1573.955322265625,-103) scale(1,1)"><g><path fill="none" stroke="none"/><text fill="#000000" stroke="none" font-family="Arial" font-size="13px" font-style="normal" font-weight="normal" text-decoration="none" x="4232.5" y="169.5">-occupy</text></g></g></g></svg>