<svg version="1.1" xmlns="http://www.w3.org/2000/svg" xmlns:xlink="http://www.w3.org/1999/xlink" width="410.8017578125" height="178"><defs/><g><g transform="translate(-318,-174) scale(1,1)"><rect fill="#C0C0C0" stroke="none" x="335" y="191" width="67.15781249999998" height="15" opacity="0.2"/></g><g transform="translate(-318,-174) scale(1,1)"><rect fill="#C0C0C0" stroke="none" x="335" y="205" width="167.89453125" height="40" opacity="0.2"/></g><g transform="translate(-318,-174) scale(1,1)"><rect fill="#ffffff" stroke="none" x="328" y="199" width="167.89453125" height="39"/></g><g transform="translate(-318,-174) scale(1,1)"><path fill="none" stroke="#000000" d="M 328 199 L 495.89453125 199 L 495.89453125 238 L 328 238 L 328 199 Z Z" stroke-miterlimit="10"/></g><g transform="translate(-318,-174) scale(1,1)"><rect fill="#ffffff" stroke="none" x="328" y="184" width="67.15781249999998" height="15"/></g><g transform="translate(-318,-174) scale(1,1)"><path fill="none" stroke="#000000" d="M 328 184 L 395.1578125 184 L 395.1578125 199 L 328 199 L 328 184 Z Z" stroke-miterlimit="10"/></g><g transform="translate(-318,-174) scale(1,1)"><rect fill="#ffffff" stroke="none" x="328" y="198" width="167.89453125" height="40"/></g><g transform="translate(-318,-174) scale(1,1)"><path fill="none" stroke="#000000" d="M 328 198 L 495.89453125 198 L 495.89453125 238 L 328 238 L 328 198 Z Z" stroke-miterlimit="10"/></g><g transform="translate(-318,-174) scale(1,1)"><path fill="none" stroke="#000000" d="M 387.1578125 187 L 387.1578125 191" stroke-miterlimit="10"/></g><g transform="translate(-318,-174) scale(1,1)"><path fill="none" stroke="#000000" d="M 384.1578125 195 L 384.1578125 191 L 390.1578125 191" stroke-miterlimit="10"/></g><g transform="translate(-318,-174) scale(1,1)"><path fill="none" stroke="#000000" d="M 390.1578125 195 L 390.1578125 191 L 384.1578125 191" stroke-miterlimit="10"/></g><g transform="translate(-318,-174) scale(1,1)"><g><path fill="none" stroke="none"/><text fill="#000000" stroke="none" font-family="Arial" font-size="13px" font-style="normal" font-weight="bold" text-decoration="none" x="335.369140625" y="218.5">S2G-MT-ASGS-Connector</text></g></g><g transform="translate(-318,-174) scale(1,1)"><g><path fill="none" stroke="none"/><text fill="#000000" stroke="none" font-family="Arial" font-size="13px" font-style="normal" font-weight="normal" text-decoration="none" x="368.25634765625" y="233.5">(from S2G-MT)</text></g></g><g transform="translate(-318,-174) scale(1,1)"><rect fill="#C0C0C0" stroke="none" x="607" y="295" width="47.520703124999955" height="15" opacity="0.2"/></g><g transform="translate(-318,-174) scale(1,1)"><rect fill="#C0C0C0" stroke="none" x="607" y="309" width="118.8017578125" height="40" opacity="0.2"/></g><g transform="translate(-318,-174) scale(1,1)"><rect fill="#ffffff" stroke="none" x="600" y="303" width="118.8017578125" height="39"/></g><g transform="translate(-318,-174) scale(1,1)"><path fill="none" stroke="#000000" d="M 600 303 L 718.8017578125 303 L 718.8017578125 342 L 600 342 L 600 303 Z Z" stroke-miterlimit="10"/></g><g transform="translate(-318,-174) scale(1,1)"><rect fill="#ffffff" stroke="none" x="600" y="288" width="47.520703124999955" height="15"/></g><g transform="translate(-318,-174) scale(1,1)"><path fill="none" stroke="#000000" d="M 600 288 L 647.520703125 288 L 647.520703125 303 L 600 303 L 600 288 Z Z" stroke-miterlimit="10"/></g><g transform="translate(-318,-174) scale(1,1)"><rect fill="#ffffff" stroke="none" x="600" y="302" width="118.8017578125" height="40"/></g><g transform="translate(-318,-174) scale(1,1)"><path fill="none" stroke="#000000" d="M 600 302 L 718.8017578125 302 L 718.8017578125 342 L 600 342 L 600 302 Z Z" stroke-miterlimit="10"/></g><g transform="translate(-318,-174) scale(1,1)"><path fill="none" stroke="#000000" d="M 639.520703125 291 L 639.520703125 295" stroke-miterlimit="10"/></g><g transform="translate(-318,-174) scale(1,1)"><path fill="none" stroke="#000000" d="M 636.520703125 299 L 636.520703125 295 L 642.520703125 295" stroke-miterlimit="10"/></g><g transform="translate(-318,-174) scale(1,1)"><path fill="none" stroke="#000000" d="M 642.520703125 299 L 642.520703125 295 L 636.520703125 295" stroke-miterlimit="10"/></g><g transform="translate(-318,-174) scale(1,1)"><g><path fill="none" stroke="none"/><text fill="#000000" stroke="none" font-family="Arial" font-size="13px" font-style="normal" font-weight="bold" text-decoration="none" x="606.30908203125" y="322.5">S2G-MT-Pro-Back</text></g></g><g transform="translate(-318,-174) scale(1,1)"><g><path fill="none" stroke="none"/><text fill="#000000" stroke="none" font-family="Arial" font-size="13px" font-style="normal" font-weight="normal" text-decoration="none" x="615.7099609375" y="337.5">(from S2G-MT)</text></g></g><g transform="translate(-318,-174) scale(1,1)"><rect fill="#C0C0C0" stroke="none" x="615" y="191" width="38.552734375" height="15" opacity="0.2"/></g><g transform="translate(-318,-174) scale(1,1)"><rect fill="#C0C0C0" stroke="none" x="615" y="205" width="96.3818359375" height="40" opacity="0.2"/></g><g transform="translate(-318,-174) scale(1,1)"><rect fill="#ffffff" stroke="none" x="608" y="199" width="96.3818359375" height="39"/></g><g transform="translate(-318,-174) scale(1,1)"><path fill="none" stroke="#000000" d="M 608 199 L 704.3818359375 199 L 704.3818359375 238 L 608 238 L 608 199 Z Z" stroke-miterlimit="10"/></g><g transform="translate(-318,-174) scale(1,1)"><rect fill="#ffffff" stroke="none" x="608" y="184" width="38.552734375" height="15"/></g><g transform="translate(-318,-174) scale(1,1)"><path fill="none" stroke="#000000" d="M 608 184 L 646.552734375 184 L 646.552734375 199 L 608 199 L 608 184 Z Z" stroke-miterlimit="10"/></g><g transform="translate(-318,-174) scale(1,1)"><rect fill="#ffffff" stroke="none" x="608" y="198" width="96.3818359375" height="40"/></g><g transform="translate(-318,-174) scale(1,1)"><path fill="none" stroke="#000000" d="M 608 198 L 704.3818359375 198 L 704.3818359375 238 L 608 238 L 608 198 Z Z" stroke-miterlimit="10"/></g><g transform="translate(-318,-174) scale(1,1)"><path fill="none" stroke="#000000" d="M 638.552734375 187 L 638.552734375 191" stroke-miterlimit="10"/></g><g transform="translate(-318,-174) scale(1,1)"><path fill="none" stroke="#000000" d="M 635.552734375 195 L 635.552734375 191 L 641.552734375 191" stroke-miterlimit="10"/></g><g transform="translate(-318,-174) scale(1,1)"><path fill="none" stroke="#000000" d="M 641.552734375 195 L 641.552734375 191 L 635.552734375 191" stroke-miterlimit="10"/></g><g transform="translate(-318,-174) scale(1,1)"><g><path fill="none" stroke="none"/><text fill="#000000" stroke="none" font-family="Arial" font-size="13px" font-style="normal" font-weight="bold" text-decoration="none" x="620.786865234375" y="218.5">MT-outillage</text></g></g><g transform="translate(-318,-174) scale(1,1)"><g><path fill="none" stroke="none"/><text fill="#000000" stroke="none" font-family="Arial" font-size="13px" font-style="normal" font-weight="normal" text-decoration="none" x="612.5" y="233.5">(from S2G-MT)</text></g></g><g transform="translate(-318,-174) scale(1,1)"><path fill="none" stroke="#000000" d="M 658 287 L 657 239" stroke-miterlimit="10" stroke-dasharray="3"/></g><g transform="translate(-318,-174) scale(1,1)"><path fill="none" stroke="#000000" d="M 661.4202809905795 249.07279087265897 L 657 239 L 653.0030719316576 249.24814939471983" stroke-miterlimit="10"/></g><g transform="translate(-318,-174) scale(1,1)"><path fill="none" stroke="#000000" d="M 497 211 L 607 211" stroke-miterlimit="10" stroke-dasharray="3"/></g><g transform="translate(-318,-174) scale(1,1)"><path fill="none" stroke="#000000" d="M 596.8373251423759 215.209517756016 L 607 211 L 596.8373251423758 206.790482243984" stroke-miterlimit="10"/></g></g></svg>