<svg version="1.1" xmlns="http://www.w3.org/2000/svg" xmlns:xlink="http://www.w3.org/1999/xlink" width="397" height="354"><defs/><g><g transform="translate(-366,-118) scale(1,1)"><rect fill="#C0C0C0" stroke="none" x="383" y="295" width="56.48359375000001" height="15" opacity="0.2"/></g><g transform="translate(-366,-118) scale(1,1)"><rect fill="#C0C0C0" stroke="none" x="383" y="309" width="141.208984375" height="40" opacity="0.2"/></g><g transform="translate(-366,-118) scale(1,1)"><rect fill="#ffffff" stroke="none" x="376" y="303" width="141.208984375" height="39"/></g><g transform="translate(-366,-118) scale(1,1)"><path fill="none" stroke="#000000" d="M 376 303 L 517.208984375 303 L 517.208984375 342 L 376 342 L 376 303 Z Z" stroke-miterlimit="10"/></g><g transform="translate(-366,-118) scale(1,1)"><rect fill="#ffffff" stroke="none" x="376" y="288" width="56.48359375000001" height="15"/></g><g transform="translate(-366,-118) scale(1,1)"><path fill="none" stroke="#000000" d="M 376 288 L 432.48359375 288 L 432.48359375 303 L 376 303 L 376 288 Z Z" stroke-miterlimit="10"/></g><g transform="translate(-366,-118) scale(1,1)"><rect fill="#ffffff" stroke="none" x="376" y="302" width="141.208984375" height="40"/></g><g transform="translate(-366,-118) scale(1,1)"><path fill="none" stroke="#000000" d="M 376 302 L 517.208984375 302 L 517.208984375 342 L 376 342 L 376 302 Z Z" stroke-miterlimit="10"/></g><g transform="translate(-366,-118) scale(1,1)"><path fill="none" stroke="#000000" d="M 424.48359375 291 L 424.48359375 295" stroke-miterlimit="10"/></g><g transform="translate(-366,-118) scale(1,1)"><path fill="none" stroke="#000000" d="M 421.48359375 299 L 421.48359375 295 L 427.48359375 295" stroke-miterlimit="10"/></g><g transform="translate(-366,-118) scale(1,1)"><path fill="none" stroke="#000000" d="M 427.48359375 299 L 427.48359375 295 L 421.48359375 295" stroke-miterlimit="10"/></g><g transform="translate(-366,-118) scale(1,1)"><g><path fill="none" stroke="none"/><text fill="#000000" stroke="none" font-family="Arial" font-size="13px" font-style="normal" font-weight="bold" text-decoration="none" x="382.674072265625" y="322.5">S2G-MT-Usager-Back</text></g></g><g transform="translate(-366,-118) scale(1,1)"><g><path fill="none" stroke="none"/><text fill="#000000" stroke="none" font-family="Arial" font-size="13px" font-style="normal" font-weight="normal" text-decoration="none" x="402.91357421875" y="337.5">(from S2G-MT)</text></g></g><g transform="translate(-366,-118) scale(1,1)"><rect fill="#C0C0C0" stroke="none" x="386" y="136" width="57.33671874999999" height="15" opacity="0.2"/></g><g transform="translate(-366,-118) scale(1,1)"><rect fill="#C0C0C0" stroke="none" x="386" y="150" width="143.341796875" height="40" opacity="0.2"/></g><g transform="translate(-366,-118) scale(1,1)"><rect fill="#ffffff" stroke="none" x="379" y="144" width="143.341796875" height="39"/></g><g transform="translate(-366,-118) scale(1,1)"><path fill="none" stroke="#000000" d="M 379 144 L 522.341796875 144 L 522.341796875 183 L 379 183 L 379 144 Z Z" stroke-miterlimit="10"/></g><g transform="translate(-366,-118) scale(1,1)"><rect fill="#ffffff" stroke="none" x="379" y="129" width="57.33671874999999" height="15"/></g><g transform="translate(-366,-118) scale(1,1)"><path fill="none" stroke="#000000" d="M 379 129 L 436.33671875 129 L 436.33671875 144 L 379 144 L 379 129 Z Z" stroke-miterlimit="10"/></g><g transform="translate(-366,-118) scale(1,1)"><rect fill="#ffffff" stroke="none" x="379" y="143" width="143.341796875" height="40"/></g><g transform="translate(-366,-118) scale(1,1)"><path fill="none" stroke="#000000" d="M 379 143 L 522.341796875 143 L 522.341796875 183 L 379 183 L 379 143 Z Z" stroke-miterlimit="10"/></g><g transform="translate(-366,-118) scale(1,1)"><path fill="none" stroke="#000000" d="M 428.33671875 132 L 428.33671875 136" stroke-miterlimit="10"/></g><g transform="translate(-366,-118) scale(1,1)"><path fill="none" stroke="#000000" d="M 425.33671875 140 L 425.33671875 136 L 431.33671875 136" stroke-miterlimit="10"/></g><g transform="translate(-366,-118) scale(1,1)"><path fill="none" stroke="#000000" d="M 431.33671875 140 L 431.33671875 136 L 425.33671875 136" stroke-miterlimit="10"/></g><g transform="translate(-366,-118) scale(1,1)"><g><path fill="none" stroke="none"/><text fill="#000000" stroke="none" font-family="Arial" font-size="13px" font-style="normal" font-weight="bold" text-decoration="none" x="386.02001953125" y="163.5">S2G-MT-Usager-Front</text></g></g><g transform="translate(-366,-118) scale(1,1)"><g><path fill="none" stroke="none"/><text fill="#000000" stroke="none" font-family="Arial" font-size="13px" font-style="normal" font-weight="normal" text-decoration="none" x="406.97998046875" y="178.5">(from S2G-MT)</text></g></g><g transform="translate(-366,-118) scale(1,1)"><path fill="none" stroke="#000000" d="M 449 184 L 447 287" stroke-miterlimit="10" stroke-dasharray="3"/></g><g transform="translate(-366,-118) scale(1,1)"><path fill="none" stroke="#000000" d="M 442.98857189624056 276.7575176559406 L 447 287 L 451.4060207072573 276.9209632639215" stroke-miterlimit="10"/></g><g transform="translate(-366,-118) scale(1,1)"><rect fill="#C0C0C0" stroke="none" x="607" y="295" width="45.210156249999955" height="15" opacity="0.2"/></g><g transform="translate(-366,-118) scale(1,1)"><rect fill="#C0C0C0" stroke="none" x="607" y="309" width="113.025390625" height="40" opacity="0.2"/></g><g transform="translate(-366,-118) scale(1,1)"><rect fill="#ffffff" stroke="none" x="600" y="303" width="113.025390625" height="39"/></g><g transform="translate(-366,-118) scale(1,1)"><path fill="none" stroke="#000000" d="M 600 303 L 713.025390625 303 L 713.025390625 342 L 600 342 L 600 303 Z Z" stroke-miterlimit="10"/></g><g transform="translate(-366,-118) scale(1,1)"><rect fill="#ffffff" stroke="none" x="600" y="288" width="45.210156249999955" height="15"/></g><g transform="translate(-366,-118) scale(1,1)"><path fill="none" stroke="#000000" d="M 600 288 L 645.21015625 288 L 645.21015625 303 L 600 303 L 600 288 Z Z" stroke-miterlimit="10"/></g><g transform="translate(-366,-118) scale(1,1)"><rect fill="#ffffff" stroke="none" x="600" y="302" width="113.025390625" height="40"/></g><g transform="translate(-366,-118) scale(1,1)"><path fill="none" stroke="#000000" d="M 600 302 L 713.025390625 302 L 713.025390625 342 L 600 342 L 600 302 Z Z" stroke-miterlimit="10"/></g><g transform="translate(-366,-118) scale(1,1)"><path fill="none" stroke="#000000" d="M 637.21015625 291 L 637.21015625 295" stroke-miterlimit="10"/></g><g transform="translate(-366,-118) scale(1,1)"><path fill="none" stroke="#000000" d="M 634.21015625 299 L 634.21015625 295 L 640.21015625 295" stroke-miterlimit="10"/></g><g transform="translate(-366,-118) scale(1,1)"><path fill="none" stroke="#000000" d="M 640.21015625 299 L 640.21015625 295 L 634.21015625 295" stroke-miterlimit="10"/></g><g transform="translate(-366,-118) scale(1,1)"><g><path fill="none" stroke="none"/><text fill="#000000" stroke="none" font-family="Arial" font-size="13px" font-style="normal" font-weight="bold" text-decoration="none" x="606.6708984375" y="322.5">S2G-MT-Security</text></g></g><g transform="translate(-366,-118) scale(1,1)"><g><path fill="none" stroke="none"/><text fill="#000000" stroke="none" font-family="Arial" font-size="13px" font-style="normal" font-weight="normal" text-decoration="none" x="612.82177734375" y="337.5">(from S2G-MT)</text></g></g><g transform="translate(-366,-118) scale(1,1)"><path fill="none" stroke="#000000" d="M 518 315 L 599 315" stroke-miterlimit="10" stroke-dasharray="3"/></g><g transform="translate(-366,-118) scale(1,1)"><path fill="none" stroke="#000000" d="M 588.8373251423759 319.209517756016 L 599 315 L 588.8373251423758 310.790482243984" stroke-miterlimit="10"/></g><g transform="translate(-366,-118) scale(1,1)"><rect fill="#C0C0C0" stroke="none" x="607" y="415" width="46.086132812499955" height="15" opacity="0.2"/></g><g transform="translate(-366,-118) scale(1,1)"><rect fill="#C0C0C0" stroke="none" x="607" y="429" width="115.21533203125" height="40" opacity="0.2"/></g><g transform="translate(-366,-118) scale(1,1)"><rect fill="#ffffff" stroke="none" x="600" y="423" width="115.21533203125" height="39"/></g><g transform="translate(-366,-118) scale(1,1)"><path fill="none" stroke="#000000" d="M 600 423 L 715.21533203125 423 L 715.21533203125 462 L 600 462 L 600 423 Z Z" stroke-miterlimit="10"/></g><g transform="translate(-366,-118) scale(1,1)"><rect fill="#ffffff" stroke="none" x="600" y="408" width="46.086132812499955" height="15"/></g><g transform="translate(-366,-118) scale(1,1)"><path fill="none" stroke="#000000" d="M 600 408 L 646.0861328125 408 L 646.0861328125 423 L 600 423 L 600 408 Z Z" stroke-miterlimit="10"/></g><g transform="translate(-366,-118) scale(1,1)"><rect fill="#ffffff" stroke="none" x="600" y="422" width="115.21533203125" height="40"/></g><g transform="translate(-366,-118) scale(1,1)"><path fill="none" stroke="#000000" d="M 600 422 L 715.21533203125 422 L 715.21533203125 462 L 600 462 L 600 422 Z Z" stroke-miterlimit="10"/></g><g transform="translate(-366,-118) scale(1,1)"><path fill="none" stroke="#000000" d="M 638.0861328125 411 L 638.0861328125 415" stroke-miterlimit="10"/></g><g transform="translate(-366,-118) scale(1,1)"><path fill="none" stroke="#000000" d="M 635.0861328125 419 L 635.0861328125 415 L 641.0861328125 415" stroke-miterlimit="10"/></g><g transform="translate(-366,-118) scale(1,1)"><path fill="none" stroke="#000000" d="M 641.0861328125 419 L 641.0861328125 415 L 635.0861328125 415" stroke-miterlimit="10"/></g><g transform="translate(-366,-118) scale(1,1)"><g><path fill="none" stroke="none"/><text fill="#000000" stroke="none" font-family="Arial" font-size="13px" font-style="normal" font-weight="bold" text-decoration="none" x="606.32177734375" y="442.5">S2G-MT-Services</text></g></g><g transform="translate(-366,-118) scale(1,1)"><g><path fill="none" stroke="none"/><text fill="#000000" stroke="none" font-family="Arial" font-size="13px" font-style="normal" font-weight="normal" text-decoration="none" x="613.916748046875" y="457.5">(from S2G-MT)</text></g></g><g transform="translate(-366,-118) scale(1,1)"><path fill="none" stroke="#000000" d="M 495 343 L 608 407" stroke-miterlimit="10" stroke-dasharray="3"/></g><g transform="translate(-366,-118) scale(1,1)"><path fill="none" stroke="#000000" d="M 597.0826014861631 405.6544853437917 L 608 407 L 601.2316560155408 398.3288109403592" stroke-miterlimit="10"/></g><g transform="translate(-366,-118) scale(1,1)"><path fill="none" stroke="#000000" d="M 657 407 L 656 343" stroke-miterlimit="10" stroke-dasharray="3"/></g><g transform="translate(-366,-118) scale(1,1)"><path fill="none" stroke="#000000" d="M 660.3677764073739 353.09566883644607 L 656 343 L 651.949768421496 353.2272002112254" stroke-miterlimit="10"/></g><g transform="translate(-366,-118) scale(1,1)"><rect fill="#C0C0C0" stroke="none" x="615" y="135" width="38.557812499999955" height="15" opacity="0.2"/></g><g transform="translate(-366,-118) scale(1,1)"><rect fill="#C0C0C0" stroke="none" x="615" y="149" width="96.39453125" height="40" opacity="0.2"/></g><g transform="translate(-366,-118) scale(1,1)"><rect fill="#ffffff" stroke="none" x="608" y="143" width="96.39453125" height="39"/></g><g transform="translate(-366,-118) scale(1,1)"><path fill="none" stroke="#000000" d="M 608 143 L 704.39453125 143 L 704.39453125 182 L 608 182 L 608 143 Z Z" stroke-miterlimit="10"/></g><g transform="translate(-366,-118) scale(1,1)"><rect fill="#ffffff" stroke="none" x="608" y="128" width="38.557812499999955" height="15"/></g><g transform="translate(-366,-118) scale(1,1)"><path fill="none" stroke="#000000" d="M 608 128 L 646.5578125 128 L 646.5578125 143 L 608 143 L 608 128 Z Z" stroke-miterlimit="10"/></g><g transform="translate(-366,-118) scale(1,1)"><rect fill="#ffffff" stroke="none" x="608" y="142" width="96.39453125" height="40"/></g><g transform="translate(-366,-118) scale(1,1)"><path fill="none" stroke="#000000" d="M 608 142 L 704.39453125 142 L 704.39453125 182 L 608 182 L 608 142 Z Z" stroke-miterlimit="10"/></g><g transform="translate(-366,-118) scale(1,1)"><path fill="none" stroke="#000000" d="M 638.5578125 131 L 638.5578125 135" stroke-miterlimit="10"/></g><g transform="translate(-366,-118) scale(1,1)"><path fill="none" stroke="#000000" d="M 635.5578125 139 L 635.5578125 135 L 641.5578125 135" stroke-miterlimit="10"/></g><g transform="translate(-366,-118) scale(1,1)"><path fill="none" stroke="#000000" d="M 641.5578125 139 L 641.5578125 135 L 635.5578125 135" stroke-miterlimit="10"/></g><g transform="translate(-366,-118) scale(1,1)"><g><path fill="none" stroke="none"/><text fill="#000000" stroke="none" font-family="Arial" font-size="13px" font-style="normal" font-weight="bold" text-decoration="none" x="614.65185546875" y="162.5">MT-datamodel</text></g></g><g transform="translate(-366,-118) scale(1,1)"><g><path fill="none" stroke="none"/><text fill="#000000" stroke="none" font-family="Arial" font-size="13px" font-style="normal" font-weight="normal" text-decoration="none" x="612.50634765625" y="177.5">(from S2G-MT)</text></g></g><g transform="translate(-366,-118) scale(1,1)"><path fill="none" stroke="#000000" d="M 483 287 L 619 183" stroke-miterlimit="10" stroke-dasharray="3"/></g><g transform="translate(-366,-118) scale(1,1)"><path fill="none" stroke="#000000" d="M 613.4842716365589 192.5171813380187 L 619 183 L 608.3701276091327 185.82945453292294" stroke-miterlimit="10"/></g><g transform="translate(-366,-118) scale(1,1)"><path fill="none" stroke="#000000" d="M 716 438 L 752 440 L 752 160 L 705 158" stroke-miterlimit="10" stroke-dasharray="3"/></g><g transform="translate(-366,-118) scale(1,1)"><path fill="none" stroke="#000000" d="M 715.3324526349913 154.22635156040468 L 705 158 L 714.9745197259431 162.63777492303933" stroke-miterlimit="10"/></g><g transform="translate(-366,-118) scale(1,1)"><path fill="none" stroke="#000000" d="M 656 287 L 656 183" stroke-miterlimit="10" stroke-dasharray="3"/></g><g transform="translate(-366,-118) scale(1,1)"><path fill="none" stroke="#000000" d="M 660.209517756016 193.16267485762415 L 656 183 L 651.790482243984 193.16267485762415" stroke-miterlimit="10"/></g></g></svg>