<svg version="1.1" xmlns="http://www.w3.org/2000/svg" xmlns:xlink="http://www.w3.org/1999/xlink" width="748.30810546875" height="155"><defs/><g><g transform="translate(-166,-190) scale(1,1)"><rect fill="#C0C0C0" stroke="none" x="183" y="231" width="205.287109375" height="90" opacity="0.2"/></g><g transform="translate(-166,-190) scale(1,1)"><rect fill="#ffffff" stroke="none" x="176" y="224" width="205.287109375" height="90"/></g><g transform="translate(-166,-190) scale(1,1)"><path fill="none" stroke="#000000" d="M 176 224 L 381.287109375 224 L 381.287109375 314 L 176 314 L 176 224 Z Z" stroke-miterlimit="10"/></g><g transform="translate(-166,-190) scale(1,1)"><path fill="none" stroke="#000000" d="M 176 247 L 381.287109375 247" stroke-miterlimit="10"/></g><g transform="translate(-166,-190) scale(1,1)"><path fill="none" stroke="#000000" d="M 204.05908203125 247 L 204.05908203125 314" stroke-miterlimit="10"/></g><g transform="translate(-166,-190) scale(1,1)"><path fill="none" stroke="#000000" d="M 294.9599609375 247 L 294.9599609375 314" stroke-miterlimit="10"/></g><g transform="translate(-166,-190) scale(1,1)"><g><path fill="none" stroke="none"/><text fill="#000000" stroke="none" font-family="Arial" font-size="13px" font-style="normal" font-weight="bold" text-decoration="none" x="241.792236328125" y="241.5">email_model</text></g></g><g transform="translate(-166,-190) scale(1,1)"><g><path fill="none" stroke="none"/><text fill="#000000" stroke="none" font-family="Arial" font-size="13px" font-style="normal" font-weight="normal" text-decoration="none" x="181" y="265">PK</text></g></g><g transform="translate(-166,-190) scale(1,1)"><g><path fill="none" stroke="none"/><text fill="#000000" stroke="none" font-family="Arial" font-size="13px" font-style="normal" font-weight="normal" text-decoration="none" x="209.05908203125" y="265">emo_desc</text></g></g><g transform="translate(-166,-190) scale(1,1)"><g><path fill="none" stroke="none"/><text fill="#000000" stroke="none" font-family="Arial" font-size="13px" font-style="normal" font-weight="normal" text-decoration="none" x="299.9599609375" y="265">text</text></g></g><g transform="translate(-166,-190) scale(1,1)"><g><path fill="none" stroke="none"/><text fill="#000000" stroke="none" font-family="Arial" font-size="13px" font-style="normal" font-weight="normal" text-decoration="none" x="181" y="264.5"></text></g></g><g transform="translate(-166,-190) scale(1,1)"><g><path fill="none" stroke="none"/><text fill="#000000" stroke="none" font-family="Arial" font-size="13px" font-style="normal" font-weight="normal" text-decoration="none" x="181" y="280"></text></g></g><g transform="translate(-166,-190) scale(1,1)"><g><path fill="none" stroke="none"/><text fill="#000000" stroke="none" font-family="Arial" font-size="13px" font-style="normal" font-weight="normal" text-decoration="none" x="209.05908203125" y="280">emo_type</text></g></g><g transform="translate(-166,-190) scale(1,1)"><g><path fill="none" stroke="none"/><text fill="#000000" stroke="none" font-family="Arial" font-size="13px" font-style="normal" font-weight="normal" text-decoration="none" x="299.9599609375" y="280">varchar(30)</text></g></g><g transform="translate(-166,-190) scale(1,1)"><g><path fill="none" stroke="none"/><text fill="#000000" stroke="none" font-family="Arial" font-size="13px" font-style="normal" font-weight="normal" text-decoration="none" x="181" y="279.5"></text></g></g><g transform="translate(-166,-190) scale(1,1)"><g><path fill="none" stroke="none"/><text fill="#000000" stroke="none" font-family="Arial" font-size="13px" font-style="normal" font-weight="normal" text-decoration="none" x="181" y="295"></text></g></g><g transform="translate(-166,-190) scale(1,1)"><g><path fill="none" stroke="none"/><text fill="#000000" stroke="none" font-family="Arial" font-size="13px" font-style="normal" font-weight="normal" text-decoration="none" x="209.05908203125" y="295">emo_content</text></g></g><g transform="translate(-166,-190) scale(1,1)"><g><path fill="none" stroke="none"/><text fill="#000000" stroke="none" font-family="Arial" font-size="13px" font-style="normal" font-weight="normal" text-decoration="none" x="299.9599609375" y="295">text</text></g></g><g transform="translate(-166,-190) scale(1,1)"><g><path fill="none" stroke="none"/><text fill="#000000" stroke="none" font-family="Arial" font-size="13px" font-style="normal" font-weight="normal" text-decoration="none" x="181" y="294.5"></text></g></g><g transform="translate(-166,-190) scale(1,1)"><g><path fill="none" stroke="none"/><text fill="#000000" stroke="none" font-family="Arial" font-size="13px" font-style="normal" font-weight="normal" text-decoration="none" x="181" y="310"></text></g></g><g transform="translate(-166,-190) scale(1,1)"><g><path fill="none" stroke="none"/><text fill="#000000" stroke="none" font-family="Arial" font-size="13px" font-style="normal" font-weight="normal" text-decoration="none" x="209.05908203125" y="310">emo_subject</text></g></g><g transform="translate(-166,-190) scale(1,1)"><g><path fill="none" stroke="none"/><text fill="#000000" stroke="none" font-family="Arial" font-size="13px" font-style="normal" font-weight="normal" text-decoration="none" x="299.9599609375" y="310">varchar(120)</text></g></g><g transform="translate(-166,-190) scale(1,1)"><g><path fill="none" stroke="none"/><text fill="#000000" stroke="none" font-family="Arial" font-size="13px" font-style="normal" font-weight="normal" text-decoration="none" x="181" y="309.5"></text></g></g><g transform="translate(-166,-190) scale(1,1)"><rect fill="#C0C0C0" stroke="none" x="447" y="215" width="193.72802734375" height="90" opacity="0.2"/></g><g transform="translate(-166,-190) scale(1,1)"><rect fill="#ffffff" stroke="none" x="440" y="208" width="193.72802734375" height="90"/></g><g transform="translate(-166,-190) scale(1,1)"><path fill="none" stroke="#000000" d="M 440 208 L 633.72802734375 208 L 633.72802734375 298 L 440 298 L 440 208 Z Z" stroke-miterlimit="10"/></g><g transform="translate(-166,-190) scale(1,1)"><path fill="none" stroke="#000000" d="M 440 231 L 633.72802734375 231" stroke-miterlimit="10"/></g><g transform="translate(-166,-190) scale(1,1)"><path fill="none" stroke="#000000" d="M 468.05908203125 231 L 468.05908203125 298" stroke-miterlimit="10"/></g><g transform="translate(-166,-190) scale(1,1)"><path fill="none" stroke="#000000" d="M 554.630859375 231 L 554.630859375 298" stroke-miterlimit="10"/></g><g transform="translate(-166,-190) scale(1,1)"><g><path fill="none" stroke="none"/><text fill="#000000" stroke="none" font-family="Arial" font-size="13px" font-style="normal" font-weight="bold" text-decoration="none" x="473.27001953125" y="225.5">presubscription_token</text></g></g><g transform="translate(-166,-190) scale(1,1)"><g><path fill="none" stroke="none"/><text fill="#000000" stroke="none" font-family="Arial" font-size="13px" font-style="normal" font-weight="normal" text-decoration="none" x="445" y="249">PK</text></g></g><g transform="translate(-166,-190) scale(1,1)"><g><path fill="none" stroke="none"/><text fill="#000000" stroke="none" font-family="Arial" font-size="13px" font-style="normal" font-weight="normal" text-decoration="none" x="473.05908203125" y="249">pt_gen_date</text></g></g><g transform="translate(-166,-190) scale(1,1)"><g><path fill="none" stroke="none"/><text fill="#000000" stroke="none" font-family="Arial" font-size="13px" font-style="normal" font-weight="normal" text-decoration="none" x="559.630859375" y="249">timestamp</text></g></g><g transform="translate(-166,-190) scale(1,1)"><g><path fill="none" stroke="none"/><text fill="#000000" stroke="none" font-family="Arial" font-size="13px" font-style="normal" font-weight="normal" text-decoration="none" x="445" y="248.5"></text></g></g><g transform="translate(-166,-190) scale(1,1)"><g><path fill="none" stroke="none"/><text fill="#000000" stroke="none" font-family="Arial" font-size="13px" font-style="normal" font-weight="normal" text-decoration="none" x="445" y="264">PK</text></g></g><g transform="translate(-166,-190) scale(1,1)"><g><path fill="none" stroke="none"/><text fill="#000000" stroke="none" font-family="Arial" font-size="13px" font-style="normal" font-weight="normal" text-decoration="none" x="473.05908203125" y="264">id_ots</text></g></g><g transform="translate(-166,-190) scale(1,1)"><g><path fill="none" stroke="none"/><text fill="#000000" stroke="none" font-family="Arial" font-size="13px" font-style="normal" font-weight="normal" text-decoration="none" x="559.630859375" y="264">integer</text></g></g><g transform="translate(-166,-190) scale(1,1)"><g><path fill="none" stroke="none"/><text fill="#000000" stroke="none" font-family="Arial" font-size="13px" font-style="normal" font-weight="normal" text-decoration="none" x="445" y="263.5"></text></g></g><g transform="translate(-166,-190) scale(1,1)"><g><path fill="none" stroke="none"/><text fill="#000000" stroke="none" font-family="Arial" font-size="13px" font-style="normal" font-weight="normal" text-decoration="none" x="445" y="279"></text></g></g><g transform="translate(-166,-190) scale(1,1)"><g><path fill="none" stroke="none"/><text fill="#000000" stroke="none" font-family="Arial" font-size="13px" font-style="normal" font-weight="normal" text-decoration="none" x="473.05908203125" y="279">pt_value</text></g></g><g transform="translate(-166,-190) scale(1,1)"><g><path fill="none" stroke="none"/><text fill="#000000" stroke="none" font-family="Arial" font-size="13px" font-style="normal" font-weight="normal" text-decoration="none" x="559.630859375" y="279">varchar(10)</text></g></g><g transform="translate(-166,-190) scale(1,1)"><g><path fill="none" stroke="none"/><text fill="#000000" stroke="none" font-family="Arial" font-size="13px" font-style="normal" font-weight="normal" text-decoration="none" x="445" y="278.5"></text></g></g><g transform="translate(-166,-190) scale(1,1)"><g><path fill="none" stroke="none"/><text fill="#000000" stroke="none" font-family="Arial" font-size="13px" font-style="normal" font-weight="normal" text-decoration="none" x="445" y="294"></text></g></g><g transform="translate(-166,-190) scale(1,1)"><g><path fill="none" stroke="none"/><text fill="#000000" stroke="none" font-family="Arial" font-size="13px" font-style="normal" font-weight="normal" text-decoration="none" x="473.05908203125" y="294">pt_valid</text></g></g><g transform="translate(-166,-190) scale(1,1)"><g><path fill="none" stroke="none"/><text fill="#000000" stroke="none" font-family="Arial" font-size="13px" font-style="normal" font-weight="normal" text-decoration="none" x="559.630859375" y="294">boolean</text></g></g><g transform="translate(-166,-190) scale(1,1)"><g><path fill="none" stroke="none"/><text fill="#000000" stroke="none" font-family="Arial" font-size="13px" font-style="normal" font-weight="normal" text-decoration="none" x="445" y="293.5"></text></g></g><g transform="translate(-166,-190) scale(1,1)"><rect fill="#C0C0C0" stroke="none" x="727" y="207" width="184.30810546875" height="135" opacity="0.2"/></g><g transform="translate(-166,-190) scale(1,1)"><rect fill="#ffffff" stroke="none" x="720" y="200" width="184.30810546875" height="135"/></g><g transform="translate(-166,-190) scale(1,1)"><path fill="none" stroke="#000000" d="M 720 200 L 904.30810546875 200 L 904.30810546875 335 L 720 335 L 720 200 Z Z" stroke-miterlimit="10"/></g><g transform="translate(-166,-190) scale(1,1)"><path fill="none" stroke="#000000" d="M 720 223 L 904.30810546875 223" stroke-miterlimit="10"/></g><g transform="translate(-166,-190) scale(1,1)"><path fill="none" stroke="#000000" d="M 748.05908203125 223 L 748.05908203125 335" stroke-miterlimit="10"/></g><g transform="translate(-166,-190) scale(1,1)"><path fill="none" stroke="#000000" d="M 845.47265625 223 L 845.47265625 335" stroke-miterlimit="10"/></g><g transform="translate(-166,-190) scale(1,1)"><g><path fill="none" stroke="none"/><text fill="#000000" stroke="none" font-family="Arial" font-size="13px" font-style="normal" font-weight="bold" text-decoration="none" x="745.3037109375" y="217.5">occupant_to_subscribe</text></g></g><g transform="translate(-166,-190) scale(1,1)"><g><path fill="none" stroke="none"/><text fill="#000000" stroke="none" font-family="Arial" font-size="13px" font-style="normal" font-weight="normal" text-decoration="none" x="725" y="241">PK</text></g></g><g transform="translate(-166,-190) scale(1,1)"><g><path fill="none" stroke="none"/><text fill="#000000" stroke="none" font-family="Arial" font-size="13px" font-style="normal" font-weight="normal" text-decoration="none" x="753.05908203125" y="241">id_ots</text></g></g><g transform="translate(-166,-190) scale(1,1)"><g><path fill="none" stroke="none"/><text fill="#000000" stroke="none" font-family="Arial" font-size="13px" font-style="normal" font-weight="normal" text-decoration="none" x="850.47265625" y="241">integer</text></g></g><g transform="translate(-166,-190) scale(1,1)"><g><path fill="none" stroke="none"/><text fill="#000000" stroke="none" font-family="Arial" font-size="13px" font-style="normal" font-weight="normal" text-decoration="none" x="725" y="240.5"></text></g></g><g transform="translate(-166,-190) scale(1,1)"><g><path fill="none" stroke="none"/><text fill="#000000" stroke="none" font-family="Arial" font-size="13px" font-style="normal" font-weight="normal" text-decoration="none" x="725" y="256"></text></g></g><g transform="translate(-166,-190) scale(1,1)"><g><path fill="none" stroke="none"/><text fill="#000000" stroke="none" font-family="Arial" font-size="13px" font-style="normal" font-weight="normal" text-decoration="none" x="753.05908203125" y="256">ots_login_</text></g></g><g transform="translate(-166,-190) scale(1,1)"><g><path fill="none" stroke="none"/><text fill="#000000" stroke="none" font-family="Arial" font-size="13px" font-style="normal" font-weight="normal" text-decoration="none" x="850.47265625" y="256">text</text></g></g><g transform="translate(-166,-190) scale(1,1)"><g><path fill="none" stroke="none"/><text fill="#000000" stroke="none" font-family="Arial" font-size="13px" font-style="normal" font-weight="normal" text-decoration="none" x="725" y="255.5"></text></g></g><g transform="translate(-166,-190) scale(1,1)"><g><path fill="none" stroke="none"/><text fill="#000000" stroke="none" font-family="Arial" font-size="13px" font-style="normal" font-weight="normal" text-decoration="none" x="725" y="271"></text></g></g><g transform="translate(-166,-190) scale(1,1)"><g><path fill="none" stroke="none"/><text fill="#000000" stroke="none" font-family="Arial" font-size="13px" font-style="normal" font-weight="normal" text-decoration="none" x="753.05908203125" y="271">ots_password</text></g></g><g transform="translate(-166,-190) scale(1,1)"><g><path fill="none" stroke="none"/><text fill="#000000" stroke="none" font-family="Arial" font-size="13px" font-style="normal" font-weight="normal" text-decoration="none" x="850.47265625" y="271">text</text></g></g><g transform="translate(-166,-190) scale(1,1)"><g><path fill="none" stroke="none"/><text fill="#000000" stroke="none" font-family="Arial" font-size="13px" font-style="normal" font-weight="normal" text-decoration="none" x="725" y="270.5"></text></g></g><g transform="translate(-166,-190) scale(1,1)"><g><path fill="none" stroke="none"/><text fill="#000000" stroke="none" font-family="Arial" font-size="13px" font-style="normal" font-weight="normal" text-decoration="none" x="725" y="286"></text></g></g><g transform="translate(-166,-190) scale(1,1)"><g><path fill="none" stroke="none"/><text fill="#000000" stroke="none" font-family="Arial" font-size="13px" font-style="normal" font-weight="normal" text-decoration="none" x="753.05908203125" y="286">ots_street</text></g></g><g transform="translate(-166,-190) scale(1,1)"><g><path fill="none" stroke="none"/><text fill="#000000" stroke="none" font-family="Arial" font-size="13px" font-style="normal" font-weight="normal" text-decoration="none" x="850.47265625" y="286">boolean</text></g></g><g transform="translate(-166,-190) scale(1,1)"><g><path fill="none" stroke="none"/><text fill="#000000" stroke="none" font-family="Arial" font-size="13px" font-style="normal" font-weight="normal" text-decoration="none" x="725" y="285.5"></text></g></g><g transform="translate(-166,-190) scale(1,1)"><g><path fill="none" stroke="none"/><text fill="#000000" stroke="none" font-family="Arial" font-size="13px" font-style="normal" font-weight="normal" text-decoration="none" x="725" y="301"></text></g></g><g transform="translate(-166,-190) scale(1,1)"><g><path fill="none" stroke="none"/><text fill="#000000" stroke="none" font-family="Arial" font-size="13px" font-style="normal" font-weight="normal" text-decoration="none" x="753.05908203125" y="301">ots_city</text></g></g><g transform="translate(-166,-190) scale(1,1)"><g><path fill="none" stroke="none"/><text fill="#000000" stroke="none" font-family="Arial" font-size="13px" font-style="normal" font-weight="normal" text-decoration="none" x="850.47265625" y="301">text</text></g></g><g transform="translate(-166,-190) scale(1,1)"><g><path fill="none" stroke="none"/><text fill="#000000" stroke="none" font-family="Arial" font-size="13px" font-style="normal" font-weight="normal" text-decoration="none" x="725" y="300.5"></text></g></g><g transform="translate(-166,-190) scale(1,1)"><g><path fill="none" stroke="none"/><text fill="#000000" stroke="none" font-family="Arial" font-size="13px" font-style="normal" font-weight="normal" text-decoration="none" x="725" y="316"></text></g></g><g transform="translate(-166,-190) scale(1,1)"><g><path fill="none" stroke="none"/><text fill="#000000" stroke="none" font-family="Arial" font-size="13px" font-style="normal" font-weight="normal" text-decoration="none" x="753.05908203125" y="316">ots_number</text></g></g><g transform="translate(-166,-190) scale(1,1)"><g><path fill="none" stroke="none"/><text fill="#000000" stroke="none" font-family="Arial" font-size="13px" font-style="normal" font-weight="normal" text-decoration="none" x="850.47265625" y="316">text</text></g></g><g transform="translate(-166,-190) scale(1,1)"><g><path fill="none" stroke="none"/><text fill="#000000" stroke="none" font-family="Arial" font-size="13px" font-style="normal" font-weight="normal" text-decoration="none" x="725" y="315.5"></text></g></g><g transform="translate(-166,-190) scale(1,1)"><path fill="none" stroke="#000000" d="M 720 262 L 634 262" stroke-miterlimit="10"/></g><g transform="translate(-166,-190) scale(1,1)"><path fill="none" stroke="#000000" d="M 648 262 L 634 255" stroke-miterlimit="10"/></g><g transform="translate(-166,-190) scale(1,1)"><path fill="none" stroke="#000000" d="M 648 262 L 634 269" stroke-miterlimit="10"/></g><g transform="translate(-166,-190) scale(1,1)"><path fill="#FFFFFF" stroke="none" d="M 649 262 C 649 258.1340064 652.1340064 255 656 255 C 659.8659936 255 663 258.1340064 663 262 C 663 265.8659936 659.8659936 269 656 269 C 652.1340064 269 649 265.8659936 649 262 Z"/></g><g transform="translate(-166,-190) scale(1,1)"><path fill="none" stroke="#000000" d="M 649 262 C 649 258.1340064 652.1340064 255 656 255 C 659.8659936 255 663 258.1340064 663 262 C 663 265.8659936 659.8659936 269 656 269 C 652.1340064 269 649 265.8659936 649 262 Z" stroke-miterlimit="10"/></g><g transform="translate(-166,-190) scale(1,1)"><path fill="none" stroke="#000000" d="M 713 269 L 713 255" stroke-miterlimit="10"/></g><g transform="translate(-166,-190) scale(1,1)"><path fill="none" stroke="#000000" d="M 706 269 L 706 255" stroke-miterlimit="10"/></g><g transform="translate(-166,-190) scale(1,1)"><g><path fill="none" stroke="none"/><text fill="#000000" stroke="none" font-family="Arial" font-size="13px" font-style="normal" font-weight="normal" text-decoration="none" x="693.5" y="282.5"></text></g></g><g transform="translate(-166,-190) scale(1,1)"><g><path fill="none" stroke="none"/><text fill="#000000" stroke="none" font-family="Arial" font-size="13px" font-style="normal" font-weight="normal" text-decoration="none" x="658.5" y="282.5"></text></g></g></g></svg>