<svg version="1.1" xmlns="http://www.w3.org/2000/svg" xmlns:xlink="http://www.w3.org/1999/xlink" width="548.2587890625" height="353"><defs/><g><g transform="translate(-582,-190) scale(1,1)"><rect fill="#C0C0C0" stroke="none" x="599" y="207" width="229.02880859375" height="203" opacity="0.2"/></g><g transform="translate(-582,-190) scale(1,1)"><rect fill="#ffffff" stroke="none" x="592" y="200" width="229.02880859375" height="203"/></g><g transform="translate(-582,-190) scale(1,1)"><path fill="none" stroke="#000000" d="M 592 200 L 821.02880859375 200 L 821.02880859375 403 L 592 403 L 592 200 Z Z" stroke-miterlimit="10"/></g><g transform="translate(-582,-190) scale(1,1)"><path fill="none" stroke="#000000" d="M 592 238 L 821.02880859375 238" stroke-miterlimit="10"/></g><g transform="translate(-582,-190) scale(1,1)"><path fill="none" stroke="#000000" d="M 592 261 L 821.02880859375 261" stroke-miterlimit="10"/></g><g transform="translate(-582,-190) scale(1,1)"><g><path fill="none" stroke="none"/><text fill="#000000" stroke="none" font-family="Arial" font-size="13px" font-style="normal" font-weight="normal" text-decoration="none" x="671.107177734375" y="217.5">«Controller»</text></g></g><g transform="translate(-582,-190) scale(1,1)"><g><path fill="none" stroke="none"/><text fill="#000000" stroke="none" font-family="Arial" font-size="13px" font-style="normal" font-weight="bold" text-decoration="none" x="656.291748046875" y="232.5">dpsLandingCtrl.js</text></g></g><g transform="translate(-582,-190) scale(1,1)"><g><path fill="none" stroke="none"/><text fill="#000000" stroke="none" font-family="Arial" font-size="13px" font-style="normal" font-weight="normal" text-decoration="none" x="597" y="255.5">+$scope.message</text></g></g><g transform="translate(-582,-190) scale(1,1)"><g><path fill="none" stroke="none"/><text fill="#000000" stroke="none" font-family="Arial" font-size="13px" font-style="normal" font-weight="normal" text-decoration="none" x="597" y="278.5">+$scope.buildEnedisRequestBody()</text></g></g><g transform="translate(-582,-190) scale(1,1)"><g><path fill="none" stroke="none"/><text fill="#000000" stroke="none" font-family="Arial" font-size="13px" font-style="normal" font-weight="normal" text-decoration="none" x="597" y="293.5">+$scope.saveRootUrl()</text></g></g><g transform="translate(-582,-190) scale(1,1)"><g><path fill="none" stroke="none"/><text fill="#000000" stroke="none" font-family="Arial" font-size="13px" font-style="normal" font-weight="normal" text-decoration="none" x="597" y="308.5">+$scope.readEnedisQueryPassword()</text></g></g><g transform="translate(-582,-190) scale(1,1)"><g><path fill="none" stroke="none"/><text fill="#000000" stroke="none" font-family="Arial" font-size="13px" font-style="normal" font-weight="normal" text-decoration="none" x="597" y="323.5">+$scope.gatherClientRawData()</text></g></g><g transform="translate(-582,-190) scale(1,1)"><g><path fill="none" stroke="none"/><text fill="#000000" stroke="none" font-family="Arial" font-size="13px" font-style="normal" font-weight="normal" text-decoration="none" x="597" y="338.5">+$scope.refreshSessionToken()</text></g></g><g transform="translate(-582,-190) scale(1,1)"><g><path fill="none" stroke="none"/><text fill="#000000" stroke="none" font-family="Arial" font-size="13px" font-style="normal" font-weight="normal" text-decoration="none" x="597" y="353.5">+$scope.createSmartMeteringPoint()</text></g></g><g transform="translate(-582,-190) scale(1,1)"><g><path fill="none" stroke="none"/><text fill="#000000" stroke="none" font-family="Arial" font-size="13px" font-style="normal" font-weight="normal" text-decoration="none" x="597" y="368.5">+$scope.clearBrowserUrl()</text></g></g><g transform="translate(-582,-190) scale(1,1)"><g><path fill="none" stroke="none"/><text fill="#000000" stroke="none" font-family="Arial" font-size="13px" font-style="normal" font-weight="normal" text-decoration="none" x="597" y="383.5">+$scope.detectBrowser()</text></g></g><g transform="translate(-582,-190) scale(1,1)"><g><path fill="none" stroke="none"/><text fill="#000000" stroke="none" font-family="Arial" font-size="13px" font-style="normal" font-weight="normal" text-decoration="none" x="597" y="398.5">+$scope.updatePage()</text></g></g><g transform="translate(-582,-190) scale(1,1)"><rect fill="#C0C0C0" stroke="none" x="983" y="311" width="93.53173828125" height="70" opacity="0.2"/></g><g transform="translate(-582,-190) scale(1,1)"><rect fill="#ffffff" stroke="none" x="976" y="304" width="93.53173828125" height="70"/></g><g transform="translate(-582,-190) scale(1,1)"><path fill="none" stroke="#000000" d="M 976 304 L 1069.53173828125 304 L 1069.53173828125 374 L 976 374 L 976 304 Z Z" stroke-miterlimit="10"/></g><g transform="translate(-582,-190) scale(1,1)"><path fill="none" stroke="#000000" d="M 976 342 L 1069.53173828125 342" stroke-miterlimit="10"/></g><g transform="translate(-582,-190) scale(1,1)"><path fill="none" stroke="#000000" d="M 976 352 L 1069.53173828125 352" stroke-miterlimit="10"/></g><g transform="translate(-582,-190) scale(1,1)"><g><path fill="none" stroke="none"/><text fill="#000000" stroke="none" font-family="Arial" font-size="13px" font-style="normal" font-weight="normal" text-decoration="none" x="993.1318359375" y="321.5">«Deleted»</text></g></g><g transform="translate(-582,-190) scale(1,1)"><g><path fill="none" stroke="none"/><text fill="#000000" stroke="none" font-family="Arial" font-size="13px" font-style="normal" font-weight="bold" text-decoration="none" x="984.483154296875" y="336.5">redirectCtrl.js</text></g></g><g transform="translate(-582,-190) scale(1,1)"><g><path fill="none" stroke="none"/><text fill="#000000" stroke="none" font-family="Arial" font-size="13px" font-style="normal" font-weight="normal" text-decoration="none" x="981" y="369.5">+$scope.init()</text></g></g><g transform="translate(-582,-190) scale(1,1)"><rect fill="#C0C0C0" stroke="none" x="943" y="455" width="184.2587890625" height="85" opacity="0.2"/></g><g transform="translate(-582,-190) scale(1,1)"><rect fill="#ffffff" stroke="none" x="936" y="448" width="184.2587890625" height="85"/></g><g transform="translate(-582,-190) scale(1,1)"><path fill="none" stroke="#000000" d="M 936 448 L 1120.2587890625 448 L 1120.2587890625 533 L 936 533 L 936 448 Z Z" stroke-miterlimit="10"/></g><g transform="translate(-582,-190) scale(1,1)"><path fill="none" stroke="#000000" d="M 936 486 L 1120.2587890625 486" stroke-miterlimit="10"/></g><g transform="translate(-582,-190) scale(1,1)"><path fill="none" stroke="#000000" d="M 936 496 L 1120.2587890625 496" stroke-miterlimit="10"/></g><g transform="translate(-582,-190) scale(1,1)"><g><path fill="none" stroke="none"/><text fill="#000000" stroke="none" font-family="Arial" font-size="13px" font-style="normal" font-weight="normal" text-decoration="none" x="998.495361328125" y="465.5">«Deleted»</text></g></g><g transform="translate(-582,-190) scale(1,1)"><g><path fill="none" stroke="none"/><text fill="#000000" stroke="none" font-family="Arial" font-size="13px" font-style="normal" font-weight="bold" text-decoration="none" x="969.232666015625" y="480.5">enedisLandingCtrl.js</text></g></g><g transform="translate(-582,-190) scale(1,1)"><g><path fill="none" stroke="none"/><text fill="#000000" stroke="none" font-family="Arial" font-size="13px" font-style="normal" font-weight="normal" text-decoration="none" x="941" y="513.5">«POST»+$scope.init()</text></g></g><g transform="translate(-582,-190) scale(1,1)"><g><path fill="none" stroke="none"/><text fill="#000000" stroke="none" font-family="Arial" font-size="13px" font-style="normal" font-weight="normal" text-decoration="none" x="941" y="528.5">«authorizeCode»+$scope.on()</text></g></g><g transform="translate(-582,-190) scale(1,1)"><path fill="none" stroke="#000000" d="M 1023 375 L 1026 447" stroke-miterlimit="10" stroke-dasharray="3"/></g><g transform="translate(-582,-190) scale(1,1)"><path fill="none" stroke="#000000" d="M 1021.3710538981393 437.0213799558221 L 1026 447 L 1029.7827907217493 436.6708909215051" stroke-miterlimit="10"/></g></g></svg>