<svg version="1.1" xmlns="http://www.w3.org/2000/svg" xmlns:xlink="http://www.w3.org/1999/xlink" width="369.208984375" height="146"><defs/><g><g transform="translate(-1582,-622) scale(1,1)"><rect fill="#C0C0C0" stroke="none" x="1599" y="687" width="46.086132812499955" height="15" opacity="0.2"/></g><g transform="translate(-1582,-622) scale(1,1)"><rect fill="#C0C0C0" stroke="none" x="1599" y="701" width="115.21533203125" height="40" opacity="0.2"/></g><g transform="translate(-1582,-622) scale(1,1)"><rect fill="#ffffff" stroke="none" x="1592" y="695" width="115.21533203125" height="39"/></g><g transform="translate(-1582,-622) scale(1,1)"><path fill="none" stroke="#000000" d="M 1592 695 L 1707.21533203125 695 L 1707.21533203125 734 L 1592 734 L 1592 695 Z Z" stroke-miterlimit="10"/></g><g transform="translate(-1582,-622) scale(1,1)"><rect fill="#ffffff" stroke="none" x="1592" y="680" width="46.086132812499955" height="15"/></g><g transform="translate(-1582,-622) scale(1,1)"><path fill="none" stroke="#000000" d="M 1592 680 L 1638.0861328125 680 L 1638.0861328125 695 L 1592 695 L 1592 680 Z Z" stroke-miterlimit="10"/></g><g transform="translate(-1582,-622) scale(1,1)"><rect fill="#ffffff" stroke="none" x="1592" y="694" width="115.21533203125" height="40"/></g><g transform="translate(-1582,-622) scale(1,1)"><path fill="none" stroke="#000000" d="M 1592 694 L 1707.21533203125 694 L 1707.21533203125 734 L 1592 734 L 1592 694 Z Z" stroke-miterlimit="10"/></g><g transform="translate(-1582,-622) scale(1,1)"><path fill="none" stroke="#000000" d="M 1630.0861328125 683 L 1630.0861328125 687" stroke-miterlimit="10"/></g><g transform="translate(-1582,-622) scale(1,1)"><path fill="none" stroke="#000000" d="M 1627.0861328125 691 L 1627.0861328125 687 L 1633.0861328125 687" stroke-miterlimit="10"/></g><g transform="translate(-1582,-622) scale(1,1)"><path fill="none" stroke="#000000" d="M 1633.0861328125 691 L 1633.0861328125 687 L 1627.0861328125 687" stroke-miterlimit="10"/></g><g transform="translate(-1582,-622) scale(1,1)"><g><path fill="none" stroke="none"/><text fill="#000000" stroke="none" font-family="Arial" font-size="13px" font-style="normal" font-weight="bold" text-decoration="none" x="1598.32177734375" y="714.5">S2G-MT-Services</text></g></g><g transform="translate(-1582,-622) scale(1,1)"><g><path fill="none" stroke="none"/><text fill="#000000" stroke="none" font-family="Arial" font-size="13px" font-style="normal" font-weight="normal" text-decoration="none" x="1605.916748046875" y="729.5">(from S2G-MT)</text></g></g><g transform="translate(-1582,-622) scale(1,1)"><rect fill="#C0C0C0" stroke="none" x="1807" y="639" width="56.483593749999955" height="15" opacity="0.2"/></g><g transform="translate(-1582,-622) scale(1,1)"><rect fill="#C0C0C0" stroke="none" x="1807" y="653" width="141.208984375" height="40" opacity="0.2"/></g><g transform="translate(-1582,-622) scale(1,1)"><rect fill="#ffffff" stroke="none" x="1800" y="647" width="141.208984375" height="39"/></g><g transform="translate(-1582,-622) scale(1,1)"><path fill="none" stroke="#000000" d="M 1800 647 L 1941.208984375 647 L 1941.208984375 686 L 1800 686 L 1800 647 Z Z" stroke-miterlimit="10"/></g><g transform="translate(-1582,-622) scale(1,1)"><rect fill="#ffffff" stroke="none" x="1800" y="632" width="56.483593749999955" height="15"/></g><g transform="translate(-1582,-622) scale(1,1)"><path fill="none" stroke="#000000" d="M 1800 632 L 1856.48359375 632 L 1856.48359375 647 L 1800 647 L 1800 632 Z Z" stroke-miterlimit="10"/></g><g transform="translate(-1582,-622) scale(1,1)"><rect fill="#ffffff" stroke="none" x="1800" y="646" width="141.208984375" height="40"/></g><g transform="translate(-1582,-622) scale(1,1)"><path fill="none" stroke="#000000" d="M 1800 646 L 1941.208984375 646 L 1941.208984375 686 L 1800 686 L 1800 646 Z Z" stroke-miterlimit="10"/></g><g transform="translate(-1582,-622) scale(1,1)"><path fill="none" stroke="#000000" d="M 1848.48359375 635 L 1848.48359375 639" stroke-miterlimit="10"/></g><g transform="translate(-1582,-622) scale(1,1)"><path fill="none" stroke="#000000" d="M 1845.48359375 643 L 1845.48359375 639 L 1851.48359375 639" stroke-miterlimit="10"/></g><g transform="translate(-1582,-622) scale(1,1)"><path fill="none" stroke="#000000" d="M 1851.48359375 643 L 1851.48359375 639 L 1845.48359375 639" stroke-miterlimit="10"/></g><g transform="translate(-1582,-622) scale(1,1)"><g><path fill="none" stroke="none"/><text fill="#000000" stroke="none" font-family="Arial" font-size="13px" font-style="normal" font-weight="bold" text-decoration="none" x="1806.674072265625" y="666.5">S2G-MT-Usager-Back</text></g></g><g transform="translate(-1582,-622) scale(1,1)"><g><path fill="none" stroke="none"/><text fill="#000000" stroke="none" font-family="Arial" font-size="13px" font-style="normal" font-weight="normal" text-decoration="none" x="1826.91357421875" y="681.5">(from S2G-MT)</text></g></g><g transform="translate(-1582,-622) scale(1,1)"><path fill="none" stroke="#000000" d="M 1799 674 L 1708 694" stroke-miterlimit="10" stroke-dasharray="3"/></g><g transform="translate(-1582,-622) scale(1,1)"><path fill="none" stroke="#000000" d="M 1717.0221751379358 687.7071186424331 L 1708 694 L 1718.829380302225 695.9299021399491" stroke-miterlimit="10"/></g><g transform="translate(-1582,-622) scale(1,1)"><rect fill="#C0C0C0" stroke="none" x="1807" y="711" width="47.520703124999955" height="15" opacity="0.2"/></g><g transform="translate(-1582,-622) scale(1,1)"><rect fill="#C0C0C0" stroke="none" x="1807" y="725" width="118.8017578125" height="40" opacity="0.2"/></g><g transform="translate(-1582,-622) scale(1,1)"><rect fill="#ffffff" stroke="none" x="1800" y="719" width="118.8017578125" height="39"/></g><g transform="translate(-1582,-622) scale(1,1)"><path fill="none" stroke="#000000" d="M 1800 719 L 1918.8017578125 719 L 1918.8017578125 758 L 1800 758 L 1800 719 Z Z" stroke-miterlimit="10"/></g><g transform="translate(-1582,-622) scale(1,1)"><rect fill="#ffffff" stroke="none" x="1800" y="704" width="47.520703124999955" height="15"/></g><g transform="translate(-1582,-622) scale(1,1)"><path fill="none" stroke="#000000" d="M 1800 704 L 1847.520703125 704 L 1847.520703125 719 L 1800 719 L 1800 704 Z Z" stroke-miterlimit="10"/></g><g transform="translate(-1582,-622) scale(1,1)"><rect fill="#ffffff" stroke="none" x="1800" y="718" width="118.8017578125" height="40"/></g><g transform="translate(-1582,-622) scale(1,1)"><path fill="none" stroke="#000000" d="M 1800 718 L 1918.8017578125 718 L 1918.8017578125 758 L 1800 758 L 1800 718 Z Z" stroke-miterlimit="10"/></g><g transform="translate(-1582,-622) scale(1,1)"><path fill="none" stroke="#000000" d="M 1839.520703125 707 L 1839.520703125 711" stroke-miterlimit="10"/></g><g transform="translate(-1582,-622) scale(1,1)"><path fill="none" stroke="#000000" d="M 1836.520703125 715 L 1836.520703125 711 L 1842.520703125 711" stroke-miterlimit="10"/></g><g transform="translate(-1582,-622) scale(1,1)"><path fill="none" stroke="#000000" d="M 1842.520703125 715 L 1842.520703125 711 L 1836.520703125 711" stroke-miterlimit="10"/></g><g transform="translate(-1582,-622) scale(1,1)"><g><path fill="none" stroke="none"/><text fill="#000000" stroke="none" font-family="Arial" font-size="13px" font-style="normal" font-weight="bold" text-decoration="none" x="1806.30908203125" y="738.5">S2G-MT-Pro-Back</text></g></g><g transform="translate(-1582,-622) scale(1,1)"><g><path fill="none" stroke="none"/><text fill="#000000" stroke="none" font-family="Arial" font-size="13px" font-style="normal" font-weight="normal" text-decoration="none" x="1815.7099609375" y="753.5">(from S2G-MT)</text></g></g><g transform="translate(-1582,-622) scale(1,1)"><path fill="none" stroke="#000000" d="M 1799 724 L 1708 714" stroke-miterlimit="10" stroke-dasharray="3"/></g><g transform="translate(-1582,-622) scale(1,1)"><path fill="none" stroke="#000000" d="M 1718.5616800340836 710.9257659722072 L 1708 714 L 1717.6420473008297 719.2944238448164" stroke-miterlimit="10"/></g></g></svg>