<svg version="1.1" xmlns="http://www.w3.org/2000/svg" xmlns:xlink="http://www.w3.org/1999/xlink" width="485.025390625" height="282"><defs/><g><g transform="translate(-870,-494) scale(1,1)"><rect fill="#C0C0C0" stroke="none" x="887" y="543" width="57.336718750000045" height="15" opacity="0.2"/></g><g transform="translate(-870,-494) scale(1,1)"><rect fill="#C0C0C0" stroke="none" x="887" y="557" width="143.341796875" height="40" opacity="0.2"/></g><g transform="translate(-870,-494) scale(1,1)"><rect fill="#ffffff" stroke="none" x="880" y="551" width="143.341796875" height="39"/></g><g transform="translate(-870,-494) scale(1,1)"><path fill="none" stroke="#000000" d="M 880 551 L 1023.341796875 551 L 1023.341796875 590 L 880 590 L 880 551 Z Z" stroke-miterlimit="10"/></g><g transform="translate(-870,-494) scale(1,1)"><rect fill="#ffffff" stroke="none" x="880" y="536" width="57.336718750000045" height="15"/></g><g transform="translate(-870,-494) scale(1,1)"><path fill="none" stroke="#000000" d="M 880 536 L 937.33671875 536 L 937.33671875 551 L 880 551 L 880 536 Z Z" stroke-miterlimit="10"/></g><g transform="translate(-870,-494) scale(1,1)"><rect fill="#ffffff" stroke="none" x="880" y="550" width="143.341796875" height="40"/></g><g transform="translate(-870,-494) scale(1,1)"><path fill="none" stroke="#000000" d="M 880 550 L 1023.341796875 550 L 1023.341796875 590 L 880 590 L 880 550 Z Z" stroke-miterlimit="10"/></g><g transform="translate(-870,-494) scale(1,1)"><path fill="none" stroke="#000000" d="M 929.33671875 539 L 929.33671875 543" stroke-miterlimit="10"/></g><g transform="translate(-870,-494) scale(1,1)"><path fill="none" stroke="#000000" d="M 926.33671875 547 L 926.33671875 543 L 932.33671875 543" stroke-miterlimit="10"/></g><g transform="translate(-870,-494) scale(1,1)"><path fill="none" stroke="#000000" d="M 932.33671875 547 L 932.33671875 543 L 926.33671875 543" stroke-miterlimit="10"/></g><g transform="translate(-870,-494) scale(1,1)"><g><path fill="none" stroke="none"/><text fill="#000000" stroke="none" font-family="Arial" font-size="13px" font-style="normal" font-weight="bold" text-decoration="none" x="887.02001953125" y="570.5">S2G-MT-Usager-Front</text></g></g><g transform="translate(-870,-494) scale(1,1)"><g><path fill="none" stroke="none"/><text fill="#000000" stroke="none" font-family="Arial" font-size="13px" font-style="normal" font-weight="normal" text-decoration="none" x="907.97998046875" y="585.5">(from S2G-MT)</text></g></g><g transform="translate(-870,-494) scale(1,1)"><rect fill="#C0C0C0" stroke="none" x="889" y="684" width="56.483593749999955" height="15" opacity="0.2"/></g><g transform="translate(-870,-494) scale(1,1)"><rect fill="#C0C0C0" stroke="none" x="889" y="698" width="141.208984375" height="40" opacity="0.2"/></g><g transform="translate(-870,-494) scale(1,1)"><rect fill="#ffffff" stroke="none" x="882" y="692" width="141.208984375" height="39"/></g><g transform="translate(-870,-494) scale(1,1)"><path fill="none" stroke="#000000" d="M 882 692 L 1023.208984375 692 L 1023.208984375 731 L 882 731 L 882 692 Z Z" stroke-miterlimit="10"/></g><g transform="translate(-870,-494) scale(1,1)"><rect fill="#ffffff" stroke="none" x="882" y="677" width="56.483593749999955" height="15"/></g><g transform="translate(-870,-494) scale(1,1)"><path fill="none" stroke="#000000" d="M 882 677 L 938.48359375 677 L 938.48359375 692 L 882 692 L 882 677 Z Z" stroke-miterlimit="10"/></g><g transform="translate(-870,-494) scale(1,1)"><rect fill="#ffffff" stroke="none" x="882" y="691" width="141.208984375" height="40"/></g><g transform="translate(-870,-494) scale(1,1)"><path fill="none" stroke="#000000" d="M 882 691 L 1023.208984375 691 L 1023.208984375 731 L 882 731 L 882 691 Z Z" stroke-miterlimit="10"/></g><g transform="translate(-870,-494) scale(1,1)"><path fill="none" stroke="#000000" d="M 930.48359375 680 L 930.48359375 684" stroke-miterlimit="10"/></g><g transform="translate(-870,-494) scale(1,1)"><path fill="none" stroke="#000000" d="M 927.48359375 688 L 927.48359375 684 L 933.48359375 684" stroke-miterlimit="10"/></g><g transform="translate(-870,-494) scale(1,1)"><path fill="none" stroke="#000000" d="M 933.48359375 688 L 933.48359375 684 L 927.48359375 684" stroke-miterlimit="10"/></g><g transform="translate(-870,-494) scale(1,1)"><g><path fill="none" stroke="none"/><text fill="#000000" stroke="none" font-family="Arial" font-size="13px" font-style="normal" font-weight="bold" text-decoration="none" x="888.674072265625" y="711.5">S2G-MT-Usager-Back</text></g></g><g transform="translate(-870,-494) scale(1,1)"><g><path fill="none" stroke="none"/><text fill="#000000" stroke="none" font-family="Arial" font-size="13px" font-style="normal" font-weight="normal" text-decoration="none" x="908.91357421875" y="726.5">(from S2G-MT)</text></g></g><g transform="translate(-870,-494) scale(1,1)"><path fill="none" stroke="#000000" d="M 951 591 L 952 676" stroke-miterlimit="10" stroke-dasharray="3"/></g><g transform="translate(-870,-494) scale(1,1)"><path fill="none" stroke="#000000" d="M 947.6712209224274 665.887548680089 L 952 676 L 956.0896738627179 665.788508057262" stroke-miterlimit="10"/></g><g transform="translate(-870,-494) scale(1,1)"><rect fill="#C0C0C0" stroke="none" x="1087" y="623" width="46.086132812499955" height="15" opacity="0.2"/></g><g transform="translate(-870,-494) scale(1,1)"><rect fill="#C0C0C0" stroke="none" x="1087" y="637" width="115.21533203125" height="40" opacity="0.2"/></g><g transform="translate(-870,-494) scale(1,1)"><rect fill="#ffffff" stroke="none" x="1080" y="631" width="115.21533203125" height="39"/></g><g transform="translate(-870,-494) scale(1,1)"><path fill="none" stroke="#000000" d="M 1080 631 L 1195.21533203125 631 L 1195.21533203125 670 L 1080 670 L 1080 631 Z Z" stroke-miterlimit="10"/></g><g transform="translate(-870,-494) scale(1,1)"><rect fill="#ffffff" stroke="none" x="1080" y="616" width="46.086132812499955" height="15"/></g><g transform="translate(-870,-494) scale(1,1)"><path fill="none" stroke="#000000" d="M 1080 616 L 1126.0861328125 616 L 1126.0861328125 631 L 1080 631 L 1080 616 Z Z" stroke-miterlimit="10"/></g><g transform="translate(-870,-494) scale(1,1)"><rect fill="#ffffff" stroke="none" x="1080" y="630" width="115.21533203125" height="40"/></g><g transform="translate(-870,-494) scale(1,1)"><path fill="none" stroke="#000000" d="M 1080 630 L 1195.21533203125 630 L 1195.21533203125 670 L 1080 670 L 1080 630 Z Z" stroke-miterlimit="10"/></g><g transform="translate(-870,-494) scale(1,1)"><path fill="none" stroke="#000000" d="M 1118.0861328125 619 L 1118.0861328125 623" stroke-miterlimit="10"/></g><g transform="translate(-870,-494) scale(1,1)"><path fill="none" stroke="#000000" d="M 1115.0861328125 627 L 1115.0861328125 623 L 1121.0861328125 623" stroke-miterlimit="10"/></g><g transform="translate(-870,-494) scale(1,1)"><path fill="none" stroke="#000000" d="M 1121.0861328125 627 L 1121.0861328125 623 L 1115.0861328125 623" stroke-miterlimit="10"/></g><g transform="translate(-870,-494) scale(1,1)"><g><path fill="none" stroke="none"/><text fill="#000000" stroke="none" font-family="Arial" font-size="13px" font-style="normal" font-weight="bold" text-decoration="none" x="1086.32177734375" y="650.5">S2G-MT-Services</text></g></g><g transform="translate(-870,-494) scale(1,1)"><g><path fill="none" stroke="none"/><text fill="#000000" stroke="none" font-family="Arial" font-size="13px" font-style="normal" font-weight="normal" text-decoration="none" x="1093.916748046875" y="665.5">(from S2G-MT)</text></g></g><g transform="translate(-870,-494) scale(1,1)"><path fill="none" stroke="#000000" d="M 1024 680 L 1079 662" stroke-miterlimit="10" stroke-dasharray="3"/></g><g transform="translate(-870,-494) scale(1,1)"><path fill="none" stroke="#000000" d="M 1070.6507474395294 669.161702428995 L 1079 662 L 1068.0320985442695 661.1602752490345" stroke-miterlimit="10"/></g><g transform="translate(-870,-494) scale(1,1)"><rect fill="#C0C0C0" stroke="none" x="1239" y="719" width="45.210156249999955" height="15" opacity="0.2"/></g><g transform="translate(-870,-494) scale(1,1)"><rect fill="#C0C0C0" stroke="none" x="1239" y="733" width="113.025390625" height="40" opacity="0.2"/></g><g transform="translate(-870,-494) scale(1,1)"><rect fill="#ffffff" stroke="none" x="1232" y="727" width="113.025390625" height="39"/></g><g transform="translate(-870,-494) scale(1,1)"><path fill="none" stroke="#000000" d="M 1232 727 L 1345.025390625 727 L 1345.025390625 766 L 1232 766 L 1232 727 Z Z" stroke-miterlimit="10"/></g><g transform="translate(-870,-494) scale(1,1)"><rect fill="#ffffff" stroke="none" x="1232" y="712" width="45.210156249999955" height="15"/></g><g transform="translate(-870,-494) scale(1,1)"><path fill="none" stroke="#000000" d="M 1232 712 L 1277.21015625 712 L 1277.21015625 727 L 1232 727 L 1232 712 Z Z" stroke-miterlimit="10"/></g><g transform="translate(-870,-494) scale(1,1)"><rect fill="#ffffff" stroke="none" x="1232" y="726" width="113.025390625" height="40"/></g><g transform="translate(-870,-494) scale(1,1)"><path fill="none" stroke="#000000" d="M 1232 726 L 1345.025390625 726 L 1345.025390625 766 L 1232 766 L 1232 726 Z Z" stroke-miterlimit="10"/></g><g transform="translate(-870,-494) scale(1,1)"><path fill="none" stroke="#000000" d="M 1269.21015625 715 L 1269.21015625 719" stroke-miterlimit="10"/></g><g transform="translate(-870,-494) scale(1,1)"><path fill="none" stroke="#000000" d="M 1266.21015625 723 L 1266.21015625 719 L 1272.21015625 719" stroke-miterlimit="10"/></g><g transform="translate(-870,-494) scale(1,1)"><path fill="none" stroke="#000000" d="M 1272.21015625 723 L 1272.21015625 719 L 1266.21015625 719" stroke-miterlimit="10"/></g><g transform="translate(-870,-494) scale(1,1)"><g><path fill="none" stroke="none"/><text fill="#000000" stroke="none" font-family="Arial" font-size="13px" font-style="normal" font-weight="bold" text-decoration="none" x="1238.6708984375" y="746.5">S2G-MT-Security</text></g></g><g transform="translate(-870,-494) scale(1,1)"><g><path fill="none" stroke="none"/><text fill="#000000" stroke="none" font-family="Arial" font-size="13px" font-style="normal" font-weight="normal" text-decoration="none" x="1244.82177734375" y="761.5">(from S2G-MT)</text></g></g><g transform="translate(-870,-494) scale(1,1)"><path fill="none" stroke="#000000" d="M 1181 671 L 1244 711" stroke-miterlimit="10" stroke-dasharray="3"/></g><g transform="translate(-870,-494) scale(1,1)"><path fill="none" stroke="#000000" d="M 1233.1642038793354 709.1064524216717 L 1244 711 L 1237.6768754166585 701.998994750388" stroke-miterlimit="10"/></g><g transform="translate(-870,-494) scale(1,1)"><path fill="none" stroke="#000000" d="M 1024 712 L 1231 733" stroke-miterlimit="10" stroke-dasharray="3"/></g><g transform="translate(-870,-494) scale(1,1)"><path fill="none" stroke="#000000" d="M 1220.4643500520044 736.1622903366549 L 1231 733 L 1221.3140935364352 727.7862474186941" stroke-miterlimit="10"/></g><g transform="translate(-870,-494) scale(1,1)"><rect fill="#C0C0C0" stroke="none" x="1127" y="511" width="38.557812499999955" height="15" opacity="0.2"/></g><g transform="translate(-870,-494) scale(1,1)"><rect fill="#C0C0C0" stroke="none" x="1127" y="525" width="96.39453125" height="40" opacity="0.2"/></g><g transform="translate(-870,-494) scale(1,1)"><rect fill="#ffffff" stroke="none" x="1120" y="519" width="96.39453125" height="39"/></g><g transform="translate(-870,-494) scale(1,1)"><path fill="none" stroke="#000000" d="M 1120 519 L 1216.39453125 519 L 1216.39453125 558 L 1120 558 L 1120 519 Z Z" stroke-miterlimit="10"/></g><g transform="translate(-870,-494) scale(1,1)"><rect fill="#ffffff" stroke="none" x="1120" y="504" width="38.557812499999955" height="15"/></g><g transform="translate(-870,-494) scale(1,1)"><path fill="none" stroke="#000000" d="M 1120 504 L 1158.5578125 504 L 1158.5578125 519 L 1120 519 L 1120 504 Z Z" stroke-miterlimit="10"/></g><g transform="translate(-870,-494) scale(1,1)"><rect fill="#ffffff" stroke="none" x="1120" y="518" width="96.39453125" height="40"/></g><g transform="translate(-870,-494) scale(1,1)"><path fill="none" stroke="#000000" d="M 1120 518 L 1216.39453125 518 L 1216.39453125 558 L 1120 558 L 1120 518 Z Z" stroke-miterlimit="10"/></g><g transform="translate(-870,-494) scale(1,1)"><path fill="none" stroke="#000000" d="M 1150.5578125 507 L 1150.5578125 511" stroke-miterlimit="10"/></g><g transform="translate(-870,-494) scale(1,1)"><path fill="none" stroke="#000000" d="M 1147.5578125 515 L 1147.5578125 511 L 1153.5578125 511" stroke-miterlimit="10"/></g><g transform="translate(-870,-494) scale(1,1)"><path fill="none" stroke="#000000" d="M 1153.5578125 515 L 1153.5578125 511 L 1147.5578125 511" stroke-miterlimit="10"/></g><g transform="translate(-870,-494) scale(1,1)"><g><path fill="none" stroke="none"/><text fill="#000000" stroke="none" font-family="Arial" font-size="13px" font-style="normal" font-weight="bold" text-decoration="none" x="1126.65185546875" y="538.5">MT-datamodel</text></g></g><g transform="translate(-870,-494) scale(1,1)"><g><path fill="none" stroke="none"/><text fill="#000000" stroke="none" font-family="Arial" font-size="13px" font-style="normal" font-weight="normal" text-decoration="none" x="1124.50634765625" y="553.5">(from S2G-MT)</text></g></g><g transform="translate(-870,-494) scale(1,1)"><path fill="none" stroke="#000000" d="M 1145 615 L 1160 559" stroke-miterlimit="10" stroke-dasharray="3"/></g><g transform="translate(-870,-494) scale(1,1)"><path fill="none" stroke="#000000" d="M 1161.436724766125 569.9057701216559 L 1160 559 L 1153.3043738177412 567.7274618319102" stroke-miterlimit="10"/></g><g transform="translate(-870,-494) scale(1,1)"><path fill="none" stroke="#000000" d="M 1272 711 L 1184 559" stroke-miterlimit="10" stroke-dasharray="3"/></g><g transform="translate(-870,-494) scale(1,1)"><path fill="none" stroke="#000000" d="M 1192.7348960246477 565.6859248753327 L 1184 559 L 1185.4488413941363 569.9041670298394" stroke-miterlimit="10"/></g><g transform="translate(-870,-494) scale(1,1)"><path fill="none" stroke="#000000" d="M 987 676 L 1133 559" stroke-miterlimit="10" stroke-dasharray="3"/></g><g transform="translate(-870,-494) scale(1,1)"><path fill="none" stroke="#000000" d="M 1127.7019940403495 568.6400795044184 L 1133 559 L 1122.4371784704126 562.070309647916" stroke-miterlimit="10"/></g></g></svg>