<svg version="1.1" xmlns="http://www.w3.org/2000/svg" xmlns:xlink="http://www.w3.org/1999/xlink" width="197.3671875" height="441"><defs/><g><g transform="translate(-262,-222) scale(1,1)"><rect fill="#C0C0C0" stroke="none" x="311" y="239" width="134.6962890625" height="37" opacity="0.2"/></g><g transform="translate(-262,-222) scale(1,1)"><rect fill="#ffffff" stroke="none" x="304" y="232" width="134.6962890625" height="37"/></g><g transform="translate(-262,-222) scale(1,1)"><path fill="none" stroke="#000000" d="M 304 232 L 438.6962890625 232 L 438.6962890625 269 L 304 269 L 304 232 Z Z" stroke-miterlimit="10"/></g><g transform="translate(-262,-222) scale(1,1)"><g><path fill="none" stroke="none"/><text fill="#000000" stroke="none" font-family="Arial" font-size="13px" font-style="normal" font-weight="normal" text-decoration="none" x="341.35546875" y="249.5">«Handler»</text></g></g><g transform="translate(-262,-222) scale(1,1)"><g><path fill="none" stroke="none"/><text fill="#000000" stroke="none" font-family="Arial" font-size="13px" font-style="italic" font-weight="bold" text-decoration="none" x="313.1845703125" y="264.5">AbstractDpsHandler</text></g></g><g transform="translate(-262,-222) scale(1,1)"><rect fill="#C0C0C0" stroke="none" x="311" y="335" width="137.578125" height="37" opacity="0.2"/></g><g transform="translate(-262,-222) scale(1,1)"><rect fill="#ffffff" stroke="none" x="304" y="328" width="137.578125" height="37"/></g><g transform="translate(-262,-222) scale(1,1)"><path fill="none" stroke="#000000" d="M 304 328 L 441.578125 328 L 441.578125 365 L 304 365 L 304 328 Z Z" stroke-miterlimit="10"/></g><g transform="translate(-262,-222) scale(1,1)"><g><path fill="none" stroke="none"/><text fill="#000000" stroke="none" font-family="Arial" font-size="13px" font-style="normal" font-weight="normal" text-decoration="none" x="342.79638671875" y="345.5">«Handler»</text></g></g><g transform="translate(-262,-222) scale(1,1)"><g><path fill="none" stroke="none"/><text fill="#000000" stroke="none" font-family="Arial" font-size="13px" font-style="italic" font-weight="bold" text-decoration="none" x="313.543212890625" y="360.5">AbstractGrdfHandler</text></g></g><g transform="translate(-262,-222) scale(1,1)"><path fill="none" stroke="#000000" d="M 371 328 L 371 269" stroke-miterlimit="10"/></g><g transform="translate(-262,-222) scale(1,1)"><path fill="#FFFFFF" stroke="none" d="M 379.419035512032 289.3253497152483 L 371 269 L 362.580964487968 289.3253497152483"/></g><g transform="translate(-262,-222) scale(1,1)"><path fill="none" stroke="#000000" d="M 379.419035512032 289.3253497152483 L 371 269 L 362.580964487968 289.3253497152483 L 379.419035512032 289.3253497152483" stroke-miterlimit="10"/></g><g transform="translate(-262,-222) scale(1,1)"><rect fill="#C0C0C0" stroke="none" x="319" y="463" width="112.29541015625" height="37" opacity="0.2"/></g><g transform="translate(-262,-222) scale(1,1)"><rect fill="#ffffff" stroke="none" x="312" y="456" width="112.29541015625" height="37"/></g><g transform="translate(-262,-222) scale(1,1)"><path fill="none" stroke="#000000" d="M 312 456 L 424.29541015625 456 L 424.29541015625 493 L 312 493 L 312 456 Z Z" stroke-miterlimit="10"/></g><g transform="translate(-262,-222) scale(1,1)"><g><path fill="none" stroke="none"/><text fill="#000000" stroke="none" font-family="Arial" font-size="13px" font-style="normal" font-weight="normal" text-decoration="none" x="338.155029296875" y="473.5">«Handler»</text></g></g><g transform="translate(-262,-222) scale(1,1)"><g><path fill="none" stroke="none"/><text fill="#000000" stroke="none" font-family="Arial" font-size="13px" font-style="normal" font-weight="bold" text-decoration="none" x="319.619873046875" y="488.5">GrdfTrueHandler</text></g></g><g transform="translate(-262,-222) scale(1,1)"><path fill="none" stroke="#000000" d="M 371 456 L 371 365" stroke-miterlimit="10"/></g><g transform="translate(-262,-222) scale(1,1)"><path fill="#FFFFFF" stroke="none" d="M 379.419035512032 385.3253497152483 L 371 365 L 362.580964487968 385.3253497152483"/></g><g transform="translate(-262,-222) scale(1,1)"><path fill="none" stroke="#000000" d="M 379.419035512032 385.3253497152483 L 371 365 L 362.580964487968 385.3253497152483 L 379.419035512032 385.3253497152483" stroke-miterlimit="10"/></g><g transform="translate(-262,-222) scale(1,1)"><rect fill="#C0C0C0" stroke="none" x="319" y="551" width="105.052734375" height="37" opacity="0.2"/></g><g transform="translate(-262,-222) scale(1,1)"><rect fill="#ffffff" stroke="none" x="312" y="544" width="105.052734375" height="37"/></g><g transform="translate(-262,-222) scale(1,1)"><path fill="none" stroke="#000000" d="M 312 544 L 417.052734375 544 L 417.052734375 581 L 312 581 L 312 544 Z Z" stroke-miterlimit="10"/></g><g transform="translate(-262,-222) scale(1,1)"><g><path fill="none" stroke="none"/><text fill="#000000" stroke="none" font-family="Arial" font-size="13px" font-style="normal" font-weight="normal" text-decoration="none" x="321.90185546875" y="561.5">«HTTP Client»</text></g></g><g transform="translate(-262,-222) scale(1,1)"><g><path fill="none" stroke="none"/><text fill="#000000" stroke="none" font-family="Arial" font-size="13px" font-style="italic" font-weight="bold" text-decoration="none" x="320.81640625" y="576.5">GrdfAdictClient</text></g></g><g transform="translate(-262,-222) scale(1,1)"><path fill="none" stroke="#000000" d="M 367 493 L 367 544" stroke-miterlimit="10" stroke-dasharray="3"/></g><g transform="translate(-262,-222) scale(1,1)"><path fill="none" stroke="#000000" d="M 362.790482243984 533.8373251423759 L 367 544 L 371.209517756016 533.8373251423759" stroke-miterlimit="10"/></g><g transform="translate(-262,-222) scale(1,1)"><rect fill="#C0C0C0" stroke="none" x="287" y="623" width="169.3671875" height="37" opacity="0.2"/></g><g transform="translate(-262,-222) scale(1,1)"><rect fill="#ffffff" stroke="none" x="280" y="616" width="169.3671875" height="37"/></g><g transform="translate(-262,-222) scale(1,1)"><path fill="none" stroke="#000000" d="M 280 616 L 449.3671875 616 L 449.3671875 653 L 280 653 L 280 616 Z Z" stroke-miterlimit="10"/></g><g transform="translate(-262,-222) scale(1,1)"><g><path fill="none" stroke="none"/><text fill="#000000" stroke="none" font-family="Arial" font-size="13px" font-style="normal" font-weight="normal" text-decoration="none" x="335.779541015625" y="633.5">«Service»</text></g></g><g transform="translate(-262,-222) scale(1,1)"><g><path fill="none" stroke="none"/><text fill="#000000" stroke="none" font-family="Arial" font-size="13px" font-style="normal" font-weight="bold" text-decoration="none" x="290.263671875" y="648.5">MeteringPointGrdfService</text></g></g><g transform="translate(-262,-222) scale(1,1)"><path fill="none" stroke="#000000" d="M 280 634 L 280 634 M 280 634 A 8 8 0 0 1 272 626 L 272 416 M 272 416 A 8 8 0 0 1 280 408 L 332 408 M 332 408 A 8 8 0 0 0 340 400 L 340 365" stroke-miterlimit="10" stroke-dasharray="3"/></g><g transform="translate(-262,-222) scale(1,1)"><path fill="none" stroke="#000000" d="M 344.209517756016 375.16267485762415 L 340 365 L 335.790482243984 375.16267485762415" stroke-miterlimit="10"/></g></g></svg>