<svg version="1.1" xmlns="http://www.w3.org/2000/svg" xmlns:xlink="http://www.w3.org/1999/xlink" width="178.20166015625" height="105"><defs/><g><g transform="translate(-686,-238) scale(1,1)"><rect fill="#C0C0C0" stroke="none" x="703" y="255" width="158.20166015625" height="85" opacity="0.2"/></g><g transform="translate(-686,-238) scale(1,1)"><rect fill="#ffffff" stroke="none" x="696" y="248" width="158.20166015625" height="85"/></g><g transform="translate(-686,-238) scale(1,1)"><path fill="none" stroke="#000000" d="M 696 248 L 854.20166015625 248 L 854.20166015625 333 L 696 333 L 696 248 Z Z" stroke-miterlimit="10"/></g><g transform="translate(-686,-238) scale(1,1)"><path fill="none" stroke="#000000" d="M 696 286 L 854.20166015625 286" stroke-miterlimit="10"/></g><g transform="translate(-686,-238) scale(1,1)"><path fill="none" stroke="#000000" d="M 696 296 L 854.20166015625 296" stroke-miterlimit="10"/></g><g transform="translate(-686,-238) scale(1,1)"><g><path fill="none" stroke="none"/><text fill="#000000" stroke="none" font-family="Arial" font-size="13px" font-style="normal" font-weight="normal" text-decoration="none" x="739.693603515625" y="265.5">«Controller»</text></g></g><g transform="translate(-686,-238) scale(1,1)"><g><path fill="none" stroke="none"/><text fill="#000000" stroke="none" font-family="Arial" font-size="13px" font-style="normal" font-weight="bold" text-decoration="none" x="729.588134765625" y="280.5">mpPopUpCtrl.js</text></g></g><g transform="translate(-686,-238) scale(1,1)"><g><path fill="none" stroke="none"/><text fill="#000000" stroke="none" font-family="Arial" font-size="13px" font-style="normal" font-weight="normal" text-decoration="none" x="701" y="313.5">+clientConnectGrdfAdict()</text></g></g><g transform="translate(-686,-238) scale(1,1)"><g><path fill="none" stroke="none"/><text fill="#000000" stroke="none" font-family="Arial" font-size="13px" font-style="normal" font-weight="normal" text-decoration="none" x="701" y="328.5">+authorizeDataConnect()</text></g></g></g></svg>