<svg version="1.1" xmlns="http://www.w3.org/2000/svg" xmlns:xlink="http://www.w3.org/1999/xlink" width="810.2314453125" height="87"><defs/><g><g transform="translate(-118,-454) scale(1,1)"><rect fill="#C0C0C0" stroke="none" x="279" y="471" width="127.49169921875" height="67" opacity="0.2"/></g><g transform="translate(-118,-454) scale(1,1)"><rect fill="#ffffff" stroke="none" x="272" y="464" width="127.49169921875" height="67"/></g><g transform="translate(-118,-454) scale(1,1)"><path fill="none" stroke="#000000" d="M 272 464 L 399.49169921875 464 L 399.49169921875 531 L 272 531 L 272 464 Z Z" stroke-miterlimit="10"/></g><g transform="translate(-118,-454) scale(1,1)"><path fill="none" stroke="#000000" d="M 272 502 L 399.49169921875 502" stroke-miterlimit="10"/></g><g transform="translate(-118,-454) scale(1,1)"><path fill="none" stroke="#000000" d="M 272 512 L 399.49169921875 512" stroke-miterlimit="10"/></g><g transform="translate(-118,-454) scale(1,1)"><path fill="none" stroke="#000000" d="M 272 522 L 399.49169921875 522" stroke-miterlimit="10"/></g><g transform="translate(-118,-454) scale(1,1)"><g><path fill="none" stroke="none"/><text fill="#000000" stroke="none" font-family="Arial" font-size="13px" font-style="normal" font-weight="normal" text-decoration="none" x="297.447265625" y="481.5">«Repository»</text></g></g><g transform="translate(-118,-454) scale(1,1)"><g><path fill="none" stroke="none"/><text fill="#000000" stroke="none" font-family="Arial" font-size="13px" font-style="normal" font-weight="bold" text-decoration="none" x="280.838623046875" y="496.5">PremiseRepository</text></g></g><g transform="translate(-118,-454) scale(1,1)"><rect fill="#C0C0C0" stroke="none" x="415" y="471" width="175.638671875" height="57" opacity="0.2"/></g><g transform="translate(-118,-454) scale(1,1)"><rect fill="#ffffff" stroke="none" x="408" y="464" width="175.638671875" height="57"/></g><g transform="translate(-118,-454) scale(1,1)"><path fill="none" stroke="#000000" d="M 408 464 L 583.638671875 464 L 583.638671875 521 L 408 521 L 408 464 Z Z" stroke-miterlimit="10"/></g><g transform="translate(-118,-454) scale(1,1)"><path fill="none" stroke="#000000" d="M 408 502 L 583.638671875 502" stroke-miterlimit="10"/></g><g transform="translate(-118,-454) scale(1,1)"><path fill="none" stroke="#000000" d="M 408 512 L 583.638671875 512" stroke-miterlimit="10"/></g><g transform="translate(-118,-454) scale(1,1)"><g><path fill="none" stroke="none"/><text fill="#000000" stroke="none" font-family="Arial" font-size="13px" font-style="normal" font-weight="normal" text-decoration="none" x="457.520751953125" y="481.5">«Repository»</text></g></g><g transform="translate(-118,-454) scale(1,1)"><g><path fill="none" stroke="none"/><text fill="#000000" stroke="none" font-family="Arial" font-size="13px" font-style="normal" font-weight="bold" text-decoration="none" x="418.146240234375" y="496.5">PswResetTokenRepository</text></g></g><g transform="translate(-118,-454) scale(1,1)"><rect fill="#C0C0C0" stroke="none" x="135" y="471" width="128.919921875" height="57" opacity="0.2"/></g><g transform="translate(-118,-454) scale(1,1)"><rect fill="#ffffff" stroke="none" x="128" y="464" width="128.919921875" height="57"/></g><g transform="translate(-118,-454) scale(1,1)"><path fill="none" stroke="#000000" d="M 128 464 L 256.919921875 464 L 256.919921875 521 L 128 521 L 128 464 Z Z" stroke-miterlimit="10"/></g><g transform="translate(-118,-454) scale(1,1)"><path fill="none" stroke="#000000" d="M 128 502 L 256.919921875 502" stroke-miterlimit="10"/></g><g transform="translate(-118,-454) scale(1,1)"><path fill="none" stroke="#000000" d="M 128 512 L 256.919921875 512" stroke-miterlimit="10"/></g><g transform="translate(-118,-454) scale(1,1)"><g><path fill="none" stroke="none"/><text fill="#000000" stroke="none" font-family="Arial" font-size="13px" font-style="normal" font-weight="normal" text-decoration="none" x="154.161376953125" y="481.5">«Repository»</text></g></g><g transform="translate(-118,-454) scale(1,1)"><g><path fill="none" stroke="none"/><text fill="#000000" stroke="none" font-family="Arial" font-size="13px" font-style="normal" font-weight="bold" text-decoration="none" x="137.54638671875" y="496.5">AddressRepository</text></g></g><g transform="translate(-118,-454) scale(1,1)"><rect fill="#C0C0C0" stroke="none" x="607" y="471" width="136.8544921875" height="57" opacity="0.2"/></g><g transform="translate(-118,-454) scale(1,1)"><rect fill="#ffffff" stroke="none" x="600" y="464" width="136.8544921875" height="57"/></g><g transform="translate(-118,-454) scale(1,1)"><path fill="none" stroke="#000000" d="M 600 464 L 736.8544921875 464 L 736.8544921875 521 L 600 521 L 600 464 Z Z" stroke-miterlimit="10"/></g><g transform="translate(-118,-454) scale(1,1)"><path fill="none" stroke="#000000" d="M 600 502 L 736.8544921875 502" stroke-miterlimit="10"/></g><g transform="translate(-118,-454) scale(1,1)"><path fill="none" stroke="#000000" d="M 600 512 L 736.8544921875 512" stroke-miterlimit="10"/></g><g transform="translate(-118,-454) scale(1,1)"><g><path fill="none" stroke="none"/><text fill="#000000" stroke="none" font-family="Arial" font-size="13px" font-style="normal" font-weight="normal" text-decoration="none" x="630.128662109375" y="481.5">«Repository»</text></g></g><g transform="translate(-118,-454) scale(1,1)"><g><path fill="none" stroke="none"/><text fill="#000000" stroke="none" font-family="Arial" font-size="13px" font-style="normal" font-weight="bold" text-decoration="none" x="609.536865234375" y="496.5">OccupantRepository</text></g></g><g transform="translate(-118,-454) scale(1,1)"><rect fill="#C0C0C0" stroke="none" x="759" y="471" width="166.2314453125" height="57" opacity="0.2"/></g><g transform="translate(-118,-454) scale(1,1)"><rect fill="#ffffff" stroke="none" x="752" y="464" width="166.2314453125" height="57"/></g><g transform="translate(-118,-454) scale(1,1)"><path fill="none" stroke="#000000" d="M 752 464 L 918.2314453125 464 L 918.2314453125 521 L 752 521 L 752 464 Z Z" stroke-miterlimit="10"/></g><g transform="translate(-118,-454) scale(1,1)"><path fill="none" stroke="#000000" d="M 752 502 L 918.2314453125 502" stroke-miterlimit="10"/></g><g transform="translate(-118,-454) scale(1,1)"><path fill="none" stroke="#000000" d="M 752 512 L 918.2314453125 512" stroke-miterlimit="10"/></g><g transform="translate(-118,-454) scale(1,1)"><g><path fill="none" stroke="none"/><text fill="#000000" stroke="none" font-family="Arial" font-size="13px" font-style="normal" font-weight="normal" text-decoration="none" x="796.817138671875" y="481.5">«Repository»</text></g></g><g transform="translate(-118,-454) scale(1,1)"><g><path fill="none" stroke="none"/><text fill="#000000" stroke="none" font-family="Arial" font-size="13px" font-style="normal" font-weight="bold" text-decoration="none" x="762.133544921875" y="496.5">OccupantTypeRepository</text></g></g></g></svg>