<svg version="1.1" xmlns="http://www.w3.org/2000/svg" xmlns:xlink="http://www.w3.org/1999/xlink" width="588.71337890625" height="409"><defs/><g><g transform="translate(-10,-10) scale(1,1)"><rect fill="#C0C0C0" stroke="none" x="283.74169921875" y="27" width="19.600000000000023" height="15" opacity="0.2"/></g><g transform="translate(-10,-10) scale(1,1)"><rect fill="#C0C0C0" stroke="none" x="283.74169921875" y="41" width="49" height="25" opacity="0.2"/></g><g transform="translate(-10,-10) scale(1,1)"><rect fill="#ffffff" stroke="none" x="276.74169921875" y="35" width="49" height="24"/></g><g transform="translate(-10,-10) scale(1,1)"><path fill="none" stroke="#000000" d="M 276.74169921875 35 L 325.74169921875 35 L 325.74169921875 59 L 276.74169921875 59 L 276.74169921875 35 Z Z" stroke-miterlimit="10"/></g><g transform="translate(-10,-10) scale(1,1)"><rect fill="#ffffff" stroke="none" x="276.74169921875" y="20" width="19.600000000000023" height="15"/></g><g transform="translate(-10,-10) scale(1,1)"><path fill="none" stroke="#000000" d="M 276.74169921875 20 L 296.34169921875 20 L 296.34169921875 35 L 276.74169921875 35 L 276.74169921875 20 Z Z" stroke-miterlimit="10"/></g><g transform="translate(-10,-10) scale(1,1)"><rect fill="#ffffff" stroke="none" x="276.74169921875" y="34" width="49" height="25"/></g><g transform="translate(-10,-10) scale(1,1)"><path fill="none" stroke="#000000" d="M 276.74169921875 34 L 325.74169921875 34 L 325.74169921875 59 L 276.74169921875 59 L 276.74169921875 34 Z Z" stroke-miterlimit="10"/></g><g transform="translate(-10,-10) scale(1,1)"><g><path fill="none" stroke="none"/><text fill="#000000" stroke="none" font-family="Arial" font-size="13px" font-style="normal" font-weight="bold" text-decoration="none" x="292.205810546875" y="54.5">net</text></g></g><g transform="translate(-10,-10) scale(1,1)"><rect fill="#C0C0C0" stroke="none" x="283.74169921875" y="97" width="19.600000000000023" height="15" opacity="0.2"/></g><g transform="translate(-10,-10) scale(1,1)"><rect fill="#C0C0C0" stroke="none" x="283.74169921875" y="111" width="49" height="25" opacity="0.2"/></g><g transform="translate(-10,-10) scale(1,1)"><rect fill="#ffffff" stroke="none" x="276.74169921875" y="105" width="49" height="24"/></g><g transform="translate(-10,-10) scale(1,1)"><path fill="none" stroke="#000000" d="M 276.74169921875 105 L 325.74169921875 105 L 325.74169921875 129 L 276.74169921875 129 L 276.74169921875 105 Z Z" stroke-miterlimit="10"/></g><g transform="translate(-10,-10) scale(1,1)"><rect fill="#ffffff" stroke="none" x="276.74169921875" y="90" width="19.600000000000023" height="15"/></g><g transform="translate(-10,-10) scale(1,1)"><path fill="none" stroke="#000000" d="M 276.74169921875 90 L 296.34169921875 90 L 296.34169921875 105 L 276.74169921875 105 L 276.74169921875 90 Z Z" stroke-miterlimit="10"/></g><g transform="translate(-10,-10) scale(1,1)"><rect fill="#ffffff" stroke="none" x="276.74169921875" y="104" width="49" height="25"/></g><g transform="translate(-10,-10) scale(1,1)"><path fill="none" stroke="#000000" d="M 276.74169921875 104 L 325.74169921875 104 L 325.74169921875 129 L 276.74169921875 129 L 276.74169921875 104 Z Z" stroke-miterlimit="10"/></g><g transform="translate(-10,-10) scale(1,1)"><g><path fill="none" stroke="none"/><text fill="#000000" stroke="none" font-family="Arial" font-size="13px" font-style="normal" font-weight="bold" text-decoration="none" x="288.955810546875" y="124.5">atos</text></g></g><g transform="translate(-10,-10) scale(1,1)"><rect fill="#C0C0C0" stroke="none" x="283.74169921875" y="167" width="19.600000000000023" height="15" opacity="0.2"/></g><g transform="translate(-10,-10) scale(1,1)"><rect fill="#C0C0C0" stroke="none" x="283.74169921875" y="181" width="49" height="25" opacity="0.2"/></g><g transform="translate(-10,-10) scale(1,1)"><rect fill="#ffffff" stroke="none" x="276.74169921875" y="175" width="49" height="24"/></g><g transform="translate(-10,-10) scale(1,1)"><path fill="none" stroke="#000000" d="M 276.74169921875 175 L 325.74169921875 175 L 325.74169921875 199 L 276.74169921875 199 L 276.74169921875 175 Z Z" stroke-miterlimit="10"/></g><g transform="translate(-10,-10) scale(1,1)"><rect fill="#ffffff" stroke="none" x="276.74169921875" y="160" width="19.600000000000023" height="15"/></g><g transform="translate(-10,-10) scale(1,1)"><path fill="none" stroke="#000000" d="M 276.74169921875 160 L 296.34169921875 160 L 296.34169921875 175 L 276.74169921875 175 L 276.74169921875 160 Z Z" stroke-miterlimit="10"/></g><g transform="translate(-10,-10) scale(1,1)"><rect fill="#ffffff" stroke="none" x="276.74169921875" y="174" width="49" height="25"/></g><g transform="translate(-10,-10) scale(1,1)"><path fill="none" stroke="#000000" d="M 276.74169921875 174 L 325.74169921875 174 L 325.74169921875 199 L 276.74169921875 199 L 276.74169921875 174 Z Z" stroke-miterlimit="10"/></g><g transform="translate(-10,-10) scale(1,1)"><g><path fill="none" stroke="none"/><text fill="#000000" stroke="none" font-family="Arial" font-size="13px" font-style="normal" font-weight="bold" text-decoration="none" x="290.76171875" y="194.5">s2g</text></g></g><g transform="translate(-10,-10) scale(1,1)"><rect fill="#C0C0C0" stroke="none" x="283.74169921875" y="237" width="19.600000000000023" height="15" opacity="0.2"/></g><g transform="translate(-10,-10) scale(1,1)"><rect fill="#C0C0C0" stroke="none" x="283.74169921875" y="251" width="49" height="25" opacity="0.2"/></g><g transform="translate(-10,-10) scale(1,1)"><rect fill="#ffffff" stroke="none" x="276.74169921875" y="245" width="49" height="24"/></g><g transform="translate(-10,-10) scale(1,1)"><path fill="none" stroke="#000000" d="M 276.74169921875 245 L 325.74169921875 245 L 325.74169921875 269 L 276.74169921875 269 L 276.74169921875 245 Z Z" stroke-miterlimit="10"/></g><g transform="translate(-10,-10) scale(1,1)"><rect fill="#ffffff" stroke="none" x="276.74169921875" y="230" width="19.600000000000023" height="15"/></g><g transform="translate(-10,-10) scale(1,1)"><path fill="none" stroke="#000000" d="M 276.74169921875 230 L 296.34169921875 230 L 296.34169921875 245 L 276.74169921875 245 L 276.74169921875 230 Z Z" stroke-miterlimit="10"/></g><g transform="translate(-10,-10) scale(1,1)"><rect fill="#ffffff" stroke="none" x="276.74169921875" y="244" width="49" height="25"/></g><g transform="translate(-10,-10) scale(1,1)"><path fill="none" stroke="#000000" d="M 276.74169921875 244 L 325.74169921875 244 L 325.74169921875 269 L 276.74169921875 269 L 276.74169921875 244 Z Z" stroke-miterlimit="10"/></g><g transform="translate(-10,-10) scale(1,1)"><g><path fill="none" stroke="none"/><text fill="#000000" stroke="none" font-family="Arial" font-size="13px" font-style="normal" font-weight="bold" text-decoration="none" x="294.021240234375" y="264.5">mt</text></g></g><g transform="translate(-10,-10) scale(1,1)"><rect fill="#C0C0C0" stroke="none" x="282.42626953125" y="307" width="20.65234375" height="15" opacity="0.2"/></g><g transform="translate(-10,-10) scale(1,1)"><rect fill="#C0C0C0" stroke="none" x="282.42626953125" y="321" width="51.630859375" height="25" opacity="0.2"/></g><g transform="translate(-10,-10) scale(1,1)"><rect fill="#ffffff" stroke="none" x="275.42626953125" y="315" width="51.630859375" height="24"/></g><g transform="translate(-10,-10) scale(1,1)"><path fill="none" stroke="#000000" d="M 275.42626953125 315 L 327.05712890625 315 L 327.05712890625 339 L 275.42626953125 339 L 275.42626953125 315 Z Z" stroke-miterlimit="10"/></g><g transform="translate(-10,-10) scale(1,1)"><rect fill="#ffffff" stroke="none" x="275.42626953125" y="300" width="20.65234375" height="15"/></g><g transform="translate(-10,-10) scale(1,1)"><path fill="none" stroke="#000000" d="M 275.42626953125 300 L 296.07861328125 300 L 296.07861328125 315 L 275.42626953125 315 L 275.42626953125 300 Z Z" stroke-miterlimit="10"/></g><g transform="translate(-10,-10) scale(1,1)"><rect fill="#ffffff" stroke="none" x="275.42626953125" y="314" width="51.630859375" height="25"/></g><g transform="translate(-10,-10) scale(1,1)"><path fill="none" stroke="#000000" d="M 275.42626953125 314 L 327.05712890625 314 L 327.05712890625 339 L 275.42626953125 339 L 275.42626953125 314 Z Z" stroke-miterlimit="10"/></g><g transform="translate(-10,-10) scale(1,1)"><g><path fill="none" stroke="none"/><text fill="#000000" stroke="none" font-family="Arial" font-size="13px" font-style="normal" font-weight="bold" text-decoration="none" x="281.3671875" y="334.5">usager</text></g></g><g transform="translate(-10,-10) scale(1,1)"><rect fill="#C0C0C0" stroke="none" x="27" y="377" width="19.6" height="15" opacity="0.2"/></g><g transform="translate(-10,-10) scale(1,1)"><rect fill="#C0C0C0" stroke="none" x="27" y="391" width="49" height="25" opacity="0.2"/></g><g transform="translate(-10,-10) scale(1,1)"><rect fill="#ffffff" stroke="none" x="20" y="385" width="49" height="24"/></g><g transform="translate(-10,-10) scale(1,1)"><path fill="none" stroke="#000000" d="M 20 385 L 69 385 L 69 409 L 20 409 L 20 385 Z Z" stroke-miterlimit="10"/></g><g transform="translate(-10,-10) scale(1,1)"><rect fill="#ffffff" stroke="none" x="20" y="370" width="19.6" height="15"/></g><g transform="translate(-10,-10) scale(1,1)"><path fill="none" stroke="#000000" d="M 20 370 L 39.6 370 L 39.6 385 L 20 385 L 20 370 Z Z" stroke-miterlimit="10"/></g><g transform="translate(-10,-10) scale(1,1)"><rect fill="#ffffff" stroke="none" x="20" y="384" width="49" height="25"/></g><g transform="translate(-10,-10) scale(1,1)"><path fill="none" stroke="#000000" d="M 20 384 L 69 384 L 69 409 L 20 409 L 20 384 Z Z" stroke-miterlimit="10"/></g><g transform="translate(-10,-10) scale(1,1)"><g><path fill="none" stroke="none"/><text fill="#000000" stroke="none" font-family="Arial" font-size="13px" font-style="normal" font-weight="bold" text-decoration="none" x="31.85546875" y="404.5">cron</text></g></g><g transform="translate(-10,-10) scale(1,1)"><rect fill="#C0C0C0" stroke="none" x="107" y="377" width="26.720703125" height="15" opacity="0.2"/></g><g transform="translate(-10,-10) scale(1,1)"><rect fill="#C0C0C0" stroke="none" x="107" y="391" width="66.8017578125" height="25" opacity="0.2"/></g><g transform="translate(-10,-10) scale(1,1)"><rect fill="#ffffff" stroke="none" x="100" y="385" width="66.8017578125" height="24"/></g><g transform="translate(-10,-10) scale(1,1)"><path fill="none" stroke="#000000" d="M 100 385 L 166.8017578125 385 L 166.8017578125 409 L 100 409 L 100 385 Z Z" stroke-miterlimit="10"/></g><g transform="translate(-10,-10) scale(1,1)"><rect fill="#ffffff" stroke="none" x="100" y="370" width="26.720703125" height="15"/></g><g transform="translate(-10,-10) scale(1,1)"><path fill="none" stroke="#000000" d="M 100 370 L 126.720703125 370 L 126.720703125 385 L 100 385 L 100 370 Z Z" stroke-miterlimit="10"/></g><g transform="translate(-10,-10) scale(1,1)"><rect fill="#ffffff" stroke="none" x="100" y="384" width="66.8017578125" height="25"/></g><g transform="translate(-10,-10) scale(1,1)"><path fill="none" stroke="#000000" d="M 100 384 L 166.8017578125 384 L 166.8017578125 409 L 100 409 L 100 384 Z Z" stroke-miterlimit="10"/></g><g transform="translate(-10,-10) scale(1,1)"><g><path fill="none" stroke="none"/><text fill="#000000" stroke="none" font-family="Arial" font-size="13px" font-style="normal" font-weight="bold" text-decoration="none" x="106.661376953125" y="404.5">decoders</text></g></g><g transform="translate(-10,-10) scale(1,1)"><rect fill="#C0C0C0" stroke="none" x="204.8017578125" y="377" width="19.599999999999994" height="15" opacity="0.2"/></g><g transform="translate(-10,-10) scale(1,1)"><rect fill="#C0C0C0" stroke="none" x="204.8017578125" y="391" width="49" height="25" opacity="0.2"/></g><g transform="translate(-10,-10) scale(1,1)"><rect fill="#ffffff" stroke="none" x="197.8017578125" y="385" width="49" height="24"/></g><g transform="translate(-10,-10) scale(1,1)"><path fill="none" stroke="#000000" d="M 197.8017578125 385 L 246.8017578125 385 L 246.8017578125 409 L 197.8017578125 409 L 197.8017578125 385 Z Z" stroke-miterlimit="10"/></g><g transform="translate(-10,-10) scale(1,1)"><rect fill="#ffffff" stroke="none" x="197.8017578125" y="370" width="19.599999999999994" height="15"/></g><g transform="translate(-10,-10) scale(1,1)"><path fill="none" stroke="#000000" d="M 197.8017578125 370 L 217.4017578125 370 L 217.4017578125 385 L 197.8017578125 385 L 197.8017578125 370 Z Z" stroke-miterlimit="10"/></g><g transform="translate(-10,-10) scale(1,1)"><rect fill="#ffffff" stroke="none" x="197.8017578125" y="384" width="49" height="25"/></g><g transform="translate(-10,-10) scale(1,1)"><path fill="none" stroke="#000000" d="M 197.8017578125 384 L 246.8017578125 384 L 246.8017578125 409 L 197.8017578125 409 L 197.8017578125 384 Z Z" stroke-miterlimit="10"/></g><g transform="translate(-10,-10) scale(1,1)"><g><path fill="none" stroke="none"/><text fill="#000000" stroke="none" font-family="Arial" font-size="13px" font-style="normal" font-weight="bold" text-decoration="none" x="213.627685546875" y="404.5">ihd</text></g></g><g transform="translate(-10,-10) scale(1,1)"><rect fill="#C0C0C0" stroke="none" x="284.8017578125" y="377" width="19.600000000000023" height="15" opacity="0.2"/></g><g transform="translate(-10,-10) scale(1,1)"><rect fill="#C0C0C0" stroke="none" x="284.8017578125" y="391" width="49" height="25" opacity="0.2"/></g><g transform="translate(-10,-10) scale(1,1)"><rect fill="#ffffff" stroke="none" x="277.8017578125" y="385" width="49" height="24"/></g><g transform="translate(-10,-10) scale(1,1)"><path fill="none" stroke="#000000" d="M 277.8017578125 385 L 326.8017578125 385 L 326.8017578125 409 L 277.8017578125 409 L 277.8017578125 385 Z Z" stroke-miterlimit="10"/></g><g transform="translate(-10,-10) scale(1,1)"><rect fill="#ffffff" stroke="none" x="277.8017578125" y="370" width="19.600000000000023" height="15"/></g><g transform="translate(-10,-10) scale(1,1)"><path fill="none" stroke="#000000" d="M 277.8017578125 370 L 297.4017578125 370 L 297.4017578125 385 L 277.8017578125 385 L 277.8017578125 370 Z Z" stroke-miterlimit="10"/></g><g transform="translate(-10,-10) scale(1,1)"><rect fill="#ffffff" stroke="none" x="277.8017578125" y="384" width="49" height="25"/></g><g transform="translate(-10,-10) scale(1,1)"><path fill="none" stroke="#000000" d="M 277.8017578125 384 L 326.8017578125 384 L 326.8017578125 409 L 277.8017578125 409 L 277.8017578125 384 Z Z" stroke-miterlimit="10"/></g><g transform="translate(-10,-10) scale(1,1)"><g><path fill="none" stroke="none"/><text fill="#000000" stroke="none" font-family="Arial" font-size="13px" font-style="normal" font-weight="bold" text-decoration="none" x="291.46630859375" y="404.5">rest</text></g></g><g transform="translate(-10,-10) scale(1,1)"><rect fill="#C0C0C0" stroke="none" x="364.8017578125" y="377" width="23.544335937500023" height="15" opacity="0.2"/></g><g transform="translate(-10,-10) scale(1,1)"><rect fill="#C0C0C0" stroke="none" x="364.8017578125" y="391" width="58.86083984375" height="25" opacity="0.2"/></g><g transform="translate(-10,-10) scale(1,1)"><rect fill="#ffffff" stroke="none" x="357.8017578125" y="385" width="58.86083984375" height="24"/></g><g transform="translate(-10,-10) scale(1,1)"><path fill="none" stroke="#000000" d="M 357.8017578125 385 L 416.66259765625 385 L 416.66259765625 409 L 357.8017578125 409 L 357.8017578125 385 Z Z" stroke-miterlimit="10"/></g><g transform="translate(-10,-10) scale(1,1)"><rect fill="#ffffff" stroke="none" x="357.8017578125" y="370" width="23.544335937500023" height="15"/></g><g transform="translate(-10,-10) scale(1,1)"><path fill="none" stroke="#000000" d="M 357.8017578125 370 L 381.34609375 370 L 381.34609375 385 L 357.8017578125 385 L 357.8017578125 370 Z Z" stroke-miterlimit="10"/></g><g transform="translate(-10,-10) scale(1,1)"><rect fill="#ffffff" stroke="none" x="357.8017578125" y="384" width="58.86083984375" height="25"/></g><g transform="translate(-10,-10) scale(1,1)"><path fill="none" stroke="#000000" d="M 357.8017578125 384 L 416.66259765625 384 L 416.66259765625 409 L 357.8017578125 409 L 357.8017578125 384 Z Z" stroke-miterlimit="10"/></g><g transform="translate(-10,-10) scale(1,1)"><g><path fill="none" stroke="none"/><text fill="#000000" stroke="none" font-family="Arial" font-size="13px" font-style="normal" font-weight="bold" text-decoration="none" x="364.837646484375" y="404.5">security</text></g></g><g transform="translate(-10,-10) scale(1,1)"><rect fill="#C0C0C0" stroke="none" x="454.66259765625" y="377" width="24.420312500000023" height="15" opacity="0.2"/></g><g transform="translate(-10,-10) scale(1,1)"><rect fill="#C0C0C0" stroke="none" x="454.66259765625" y="391" width="61.05078125" height="25" opacity="0.2"/></g><g transform="translate(-10,-10) scale(1,1)"><rect fill="#ffffff" stroke="none" x="447.66259765625" y="385" width="61.05078125" height="24"/></g><g transform="translate(-10,-10) scale(1,1)"><path fill="none" stroke="#000000" d="M 447.66259765625 385 L 508.71337890625 385 L 508.71337890625 409 L 447.66259765625 409 L 447.66259765625 385 Z Z" stroke-miterlimit="10"/></g><g transform="translate(-10,-10) scale(1,1)"><rect fill="#ffffff" stroke="none" x="447.66259765625" y="370" width="24.420312500000023" height="15"/></g><g transform="translate(-10,-10) scale(1,1)"><path fill="none" stroke="#000000" d="M 447.66259765625 370 L 472.08291015625 370 L 472.08291015625 385 L 447.66259765625 385 L 447.66259765625 370 Z Z" stroke-miterlimit="10"/></g><g transform="translate(-10,-10) scale(1,1)"><rect fill="#ffffff" stroke="none" x="447.66259765625" y="384" width="61.05078125" height="25"/></g><g transform="translate(-10,-10) scale(1,1)"><path fill="none" stroke="#000000" d="M 447.66259765625 384 L 508.71337890625 384 L 508.71337890625 409 L 447.66259765625 409 L 447.66259765625 384 Z Z" stroke-miterlimit="10"/></g><g transform="translate(-10,-10) scale(1,1)"><g><path fill="none" stroke="none"/><text fill="#000000" stroke="none" font-family="Arial" font-size="13px" font-style="normal" font-weight="bold" text-decoration="none" x="454.349365234375" y="404.5">services</text></g></g><g transform="translate(-10,-10) scale(1,1)"><rect fill="#C0C0C0" stroke="none" x="546.71337890625" y="377" width="19.600000000000023" height="15" opacity="0.2"/></g><g transform="translate(-10,-10) scale(1,1)"><rect fill="#C0C0C0" stroke="none" x="546.71337890625" y="391" width="49" height="25" opacity="0.2"/></g><g transform="translate(-10,-10) scale(1,1)"><rect fill="#ffffff" stroke="none" x="539.71337890625" y="385" width="49" height="24"/></g><g transform="translate(-10,-10) scale(1,1)"><path fill="none" stroke="#000000" d="M 539.71337890625 385 L 588.71337890625 385 L 588.71337890625 409 L 539.71337890625 409 L 539.71337890625 385 Z Z" stroke-miterlimit="10"/></g><g transform="translate(-10,-10) scale(1,1)"><rect fill="#ffffff" stroke="none" x="539.71337890625" y="370" width="19.600000000000023" height="15"/></g><g transform="translate(-10,-10) scale(1,1)"><path fill="none" stroke="#000000" d="M 539.71337890625 370 L 559.31337890625 370 L 559.31337890625 385 L 539.71337890625 385 L 539.71337890625 370 Z Z" stroke-miterlimit="10"/></g><g transform="translate(-10,-10) scale(1,1)"><rect fill="#ffffff" stroke="none" x="539.71337890625" y="384" width="49" height="25"/></g><g transform="translate(-10,-10) scale(1,1)"><path fill="none" stroke="#000000" d="M 539.71337890625 384 L 588.71337890625 384 L 588.71337890625 409 L 539.71337890625 409 L 539.71337890625 384 Z Z" stroke-miterlimit="10"/></g><g transform="translate(-10,-10) scale(1,1)"><g><path fill="none" stroke="none"/><text fill="#000000" stroke="none" font-family="Arial" font-size="13px" font-style="normal" font-weight="bold" text-decoration="none" x="555.904296875" y="404.5">util</text></g></g><g transform="translate(-10,-10) scale(1,1)"><path fill="none" stroke="#000000" d="M 302 89 Q 302 75 302 60" stroke-miterlimit="10"/></g><g transform="translate(-10,-10) scale(1,1)"><path fill="#FFFFFF" stroke="none" d="M 295 67 C 295 63.1340064 298.1340064 60 302 60 C 305.8659936 60 309 63.1340064 309 67 C 309 70.8659936 305.8659936 74 302 74 C 298.1340064 74 295 70.8659936 295 67 Z"/></g><g transform="translate(-10,-10) scale(1,1)"><path fill="none" stroke="#000000" d="M 295 67 C 295 63.1340064 298.1340064 60 302 60 C 305.8659936 60 309 63.1340064 309 67 C 309 70.8659936 305.8659936 74 302 74 C 298.1340064 74 295 70.8659936 295 67 Z" stroke-miterlimit="10"/></g><g transform="translate(-10,-10) scale(1,1)"><path fill="none" stroke="#000000" d="M 302 74 L 302 60" stroke-miterlimit="10"/></g><g transform="translate(-10,-10) scale(1,1)"><path fill="none" stroke="#000000" d="M 309 67 L 295 67" stroke-miterlimit="10"/></g><g transform="translate(-10,-10) scale(1,1)"><path fill="none" stroke="#000000" d="M 302 159 Q 302 145 302 130" stroke-miterlimit="10"/></g><g transform="translate(-10,-10) scale(1,1)"><path fill="#FFFFFF" stroke="none" d="M 295 137 C 295 133.1340064 298.1340064 130 302 130 C 305.8659936 130 309 133.1340064 309 137 C 309 140.8659936 305.8659936 144 302 144 C 298.1340064 144 295 140.8659936 295 137 Z"/></g><g transform="translate(-10,-10) scale(1,1)"><path fill="none" stroke="#000000" d="M 295 137 C 295 133.1340064 298.1340064 130 302 130 C 305.8659936 130 309 133.1340064 309 137 C 309 140.8659936 305.8659936 144 302 144 C 298.1340064 144 295 140.8659936 295 137 Z" stroke-miterlimit="10"/></g><g transform="translate(-10,-10) scale(1,1)"><path fill="none" stroke="#000000" d="M 302 144 L 302 130" stroke-miterlimit="10"/></g><g transform="translate(-10,-10) scale(1,1)"><path fill="none" stroke="#000000" d="M 309 137 L 295 137" stroke-miterlimit="10"/></g><g transform="translate(-10,-10) scale(1,1)"><path fill="none" stroke="#000000" d="M 302 229 Q 302 215 302 200" stroke-miterlimit="10"/></g><g transform="translate(-10,-10) scale(1,1)"><path fill="#FFFFFF" stroke="none" d="M 295 207 C 295 203.1340064 298.1340064 200 302 200 C 305.8659936 200 309 203.1340064 309 207 C 309 210.8659936 305.8659936 214 302 214 C 298.1340064 214 295 210.8659936 295 207 Z"/></g><g transform="translate(-10,-10) scale(1,1)"><path fill="none" stroke="#000000" d="M 295 207 C 295 203.1340064 298.1340064 200 302 200 C 305.8659936 200 309 203.1340064 309 207 C 309 210.8659936 305.8659936 214 302 214 C 298.1340064 214 295 210.8659936 295 207 Z" stroke-miterlimit="10"/></g><g transform="translate(-10,-10) scale(1,1)"><path fill="none" stroke="#000000" d="M 302 214 L 302 200" stroke-miterlimit="10"/></g><g transform="translate(-10,-10) scale(1,1)"><path fill="none" stroke="#000000" d="M 309 207 L 295 207" stroke-miterlimit="10"/></g><g transform="translate(-10,-10) scale(1,1)"><path fill="none" stroke="#000000" d="M 302 299 Q 302 285 302 270" stroke-miterlimit="10"/></g><g transform="translate(-10,-10) scale(1,1)"><path fill="#FFFFFF" stroke="none" d="M 295 277 C 295 273.1340064 298.1340064 270 302 270 C 305.8659936 270 309 273.1340064 309 277 C 309 280.8659936 305.8659936 284 302 284 C 298.1340064 284 295 280.8659936 295 277 Z"/></g><g transform="translate(-10,-10) scale(1,1)"><path fill="none" stroke="#000000" d="M 295 277 C 295 273.1340064 298.1340064 270 302 270 C 305.8659936 270 309 273.1340064 309 277 C 309 280.8659936 305.8659936 284 302 284 C 298.1340064 284 295 280.8659936 295 277 Z" stroke-miterlimit="10"/></g><g transform="translate(-10,-10) scale(1,1)"><path fill="none" stroke="#000000" d="M 302 284 L 302 270" stroke-miterlimit="10"/></g><g transform="translate(-10,-10) scale(1,1)"><path fill="none" stroke="#000000" d="M 309 277 L 295 277" stroke-miterlimit="10"/></g><g transform="translate(-10,-10) scale(1,1)"><path fill="none" stroke="#000000" d="M 45 369 Q 45 355 274 323" stroke-miterlimit="10"/></g><g transform="translate(-10,-10) scale(1,1)"><path fill="#FFFFFF" stroke="none" d="M 260.06735859284487 323.96875338440594 C 260.06735859284487 320.1027597844059 263.20136499284484 316.96875338440594 267.06735859284487 316.96875338440594 C 270.9333521928449 316.96875338440594 274.06735859284487 320.1027597844059 274.06735859284487 323.96875338440594 C 274.06735859284487 327.83474698440597 270.9333521928449 330.96875338440594 267.06735859284487 330.96875338440594 C 263.20136499284484 330.96875338440594 260.06735859284487 327.83474698440597 260.06735859284487 323.96875338440594 Z"/></g><g transform="translate(-10,-10) scale(1,1)"><path fill="none" stroke="#000000" d="M 260.06735859284487 323.96875338440594 C 260.06735859284487 320.1027597844059 263.20136499284484 316.96875338440594 267.06735859284487 316.96875338440594 C 270.9333521928449 316.96875338440594 274.06735859284487 320.1027597844059 274.06735859284487 323.96875338440594 C 274.06735859284487 327.83474698440597 270.9333521928449 330.96875338440594 267.06735859284487 330.96875338440594 C 263.20136499284484 330.96875338440594 260.06735859284487 327.83474698440597 260.06735859284487 323.96875338440594 Z" stroke-miterlimit="10"/></g><g transform="translate(-10,-10) scale(1,1)"><path fill="none" stroke="#000000" d="M 260.13471718568974 324.93750676881194 L 274 323" stroke-miterlimit="10"/></g><g transform="translate(-10,-10) scale(1,1)"><path fill="none" stroke="#000000" d="M 268.0361119772508 330.9013947915611 L 266.0986052084389 317.0361119772508" stroke-miterlimit="10"/></g><g transform="translate(-10,-10) scale(1,1)"><path fill="none" stroke="#000000" d="M 134 369 Q 134 355 274 325" stroke-miterlimit="10"/></g><g transform="translate(-10,-10) scale(1,1)"><path fill="#FFFFFF" stroke="none" d="M 260.15538310145814 326.4667036211161 C 260.15538310145814 322.6007100211161 263.2893895014581 319.4667036211161 267.15538310145814 319.4667036211161 C 271.02137670145817 319.4667036211161 274.15538310145814 322.6007100211161 274.15538310145814 326.4667036211161 C 274.15538310145814 330.3326972211161 271.02137670145817 333.4667036211161 267.15538310145814 333.4667036211161 C 263.2893895014581 333.4667036211161 260.15538310145814 330.3326972211161 260.15538310145814 326.4667036211161 Z"/></g><g transform="translate(-10,-10) scale(1,1)"><path fill="none" stroke="#000000" d="M 260.15538310145814 326.4667036211161 C 260.15538310145814 322.6007100211161 263.2893895014581 319.4667036211161 267.15538310145814 319.4667036211161 C 271.02137670145817 319.4667036211161 274.15538310145814 322.6007100211161 274.15538310145814 326.4667036211161 C 274.15538310145814 330.3326972211161 271.02137670145817 333.4667036211161 267.15538310145814 333.4667036211161 C 263.2893895014581 333.4667036211161 260.15538310145814 330.3326972211161 260.15538310145814 326.4667036211161 Z" stroke-miterlimit="10"/></g><g transform="translate(-10,-10) scale(1,1)"><path fill="none" stroke="#000000" d="M 260.3107662029163 327.93340724223225 L 274 325" stroke-miterlimit="10"/></g><g transform="translate(-10,-10) scale(1,1)"><path fill="none" stroke="#000000" d="M 268.62208672257424 333.31132051965795 L 265.68867948034205 319.62208672257424" stroke-miterlimit="10"/></g><g transform="translate(-10,-10) scale(1,1)"><path fill="none" stroke="#000000" d="M 223 369 Q 223 355 274 331" stroke-miterlimit="10"/></g><g transform="translate(-10,-10) scale(1,1)"><path fill="#FFFFFF" stroke="none" d="M 260.66626908459307 333.98057925430913 C 260.66626908459307 330.1145856543091 263.80027548459304 326.98057925430913 267.66626908459307 326.98057925430913 C 271.5322626845931 326.98057925430913 274.66626908459307 330.1145856543091 274.66626908459307 333.98057925430913 C 274.66626908459307 337.84657285430916 271.5322626845931 340.98057925430913 267.66626908459307 340.98057925430913 C 263.80027548459304 340.98057925430913 260.66626908459307 337.84657285430916 260.66626908459307 333.98057925430913 Z"/></g><g transform="translate(-10,-10) scale(1,1)"><path fill="none" stroke="#000000" d="M 260.66626908459307 333.98057925430913 C 260.66626908459307 330.1145856543091 263.80027548459304 326.98057925430913 267.66626908459307 326.98057925430913 C 271.5322626845931 326.98057925430913 274.66626908459307 330.1145856543091 274.66626908459307 333.98057925430913 C 274.66626908459307 337.84657285430916 271.5322626845931 340.98057925430913 267.66626908459307 340.98057925430913 C 263.80027548459304 340.98057925430913 260.66626908459307 337.84657285430916 260.66626908459307 333.98057925430913 Z" stroke-miterlimit="10"/></g><g transform="translate(-10,-10) scale(1,1)"><path fill="none" stroke="#000000" d="M 261.3325381691861 336.9611585086183 L 274 331" stroke-miterlimit="10"/></g><g transform="translate(-10,-10) scale(1,1)"><path fill="none" stroke="#000000" d="M 270.6468483389022 340.31431016971607 L 264.68568983028393 327.6468483389022" stroke-miterlimit="10"/></g><g transform="translate(-10,-10) scale(1,1)"><path fill="none" stroke="#000000" d="M 303 369 Q 303 355 302 340" stroke-miterlimit="10"/></g><g transform="translate(-10,-10) scale(1,1)"><path fill="#FFFFFF" stroke="none" d="M 295.4656330736664 346.98449610499625 C 295.4656330736664 343.11850250499623 298.5996394736664 339.98449610499625 302.4656330736664 339.98449610499625 C 306.33162667366645 339.98449610499625 309.4656330736664 343.11850250499623 309.4656330736664 346.98449610499625 C 309.4656330736664 350.8504897049963 306.33162667366645 353.98449610499625 302.4656330736664 353.98449610499625 C 298.5996394736664 353.98449610499625 295.4656330736664 350.8504897049963 295.4656330736664 346.98449610499625 Z"/></g><g transform="translate(-10,-10) scale(1,1)"><path fill="none" stroke="#000000" d="M 295.4656330736664 346.98449610499625 C 295.4656330736664 343.11850250499623 298.5996394736664 339.98449610499625 302.4656330736664 339.98449610499625 C 306.33162667366645 339.98449610499625 309.4656330736664 343.11850250499623 309.4656330736664 346.98449610499625 C 309.4656330736664 350.8504897049963 306.33162667366645 353.98449610499625 302.4656330736664 353.98449610499625 C 298.5996394736664 353.98449610499625 295.4656330736664 350.8504897049963 295.4656330736664 346.98449610499625 Z" stroke-miterlimit="10"/></g><g transform="translate(-10,-10) scale(1,1)"><path fill="none" stroke="#000000" d="M 302.93126614733285 353.9689922099925 L 302 340" stroke-miterlimit="10"/></g><g transform="translate(-10,-10) scale(1,1)"><path fill="none" stroke="#000000" d="M 309.4501291786627 346.51886303132983 L 295.48113696867017 347.4501291786627" stroke-miterlimit="10"/></g><g transform="translate(-10,-10) scale(1,1)"><path fill="none" stroke="#000000" d="M 388 369 Q 388 355 328 330" stroke-miterlimit="10"/></g><g transform="translate(-10,-10) scale(1,1)"><path fill="#FFFFFF" stroke="none" d="M 327.46153846153845 332.6923076923077 C 327.46153846153845 328.82631409230765 330.59554486153843 325.6923076923077 334.46153846153845 325.6923076923077 C 338.3275320615385 325.6923076923077 341.46153846153845 328.82631409230765 341.46153846153845 332.6923076923077 C 341.46153846153845 336.5583012923077 338.3275320615385 339.6923076923077 334.46153846153845 339.6923076923077 C 330.59554486153843 339.6923076923077 327.46153846153845 336.5583012923077 327.46153846153845 332.6923076923077 Z"/></g><g transform="translate(-10,-10) scale(1,1)"><path fill="none" stroke="#000000" d="M 327.46153846153845 332.6923076923077 C 327.46153846153845 328.82631409230765 330.59554486153843 325.6923076923077 334.46153846153845 325.6923076923077 C 338.3275320615385 325.6923076923077 341.46153846153845 328.82631409230765 341.46153846153845 332.6923076923077 C 341.46153846153845 336.5583012923077 338.3275320615385 339.6923076923077 334.46153846153845 339.6923076923077 C 330.59554486153843 339.6923076923077 327.46153846153845 336.5583012923077 327.46153846153845 332.6923076923077 Z" stroke-miterlimit="10"/></g><g transform="translate(-10,-10) scale(1,1)"><path fill="none" stroke="#000000" d="M 340.9230769230769 335.38461538461536 L 328 330" stroke-miterlimit="10"/></g><g transform="translate(-10,-10) scale(1,1)"><path fill="none" stroke="#000000" d="M 337.15384615384613 326.2307692307692 L 331.7692307692308 339.15384615384613" stroke-miterlimit="10"/></g><g transform="translate(-10,-10) scale(1,1)"><path fill="none" stroke="#000000" d="M 479 369 Q 479 355 328 324" stroke-miterlimit="10"/></g><g transform="translate(-10,-10) scale(1,1)"><path fill="#FFFFFF" stroke="none" d="M 327.8569896120567 325.40772634419704 C 327.8569896120567 321.541732744197 330.99099601205666 318.40772634419704 334.8569896120567 318.40772634419704 C 338.7229832120567 318.40772634419704 341.8569896120567 321.541732744197 341.8569896120567 325.40772634419704 C 341.8569896120567 329.27371994419707 338.7229832120567 332.40772634419704 334.8569896120567 332.40772634419704 C 330.99099601205666 332.40772634419704 327.8569896120567 329.27371994419707 327.8569896120567 325.40772634419704 Z"/></g><g transform="translate(-10,-10) scale(1,1)"><path fill="none" stroke="#000000" d="M 327.8569896120567 325.40772634419704 C 327.8569896120567 321.541732744197 330.99099601205666 318.40772634419704 334.8569896120567 318.40772634419704 C 338.7229832120567 318.40772634419704 341.8569896120567 321.541732744197 341.8569896120567 325.40772634419704 C 341.8569896120567 329.27371994419707 338.7229832120567 332.40772634419704 334.8569896120567 332.40772634419704 C 330.99099601205666 332.40772634419704 327.8569896120567 329.27371994419707 327.8569896120567 325.40772634419704 Z" stroke-miterlimit="10"/></g><g transform="translate(-10,-10) scale(1,1)"><path fill="none" stroke="#000000" d="M 341.7139792241134 326.81545268839415 L 328 324" stroke-miterlimit="10"/></g><g transform="translate(-10,-10) scale(1,1)"><path fill="none" stroke="#000000" d="M 336.2647159562537 318.55073673214036 L 333.44926326785964 332.2647159562537" stroke-miterlimit="10"/></g><g transform="translate(-10,-10) scale(1,1)"><path fill="none" stroke="#000000" d="M 565 369 Q 565 355 328 323" stroke-miterlimit="10"/></g><g transform="translate(-10,-10) scale(1,1)"><path fill="#FFFFFF" stroke="none" d="M 327.93705195595834 323.93664836536146 C 327.93705195595834 320.07065476536144 331.0710583559583 316.93664836536146 334.93705195595834 316.93664836536146 C 338.80304555595836 316.93664836536146 341.93705195595834 320.07065476536144 341.93705195595834 323.93664836536146 C 341.93705195595834 327.8026419653615 338.80304555595836 330.93664836536146 334.93705195595834 330.93664836536146 C 331.0710583559583 330.93664836536146 327.93705195595834 327.8026419653615 327.93705195595834 323.93664836536146 Z"/></g><g transform="translate(-10,-10) scale(1,1)"><path fill="none" stroke="#000000" d="M 327.93705195595834 323.93664836536146 C 327.93705195595834 320.07065476536144 331.0710583559583 316.93664836536146 334.93705195595834 316.93664836536146 C 338.80304555595836 316.93664836536146 341.93705195595834 320.07065476536144 341.93705195595834 323.93664836536146 C 341.93705195595834 327.8026419653615 338.80304555595836 330.93664836536146 334.93705195595834 330.93664836536146 C 331.0710583559583 330.93664836536146 327.93705195595834 327.8026419653615 327.93705195595834 323.93664836536146 Z" stroke-miterlimit="10"/></g><g transform="translate(-10,-10) scale(1,1)"><path fill="none" stroke="#000000" d="M 341.87410391191673 324.8732967307229 L 328 323" stroke-miterlimit="10"/></g><g transform="translate(-10,-10) scale(1,1)"><path fill="none" stroke="#000000" d="M 335.8737003213198 316.9995964094031 L 334.0004035905969 330.8737003213198" stroke-miterlimit="10"/></g></g></svg>