<svg version="1.1" xmlns="http://www.w3.org/2000/svg" xmlns:xlink="http://www.w3.org/1999/xlink" width="772.0228271484375" height="136"><defs/><g><g transform="translate(-10,-10) scale(1,1)"><rect fill="#C0C0C0" stroke="none" x="87.0775146484375" y="39" width="137.578125" height="37" opacity="0.2"/></g><g transform="translate(-10,-10) scale(1,1)"><rect fill="#ffffff" stroke="none" x="80.0775146484375" y="32" width="137.578125" height="37"/></g><g transform="translate(-10,-10) scale(1,1)"><path fill="none" stroke="#000000" d="M 80.0775146484375 32 L 217.6556396484375 32 L 217.6556396484375 69 L 80.0775146484375 69 L 80.0775146484375 32 Z Z" stroke-miterlimit="10"/></g><g transform="translate(-10,-10) scale(1,1)"><g><path fill="none" stroke="none"/><text fill="#000000" stroke="none" font-family="Arial" font-size="13px" font-style="normal" font-weight="normal" text-decoration="none" x="118.8739013671875" y="49.5">«Handler»</text></g></g><g transform="translate(-10,-10) scale(1,1)"><g><path fill="none" stroke="none"/><text fill="#000000" stroke="none" font-family="Arial" font-size="13px" font-style="italic" font-weight="bold" text-decoration="none" x="89.6207275390625" y="64.5">AbstractGrdfHandler</text></g></g><g transform="translate(-10,-10) scale(1,1)"><rect fill="#C0C0C0" stroke="none" x="255.6556396484375" y="31.5" width="36.84394531250001" height="15" opacity="0.2"/></g><g transform="translate(-10,-10) scale(1,1)"><rect fill="#C0C0C0" stroke="none" x="255.6556396484375" y="45.5" width="92.10986328125" height="38" opacity="0.2"/></g><g transform="translate(-10,-10) scale(1,1)"><rect fill="#ffffff" stroke="none" x="248.6556396484375" y="39.5" width="92.10986328125" height="37"/></g><g transform="translate(-10,-10) scale(1,1)"><path fill="none" stroke="#000000" d="M 248.6556396484375 39.5 L 340.7655029296875 39.5 L 340.7655029296875 76.5 L 248.6556396484375 76.5 L 248.6556396484375 39.5 Z Z" stroke-miterlimit="10"/></g><g transform="translate(-10,-10) scale(1,1)"><rect fill="#ffffff" stroke="none" x="248.6556396484375" y="24.5" width="36.84394531250001" height="15"/></g><g transform="translate(-10,-10) scale(1,1)"><path fill="none" stroke="#000000" d="M 248.6556396484375 24.5 L 285.4995849609375 24.5 L 285.4995849609375 39.5 L 248.6556396484375 39.5 L 248.6556396484375 24.5 Z Z" stroke-miterlimit="10"/></g><g transform="translate(-10,-10) scale(1,1)"><rect fill="#ffffff" stroke="none" x="248.6556396484375" y="38.5" width="92.10986328125" height="38"/></g><g transform="translate(-10,-10) scale(1,1)"><path fill="none" stroke="#000000" d="M 248.6556396484375 38.5 L 340.7655029296875 38.5 L 340.7655029296875 76.5 L 248.6556396484375 76.5 L 248.6556396484375 38.5 Z Z" stroke-miterlimit="10"/></g><g transform="translate(-10,-10) scale(1,1)"><g><path fill="none" stroke="none"/><text fill="#000000" stroke="none" font-family="Arial" font-size="13px" font-style="normal" font-weight="normal" text-decoration="none" x="253.1556396484375" y="57">«Enumations»</text></g></g><g transform="translate(-10,-10) scale(1,1)"><g><path fill="none" stroke="none"/><text fill="#000000" stroke="none" font-family="Arial" font-size="13px" font-style="normal" font-weight="bold" text-decoration="none" x="275.2010498046875" y="72">enums</text></g></g><g transform="translate(-10,-10) scale(1,1)"><path fill="#C0C0C0" stroke="none" d="M 420.4647216796875 38.5 C 420.4647216796875 32.1487248 425.6134464796875 27 431.9647216796875 27 C 438.3159968796875 27 443.4647216796875 32.1487248 443.4647216796875 38.5 C 443.4647216796875 44.8512752 438.3159968796875 50 431.9647216796875 50 C 425.6134464796875 50 420.4647216796875 44.8512752 420.4647216796875 38.5 Z" opacity="0.2"/></g><g transform="translate(-10,-10) scale(1,1)"><path fill="#ffffff" stroke="none" d="M 413.4647216796875 31.5 C 413.4647216796875 25.1487248 418.6134464796875 20 424.9647216796875 20 C 431.3159968796875 20 436.4647216796875 25.1487248 436.4647216796875 31.5 C 436.4647216796875 37.8512752 431.3159968796875 43 424.9647216796875 43 C 418.6134464796875 43 413.4647216796875 37.8512752 413.4647216796875 31.5 Z"/></g><g transform="translate(-10,-10) scale(1,1)"><path fill="none" stroke="#000000" d="M 413.4647216796875 31.5 C 413.4647216796875 25.1487248 418.6134464796875 20 424.9647216796875 20 C 431.3159968796875 20 436.4647216796875 25.1487248 436.4647216796875 31.5 C 436.4647216796875 37.8512752 431.3159968796875 43 424.9647216796875 43 C 418.6134464796875 43 413.4647216796875 37.8512752 413.4647216796875 31.5 Z" stroke-miterlimit="10"/></g><g transform="translate(-10,-10) scale(1,1)"><g><path fill="none" stroke="none"/><text fill="#000000" stroke="none" font-family="Arial" font-size="13px" font-style="normal" font-weight="bold" text-decoration="none" x="343.3148193359375" y="62.5">GrdfAdictAuthorizationClient</text></g></g><g transform="translate(-10,-10) scale(1,1)"><rect fill="#C0C0C0" stroke="none" x="557.3729248046875" y="39" width="105.052734375" height="37" opacity="0.2"/></g><g transform="translate(-10,-10) scale(1,1)"><rect fill="#ffffff" stroke="none" x="550.3729248046875" y="32" width="105.052734375" height="37"/></g><g transform="translate(-10,-10) scale(1,1)"><path fill="none" stroke="#000000" d="M 550.3729248046875 32 L 655.4256591796875 32 L 655.4256591796875 69 L 550.3729248046875 69 L 550.3729248046875 32 Z Z" stroke-miterlimit="10"/></g><g transform="translate(-10,-10) scale(1,1)"><g><path fill="none" stroke="none"/><text fill="#000000" stroke="none" font-family="Arial" font-size="13px" font-style="normal" font-weight="normal" text-decoration="none" x="560.2747802734375" y="49.5">«HTTP Client»</text></g></g><g transform="translate(-10,-10) scale(1,1)"><g><path fill="none" stroke="none"/><text fill="#000000" stroke="none" font-family="Arial" font-size="13px" font-style="italic" font-weight="bold" text-decoration="none" x="559.1893310546875" y="64.5">GrdfAdictClient</text></g></g><g transform="translate(-10,-10) scale(1,1)"><rect fill="#C0C0C0" stroke="none" x="693.4256591796875" y="31.5" width="34.23886718749998" height="15" opacity="0.2"/></g><g transform="translate(-10,-10) scale(1,1)"><rect fill="#C0C0C0" stroke="none" x="693.4256591796875" y="45.5" width="85.59716796875" height="38" opacity="0.2"/></g><g transform="translate(-10,-10) scale(1,1)"><rect fill="#ffffff" stroke="none" x="686.4256591796875" y="39.5" width="85.59716796875" height="37"/></g><g transform="translate(-10,-10) scale(1,1)"><path fill="none" stroke="#000000" d="M 686.4256591796875 39.5 L 772.0228271484375 39.5 L 772.0228271484375 76.5 L 686.4256591796875 76.5 L 686.4256591796875 39.5 Z Z" stroke-miterlimit="10"/></g><g transform="translate(-10,-10) scale(1,1)"><rect fill="#ffffff" stroke="none" x="686.4256591796875" y="24.5" width="34.23886718749998" height="15"/></g><g transform="translate(-10,-10) scale(1,1)"><path fill="none" stroke="#000000" d="M 686.4256591796875 24.5 L 720.6645263671875 24.5 L 720.6645263671875 39.5 L 686.4256591796875 39.5 L 686.4256591796875 24.5 Z Z" stroke-miterlimit="10"/></g><g transform="translate(-10,-10) scale(1,1)"><rect fill="#ffffff" stroke="none" x="686.4256591796875" y="38.5" width="85.59716796875" height="38"/></g><g transform="translate(-10,-10) scale(1,1)"><path fill="none" stroke="#000000" d="M 686.4256591796875 38.5 L 772.0228271484375 38.5 L 772.0228271484375 76.5 L 686.4256591796875 76.5 L 686.4256591796875 38.5 Z Z" stroke-miterlimit="10"/></g><g transform="translate(-10,-10) scale(1,1)"><g><path fill="none" stroke="none"/><text fill="#000000" stroke="none" font-family="Arial" font-size="13px" font-style="normal" font-weight="normal" text-decoration="none" x="690.9256591796875" y="57">«Resources»</text></g></g><g transform="translate(-10,-10) scale(1,1)"><g><path fill="none" stroke="none"/><text fill="#000000" stroke="none" font-family="Arial" font-size="13px" font-style="normal" font-weight="bold" text-decoration="none" x="704.2938232421875" y="72">grdfData</text></g></g><g transform="translate(-10,-10) scale(1,1)"><rect fill="#C0C0C0" stroke="none" x="27" y="106" width="113.7236328125" height="37" opacity="0.2"/></g><g transform="translate(-10,-10) scale(1,1)"><rect fill="#ffffff" stroke="none" x="20" y="99" width="113.7236328125" height="37"/></g><g transform="translate(-10,-10) scale(1,1)"><path fill="none" stroke="#000000" d="M 20 99 L 133.7236328125 99 L 133.7236328125 136 L 20 136 L 20 99 Z Z" stroke-miterlimit="10"/></g><g transform="translate(-10,-10) scale(1,1)"><g><path fill="none" stroke="none"/><text fill="#000000" stroke="none" font-family="Arial" font-size="13px" font-style="normal" font-weight="normal" text-decoration="none" x="46.869140625" y="116.5">«Handler»</text></g></g><g transform="translate(-10,-10) scale(1,1)"><g><path fill="none" stroke="none"/><text fill="#000000" stroke="none" font-family="Arial" font-size="13px" font-style="normal" font-weight="bold" text-decoration="none" x="28.08642578125" y="131.5">GrdfStubHandler</text></g></g><g transform="translate(-10,-10) scale(1,1)"><rect fill="#C0C0C0" stroke="none" x="171.7236328125" y="106" width="112.29541015625" height="37" opacity="0.2"/></g><g transform="translate(-10,-10) scale(1,1)"><rect fill="#ffffff" stroke="none" x="164.7236328125" y="99" width="112.29541015625" height="37"/></g><g transform="translate(-10,-10) scale(1,1)"><path fill="none" stroke="#000000" d="M 164.7236328125 99 L 277.01904296875 99 L 277.01904296875 136 L 164.7236328125 136 L 164.7236328125 99 Z Z" stroke-miterlimit="10"/></g><g transform="translate(-10,-10) scale(1,1)"><g><path fill="none" stroke="none"/><text fill="#000000" stroke="none" font-family="Arial" font-size="13px" font-style="normal" font-weight="normal" text-decoration="none" x="190.878662109375" y="116.5">«Handler»</text></g></g><g transform="translate(-10,-10) scale(1,1)"><g><path fill="none" stroke="none"/><text fill="#000000" stroke="none" font-family="Arial" font-size="13px" font-style="normal" font-weight="bold" text-decoration="none" x="172.343505859375" y="131.5">GrdfTrueHandler</text></g></g><g transform="translate(-10,-10) scale(1,1)"><path fill="none" stroke="#000000" d="M 77 98 Q 77 84 106 70" stroke-miterlimit="10"/></g><g transform="translate(-10,-10) scale(1,1)"><path fill="#FFFFFF" stroke="none" d="M 91.35614087830622 86.41820300836805 L 106 70 L 84.03580523019542 71.25465059442428"/></g><g transform="translate(-10,-10) scale(1,1)"><path fill="none" stroke="#000000" d="M 91.35614087830622 86.41820300836805 L 106 70 L 84.03580523019542 71.25465059442428 L 91.35614087830622 86.41820300836805" stroke-miterlimit="10"/></g><g transform="translate(-10,-10) scale(1,1)"><path fill="none" stroke="#000000" d="M 221 98 Q 221 84 191 70" stroke-miterlimit="10"/></g><g transform="translate(-10,-10) scale(1,1)"><path fill="#FFFFFF" stroke="none" d="M 212.97877697661048 70.96610693632583 L 191 70 L 205.8582014763207 86.22448300837539"/></g><g transform="translate(-10,-10) scale(1,1)"><path fill="none" stroke="#000000" d="M 212.97877697661048 70.96610693632583 L 191 70 L 205.8582014763207 86.22448300837539 L 212.97877697661048 70.96610693632583" stroke-miterlimit="10"/></g></g></svg>