<svg version="1.1" xmlns="http://www.w3.org/2000/svg" xmlns:xlink="http://www.w3.org/1999/xlink" width="748.8729248046875" height="123"><defs/><g><g transform="translate(-10,-10) scale(1,1)"><rect fill="#C0C0C0" stroke="none" x="87.0775146484375" y="39" width="137.578125" height="24" opacity="0.2"/></g><g transform="translate(-10,-10) scale(1,1)"><rect fill="#ffffff" stroke="none" x="80.0775146484375" y="32" width="137.578125" height="24"/></g><g transform="translate(-10,-10) scale(1,1)"><path fill="none" stroke="#000000" d="M 80.0775146484375 32 L 217.6556396484375 32 L 217.6556396484375 56 L 80.0775146484375 56 L 80.0775146484375 32 Z Z" stroke-miterlimit="10"/></g><g transform="translate(-10,-10) scale(1,1)"><g><path fill="none" stroke="none"/><text fill="#000000" stroke="none" font-family="Arial" font-size="13px" font-style="italic" font-weight="bold" text-decoration="none" x="89.6207275390625" y="51.5">AbstractGrdfHandler</text></g></g><g transform="translate(-10,-10) scale(1,1)"><rect fill="#C0C0C0" stroke="none" x="255.6556396484375" y="31.5" width="20.3603515625" height="15" opacity="0.2"/></g><g transform="translate(-10,-10) scale(1,1)"><rect fill="#C0C0C0" stroke="none" x="255.6556396484375" y="45.5" width="50.90087890625" height="25" opacity="0.2"/></g><g transform="translate(-10,-10) scale(1,1)"><rect fill="#ffffff" stroke="none" x="248.6556396484375" y="39.5" width="50.90087890625" height="24"/></g><g transform="translate(-10,-10) scale(1,1)"><path fill="none" stroke="#000000" d="M 248.6556396484375 39.5 L 299.5565185546875 39.5 L 299.5565185546875 63.5 L 248.6556396484375 63.5 L 248.6556396484375 39.5 Z Z" stroke-miterlimit="10"/></g><g transform="translate(-10,-10) scale(1,1)"><rect fill="#ffffff" stroke="none" x="248.6556396484375" y="24.5" width="20.3603515625" height="15"/></g><g transform="translate(-10,-10) scale(1,1)"><path fill="none" stroke="#000000" d="M 248.6556396484375 24.5 L 269.0159912109375 24.5 L 269.0159912109375 39.5 L 248.6556396484375 39.5 L 248.6556396484375 24.5 Z Z" stroke-miterlimit="10"/></g><g transform="translate(-10,-10) scale(1,1)"><rect fill="#ffffff" stroke="none" x="248.6556396484375" y="38.5" width="50.90087890625" height="25"/></g><g transform="translate(-10,-10) scale(1,1)"><path fill="none" stroke="#000000" d="M 248.6556396484375 38.5 L 299.5565185546875 38.5 L 299.5565185546875 63.5 L 248.6556396484375 63.5 L 248.6556396484375 38.5 Z Z" stroke-miterlimit="10"/></g><g transform="translate(-10,-10) scale(1,1)"><g><path fill="none" stroke="none"/><text fill="#000000" stroke="none" font-family="Arial" font-size="13px" font-style="normal" font-weight="bold" text-decoration="none" x="254.5965576171875" y="59">enums</text></g></g><g transform="translate(-10,-10) scale(1,1)"><path fill="#C0C0C0" stroke="none" d="M 420.4647216796875 38.5 C 420.4647216796875 32.1487248 425.6134464796875 27 431.9647216796875 27 C 438.3159968796875 27 443.4647216796875 32.1487248 443.4647216796875 38.5 C 443.4647216796875 44.8512752 438.3159968796875 50 431.9647216796875 50 C 425.6134464796875 50 420.4647216796875 44.8512752 420.4647216796875 38.5 Z" opacity="0.2"/></g><g transform="translate(-10,-10) scale(1,1)"><path fill="#ffffff" stroke="none" d="M 413.4647216796875 31.5 C 413.4647216796875 25.1487248 418.6134464796875 20 424.9647216796875 20 C 431.3159968796875 20 436.4647216796875 25.1487248 436.4647216796875 31.5 C 436.4647216796875 37.8512752 431.3159968796875 43 424.9647216796875 43 C 418.6134464796875 43 413.4647216796875 37.8512752 413.4647216796875 31.5 Z"/></g><g transform="translate(-10,-10) scale(1,1)"><path fill="none" stroke="#000000" d="M 413.4647216796875 31.5 C 413.4647216796875 25.1487248 418.6134464796875 20 424.9647216796875 20 C 431.3159968796875 20 436.4647216796875 25.1487248 436.4647216796875 31.5 C 436.4647216796875 37.8512752 431.3159968796875 43 424.9647216796875 43 C 418.6134464796875 43 413.4647216796875 37.8512752 413.4647216796875 31.5 Z" stroke-miterlimit="10"/></g><g transform="translate(-10,-10) scale(1,1)"><g><path fill="none" stroke="none"/><text fill="#000000" stroke="none" font-family="Arial" font-size="13px" font-style="normal" font-weight="bold" text-decoration="none" x="343.3148193359375" y="62.5">GrdfAdictAuthorizationClient</text></g></g><g transform="translate(-10,-10) scale(1,1)"><rect fill="#C0C0C0" stroke="none" x="557.3729248046875" y="39" width="105.052734375" height="24" opacity="0.2"/></g><g transform="translate(-10,-10) scale(1,1)"><rect fill="#ffffff" stroke="none" x="550.3729248046875" y="32" width="105.052734375" height="24"/></g><g transform="translate(-10,-10) scale(1,1)"><path fill="none" stroke="#000000" d="M 550.3729248046875 32 L 655.4256591796875 32 L 655.4256591796875 56 L 550.3729248046875 56 L 550.3729248046875 32 Z Z" stroke-miterlimit="10"/></g><g transform="translate(-10,-10) scale(1,1)"><g><path fill="none" stroke="none"/><text fill="#000000" stroke="none" font-family="Arial" font-size="13px" font-style="italic" font-weight="bold" text-decoration="none" x="559.1893310546875" y="51.5">GrdfAdictClient</text></g></g><g transform="translate(-10,-10) scale(1,1)"><rect fill="#C0C0C0" stroke="none" x="693.4256591796875" y="31.5" width="24.978906250000023" height="15" opacity="0.2"/></g><g transform="translate(-10,-10) scale(1,1)"><rect fill="#C0C0C0" stroke="none" x="693.4256591796875" y="45.5" width="62.447265625" height="25" opacity="0.2"/></g><g transform="translate(-10,-10) scale(1,1)"><rect fill="#ffffff" stroke="none" x="686.4256591796875" y="39.5" width="62.447265625" height="24"/></g><g transform="translate(-10,-10) scale(1,1)"><path fill="none" stroke="#000000" d="M 686.4256591796875 39.5 L 748.8729248046875 39.5 L 748.8729248046875 63.5 L 686.4256591796875 63.5 L 686.4256591796875 39.5 Z Z" stroke-miterlimit="10"/></g><g transform="translate(-10,-10) scale(1,1)"><rect fill="#ffffff" stroke="none" x="686.4256591796875" y="24.5" width="24.978906250000023" height="15"/></g><g transform="translate(-10,-10) scale(1,1)"><path fill="none" stroke="#000000" d="M 686.4256591796875 24.5 L 711.4045654296875 24.5 L 711.4045654296875 39.5 L 686.4256591796875 39.5 L 686.4256591796875 24.5 Z Z" stroke-miterlimit="10"/></g><g transform="translate(-10,-10) scale(1,1)"><rect fill="#ffffff" stroke="none" x="686.4256591796875" y="38.5" width="62.447265625" height="25"/></g><g transform="translate(-10,-10) scale(1,1)"><path fill="none" stroke="#000000" d="M 686.4256591796875 38.5 L 748.8729248046875 38.5 L 748.8729248046875 63.5 L 686.4256591796875 63.5 L 686.4256591796875 38.5 Z Z" stroke-miterlimit="10"/></g><g transform="translate(-10,-10) scale(1,1)"><g><path fill="none" stroke="none"/><text fill="#000000" stroke="none" font-family="Arial" font-size="13px" font-style="normal" font-weight="bold" text-decoration="none" x="692.7188720703125" y="59">grdfData</text></g></g><g transform="translate(-10,-10) scale(1,1)"><rect fill="#C0C0C0" stroke="none" x="27" y="106" width="113.7236328125" height="24" opacity="0.2"/></g><g transform="translate(-10,-10) scale(1,1)"><rect fill="#ffffff" stroke="none" x="20" y="99" width="113.7236328125" height="24"/></g><g transform="translate(-10,-10) scale(1,1)"><path fill="none" stroke="#000000" d="M 20 99 L 133.7236328125 99 L 133.7236328125 123 L 20 123 L 20 99 Z Z" stroke-miterlimit="10"/></g><g transform="translate(-10,-10) scale(1,1)"><g><path fill="none" stroke="none"/><text fill="#000000" stroke="none" font-family="Arial" font-size="13px" font-style="normal" font-weight="bold" text-decoration="none" x="28.08642578125" y="118.5">GrdfStubHandler</text></g></g><g transform="translate(-10,-10) scale(1,1)"><rect fill="#C0C0C0" stroke="none" x="171.7236328125" y="106" width="112.29541015625" height="24" opacity="0.2"/></g><g transform="translate(-10,-10) scale(1,1)"><rect fill="#ffffff" stroke="none" x="164.7236328125" y="99" width="112.29541015625" height="24"/></g><g transform="translate(-10,-10) scale(1,1)"><path fill="none" stroke="#000000" d="M 164.7236328125 99 L 277.01904296875 99 L 277.01904296875 123 L 164.7236328125 123 L 164.7236328125 99 Z Z" stroke-miterlimit="10"/></g><g transform="translate(-10,-10) scale(1,1)"><g><path fill="none" stroke="none"/><text fill="#000000" stroke="none" font-family="Arial" font-size="13px" font-style="normal" font-weight="bold" text-decoration="none" x="172.343505859375" y="118.5">GrdfTrueHandler</text></g></g><g transform="translate(-10,-10) scale(1,1)"><path fill="none" stroke="#000000" d="M 76 98 Q 77 84 125 57" stroke-miterlimit="10"/></g><g transform="translate(-10,-10) scale(1,1)"><path fill="#FFFFFF" stroke="none" d="M 111.41244919132748 74.30255654583284 L 125 57 L 103.15739561804882 59.626905748892995"/></g><g transform="translate(-10,-10) scale(1,1)"><path fill="none" stroke="#000000" d="M 111.41244919132748 74.30255654583284 L 125 57 L 103.15739561804882 59.626905748892995 L 111.41244919132748 74.30255654583284" stroke-miterlimit="10"/></g><g transform="translate(-10,-10) scale(1,1)"><path fill="none" stroke="#000000" d="M 220 98 Q 221 84 172 57" stroke-miterlimit="10"/></g><g transform="translate(-10,-10) scale(1,1)"><path fill="#FFFFFF" stroke="none" d="M 193.8647854190027 59.435397006848795 L 172 57 L 185.73865230054133 74.18282377738974"/></g><g transform="translate(-10,-10) scale(1,1)"><path fill="none" stroke="#000000" d="M 193.8647854190027 59.435397006848795 L 172 57 L 185.73865230054133 74.18282377738974 L 193.8647854190027 59.435397006848795" stroke-miterlimit="10"/></g></g></svg>