<svg version="1.1" xmlns="http://www.w3.org/2000/svg" xmlns:xlink="http://www.w3.org/1999/xlink" width="690.6962890625" height="421"><defs/><g><g transform="translate(-798,-238) scale(1,1)"><rect fill="#C0C0C0" stroke="none" x="1351" y="311" width="95.68994140625" height="37" opacity="0.2"/></g><g transform="translate(-798,-238) scale(1,1)"><rect fill="#ffffff" stroke="none" x="1344" y="304" width="95.68994140625" height="37"/></g><g transform="translate(-798,-238) scale(1,1)"><path fill="none" stroke="#000000" d="M 1344 304 L 1439.68994140625 304 L 1439.68994140625 341 L 1344 341 L 1344 304 Z Z" stroke-miterlimit="10"/></g><g transform="translate(-798,-238) scale(1,1)"><g><path fill="none" stroke="none"/><text fill="#000000" stroke="none" font-family="Arial" font-size="13px" font-style="normal" font-weight="normal" text-decoration="none" x="1355.345947265625" y="321.5">«Response»</text></g></g><g transform="translate(-798,-238) scale(1,1)"><g><path fill="none" stroke="none"/><text fill="#000000" stroke="none" font-family="Arial" font-size="13px" font-style="normal" font-weight="bold" text-decoration="none" x="1351.016845703125" y="336.5">DpsResponse</text></g></g><g transform="translate(-798,-238) scale(1,1)"><rect fill="#C0C0C0" stroke="none" x="919" y="319" width="131.8525390625" height="37" opacity="0.2"/></g><g transform="translate(-798,-238) scale(1,1)"><rect fill="#ffffff" stroke="none" x="912" y="312" width="131.8525390625" height="37"/></g><g transform="translate(-798,-238) scale(1,1)"><path fill="none" stroke="#000000" d="M 912 312 L 1043.8525390625 312 L 1043.8525390625 349 L 912 349 L 912 312 Z Z" stroke-miterlimit="10"/></g><g transform="translate(-798,-238) scale(1,1)"><g><path fill="none" stroke="none"/><text fill="#000000" stroke="none" font-family="Arial" font-size="13px" font-style="normal" font-weight="normal" text-decoration="none" x="949.022216796875" y="329.5">«Service»</text></g></g><g transform="translate(-798,-238) scale(1,1)"><g><path fill="none" stroke="none"/><text fill="#000000" stroke="none" font-family="Arial" font-size="13px" font-style="normal" font-weight="bold" text-decoration="none" x="919.7626953125" y="344.5">MessageProService</text></g></g><g transform="translate(-798,-238) scale(1,1)"><rect fill="#C0C0C0" stroke="none" x="1351" y="447" width="134.6962890625" height="37" opacity="0.2"/></g><g transform="translate(-798,-238) scale(1,1)"><rect fill="#ffffff" stroke="none" x="1344" y="440" width="134.6962890625" height="37"/></g><g transform="translate(-798,-238) scale(1,1)"><path fill="none" stroke="#000000" d="M 1344 440 L 1478.6962890625 440 L 1478.6962890625 477 L 1344 477 L 1344 440 Z Z" stroke-miterlimit="10"/></g><g transform="translate(-798,-238) scale(1,1)"><g><path fill="none" stroke="none"/><text fill="#000000" stroke="none" font-family="Arial" font-size="13px" font-style="normal" font-weight="normal" text-decoration="none" x="1381.35546875" y="457.5">«Handler»</text></g></g><g transform="translate(-798,-238) scale(1,1)"><g><path fill="none" stroke="none"/><text fill="#000000" stroke="none" font-family="Arial" font-size="13px" font-style="italic" font-weight="bold" text-decoration="none" x="1353.1845703125" y="472.5">AbstractDpsHandler</text></g></g><g transform="translate(-798,-238) scale(1,1)"><path fill="none" stroke="#000000" d="M 1395 440 L 1395 341" stroke-miterlimit="10" stroke-dasharray="3"/></g><g transform="translate(-798,-238) scale(1,1)"><path fill="none" stroke="#000000" d="M 1399.2095177560159 351.16267485762415 L 1395 341 L 1390.7904822439841 351.16267485762415" stroke-miterlimit="10"/></g><g transform="translate(-798,-238) scale(1,1)"><rect fill="#C0C0C0" stroke="none" x="1007" y="423" width="111.60986328125" height="37" opacity="0.2"/></g><g transform="translate(-798,-238) scale(1,1)"><rect fill="#ffffff" stroke="none" x="1000" y="416" width="111.60986328125" height="37"/></g><g transform="translate(-798,-238) scale(1,1)"><path fill="none" stroke="#000000" d="M 1000 416 L 1111.60986328125 416 L 1111.60986328125 453 L 1000 453 L 1000 416 Z Z" stroke-miterlimit="10"/></g><g transform="translate(-798,-238) scale(1,1)"><g><path fill="none" stroke="none"/><text fill="#000000" stroke="none" font-family="Arial" font-size="13px" font-style="normal" font-weight="normal" text-decoration="none" x="1026.90087890625" y="433.5">«Service»</text></g></g><g transform="translate(-798,-238) scale(1,1)"><g><path fill="none" stroke="none"/><text fill="#000000" stroke="none" font-family="Arial" font-size="13px" font-style="normal" font-weight="bold" text-decoration="none" x="1008.127685546875" y="448.5">DpsErrorService</text></g></g><g transform="translate(-798,-238) scale(1,1)"><path fill="none" stroke="#000000" d="M 1344 440 L 1344 384 M 1344 384 A 8 8 0 0 0 1336 376 L 1063 376 M 1063 376 A 8 8 0 0 0 1055 384 L 1055 416" stroke-miterlimit="10"/></g><g transform="translate(-798,-238) scale(1,1)"><path fill="none" stroke="#000000" d="M 1050.7904822439841 405.83732514237585 L 1055 416 L 1059.2095177560159 405.83732514237585" stroke-miterlimit="10"/></g><g transform="translate(-798,-238) scale(1,1)"><g><path fill="none" stroke="none"/><text fill="#000000" stroke="none" font-family="Arial" font-size="13px" font-style="normal" font-weight="normal" text-decoration="none" x="1019.5" y="396.5">+dpsErrorService</text></g></g><g transform="translate(-798,-238) scale(1,1)"><path fill="none" stroke="#000000" d="M 1005 349 L 1005 416" stroke-miterlimit="10"/></g><g transform="translate(-798,-238) scale(1,1)"><path fill="#000000" stroke="none" d="M 1000.790482243984 405.83732514237585 L 1005 416 L 1009.209517756016 405.83732514237585 L 1005 394"/></g><g transform="translate(-798,-238) scale(1,1)"><path fill="none" stroke="#000000" d="M 1000.790482243984 405.83732514237585 L 1005 416 L 1009.209517756016 405.83732514237585 L 1005 394 L 1000.790482243984 405.83732514237585" stroke-miterlimit="10"/></g><g transform="translate(-798,-238) scale(1,1)"><rect fill="#C0C0C0" stroke="none" x="1103" y="255" width="152.76171875" height="37" opacity="0.2"/></g><g transform="translate(-798,-238) scale(1,1)"><rect fill="#ffffff" stroke="none" x="1096" y="248" width="152.76171875" height="37"/></g><g transform="translate(-798,-238) scale(1,1)"><path fill="none" stroke="#000000" d="M 1096 248 L 1248.76171875 248 L 1248.76171875 285 L 1096 285 L 1096 248 Z Z" stroke-miterlimit="10"/></g><g transform="translate(-798,-238) scale(1,1)"><g><path fill="none" stroke="none"/><text fill="#000000" stroke="none" font-family="Arial" font-size="13px" font-style="normal" font-weight="normal" text-decoration="none" x="1142.38818359375" y="265.5">«Handler»</text></g></g><g transform="translate(-798,-238) scale(1,1)"><g><path fill="none" stroke="none"/><text fill="#000000" stroke="none" font-family="Arial" font-size="13px" font-style="italic" font-weight="bold" text-decoration="none" x="1105.90185546875" y="280.5">AbstractEnedisHandler</text></g></g><g transform="translate(-798,-238) scale(1,1)"><path fill="none" stroke="#000000" d="M 1112 434 L 1150 434 M 1150 434 A 8 8 0 0 0 1158 426 L 1158 285" stroke-miterlimit="10"/></g><g transform="translate(-798,-238) scale(1,1)"><path fill="#000000" stroke="none" d="M 1162.2095177560159 295.16267485762415 L 1158 285 L 1153.7904822439841 295.16267485762415 L 1158 307"/></g><g transform="translate(-798,-238) scale(1,1)"><path fill="none" stroke="#000000" d="M 1162.2095177560159 295.16267485762415 L 1158 285 L 1153.7904822439841 295.16267485762415 L 1158 307 L 1162.2095177560159 295.16267485762415" stroke-miterlimit="10"/></g><g transform="translate(-798,-238) scale(1,1)"><path fill="none" stroke="#000000" d="M 1197 285 L 1197 450 M 1197 450 A 8 8 0 0 0 1205 458 L 1344 458" stroke-miterlimit="10"/></g><g transform="translate(-798,-238) scale(1,1)"><path fill="#FFFFFF" stroke="none" d="M 1323.6746502847518 466.419035512032 L 1344 458 L 1323.6746502847516 449.580964487968"/></g><g transform="translate(-798,-238) scale(1,1)"><path fill="none" stroke="#000000" d="M 1323.6746502847518 466.419035512032 L 1344 458 L 1323.6746502847516 449.580964487968 L 1323.6746502847518 466.419035512032" stroke-miterlimit="10"/></g><g transform="translate(-798,-238) scale(1,1)"><rect fill="#C0C0C0" stroke="none" x="1343" y="551" width="128.919921875" height="37" opacity="0.2"/></g><g transform="translate(-798,-238) scale(1,1)"><rect fill="#ffffff" stroke="none" x="1336" y="544" width="128.919921875" height="37"/></g><g transform="translate(-798,-238) scale(1,1)"><path fill="none" stroke="#000000" d="M 1336 544 L 1464.919921875 544 L 1464.919921875 581 L 1336 581 L 1336 544 Z Z" stroke-miterlimit="10"/></g><g transform="translate(-798,-238) scale(1,1)"><g><path fill="none" stroke="none"/><text fill="#000000" stroke="none" font-family="Arial" font-size="13px" font-style="normal" font-weight="normal" text-decoration="none" x="1371.55908203125" y="561.5">«Factory»</text></g></g><g transform="translate(-798,-238) scale(1,1)"><g><path fill="none" stroke="none"/><text fill="#000000" stroke="none" font-family="Arial" font-size="13px" font-style="normal" font-weight="bold" text-decoration="none" x="1344.46728515625" y="576.5">DpsHandlerFactory</text></g></g><g transform="translate(-798,-238) scale(1,1)"><path fill="none" stroke="#000000" d="M 1409 544 L 1409 477" stroke-miterlimit="10" stroke-dasharray="3"/></g><g transform="translate(-798,-238) scale(1,1)"><path fill="none" stroke="#000000" d="M 1413.2095177560159 487.16267485762415 L 1409 477 L 1404.7904822439841 487.16267485762415" stroke-miterlimit="10"/></g><g transform="translate(-798,-238) scale(1,1)"><rect fill="#C0C0C0" stroke="none" x="815" y="599" width="152.76171875" height="37" opacity="0.2"/></g><g transform="translate(-798,-238) scale(1,1)"><rect fill="#ffffff" stroke="none" x="808" y="592" width="152.76171875" height="37"/></g><g transform="translate(-798,-238) scale(1,1)"><path fill="none" stroke="#000000" d="M 808 592 L 960.76171875 592 L 960.76171875 629 L 808 629 L 808 592 Z Z" stroke-miterlimit="10"/></g><g transform="translate(-798,-238) scale(1,1)"><g><path fill="none" stroke="none"/><text fill="#000000" stroke="none" font-family="Arial" font-size="13px" font-style="normal" font-weight="normal" text-decoration="none" x="854.38818359375" y="609.5">«Handler»</text></g></g><g transform="translate(-798,-238) scale(1,1)"><g><path fill="none" stroke="none"/><text fill="#000000" stroke="none" font-family="Arial" font-size="13px" font-style="italic" font-weight="bold" text-decoration="none" x="817.90185546875" y="624.5">AbstractEnedisHandler</text></g></g><g transform="translate(-798,-238) scale(1,1)"><path fill="none" stroke="#000000" d="M 1036 453 L 1036 602 M 1036 602 A 8 8 0 0 1 1028 610 L 961 610" stroke-miterlimit="10"/></g><g transform="translate(-798,-238) scale(1,1)"><path fill="#000000" stroke="none" d="M 971.1626748576241 605.790482243984 L 961 610 L 971.1626748576241 614.209517756016 L 983 610"/></g><g transform="translate(-798,-238) scale(1,1)"><path fill="none" stroke="#000000" d="M 971.1626748576241 605.790482243984 L 961 610 L 971.1626748576241 614.209517756016 L 983 610 L 971.1626748576241 605.790482243984" stroke-miterlimit="10"/></g><g transform="translate(-798,-238) scale(1,1)"><path fill="none" stroke="#000000" d="M 884 629 L 884 640 M 884 640 A 8 8 0 0 0 892 648 L 1385 648 M 1385 648 A 8 8 0 0 0 1393 640 L 1393 477" stroke-miterlimit="10"/></g><g transform="translate(-798,-238) scale(1,1)"><path fill="#FFFFFF" stroke="none" d="M 1401.419035512032 497.3253497152483 L 1393 477 L 1384.580964487968 497.3253497152483"/></g><g transform="translate(-798,-238) scale(1,1)"><path fill="none" stroke="#000000" d="M 1401.419035512032 497.3253497152483 L 1393 477 L 1384.580964487968 497.3253497152483 L 1401.419035512032 497.3253497152483" stroke-miterlimit="10"/></g><g transform="translate(-798,-238) scale(1,1)"><rect fill="#C0C0C0" stroke="none" x="1143" y="551" width="127.47900390625" height="37" opacity="0.2"/></g><g transform="translate(-798,-238) scale(1,1)"><rect fill="#ffffff" stroke="none" x="1136" y="544" width="127.47900390625" height="37"/></g><g transform="translate(-798,-238) scale(1,1)"><path fill="none" stroke="#000000" d="M 1136 544 L 1263.47900390625 544 L 1263.47900390625 581 L 1136 581 L 1136 544 Z Z" stroke-miterlimit="10"/></g><g transform="translate(-798,-238) scale(1,1)"><g><path fill="none" stroke="none"/><text fill="#000000" stroke="none" font-family="Arial" font-size="13px" font-style="normal" font-weight="normal" text-decoration="none" x="1169.746826171875" y="561.5">«Handler»</text></g></g><g transform="translate(-798,-238) scale(1,1)"><g><path fill="none" stroke="none"/><text fill="#000000" stroke="none" font-family="Arial" font-size="13px" font-style="normal" font-weight="bold" text-decoration="none" x="1143.978515625" y="576.5">EnedisTrueHandler</text></g></g><g transform="translate(-798,-238) scale(1,1)"><path fill="none" stroke="#000000" d="M 1174 544 L 1174 285" stroke-miterlimit="10"/></g><g transform="translate(-798,-238) scale(1,1)"><path fill="#FFFFFF" stroke="none" d="M 1182.419035512032 305.3253497152483 L 1174 285 L 1165.580964487968 305.3253497152483"/></g><g transform="translate(-798,-238) scale(1,1)"><path fill="none" stroke="#000000" d="M 1182.419035512032 305.3253497152483 L 1174 285 L 1165.580964487968 305.3253497152483 L 1182.419035512032 305.3253497152483" stroke-miterlimit="10"/></g><g transform="translate(-798,-238) scale(1,1)"><path fill="none" stroke="#000000" d="M 1199 581 L 1199 590 M 1199 590 A 8 8 0 0 1 1191 598 L 961 598" stroke-miterlimit="10"/></g><g transform="translate(-798,-238) scale(1,1)"><path fill="#FFFFFF" stroke="none" d="M 981.3253497152483 589.580964487968 L 961 598 L 981.3253497152483 606.419035512032"/></g><g transform="translate(-798,-238) scale(1,1)"><path fill="none" stroke="#000000" d="M 981.3253497152483 589.580964487968 L 961 598 L 981.3253497152483 606.419035512032 L 981.3253497152483 589.580964487968" stroke-miterlimit="10"/></g><g transform="translate(-798,-238) scale(1,1)"><path fill="none" stroke="#000000" d="M 1136 562 L 1086 562 M 1086 562 A 8 8 0 0 1 1078 554 L 1078 453" stroke-miterlimit="10"/></g><g transform="translate(-798,-238) scale(1,1)"><path fill="none" stroke="#000000" d="M 1082.2095177560159 463.16267485762415 L 1078 453 L 1073.7904822439841 463.16267485762415" stroke-miterlimit="10"/></g><g transform="translate(-798,-238) scale(1,1)"><g><path fill="none" stroke="none"/><text fill="#000000" stroke="none" font-family="Arial" font-size="13px" font-style="normal" font-weight="normal" text-decoration="none" x="1014.5" y="484.5">-dpsErrorService</text></g></g><g transform="translate(-798,-238) scale(1,1)"><rect fill="#C0C0C0" stroke="none" x="831" y="271" width="128.9072265625" height="37" opacity="0.2"/></g><g transform="translate(-798,-238) scale(1,1)"><rect fill="#ffffff" stroke="none" x="824" y="264" width="128.9072265625" height="37"/></g><g transform="translate(-798,-238) scale(1,1)"><path fill="none" stroke="#000000" d="M 824 264 L 952.9072265625 264 L 952.9072265625 301 L 824 301 L 824 264 Z Z" stroke-miterlimit="10"/></g><g transform="translate(-798,-238) scale(1,1)"><g><path fill="none" stroke="none"/><text fill="#000000" stroke="none" font-family="Arial" font-size="13px" font-style="normal" font-weight="normal" text-decoration="none" x="858.4609375" y="281.5">«Handler»</text></g></g><g transform="translate(-798,-238) scale(1,1)"><g><path fill="none" stroke="none"/><text fill="#000000" stroke="none" font-family="Arial" font-size="13px" font-style="normal" font-weight="bold" text-decoration="none" x="832.445068359375" y="296.5">EnedisStubHandler</text></g></g><g transform="translate(-798,-238) scale(1,1)"><path fill="none" stroke="#000000" d="M 953 278 L 1096 278" stroke-miterlimit="10"/></g><g transform="translate(-798,-238) scale(1,1)"><path fill="#FFFFFF" stroke="none" d="M 1075.6746502847518 286.419035512032 L 1096 278 L 1075.6746502847516 269.580964487968"/></g><g transform="translate(-798,-238) scale(1,1)"><path fill="none" stroke="#000000" d="M 1075.6746502847518 286.419035512032 L 1096 278 L 1075.6746502847516 269.580964487968 L 1075.6746502847518 286.419035512032" stroke-miterlimit="10"/></g><g transform="translate(-798,-238) scale(1,1)"><path fill="none" stroke="#000000" d="M 888 301 L 888 592" stroke-miterlimit="10"/></g><g transform="translate(-798,-238) scale(1,1)"><path fill="#FFFFFF" stroke="none" d="M 879.580964487968 571.6746502847517 L 888 592 L 896.419035512032 571.6746502847517"/></g><g transform="translate(-798,-238) scale(1,1)"><path fill="none" stroke="#000000" d="M 879.580964487968 571.6746502847517 L 888 592 L 896.419035512032 571.6746502847517 L 879.580964487968 571.6746502847517" stroke-miterlimit="10"/></g></g></svg>