<svg version="1.1" xmlns="http://www.w3.org/2000/svg" xmlns:xlink="http://www.w3.org/1999/xlink" width="235.29248046875" height="105"><defs/><g><g transform="translate(-390,-190) scale(1,1)"><rect fill="#C0C0C0" stroke="none" x="407" y="207" width="215.29248046875" height="85" opacity="0.2"/></g><g transform="translate(-390,-190) scale(1,1)"><rect fill="#ffffff" stroke="none" x="400" y="200" width="215.29248046875" height="85"/></g><g transform="translate(-390,-190) scale(1,1)"><path fill="none" stroke="#000000" d="M 400 200 L 615.29248046875 200 L 615.29248046875 285 L 400 285 L 400 200 Z Z" stroke-miterlimit="10"/></g><g transform="translate(-390,-190) scale(1,1)"><path fill="none" stroke="#000000" d="M 400 238 L 615.29248046875 238" stroke-miterlimit="10"/></g><g transform="translate(-390,-190) scale(1,1)"><path fill="none" stroke="#000000" d="M 400 248 L 615.29248046875 248" stroke-miterlimit="10"/></g><g transform="translate(-390,-190) scale(1,1)"><g><path fill="none" stroke="none"/><text fill="#000000" stroke="none" font-family="Arial" font-size="13px" font-style="normal" font-weight="normal" text-decoration="none" x="472.239013671875" y="217.5">«Controller»</text></g></g><g transform="translate(-390,-190) scale(1,1)"><g><path fill="none" stroke="none"/><text fill="#000000" stroke="none" font-family="Arial" font-size="13px" font-style="normal" font-weight="bold" text-decoration="none" x="445.150390625" y="232.5">AccountRESTService</text></g></g><g transform="translate(-390,-190) scale(1,1)"><g><path fill="none" stroke="none"/><text fill="#000000" stroke="none" font-family="Arial" font-size="13px" font-style="normal" font-weight="normal" text-decoration="none" x="405" y="265.5">+subscribeAccountser(JsonObject)</text></g></g><g transform="translate(-390,-190) scale(1,1)"><g><path fill="none" stroke="none"/><text fill="#000000" stroke="none" font-family="Arial" font-size="13px" font-style="normal" font-weight="normal" text-decoration="none" x="405" y="280.5">+requestLostPassword(JsonObject)</text></g></g></g></svg>