<svg version="1.1" xmlns="http://www.w3.org/2000/svg" xmlns:xlink="http://www.w3.org/1999/xlink" width="386.39453125" height="234"><defs/><g><g transform="translate(-990,-398) scale(1,1)"><rect fill="#C0C0C0" stroke="none" x="1007" y="415" width="57.336718750000045" height="15" opacity="0.2"/></g><g transform="translate(-990,-398) scale(1,1)"><rect fill="#C0C0C0" stroke="none" x="1007" y="429" width="143.341796875" height="40" opacity="0.2"/></g><g transform="translate(-990,-398) scale(1,1)"><rect fill="#ffffff" stroke="none" x="1000" y="423" width="143.341796875" height="39"/></g><g transform="translate(-990,-398) scale(1,1)"><path fill="none" stroke="#000000" d="M 1000 423 L 1143.341796875 423 L 1143.341796875 462 L 1000 462 L 1000 423 Z Z" stroke-miterlimit="10"/></g><g transform="translate(-990,-398) scale(1,1)"><rect fill="#ffffff" stroke="none" x="1000" y="408" width="57.336718750000045" height="15"/></g><g transform="translate(-990,-398) scale(1,1)"><path fill="none" stroke="#000000" d="M 1000 408 L 1057.33671875 408 L 1057.33671875 423 L 1000 423 L 1000 408 Z Z" stroke-miterlimit="10"/></g><g transform="translate(-990,-398) scale(1,1)"><rect fill="#ffffff" stroke="none" x="1000" y="422" width="143.341796875" height="40"/></g><g transform="translate(-990,-398) scale(1,1)"><path fill="none" stroke="#000000" d="M 1000 422 L 1143.341796875 422 L 1143.341796875 462 L 1000 462 L 1000 422 Z Z" stroke-miterlimit="10"/></g><g transform="translate(-990,-398) scale(1,1)"><path fill="none" stroke="#000000" d="M 1049.33671875 411 L 1049.33671875 415" stroke-miterlimit="10"/></g><g transform="translate(-990,-398) scale(1,1)"><path fill="none" stroke="#000000" d="M 1046.33671875 419 L 1046.33671875 415 L 1052.33671875 415" stroke-miterlimit="10"/></g><g transform="translate(-990,-398) scale(1,1)"><path fill="none" stroke="#000000" d="M 1052.33671875 419 L 1052.33671875 415 L 1046.33671875 415" stroke-miterlimit="10"/></g><g transform="translate(-990,-398) scale(1,1)"><g><path fill="none" stroke="none"/><text fill="#000000" stroke="none" font-family="Arial" font-size="13px" font-style="normal" font-weight="bold" text-decoration="none" x="1007.02001953125" y="442.5">S2G-MT-Usager-Front</text></g></g><g transform="translate(-990,-398) scale(1,1)"><g><path fill="none" stroke="none"/><text fill="#000000" stroke="none" font-family="Arial" font-size="13px" font-style="normal" font-weight="normal" text-decoration="none" x="1027.97998046875" y="457.5">(from S2G-MT)</text></g></g><g transform="translate(-990,-398) scale(1,1)"><rect fill="#C0C0C0" stroke="none" x="1007" y="575" width="56.483593749999955" height="15" opacity="0.2"/></g><g transform="translate(-990,-398) scale(1,1)"><rect fill="#C0C0C0" stroke="none" x="1007" y="589" width="141.208984375" height="40" opacity="0.2"/></g><g transform="translate(-990,-398) scale(1,1)"><rect fill="#ffffff" stroke="none" x="1000" y="583" width="141.208984375" height="39"/></g><g transform="translate(-990,-398) scale(1,1)"><path fill="none" stroke="#000000" d="M 1000 583 L 1141.208984375 583 L 1141.208984375 622 L 1000 622 L 1000 583 Z Z" stroke-miterlimit="10"/></g><g transform="translate(-990,-398) scale(1,1)"><rect fill="#ffffff" stroke="none" x="1000" y="568" width="56.483593749999955" height="15"/></g><g transform="translate(-990,-398) scale(1,1)"><path fill="none" stroke="#000000" d="M 1000 568 L 1056.48359375 568 L 1056.48359375 583 L 1000 583 L 1000 568 Z Z" stroke-miterlimit="10"/></g><g transform="translate(-990,-398) scale(1,1)"><rect fill="#ffffff" stroke="none" x="1000" y="582" width="141.208984375" height="40"/></g><g transform="translate(-990,-398) scale(1,1)"><path fill="none" stroke="#000000" d="M 1000 582 L 1141.208984375 582 L 1141.208984375 622 L 1000 622 L 1000 582 Z Z" stroke-miterlimit="10"/></g><g transform="translate(-990,-398) scale(1,1)"><path fill="none" stroke="#000000" d="M 1048.48359375 571 L 1048.48359375 575" stroke-miterlimit="10"/></g><g transform="translate(-990,-398) scale(1,1)"><path fill="none" stroke="#000000" d="M 1045.48359375 579 L 1045.48359375 575 L 1051.48359375 575" stroke-miterlimit="10"/></g><g transform="translate(-990,-398) scale(1,1)"><path fill="none" stroke="#000000" d="M 1051.48359375 579 L 1051.48359375 575 L 1045.48359375 575" stroke-miterlimit="10"/></g><g transform="translate(-990,-398) scale(1,1)"><g><path fill="none" stroke="none"/><text fill="#000000" stroke="none" font-family="Arial" font-size="13px" font-style="normal" font-weight="bold" text-decoration="none" x="1006.674072265625" y="602.5">S2G-MT-Usager-Back</text></g></g><g transform="translate(-990,-398) scale(1,1)"><g><path fill="none" stroke="none"/><text fill="#000000" stroke="none" font-family="Arial" font-size="13px" font-style="normal" font-weight="normal" text-decoration="none" x="1026.91357421875" y="617.5">(from S2G-MT)</text></g></g><g transform="translate(-990,-398) scale(1,1)"><path fill="none" stroke="#000000" d="M 1071 462 L 1071 568" stroke-miterlimit="10" stroke-dasharray="3"/></g><g transform="translate(-990,-398) scale(1,1)"><path fill="none" stroke="#000000" d="M 1066.7904822439841 557.8373251423759 L 1071 568 L 1075.2095177560159 557.8373251423759" stroke-miterlimit="10"/></g><g transform="translate(-990,-398) scale(1,1)"><rect fill="#C0C0C0" stroke="none" x="1277" y="423" width="38.557812499999955" height="15" opacity="0.2"/></g><g transform="translate(-990,-398) scale(1,1)"><rect fill="#C0C0C0" stroke="none" x="1277" y="437" width="96.39453125" height="40" opacity="0.2"/></g><g transform="translate(-990,-398) scale(1,1)"><rect fill="#ffffff" stroke="none" x="1270" y="431" width="96.39453125" height="39"/></g><g transform="translate(-990,-398) scale(1,1)"><path fill="none" stroke="#000000" d="M 1270 431 L 1366.39453125 431 L 1366.39453125 470 L 1270 470 L 1270 431 Z Z" stroke-miterlimit="10"/></g><g transform="translate(-990,-398) scale(1,1)"><rect fill="#ffffff" stroke="none" x="1270" y="416" width="38.557812499999955" height="15"/></g><g transform="translate(-990,-398) scale(1,1)"><path fill="none" stroke="#000000" d="M 1270 416 L 1308.5578125 416 L 1308.5578125 431 L 1270 431 L 1270 416 Z Z" stroke-miterlimit="10"/></g><g transform="translate(-990,-398) scale(1,1)"><rect fill="#ffffff" stroke="none" x="1270" y="430" width="96.39453125" height="40"/></g><g transform="translate(-990,-398) scale(1,1)"><path fill="none" stroke="#000000" d="M 1270 430 L 1366.39453125 430 L 1366.39453125 470 L 1270 470 L 1270 430 Z Z" stroke-miterlimit="10"/></g><g transform="translate(-990,-398) scale(1,1)"><path fill="none" stroke="#000000" d="M 1300.5578125 419 L 1300.5578125 423" stroke-miterlimit="10"/></g><g transform="translate(-990,-398) scale(1,1)"><path fill="none" stroke="#000000" d="M 1297.5578125 427 L 1297.5578125 423 L 1303.5578125 423" stroke-miterlimit="10"/></g><g transform="translate(-990,-398) scale(1,1)"><path fill="none" stroke="#000000" d="M 1303.5578125 427 L 1303.5578125 423 L 1297.5578125 423" stroke-miterlimit="10"/></g><g transform="translate(-990,-398) scale(1,1)"><g><path fill="none" stroke="none"/><text fill="#000000" stroke="none" font-family="Arial" font-size="13px" font-style="normal" font-weight="bold" text-decoration="none" x="1276.65185546875" y="450.5">MT-datamodel</text></g></g><g transform="translate(-990,-398) scale(1,1)"><g><path fill="none" stroke="none"/><text fill="#000000" stroke="none" font-family="Arial" font-size="13px" font-style="normal" font-weight="normal" text-decoration="none" x="1274.50634765625" y="465.5">(from S2G-MT)</text></g></g><g transform="translate(-990,-398) scale(1,1)"><path fill="none" stroke="#000000" d="M 1141 595 L 1192 595 L 1192 470 L 1270 470" stroke-miterlimit="10" stroke-dasharray="3"/></g><g transform="translate(-990,-398) scale(1,1)"><path fill="none" stroke="#000000" d="M 1259.837325142376 474.209517756016 L 1270 470 L 1259.837325142376 465.790482243984" stroke-miterlimit="10"/></g><g transform="translate(-990,-398) scale(1,1)"><rect fill="#C0C0C0" stroke="none" x="1247" y="575" width="46.086132812499955" height="15" opacity="0.2"/></g><g transform="translate(-990,-398) scale(1,1)"><rect fill="#C0C0C0" stroke="none" x="1247" y="589" width="115.21533203125" height="40" opacity="0.2"/></g><g transform="translate(-990,-398) scale(1,1)"><rect fill="#ffffff" stroke="none" x="1240" y="583" width="115.21533203125" height="39"/></g><g transform="translate(-990,-398) scale(1,1)"><path fill="none" stroke="#000000" d="M 1240 583 L 1355.21533203125 583 L 1355.21533203125 622 L 1240 622 L 1240 583 Z Z" stroke-miterlimit="10"/></g><g transform="translate(-990,-398) scale(1,1)"><rect fill="#ffffff" stroke="none" x="1240" y="568" width="46.086132812499955" height="15"/></g><g transform="translate(-990,-398) scale(1,1)"><path fill="none" stroke="#000000" d="M 1240 568 L 1286.0861328125 568 L 1286.0861328125 583 L 1240 583 L 1240 568 Z Z" stroke-miterlimit="10"/></g><g transform="translate(-990,-398) scale(1,1)"><rect fill="#ffffff" stroke="none" x="1240" y="582" width="115.21533203125" height="40"/></g><g transform="translate(-990,-398) scale(1,1)"><path fill="none" stroke="#000000" d="M 1240 582 L 1355.21533203125 582 L 1355.21533203125 622 L 1240 622 L 1240 582 Z Z" stroke-miterlimit="10"/></g><g transform="translate(-990,-398) scale(1,1)"><path fill="none" stroke="#000000" d="M 1278.0861328125 571 L 1278.0861328125 575" stroke-miterlimit="10"/></g><g transform="translate(-990,-398) scale(1,1)"><path fill="none" stroke="#000000" d="M 1275.0861328125 579 L 1275.0861328125 575 L 1281.0861328125 575" stroke-miterlimit="10"/></g><g transform="translate(-990,-398) scale(1,1)"><path fill="none" stroke="#000000" d="M 1281.0861328125 579 L 1281.0861328125 575 L 1275.0861328125 575" stroke-miterlimit="10"/></g><g transform="translate(-990,-398) scale(1,1)"><g><path fill="none" stroke="none"/><text fill="#000000" stroke="none" font-family="Arial" font-size="13px" font-style="normal" font-weight="bold" text-decoration="none" x="1246.32177734375" y="602.5">S2G-MT-Services</text></g></g><g transform="translate(-990,-398) scale(1,1)"><g><path fill="none" stroke="none"/><text fill="#000000" stroke="none" font-family="Arial" font-size="13px" font-style="normal" font-weight="normal" text-decoration="none" x="1253.916748046875" y="617.5">(from S2G-MT)</text></g></g><g transform="translate(-990,-398) scale(1,1)"><path fill="none" stroke="#000000" d="M 1314 568 L 1314 470" stroke-miterlimit="10" stroke-dasharray="3"/></g><g transform="translate(-990,-398) scale(1,1)"><path fill="none" stroke="#000000" d="M 1318.2095177560159 480.16267485762415 L 1314 470 L 1309.7904822439841 480.16267485762415" stroke-miterlimit="10"/></g><g transform="translate(-990,-398) scale(1,1)"><path fill="none" stroke="#000000" d="M 1141 601 L 1240 601" stroke-miterlimit="10" stroke-dasharray="3"/></g><g transform="translate(-990,-398) scale(1,1)"><path fill="none" stroke="#000000" d="M 1229.837325142376 605.209517756016 L 1240 601 L 1229.837325142376 596.790482243984" stroke-miterlimit="10"/></g></g></svg>