<svg version="1.1" xmlns="http://www.w3.org/2000/svg" xmlns:xlink="http://www.w3.org/1999/xlink" width="866.60986328125" height="364"><defs/><g><g transform="translate(-806,-654) scale(1,1)"><rect fill="#C0C0C0" stroke="none" x="961" y="671" width="510" height="344" opacity="0.2"/></g><g transform="translate(-806,-654) scale(1,1)"><rect fill="#ffffff" stroke="none" x="954" y="664" width="510" height="344"/></g><g transform="translate(-806,-654) scale(1,1)"><path fill="none" stroke="#000000" d="M 954 664 L 1464 664 L 1464 1008 L 954 1008 L 954 664 Z Z" stroke-miterlimit="10"/></g><g transform="translate(-806,-654) scale(1,1)"><rect fill="#ffffff" stroke="none" x="944" y="671" width="20" height="10"/></g><g transform="translate(-806,-654) scale(1,1)"><path fill="none" stroke="#000000" d="M 944 671 L 964 671 L 964 681 L 944 681 L 944 671 Z Z" stroke-miterlimit="10"/></g><g transform="translate(-806,-654) scale(1,1)"><rect fill="#ffffff" stroke="none" x="944" y="691" width="20" height="10"/></g><g transform="translate(-806,-654) scale(1,1)"><path fill="none" stroke="#000000" d="M 944 691 L 964 691 L 964 701 L 944 701 L 944 691 Z Z" stroke-miterlimit="10"/></g><g transform="translate(-806,-654) scale(1,1)"><g><path fill="none" stroke="none"/><text fill="#000000" stroke="none" font-family="Arial" font-size="13px" font-style="normal" font-weight="normal" text-decoration="none" x="1185.09912109375" y="681.5">«System»</text></g></g><g transform="translate(-806,-654) scale(1,1)"><g><path fill="none" stroke="none"/><text fill="#000000" stroke="none" font-family="Arial" font-size="13px" font-style="normal" font-weight="bold" text-decoration="none" x="1189.444091796875" y="696.5">S2G-MT</text></g></g><g transform="translate(-806,-654) scale(1,1)"><rect fill="#C0C0C0" stroke="none" x="981" y="764" width="57.336718750000045" height="15" opacity="0.2"/></g><g transform="translate(-806,-654) scale(1,1)"><rect fill="#C0C0C0" stroke="none" x="981" y="778" width="143.341796875" height="40" opacity="0.2"/></g><g transform="translate(-806,-654) scale(1,1)"><rect fill="#ffffff" stroke="none" x="974" y="772" width="143.341796875" height="39"/></g><g transform="translate(-806,-654) scale(1,1)"><path fill="none" stroke="#000000" d="M 974 772 L 1117.341796875 772 L 1117.341796875 811 L 974 811 L 974 772 Z Z" stroke-miterlimit="10"/></g><g transform="translate(-806,-654) scale(1,1)"><rect fill="#ffffff" stroke="none" x="974" y="757" width="57.336718750000045" height="15"/></g><g transform="translate(-806,-654) scale(1,1)"><path fill="none" stroke="#000000" d="M 974 757 L 1031.33671875 757 L 1031.33671875 772 L 974 772 L 974 757 Z Z" stroke-miterlimit="10"/></g><g transform="translate(-806,-654) scale(1,1)"><rect fill="#ffffff" stroke="none" x="974" y="771" width="143.341796875" height="40"/></g><g transform="translate(-806,-654) scale(1,1)"><path fill="none" stroke="#000000" d="M 974 771 L 1117.341796875 771 L 1117.341796875 811 L 974 811 L 974 771 Z Z" stroke-miterlimit="10"/></g><g transform="translate(-806,-654) scale(1,1)"><path fill="none" stroke="#000000" d="M 1023.33671875 760 L 1023.33671875 764" stroke-miterlimit="10"/></g><g transform="translate(-806,-654) scale(1,1)"><path fill="none" stroke="#000000" d="M 1020.33671875 768 L 1020.33671875 764 L 1026.33671875 764" stroke-miterlimit="10"/></g><g transform="translate(-806,-654) scale(1,1)"><path fill="none" stroke="#000000" d="M 1026.33671875 768 L 1026.33671875 764 L 1020.33671875 764" stroke-miterlimit="10"/></g><g transform="translate(-806,-654) scale(1,1)"><g><path fill="none" stroke="none"/><text fill="#000000" stroke="none" font-family="Arial" font-size="13px" font-style="normal" font-weight="bold" text-decoration="none" x="981.02001953125" y="791.5">S2G-MT-Usager-Front</text></g></g><g transform="translate(-806,-654) scale(1,1)"><g><path fill="none" stroke="none"/><text fill="#000000" stroke="none" font-family="Arial" font-size="13px" font-style="normal" font-weight="normal" text-decoration="none" x="1001.97998046875" y="806.5">(from S2G-MT)</text></g></g><g transform="translate(-806,-654) scale(1,1)"><rect fill="#C0C0C0" stroke="none" x="983" y="905" width="56.483593749999955" height="15" opacity="0.2"/></g><g transform="translate(-806,-654) scale(1,1)"><rect fill="#C0C0C0" stroke="none" x="983" y="919" width="141.208984375" height="40" opacity="0.2"/></g><g transform="translate(-806,-654) scale(1,1)"><rect fill="#ffffff" stroke="none" x="976" y="913" width="141.208984375" height="39"/></g><g transform="translate(-806,-654) scale(1,1)"><path fill="none" stroke="#000000" d="M 976 913 L 1117.208984375 913 L 1117.208984375 952 L 976 952 L 976 913 Z Z" stroke-miterlimit="10"/></g><g transform="translate(-806,-654) scale(1,1)"><rect fill="#ffffff" stroke="none" x="976" y="898" width="56.483593749999955" height="15"/></g><g transform="translate(-806,-654) scale(1,1)"><path fill="none" stroke="#000000" d="M 976 898 L 1032.48359375 898 L 1032.48359375 913 L 976 913 L 976 898 Z Z" stroke-miterlimit="10"/></g><g transform="translate(-806,-654) scale(1,1)"><rect fill="#ffffff" stroke="none" x="976" y="912" width="141.208984375" height="40"/></g><g transform="translate(-806,-654) scale(1,1)"><path fill="none" stroke="#000000" d="M 976 912 L 1117.208984375 912 L 1117.208984375 952 L 976 952 L 976 912 Z Z" stroke-miterlimit="10"/></g><g transform="translate(-806,-654) scale(1,1)"><path fill="none" stroke="#000000" d="M 1024.48359375 901 L 1024.48359375 905" stroke-miterlimit="10"/></g><g transform="translate(-806,-654) scale(1,1)"><path fill="none" stroke="#000000" d="M 1021.48359375 909 L 1021.48359375 905 L 1027.48359375 905" stroke-miterlimit="10"/></g><g transform="translate(-806,-654) scale(1,1)"><path fill="none" stroke="#000000" d="M 1027.48359375 909 L 1027.48359375 905 L 1021.48359375 905" stroke-miterlimit="10"/></g><g transform="translate(-806,-654) scale(1,1)"><g><path fill="none" stroke="none"/><text fill="#000000" stroke="none" font-family="Arial" font-size="13px" font-style="normal" font-weight="bold" text-decoration="none" x="982.674072265625" y="932.5">S2G-MT-Usager-Back</text></g></g><g transform="translate(-806,-654) scale(1,1)"><g><path fill="none" stroke="none"/><text fill="#000000" stroke="none" font-family="Arial" font-size="13px" font-style="normal" font-weight="normal" text-decoration="none" x="1002.91357421875" y="947.5">(from S2G-MT)</text></g></g><g transform="translate(-806,-654) scale(1,1)"><path fill="none" stroke="#000000" d="M 1045 811 L 1045 898" stroke-miterlimit="10" stroke-dasharray="3"/></g><g transform="translate(-806,-654) scale(1,1)"><path fill="none" stroke="#000000" d="M 1040.7904822439841 887.8373251423759 L 1045 898 L 1049.2095177560159 887.8373251423759" stroke-miterlimit="10"/></g><g transform="translate(-806,-654) scale(1,1)"><path fill="none" stroke="#000000" d="M 1104 898 L 1104 832 L 1160 832 L 1160 744 L 1296 744" stroke-miterlimit="10" stroke-dasharray="3"/></g><g transform="translate(-806,-654) scale(1,1)"><path fill="none" stroke="#000000" d="M 1285.837325142376 748.209517756016 L 1296 744 L 1285.837325142376 739.790482243984" stroke-miterlimit="10"/></g><g transform="translate(-806,-654) scale(1,1)"><rect fill="#C0C0C0" stroke="none" x="1333" y="940" width="45.210156249999955" height="15" opacity="0.2"/></g><g transform="translate(-806,-654) scale(1,1)"><rect fill="#C0C0C0" stroke="none" x="1333" y="954" width="113.025390625" height="40" opacity="0.2"/></g><g transform="translate(-806,-654) scale(1,1)"><rect fill="#ffffff" stroke="none" x="1326" y="948" width="113.025390625" height="39"/></g><g transform="translate(-806,-654) scale(1,1)"><path fill="none" stroke="#000000" d="M 1326 948 L 1439.025390625 948 L 1439.025390625 987 L 1326 987 L 1326 948 Z Z" stroke-miterlimit="10"/></g><g transform="translate(-806,-654) scale(1,1)"><rect fill="#ffffff" stroke="none" x="1326" y="933" width="45.210156249999955" height="15"/></g><g transform="translate(-806,-654) scale(1,1)"><path fill="none" stroke="#000000" d="M 1326 933 L 1371.21015625 933 L 1371.21015625 948 L 1326 948 L 1326 933 Z Z" stroke-miterlimit="10"/></g><g transform="translate(-806,-654) scale(1,1)"><rect fill="#ffffff" stroke="none" x="1326" y="947" width="113.025390625" height="40"/></g><g transform="translate(-806,-654) scale(1,1)"><path fill="none" stroke="#000000" d="M 1326 947 L 1439.025390625 947 L 1439.025390625 987 L 1326 987 L 1326 947 Z Z" stroke-miterlimit="10"/></g><g transform="translate(-806,-654) scale(1,1)"><path fill="none" stroke="#000000" d="M 1363.21015625 936 L 1363.21015625 940" stroke-miterlimit="10"/></g><g transform="translate(-806,-654) scale(1,1)"><path fill="none" stroke="#000000" d="M 1360.21015625 944 L 1360.21015625 940 L 1366.21015625 940" stroke-miterlimit="10"/></g><g transform="translate(-806,-654) scale(1,1)"><path fill="none" stroke="#000000" d="M 1366.21015625 944 L 1366.21015625 940 L 1360.21015625 940" stroke-miterlimit="10"/></g><g transform="translate(-806,-654) scale(1,1)"><g><path fill="none" stroke="none"/><text fill="#000000" stroke="none" font-family="Arial" font-size="13px" font-style="normal" font-weight="bold" text-decoration="none" x="1332.6708984375" y="967.5">S2G-MT-Security</text></g></g><g transform="translate(-806,-654) scale(1,1)"><g><path fill="none" stroke="none"/><text fill="#000000" stroke="none" font-family="Arial" font-size="13px" font-style="normal" font-weight="normal" text-decoration="none" x="1338.82177734375" y="982.5">(from S2G-MT)</text></g></g><g transform="translate(-806,-654) scale(1,1)"><path fill="none" stroke="#000000" d="M 1382 774 L 1382 933" stroke-miterlimit="10" stroke-dasharray="3"/></g><g transform="translate(-806,-654) scale(1,1)"><path fill="none" stroke="#000000" d="M 1377.7904822439841 922.8373251423759 L 1382 933 L 1386.2095177560159 922.8373251423759" stroke-miterlimit="10"/></g><g transform="translate(-806,-654) scale(1,1)"><path fill="none" stroke="#000000" d="M 1046 952 L 1046 973 L 1326 973" stroke-miterlimit="10" stroke-dasharray="3"/></g><g transform="translate(-806,-654) scale(1,1)"><path fill="none" stroke="#000000" d="M 1315.837325142376 977.209517756016 L 1326 973 L 1315.837325142376 968.790482243984" stroke-miterlimit="10"/></g><g transform="translate(-806,-654) scale(1,1)"><rect fill="#C0C0C0" stroke="none" x="1207" y="831" width="38.557812499999955" height="15" opacity="0.2"/></g><g transform="translate(-806,-654) scale(1,1)"><rect fill="#C0C0C0" stroke="none" x="1207" y="845" width="96.39453125" height="40" opacity="0.2"/></g><g transform="translate(-806,-654) scale(1,1)"><rect fill="#ffffff" stroke="none" x="1200" y="839" width="96.39453125" height="39"/></g><g transform="translate(-806,-654) scale(1,1)"><path fill="none" stroke="#000000" d="M 1200 839 L 1296.39453125 839 L 1296.39453125 878 L 1200 878 L 1200 839 Z Z" stroke-miterlimit="10"/></g><g transform="translate(-806,-654) scale(1,1)"><rect fill="#ffffff" stroke="none" x="1200" y="824" width="38.557812499999955" height="15"/></g><g transform="translate(-806,-654) scale(1,1)"><path fill="none" stroke="#000000" d="M 1200 824 L 1238.5578125 824 L 1238.5578125 839 L 1200 839 L 1200 824 Z Z" stroke-miterlimit="10"/></g><g transform="translate(-806,-654) scale(1,1)"><rect fill="#ffffff" stroke="none" x="1200" y="838" width="96.39453125" height="40"/></g><g transform="translate(-806,-654) scale(1,1)"><path fill="none" stroke="#000000" d="M 1200 838 L 1296.39453125 838 L 1296.39453125 878 L 1200 878 L 1200 838 Z Z" stroke-miterlimit="10"/></g><g transform="translate(-806,-654) scale(1,1)"><path fill="none" stroke="#000000" d="M 1230.5578125 827 L 1230.5578125 831" stroke-miterlimit="10"/></g><g transform="translate(-806,-654) scale(1,1)"><path fill="none" stroke="#000000" d="M 1227.5578125 835 L 1227.5578125 831 L 1233.5578125 831" stroke-miterlimit="10"/></g><g transform="translate(-806,-654) scale(1,1)"><path fill="none" stroke="#000000" d="M 1233.5578125 835 L 1233.5578125 831 L 1227.5578125 831" stroke-miterlimit="10"/></g><g transform="translate(-806,-654) scale(1,1)"><g><path fill="none" stroke="none"/><text fill="#000000" stroke="none" font-family="Arial" font-size="13px" font-style="normal" font-weight="bold" text-decoration="none" x="1206.65185546875" y="858.5">MT-datamodel</text></g></g><g transform="translate(-806,-654) scale(1,1)"><g><path fill="none" stroke="none"/><text fill="#000000" stroke="none" font-family="Arial" font-size="13px" font-style="normal" font-weight="normal" text-decoration="none" x="1204.50634765625" y="873.5">(from S2G-MT)</text></g></g><g transform="translate(-806,-654) scale(1,1)"><path fill="none" stroke="#000000" d="M 1353 774 L 1353 808 L 1224 808 L 1224 824" stroke-miterlimit="10" stroke-dasharray="3"/></g><g transform="translate(-806,-654) scale(1,1)"><path fill="none" stroke="#000000" d="M 1219.7904822439841 813.8373251423759 L 1224 824 L 1228.2095177560159 813.8373251423759" stroke-miterlimit="10"/></g><g transform="translate(-806,-654) scale(1,1)"><path fill="none" stroke="#000000" d="M 1352 933 L 1352 851 L 1296 851" stroke-miterlimit="10" stroke-dasharray="3"/></g><g transform="translate(-806,-654) scale(1,1)"><path fill="none" stroke="#000000" d="M 1306.162674857624 846.790482243984 L 1296 851 L 1306.162674857624 855.209517756016" stroke-miterlimit="10"/></g><g transform="translate(-806,-654) scale(1,1)"><path fill="none" stroke="#000000" d="M 1117 925 L 1142 925 L 1142 851 L 1200 851" stroke-miterlimit="10" stroke-dasharray="3"/></g><g transform="translate(-806,-654) scale(1,1)"><path fill="none" stroke="#000000" d="M 1189.837325142376 855.209517756016 L 1200 851 L 1189.837325142376 846.790482243984" stroke-miterlimit="10"/></g><g transform="translate(-806,-654) scale(1,1)"><path fill="#ff7f00" stroke="none" d="M 1576.2147498224433 708.23 C 1576.2147498224433 702.027841696 1581.1799927932068 697 1587.304931640625 697 C 1593.4298704880432 697 1598.3951134588067 702.027841696 1598.3951134588067 708.23 C 1598.3951134588067 714.432158304 1593.4298704880432 719.46 1587.304931640625 719.46 C 1581.1799927932068 719.46 1576.2147498224433 714.432158304 1576.2147498224433 708.23 Z"/></g><g transform="translate(-806,-654) scale(1,1)"><path fill="none" stroke="#000000" d="M 1576.2147498224433 708.23 C 1576.2147498224433 702.027841696 1581.1799927932068 697 1587.304931640625 697 C 1593.4298704880432 697 1598.3951134588067 702.027841696 1598.3951134588067 708.23 C 1598.3951134588067 714.432158304 1593.4298704880432 719.46 1587.304931640625 719.46 C 1581.1799927932068 719.46 1576.2147498224433 714.432158304 1576.2147498224433 708.23 Z" stroke-miterlimit="10"/></g><g transform="translate(-806,-654) scale(1,1)"><path fill="none" stroke="#000000" d="M 1587.304931640625 719.46 L 1587.304931640625 741.54" stroke-miterlimit="10"/></g><g transform="translate(-806,-654) scale(1,1)"><path fill="none" stroke="#000000" d="M 1575.5623861860795 727.74 L 1599.0474770951705 727.74" stroke-miterlimit="10"/></g><g transform="translate(-806,-654) scale(1,1)"><path fill="none" stroke="#000000" d="M 1587.304931640625 741.54 L 1570.9958407315341 764" stroke-miterlimit="10"/></g><g transform="translate(-806,-654) scale(1,1)"><path fill="none" stroke="#000000" d="M 1587.304931640625 741.54 L 1603.6140225497159 764" stroke-miterlimit="10"/></g><g transform="translate(-806,-654) scale(1,1)"><g><path fill="none" stroke="none"/><text fill="#000000" stroke="none" font-family="Arial" font-size="13px" font-style="normal" font-weight="normal" text-decoration="none" x="1516.5" y="782.5">«Dara Provider System»</text></g></g><g transform="translate(-806,-654) scale(1,1)"><g><path fill="none" stroke="none"/><text fill="#000000" stroke="none" font-family="Arial" font-size="13px" font-style="normal" font-weight="bold" text-decoration="none" x="1547.58447265625" y="797.5">GRDF ADICT</text></g></g><g transform="translate(-806,-654) scale(1,1)"><path fill="#ffca2b" stroke="none" d="M 846.9657263849432 748.23 C 846.9657263849432 742.027841696 851.9309693557068 737 858.055908203125 737 C 864.1808470505432 737 869.1460900213068 742.027841696 869.1460900213068 748.23 C 869.1460900213068 754.432158304 864.1808470505432 759.46 858.055908203125 759.46 C 851.9309693557068 759.46 846.9657263849432 754.432158304 846.9657263849432 748.23 Z"/></g><g transform="translate(-806,-654) scale(1,1)"><path fill="none" stroke="#000000" d="M 846.9657263849432 748.23 C 846.9657263849432 742.027841696 851.9309693557068 737 858.055908203125 737 C 864.1808470505432 737 869.1460900213068 742.027841696 869.1460900213068 748.23 C 869.1460900213068 754.432158304 864.1808470505432 759.46 858.055908203125 759.46 C 851.9309693557068 759.46 846.9657263849432 754.432158304 846.9657263849432 748.23 Z" stroke-miterlimit="10"/></g><g transform="translate(-806,-654) scale(1,1)"><path fill="none" stroke="#000000" d="M 858.055908203125 759.46 L 858.055908203125 781.54" stroke-miterlimit="10"/></g><g transform="translate(-806,-654) scale(1,1)"><path fill="none" stroke="#000000" d="M 846.3133627485796 767.74 L 869.7984536576704 767.74" stroke-miterlimit="10"/></g><g transform="translate(-806,-654) scale(1,1)"><path fill="none" stroke="#000000" d="M 858.055908203125 781.54 L 841.7468172940341 804" stroke-miterlimit="10"/></g><g transform="translate(-806,-654) scale(1,1)"><path fill="none" stroke="#000000" d="M 858.055908203125 781.54 L 874.3649991122159 804" stroke-miterlimit="10"/></g><g transform="translate(-806,-654) scale(1,1)"><g><path fill="none" stroke="none"/><text fill="#000000" stroke="none" font-family="Arial" font-size="13px" font-style="normal" font-weight="normal" text-decoration="none" x="823.73095703125" y="822.5">«End User»</text></g></g><g transform="translate(-806,-654) scale(1,1)"><g><path fill="none" stroke="none"/><text fill="#000000" stroke="none" font-family="Arial" font-size="13px" font-style="normal" font-weight="bold" text-decoration="none" x="838.187744140625" y="837.5">Citizen</text></g></g><g transform="translate(-806,-654) scale(1,1)"><path fill="none" stroke="#000000" d="M 901 788 L 973 786" stroke-miterlimit="10" stroke-dasharray="3"/></g><g transform="translate(-806,-654) scale(1,1)"><path fill="none" stroke="#000000" d="M 962.9581296224949 790.4900823290208 L 973 786 L 962.7243576973333 782.0742930232062" stroke-miterlimit="10"/></g><g transform="translate(-806,-654) scale(1,1)"><rect fill="#C0C0C0" stroke="none" x="1303" y="727" width="46.086132812499955" height="15" opacity="0.2"/></g><g transform="translate(-806,-654) scale(1,1)"><rect fill="#C0C0C0" stroke="none" x="1303" y="741" width="115.21533203125" height="40" opacity="0.2"/></g><g transform="translate(-806,-654) scale(1,1)"><rect fill="#ffffff" stroke="none" x="1296" y="735" width="115.21533203125" height="39"/></g><g transform="translate(-806,-654) scale(1,1)"><path fill="none" stroke="#000000" d="M 1296 735 L 1411.21533203125 735 L 1411.21533203125 774 L 1296 774 L 1296 735 Z Z" stroke-miterlimit="10"/></g><g transform="translate(-806,-654) scale(1,1)"><rect fill="#ffffff" stroke="none" x="1296" y="720" width="46.086132812499955" height="15"/></g><g transform="translate(-806,-654) scale(1,1)"><path fill="none" stroke="#000000" d="M 1296 720 L 1342.0861328125 720 L 1342.0861328125 735 L 1296 735 L 1296 720 Z Z" stroke-miterlimit="10"/></g><g transform="translate(-806,-654) scale(1,1)"><rect fill="#ffffff" stroke="none" x="1296" y="734" width="115.21533203125" height="40"/></g><g transform="translate(-806,-654) scale(1,1)"><path fill="none" stroke="#000000" d="M 1296 734 L 1411.21533203125 734 L 1411.21533203125 774 L 1296 774 L 1296 734 Z Z" stroke-miterlimit="10"/></g><g transform="translate(-806,-654) scale(1,1)"><path fill="none" stroke="#000000" d="M 1334.0861328125 723 L 1334.0861328125 727" stroke-miterlimit="10"/></g><g transform="translate(-806,-654) scale(1,1)"><path fill="none" stroke="#000000" d="M 1331.0861328125 731 L 1331.0861328125 727 L 1337.0861328125 727" stroke-miterlimit="10"/></g><g transform="translate(-806,-654) scale(1,1)"><path fill="none" stroke="#000000" d="M 1337.0861328125 731 L 1337.0861328125 727 L 1331.0861328125 727" stroke-miterlimit="10"/></g><g transform="translate(-806,-654) scale(1,1)"><g><path fill="none" stroke="none"/><text fill="#000000" stroke="none" font-family="Arial" font-size="13px" font-style="normal" font-weight="bold" text-decoration="none" x="1302.32177734375" y="754.5">S2G-MT-Services</text></g></g><g transform="translate(-806,-654) scale(1,1)"><g><path fill="none" stroke="none"/><text fill="#000000" stroke="none" font-family="Arial" font-size="13px" font-style="normal" font-weight="normal" text-decoration="none" x="1309.916748046875" y="769.5">(from S2G-MT)</text></g></g><g transform="translate(-806,-654) scale(1,1)"><path fill="none" stroke="#000000" d="M 1412 748 L 1511 748" stroke-miterlimit="10" stroke-dasharray="3"/></g><g transform="translate(-806,-654) scale(1,1)"><path fill="none" stroke="#000000" d="M 1500.837325142376 752.209517756016 L 1511 748 L 1500.837325142376 743.790482243984" stroke-miterlimit="10"/></g></g></svg>