<svg version="1.1" xmlns="http://www.w3.org/2000/svg" xmlns:xlink="http://www.w3.org/1999/xlink" width="170.2607421875" height="105"><defs/><g><g transform="translate(-398,-150) scale(1,1)"><rect fill="#C0C0C0" stroke="none" x="415" y="167" width="150.2607421875" height="85" opacity="0.2"/></g><g transform="translate(-398,-150) scale(1,1)"><rect fill="#ffffff" stroke="none" x="408" y="160" width="150.2607421875" height="85"/></g><g transform="translate(-398,-150) scale(1,1)"><path fill="none" stroke="#000000" d="M 408 160 L 558.2607421875 160 L 558.2607421875 245 L 408 245 L 408 160 Z Z" stroke-miterlimit="10"/></g><g transform="translate(-398,-150) scale(1,1)"><path fill="none" stroke="#000000" d="M 408 198 L 558.2607421875 198" stroke-miterlimit="10"/></g><g transform="translate(-398,-150) scale(1,1)"><path fill="none" stroke="#000000" d="M 408 208 L 558.2607421875 208" stroke-miterlimit="10"/></g><g transform="translate(-398,-150) scale(1,1)"><g><path fill="none" stroke="none"/><text fill="#000000" stroke="none" font-family="Arial" font-size="13px" font-style="normal" font-weight="normal" text-decoration="none" x="454.226318359375" y="177.5">«Service»</text></g></g><g transform="translate(-398,-150) scale(1,1)"><g><path fill="none" stroke="none"/><text fill="#000000" stroke="none" font-family="Arial" font-size="13px" font-style="normal" font-weight="bold" text-decoration="none" x="431.82861328125" y="192.5">LoginUserService</text></g></g><g transform="translate(-398,-150) scale(1,1)"><g><path fill="none" stroke="none"/><text fill="#000000" stroke="none" font-family="Arial" font-size="13px" font-style="normal" font-weight="normal" text-decoration="none" x="413" y="225.5">+subscribe(Message)</text></g></g><g transform="translate(-398,-150) scale(1,1)"><g><path fill="none" stroke="none"/><text fill="#000000" stroke="none" font-family="Arial" font-size="13px" font-style="normal" font-weight="normal" text-decoration="none" x="413" y="240.5">+requestLostPassword()</text></g></g></g></svg>