<svg version="1.1" xmlns="http://www.w3.org/2000/svg" xmlns:xlink="http://www.w3.org/1999/xlink" width="902.33251953125" height="3013.5"><defs/><g><g transform="translate(-37.09814453125,-10) scale(1,1)"><rect fill="#C0C0C0" stroke="none" x="459.14990234375" y="517" width="183.814453125" height="24" opacity="0.2"/></g><g transform="translate(-37.09814453125,-10) scale(1,1)"><rect fill="#ffffff" stroke="none" x="452.14990234375" y="510" width="183.814453125" height="24"/></g><g transform="translate(-37.09814453125,-10) scale(1,1)"><path fill="none" stroke="#000000" d="M 452.14990234375 510 L 635.96435546875 510 L 635.96435546875 534 L 452.14990234375 534 L 452.14990234375 510 Z Z" stroke-miterlimit="10"/></g><g transform="translate(-37.09814453125,-10) scale(1,1)"><g><path fill="none" stroke="none"/><text fill="#000000" stroke="none" font-family="Arial" font-size="13px" font-style="normal" font-weight="bold" text-decoration="none" x="461.33447265625" y="529.5">ComelitDemandObjectJSON</text></g></g><g transform="translate(-37.09814453125,-10) scale(1,1)"><rect fill="#C0C0C0" stroke="none" x="128.130859375" y="27" width="79.7763671875" height="24" opacity="0.2"/></g><g transform="translate(-37.09814453125,-10) scale(1,1)"><rect fill="#ffffff" stroke="none" x="121.130859375" y="20" width="79.7763671875" height="24"/></g><g transform="translate(-37.09814453125,-10) scale(1,1)"><path fill="none" stroke="#000000" d="M 121.130859375 20 L 200.9072265625 20 L 200.9072265625 44 L 121.130859375 44 L 121.130859375 20 Z Z" stroke-miterlimit="10"/></g><g transform="translate(-37.09814453125,-10) scale(1,1)"><g><path fill="none" stroke="none"/><text fill="#000000" stroke="none" font-family="Arial" font-size="13px" font-style="normal" font-weight="bold" text-decoration="none" x="127.779541015625" y="39.5">LoginJSON</text></g></g><g transform="translate(-37.09814453125,-10) scale(1,1)"><rect fill="#C0C0C0" stroke="none" x="117.660400390625" y="62" width="100.71728515625" height="24" opacity="0.2"/></g><g transform="translate(-37.09814453125,-10) scale(1,1)"><rect fill="#ffffff" stroke="none" x="110.660400390625" y="55" width="100.71728515625" height="24"/></g><g transform="translate(-37.09814453125,-10) scale(1,1)"><path fill="none" stroke="#000000" d="M 110.660400390625 55 L 211.377685546875 55 L 211.377685546875 79 L 110.660400390625 79 L 110.660400390625 55 Z Z" stroke-miterlimit="10"/></g><g transform="translate(-37.09814453125,-10) scale(1,1)"><g><path fill="none" stroke="none"/><text fill="#000000" stroke="none" font-family="Arial" font-size="13px" font-style="normal" font-weight="bold" text-decoration="none" x="118.023193359375" y="74.5">EndpointJSON</text></g></g><g transform="translate(-37.09814453125,-10) scale(1,1)"><rect fill="#C0C0C0" stroke="none" x="129.568603515625" y="97" width="76.90087890625" height="24" opacity="0.2"/></g><g transform="translate(-37.09814453125,-10) scale(1,1)"><rect fill="#ffffff" stroke="none" x="122.568603515625" y="90" width="76.90087890625" height="24"/></g><g transform="translate(-37.09814453125,-10) scale(1,1)"><path fill="none" stroke="#000000" d="M 122.568603515625 90 L 199.469482421875 90 L 199.469482421875 114 L 122.568603515625 114 L 122.568603515625 90 Z Z" stroke-miterlimit="10"/></g><g transform="translate(-37.09814453125,-10) scale(1,1)"><g><path fill="none" stroke="none"/><text fill="#000000" stroke="none" font-family="Arial" font-size="13px" font-style="normal" font-weight="bold" text-decoration="none" x="128.8681640625" y="109.5">BodyJSON</text></g></g><g transform="translate(-37.09814453125,-10) scale(1,1)"><rect fill="#C0C0C0" stroke="none" x="129.924072265625" y="132" width="76.18994140625" height="24" opacity="0.2"/></g><g transform="translate(-37.09814453125,-10) scale(1,1)"><rect fill="#ffffff" stroke="none" x="122.924072265625" y="125" width="76.18994140625" height="24"/></g><g transform="translate(-37.09814453125,-10) scale(1,1)"><path fill="none" stroke="#000000" d="M 122.924072265625 125 L 199.114013671875 125 L 199.114013671875 149 L 122.924072265625 149 L 122.924072265625 125 Z Z" stroke-miterlimit="10"/></g><g transform="translate(-37.09814453125,-10) scale(1,1)"><g><path fill="none" stroke="none"/><text fill="#000000" stroke="none" font-family="Arial" font-size="13px" font-style="normal" font-weight="bold" text-decoration="none" x="129.239501953125" y="144.5">ErrorJSON</text></g></g><g transform="translate(-37.09814453125,-10) scale(1,1)"><rect fill="#C0C0C0" stroke="none" x="128.1181640625" y="167" width="79.8017578125" height="24" opacity="0.2"/></g><g transform="translate(-37.09814453125,-10) scale(1,1)"><rect fill="#ffffff" stroke="none" x="121.1181640625" y="160" width="79.8017578125" height="24"/></g><g transform="translate(-37.09814453125,-10) scale(1,1)"><path fill="none" stroke="#000000" d="M 121.1181640625 160 L 200.919921875 160 L 200.919921875 184 L 121.1181640625 184 L 121.1181640625 160 Z Z" stroke-miterlimit="10"/></g><g transform="translate(-37.09814453125,-10) scale(1,1)"><g><path fill="none" stroke="none"/><text fill="#000000" stroke="none" font-family="Arial" font-size="13px" font-style="normal" font-weight="bold" text-decoration="none" x="127.0654296875" y="179.5">CcapiJSON</text></g></g><g transform="translate(-37.09814453125,-10) scale(1,1)"><rect fill="#C0C0C0" stroke="none" x="491.6689453125" y="184.5" width="118.7763671875" height="24" opacity="0.2"/></g><g transform="translate(-37.09814453125,-10) scale(1,1)"><rect fill="#ffffff" stroke="none" x="484.6689453125" y="177.5" width="118.7763671875" height="24"/></g><g transform="translate(-37.09814453125,-10) scale(1,1)"><path fill="none" stroke="#000000" d="M 484.6689453125 177.5 L 603.4453125 177.5 L 603.4453125 201.5 L 484.6689453125 201.5 L 484.6689453125 177.5 Z Z" stroke-miterlimit="10"/></g><g transform="translate(-37.09814453125,-10) scale(1,1)"><g><path fill="none" stroke="none"/><text fill="#000000" stroke="none" font-family="Arial" font-size="13px" font-style="normal" font-weight="bold" text-decoration="none" x="492.38720703125" y="197">ConfDataConnect</text></g></g><g transform="translate(-37.09814453125,-10) scale(1,1)"><rect fill="#C0C0C0" stroke="none" x="85.135009765625" y="202" width="165.76806640625" height="24" opacity="0.2"/></g><g transform="translate(-37.09814453125,-10) scale(1,1)"><rect fill="#ffffff" stroke="none" x="78.135009765625" y="195" width="165.76806640625" height="24"/></g><g transform="translate(-37.09814453125,-10) scale(1,1)"><path fill="none" stroke="#000000" d="M 78.135009765625 195 L 243.903076171875 195 L 243.903076171875 219 L 78.135009765625 219 L 78.135009765625 195 Z Z" stroke-miterlimit="10"/></g><g transform="translate(-37.09814453125,-10) scale(1,1)"><g><path fill="none" stroke="none"/><text fill="#000000" stroke="none" font-family="Arial" font-size="13px" font-style="italic" font-weight="bold" text-decoration="none" x="87.6845703125" y="214.5">ConfDataProviderSystem</text></g></g><g transform="translate(-37.09814453125,-10) scale(1,1)"><rect fill="#C0C0C0" stroke="none" x="501.787109375" y="219.5" width="98.5400390625" height="24" opacity="0.2"/></g><g transform="translate(-37.09814453125,-10) scale(1,1)"><rect fill="#ffffff" stroke="none" x="494.787109375" y="212.5" width="98.5400390625" height="24"/></g><g transform="translate(-37.09814453125,-10) scale(1,1)"><path fill="none" stroke="#000000" d="M 494.787109375 212.5 L 593.3271484375 212.5 L 593.3271484375 236.5 L 494.787109375 236.5 L 494.787109375 212.5 Z Z" stroke-miterlimit="10"/></g><g transform="translate(-37.09814453125,-10) scale(1,1)"><g><path fill="none" stroke="none"/><text fill="#000000" stroke="none" font-family="Arial" font-size="13px" font-style="normal" font-weight="bold" text-decoration="none" x="503.2353515625" y="232">ConfGrdfAdict</text></g></g><g transform="translate(-37.09814453125,-10) scale(1,1)"><rect fill="#C0C0C0" stroke="none" x="136.05908203125" y="237" width="63.919921875" height="24" opacity="0.2"/></g><g transform="translate(-37.09814453125,-10) scale(1,1)"><rect fill="#ffffff" stroke="none" x="129.05908203125" y="230" width="63.919921875" height="24"/></g><g transform="translate(-37.09814453125,-10) scale(1,1)"><path fill="none" stroke="#000000" d="M 129.05908203125 230 L 192.97900390625 230 L 192.97900390625 254 L 129.05908203125 254 L 129.05908203125 230 Z Z" stroke-miterlimit="10"/></g><g transform="translate(-37.09814453125,-10) scale(1,1)"><g><path fill="none" stroke="none"/><text fill="#000000" stroke="none" font-family="Arial" font-size="13px" font-style="normal" font-weight="bold" text-decoration="none" x="134.64453125" y="249.5">Message</text></g></g><g transform="translate(-37.09814453125,-10) scale(1,1)"><rect fill="#C0C0C0" stroke="none" x="100.6708984375" y="289.5" width="134.6962890625" height="37" opacity="0.2"/></g><g transform="translate(-37.09814453125,-10) scale(1,1)"><rect fill="#ffffff" stroke="none" x="93.6708984375" y="282.5" width="134.6962890625" height="37"/></g><g transform="translate(-37.09814453125,-10) scale(1,1)"><path fill="none" stroke="#000000" d="M 93.6708984375 282.5 L 228.3671875 282.5 L 228.3671875 319.5 L 93.6708984375 319.5 L 93.6708984375 282.5 Z Z" stroke-miterlimit="10"/></g><g transform="translate(-37.09814453125,-10) scale(1,1)"><g><path fill="none" stroke="none"/><text fill="#000000" stroke="none" font-family="Arial" font-size="13px" font-style="normal" font-weight="normal" text-decoration="none" x="131.0263671875" y="300">«Handler»</text></g></g><g transform="translate(-37.09814453125,-10) scale(1,1)"><g><path fill="none" stroke="none"/><text fill="#000000" stroke="none" font-family="Arial" font-size="13px" font-style="italic" font-weight="bold" text-decoration="none" x="102.85546875" y="315">AbstractDpsHandler</text></g></g><g transform="translate(-37.09814453125,-10) scale(1,1)"><rect fill="#C0C0C0" stroke="none" x="128.241943359375" y="324.5" width="79.55419921875" height="24" opacity="0.2"/></g><g transform="translate(-37.09814453125,-10) scale(1,1)"><rect fill="#ffffff" stroke="none" x="121.241943359375" y="317.5" width="79.55419921875" height="24"/></g><g transform="translate(-37.09814453125,-10) scale(1,1)"><path fill="none" stroke="#000000" d="M 121.241943359375 317.5 L 200.796142578125 317.5 L 200.796142578125 341.5 L 121.241943359375 341.5 L 121.241943359375 317.5 Z Z" stroke-miterlimit="10"/></g><g transform="translate(-37.09814453125,-10) scale(1,1)"><g><path fill="none" stroke="none"/><text fill="#000000" stroke="none" font-family="Arial" font-size="13px" font-style="normal" font-weight="bold" text-decoration="none" x="127.779541015625" y="337">CodeTester</text></g></g><g transform="translate(-37.09814453125,-10) scale(1,1)"><rect fill="#C0C0C0" stroke="none" x="112.214111328125" y="359.5" width="111.60986328125" height="37" opacity="0.2"/></g><g transform="translate(-37.09814453125,-10) scale(1,1)"><rect fill="#ffffff" stroke="none" x="105.214111328125" y="352.5" width="111.60986328125" height="37"/></g><g transform="translate(-37.09814453125,-10) scale(1,1)"><path fill="none" stroke="#000000" d="M 105.214111328125 352.5 L 216.823974609375 352.5 L 216.823974609375 389.5 L 105.214111328125 389.5 L 105.214111328125 352.5 Z Z" stroke-miterlimit="10"/></g><g transform="translate(-37.09814453125,-10) scale(1,1)"><g><path fill="none" stroke="none"/><text fill="#000000" stroke="none" font-family="Arial" font-size="13px" font-style="normal" font-weight="normal" text-decoration="none" x="132.114990234375" y="370">«Service»</text></g></g><g transform="translate(-37.09814453125,-10) scale(1,1)"><g><path fill="none" stroke="none"/><text fill="#000000" stroke="none" font-family="Arial" font-size="13px" font-style="normal" font-weight="bold" text-decoration="none" x="113.341796875" y="385">DpsErrorService</text></g></g><g transform="translate(-37.09814453125,-10) scale(1,1)"><rect fill="#C0C0C0" stroke="none" x="103.55908203125" y="394.5" width="128.919921875" height="37" opacity="0.2"/></g><g transform="translate(-37.09814453125,-10) scale(1,1)"><rect fill="#ffffff" stroke="none" x="96.55908203125" y="387.5" width="128.919921875" height="37"/></g><g transform="translate(-37.09814453125,-10) scale(1,1)"><path fill="none" stroke="#000000" d="M 96.55908203125 387.5 L 225.47900390625 387.5 L 225.47900390625 424.5 L 96.55908203125 424.5 L 96.55908203125 387.5 Z Z" stroke-miterlimit="10"/></g><g transform="translate(-37.09814453125,-10) scale(1,1)"><g><path fill="none" stroke="none"/><text fill="#000000" stroke="none" font-family="Arial" font-size="13px" font-style="normal" font-weight="normal" text-decoration="none" x="132.1181640625" y="405">«Factory»</text></g></g><g transform="translate(-37.09814453125,-10) scale(1,1)"><g><path fill="none" stroke="none"/><text fill="#000000" stroke="none" font-family="Arial" font-size="13px" font-style="normal" font-weight="bold" text-decoration="none" x="105.0263671875" y="420">DpsHandlerFactory</text></g></g><g transform="translate(-37.09814453125,-10) scale(1,1)"><rect fill="#C0C0C0" stroke="none" x="120.174072265625" y="429.5" width="95.68994140625" height="37" opacity="0.2"/></g><g transform="translate(-37.09814453125,-10) scale(1,1)"><rect fill="#ffffff" stroke="none" x="113.174072265625" y="422.5" width="95.68994140625" height="37"/></g><g transform="translate(-37.09814453125,-10) scale(1,1)"><path fill="none" stroke="#000000" d="M 113.174072265625 422.5 L 208.864013671875 422.5 L 208.864013671875 459.5 L 113.174072265625 459.5 L 113.174072265625 422.5 Z Z" stroke-miterlimit="10"/></g><g transform="translate(-37.09814453125,-10) scale(1,1)"><g><path fill="none" stroke="none"/><text fill="#000000" stroke="none" font-family="Arial" font-size="13px" font-style="normal" font-weight="normal" text-decoration="none" x="124.52001953125" y="440">«Response»</text></g></g><g transform="translate(-37.09814453125,-10) scale(1,1)"><g><path fill="none" stroke="none"/><text fill="#000000" stroke="none" font-family="Arial" font-size="13px" font-style="normal" font-weight="bold" text-decoration="none" x="120.19091796875" y="455">DpsResponse</text></g></g><g transform="translate(-37.09814453125,-10) scale(1,1)"><rect fill="#C0C0C0" stroke="none" x="109.357666015625" y="2966" width="117.32275390625" height="37" opacity="0.2"/></g><g transform="translate(-37.09814453125,-10) scale(1,1)"><rect fill="#ffffff" stroke="none" x="102.357666015625" y="2959" width="117.32275390625" height="37"/></g><g transform="translate(-37.09814453125,-10) scale(1,1)"><path fill="none" stroke="#000000" d="M 102.357666015625 2959 L 219.680419921875 2959 L 219.680419921875 2996 L 102.357666015625 2996 L 102.357666015625 2959 Z Z" stroke-miterlimit="10"/></g><g transform="translate(-37.09814453125,-10) scale(1,1)"><g><path fill="none" stroke="none"/><text fill="#000000" stroke="none" font-family="Arial" font-size="13px" font-style="normal" font-weight="normal" text-decoration="none" x="115.490478515625" y="2976.5">«Consumption»</text></g></g><g transform="translate(-37.09814453125,-10) scale(1,1)"><g><path fill="none" stroke="none"/><text fill="#000000" stroke="none" font-family="Arial" font-size="13px" font-style="normal" font-weight="bold" text-decoration="none" x="111.161376953125" y="2991.5">DsoConsumption</text></g></g><g transform="translate(-37.09814453125,-10) scale(1,1)"><rect fill="#C0C0C0" stroke="none" x="86.236328125" y="464.5" width="163.5654296875" height="37" opacity="0.2"/></g><g transform="translate(-37.09814453125,-10) scale(1,1)"><rect fill="#ffffff" stroke="none" x="79.236328125" y="457.5" width="163.5654296875" height="37"/></g><g transform="translate(-37.09814453125,-10) scale(1,1)"><path fill="none" stroke="#000000" d="M 79.236328125 457.5 L 242.8017578125 457.5 L 242.8017578125 494.5 L 79.236328125 494.5 L 79.236328125 457.5 Z Z" stroke-miterlimit="10"/></g><g transform="translate(-37.09814453125,-10) scale(1,1)"><g><path fill="none" stroke="none"/><text fill="#000000" stroke="none" font-family="Arial" font-size="13px" font-style="normal" font-weight="normal" text-decoration="none" x="92.369140625" y="475">«Consumption Interval»</text></g></g><g transform="translate(-37.09814453125,-10) scale(1,1)"><g><path fill="none" stroke="none"/><text fill="#000000" stroke="none" font-family="Arial" font-size="13px" font-style="normal" font-weight="bold" text-decoration="none" x="89.845947265625" y="490">DsoConsumptionInterval</text></g></g><g transform="translate(-37.09814453125,-10) scale(1,1)"><rect fill="#C0C0C0" stroke="none" x="474.67626953125" y="254.5" width="152.76171875" height="37" opacity="0.2"/></g><g transform="translate(-37.09814453125,-10) scale(1,1)"><rect fill="#ffffff" stroke="none" x="467.67626953125" y="247.5" width="152.76171875" height="37"/></g><g transform="translate(-37.09814453125,-10) scale(1,1)"><path fill="none" stroke="#000000" d="M 467.67626953125 247.5 L 620.43798828125 247.5 L 620.43798828125 284.5 L 467.67626953125 284.5 L 467.67626953125 247.5 Z Z" stroke-miterlimit="10"/></g><g transform="translate(-37.09814453125,-10) scale(1,1)"><g><path fill="none" stroke="none"/><text fill="#000000" stroke="none" font-family="Arial" font-size="13px" font-style="normal" font-weight="normal" text-decoration="none" x="514.064453125" y="265">«Handler»</text></g></g><g transform="translate(-37.09814453125,-10) scale(1,1)"><g><path fill="none" stroke="none"/><text fill="#000000" stroke="none" font-family="Arial" font-size="13px" font-style="italic" font-weight="bold" text-decoration="none" x="477.578125" y="280">AbstractEnedisHandler</text></g></g><g transform="translate(-37.09814453125,-10) scale(1,1)"><rect fill="#C0C0C0" stroke="none" x="476.615478515625" y="552" width="148.88330078125" height="24" opacity="0.2"/></g><g transform="translate(-37.09814453125,-10) scale(1,1)"><rect fill="#ffffff" stroke="none" x="469.615478515625" y="545" width="148.88330078125" height="24"/></g><g transform="translate(-37.09814453125,-10) scale(1,1)"><path fill="none" stroke="#000000" d="M 469.615478515625 545 L 618.498779296875 545 L 618.498779296875 569 L 469.615478515625 569 L 469.615478515625 545 Z Z" stroke-miterlimit="10"/></g><g transform="translate(-37.09814453125,-10) scale(1,1)"><g><path fill="none" stroke="none"/><text fill="#000000" stroke="none" font-family="Arial" font-size="13px" font-style="normal" font-weight="bold" text-decoration="none" x="479.377685546875" y="564.5">EnedisAuthorizeToken</text></g></g><g transform="translate(-37.09814453125,-10) scale(1,1)"><rect fill="#C0C0C0" stroke="none" x="483.363037109375" y="1916.5" width="135.38818359375" height="24" opacity="0.2"/></g><g transform="translate(-37.09814453125,-10) scale(1,1)"><rect fill="#ffffff" stroke="none" x="476.363037109375" y="1909.5" width="135.38818359375" height="24"/></g><g transform="translate(-37.09814453125,-10) scale(1,1)"><path fill="none" stroke="#000000" d="M 476.363037109375 1909.5 L 611.751220703125 1909.5 L 611.751220703125 1933.5 L 476.363037109375 1933.5 L 476.363037109375 1909.5 Z Z" stroke-miterlimit="10"/></g><g transform="translate(-37.09814453125,-10) scale(1,1)"><g><path fill="none" stroke="none"/><text fill="#000000" stroke="none" font-family="Arial" font-size="13px" font-style="normal" font-weight="bold" text-decoration="none" x="485.884033203125" y="1929">EnedisConsumption</text></g></g><g transform="translate(-37.09814453125,-10) scale(1,1)"><rect fill="#C0C0C0" stroke="none" x="460.24169921875" y="394.5" width="181.630859375" height="24" opacity="0.2"/></g><g transform="translate(-37.09814453125,-10) scale(1,1)"><rect fill="#ffffff" stroke="none" x="453.24169921875" y="387.5" width="181.630859375" height="24"/></g><g transform="translate(-37.09814453125,-10) scale(1,1)"><path fill="none" stroke="#000000" d="M 453.24169921875 387.5 L 634.87255859375 387.5 L 634.87255859375 411.5 L 453.24169921875 411.5 L 453.24169921875 387.5 Z Z" stroke-miterlimit="10"/></g><g transform="translate(-37.09814453125,-10) scale(1,1)"><g><path fill="none" stroke="none"/><text fill="#000000" stroke="none" font-family="Arial" font-size="13px" font-style="normal" font-weight="bold" text-decoration="none" x="464.568603515625" y="407">EnedisConsumptionInterval</text></g></g><g transform="translate(-37.09814453125,-10) scale(1,1)"><rect fill="#C0C0C0" stroke="none" x="461.666748046875" y="587" width="178.78076171875" height="24" opacity="0.2"/></g><g transform="translate(-37.09814453125,-10) scale(1,1)"><rect fill="#ffffff" stroke="none" x="454.666748046875" y="580" width="178.78076171875" height="24"/></g><g transform="translate(-37.09814453125,-10) scale(1,1)"><path fill="none" stroke="#000000" d="M 454.666748046875 580 L 633.447509765625 580 L 633.447509765625 604 L 454.666748046875 604 L 454.666748046875 580 Z Z" stroke-miterlimit="10"/></g><g transform="translate(-37.09814453125,-10) scale(1,1)"><g><path fill="none" stroke="none"/><text fill="#000000" stroke="none" font-family="Arial" font-size="13px" font-style="normal" font-weight="bold" text-decoration="none" x="465.298583984375" y="599.5">EnedisCustomerAddresses</text></g></g><g transform="translate(-37.09814453125,-10) scale(1,1)"><rect fill="#C0C0C0" stroke="none" x="456.62353515625" y="622" width="188.8671875" height="24" opacity="0.2"/></g><g transform="translate(-37.09814453125,-10) scale(1,1)"><rect fill="#ffffff" stroke="none" x="449.62353515625" y="615" width="188.8671875" height="24"/></g><g transform="translate(-37.09814453125,-10) scale(1,1)"><path fill="none" stroke="#000000" d="M 449.62353515625 615 L 638.49072265625 615 L 638.49072265625 639 L 449.62353515625 639 L 449.62353515625 615 Z Z" stroke-miterlimit="10"/></g><g transform="translate(-37.09814453125,-10) scale(1,1)"><g><path fill="none" stroke="none"/><text fill="#000000" stroke="none" font-family="Arial" font-size="13px" font-style="normal" font-weight="bold" text-decoration="none" x="459.877685546875" y="634.5">EnedisCustomerContactData</text></g></g><g transform="translate(-37.09814453125,-10) scale(1,1)"><rect fill="#C0C0C0" stroke="none" x="464.567626953125" y="657" width="172.97900390625" height="24" opacity="0.2"/></g><g transform="translate(-37.09814453125,-10) scale(1,1)"><rect fill="#ffffff" stroke="none" x="457.567626953125" y="650" width="172.97900390625" height="24"/></g><g transform="translate(-37.09814453125,-10) scale(1,1)"><path fill="none" stroke="#000000" d="M 457.567626953125 650 L 630.546630859375 650 L 630.546630859375 674 L 457.567626953125 674 L 457.567626953125 650 Z Z" stroke-miterlimit="10"/></g><g transform="translate(-37.09814453125,-10) scale(1,1)"><g><path fill="none" stroke="none"/><text fill="#000000" stroke="none" font-family="Arial" font-size="13px" font-style="normal" font-weight="bold" text-decoration="none" x="468.193115234375" y="669.5">EnedisCustomerContracts</text></g></g><g transform="translate(-37.09814453125,-10) scale(1,1)"><rect fill="#C0C0C0" stroke="none" x="471.79443359375" y="692" width="158.525390625" height="24" opacity="0.2"/></g><g transform="translate(-37.09814453125,-10) scale(1,1)"><rect fill="#ffffff" stroke="none" x="464.79443359375" y="685" width="158.525390625" height="24"/></g><g transform="translate(-37.09814453125,-10) scale(1,1)"><path fill="none" stroke="#000000" d="M 464.79443359375 685 L 623.31982421875 685 L 623.31982421875 709 L 464.79443359375 709 L 464.79443359375 685 Z Z" stroke-miterlimit="10"/></g><g transform="translate(-37.09814453125,-10) scale(1,1)"><g><path fill="none" stroke="none"/><text fill="#000000" stroke="none" font-family="Arial" font-size="13px" font-style="normal" font-weight="bold" text-decoration="none" x="475.0517578125" y="704.5">EnedisCustomerIdentity</text></g></g><g transform="translate(-37.09814453125,-10) scale(1,1)"><rect fill="#C0C0C0" stroke="none" x="84.7890625" y="657" width="166.4599609375" height="24" opacity="0.2"/></g><g transform="translate(-37.09814453125,-10) scale(1,1)"><rect fill="#ffffff" stroke="none" x="77.7890625" y="650" width="166.4599609375" height="24"/></g><g transform="translate(-37.09814453125,-10) scale(1,1)"><path fill="none" stroke="#000000" d="M 77.7890625 650 L 244.2490234375 650 L 244.2490234375 674 L 77.7890625 674 L 77.7890625 650 Z Z" stroke-miterlimit="10"/></g><g transform="translate(-37.09814453125,-10) scale(1,1)"><g><path fill="none" stroke="none"/><text fill="#000000" stroke="none" font-family="Arial" font-size="13px" font-style="normal" font-weight="bold" text-decoration="none" x="88.398681640625" y="669.5">EnedisDailyConsumption</text></g></g><g transform="translate(-37.09814453125,-10) scale(1,1)"><rect fill="#C0C0C0" stroke="none" x="94.52001953125" y="692" width="146.998046875" height="24" opacity="0.2"/></g><g transform="translate(-37.09814453125,-10) scale(1,1)"><rect fill="#ffffff" stroke="none" x="87.52001953125" y="685" width="146.998046875" height="24"/></g><g transform="translate(-37.09814453125,-10) scale(1,1)"><path fill="none" stroke="#000000" d="M 87.52001953125 685 L 234.51806640625 685 L 234.51806640625 709 L 87.52001953125 709 L 87.52001953125 685 Z Z" stroke-miterlimit="10"/></g><g transform="translate(-37.09814453125,-10) scale(1,1)"><g><path fill="none" stroke="none"/><text fill="#000000" stroke="none" font-family="Arial" font-size="13px" font-style="normal" font-weight="bold" text-decoration="none" x="95.99365234375" y="704.5">EnedisDailyMaxPower</text></g></g><g transform="translate(-37.09814453125,-10) scale(1,1)"><rect fill="#C0C0C0" stroke="none" x="97.779541015625" y="727" width="140.47900390625" height="24" opacity="0.2"/></g><g transform="translate(-37.09814453125,-10) scale(1,1)"><rect fill="#ffffff" stroke="none" x="90.779541015625" y="720" width="140.47900390625" height="24"/></g><g transform="translate(-37.09814453125,-10) scale(1,1)"><path fill="none" stroke="#000000" d="M 90.779541015625 720 L 231.258544921875 720 L 231.258544921875 744 L 90.779541015625 744 L 90.779541015625 720 Z Z" stroke-miterlimit="10"/></g><g transform="translate(-37.09814453125,-10) scale(1,1)"><g><path fill="none" stroke="none"/><text fill="#000000" stroke="none" font-family="Arial" font-size="13px" font-style="normal" font-weight="bold" text-decoration="none" x="99.24365234375" y="739.5">EnedisDateFormatter</text></g></g><g transform="translate(-37.09814453125,-10) scale(1,1)"><rect fill="#C0C0C0" stroke="none" x="410.0380859375" y="727" width="282.0380859375" height="24" opacity="0.2"/></g><g transform="translate(-37.09814453125,-10) scale(1,1)"><rect fill="#ffffff" stroke="none" x="403.0380859375" y="720" width="282.0380859375" height="24"/></g><g transform="translate(-37.09814453125,-10) scale(1,1)"><path fill="none" stroke="#000000" d="M 403.0380859375 720 L 685.076171875 720 L 685.076171875 744 L 403.0380859375 744 L 403.0380859375 720 Z Z" stroke-miterlimit="10"/></g><g transform="translate(-37.09814453125,-10) scale(1,1)"><g><path fill="none" stroke="none"/><text fill="#000000" stroke="none" font-family="Arial" font-size="13px" font-style="normal" font-weight="bold" text-decoration="none" x="416.161376953125" y="739.5">EnedisMeteringDataConsumptionMaxPower</text></g></g><g transform="translate(-37.09814453125,-10) scale(1,1)"><rect fill="#C0C0C0" stroke="none" x="800.2998046875" y="237" width="128.9072265625" height="37" opacity="0.2"/></g><g transform="translate(-37.09814453125,-10) scale(1,1)"><rect fill="#ffffff" stroke="none" x="793.2998046875" y="230" width="128.9072265625" height="37"/></g><g transform="translate(-37.09814453125,-10) scale(1,1)"><path fill="none" stroke="#000000" d="M 793.2998046875 230 L 922.20703125 230 L 922.20703125 267 L 793.2998046875 267 L 793.2998046875 230 Z Z" stroke-miterlimit="10"/></g><g transform="translate(-37.09814453125,-10) scale(1,1)"><g><path fill="none" stroke="none"/><text fill="#000000" stroke="none" font-family="Arial" font-size="13px" font-style="normal" font-weight="normal" text-decoration="none" x="827.7607421875" y="247.5">«Handler»</text></g></g><g transform="translate(-37.09814453125,-10) scale(1,1)"><g><path fill="none" stroke="none"/><text fill="#000000" stroke="none" font-family="Arial" font-size="13px" font-style="normal" font-weight="bold" text-decoration="none" x="801.744873046875" y="262.5">EnedisStubHandler</text></g></g><g transform="translate(-37.09814453125,-10) scale(1,1)"><rect fill="#C0C0C0" stroke="none" x="801.013916015625" y="307" width="127.47900390625" height="37" opacity="0.2"/></g><g transform="translate(-37.09814453125,-10) scale(1,1)"><rect fill="#ffffff" stroke="none" x="794.013916015625" y="300" width="127.47900390625" height="37"/></g><g transform="translate(-37.09814453125,-10) scale(1,1)"><path fill="none" stroke="#000000" d="M 794.013916015625 300 L 921.492919921875 300 L 921.492919921875 337 L 794.013916015625 337 L 794.013916015625 300 Z Z" stroke-miterlimit="10"/></g><g transform="translate(-37.09814453125,-10) scale(1,1)"><g><path fill="none" stroke="none"/><text fill="#000000" stroke="none" font-family="Arial" font-size="13px" font-style="normal" font-weight="normal" text-decoration="none" x="827.7607421875" y="317.5">«Handler»</text></g></g><g transform="translate(-37.09814453125,-10) scale(1,1)"><g><path fill="none" stroke="none"/><text fill="#000000" stroke="none" font-family="Arial" font-size="13px" font-style="normal" font-weight="bold" text-decoration="none" x="801.992431640625" y="332.5">EnedisTrueHandler</text></g></g><g transform="translate(-37.09814453125,-10) scale(1,1)"><rect fill="#C0C0C0" stroke="none" x="64.93359375" y="762" width="206.1708984375" height="37" opacity="0.2"/></g><g transform="translate(-37.09814453125,-10) scale(1,1)"><rect fill="#ffffff" stroke="none" x="57.93359375" y="755" width="206.1708984375" height="37"/></g><g transform="translate(-37.09814453125,-10) scale(1,1)"><path fill="none" stroke="#000000" d="M 57.93359375 755 L 264.1044921875 755 L 264.1044921875 792 L 57.93359375 792 L 57.93359375 755 Z Z" stroke-miterlimit="10"/></g><g transform="translate(-37.09814453125,-10) scale(1,1)"><g><path fill="none" stroke="none"/><text fill="#000000" stroke="none" font-family="Arial" font-size="13px" font-style="normal" font-weight="normal" text-decoration="none" x="117.655029296875" y="772.5">«enumeration»</text></g></g><g transform="translate(-37.09814453125,-10) scale(1,1)"><g><path fill="none" stroke="none"/><text fill="#000000" stroke="none" font-family="Arial" font-size="13px" font-style="normal" font-weight="bold" text-decoration="none" x="69.24462890625" y="787.5">DataConnectCustomerEndpoint</text></g></g><g transform="translate(-37.09814453125,-10) scale(1,1)"><rect fill="#C0C0C0" stroke="none" x="54.09814453125" y="810" width="227.841796875" height="37" opacity="0.2"/></g><g transform="translate(-37.09814453125,-10) scale(1,1)"><rect fill="#ffffff" stroke="none" x="47.09814453125" y="803" width="227.841796875" height="37"/></g><g transform="translate(-37.09814453125,-10) scale(1,1)"><path fill="none" stroke="#000000" d="M 47.09814453125 803 L 274.93994140625 803 L 274.93994140625 840 L 47.09814453125 840 L 47.09814453125 803 Z Z" stroke-miterlimit="10"/></g><g transform="translate(-37.09814453125,-10) scale(1,1)"><g><path fill="none" stroke="none"/><text fill="#000000" stroke="none" font-family="Arial" font-size="13px" font-style="normal" font-weight="normal" text-decoration="none" x="117.655029296875" y="820.5">«enumeration»</text></g></g><g transform="translate(-37.09814453125,-10) scale(1,1)"><g><path fill="none" stroke="none"/><text fill="#000000" stroke="none" font-family="Arial" font-size="13px" font-style="normal" font-weight="bold" text-decoration="none" x="58.399658203125" y="835.5">DataConnectMeteringDataEndpoint</text></g></g><g transform="translate(-37.09814453125,-10) scale(1,1)"><rect fill="#C0C0C0" stroke="none" x="482.26806640625" y="359.5" width="137.578125" height="37" opacity="0.2"/></g><g transform="translate(-37.09814453125,-10) scale(1,1)"><rect fill="#ffffff" stroke="none" x="475.26806640625" y="352.5" width="137.578125" height="37"/></g><g transform="translate(-37.09814453125,-10) scale(1,1)"><path fill="none" stroke="#000000" d="M 475.26806640625 352.5 L 612.84619140625 352.5 L 612.84619140625 389.5 L 475.26806640625 389.5 L 475.26806640625 352.5 Z Z" stroke-miterlimit="10"/></g><g transform="translate(-37.09814453125,-10) scale(1,1)"><g><path fill="none" stroke="none"/><text fill="#000000" stroke="none" font-family="Arial" font-size="13px" font-style="normal" font-weight="normal" text-decoration="none" x="514.064453125" y="370">«Handler»</text></g></g><g transform="translate(-37.09814453125,-10) scale(1,1)"><g><path fill="none" stroke="none"/><text fill="#000000" stroke="none" font-family="Arial" font-size="13px" font-style="italic" font-weight="bold" text-decoration="none" x="484.811279296875" y="385">AbstractGrdfHandler</text></g></g><g transform="translate(-37.09814453125,-10) scale(1,1)"><rect fill="#C0C0C0" stroke="none" x="94.919921875" y="858" width="146.1982421875" height="37" opacity="0.2"/></g><g transform="translate(-37.09814453125,-10) scale(1,1)"><rect fill="#ffffff" stroke="none" x="87.919921875" y="851" width="146.1982421875" height="37"/></g><g transform="translate(-37.09814453125,-10) scale(1,1)"><path fill="none" stroke="#000000" d="M 87.919921875 851 L 234.1181640625 851 L 234.1181640625 888 L 87.919921875 888 L 87.919921875 851 Z Z" stroke-miterlimit="10"/></g><g transform="translate(-37.09814453125,-10) scale(1,1)"><g><path fill="none" stroke="none"/><text fill="#000000" stroke="none" font-family="Arial" font-size="13px" font-style="normal" font-weight="normal" text-decoration="none" x="117.655029296875" y="868.5">«enumeration»</text></g></g><g transform="translate(-37.09814453125,-10) scale(1,1)"><g><path fill="none" stroke="none"/><text fill="#000000" stroke="none" font-family="Arial" font-size="13px" font-style="normal" font-weight="bold" text-decoration="none" x="98.872314453125" y="883.5">GrdfAdictApiEndpoint</text></g></g><g transform="translate(-37.09814453125,-10) scale(1,1)"><path fill="#C0C0C0" stroke="none" d="M 156.51904296875 917.5 C 156.51904296875 911.1487248 161.66776776875 906 168.01904296875 906 C 174.37031816875 906 179.51904296875 911.1487248 179.51904296875 917.5 C 179.51904296875 923.8512752 174.37031816875 929 168.01904296875 929 C 161.66776776875 929 156.51904296875 923.8512752 156.51904296875 917.5 Z" opacity="0.2"/></g><g transform="translate(-37.09814453125,-10) scale(1,1)"><path fill="#ffffff" stroke="none" d="M 149.51904296875 910.5 C 149.51904296875 904.1487248 154.66776776875 899 161.01904296875 899 C 167.37031816875 899 172.51904296875 904.1487248 172.51904296875 910.5 C 172.51904296875 916.8512752 167.37031816875 922 161.01904296875 922 C 154.66776776875 922 149.51904296875 916.8512752 149.51904296875 910.5 Z"/></g><g transform="translate(-37.09814453125,-10) scale(1,1)"><path fill="none" stroke="#000000" d="M 149.51904296875 910.5 C 149.51904296875 904.1487248 154.66776776875 899 161.01904296875 899 C 167.37031816875 899 172.51904296875 904.1487248 172.51904296875 910.5 C 172.51904296875 916.8512752 167.37031816875 922 161.01904296875 922 C 154.66776776875 922 149.51904296875 916.8512752 149.51904296875 910.5 Z" stroke-miterlimit="10"/></g><g transform="translate(-37.09814453125,-10) scale(1,1)"><g><path fill="none" stroke="none"/><text fill="#000000" stroke="none" font-family="Arial" font-size="13px" font-style="normal" font-weight="bold" text-decoration="none" x="79.369140625" y="941.5">GrdfAdictAuthorizationClient</text></g></g><g transform="translate(-37.09814453125,-10) scale(1,1)"><rect fill="#C0C0C0" stroke="none" x="115.49267578125" y="965" width="105.052734375" height="37" opacity="0.2"/></g><g transform="translate(-37.09814453125,-10) scale(1,1)"><rect fill="#ffffff" stroke="none" x="108.49267578125" y="958" width="105.052734375" height="37"/></g><g transform="translate(-37.09814453125,-10) scale(1,1)"><path fill="none" stroke="#000000" d="M 108.49267578125 958 L 213.54541015625 958 L 213.54541015625 995 L 108.49267578125 995 L 108.49267578125 958 Z Z" stroke-miterlimit="10"/></g><g transform="translate(-37.09814453125,-10) scale(1,1)"><g><path fill="none" stroke="none"/><text fill="#000000" stroke="none" font-family="Arial" font-size="13px" font-style="normal" font-weight="normal" text-decoration="none" x="118.39453125" y="975.5">«HTTP Client»</text></g></g><g transform="translate(-37.09814453125,-10) scale(1,1)"><g><path fill="none" stroke="none"/><text fill="#000000" stroke="none" font-family="Arial" font-size="13px" font-style="italic" font-weight="bold" text-decoration="none" x="117.30908203125" y="990.5">GrdfAdictClient</text></g></g><g transform="translate(-37.09814453125,-10) scale(1,1)"><rect fill="#C0C0C0" stroke="none" x="491.16748046875" y="762" width="119.779296875" height="37" opacity="0.2"/></g><g transform="translate(-37.09814453125,-10) scale(1,1)"><rect fill="#ffffff" stroke="none" x="484.16748046875" y="755" width="119.779296875" height="37"/></g><g transform="translate(-37.09814453125,-10) scale(1,1)"><path fill="none" stroke="#000000" d="M 484.16748046875 755 L 603.94677734375 755 L 603.94677734375 792 L 484.16748046875 792 L 484.16748046875 755 Z Z" stroke-miterlimit="10"/></g><g transform="translate(-37.09814453125,-10) scale(1,1)"><g><path fill="none" stroke="none"/><text fill="#000000" stroke="none" font-family="Arial" font-size="13px" font-style="normal" font-weight="normal" text-decoration="none" x="519.482177734375" y="772.5">«Token»</text></g></g><g transform="translate(-37.09814453125,-10) scale(1,1)"><g><path fill="none" stroke="none"/><text fill="#000000" stroke="none" font-family="Arial" font-size="13px" font-style="italic" font-weight="bold" text-decoration="none" x="492.99658203125" y="787.5">GrdfAccessToken</text></g></g><g transform="translate(-37.09814453125,-10) scale(1,1)"><rect fill="#C0C0C0" stroke="none" x="800.3125" y="552" width="128.8818359375" height="37" opacity="0.2"/></g><g transform="translate(-37.09814453125,-10) scale(1,1)"><rect fill="#ffffff" stroke="none" x="793.3125" y="545" width="128.8818359375" height="37"/></g><g transform="translate(-37.09814453125,-10) scale(1,1)"><path fill="none" stroke="#000000" d="M 793.3125 545 L 922.1943359375 545 L 922.1943359375 582 L 793.3125 582 L 793.3125 545 Z Z" stroke-miterlimit="10"/></g><g transform="translate(-37.09814453125,-10) scale(1,1)"><g><path fill="none" stroke="none"/><text fill="#000000" stroke="none" font-family="Arial" font-size="13px" font-style="normal" font-weight="normal" text-decoration="none" x="833.178466796875" y="562.5">«Token»</text></g></g><g transform="translate(-37.09814453125,-10) scale(1,1)"><g><path fill="none" stroke="none"/><text fill="#000000" stroke="none" font-family="Arial" font-size="13px" font-style="normal" font-weight="bold" text-decoration="none" x="802.113037109375" y="577.5">GrdfAuthorizeCode</text></g></g><g transform="translate(-37.09814453125,-10) scale(1,1)"><rect fill="#C0C0C0" stroke="none" x="464.218505859375" y="1741.5" width="173.67724609375" height="37" opacity="0.2"/></g><g transform="translate(-37.09814453125,-10) scale(1,1)"><rect fill="#ffffff" stroke="none" x="457.218505859375" y="1734.5" width="173.67724609375" height="37"/></g><g transform="translate(-37.09814453125,-10) scale(1,1)"><path fill="none" stroke="#000000" d="M 457.218505859375 1734.5 L 630.895751953125 1734.5 L 630.895751953125 1771.5 L 457.218505859375 1771.5 L 457.218505859375 1734.5 Z Z" stroke-miterlimit="10"/></g><g transform="translate(-37.09814453125,-10) scale(1,1)"><g><path fill="none" stroke="none"/><text fill="#000000" stroke="none" font-family="Arial" font-size="13px" font-style="normal" font-weight="normal" text-decoration="none" x="506.234619140625" y="1752">«Coefficient»</text></g></g><g transform="translate(-37.09814453125,-10) scale(1,1)"><g><path fill="none" stroke="none"/><text fill="#000000" stroke="none" font-family="Arial" font-size="13px" font-style="normal" font-weight="bold" text-decoration="none" x="468.666015625" y="1767">GrdfCalculationCoefficient</text></g></g><g transform="translate(-37.09814453125,-10) scale(1,1)"><rect fill="#C0C0C0" stroke="none" x="793.076171875" y="779.5" width="143.3544921875" height="37" opacity="0.2"/></g><g transform="translate(-37.09814453125,-10) scale(1,1)"><rect fill="#ffffff" stroke="none" x="786.076171875" y="772.5" width="143.3544921875" height="37"/></g><g transform="translate(-37.09814453125,-10) scale(1,1)"><path fill="none" stroke="#000000" d="M 786.076171875 772.5 L 929.4306640625 772.5 L 929.4306640625 809.5 L 786.076171875 809.5 L 786.076171875 772.5 Z Z" stroke-miterlimit="10"/></g><g transform="translate(-37.09814453125,-10) scale(1,1)"><g><path fill="none" stroke="none"/><text fill="#000000" stroke="none" font-family="Arial" font-size="13px" font-style="normal" font-weight="normal" text-decoration="none" x="833.178466796875" y="790">«Token»</text></g></g><g transform="translate(-37.09814453125,-10) scale(1,1)"><g><path fill="none" stroke="none"/><text fill="#000000" stroke="none" font-family="Arial" font-size="13px" font-style="normal" font-weight="bold" text-decoration="none" x="795.6162109375" y="805">GrdfClientCredentials</text></g></g><g transform="translate(-37.09814453125,-10) scale(1,1)"><rect fill="#C0C0C0" stroke="none" x="490.954833984375" y="1776.5" width="120.20458984375" height="37" opacity="0.2"/></g><g transform="translate(-37.09814453125,-10) scale(1,1)"><rect fill="#ffffff" stroke="none" x="483.954833984375" y="1769.5" width="120.20458984375" height="37"/></g><g transform="translate(-37.09814453125,-10) scale(1,1)"><path fill="none" stroke="#000000" d="M 483.954833984375 1769.5 L 604.159423828125 1769.5 L 604.159423828125 1806.5 L 483.954833984375 1806.5 L 483.954833984375 1769.5 Z Z" stroke-miterlimit="10"/></g><g transform="translate(-37.09814453125,-10) scale(1,1)"><g><path fill="none" stroke="none"/><text fill="#000000" stroke="none" font-family="Arial" font-size="13px" font-style="normal" font-weight="normal" text-decoration="none" x="498.528564453125" y="1787">«Consumption»</text></g></g><g transform="translate(-37.09814453125,-10) scale(1,1)"><g><path fill="none" stroke="none"/><text fill="#000000" stroke="none" font-family="Arial" font-size="13px" font-style="normal" font-weight="bold" text-decoration="none" x="493.1171875" y="1802">GrdfConsumption</text></g></g><g transform="translate(-37.09814453125,-10) scale(1,1)"><rect fill="#C0C0C0" stroke="none" x="467.83349609375" y="482" width="166.447265625" height="37" opacity="0.2"/></g><g transform="translate(-37.09814453125,-10) scale(1,1)"><rect fill="#ffffff" stroke="none" x="460.83349609375" y="475" width="166.447265625" height="37"/></g><g transform="translate(-37.09814453125,-10) scale(1,1)"><path fill="none" stroke="#000000" d="M 460.83349609375 475 L 627.28076171875 475 L 627.28076171875 512 L 460.83349609375 512 L 460.83349609375 475 Z Z" stroke-miterlimit="10"/></g><g transform="translate(-37.09814453125,-10) scale(1,1)"><g><path fill="none" stroke="none"/><text fill="#000000" stroke="none" font-family="Arial" font-size="13px" font-style="normal" font-weight="normal" text-decoration="none" x="475.4072265625" y="492.5">«Consumption Interval»</text></g></g><g transform="translate(-37.09814453125,-10) scale(1,1)"><g><path fill="none" stroke="none"/><text fill="#000000" stroke="none" font-family="Arial" font-size="13px" font-style="normal" font-weight="bold" text-decoration="none" x="471.8017578125" y="507.5">GrdfConsumptionInterval</text></g></g><g transform="translate(-37.09814453125,-10) scale(1,1)"><rect fill="#C0C0C0" stroke="none" x="482.633056640625" y="1811.5" width="136.84814453125" height="37" opacity="0.2"/></g><g transform="translate(-37.09814453125,-10) scale(1,1)"><rect fill="#ffffff" stroke="none" x="475.633056640625" y="1804.5" width="136.84814453125" height="37"/></g><g transform="translate(-37.09814453125,-10) scale(1,1)"><path fill="none" stroke="#000000" d="M 475.633056640625 1804.5 L 612.481201171875 1804.5 L 612.481201171875 1841.5 L 475.633056640625 1841.5 L 475.633056640625 1804.5 Z Z" stroke-miterlimit="10"/></g><g transform="translate(-37.09814453125,-10) scale(1,1)"><g><path fill="none" stroke="none"/><text fill="#000000" stroke="none" font-family="Arial" font-size="13px" font-style="normal" font-weight="normal" text-decoration="none" x="509.008544921875" y="1822">«Resource»</text></g></g><g transform="translate(-37.09814453125,-10) scale(1,1)"><g><path fill="none" stroke="none"/><text fill="#000000" stroke="none" font-family="Arial" font-size="13px" font-style="normal" font-weight="bold" text-decoration="none" x="484.4462890625" y="1837">GrdfContractualData</text></g></g><g transform="translate(-37.09814453125,-10) scale(1,1)"><rect fill="#C0C0C0" stroke="none" x="105.371337890625" y="1000" width="125.29541015625" height="37" opacity="0.2"/></g><g transform="translate(-37.09814453125,-10) scale(1,1)"><rect fill="#ffffff" stroke="none" x="98.371337890625" y="993" width="125.29541015625" height="37"/></g><g transform="translate(-37.09814453125,-10) scale(1,1)"><path fill="none" stroke="#000000" d="M 98.371337890625 993 L 223.666748046875 993 L 223.666748046875 1030 L 98.371337890625 1030 L 98.371337890625 993 Z Z" stroke-miterlimit="10"/></g><g transform="translate(-37.09814453125,-10) scale(1,1)"><g><path fill="none" stroke="none"/><text fill="#000000" stroke="none" font-family="Arial" font-size="13px" font-style="normal" font-weight="normal" text-decoration="none" x="125.6181640625" y="1010.5">«Formatter»</text></g></g><g transform="translate(-37.09814453125,-10) scale(1,1)"><g><path fill="none" stroke="none"/><text fill="#000000" stroke="none" font-family="Arial" font-size="13px" font-style="normal" font-weight="bold" text-decoration="none" x="106.476806640625" y="1025.5">GrdfDateFormatter</text></g></g><g transform="translate(-37.09814453125,-10) scale(1,1)"><rect fill="#C0C0C0" stroke="none" x="441.830322265625" y="2983.5" width="218.45361328125" height="37" opacity="0.2"/></g><g transform="translate(-37.09814453125,-10) scale(1,1)"><rect fill="#ffffff" stroke="none" x="434.830322265625" y="2976.5" width="218.45361328125" height="37"/></g><g transform="translate(-37.09814453125,-10) scale(1,1)"><path fill="none" stroke="#000000" d="M 434.830322265625 2976.5 L 653.283935546875 2976.5 L 653.283935546875 3013.5 L 434.830322265625 3013.5 L 434.830322265625 2976.5 Z Z" stroke-miterlimit="10"/></g><g transform="translate(-37.09814453125,-10) scale(1,1)"><g><path fill="none" stroke="none"/><text fill="#000000" stroke="none" font-family="Arial" font-size="13px" font-style="normal" font-weight="normal" text-decoration="none" x="498.528564453125" y="2994">«Consumption»</text></g></g><g transform="translate(-37.09814453125,-10) scale(1,1)"><g><path fill="none" stroke="none"/><text fill="#000000" stroke="none" font-family="Arial" font-size="13px" font-style="normal" font-weight="bold" text-decoration="none" x="447.236328125" y="3009">GrdfInformativeConsumptionData</text></g></g><g transform="translate(-37.09814453125,-10) scale(1,1)"><rect fill="#C0C0C0" stroke="none" x="508.994873046875" y="1846.5" width="84.12451171875" height="37" opacity="0.2"/></g><g transform="translate(-37.09814453125,-10) scale(1,1)"><rect fill="#ffffff" stroke="none" x="501.994873046875" y="1839.5" width="84.12451171875" height="37"/></g><g transform="translate(-37.09814453125,-10) scale(1,1)"><path fill="none" stroke="#000000" d="M 501.994873046875 1839.5 L 586.119384765625 1839.5 L 586.119384765625 1876.5 L 501.994873046875 1876.5 L 501.994873046875 1839.5 Z Z" stroke-miterlimit="10"/></g><g transform="translate(-37.09814453125,-10) scale(1,1)"><g><path fill="none" stroke="none"/><text fill="#000000" stroke="none" font-family="Arial" font-size="13px" font-style="normal" font-weight="normal" text-decoration="none" x="518.0380859375" y="1857">«Period»</text></g></g><g transform="translate(-37.09814453125,-10) scale(1,1)"><g><path fill="none" stroke="none"/><text fill="#000000" stroke="none" font-family="Arial" font-size="13px" font-style="normal" font-weight="bold" text-decoration="none" x="509.01171875" y="1872">GrdfPeriode</text></g></g><g transform="translate(-37.09814453125,-10) scale(1,1)"><rect fill="#C0C0C0" stroke="none" x="489.247314453125" y="1881.5" width="123.61962890625" height="37" opacity="0.2"/></g><g transform="translate(-37.09814453125,-10) scale(1,1)"><rect fill="#ffffff" stroke="none" x="482.247314453125" y="1874.5" width="123.61962890625" height="37"/></g><g transform="translate(-37.09814453125,-10) scale(1,1)"><path fill="none" stroke="#000000" d="M 482.247314453125 1874.5 L 605.866943359375 1874.5 L 605.866943359375 1911.5 L 482.247314453125 1911.5 L 482.247314453125 1874.5 Z Z" stroke-miterlimit="10"/></g><g transform="translate(-37.09814453125,-10) scale(1,1)"><g><path fill="none" stroke="none"/><text fill="#000000" stroke="none" font-family="Arial" font-size="13px" font-style="normal" font-weight="normal" text-decoration="none" x="509.008544921875" y="1892">«Resource»</text></g></g><g transform="translate(-37.09814453125,-10) scale(1,1)"><g><path fill="none" stroke="none"/><text fill="#000000" stroke="none" font-family="Arial" font-size="13px" font-style="normal" font-weight="bold" text-decoration="none" x="490.587646484375" y="1907">GrdfTechnicalData</text></g></g><g transform="translate(-37.09814453125,-10) scale(1,1)"><rect fill="#C0C0C0" stroke="none" x="807.8916015625" y="342" width="113.7236328125" height="37" opacity="0.2"/></g><g transform="translate(-37.09814453125,-10) scale(1,1)"><rect fill="#ffffff" stroke="none" x="800.8916015625" y="335" width="113.7236328125" height="37"/></g><g transform="translate(-37.09814453125,-10) scale(1,1)"><path fill="none" stroke="#000000" d="M 800.8916015625 335 L 914.615234375 335 L 914.615234375 372 L 800.8916015625 372 L 800.8916015625 335 Z Z" stroke-miterlimit="10"/></g><g transform="translate(-37.09814453125,-10) scale(1,1)"><g><path fill="none" stroke="none"/><text fill="#000000" stroke="none" font-family="Arial" font-size="13px" font-style="normal" font-weight="normal" text-decoration="none" x="827.7607421875" y="352.5">«Handler»</text></g></g><g transform="translate(-37.09814453125,-10) scale(1,1)"><g><path fill="none" stroke="none"/><text fill="#000000" stroke="none" font-family="Arial" font-size="13px" font-style="normal" font-weight="bold" text-decoration="none" x="808.97802734375" y="367.5">GrdfStubHandler</text></g></g><g transform="translate(-37.09814453125,-10) scale(1,1)"><rect fill="#C0C0C0" stroke="none" x="808.605712890625" y="517" width="112.29541015625" height="37" opacity="0.2"/></g><g transform="translate(-37.09814453125,-10) scale(1,1)"><rect fill="#ffffff" stroke="none" x="801.605712890625" y="510" width="112.29541015625" height="37"/></g><g transform="translate(-37.09814453125,-10) scale(1,1)"><path fill="none" stroke="#000000" d="M 801.605712890625 510 L 913.901123046875 510 L 913.901123046875 547 L 801.605712890625 547 L 801.605712890625 510 Z Z" stroke-miterlimit="10"/></g><g transform="translate(-37.09814453125,-10) scale(1,1)"><g><path fill="none" stroke="none"/><text fill="#000000" stroke="none" font-family="Arial" font-size="13px" font-style="normal" font-weight="normal" text-decoration="none" x="827.7607421875" y="527.5">«Handler»</text></g></g><g transform="translate(-37.09814453125,-10) scale(1,1)"><g><path fill="none" stroke="none"/><text fill="#000000" stroke="none" font-family="Arial" font-size="13px" font-style="normal" font-weight="bold" text-decoration="none" x="809.2255859375" y="542.5">GrdfTrueHandler</text></g></g><g transform="translate(-37.09814453125,-10) scale(1,1)"><path fill="#C0C0C0" stroke="none" d="M 156.51904296875 1046.5 C 156.51904296875 1040.1487248 161.66776776875 1035 168.01904296875 1035 C 174.37031816875 1035 179.51904296875 1040.1487248 179.51904296875 1046.5 C 179.51904296875 1052.8512752 174.37031816875 1058 168.01904296875 1058 C 161.66776776875 1058 156.51904296875 1052.8512752 156.51904296875 1046.5 Z" opacity="0.2"/></g><g transform="translate(-37.09814453125,-10) scale(1,1)"><path fill="#ffffff" stroke="none" d="M 149.51904296875 1039.5 C 149.51904296875 1033.1487248 154.66776776875 1028 161.01904296875 1028 C 167.37031816875 1028 172.51904296875 1033.1487248 172.51904296875 1039.5 C 172.51904296875 1045.8512752 167.37031816875 1051 161.01904296875 1051 C 154.66776776875 1051 149.51904296875 1045.8512752 149.51904296875 1039.5 Z"/></g><g transform="translate(-37.09814453125,-10) scale(1,1)"><path fill="none" stroke="#000000" d="M 149.51904296875 1039.5 C 149.51904296875 1033.1487248 154.66776776875 1028 161.01904296875 1028 C 167.37031816875 1028 172.51904296875 1033.1487248 172.51904296875 1039.5 C 172.51904296875 1045.8512752 167.37031816875 1051 161.01904296875 1051 C 154.66776776875 1051 149.51904296875 1045.8512752 149.51904296875 1039.5 Z" stroke-miterlimit="10"/></g><g transform="translate(-37.09814453125,-10) scale(1,1)"><g><path fill="none" stroke="none"/><text fill="#000000" stroke="none" font-family="Arial" font-size="13px" font-style="normal" font-weight="bold" text-decoration="none" x="99.59912109375" y="1070.5">IDpsResponseObject</text></g></g><g transform="translate(-37.09814453125,-10) scale(1,1)"><rect fill="#C0C0C0" stroke="none" x="125.004638671875" y="1094" width="86.02880859375" height="24" opacity="0.2"/></g><g transform="translate(-37.09814453125,-10) scale(1,1)"><rect fill="#ffffff" stroke="none" x="118.004638671875" y="1087" width="86.02880859375" height="24"/></g><g transform="translate(-37.09814453125,-10) scale(1,1)"><path fill="none" stroke="#000000" d="M 118.004638671875 1087 L 204.033447265625 1087 L 204.033447265625 1111 L 118.004638671875 1111 L 118.004638671875 1087 Z Z" stroke-miterlimit="10"/></g><g transform="translate(-37.09814453125,-10) scale(1,1)"><g><path fill="none" stroke="none"/><text fill="#000000" stroke="none" font-family="Arial" font-size="13px" font-style="normal" font-weight="bold" text-decoration="none" x="125.246826171875" y="1106.5">OAuthToken</text></g></g><g transform="translate(-37.09814453125,-10) scale(1,1)"><rect fill="#C0C0C0" stroke="none" x="120.155029296875" y="1129" width="95.72802734375" height="37" opacity="0.2"/></g><g transform="translate(-37.09814453125,-10) scale(1,1)"><rect fill="#ffffff" stroke="none" x="113.155029296875" y="1122" width="95.72802734375" height="37"/></g><g transform="translate(-37.09814453125,-10) scale(1,1)"><path fill="none" stroke="#000000" d="M 113.155029296875 1122 L 208.883056640625 1122 L 208.883056640625 1159 L 113.155029296875 1159 L 113.155029296875 1122 Z Z" stroke-miterlimit="10"/></g><g transform="translate(-37.09814453125,-10) scale(1,1)"><g><path fill="none" stroke="none"/><text fill="#000000" stroke="none" font-family="Arial" font-size="13px" font-style="normal" font-weight="normal" text-decoration="none" x="117.655029296875" y="1139.5">«enumeration»</text></g></g><g transform="translate(-37.09814453125,-10) scale(1,1)"><g><path fill="none" stroke="none"/><text fill="#000000" stroke="none" font-family="Arial" font-size="13px" font-style="normal" font-weight="bold" text-decoration="none" x="127.4208984375" y="1154.5">ConsoUnits</text></g></g><g transform="translate(-37.09814453125,-10) scale(1,1)"><rect fill="#C0C0C0" stroke="none" x="105.384033203125" y="1177" width="125.27001953125" height="37" opacity="0.2"/></g><g transform="translate(-37.09814453125,-10) scale(1,1)"><rect fill="#ffffff" stroke="none" x="98.384033203125" y="1170" width="125.27001953125" height="37"/></g><g transform="translate(-37.09814453125,-10) scale(1,1)"><path fill="none" stroke="#000000" d="M 98.384033203125 1170 L 223.654052734375 1170 L 223.654052734375 1207 L 98.384033203125 1207 L 98.384033203125 1170 Z Z" stroke-miterlimit="10"/></g><g transform="translate(-37.09814453125,-10) scale(1,1)"><g><path fill="none" stroke="none"/><text fill="#000000" stroke="none" font-family="Arial" font-size="13px" font-style="normal" font-weight="normal" text-decoration="none" x="117.655029296875" y="1187.5">«enumeration»</text></g></g><g transform="translate(-37.09814453125,-10) scale(1,1)"><g><path fill="none" stroke="none"/><text fill="#000000" stroke="none" font-family="Arial" font-size="13px" font-style="normal" font-weight="bold" text-decoration="none" x="106.825927734375" y="1202.5">RequestMpControl</text></g></g><g transform="translate(-37.09814453125,-10) scale(1,1)"><rect fill="#C0C0C0" stroke="none" x="133.307373046875" y="1295" width="72.31787109375" height="24" opacity="0.2"/></g><g transform="translate(-37.09814453125,-10) scale(1,1)"><rect fill="#ffffff" stroke="none" x="126.307373046875" y="1288" width="72.31787109375" height="24"/></g><g transform="translate(-37.09814453125,-10) scale(1,1)"><path fill="none" stroke="#000000" d="M 126.307373046875 1288 L 198.625244140625 1288 L 198.625244140625 1312 L 126.307373046875 1312 L 126.307373046875 1288 Z Z" stroke-miterlimit="10"/></g><g transform="translate(-37.09814453125,-10) scale(1,1)"><g><path fill="none" stroke="none"/><text fill="#000000" stroke="none" font-family="Arial" font-size="13px" font-style="normal" font-weight="bold" text-decoration="none" x="132.971923828125" y="1307.5">ADICTAPI</text></g></g><g transform="translate(-37.09814453125,-10) scale(1,1)"><rect fill="#C0C0C0" stroke="none" x="130.304931640625" y="1330" width="75.42822265625" height="24" opacity="0.2"/></g><g transform="translate(-37.09814453125,-10) scale(1,1)"><rect fill="#ffffff" stroke="none" x="123.304931640625" y="1323" width="75.42822265625" height="24"/></g><g transform="translate(-37.09814453125,-10) scale(1,1)"><path fill="none" stroke="#000000" d="M 123.304931640625 1323 L 198.733154296875 1323 L 198.733154296875 1347 L 123.304931640625 1347 L 123.304931640625 1323 Z Z" stroke-miterlimit="10"/></g><g transform="translate(-37.09814453125,-10) scale(1,1)"><g><path fill="none" stroke="none"/><text fill="#000000" stroke="none" font-family="Arial" font-size="13px" font-style="normal" font-weight="bold" text-decoration="none" x="128.87451171875" y="1342.5">ConfGRDF</text></g></g><g transform="translate(-37.09814453125,-10) scale(1,1)"><rect fill="#C0C0C0" stroke="none" x="110.052734375" y="1435" width="115.9326171875" height="37" opacity="0.2"/></g><g transform="translate(-37.09814453125,-10) scale(1,1)"><rect fill="#ffffff" stroke="none" x="103.052734375" y="1428" width="115.9326171875" height="37"/></g><g transform="translate(-37.09814453125,-10) scale(1,1)"><path fill="none" stroke="#000000" d="M 103.052734375 1428 L 218.9853515625 1428 L 218.9853515625 1465 L 103.052734375 1465 L 103.052734375 1428 Z Z" stroke-miterlimit="10"/></g><g transform="translate(-37.09814453125,-10) scale(1,1)"><g><path fill="none" stroke="none"/><text fill="#000000" stroke="none" font-family="Arial" font-size="13px" font-style="normal" font-weight="normal" text-decoration="none" x="132.114990234375" y="1445.5">«Service»</text></g></g><g transform="translate(-37.09814453125,-10) scale(1,1)"><g><path fill="none" stroke="none"/><text fill="#000000" stroke="none" font-family="Arial" font-size="13px" font-style="normal" font-weight="bold" text-decoration="none" x="111.158203125" y="1460.5">AppEventService</text></g></g><g transform="translate(-37.09814453125,-10) scale(1,1)"><rect fill="#C0C0C0" stroke="none" x="97.40185546875" y="1855" width="141.234375" height="24" opacity="0.2"/></g><g transform="translate(-37.09814453125,-10) scale(1,1)"><rect fill="#ffffff" stroke="none" x="90.40185546875" y="1848" width="141.234375" height="24"/></g><g transform="translate(-37.09814453125,-10) scale(1,1)"><path fill="none" stroke="#000000" d="M 90.40185546875 1848 L 231.63623046875 1848 L 231.63623046875 1872 L 90.40185546875 1872 L 90.40185546875 1848 Z Z" stroke-miterlimit="10"/></g><g transform="translate(-37.09814453125,-10) scale(1,1)"><g><path fill="none" stroke="none"/><text fill="#000000" stroke="none" font-family="Arial" font-size="13px" font-style="normal" font-weight="bold" text-decoration="none" x="98.523193359375" y="1867.5">EmailDemandService</text></g></g><g transform="translate(-37.09814453125,-10) scale(1,1)"><rect fill="#C0C0C0" stroke="none" x="120.155029296875" y="1925" width="95.72802734375" height="37" opacity="0.2"/></g><g transform="translate(-37.09814453125,-10) scale(1,1)"><rect fill="#ffffff" stroke="none" x="113.155029296875" y="1918" width="95.72802734375" height="37"/></g><g transform="translate(-37.09814453125,-10) scale(1,1)"><path fill="none" stroke="#000000" d="M 113.155029296875 1918 L 208.883056640625 1918 L 208.883056640625 1955 L 113.155029296875 1955 L 113.155029296875 1918 Z Z" stroke-miterlimit="10"/></g><g transform="translate(-37.09814453125,-10) scale(1,1)"><g><path fill="none" stroke="none"/><text fill="#000000" stroke="none" font-family="Arial" font-size="13px" font-style="normal" font-weight="normal" text-decoration="none" x="117.655029296875" y="1935.5">«enumeration»</text></g></g><g transform="translate(-37.09814453125,-10) scale(1,1)"><g><path fill="none" stroke="none"/><text fill="#000000" stroke="none" font-family="Arial" font-size="13px" font-style="normal" font-weight="bold" text-decoration="none" x="123.091796875" y="1950.5">emailParams</text></g></g><g transform="translate(-37.09814453125,-10) scale(1,1)"><rect fill="#C0C0C0" stroke="none" x="102.0927734375" y="2183" width="131.8525390625" height="37" opacity="0.2"/></g><g transform="translate(-37.09814453125,-10) scale(1,1)"><rect fill="#ffffff" stroke="none" x="95.0927734375" y="2176" width="131.8525390625" height="37"/></g><g transform="translate(-37.09814453125,-10) scale(1,1)"><path fill="none" stroke="#000000" d="M 95.0927734375 2176 L 226.9453125 2176 L 226.9453125 2213 L 95.0927734375 2213 L 95.0927734375 2176 Z Z" stroke-miterlimit="10"/></g><g transform="translate(-37.09814453125,-10) scale(1,1)"><g><path fill="none" stroke="none"/><text fill="#000000" stroke="none" font-family="Arial" font-size="13px" font-style="normal" font-weight="normal" text-decoration="none" x="132.114990234375" y="2193.5">«Service»</text></g></g><g transform="translate(-37.09814453125,-10) scale(1,1)"><g><path fill="none" stroke="none"/><text fill="#000000" stroke="none" font-family="Arial" font-size="13px" font-style="normal" font-weight="bold" text-decoration="none" x="102.85546875" y="2208.5">MessageProService</text></g></g><g transform="translate(-37.09814453125,-10) scale(1,1)"><rect fill="#C0C0C0" stroke="none" x="127.048583984375" y="2218" width="81.94091796875" height="24" opacity="0.2"/></g><g transform="translate(-37.09814453125,-10) scale(1,1)"><rect fill="#ffffff" stroke="none" x="120.048583984375" y="2211" width="81.94091796875" height="24"/></g><g transform="translate(-37.09814453125,-10) scale(1,1)"><path fill="none" stroke="#000000" d="M 120.048583984375 2211 L 201.989501953125 2211 L 201.989501953125 2235 L 120.048583984375 2235 L 120.048583984375 2211 Z Z" stroke-miterlimit="10"/></g><g transform="translate(-37.09814453125,-10) scale(1,1)"><g><path fill="none" stroke="none"/><text fill="#000000" stroke="none" font-family="Arial" font-size="13px" font-style="normal" font-weight="bold" text-decoration="none" x="127.055908203125" y="2230.5">ConfHespul</text></g></g><g transform="translate(-37.09814453125,-10) scale(1,1)"><rect fill="#C0C0C0" stroke="none" x="75.74365234375" y="2253" width="184.55078125" height="37" opacity="0.2"/></g><g transform="translate(-37.09814453125,-10) scale(1,1)"><rect fill="#ffffff" stroke="none" x="68.74365234375" y="2246" width="184.55078125" height="37"/></g><g transform="translate(-37.09814453125,-10) scale(1,1)"><path fill="none" stroke="#000000" d="M 68.74365234375 2246 L 253.29443359375 2246 L 253.29443359375 2283 L 68.74365234375 2283 L 68.74365234375 2246 Z Z" stroke-miterlimit="10"/></g><g transform="translate(-37.09814453125,-10) scale(1,1)"><g><path fill="none" stroke="none"/><text fill="#000000" stroke="none" font-family="Arial" font-size="13px" font-style="normal" font-weight="normal" text-decoration="none" x="132.114990234375" y="2263.5">«Service»</text></g></g><g transform="translate(-37.09814453125,-10) scale(1,1)"><g><path fill="none" stroke="none"/><text fill="#000000" stroke="none" font-family="Arial" font-size="13px" font-style="normal" font-weight="bold" text-decoration="none" x="79.365966796875" y="2278.5">MeteringPointEnedisService</text></g></g><g transform="translate(-37.09814453125,-10) scale(1,1)"><rect fill="#C0C0C0" stroke="none" x="83.33544921875" y="2288" width="169.3671875" height="37" opacity="0.2"/></g><g transform="translate(-37.09814453125,-10) scale(1,1)"><rect fill="#ffffff" stroke="none" x="76.33544921875" y="2281" width="169.3671875" height="37"/></g><g transform="translate(-37.09814453125,-10) scale(1,1)"><path fill="none" stroke="#000000" d="M 76.33544921875 2281 L 245.70263671875 2281 L 245.70263671875 2318 L 76.33544921875 2318 L 76.33544921875 2281 Z Z" stroke-miterlimit="10"/></g><g transform="translate(-37.09814453125,-10) scale(1,1)"><g><path fill="none" stroke="none"/><text fill="#000000" stroke="none" font-family="Arial" font-size="13px" font-style="normal" font-weight="normal" text-decoration="none" x="132.114990234375" y="2298.5">«Service»</text></g></g><g transform="translate(-37.09814453125,-10) scale(1,1)"><g><path fill="none" stroke="none"/><text fill="#000000" stroke="none" font-family="Arial" font-size="13px" font-style="normal" font-weight="bold" text-decoration="none" x="86.59912109375" y="2313.5">MeteringPointGrdfService</text></g></g><g transform="translate(-37.09814453125,-10) scale(1,1)"><rect fill="#C0C0C0" stroke="none" x="97.055908203125" y="2323" width="141.92626953125" height="24" opacity="0.2"/></g><g transform="translate(-37.09814453125,-10) scale(1,1)"><rect fill="#ffffff" stroke="none" x="90.055908203125" y="2316" width="141.92626953125" height="24"/></g><g transform="translate(-37.09814453125,-10) scale(1,1)"><path fill="none" stroke="#000000" d="M 90.055908203125 2316 L 231.982177734375 2316 L 231.982177734375 2340 L 90.055908203125 2340 L 90.055908203125 2316 Z Z" stroke-miterlimit="10"/></g><g transform="translate(-37.09814453125,-10) scale(1,1)"><g><path fill="none" stroke="none"/><text fill="#000000" stroke="none" font-family="Arial" font-size="13px" font-style="normal" font-weight="bold" text-decoration="none" x="99.240478515625" y="2335.5">MeteringPointService</text></g></g><g transform="translate(-37.09814453125,-10) scale(1,1)"><rect fill="#C0C0C0" stroke="none" x="120.161376953125" y="2533" width="95.71533203125" height="37" opacity="0.2"/></g><g transform="translate(-37.09814453125,-10) scale(1,1)"><rect fill="#ffffff" stroke="none" x="113.161376953125" y="2526" width="95.71533203125" height="37"/></g><g transform="translate(-37.09814453125,-10) scale(1,1)"><path fill="none" stroke="#000000" d="M 113.161376953125 2526 L 208.876708984375 2526 L 208.876708984375 2563 L 113.161376953125 2563 L 113.161376953125 2526 Z Z" stroke-miterlimit="10"/></g><g transform="translate(-37.09814453125,-10) scale(1,1)"><g><path fill="none" stroke="none"/><text fill="#000000" stroke="none" font-family="Arial" font-size="13px" font-style="normal" font-weight="normal" text-decoration="none" x="134.279541015625" y="2543.5">«Sevice»</text></g></g><g transform="translate(-37.09814453125,-10) scale(1,1)"><g><path fill="none" stroke="none"/><text fill="#000000" stroke="none" font-family="Arial" font-size="13px" font-style="normal" font-weight="bold" text-decoration="none" x="120.9208984375" y="2558.5">ProfileService</text></g></g><g transform="translate(-37.09814453125,-10) scale(1,1)"><rect fill="#C0C0C0" stroke="none" x="82.253173828125" y="2568" width="171.53173828125" height="37" opacity="0.2"/></g><g transform="translate(-37.09814453125,-10) scale(1,1)"><rect fill="#ffffff" stroke="none" x="75.253173828125" y="2561" width="171.53173828125" height="37"/></g><g transform="translate(-37.09814453125,-10) scale(1,1)"><path fill="none" stroke="#000000" d="M 75.253173828125 2561 L 246.784912109375 2561 L 246.784912109375 2598 L 75.253173828125 2598 L 75.253173828125 2561 Z Z" stroke-miterlimit="10"/></g><g transform="translate(-37.09814453125,-10) scale(1,1)"><g><path fill="none" stroke="none"/><text fill="#000000" stroke="none" font-family="Arial" font-size="13px" font-style="normal" font-weight="normal" text-decoration="none" x="132.114990234375" y="2578.5">«Service»</text></g></g><g transform="translate(-37.09814453125,-10) scale(1,1)"><g><path fill="none" stroke="none"/><text fill="#000000" stroke="none" font-family="Arial" font-size="13px" font-style="normal" font-weight="bold" text-decoration="none" x="85.15185546875" y="2593.5">RequestMpControlService</text></g></g><g transform="translate(-37.09814453125,-10) scale(1,1)"><rect fill="#C0C0C0" stroke="none" x="105.358642578125" y="2603" width="125.32080078125" height="37" opacity="0.2"/></g><g transform="translate(-37.09814453125,-10) scale(1,1)"><rect fill="#ffffff" stroke="none" x="98.358642578125" y="2596" width="125.32080078125" height="37"/></g><g transform="translate(-37.09814453125,-10) scale(1,1)"><path fill="none" stroke="#000000" d="M 98.358642578125 2596 L 223.679443359375 2596 L 223.679443359375 2633 L 98.358642578125 2633 L 98.358642578125 2596 Z Z" stroke-miterlimit="10"/></g><g transform="translate(-37.09814453125,-10) scale(1,1)"><g><path fill="none" stroke="none"/><text fill="#000000" stroke="none" font-family="Arial" font-size="13px" font-style="normal" font-weight="normal" text-decoration="none" x="132.114990234375" y="2613.5">«Service»</text></g></g><g transform="translate(-37.09814453125,-10) scale(1,1)"><g><path fill="none" stroke="none"/><text fill="#000000" stroke="none" font-family="Arial" font-size="13px" font-style="normal" font-weight="bold" text-decoration="none" x="106.10546875" y="2628.5">RequestMpService</text></g></g><g transform="translate(-37.09814453125,-10) scale(1,1)"><path fill="none" stroke="#000000" d="M 484 189 Q 353 190 245 200" stroke-miterlimit="10"/></g><g transform="translate(-37.09814453125,-10) scale(1,1)"><path fill="#FFFFFF" stroke="none" d="M 264.46255741702765 189.74286303158124 L 245 200 L 266.0149974347409 206.50921522288465"/></g><g transform="translate(-37.09814453125,-10) scale(1,1)"><path fill="none" stroke="#000000" d="M 264.46255741702765 189.74286303158124 L 245 200 L 266.0149974347409 206.50921522288465 L 264.46255741702765 189.74286303158124" stroke-miterlimit="10"/></g><g transform="translate(-37.09814453125,-10) scale(1,1)"><path fill="none" stroke="#000000" d="M 494 224 Q 353 225 245 215" stroke-miterlimit="10"/></g><g transform="translate(-37.09814453125,-10) scale(1,1)"><path fill="#FFFFFF" stroke="none" d="M 266.0149974347409 208.49078477711535 L 245 215 L 264.46255741702765 225.25713696841876"/></g><g transform="translate(-37.09814453125,-10) scale(1,1)"><path fill="none" stroke="#000000" d="M 266.0149974347409 208.49078477711535 L 245 215 L 264.46255741702765 225.25713696841876 L 266.0149974347409 208.49078477711535" stroke-miterlimit="10"/></g><g transform="translate(-37.09814453125,-10) scale(1,1)"><path fill="none" stroke="#000000" d="M 467 264 Q 353 260 229 286" stroke-miterlimit="10"/></g><g transform="translate(-37.09814453125,-10) scale(1,1)"><path fill="#FFFFFF" stroke="none" d="M 247.16505321367745 273.58908376693057 L 229 286 L 250.6204753371474 290.06878927886424"/></g><g transform="translate(-37.09814453125,-10) scale(1,1)"><path fill="none" stroke="#000000" d="M 247.16505321367745 273.58908376693057 L 229 286 L 250.6204753371474 290.06878927886424 L 247.16505321367745 273.58908376693057" stroke-miterlimit="10"/></g><g transform="translate(-37.09814453125,-10) scale(1,1)"><path fill="none" stroke="#000000" d="M 474 369 Q 353 365 220 321" stroke-miterlimit="10"/></g><g transform="translate(-37.09814453125,-10) scale(1,1)"><path fill="#FFFFFF" stroke="none" d="M 241.94107624488296 319.3909091957779 L 220 321 L 236.65248281849816 335.3768847800775"/></g><g transform="translate(-37.09814453125,-10) scale(1,1)"><path fill="none" stroke="#000000" d="M 241.94107624488296 319.3909091957779 L 220 321 L 236.65248281849816 335.3768847800775 L 241.94107624488296 319.3909091957779" stroke-miterlimit="10"/></g><g transform="translate(-37.09814453125,-10) scale(1,1)"><path fill="none" stroke="#000000" d="M 475 1921 Q 353 1922 164 2958" stroke-miterlimit="10"/></g><g transform="translate(-37.09814453125,-10) scale(1,1)"><path fill="#FFFFFF" stroke="none" d="M 159.36545870534283 2936.493697970406 L 164 2958 L 175.93013642623075 2939.515632419487"/></g><g transform="translate(-37.09814453125,-10) scale(1,1)"><path fill="none" stroke="#000000" d="M 159.36545870534283 2936.493697970406 L 164 2958 L 175.93013642623075 2939.515632419487 L 159.36545870534283 2936.493697970406" stroke-miterlimit="10"/></g><g transform="translate(-37.09814453125,-10) scale(1,1)"><path fill="none" stroke="#000000" d="M 434 2992 Q 353 2989 221 2981" stroke-miterlimit="10"/></g><g transform="translate(-37.09814453125,-10) scale(1,1)"><path fill="#FFFFFF" stroke="none" d="M 241.79743383059864 2973.825967238584 L 221 2981 L 240.77881370694658 2990.633199278843"/></g><g transform="translate(-37.09814453125,-10) scale(1,1)"><path fill="none" stroke="#000000" d="M 241.79743383059864 2973.825967238584 L 221 2981 L 240.77881370694658 2990.633199278843 L 241.79743383059864 2973.825967238584" stroke-miterlimit="10"/></g><g transform="translate(-37.09814453125,-10) scale(1,1)"><path fill="none" stroke="#000000" d="M 452 399 Q 353 400 210 457" stroke-miterlimit="10"/></g><g transform="translate(-37.09814453125,-10) scale(1,1)"><path fill="#FFFFFF" stroke="none" d="M 225.76338569342641 441.65348015085243 L 210 457 L 231.998025171227 457.29476866533463"/></g><g transform="translate(-37.09814453125,-10) scale(1,1)"><path fill="none" stroke="#000000" d="M 225.76338569342641 441.65348015085243 L 210 457 L 231.998025171227 457.29476866533463 L 225.76338569342641 441.65348015085243" stroke-miterlimit="10"/></g><g transform="translate(-37.09814453125,-10) scale(1,1)"><path fill="none" stroke="#000000" d="M 460 491 Q 353 488 244 481" stroke-miterlimit="10"/></g><g transform="translate(-37.09814453125,-10) scale(1,1)"><path fill="#FFFFFF" stroke="none" d="M 264.82312620150174 473.9008863090994 L 244 481 L 263.7440051738352 490.7043423113351"/></g><g transform="translate(-37.09814453125,-10) scale(1,1)"><path fill="none" stroke="#000000" d="M 264.82312620150174 473.9008863090994 L 244 481 L 263.7440051738352 490.7043423113351 L 264.82312620150174 473.9008863090994" stroke-miterlimit="10"/></g><g transform="translate(-37.09814453125,-10) scale(1,1)"><path fill="none" stroke="#000000" d="M 792 245 Q 736 243 621 257" stroke-miterlimit="10"/></g><g transform="translate(-37.09814453125,-10) scale(1,1)"><path fill="#FFFFFF" stroke="none" d="M 640.1589738316709 246.18641032231432 L 621 257 L 642.1938029070105 262.9010777268897"/></g><g transform="translate(-37.09814453125,-10) scale(1,1)"><path fill="none" stroke="#000000" d="M 640.1589738316709 246.18641032231432 L 621 257 L 642.1938029070105 262.9010777268897 L 640.1589738316709 246.18641032231432" stroke-miterlimit="10"/></g><g transform="translate(-37.09814453125,-10) scale(1,1)"><path fill="none" stroke="#000000" d="M 793 315 Q 736 313 621 285" stroke-miterlimit="10"/></g><g transform="translate(-37.09814453125,-10) scale(1,1)"><path fill="#FFFFFF" stroke="none" d="M 642.7400848290101 281.6282479884422 L 621 285 L 638.7567501180157 297.9883726943119"/></g><g transform="translate(-37.09814453125,-10) scale(1,1)"><path fill="none" stroke="#000000" d="M 642.7400848290101 281.6282479884422 L 621 285 L 638.7567501180157 297.9883726943119 L 642.7400848290101 281.6282479884422" stroke-miterlimit="10"/></g><g transform="translate(-37.09814453125,-10) scale(1,1)"><path fill="none" stroke="#000000" d="M 800 351 Q 736 348 614 363" stroke-miterlimit="10"/></g><g transform="translate(-37.09814453125,-10) scale(1,1)"><path fill="#FFFFFF" stroke="none" d="M 633.1460507060766 352.16354567396024 L 614 363 L 635.2008326251693 368.8757719492472"/></g><g transform="translate(-37.09814453125,-10) scale(1,1)"><path fill="none" stroke="#000000" d="M 633.1460507060766 352.16354567396024 L 614 363 L 635.2008326251693 368.8757719492472 L 633.1460507060766 352.16354567396024" stroke-miterlimit="10"/></g><g transform="translate(-37.09814453125,-10) scale(1,1)"><path fill="none" stroke="#000000" d="M 801 526 Q 736 523 569 391" stroke-miterlimit="10"/></g><g transform="translate(-37.09814453125,-10) scale(1,1)"><path fill="#FFFFFF" stroke="none" d="M 590.1663351089081 396.9988547288131 L 569 391 L 579.7250282302791 410.2086899464726"/></g><g transform="translate(-37.09814453125,-10) scale(1,1)"><path fill="none" stroke="#000000" d="M 590.1663351089081 396.9988547288131 L 569 391 L 579.7250282302791 410.2086899464726 L 590.1663351089081 396.9988547288131" stroke-miterlimit="10"/></g><g transform="translate(-37.09814453125,-10) scale(1,1)"><path fill="none" stroke="#000000" d="M 792 560 Q 736 558 561 754" stroke-miterlimit="10"/></g><g transform="translate(-37.09814453125,-10) scale(1,1)"><path fill="#FFFFFF" stroke="none" d="M 568.2569277640819 733.2313457482942 L 561 754 L 580.8170790900632 744.4457665750632"/></g><g transform="translate(-37.09814453125,-10) scale(1,1)"><path fill="none" stroke="#000000" d="M 568.2569277640819 733.2313457482942 L 561 754 L 580.8170790900632 744.4457665750632 L 568.2569277640819 733.2313457482942" stroke-miterlimit="10"/></g><g transform="translate(-37.09814453125,-10) scale(1,1)"><path fill="none" stroke="#000000" d="M 785 787 Q 736 785 605 777" stroke-miterlimit="10"/></g><g transform="translate(-37.09814453125,-10) scale(1,1)"><path fill="#FFFFFF" stroke="none" d="M 625.8007383887274 769.835554279379 L 605 777 L 624.7743713208505 786.6423150158624"/></g><g transform="translate(-37.09814453125,-10) scale(1,1)"><path fill="none" stroke="#000000" d="M 625.8007383887274 769.835554279379 L 605 777 L 624.7743713208505 786.6423150158624 L 625.8007383887274 769.835554279379" stroke-miterlimit="10"/></g></g></svg>