<svg version="1.1" xmlns="http://www.w3.org/2000/svg" xmlns:xlink="http://www.w3.org/1999/xlink" width="430.4072265625" height="57"><defs/><g><g transform="translate(-306.47412109375,-10) scale(1,1)"><rect fill="#C0C0C0" stroke="none" x="323.47412109375" y="27" width="136.130859375" height="24" opacity="0.2"/></g><g transform="translate(-306.47412109375,-10) scale(1,1)"><rect fill="#ffffff" stroke="none" x="316.47412109375" y="20" width="136.130859375" height="24"/></g><g transform="translate(-306.47412109375,-10) scale(1,1)"><path fill="none" stroke="#000000" d="M 316.47412109375 20 L 452.60498046875 20 L 452.60498046875 44 L 316.47412109375 44 L 316.47412109375 20 Z Z" stroke-miterlimit="10"/></g><g transform="translate(-306.47412109375,-10) scale(1,1)"><g><path fill="none" stroke="none"/><text fill="#000000" stroke="none" font-family="Arial" font-size="13px" font-style="normal" font-weight="bold" text-decoration="none" x="325.642822265625" y="39.5">PeriodSlideConsJob</text></g></g><g transform="translate(-306.47412109375,-10) scale(1,1)"><rect fill="#C0C0C0" stroke="none" x="490.60498046875" y="27" width="98.55908203125" height="37" opacity="0.2"/></g><g transform="translate(-306.47412109375,-10) scale(1,1)"><rect fill="#ffffff" stroke="none" x="483.60498046875" y="20" width="98.55908203125" height="37"/></g><g transform="translate(-306.47412109375,-10) scale(1,1)"><path fill="none" stroke="#000000" d="M 483.60498046875 20 L 582.1640625 20 L 582.1640625 57 L 483.60498046875 57 L 483.60498046875 20 Z Z" stroke-miterlimit="10"/></g><g transform="translate(-306.47412109375,-10) scale(1,1)"><g><path fill="none" stroke="none"/><text fill="#000000" stroke="none" font-family="Arial" font-size="13px" font-style="normal" font-weight="normal" text-decoration="none" x="515.174560546875" y="37.5">«Job»</text></g></g><g transform="translate(-306.47412109375,-10) scale(1,1)"><g><path fill="none" stroke="none"/><text fill="#000000" stroke="none" font-family="Arial" font-size="13px" font-style="normal" font-weight="bold" text-decoration="none" x="492.056396484375" y="52.5">SimulationJob</text></g></g><g transform="translate(-306.47412109375,-10) scale(1,1)"><rect fill="#C0C0C0" stroke="none" x="620.1640625" y="27" width="113.71728515625" height="24" opacity="0.2"/></g><g transform="translate(-306.47412109375,-10) scale(1,1)"><rect fill="#ffffff" stroke="none" x="613.1640625" y="20" width="113.71728515625" height="24"/></g><g transform="translate(-306.47412109375,-10) scale(1,1)"><path fill="none" stroke="#000000" d="M 613.1640625 20 L 726.88134765625 20 L 726.88134765625 44 L 613.1640625 44 L 613.1640625 20 Z Z" stroke-miterlimit="10"/></g><g transform="translate(-306.47412109375,-10) scale(1,1)"><g><path fill="none" stroke="none"/><text fill="#000000" stroke="none" font-family="Arial" font-size="13px" font-style="normal" font-weight="bold" text-decoration="none" x="621.96142578125" y="39.5">StartupSingleton</text></g></g></g></svg>