<svg version="1.1" xmlns="http://www.w3.org/2000/svg" xmlns:xlink="http://www.w3.org/1999/xlink" width="1009.4033203125" height="44"><defs/><g><g transform="translate(-10,-10) scale(1,1)"><rect fill="#C0C0C0" stroke="none" x="27" y="27" width="108.68359375" height="24" opacity="0.2"/></g><g transform="translate(-10,-10) scale(1,1)"><rect fill="#ffffff" stroke="none" x="20" y="20" width="108.68359375" height="24"/></g><g transform="translate(-10,-10) scale(1,1)"><path fill="none" stroke="#000000" d="M 20 20 L 128.68359375 20 L 128.68359375 44 L 20 44 L 20 20 Z Z" stroke-miterlimit="10"/></g><g transform="translate(-10,-10) scale(1,1)"><g><path fill="none" stroke="none"/><text fill="#000000" stroke="none" font-family="Arial" font-size="13px" font-style="normal" font-weight="bold" text-decoration="none" x="28.09912109375" y="39.5">EmailReportJob</text></g></g><g transform="translate(-10,-10) scale(1,1)"><rect fill="#C0C0C0" stroke="none" x="166.68359375" y="27" width="125.79052734375" height="24" opacity="0.2"/></g><g transform="translate(-10,-10) scale(1,1)"><rect fill="#ffffff" stroke="none" x="159.68359375" y="20" width="125.79052734375" height="24"/></g><g transform="translate(-10,-10) scale(1,1)"><path fill="none" stroke="#000000" d="M 159.68359375 20 L 285.47412109375 20 L 285.47412109375 44 L 159.68359375 44 L 159.68359375 20 Z Z" stroke-miterlimit="10"/></g><g transform="translate(-10,-10) scale(1,1)"><g><path fill="none" stroke="none"/><text fill="#000000" stroke="none" font-family="Arial" font-size="13px" font-style="normal" font-weight="bold" text-decoration="none" x="167.652587890625" y="39.5">GenerateTokenJob</text></g></g><g transform="translate(-10,-10) scale(1,1)"><rect fill="#C0C0C0" stroke="none" x="323.47412109375" y="27" width="136.130859375" height="24" opacity="0.2"/></g><g transform="translate(-10,-10) scale(1,1)"><rect fill="#ffffff" stroke="none" x="316.47412109375" y="20" width="136.130859375" height="24"/></g><g transform="translate(-10,-10) scale(1,1)"><path fill="none" stroke="#000000" d="M 316.47412109375 20 L 452.60498046875 20 L 452.60498046875 44 L 316.47412109375 44 L 316.47412109375 20 Z Z" stroke-miterlimit="10"/></g><g transform="translate(-10,-10) scale(1,1)"><g><path fill="none" stroke="none"/><text fill="#000000" stroke="none" font-family="Arial" font-size="13px" font-style="normal" font-weight="bold" text-decoration="none" x="325.642822265625" y="39.5">PeriodSlideConsJob</text></g></g><g transform="translate(-10,-10) scale(1,1)"><rect fill="#C0C0C0" stroke="none" x="490.60498046875" y="27" width="98.55908203125" height="24" opacity="0.2"/></g><g transform="translate(-10,-10) scale(1,1)"><rect fill="#ffffff" stroke="none" x="483.60498046875" y="20" width="98.55908203125" height="24"/></g><g transform="translate(-10,-10) scale(1,1)"><path fill="none" stroke="#000000" d="M 483.60498046875 20 L 582.1640625 20 L 582.1640625 44 L 483.60498046875 44 L 483.60498046875 20 Z Z" stroke-miterlimit="10"/></g><g transform="translate(-10,-10) scale(1,1)"><g><path fill="none" stroke="none"/><text fill="#000000" stroke="none" font-family="Arial" font-size="13px" font-style="normal" font-weight="bold" text-decoration="none" x="492.056396484375" y="39.5">SimulationJob</text></g></g><g transform="translate(-10,-10) scale(1,1)"><rect fill="#C0C0C0" stroke="none" x="620.1640625" y="27" width="113.71728515625" height="24" opacity="0.2"/></g><g transform="translate(-10,-10) scale(1,1)"><rect fill="#ffffff" stroke="none" x="613.1640625" y="20" width="113.71728515625" height="24"/></g><g transform="translate(-10,-10) scale(1,1)"><path fill="none" stroke="#000000" d="M 613.1640625 20 L 726.88134765625 20 L 726.88134765625 44 L 613.1640625 44 L 613.1640625 20 Z Z" stroke-miterlimit="10"/></g><g transform="translate(-10,-10) scale(1,1)"><g><path fill="none" stroke="none"/><text fill="#000000" stroke="none" font-family="Arial" font-size="13px" font-style="normal" font-weight="bold" text-decoration="none" x="621.96142578125" y="39.5">StartupSingleton</text></g></g><g transform="translate(-10,-10) scale(1,1)"><rect fill="#C0C0C0" stroke="none" x="764.88134765625" y="27" width="137.35595703125" height="24" opacity="0.2"/></g><g transform="translate(-10,-10) scale(1,1)"><rect fill="#ffffff" stroke="none" x="757.88134765625" y="20" width="137.35595703125" height="24"/></g><g transform="translate(-10,-10) scale(1,1)"><path fill="none" stroke="#000000" d="M 757.88134765625 20 L 895.2373046875 20 L 895.2373046875 44 L 757.88134765625 44 L 757.88134765625 20 Z Z" stroke-miterlimit="10"/></g><g transform="translate(-10,-10) scale(1,1)"><g><path fill="none" stroke="none"/><text fill="#000000" stroke="none" font-family="Arial" font-size="13px" font-style="normal" font-weight="bold" text-decoration="none" x="766.345458984375" y="39.5">WeatherForecastJob</text></g></g><g transform="translate(-10,-10) scale(1,1)"><rect fill="#C0C0C0" stroke="none" x="933.2373046875" y="27" width="83.166015625" height="24" opacity="0.2"/></g><g transform="translate(-10,-10) scale(1,1)"><rect fill="#ffffff" stroke="none" x="926.2373046875" y="20" width="83.166015625" height="24"/></g><g transform="translate(-10,-10) scale(1,1)"><path fill="none" stroke="#000000" d="M 926.2373046875 20 L 1009.4033203125 20 L 1009.4033203125 44 L 926.2373046875 44 L 926.2373046875 20 Z Z" stroke-miterlimit="10"/></g><g transform="translate(-10,-10) scale(1,1)"><g><path fill="none" stroke="none"/><text fill="#000000" stroke="none" font-family="Arial" font-size="13px" font-style="normal" font-weight="bold" text-decoration="none" x="932.892333984375" y="39.5">WeatherJob</text></g></g></g></svg>