<svg version="1.1" xmlns="http://www.w3.org/2000/svg" xmlns:xlink="http://www.w3.org/1999/xlink" width="675.68994140625" height="443"><defs/><g><g transform="translate(-798,-342) scale(1,1)"><rect fill="#C0C0C0" stroke="none" x="983" y="463" width="94.9599609375" height="47" opacity="0.2"/></g><g transform="translate(-798,-342) scale(1,1)"><rect fill="#ffffff" stroke="none" x="976" y="456" width="94.9599609375" height="47"/></g><g transform="translate(-798,-342) scale(1,1)"><path fill="none" stroke="#000000" d="M 976 456 L 1070.9599609375 456 L 1070.9599609375 503 L 976 503 L 976 456 Z Z" stroke-miterlimit="10"/></g><g transform="translate(-798,-342) scale(1,1)"><path fill="none" stroke="#000000" d="M 976 494 L 1070.9599609375 494" stroke-miterlimit="10"/></g><g transform="translate(-798,-342) scale(1,1)"><g><path fill="none" stroke="none"/><text fill="#000000" stroke="none" font-family="Arial" font-size="13px" font-style="normal" font-weight="normal" text-decoration="none" x="984.81640625" y="473.5">«JsonModel»</text></g></g><g transform="translate(-798,-342) scale(1,1)"><g><path fill="none" stroke="none"/><text fill="#000000" stroke="none" font-family="Arial" font-size="13px" font-style="normal" font-weight="bold" text-decoration="none" x="982.3154296875" y="488.5">MTErrorJSON</text></g></g><g transform="translate(-798,-342) scale(1,1)"><rect fill="#C0C0C0" stroke="none" x="967" y="623" width="118.83984375" height="47" opacity="0.2"/></g><g transform="translate(-798,-342) scale(1,1)"><rect fill="#ffffff" stroke="none" x="960" y="616" width="118.83984375" height="47"/></g><g transform="translate(-798,-342) scale(1,1)"><path fill="none" stroke="#000000" d="M 960 616 L 1078.83984375 616 L 1078.83984375 663 L 960 663 L 960 616 Z Z" stroke-miterlimit="10"/></g><g transform="translate(-798,-342) scale(1,1)"><path fill="none" stroke="#000000" d="M 960 654 L 1078.83984375 654" stroke-miterlimit="10"/></g><g transform="translate(-798,-342) scale(1,1)"><g><path fill="none" stroke="none"/><text fill="#000000" stroke="none" font-family="Arial" font-size="13px" font-style="normal" font-weight="normal" text-decoration="none" x="984.0126953125" y="633.5">«Controller»</text></g></g><g transform="translate(-798,-342) scale(1,1)"><g><path fill="none" stroke="none"/><text fill="#000000" stroke="none" font-family="Arial" font-size="13px" font-style="normal" font-weight="bold" text-decoration="none" x="966.686767578125" y="648.5">UserRESTService</text></g></g><g transform="translate(-798,-342) scale(1,1)"><rect fill="#C0C0C0" stroke="none" x="1111" y="735" width="136.15625" height="47" opacity="0.2"/></g><g transform="translate(-798,-342) scale(1,1)"><rect fill="#ffffff" stroke="none" x="1104" y="728" width="136.15625" height="47"/></g><g transform="translate(-798,-342) scale(1,1)"><path fill="none" stroke="#000000" d="M 1104 728 L 1240.15625 728 L 1240.15625 775 L 1104 775 L 1104 728 Z Z" stroke-miterlimit="10"/></g><g transform="translate(-798,-342) scale(1,1)"><path fill="none" stroke="#000000" d="M 1104 766 L 1240.15625 766" stroke-miterlimit="10"/></g><g transform="translate(-798,-342) scale(1,1)"><g><path fill="none" stroke="none"/><text fill="#000000" stroke="none" font-family="Arial" font-size="13px" font-style="normal" font-weight="normal" text-decoration="none" x="1136.302734375" y="745.5">«Exception»</text></g></g><g transform="translate(-798,-342) scale(1,1)"><g><path fill="none" stroke="none"/><text fill="#000000" stroke="none" font-family="Arial" font-size="13px" font-style="normal" font-weight="bold" text-decoration="none" x="1112.4736328125" y="760.5">MTServiceException</text></g></g><g transform="translate(-798,-342) scale(1,1)"><rect fill="#C0C0C0" stroke="none" x="1135" y="471" width="184.55078125" height="47" opacity="0.2"/></g><g transform="translate(-798,-342) scale(1,1)"><rect fill="#ffffff" stroke="none" x="1128" y="464" width="184.55078125" height="47"/></g><g transform="translate(-798,-342) scale(1,1)"><path fill="none" stroke="#000000" d="M 1128 464 L 1312.55078125 464 L 1312.55078125 511 L 1128 511 L 1128 464 Z Z" stroke-miterlimit="10"/></g><g transform="translate(-798,-342) scale(1,1)"><path fill="none" stroke="#000000" d="M 1128 502 L 1312.55078125 502" stroke-miterlimit="10"/></g><g transform="translate(-798,-342) scale(1,1)"><g><path fill="none" stroke="none"/><text fill="#000000" stroke="none" font-family="Arial" font-size="13px" font-style="normal" font-weight="normal" text-decoration="none" x="1191.371337890625" y="481.5">«Service»</text></g></g><g transform="translate(-798,-342) scale(1,1)"><g><path fill="none" stroke="none"/><text fill="#000000" stroke="none" font-family="Arial" font-size="13px" font-style="normal" font-weight="bold" text-decoration="none" x="1138.622314453125" y="496.5">MeteringPointEnedisService</text></g></g><g transform="translate(-798,-342) scale(1,1)"><path fill="none" stroke="#000000" d="M 1079 639 L 1187 639 L 1187 511" stroke-miterlimit="10"/></g><g transform="translate(-798,-342) scale(1,1)"><path fill="none" stroke="#000000" d="M 1191.2095177560159 521.1626748576241 L 1187 511 L 1182.7904822439841 521.1626748576241" stroke-miterlimit="10"/></g><g transform="translate(-798,-342) scale(1,1)"><rect fill="#C0C0C0" stroke="none" x="815" y="551" width="136.6005859375" height="37" opacity="0.2"/></g><g transform="translate(-798,-342) scale(1,1)"><rect fill="#ffffff" stroke="none" x="808" y="544" width="136.6005859375" height="37"/></g><g transform="translate(-798,-342) scale(1,1)"><path fill="none" stroke="#000000" d="M 808 544 L 944.6005859375 544 L 944.6005859375 581 L 808 581 L 808 544 Z Z" stroke-miterlimit="10"/></g><g transform="translate(-798,-342) scale(1,1)"><path fill="none" stroke="#000000" d="M -246 191 L -237 191" stroke-miterlimit="10"/></g><g transform="translate(-798,-342) scale(1,1)"><g><path fill="none" stroke="none"/><text fill="#000000" stroke="none" font-family="Arial" font-size="13px" font-style="normal" font-weight="normal" text-decoration="none" x="832.936279296875" y="561.5">«enumeration»</text></g></g><g transform="translate(-798,-342) scale(1,1)"><g><path fill="none" stroke="none"/><text fill="#000000" stroke="none" font-family="Arial" font-size="13px" font-style="normal" font-weight="bold" text-decoration="none" x="815.60400390625" y="576.5">MTInternalCodeType</text></g></g><g transform="translate(-798,-342) scale(1,1)"><rect fill="#C0C0C0" stroke="none" x="1175" y="623" width="128.919921875" height="47" opacity="0.2"/></g><g transform="translate(-798,-342) scale(1,1)"><rect fill="#ffffff" stroke="none" x="1168" y="616" width="128.919921875" height="47"/></g><g transform="translate(-798,-342) scale(1,1)"><path fill="none" stroke="#000000" d="M 1168 616 L 1296.919921875 616 L 1296.919921875 663 L 1168 663 L 1168 616 Z Z" stroke-miterlimit="10"/></g><g transform="translate(-798,-342) scale(1,1)"><path fill="none" stroke="#000000" d="M 1168 654 L 1296.919921875 654" stroke-miterlimit="10"/></g><g transform="translate(-798,-342) scale(1,1)"><g><path fill="none" stroke="none"/><text fill="#000000" stroke="none" font-family="Arial" font-size="13px" font-style="normal" font-weight="normal" text-decoration="none" x="1203.55908203125" y="633.5">«Factory»</text></g></g><g transform="translate(-798,-342) scale(1,1)"><g><path fill="none" stroke="none"/><text fill="#000000" stroke="none" font-family="Arial" font-size="13px" font-style="normal" font-weight="bold" text-decoration="none" x="1176.46728515625" y="648.5">DpsHandlerFactory</text></g></g><g transform="translate(-798,-342) scale(1,1)"><path fill="none" stroke="#000000" d="M 1079 639 L 1168 639" stroke-miterlimit="10"/></g><g transform="translate(-798,-342) scale(1,1)"><path fill="none" stroke="#000000" d="M 1157.837325142376 643.209517756016 L 1168 639 L 1157.837325142376 634.790482243984" stroke-miterlimit="10"/></g><g transform="translate(-798,-342) scale(1,1)"><rect fill="#C0C0C0" stroke="none" x="1343" y="551" width="127.47900390625" height="47" opacity="0.2"/></g><g transform="translate(-798,-342) scale(1,1)"><rect fill="#ffffff" stroke="none" x="1336" y="544" width="127.47900390625" height="47"/></g><g transform="translate(-798,-342) scale(1,1)"><path fill="none" stroke="#000000" d="M 1336 544 L 1463.47900390625 544 L 1463.47900390625 591 L 1336 591 L 1336 544 Z Z" stroke-miterlimit="10"/></g><g transform="translate(-798,-342) scale(1,1)"><path fill="none" stroke="#000000" d="M 1336 582 L 1463.47900390625 582" stroke-miterlimit="10"/></g><g transform="translate(-798,-342) scale(1,1)"><g><path fill="none" stroke="none"/><text fill="#000000" stroke="none" font-family="Arial" font-size="13px" font-style="normal" font-weight="normal" text-decoration="none" x="1369.746826171875" y="561.5">«Handler»</text></g></g><g transform="translate(-798,-342) scale(1,1)"><g><path fill="none" stroke="none"/><text fill="#000000" stroke="none" font-family="Arial" font-size="13px" font-style="normal" font-weight="bold" text-decoration="none" x="1343.978515625" y="576.5">EnedisTrueHandler</text></g></g><g transform="translate(-798,-342) scale(1,1)"><rect fill="#C0C0C0" stroke="none" x="1375" y="391" width="95.68994140625" height="47" opacity="0.2"/></g><g transform="translate(-798,-342) scale(1,1)"><rect fill="#ffffff" stroke="none" x="1368" y="384" width="95.68994140625" height="47"/></g><g transform="translate(-798,-342) scale(1,1)"><path fill="none" stroke="#000000" d="M 1368 384 L 1463.68994140625 384 L 1463.68994140625 431 L 1368 431 L 1368 384 Z Z" stroke-miterlimit="10"/></g><g transform="translate(-798,-342) scale(1,1)"><path fill="none" stroke="#000000" d="M 1368 422 L 1463.68994140625 422" stroke-miterlimit="10"/></g><g transform="translate(-798,-342) scale(1,1)"><g><path fill="none" stroke="none"/><text fill="#000000" stroke="none" font-family="Arial" font-size="13px" font-style="normal" font-weight="normal" text-decoration="none" x="1379.345947265625" y="401.5">«Response»</text></g></g><g transform="translate(-798,-342) scale(1,1)"><g><path fill="none" stroke="none"/><text fill="#000000" stroke="none" font-family="Arial" font-size="13px" font-style="normal" font-weight="bold" text-decoration="none" x="1375.016845703125" y="416.5">DpsResponse</text></g></g><g transform="translate(-798,-342) scale(1,1)"><rect fill="#C0C0C0" stroke="none" x="959" y="359" width="165.7490234375" height="47" opacity="0.2"/></g><g transform="translate(-798,-342) scale(1,1)"><rect fill="#ffffff" stroke="none" x="952" y="352" width="165.7490234375" height="47"/></g><g transform="translate(-798,-342) scale(1,1)"><path fill="none" stroke="#000000" d="M 952 352 L 1117.7490234375 352 L 1117.7490234375 399 L 952 399 L 952 352 Z Z" stroke-miterlimit="10"/></g><g transform="translate(-798,-342) scale(1,1)"><path fill="none" stroke="#000000" d="M 952 390 L 1117.7490234375 390" stroke-miterlimit="10"/></g><g transform="translate(-798,-342) scale(1,1)"><g><path fill="none" stroke="none"/><text fill="#000000" stroke="none" font-family="Arial" font-size="13px" font-style="normal" font-weight="normal" text-decoration="none" x="996.575927734375" y="369.5">«Repository»</text></g></g><g transform="translate(-798,-342) scale(1,1)"><g><path fill="none" stroke="none"/><text fill="#000000" stroke="none" font-family="Arial" font-size="13px" font-style="normal" font-weight="bold" text-decoration="none" x="962.263671875" y="384.5">DpsErrorCodeRepository</text></g></g><g transform="translate(-798,-342) scale(1,1)"><path fill="none" stroke="#000000" d="M 1053 663 L 1053 680 L 1128 680 L 1128 728" stroke-miterlimit="10" stroke-dasharray="3"/></g><g transform="translate(-798,-342) scale(1,1)"><path fill="none" stroke="#000000" d="M 1123.7904822439841 717.8373251423759 L 1128 728 L 1132.2095177560159 717.8373251423759" stroke-miterlimit="10"/></g><g transform="translate(-798,-342) scale(1,1)"><path fill="none" stroke="#000000" d="M 1023 616 L 1023 503" stroke-miterlimit="10" stroke-dasharray="3"/></g><g transform="translate(-798,-342) scale(1,1)"><path fill="none" stroke="#000000" d="M 1027.2095177560159 513.1626748576241 L 1023 503 L 1018.790482243984 513.1626748576241" stroke-miterlimit="10"/></g><g transform="translate(-798,-342) scale(1,1)"><rect fill="#C0C0C0" stroke="none" x="935" y="735" width="89.89453125" height="37" opacity="0.2"/></g><g transform="translate(-798,-342) scale(1,1)"><rect fill="#ffffff" stroke="none" x="928" y="728" width="89.89453125" height="37"/></g><g transform="translate(-798,-342) scale(1,1)"><path fill="none" stroke="#000000" d="M 928 728 L 1017.89453125 728 L 1017.89453125 765 L 928 765 L 928 728 Z Z" stroke-miterlimit="10"/></g><g transform="translate(-798,-342) scale(1,1)"><g><path fill="none" stroke="none"/><text fill="#000000" stroke="none" font-family="Arial" font-size="13px" font-style="normal" font-weight="normal" text-decoration="none" x="937.171875" y="745.5">«Exception»</text></g></g><g transform="translate(-798,-342) scale(1,1)"><g><path fill="none" stroke="none"/><text fill="#000000" stroke="none" font-family="Arial" font-size="13px" font-style="normal" font-weight="bold" text-decoration="none" x="935.016845703125" y="760.5">MTException</text></g></g><g transform="translate(-798,-342) scale(1,1)"><path fill="none" stroke="#000000" d="M 1104 749 L 1018 749" stroke-miterlimit="10"/></g><g transform="translate(-798,-342) scale(1,1)"><path fill="#FFFFFF" stroke="none" d="M 1038.3253497152482 740.580964487968 L 1018 749 L 1038.3253497152482 757.419035512032"/></g><g transform="translate(-798,-342) scale(1,1)"><path fill="none" stroke="#000000" d="M 1038.3253497152482 740.580964487968 L 1018 749 L 1038.3253497152482 757.419035512032 L 1038.3253497152482 740.580964487968" stroke-miterlimit="10"/></g><g transform="translate(-798,-342) scale(1,1)"><path fill="none" stroke="#000000" d="M 928 744 L 880 744 L 880 581" stroke-miterlimit="10" stroke-dasharray="3"/></g><g transform="translate(-798,-342) scale(1,1)"><path fill="none" stroke="#000000" d="M 884.209517756016 591.1626748576241 L 880 581 L 875.790482243984 591.1626748576241" stroke-miterlimit="10"/></g><g transform="translate(-798,-342) scale(1,1)"><path fill="none" stroke="#000000" d="M 1222 511 L 1222 616" stroke-miterlimit="10"/></g><g transform="translate(-798,-342) scale(1,1)"><path fill="#000000" stroke="none" d="M 1217.7904822439841 605.8373251423759 L 1222 616 L 1226.2095177560159 605.8373251423759 L 1222 594"/></g><g transform="translate(-798,-342) scale(1,1)"><path fill="none" stroke="#000000" d="M 1217.7904822439841 605.8373251423759 L 1222 616 L 1226.2095177560159 605.8373251423759 L 1222 594 L 1217.7904822439841 605.8373251423759" stroke-miterlimit="10"/></g><g transform="translate(-798,-342) scale(1,1)"><path fill="none" stroke="#000000" d="M 1297 639 L 1341 639 L 1341 591" stroke-miterlimit="10"/></g><g transform="translate(-798,-342) scale(1,1)"><path fill="#000000" stroke="none" d="M 1345.2095177560159 601.1626748576241 L 1341 591 L 1336.7904822439841 601.1626748576241 L 1341 613"/></g><g transform="translate(-798,-342) scale(1,1)"><path fill="none" stroke="#000000" d="M 1345.2095177560159 601.1626748576241 L 1341 591 L 1336.7904822439841 601.1626748576241 L 1341 613 L 1345.2095177560159 601.1626748576241" stroke-miterlimit="10"/></g><g transform="translate(-798,-342) scale(1,1)"><path fill="none" stroke="#000000" d="M 1406 544 L 1406 431" stroke-miterlimit="10" stroke-dasharray="3"/></g><g transform="translate(-798,-342) scale(1,1)"><path fill="none" stroke="#000000" d="M 1410.2095177560159 441.16267485762415 L 1406 431 L 1401.7904822439841 441.16267485762415" stroke-miterlimit="10"/></g><g transform="translate(-798,-342) scale(1,1)"><path fill="none" stroke="#000000" d="M 1352 544 L 1352 400 L 1034 400 L 1034 399" stroke-miterlimit="10" stroke-dasharray="3"/></g><g transform="translate(-798,-342) scale(1,1)"><path fill="none" stroke="#000000" d="M 1038.2095177560159 409.16267485762415 L 1034 399 L 1029.7904822439841 409.16267485762415" stroke-miterlimit="10"/></g></g></svg>