<svg version="1.1" xmlns="http://www.w3.org/2000/svg" xmlns:xlink="http://www.w3.org/1999/xlink" width="808.828369140625" height="1721.5"><defs/><g><g transform="translate(-38.904052734375,-10) scale(1,1)"><rect fill="#C0C0C0" stroke="none" x="431.375732421875" y="845" width="170.814453125" height="24" opacity="0.2"/></g><g transform="translate(-38.904052734375,-10) scale(1,1)"><rect fill="#ffffff" stroke="none" x="424.375732421875" y="838" width="170.814453125" height="24"/></g><g transform="translate(-38.904052734375,-10) scale(1,1)"><path fill="none" stroke="#000000" d="M 424.375732421875 838 L 595.190185546875 838 L 595.190185546875 862 L 424.375732421875 862 L 424.375732421875 838 Z Z" stroke-miterlimit="10"/></g><g transform="translate(-38.904052734375,-10) scale(1,1)"><g><path fill="none" stroke="none"/><text fill="#000000" stroke="none" font-family="Arial" font-size="13px" font-style="normal" font-weight="bold" text-decoration="none" x="434.6298828125" y="857.5">CheckExpiredConsentJob</text></g></g><g transform="translate(-38.904052734375,-10) scale(1,1)"><rect fill="#C0C0C0" stroke="none" x="474.362060546875" y="880" width="84.841796875" height="24" opacity="0.2"/></g><g transform="translate(-38.904052734375,-10) scale(1,1)"><rect fill="#ffffff" stroke="none" x="467.362060546875" y="873" width="84.841796875" height="24"/></g><g transform="translate(-38.904052734375,-10) scale(1,1)"><path fill="none" stroke="#000000" d="M 467.362060546875 873 L 552.203857421875 873 L 552.203857421875 897 L 467.362060546875 897 L 467.362060546875 873 Z Z" stroke-miterlimit="10"/></g><g transform="translate(-38.904052734375,-10) scale(1,1)"><g><path fill="none" stroke="none"/><text fill="#000000" stroke="none" font-family="Arial" font-size="13px" font-style="normal" font-weight="bold" text-decoration="none" x="474.0107421875" y="892.5">CleanDbJob</text></g></g><g transform="translate(-38.904052734375,-10) scale(1,1)"><rect fill="#C0C0C0" stroke="none" x="439.326171875" y="915" width="154.91357421875" height="24" opacity="0.2"/></g><g transform="translate(-38.904052734375,-10) scale(1,1)"><rect fill="#ffffff" stroke="none" x="432.326171875" y="908" width="154.91357421875" height="24"/></g><g transform="translate(-38.904052734375,-10) scale(1,1)"><path fill="none" stroke="#000000" d="M 432.326171875 908 L 587.23974609375 908 L 587.23974609375 932 L 432.326171875 932 L 432.326171875 908 Z Z" stroke-miterlimit="10"/></g><g transform="translate(-38.904052734375,-10) scale(1,1)"><g><path fill="none" stroke="none"/><text fill="#000000" stroke="none" font-family="Arial" font-size="13px" font-style="normal" font-weight="bold" text-decoration="none" x="441.488525390625" y="927.5">DataConnectEnedisJob</text></g></g><g transform="translate(-38.904052734375,-10) scale(1,1)"><rect fill="#C0C0C0" stroke="none" x="462.079345703125" y="950" width="109.4072265625" height="24" opacity="0.2"/></g><g transform="translate(-38.904052734375,-10) scale(1,1)"><rect fill="#ffffff" stroke="none" x="455.079345703125" y="943" width="109.4072265625" height="24"/></g><g transform="translate(-38.904052734375,-10) scale(1,1)"><path fill="none" stroke="#000000" d="M 455.079345703125 943 L 564.486572265625 943 L 564.486572265625 967 L 455.079345703125 967 L 455.079345703125 943 Z Z" stroke-miterlimit="10"/></g><g transform="translate(-38.904052734375,-10) scale(1,1)"><g><path fill="none" stroke="none"/><text fill="#000000" stroke="none" font-family="Arial" font-size="13px" font-style="italic" font-weight="bold" text-decoration="none" x="463.902099609375" y="962.5">AbstractDpsJob</text></g></g><g transform="translate(-38.904052734375,-10) scale(1,1)"><rect fill="#C0C0C0" stroke="none" x="732.443359375" y="915" width="112.2890625" height="24" opacity="0.2"/></g><g transform="translate(-38.904052734375,-10) scale(1,1)"><rect fill="#ffffff" stroke="none" x="725.443359375" y="908" width="112.2890625" height="24"/></g><g transform="translate(-38.904052734375,-10) scale(1,1)"><path fill="none" stroke="#000000" d="M 725.443359375 908 L 837.732421875 908 L 837.732421875 932 L 725.443359375 932 L 725.443359375 908 Z Z" stroke-miterlimit="10"/></g><g transform="translate(-38.904052734375,-10) scale(1,1)"><g><path fill="none" stroke="none"/><text fill="#000000" stroke="none" font-family="Arial" font-size="13px" font-style="normal" font-weight="bold" text-decoration="none" x="733.16796875" y="927.5">DataConnectJob</text></g></g><g transform="translate(-38.904052734375,-10) scale(1,1)"><rect fill="#C0C0C0" stroke="none" x="742.5615234375" y="950" width="92.052734375" height="24" opacity="0.2"/></g><g transform="translate(-38.904052734375,-10) scale(1,1)"><rect fill="#ffffff" stroke="none" x="735.5615234375" y="943" width="92.052734375" height="24"/></g><g transform="translate(-38.904052734375,-10) scale(1,1)"><path fill="none" stroke="#000000" d="M 735.5615234375 943 L 827.6142578125 943 L 827.6142578125 967 L 735.5615234375 967 L 735.5615234375 943 Z Z" stroke-miterlimit="10"/></g><g transform="translate(-38.904052734375,-10) scale(1,1)"><g><path fill="none" stroke="none"/><text fill="#000000" stroke="none" font-family="Arial" font-size="13px" font-style="normal" font-weight="bold" text-decoration="none" x="744.01611328125" y="962.5">GrdfAdictJob</text></g></g><g transform="translate(-38.904052734375,-10) scale(1,1)"><rect fill="#C0C0C0" stroke="none" x="429.93798828125" y="1107.5" width="173.68994140625" height="24" opacity="0.2"/></g><g transform="translate(-38.904052734375,-10) scale(1,1)"><rect fill="#ffffff" stroke="none" x="422.93798828125" y="1100.5" width="173.68994140625" height="24"/></g><g transform="translate(-38.904052734375,-10) scale(1,1)"><path fill="none" stroke="#000000" d="M 422.93798828125 1100.5 L 596.6279296875 1100.5 L 596.6279296875 1124.5 L 422.93798828125 1124.5 L 422.93798828125 1100.5 Z Z" stroke-miterlimit="10"/></g><g transform="translate(-38.904052734375,-10) scale(1,1)"><g><path fill="none" stroke="none"/><text fill="#000000" stroke="none" font-family="Arial" font-size="13px" font-style="normal" font-weight="bold" text-decoration="none" x="433.909423828125" y="1120">ExpiredMeteringPointsJob</text></g></g><g transform="translate(-38.904052734375,-10) scale(1,1)"><rect fill="#C0C0C0" stroke="none" x="453.8876953125" y="1142.5" width="125.79052734375" height="24" opacity="0.2"/></g><g transform="translate(-38.904052734375,-10) scale(1,1)"><rect fill="#ffffff" stroke="none" x="446.8876953125" y="1135.5" width="125.79052734375" height="24"/></g><g transform="translate(-38.904052734375,-10) scale(1,1)"><path fill="none" stroke="#000000" d="M 446.8876953125 1135.5 L 572.67822265625 1135.5 L 572.67822265625 1159.5 L 446.8876953125 1159.5 L 446.8876953125 1135.5 Z Z" stroke-miterlimit="10"/></g><g transform="translate(-38.904052734375,-10) scale(1,1)"><g><path fill="none" stroke="none"/><text fill="#000000" stroke="none" font-family="Arial" font-size="13px" font-style="normal" font-weight="bold" text-decoration="none" x="454.856689453125" y="1155">GenerateTokenJob</text></g></g><g transform="translate(-38.904052734375,-10) scale(1,1)"><rect fill="#C0C0C0" stroke="none" x="454.132080078125" y="1177.5" width="125.3017578125" height="24" opacity="0.2"/></g><g transform="translate(-38.904052734375,-10) scale(1,1)"><rect fill="#ffffff" stroke="none" x="447.132080078125" y="1170.5" width="125.3017578125" height="24"/></g><g transform="translate(-38.904052734375,-10) scale(1,1)"><path fill="none" stroke="#000000" d="M 447.132080078125 1170.5 L 572.433837890625 1170.5 L 572.433837890625 1194.5 L 447.132080078125 1194.5 L 447.132080078125 1170.5 Z Z" stroke-miterlimit="10"/></g><g transform="translate(-38.904052734375,-10) scale(1,1)"><g><path fill="none" stroke="none"/><text fill="#000000" stroke="none" font-family="Arial" font-size="13px" font-style="normal" font-weight="bold" text-decoration="none" x="454.863037109375" y="1190">GetHespulDataJob</text></g></g><g transform="translate(-38.904052734375,-10) scale(1,1)"><rect fill="#C0C0C0" stroke="none" x="123.0908203125" y="27" width="81.94091796875" height="24" opacity="0.2"/></g><g transform="translate(-38.904052734375,-10) scale(1,1)"><rect fill="#ffffff" stroke="none" x="116.0908203125" y="20" width="81.94091796875" height="24"/></g><g transform="translate(-38.904052734375,-10) scale(1,1)"><path fill="none" stroke="#000000" d="M 116.0908203125 20 L 198.03173828125 20 L 198.03173828125 44 L 116.0908203125 44 L 116.0908203125 20 Z Z" stroke-miterlimit="10"/></g><g transform="translate(-38.904052734375,-10) scale(1,1)"><g><path fill="none" stroke="none"/><text fill="#000000" stroke="none" font-family="Arial" font-size="13px" font-style="normal" font-weight="bold" text-decoration="none" x="123.09814453125" y="39.5">ConfHespul</text></g></g><g transform="translate(-38.904052734375,-10) scale(1,1)"><rect fill="#C0C0C0" stroke="none" x="106.101318359375" y="62" width="115.919921875" height="24" opacity="0.2"/></g><g transform="translate(-38.904052734375,-10) scale(1,1)"><rect fill="#ffffff" stroke="none" x="99.101318359375" y="55" width="115.919921875" height="24"/></g><g transform="translate(-38.904052734375,-10) scale(1,1)"><path fill="none" stroke="#000000" d="M 99.101318359375 55 L 215.021240234375 55 L 215.021240234375 79 L 99.101318359375 79 L 99.101318359375 55 Z Z" stroke-miterlimit="10"/></g><g transform="translate(-38.904052734375,-10) scale(1,1)"><g><path fill="none" stroke="none"/><text fill="#000000" stroke="none" font-family="Arial" font-size="13px" font-style="normal" font-weight="bold" text-decoration="none" x="105.7626953125" y="74.5">DataHespulJSON</text></g></g><g transform="translate(-38.904052734375,-10) scale(1,1)"><rect fill="#C0C0C0" stroke="none" x="76.486328125" y="97" width="175.14990234375" height="24" opacity="0.2"/></g><g transform="translate(-38.904052734375,-10) scale(1,1)"><rect fill="#ffffff" stroke="none" x="69.486328125" y="90" width="175.14990234375" height="24"/></g><g transform="translate(-38.904052734375,-10) scale(1,1)"><path fill="none" stroke="#000000" d="M 69.486328125 90 L 244.63623046875 90 L 244.63623046875 114 L 69.486328125 114 L 69.486328125 90 Z Z" stroke-miterlimit="10"/></g><g transform="translate(-38.904052734375,-10) scale(1,1)"><g><path fill="none" stroke="none"/><text fill="#000000" stroke="none" font-family="Arial" font-size="13px" font-style="normal" font-weight="bold" text-decoration="none" x="77.944091796875" y="109.5">DataHespulCompleteJSON</text></g></g><g transform="translate(-38.904052734375,-10) scale(1,1)"><rect fill="#C0C0C0" stroke="none" x="473.27978515625" y="1212.5" width="87.00634765625" height="24" opacity="0.2"/></g><g transform="translate(-38.904052734375,-10) scale(1,1)"><rect fill="#ffffff" stroke="none" x="466.27978515625" y="1205.5" width="87.00634765625" height="24"/></g><g transform="translate(-38.904052734375,-10) scale(1,1)"><path fill="none" stroke="#000000" d="M 466.27978515625 1205.5 L 553.2861328125 1205.5 L 553.2861328125 1229.5 L 466.27978515625 1229.5 L 466.27978515625 1205.5 Z Z" stroke-miterlimit="10"/></g><g transform="translate(-38.904052734375,-10) scale(1,1)"><g><path fill="none" stroke="none"/><text fill="#000000" stroke="none" font-family="Arial" font-size="13px" font-style="normal" font-weight="bold" text-decoration="none" x="474.37255859375" y="1225">IndicatorJob</text></g></g><g transform="translate(-38.904052734375,-10) scale(1,1)"><rect fill="#C0C0C0" stroke="none" x="427.414794921875" y="1247.5" width="178.736328125" height="24" opacity="0.2"/></g><g transform="translate(-38.904052734375,-10) scale(1,1)"><rect fill="#ffffff" stroke="none" x="420.414794921875" y="1240.5" width="178.736328125" height="24"/></g><g transform="translate(-38.904052734375,-10) scale(1,1)"><path fill="none" stroke="#000000" d="M 420.414794921875 1240.5 L 599.151123046875 1240.5 L 599.151123046875 1264.5 L 420.414794921875 1264.5 L 420.414794921875 1240.5 Z Z" stroke-miterlimit="10"/></g><g transform="translate(-38.904052734375,-10) scale(1,1)"><g><path fill="none" stroke="none"/><text fill="#000000" stroke="none" font-family="Arial" font-size="13px" font-style="normal" font-weight="bold" text-decoration="none" x="431.021240234375" y="1260">MeteringPointReminderJob</text></g></g><g transform="translate(-38.904052734375,-10) scale(1,1)"><rect fill="#C0C0C0" stroke="none" x="467.493896484375" y="1282.5" width="98.578125" height="24" opacity="0.2"/></g><g transform="translate(-38.904052734375,-10) scale(1,1)"><rect fill="#ffffff" stroke="none" x="460.493896484375" y="1275.5" width="98.578125" height="24"/></g><g transform="translate(-38.904052734375,-10) scale(1,1)"><path fill="none" stroke="#000000" d="M 460.493896484375 1275.5 L 559.072021484375 1275.5 L 559.072021484375 1299.5 L 460.493896484375 1299.5 L 460.493896484375 1275.5 Z Z" stroke-miterlimit="10"/></g><g transform="translate(-38.904052734375,-10) scale(1,1)"><g><path fill="none" stroke="none"/><text fill="#000000" stroke="none" font-family="Arial" font-size="13px" font-style="normal" font-weight="bold" text-decoration="none" x="467.869384765625" y="1295">SendEmailJob</text></g></g><g transform="translate(-38.904052734375,-10) scale(1,1)"><rect fill="#C0C0C0" stroke="none" x="402.12255859375" y="1317.5" width="229.32080078125" height="24" opacity="0.2"/></g><g transform="translate(-38.904052734375,-10) scale(1,1)"><rect fill="#ffffff" stroke="none" x="395.12255859375" y="1310.5" width="229.32080078125" height="24"/></g><g transform="translate(-38.904052734375,-10) scale(1,1)"><path fill="none" stroke="#000000" d="M 395.12255859375 1310.5 L 624.443359375 1310.5 L 624.443359375 1334.5 L 395.12255859375 1334.5 L 395.12255859375 1310.5 Z Z" stroke-miterlimit="10"/></g><g transform="translate(-38.904052734375,-10) scale(1,1)"><g><path fill="none" stroke="none"/><text fill="#000000" stroke="none" font-family="Arial" font-size="13px" font-style="normal" font-weight="bold" text-decoration="none" x="408.26171875" y="1330">SolarPanelDysfunctionMailAlertJob</text></g></g><g transform="translate(-38.904052734375,-10) scale(1,1)"><rect fill="#C0C0C0" stroke="none" x="107.20263671875" y="132" width="113.71728515625" height="24" opacity="0.2"/></g><g transform="translate(-38.904052734375,-10) scale(1,1)"><rect fill="#ffffff" stroke="none" x="100.20263671875" y="125" width="113.71728515625" height="24"/></g><g transform="translate(-38.904052734375,-10) scale(1,1)"><path fill="none" stroke="#000000" d="M 100.20263671875 125 L 213.919921875 125 L 213.919921875 149 L 100.20263671875 149 L 100.20263671875 125 Z Z" stroke-miterlimit="10"/></g><g transform="translate(-38.904052734375,-10) scale(1,1)"><g><path fill="none" stroke="none"/><text fill="#000000" stroke="none" font-family="Arial" font-size="13px" font-style="normal" font-weight="bold" text-decoration="none" x="109" y="144.5">StartupSingleton</text></g></g><g transform="translate(-38.904052734375,-10) scale(1,1)"><rect fill="#C0C0C0" stroke="none" x="461.47314453125" y="1352.5" width="110.61962890625" height="24" opacity="0.2"/></g><g transform="translate(-38.904052734375,-10) scale(1,1)"><rect fill="#ffffff" stroke="none" x="454.47314453125" y="1345.5" width="110.61962890625" height="24"/></g><g transform="translate(-38.904052734375,-10) scale(1,1)"><path fill="none" stroke="#000000" d="M 454.47314453125 1345.5 L 565.0927734375 1345.5 L 565.0927734375 1369.5 L 454.47314453125 1369.5 L 454.47314453125 1345.5 Z Z" stroke-miterlimit="10"/></g><g transform="translate(-38.904052734375,-10) scale(1,1)"><g><path fill="none" stroke="none"/><text fill="#000000" stroke="none" font-family="Arial" font-size="13px" font-style="normal" font-weight="bold" text-decoration="none" x="459.934814453125" y="1365">TestENEDISSGE</text></g></g><g transform="translate(-38.904052734375,-10) scale(1,1)"><rect fill="#C0C0C0" stroke="none" x="461.48583984375" y="1387.5" width="110.59423828125" height="24" opacity="0.2"/></g><g transform="translate(-38.904052734375,-10) scale(1,1)"><rect fill="#ffffff" stroke="none" x="454.48583984375" y="1380.5" width="110.59423828125" height="24"/></g><g transform="translate(-38.904052734375,-10) scale(1,1)"><path fill="none" stroke="#000000" d="M 454.48583984375 1380.5 L 565.080078125 1380.5 L 565.080078125 1404.5 L 454.48583984375 1404.5 L 454.48583984375 1380.5 Z Z" stroke-miterlimit="10"/></g><g transform="translate(-38.904052734375,-10) scale(1,1)"><g><path fill="none" stroke="none"/><text fill="#000000" stroke="none" font-family="Arial" font-size="13px" font-style="normal" font-weight="bold" text-decoration="none" x="460.30615234375" y="1400">TestGRDFADICT</text></g></g><g transform="translate(-38.904052734375,-10) scale(1,1)"><rect fill="#C0C0C0" stroke="none" x="126.34716796875" y="167" width="75.42822265625" height="24" opacity="0.2"/></g><g transform="translate(-38.904052734375,-10) scale(1,1)"><rect fill="#ffffff" stroke="none" x="119.34716796875" y="160" width="75.42822265625" height="24"/></g><g transform="translate(-38.904052734375,-10) scale(1,1)"><path fill="none" stroke="#000000" d="M 119.34716796875 160 L 194.775390625 160 L 194.775390625 184 L 119.34716796875 184 L 119.34716796875 160 Z Z" stroke-miterlimit="10"/></g><g transform="translate(-38.904052734375,-10) scale(1,1)"><g><path fill="none" stroke="none"/><text fill="#000000" stroke="none" font-family="Arial" font-size="13px" font-style="normal" font-weight="bold" text-decoration="none" x="124.916748046875" y="179.5">ConfGRDF</text></g></g><g transform="translate(-38.904052734375,-10) scale(1,1)"><rect fill="#C0C0C0" stroke="none" x="440.408447265625" y="1422.5" width="152.7490234375" height="24" opacity="0.2"/></g><g transform="translate(-38.904052734375,-10) scale(1,1)"><rect fill="#ffffff" stroke="none" x="433.408447265625" y="1415.5" width="152.7490234375" height="24"/></g><g transform="translate(-38.904052734375,-10) scale(1,1)"><path fill="none" stroke="#000000" d="M 433.408447265625 1415.5 L 586.157470703125 1415.5 L 586.157470703125 1439.5 L 433.408447265625 1439.5 L 433.408447265625 1415.5 Z Z" stroke-miterlimit="10"/></g><g transform="translate(-38.904052734375,-10) scale(1,1)"><g><path fill="none" stroke="none"/><text fill="#000000" stroke="none" font-family="Arial" font-size="13px" font-style="normal" font-weight="bold" text-decoration="none" x="443.659423828125" y="1435">TheoriqueActualiseJob</text></g></g><g transform="translate(-38.904052734375,-10) scale(1,1)"><rect fill="#C0C0C0" stroke="none" x="459.895751953125" y="1457.5" width="113.7744140625" height="24" opacity="0.2"/></g><g transform="translate(-38.904052734375,-10) scale(1,1)"><rect fill="#ffffff" stroke="none" x="452.895751953125" y="1450.5" width="113.7744140625" height="24"/></g><g transform="translate(-38.904052734375,-10) scale(1,1)"><path fill="none" stroke="#000000" d="M 452.895751953125 1450.5 L 566.670166015625 1450.5 L 566.670166015625 1474.5 L 452.895751953125 1474.5 L 452.895751953125 1450.5 Z Z" stroke-miterlimit="10"/></g><g transform="translate(-38.904052734375,-10) scale(1,1)"><g><path fill="none" stroke="none"/><text fill="#000000" stroke="none" font-family="Arial" font-size="13px" font-style="normal" font-weight="bold" text-decoration="none" x="460.8837890625" y="1470">YearForecastJob</text></g></g><g transform="translate(-38.904052734375,-10) scale(1,1)"><rect fill="#C0C0C0" stroke="none" x="98.87451171875" y="202" width="130.37353515625" height="24" opacity="0.2"/></g><g transform="translate(-38.904052734375,-10) scale(1,1)"><rect fill="#ffffff" stroke="none" x="91.87451171875" y="195" width="130.37353515625" height="24"/></g><g transform="translate(-38.904052734375,-10) scale(1,1)"><path fill="none" stroke="#000000" d="M 91.87451171875 195 L 222.248046875 195 L 222.248046875 219 L 91.87451171875 219 L 91.87451171875 195 Z Z" stroke-miterlimit="10"/></g><g transform="translate(-38.904052734375,-10) scale(1,1)"><g><path fill="none" stroke="none"/><text fill="#000000" stroke="none" font-family="Arial" font-size="13px" font-style="normal" font-weight="bold" text-decoration="none" x="99.986328125" y="214.5">ActionRESTService</text></g></g><g transform="translate(-38.904052734375,-10) scale(1,1)"><rect fill="#C0C0C0" stroke="none" x="87.318603515625" y="237" width="153.4853515625" height="24" opacity="0.2"/></g><g transform="translate(-38.904052734375,-10) scale(1,1)"><rect fill="#ffffff" stroke="none" x="80.318603515625" y="230" width="153.4853515625" height="24"/></g><g transform="translate(-38.904052734375,-10) scale(1,1)"><path fill="none" stroke="#000000" d="M 80.318603515625 230 L 233.803955078125 230 L 233.803955078125 254 L 80.318603515625 254 L 80.318603515625 230 Z Z" stroke-miterlimit="10"/></g><g transform="translate(-38.904052734375,-10) scale(1,1)"><g><path fill="none" stroke="none"/><text fill="#000000" stroke="none" font-family="Arial" font-size="13px" font-style="normal" font-weight="bold" text-decoration="none" x="89.147705078125" y="249.5">AnimationRESTService</text></g></g><g transform="translate(-38.904052734375,-10) scale(1,1)"><rect fill="#C0C0C0" stroke="none" x="93.101318359375" y="272" width="141.919921875" height="24" opacity="0.2"/></g><g transform="translate(-38.904052734375,-10) scale(1,1)"><rect fill="#ffffff" stroke="none" x="86.101318359375" y="265" width="141.919921875" height="24"/></g><g transform="translate(-38.904052734375,-10) scale(1,1)"><path fill="none" stroke="#000000" d="M 86.101318359375 265 L 228.021240234375 265 L 228.021240234375 289 L 86.101318359375 289 L 86.101318359375 265 Z Z" stroke-miterlimit="10"/></g><g transform="translate(-38.904052734375,-10) scale(1,1)"><g><path fill="none" stroke="none"/><text fill="#000000" stroke="none" font-family="Arial" font-size="13px" font-style="normal" font-weight="bold" text-decoration="none" x="94.924072265625" y="284.5">BuildingRESTService</text></g></g><g transform="translate(-38.904052734375,-10) scale(1,1)"><rect fill="#C0C0C0" stroke="none" x="87.30908203125" y="307" width="153.50439453125" height="24" opacity="0.2"/></g><g transform="translate(-38.904052734375,-10) scale(1,1)"><rect fill="#ffffff" stroke="none" x="80.30908203125" y="300" width="153.50439453125" height="24"/></g><g transform="translate(-38.904052734375,-10) scale(1,1)"><path fill="none" stroke="#000000" d="M 80.30908203125 300 L 233.8134765625 300 L 233.8134765625 324 L 80.30908203125 324 L 80.30908203125 300 Z Z" stroke-miterlimit="10"/></g><g transform="translate(-38.904052734375,-10) scale(1,1)"><g><path fill="none" stroke="none"/><text fill="#000000" stroke="none" font-family="Arial" font-size="13px" font-style="normal" font-weight="bold" text-decoration="none" x="88.0654296875" y="319.5">CollUsageRESTService</text></g></g><g transform="translate(-38.904052734375,-10) scale(1,1)"><rect fill="#C0C0C0" stroke="none" x="95.259521484375" y="342" width="137.603515625" height="24" opacity="0.2"/></g><g transform="translate(-38.904052734375,-10) scale(1,1)"><rect fill="#ffffff" stroke="none" x="88.259521484375" y="335" width="137.603515625" height="24"/></g><g transform="translate(-38.904052734375,-10) scale(1,1)"><path fill="none" stroke="#000000" d="M 88.259521484375 335 L 225.863037109375 335 L 225.863037109375 359 L 88.259521484375 359 L 88.259521484375 335 Z Z" stroke-miterlimit="10"/></g><g transform="translate(-38.904052734375,-10) scale(1,1)"><g><path fill="none" stroke="none"/><text fill="#000000" stroke="none" font-family="Arial" font-size="13px" font-style="normal" font-weight="bold" text-decoration="none" x="96.01904296875" y="354.5">ComelitRESTService</text></g></g><g transform="translate(-38.904052734375,-10) scale(1,1)"><rect fill="#C0C0C0" stroke="none" x="90.930419921875" y="377" width="146.26171875" height="24" opacity="0.2"/></g><g transform="translate(-38.904052734375,-10) scale(1,1)"><rect fill="#ffffff" stroke="none" x="83.930419921875" y="370" width="146.26171875" height="24"/></g><g transform="translate(-38.904052734375,-10) scale(1,1)"><path fill="none" stroke="#000000" d="M 83.930419921875 370 L 230.192138671875 370 L 230.192138671875 394 L 83.930419921875 394 L 83.930419921875 370 Z Z" stroke-miterlimit="10"/></g><g transform="translate(-38.904052734375,-10) scale(1,1)"><g><path fill="none" stroke="none"/><text fill="#000000" stroke="none" font-family="Arial" font-size="13px" font-style="normal" font-weight="bold" text-decoration="none" x="91.68359375" y="389.5">CommonRESTService</text></g></g><g transform="translate(-38.904052734375,-10) scale(1,1)"><rect fill="#C0C0C0" stroke="none" x="98.87451171875" y="412" width="130.37353515625" height="24" opacity="0.2"/></g><g transform="translate(-38.904052734375,-10) scale(1,1)"><rect fill="#ffffff" stroke="none" x="91.87451171875" y="405" width="130.37353515625" height="24"/></g><g transform="translate(-38.904052734375,-10) scale(1,1)"><path fill="none" stroke="#000000" d="M 91.87451171875 405 L 222.248046875 405 L 222.248046875 429 L 91.87451171875 429 L 91.87451171875 405 Z Z" stroke-miterlimit="10"/></g><g transform="translate(-38.904052734375,-10) scale(1,1)"><g><path fill="none" stroke="none"/><text fill="#000000" stroke="none" font-family="Arial" font-size="13px" font-style="normal" font-weight="bold" text-decoration="none" x="99.2626953125" y="424.5">ConsoRESTService</text></g></g><g transform="translate(-38.904052734375,-10) scale(1,1)"><rect fill="#C0C0C0" stroke="none" x="105.00634765625" y="447" width="118.10986328125" height="24" opacity="0.2"/></g><g transform="translate(-38.904052734375,-10) scale(1,1)"><rect fill="#ffffff" stroke="none" x="98.00634765625" y="440" width="118.10986328125" height="24"/></g><g transform="translate(-38.904052734375,-10) scale(1,1)"><path fill="none" stroke="#000000" d="M 98.00634765625 440 L 216.1162109375 440 L 216.1162109375 464 L 98.00634765625 464 L 98.00634765625 440 Z Z" stroke-miterlimit="10"/></g><g transform="translate(-38.904052734375,-10) scale(1,1)"><g><path fill="none" stroke="none"/><text fill="#000000" stroke="none" font-family="Arial" font-size="13px" font-style="normal" font-weight="bold" text-decoration="none" x="104.32177734375" y="459.5">DateRESTService</text></g></g><g transform="translate(-38.904052734375,-10) scale(1,1)"><rect fill="#C0C0C0" stroke="none" x="107.1708984375" y="482" width="113.78076171875" height="24" opacity="0.2"/></g><g transform="translate(-38.904052734375,-10) scale(1,1)"><rect fill="#ffffff" stroke="none" x="100.1708984375" y="475" width="113.78076171875" height="24"/></g><g transform="translate(-38.904052734375,-10) scale(1,1)"><path fill="none" stroke="#000000" d="M 100.1708984375 475 L 213.95166015625 475 L 213.95166015625 499 L 100.1708984375 499 L 100.1708984375 475 Z Z" stroke-miterlimit="10"/></g><g transform="translate(-38.904052734375,-10) scale(1,1)"><g><path fill="none" stroke="none"/><text fill="#000000" stroke="none" font-family="Arial" font-size="13px" font-style="normal" font-weight="bold" text-decoration="none" x="106.49267578125" y="494.5">DevRESTService</text></g></g><g transform="translate(-38.904052734375,-10) scale(1,1)"><rect fill="#C0C0C0" stroke="none" x="91.279541015625" y="517" width="145.5634765625" height="24" opacity="0.2"/></g><g transform="translate(-38.904052734375,-10) scale(1,1)"><rect fill="#ffffff" stroke="none" x="84.279541015625" y="510" width="145.5634765625" height="24"/></g><g transform="translate(-38.904052734375,-10) scale(1,1)"><path fill="none" stroke="#000000" d="M 84.279541015625 510 L 229.843017578125 510 L 229.843017578125 534 L 84.279541015625 534 L 84.279541015625 510 Z Z" stroke-miterlimit="10"/></g><g transform="translate(-38.904052734375,-10) scale(1,1)"><g><path fill="none" stroke="none"/><text fill="#000000" stroke="none" font-family="Arial" font-size="13px" font-style="normal" font-weight="bold" text-decoration="none" x="92.035888671875" y="529.5">EntranceRESTService</text></g></g><g transform="translate(-38.904052734375,-10) scale(1,1)"><rect fill="#C0C0C0" stroke="none" x="92" y="552" width="144.12255859375" height="24" opacity="0.2"/></g><g transform="translate(-38.904052734375,-10) scale(1,1)"><rect fill="#ffffff" stroke="none" x="85" y="545" width="144.12255859375" height="24"/></g><g transform="translate(-38.904052734375,-10) scale(1,1)"><path fill="none" stroke="#000000" d="M 85 545 L 229.12255859375 545 L 229.12255859375 569 L 85 569 L 85 545 Z Z" stroke-miterlimit="10"/></g><g transform="translate(-38.904052734375,-10) scale(1,1)"><g><path fill="none" stroke="none"/><text fill="#000000" stroke="none" font-family="Arial" font-size="13px" font-style="normal" font-weight="bold" text-decoration="none" x="92.765869140625" y="564.5">ForecastRESTService</text></g></g><g transform="translate(-38.904052734375,-10) scale(1,1)"><rect fill="#C0C0C0" stroke="none" x="108.259521484375" y="587" width="111.603515625" height="24" opacity="0.2"/></g><g transform="translate(-38.904052734375,-10) scale(1,1)"><rect fill="#ffffff" stroke="none" x="101.259521484375" y="580" width="111.603515625" height="24"/></g><g transform="translate(-38.904052734375,-10) scale(1,1)"><path fill="none" stroke="#000000" d="M 101.259521484375 580 L 212.863037109375 580 L 212.863037109375 604 L 101.259521484375 604 L 101.259521484375 580 Z Z" stroke-miterlimit="10"/></g><g transform="translate(-38.904052734375,-10) scale(1,1)"><g><path fill="none" stroke="none"/><text fill="#000000" stroke="none" font-family="Arial" font-size="13px" font-style="normal" font-weight="bold" text-decoration="none" x="107.574951171875" y="599.5">GfaRESTService</text></g></g><g transform="translate(-38.904052734375,-10) scale(1,1)"><rect fill="#C0C0C0" stroke="none" x="91.647705078125" y="622" width="144.8271484375" height="24" opacity="0.2"/></g><g transform="translate(-38.904052734375,-10) scale(1,1)"><rect fill="#ffffff" stroke="none" x="84.647705078125" y="615" width="144.8271484375" height="24"/></g><g transform="translate(-38.904052734375,-10) scale(1,1)"><path fill="none" stroke="#000000" d="M 84.647705078125 615 L 229.474853515625 615 L 229.474853515625 639 L 84.647705078125 639 L 84.647705078125 615 Z Z" stroke-miterlimit="10"/></g><g transform="translate(-38.904052734375,-10) scale(1,1)"><g><path fill="none" stroke="none"/><text fill="#000000" stroke="none" font-family="Arial" font-size="13px" font-style="normal" font-weight="bold" text-decoration="none" x="93.121337890625" y="634.5">IndicatorRESTService</text></g></g><g transform="translate(-38.904052734375,-10) scale(1,1)"><rect fill="#C0C0C0" stroke="none" x="464.954833984375" y="1492.5" width="103.65625" height="24" opacity="0.2"/></g><g transform="translate(-38.904052734375,-10) scale(1,1)"><rect fill="#ffffff" stroke="none" x="457.954833984375" y="1485.5" width="103.65625" height="24"/></g><g transform="translate(-38.904052734375,-10) scale(1,1)"><path fill="none" stroke="#000000" d="M 457.954833984375 1485.5 L 561.611083984375 1485.5 L 561.611083984375 1509.5 L 457.954833984375 1509.5 L 457.954833984375 1485.5 Z Z" stroke-miterlimit="10"/></g><g transform="translate(-38.904052734375,-10) scale(1,1)"><g><path fill="none" stroke="none"/><text fill="#000000" stroke="none" font-family="Arial" font-size="13px" font-style="normal" font-weight="bold" text-decoration="none" x="466.43798828125" y="1505">JaxRsActivator</text></g></g><g transform="translate(-38.904052734375,-10) scale(1,1)"><rect fill="#C0C0C0" stroke="none" x="80.799560546875" y="657" width="166.5234375" height="24" opacity="0.2"/></g><g transform="translate(-38.904052734375,-10) scale(1,1)"><rect fill="#ffffff" stroke="none" x="73.799560546875" y="650" width="166.5234375" height="24"/></g><g transform="translate(-38.904052734375,-10) scale(1,1)"><path fill="none" stroke="#000000" d="M 73.799560546875 650 L 240.322998046875 650 L 240.322998046875 674 L 73.799560546875 674 L 73.799560546875 650 Z Z" stroke-miterlimit="10"/></g><g transform="translate(-38.904052734375,-10) scale(1,1)"><g><path fill="none" stroke="none"/><text fill="#000000" stroke="none" font-family="Arial" font-size="13px" font-style="normal" font-weight="bold" text-decoration="none" x="81.562255859375" y="669.5">MessageProRESTService</text></g></g><g transform="translate(-38.904052734375,-10) scale(1,1)"><rect fill="#C0C0C0" stroke="none" x="75.7626953125" y="692" width="176.59716796875" height="24" opacity="0.2"/></g><g transform="translate(-38.904052734375,-10) scale(1,1)"><rect fill="#ffffff" stroke="none" x="68.7626953125" y="685" width="176.59716796875" height="24"/></g><g transform="translate(-38.904052734375,-10) scale(1,1)"><path fill="none" stroke="#000000" d="M 68.7626953125 685 L 245.35986328125 685 L 245.35986328125 709 L 68.7626953125 709 L 68.7626953125 685 Z Z" stroke-miterlimit="10"/></g><g transform="translate(-38.904052734375,-10) scale(1,1)"><g><path fill="none" stroke="none"/><text fill="#000000" stroke="none" font-family="Arial" font-size="13px" font-style="normal" font-weight="bold" text-decoration="none" x="77.947265625" y="704.5">MeteringPointRESTService</text></g></g><g transform="translate(-38.904052734375,-10) scale(1,1)"><rect fill="#C0C0C0" stroke="none" x="95.253173828125" y="727" width="137.6162109375" height="24" opacity="0.2"/></g><g transform="translate(-38.904052734375,-10) scale(1,1)"><rect fill="#ffffff" stroke="none" x="88.253173828125" y="720" width="137.6162109375" height="24"/></g><g transform="translate(-38.904052734375,-10) scale(1,1)"><path fill="none" stroke="#000000" d="M 88.253173828125 720 L 225.869384765625 720 L 225.869384765625 744 L 88.253173828125 744 L 88.253173828125 720 Z Z" stroke-miterlimit="10"/></g><g transform="translate(-38.904052734375,-10) scale(1,1)"><g><path fill="none" stroke="none"/><text fill="#000000" stroke="none" font-family="Arial" font-size="13px" font-style="normal" font-weight="bold" text-decoration="none" x="96.015869140625" y="739.5">OccupyRESTService</text></g></g><g transform="translate(-38.904052734375,-10) scale(1,1)"><rect fill="#C0C0C0" stroke="none" x="79.00634765625" y="762" width="170.10986328125" height="24" opacity="0.2"/></g><g transform="translate(-38.904052734375,-10) scale(1,1)"><rect fill="#ffffff" stroke="none" x="72.00634765625" y="755" width="170.10986328125" height="24"/></g><g transform="translate(-38.904052734375,-10) scale(1,1)"><path fill="none" stroke="#000000" d="M 72.00634765625 755 L 242.1162109375 755 L 242.1162109375 779 L 72.00634765625 779 L 72.00634765625 755 Z Z" stroke-miterlimit="10"/></g><g transform="translate(-38.904052734375,-10) scale(1,1)"><g><path fill="none" stroke="none"/><text fill="#000000" stroke="none" font-family="Arial" font-size="13px" font-style="normal" font-weight="bold" text-decoration="none" x="81.197265625" y="774.5">OrganisationRESTService</text></g></g><g transform="translate(-38.904052734375,-10) scale(1,1)"><rect fill="#C0C0C0" stroke="none" x="93.08544921875" y="797" width="141.95166015625" height="24" opacity="0.2"/></g><g transform="translate(-38.904052734375,-10) scale(1,1)"><rect fill="#ffffff" stroke="none" x="86.08544921875" y="790" width="141.95166015625" height="24"/></g><g transform="translate(-38.904052734375,-10) scale(1,1)"><path fill="none" stroke="#000000" d="M 86.08544921875 790 L 228.037109375 790 L 228.037109375 814 L 86.08544921875 814 L 86.08544921875 790 Z Z" stroke-miterlimit="10"/></g><g transform="translate(-38.904052734375,-10) scale(1,1)"><g><path fill="none" stroke="none"/><text fill="#000000" stroke="none" font-family="Arial" font-size="13px" font-style="normal" font-weight="bold" text-decoration="none" x="93.49267578125" y="809.5">OrgUserRESTService</text></g></g><g transform="translate(-38.904052734375,-10) scale(1,1)"><rect fill="#C0C0C0" stroke="none" x="55.904052734375" y="832" width="216.314453125" height="24" opacity="0.2"/></g><g transform="translate(-38.904052734375,-10) scale(1,1)"><rect fill="#ffffff" stroke="none" x="48.904052734375" y="825" width="216.314453125" height="24"/></g><g transform="translate(-38.904052734375,-10) scale(1,1)"><path fill="none" stroke="#000000" d="M 48.904052734375 825 L 265.218505859375 825 L 265.218505859375 849 L 48.904052734375 849 L 48.904052734375 825 Z Z" stroke-miterlimit="10"/></g><g transform="translate(-38.904052734375,-10) scale(1,1)"><g><path fill="none" stroke="none"/><text fill="#000000" stroke="none" font-family="Arial" font-size="13px" font-style="normal" font-weight="bold" text-decoration="none" x="59.8818359375" y="844.5">PortalContentAdminRESTService</text></g></g><g transform="translate(-38.904052734375,-10) scale(1,1)"><rect fill="#C0C0C0" stroke="none" x="93.799560546875" y="867" width="140.5234375" height="24" opacity="0.2"/></g><g transform="translate(-38.904052734375,-10) scale(1,1)"><rect fill="#ffffff" stroke="none" x="86.799560546875" y="860" width="140.5234375" height="24"/></g><g transform="translate(-38.904052734375,-10) scale(1,1)"><path fill="none" stroke="#000000" d="M 86.799560546875 860 L 227.322998046875 860 L 227.322998046875 884 L 86.799560546875 884 L 86.799560546875 860 Z Z" stroke-miterlimit="10"/></g><g transform="translate(-38.904052734375,-10) scale(1,1)"><g><path fill="none" stroke="none"/><text fill="#000000" stroke="none" font-family="Arial" font-size="13px" font-style="normal" font-weight="bold" text-decoration="none" x="94.213134765625" y="879.5">PremiseRESTService</text></g></g><g transform="translate(-38.904052734375,-10) scale(1,1)"><rect fill="#C0C0C0" stroke="none" x="111.515869140625" y="902" width="105.0908203125" height="24" opacity="0.2"/></g><g transform="translate(-38.904052734375,-10) scale(1,1)"><rect fill="#ffffff" stroke="none" x="104.515869140625" y="895" width="105.0908203125" height="24"/></g><g transform="translate(-38.904052734375,-10) scale(1,1)"><path fill="none" stroke="#000000" d="M 104.515869140625 895 L 209.606689453125 895 L 209.606689453125 919 L 104.515869140625 919 L 104.515869140625 895 Z Z" stroke-miterlimit="10"/></g><g transform="translate(-38.904052734375,-10) scale(1,1)"><g><path fill="none" stroke="none"/><text fill="#000000" stroke="none" font-family="Arial" font-size="13px" font-style="normal" font-weight="bold" text-decoration="none" x="112.2626953125" y="914.5">RepportService</text></g></g><g transform="translate(-38.904052734375,-10) scale(1,1)"><rect fill="#C0C0C0" stroke="none" x="70.319580078125" y="937" width="187.4833984375" height="24" opacity="0.2"/></g><g transform="translate(-38.904052734375,-10) scale(1,1)"><rect fill="#ffffff" stroke="none" x="63.319580078125" y="930" width="187.4833984375" height="24"/></g><g transform="translate(-38.904052734375,-10) scale(1,1)"><path fill="none" stroke="#000000" d="M 63.319580078125 930 L 250.802978515625 930 L 250.802978515625 954 L 63.319580078125 954 L 63.319580078125 930 Z Z" stroke-miterlimit="10"/></g><g transform="translate(-38.904052734375,-10) scale(1,1)"><g><path fill="none" stroke="none"/><text fill="#000000" stroke="none" font-family="Arial" font-size="13px" font-style="normal" font-weight="bold" text-decoration="none" x="72.167724609375" y="949.5">ServiceRequestRESTService</text></g></g><g transform="translate(-38.904052734375,-10) scale(1,1)"><rect fill="#C0C0C0" stroke="none" x="64.898681640625" y="972" width="198.3251953125" height="24" opacity="0.2"/></g><g transform="translate(-38.904052734375,-10) scale(1,1)"><rect fill="#ffffff" stroke="none" x="57.898681640625" y="965" width="198.3251953125" height="24"/></g><g transform="translate(-38.904052734375,-10) scale(1,1)"><path fill="none" stroke="#000000" d="M 57.898681640625 965 L 256.223876953125 965 L 256.223876953125 989 L 57.898681640625 989 L 57.898681640625 965 Z Z" stroke-miterlimit="10"/></g><g transform="translate(-38.904052734375,-10) scale(1,1)"><g><path fill="none" stroke="none"/><text fill="#000000" stroke="none" font-family="Arial" font-size="13px" font-style="normal" font-weight="bold" text-decoration="none" x="67.108642578125" y="984.5">ServiceResponseRESTService</text></g></g><g transform="translate(-38.904052734375,-10) scale(1,1)"><rect fill="#C0C0C0" stroke="none" x="107.174072265625" y="1007" width="113.7744140625" height="24" opacity="0.2"/></g><g transform="translate(-38.904052734375,-10) scale(1,1)"><rect fill="#ffffff" stroke="none" x="100.174072265625" y="1000" width="113.7744140625" height="24"/></g><g transform="translate(-38.904052734375,-10) scale(1,1)"><path fill="none" stroke="#000000" d="M 100.174072265625 1000 L 213.948486328125 1000 L 213.948486328125 1024 L 100.174072265625 1024 L 100.174072265625 1000 Z Z" stroke-miterlimit="10"/></g><g transform="translate(-38.904052734375,-10) scale(1,1)"><g><path fill="none" stroke="none"/><text fill="#000000" stroke="none" font-family="Arial" font-size="13px" font-style="normal" font-weight="bold" text-decoration="none" x="106.851318359375" y="1019.5">SiteRESTService</text></g></g><g transform="translate(-38.904052734375,-10) scale(1,1)"><rect fill="#C0C0C0" stroke="none" x="105.009521484375" y="1042" width="118.103515625" height="24" opacity="0.2"/></g><g transform="translate(-38.904052734375,-10) scale(1,1)"><rect fill="#ffffff" stroke="none" x="98.009521484375" y="1035" width="118.103515625" height="24"/></g><g transform="translate(-38.904052734375,-10) scale(1,1)"><path fill="none" stroke="#000000" d="M 98.009521484375 1035 L 216.113037109375 1035 L 216.113037109375 1059 L 98.009521484375 1059 L 98.009521484375 1035 Z Z" stroke-miterlimit="10"/></g><g transform="translate(-38.904052734375,-10) scale(1,1)"><g><path fill="none" stroke="none"/><text fill="#000000" stroke="none" font-family="Arial" font-size="13px" font-style="normal" font-weight="bold" text-decoration="none" x="104.680419921875" y="1054.5">StepRESTService</text></g></g><g transform="translate(-38.904052734375,-10) scale(1,1)"><rect fill="#C0C0C0" stroke="none" x="110.4208984375" y="1077" width="107.28076171875" height="24" opacity="0.2"/></g><g transform="translate(-38.904052734375,-10) scale(1,1)"><rect fill="#ffffff" stroke="none" x="103.4208984375" y="1070" width="107.28076171875" height="24"/></g><g transform="translate(-38.904052734375,-10) scale(1,1)"><path fill="none" stroke="#000000" d="M 103.4208984375 1070 L 210.70166015625 1070 L 210.70166015625 1094 L 103.4208984375 1094 L 103.4208984375 1070 Z Z" stroke-miterlimit="10"/></g><g transform="translate(-38.904052734375,-10) scale(1,1)"><g><path fill="none" stroke="none"/><text fill="#000000" stroke="none" font-family="Arial" font-size="13px" font-style="normal" font-weight="bold" text-decoration="none" x="111.548583984375" y="1089.5">UserListService</text></g></g><g transform="translate(-38.904052734375,-10) scale(1,1)"><rect fill="#C0C0C0" stroke="none" x="104.641357421875" y="1112" width="118.83984375" height="24" opacity="0.2"/></g><g transform="translate(-38.904052734375,-10) scale(1,1)"><rect fill="#ffffff" stroke="none" x="97.641357421875" y="1105" width="118.83984375" height="24"/></g><g transform="translate(-38.904052734375,-10) scale(1,1)"><path fill="none" stroke="#000000" d="M 97.641357421875 1105 L 216.481201171875 1105 L 216.481201171875 1129 L 97.641357421875 1129 L 97.641357421875 1105 Z Z" stroke-miterlimit="10"/></g><g transform="translate(-38.904052734375,-10) scale(1,1)"><g><path fill="none" stroke="none"/><text fill="#000000" stroke="none" font-family="Arial" font-size="13px" font-style="normal" font-weight="bold" text-decoration="none" x="104.328125" y="1124.5">UserRESTService</text></g></g><g transform="translate(-38.904052734375,-10) scale(1,1)"><rect fill="#C0C0C0" stroke="none" x="452.681640625" y="1539.5" width="128.20263671875" height="24" opacity="0.2"/></g><g transform="translate(-38.904052734375,-10) scale(1,1)"><rect fill="#ffffff" stroke="none" x="445.681640625" y="1532.5" width="128.20263671875" height="24"/></g><g transform="translate(-38.904052734375,-10) scale(1,1)"><path fill="none" stroke="#000000" d="M 445.681640625 1532.5 L 573.88427734375 1532.5 L 573.88427734375 1556.5 L 445.681640625 1556.5 L 445.681640625 1532.5 Z Z" stroke-miterlimit="10"/></g><g transform="translate(-38.904052734375,-10) scale(1,1)"><g><path fill="none" stroke="none"/><text fill="#000000" stroke="none" font-family="Arial" font-size="13px" font-style="normal" font-weight="bold" text-decoration="none" x="455.231201171875" y="1552">SecurityInterceptor</text></g></g><g transform="translate(-38.904052734375,-10) scale(1,1)"><rect fill="#C0C0C0" stroke="none" x="93.46630859375" y="1147" width="141.18994140625" height="24" opacity="0.2"/></g><g transform="translate(-38.904052734375,-10) scale(1,1)"><rect fill="#ffffff" stroke="none" x="86.46630859375" y="1140" width="141.18994140625" height="24"/></g><g transform="translate(-38.904052734375,-10) scale(1,1)"><path fill="none" stroke="#000000" d="M 86.46630859375 1140 L 227.65625 1140 L 227.65625 1164 L 86.46630859375 1164 L 86.46630859375 1140 Z Z" stroke-miterlimit="10"/></g><g transform="translate(-38.904052734375,-10) scale(1,1)"><g><path fill="none" stroke="none"/><text fill="#000000" stroke="none" font-family="Arial" font-size="13px" font-style="normal" font-weight="bold" text-decoration="none" x="96.36181640625" y="1159.5">SingletonSecurityPro</text></g></g><g transform="translate(-38.904052734375,-10) scale(1,1)"><rect fill="#C0C0C0" stroke="none" x="447.632080078125" y="1598.5" width="138.3017578125" height="24" opacity="0.2"/></g><g transform="translate(-38.904052734375,-10) scale(1,1)"><rect fill="#ffffff" stroke="none" x="440.632080078125" y="1591.5" width="138.3017578125" height="24"/></g><g transform="translate(-38.904052734375,-10) scale(1,1)"><path fill="none" stroke="#000000" d="M 440.632080078125 1591.5 L 578.933837890625 1591.5 L 578.933837890625 1615.5 L 440.632080078125 1615.5 L 440.632080078125 1591.5 Z Z" stroke-miterlimit="10"/></g><g transform="translate(-38.904052734375,-10) scale(1,1)"><g><path fill="none" stroke="none"/><text fill="#000000" stroke="none" font-family="Arial" font-size="13px" font-style="normal" font-weight="bold" text-decoration="none" x="450.64501953125" y="1611">ValidationInterceptor</text></g></g><g transform="translate(-38.904052734375,-10) scale(1,1)"><rect fill="#C0C0C0" stroke="none" x="104.2890625" y="1182" width="119.54443359375" height="24" opacity="0.2"/></g><g transform="translate(-38.904052734375,-10) scale(1,1)"><rect fill="#ffffff" stroke="none" x="97.2890625" y="1175" width="119.54443359375" height="24"/></g><g transform="translate(-38.904052734375,-10) scale(1,1)"><path fill="none" stroke="#000000" d="M 97.2890625 1175 L 216.83349609375 1175 L 216.83349609375 1199 L 97.2890625 1199 L 97.2890625 1175 Z Z" stroke-miterlimit="10"/></g><g transform="translate(-38.904052734375,-10) scale(1,1)"><g><path fill="none" stroke="none"/><text fill="#000000" stroke="none" font-family="Arial" font-size="13px" font-style="normal" font-weight="bold" text-decoration="none" x="105.759521484375" y="1194.5">LoginUserService</text></g></g><g transform="translate(-38.904052734375,-10) scale(1,1)"><rect fill="#C0C0C0" stroke="none" x="137.5380859375" y="1217" width="53.04638671875" height="24" opacity="0.2"/></g><g transform="translate(-38.904052734375,-10) scale(1,1)"><rect fill="#ffffff" stroke="none" x="130.5380859375" y="1210" width="53.04638671875" height="24"/></g><g transform="translate(-38.904052734375,-10) scale(1,1)"><path fill="none" stroke="#000000" d="M 130.5380859375 1210 L 183.58447265625 1210 L 183.58447265625 1234 L 130.5380859375 1234 L 130.5380859375 1210 Z Z" stroke-miterlimit="10"/></g><g transform="translate(-38.904052734375,-10) scale(1,1)"><g><path fill="none" stroke="none"/><text fill="#000000" stroke="none" font-family="Arial" font-size="13px" font-style="normal" font-weight="bold" text-decoration="none" x="137.186767578125" y="1229.5">Edition</text></g></g><g transform="translate(-38.904052734375,-10) scale(1,1)"><rect fill="#C0C0C0" stroke="none" x="475.447509765625" y="1657.5" width="82.6708984375" height="24" opacity="0.2"/></g><g transform="translate(-38.904052734375,-10) scale(1,1)"><rect fill="#ffffff" stroke="none" x="468.447509765625" y="1650.5" width="82.6708984375" height="24"/></g><g transform="translate(-38.904052734375,-10) scale(1,1)"><path fill="none" stroke="#000000" d="M 468.447509765625 1650.5 L 551.118408203125 1650.5 L 551.118408203125 1674.5 L 468.447509765625 1674.5 L 468.447509765625 1650.5 Z Z" stroke-miterlimit="10"/></g><g transform="translate(-38.904052734375,-10) scale(1,1)"><g><path fill="none" stroke="none"/><text fill="#000000" stroke="none" font-family="Arial" font-size="13px" font-style="normal" font-weight="bold" text-decoration="none" x="475.829345703125" y="1670">ReportFilter</text></g></g><g transform="translate(-38.904052734375,-10) scale(1,1)"><rect fill="#C0C0C0" stroke="none" x="469.658447265625" y="1704.5" width="94.2490234375" height="24" opacity="0.2"/></g><g transform="translate(-38.904052734375,-10) scale(1,1)"><rect fill="#ffffff" stroke="none" x="462.658447265625" y="1697.5" width="94.2490234375" height="24"/></g><g transform="translate(-38.904052734375,-10) scale(1,1)"><path fill="none" stroke="#000000" d="M 462.658447265625 1697.5 L 556.907470703125 1697.5 L 556.907470703125 1721.5 L 462.658447265625 1721.5 L 462.658447265625 1697.5 Z Z" stroke-miterlimit="10"/></g><g transform="translate(-38.904052734375,-10) scale(1,1)"><g><path fill="none" stroke="none"/><text fill="#000000" stroke="none" font-family="Arial" font-size="13px" font-style="normal" font-weight="bold" text-decoration="none" x="470.04345703125" y="1717">ReportServlet</text></g></g><g transform="translate(-38.904052734375,-10) scale(1,1)"><rect fill="#C0C0C0" stroke="none" x="107.878662109375" y="1252" width="112.365234375" height="37" opacity="0.2"/></g><g transform="translate(-38.904052734375,-10) scale(1,1)"><rect fill="#ffffff" stroke="none" x="100.878662109375" y="1245" width="112.365234375" height="37"/></g><g transform="translate(-38.904052734375,-10) scale(1,1)"><path fill="none" stroke="#000000" d="M 100.878662109375 1245 L 213.243896484375 1245 L 213.243896484375 1282 L 100.878662109375 1282 L 100.878662109375 1245 Z Z" stroke-miterlimit="10"/></g><g transform="translate(-38.904052734375,-10) scale(1,1)"><g><path fill="none" stroke="none"/><text fill="#000000" stroke="none" font-family="Arial" font-size="13px" font-style="normal" font-weight="normal" text-decoration="none" x="105.378662109375" y="1262.5">annotationType</text></g></g><g transform="translate(-38.904052734375,-10) scale(1,1)"><g><path fill="none" stroke="none"/><text fill="#000000" stroke="none" font-family="Arial" font-size="13px" font-style="normal" font-weight="bold" text-decoration="none" x="118.397705078125" y="1277.5">Configuration</text></g></g><g transform="translate(-38.904052734375,-10) scale(1,1)"><rect fill="#C0C0C0" stroke="none" x="93.47900390625" y="1300" width="141.16455078125" height="24" opacity="0.2"/></g><g transform="translate(-38.904052734375,-10) scale(1,1)"><rect fill="#ffffff" stroke="none" x="86.47900390625" y="1293" width="141.16455078125" height="24"/></g><g transform="translate(-38.904052734375,-10) scale(1,1)"><path fill="none" stroke="#000000" d="M 86.47900390625 1293 L 227.6435546875 1293 L 227.6435546875 1317 L 86.47900390625 1317 L 86.47900390625 1293 Z Z" stroke-miterlimit="10"/></g><g transform="translate(-38.904052734375,-10) scale(1,1)"><g><path fill="none" stroke="none"/><text fill="#000000" stroke="none" font-family="Arial" font-size="13px" font-style="normal" font-weight="bold" text-decoration="none" x="96.726806640625" y="1312.5">ConfigurationFactory</text></g></g><g transform="translate(-38.904052734375,-10) scale(1,1)"><path fill="none" stroke="#000000" d="M 724 921 Q 675 921 565 943" stroke-miterlimit="10"/></g><g transform="translate(-38.904052734375,-10) scale(1,1)"><path fill="#FFFFFF" stroke="none" d="M 583.2795364512216 930.7583274374593 L 565 943 L 586.5817538636433 947.2694144995677"/></g><g transform="translate(-38.904052734375,-10) scale(1,1)"><path fill="none" stroke="#000000" d="M 583.2795364512216 930.7583274374593 L 565 943 L 586.5817538636433 947.2694144995677 L 583.2795364512216 930.7583274374593" stroke-miterlimit="10"/></g><g transform="translate(-38.904052734375,-10) scale(1,1)"><path fill="none" stroke="#000000" d="M 735 955 Q 675 956 565 955" stroke-miterlimit="10"/></g><g transform="translate(-38.904052734375,-10) scale(1,1)"><path fill="#FFFFFF" stroke="none" d="M 585.401043400816 946.7660806320428 L 565 955 L 585.2479763528239 963.6034559111722"/></g><g transform="translate(-38.904052734375,-10) scale(1,1)"><path fill="none" stroke="#000000" d="M 585.401043400816 946.7660806320428 L 565 955 L 585.2479763528239 963.6034559111722 L 585.401043400816 946.7660806320428" stroke-miterlimit="10"/></g></g></svg>