<svg version="1.1" xmlns="http://www.w3.org/2000/svg" xmlns:xlink="http://www.w3.org/1999/xlink" width="771.26611328125" height="1510.5"><defs/><g><g transform="translate(-76.46630859375,-115) scale(1,1)"><rect fill="#C0C0C0" stroke="none" x="474.362060546875" y="880" width="84.841796875" height="24" opacity="0.2"/></g><g transform="translate(-76.46630859375,-115) scale(1,1)"><rect fill="#ffffff" stroke="none" x="467.362060546875" y="873" width="84.841796875" height="24"/></g><g transform="translate(-76.46630859375,-115) scale(1,1)"><path fill="none" stroke="#000000" d="M 467.362060546875 873 L 552.203857421875 873 L 552.203857421875 897 L 467.362060546875 897 L 467.362060546875 873 Z Z" stroke-miterlimit="10"/></g><g transform="translate(-76.46630859375,-115) scale(1,1)"><g><path fill="none" stroke="none"/><text fill="#000000" stroke="none" font-family="Arial" font-size="13px" font-style="normal" font-weight="bold" text-decoration="none" x="474.0107421875" y="892.5">CleanDbJob</text></g></g><g transform="translate(-76.46630859375,-115) scale(1,1)"><rect fill="#C0C0C0" stroke="none" x="439.326171875" y="915" width="154.91357421875" height="37" opacity="0.2"/></g><g transform="translate(-76.46630859375,-115) scale(1,1)"><rect fill="#ffffff" stroke="none" x="432.326171875" y="908" width="154.91357421875" height="37"/></g><g transform="translate(-76.46630859375,-115) scale(1,1)"><path fill="none" stroke="#000000" d="M 432.326171875 908 L 587.23974609375 908 L 587.23974609375 945 L 432.326171875 945 L 432.326171875 908 Z Z" stroke-miterlimit="10"/></g><g transform="translate(-76.46630859375,-115) scale(1,1)"><g><path fill="none" stroke="none"/><text fill="#000000" stroke="none" font-family="Arial" font-size="13px" font-style="normal" font-weight="normal" text-decoration="none" x="492.072998046875" y="925.5">«Job»</text></g></g><g transform="translate(-76.46630859375,-115) scale(1,1)"><g><path fill="none" stroke="none"/><text fill="#000000" stroke="none" font-family="Arial" font-size="13px" font-style="normal" font-weight="bold" text-decoration="none" x="441.488525390625" y="940.5">DataConnectEnedisJob</text></g></g><g transform="translate(-76.46630859375,-115) scale(1,1)"><rect fill="#C0C0C0" stroke="none" x="462.079345703125" y="950" width="109.4072265625" height="37" opacity="0.2"/></g><g transform="translate(-76.46630859375,-115) scale(1,1)"><rect fill="#ffffff" stroke="none" x="455.079345703125" y="943" width="109.4072265625" height="37"/></g><g transform="translate(-76.46630859375,-115) scale(1,1)"><path fill="none" stroke="#000000" d="M 455.079345703125 943 L 564.486572265625 943 L 564.486572265625 980 L 455.079345703125 980 L 455.079345703125 943 Z Z" stroke-miterlimit="10"/></g><g transform="translate(-76.46630859375,-115) scale(1,1)"><g><path fill="none" stroke="none"/><text fill="#000000" stroke="none" font-family="Arial" font-size="13px" font-style="normal" font-weight="normal" text-decoration="none" x="466.42529296875" y="960.5">«Abstract Job»</text></g></g><g transform="translate(-76.46630859375,-115) scale(1,1)"><g><path fill="none" stroke="none"/><text fill="#000000" stroke="none" font-family="Arial" font-size="13px" font-style="italic" font-weight="bold" text-decoration="none" x="463.902099609375" y="975.5">AbstractDpsJob</text></g></g><g transform="translate(-76.46630859375,-115) scale(1,1)"><rect fill="#C0C0C0" stroke="none" x="732.443359375" y="915" width="112.2890625" height="37" opacity="0.2"/></g><g transform="translate(-76.46630859375,-115) scale(1,1)"><rect fill="#ffffff" stroke="none" x="725.443359375" y="908" width="112.2890625" height="37"/></g><g transform="translate(-76.46630859375,-115) scale(1,1)"><path fill="none" stroke="#000000" d="M 725.443359375 908 L 837.732421875 908 L 837.732421875 945 L 725.443359375 945 L 725.443359375 908 Z Z" stroke-miterlimit="10"/></g><g transform="translate(-76.46630859375,-115) scale(1,1)"><g><path fill="none" stroke="none"/><text fill="#000000" stroke="none" font-family="Arial" font-size="13px" font-style="normal" font-weight="normal" text-decoration="none" x="763.8779296875" y="925.5">«Job»</text></g></g><g transform="translate(-76.46630859375,-115) scale(1,1)"><g><path fill="none" stroke="none"/><text fill="#000000" stroke="none" font-family="Arial" font-size="13px" font-style="normal" font-weight="bold" text-decoration="none" x="733.16796875" y="940.5">DataConnectJob</text></g></g><g transform="translate(-76.46630859375,-115) scale(1,1)"><rect fill="#C0C0C0" stroke="none" x="742.5615234375" y="950" width="92.052734375" height="37" opacity="0.2"/></g><g transform="translate(-76.46630859375,-115) scale(1,1)"><rect fill="#ffffff" stroke="none" x="735.5615234375" y="943" width="92.052734375" height="37"/></g><g transform="translate(-76.46630859375,-115) scale(1,1)"><path fill="none" stroke="#000000" d="M 735.5615234375 943 L 827.6142578125 943 L 827.6142578125 980 L 735.5615234375 980 L 735.5615234375 943 Z Z" stroke-miterlimit="10"/></g><g transform="translate(-76.46630859375,-115) scale(1,1)"><g><path fill="none" stroke="none"/><text fill="#000000" stroke="none" font-family="Arial" font-size="13px" font-style="normal" font-weight="normal" text-decoration="none" x="763.8779296875" y="960.5">«Job»</text></g></g><g transform="translate(-76.46630859375,-115) scale(1,1)"><g><path fill="none" stroke="none"/><text fill="#000000" stroke="none" font-family="Arial" font-size="13px" font-style="normal" font-weight="bold" text-decoration="none" x="744.01611328125" y="975.5">GrdfAdictJob</text></g></g><g transform="translate(-76.46630859375,-115) scale(1,1)"><rect fill="#C0C0C0" stroke="none" x="473.27978515625" y="1212.5" width="87.00634765625" height="24" opacity="0.2"/></g><g transform="translate(-76.46630859375,-115) scale(1,1)"><rect fill="#ffffff" stroke="none" x="466.27978515625" y="1205.5" width="87.00634765625" height="24"/></g><g transform="translate(-76.46630859375,-115) scale(1,1)"><path fill="none" stroke="#000000" d="M 466.27978515625 1205.5 L 553.2861328125 1205.5 L 553.2861328125 1229.5 L 466.27978515625 1229.5 L 466.27978515625 1205.5 Z Z" stroke-miterlimit="10"/></g><g transform="translate(-76.46630859375,-115) scale(1,1)"><g><path fill="none" stroke="none"/><text fill="#000000" stroke="none" font-family="Arial" font-size="13px" font-style="normal" font-weight="bold" text-decoration="none" x="474.37255859375" y="1225">IndicatorJob</text></g></g><g transform="translate(-76.46630859375,-115) scale(1,1)"><rect fill="#C0C0C0" stroke="none" x="467.493896484375" y="1282.5" width="98.578125" height="24" opacity="0.2"/></g><g transform="translate(-76.46630859375,-115) scale(1,1)"><rect fill="#ffffff" stroke="none" x="460.493896484375" y="1275.5" width="98.578125" height="24"/></g><g transform="translate(-76.46630859375,-115) scale(1,1)"><path fill="none" stroke="#000000" d="M 460.493896484375 1275.5 L 559.072021484375 1275.5 L 559.072021484375 1299.5 L 460.493896484375 1299.5 L 460.493896484375 1275.5 Z Z" stroke-miterlimit="10"/></g><g transform="translate(-76.46630859375,-115) scale(1,1)"><g><path fill="none" stroke="none"/><text fill="#000000" stroke="none" font-family="Arial" font-size="13px" font-style="normal" font-weight="bold" text-decoration="none" x="467.869384765625" y="1295">SendEmailJob</text></g></g><g transform="translate(-76.46630859375,-115) scale(1,1)"><rect fill="#C0C0C0" stroke="none" x="107.20263671875" y="132" width="113.71728515625" height="37" opacity="0.2"/></g><g transform="translate(-76.46630859375,-115) scale(1,1)"><rect fill="#ffffff" stroke="none" x="100.20263671875" y="125" width="113.71728515625" height="37"/></g><g transform="translate(-76.46630859375,-115) scale(1,1)"><path fill="none" stroke="#000000" d="M 100.20263671875 125 L 213.919921875 125 L 213.919921875 162 L 100.20263671875 162 L 100.20263671875 125 Z Z" stroke-miterlimit="10"/></g><g transform="translate(-76.46630859375,-115) scale(1,1)"><g><path fill="none" stroke="none"/><text fill="#000000" stroke="none" font-family="Arial" font-size="13px" font-style="normal" font-weight="normal" text-decoration="none" x="108.28271484375" y="142.5">«Cron Manager»</text></g></g><g transform="translate(-76.46630859375,-115) scale(1,1)"><g><path fill="none" stroke="none"/><text fill="#000000" stroke="none" font-family="Arial" font-size="13px" font-style="normal" font-weight="bold" text-decoration="none" x="109" y="157.5">StartupSingleton</text></g></g><g transform="translate(-76.46630859375,-115) scale(1,1)"><rect fill="#C0C0C0" stroke="none" x="461.47314453125" y="1352.5" width="110.61962890625" height="24" opacity="0.2"/></g><g transform="translate(-76.46630859375,-115) scale(1,1)"><rect fill="#ffffff" stroke="none" x="454.47314453125" y="1345.5" width="110.61962890625" height="24"/></g><g transform="translate(-76.46630859375,-115) scale(1,1)"><path fill="none" stroke="#000000" d="M 454.47314453125 1345.5 L 565.0927734375 1345.5 L 565.0927734375 1369.5 L 454.47314453125 1369.5 L 454.47314453125 1345.5 Z Z" stroke-miterlimit="10"/></g><g transform="translate(-76.46630859375,-115) scale(1,1)"><g><path fill="none" stroke="none"/><text fill="#000000" stroke="none" font-family="Arial" font-size="13px" font-style="normal" font-weight="bold" text-decoration="none" x="459.934814453125" y="1365">TestENEDISSGE</text></g></g><g transform="translate(-76.46630859375,-115) scale(1,1)"><rect fill="#C0C0C0" stroke="none" x="461.48583984375" y="1387.5" width="110.59423828125" height="24" opacity="0.2"/></g><g transform="translate(-76.46630859375,-115) scale(1,1)"><rect fill="#ffffff" stroke="none" x="454.48583984375" y="1380.5" width="110.59423828125" height="24"/></g><g transform="translate(-76.46630859375,-115) scale(1,1)"><path fill="none" stroke="#000000" d="M 454.48583984375 1380.5 L 565.080078125 1380.5 L 565.080078125 1404.5 L 454.48583984375 1404.5 L 454.48583984375 1380.5 Z Z" stroke-miterlimit="10"/></g><g transform="translate(-76.46630859375,-115) scale(1,1)"><g><path fill="none" stroke="none"/><text fill="#000000" stroke="none" font-family="Arial" font-size="13px" font-style="normal" font-weight="bold" text-decoration="none" x="460.30615234375" y="1400">TestGRDFADICT</text></g></g><g transform="translate(-76.46630859375,-115) scale(1,1)"><rect fill="#C0C0C0" stroke="none" x="126.34716796875" y="167" width="75.42822265625" height="24" opacity="0.2"/></g><g transform="translate(-76.46630859375,-115) scale(1,1)"><rect fill="#ffffff" stroke="none" x="119.34716796875" y="160" width="75.42822265625" height="24"/></g><g transform="translate(-76.46630859375,-115) scale(1,1)"><path fill="none" stroke="#000000" d="M 119.34716796875 160 L 194.775390625 160 L 194.775390625 184 L 119.34716796875 184 L 119.34716796875 160 Z Z" stroke-miterlimit="10"/></g><g transform="translate(-76.46630859375,-115) scale(1,1)"><g><path fill="none" stroke="none"/><text fill="#000000" stroke="none" font-family="Arial" font-size="13px" font-style="normal" font-weight="bold" text-decoration="none" x="124.916748046875" y="179.5">ConfGRDF</text></g></g><g transform="translate(-76.46630859375,-115) scale(1,1)"><rect fill="#C0C0C0" stroke="none" x="104.641357421875" y="1112" width="118.83984375" height="37" opacity="0.2"/></g><g transform="translate(-76.46630859375,-115) scale(1,1)"><rect fill="#ffffff" stroke="none" x="97.641357421875" y="1105" width="118.83984375" height="37"/></g><g transform="translate(-76.46630859375,-115) scale(1,1)"><path fill="none" stroke="#000000" d="M 97.641357421875 1105 L 216.481201171875 1105 L 216.481201171875 1142 L 97.641357421875 1142 L 97.641357421875 1105 Z Z" stroke-miterlimit="10"/></g><g transform="translate(-76.46630859375,-115) scale(1,1)"><g><path fill="none" stroke="none"/><text fill="#000000" stroke="none" font-family="Arial" font-size="13px" font-style="normal" font-weight="normal" text-decoration="none" x="121.654052734375" y="1122.5">«Controller»</text></g></g><g transform="translate(-76.46630859375,-115) scale(1,1)"><g><path fill="none" stroke="none"/><text fill="#000000" stroke="none" font-family="Arial" font-size="13px" font-style="normal" font-weight="bold" text-decoration="none" x="104.328125" y="1137.5">UserRESTService</text></g></g><g transform="translate(-76.46630859375,-115) scale(1,1)"><rect fill="#C0C0C0" stroke="none" x="452.681640625" y="1539.5" width="128.20263671875" height="24" opacity="0.2"/></g><g transform="translate(-76.46630859375,-115) scale(1,1)"><rect fill="#ffffff" stroke="none" x="445.681640625" y="1532.5" width="128.20263671875" height="24"/></g><g transform="translate(-76.46630859375,-115) scale(1,1)"><path fill="none" stroke="#000000" d="M 445.681640625 1532.5 L 573.88427734375 1532.5 L 573.88427734375 1556.5 L 445.681640625 1556.5 L 445.681640625 1532.5 Z Z" stroke-miterlimit="10"/></g><g transform="translate(-76.46630859375,-115) scale(1,1)"><g><path fill="none" stroke="none"/><text fill="#000000" stroke="none" font-family="Arial" font-size="13px" font-style="normal" font-weight="bold" text-decoration="none" x="455.231201171875" y="1552">SecurityInterceptor</text></g></g><g transform="translate(-76.46630859375,-115) scale(1,1)"><rect fill="#C0C0C0" stroke="none" x="93.46630859375" y="1147" width="141.18994140625" height="24" opacity="0.2"/></g><g transform="translate(-76.46630859375,-115) scale(1,1)"><rect fill="#ffffff" stroke="none" x="86.46630859375" y="1140" width="141.18994140625" height="24"/></g><g transform="translate(-76.46630859375,-115) scale(1,1)"><path fill="none" stroke="#000000" d="M 86.46630859375 1140 L 227.65625 1140 L 227.65625 1164 L 86.46630859375 1164 L 86.46630859375 1140 Z Z" stroke-miterlimit="10"/></g><g transform="translate(-76.46630859375,-115) scale(1,1)"><g><path fill="none" stroke="none"/><text fill="#000000" stroke="none" font-family="Arial" font-size="13px" font-style="normal" font-weight="bold" text-decoration="none" x="96.36181640625" y="1159.5">SingletonSecurityPro</text></g></g><g transform="translate(-76.46630859375,-115) scale(1,1)"><rect fill="#C0C0C0" stroke="none" x="447.632080078125" y="1598.5" width="138.3017578125" height="24" opacity="0.2"/></g><g transform="translate(-76.46630859375,-115) scale(1,1)"><rect fill="#ffffff" stroke="none" x="440.632080078125" y="1591.5" width="138.3017578125" height="24"/></g><g transform="translate(-76.46630859375,-115) scale(1,1)"><path fill="none" stroke="#000000" d="M 440.632080078125 1591.5 L 578.933837890625 1591.5 L 578.933837890625 1615.5 L 440.632080078125 1615.5 L 440.632080078125 1591.5 Z Z" stroke-miterlimit="10"/></g><g transform="translate(-76.46630859375,-115) scale(1,1)"><g><path fill="none" stroke="none"/><text fill="#000000" stroke="none" font-family="Arial" font-size="13px" font-style="normal" font-weight="bold" text-decoration="none" x="450.64501953125" y="1611">ValidationInterceptor</text></g></g><g transform="translate(-76.46630859375,-115) scale(1,1)"><rect fill="#C0C0C0" stroke="none" x="104.2890625" y="1182" width="119.54443359375" height="24" opacity="0.2"/></g><g transform="translate(-76.46630859375,-115) scale(1,1)"><rect fill="#ffffff" stroke="none" x="97.2890625" y="1175" width="119.54443359375" height="24"/></g><g transform="translate(-76.46630859375,-115) scale(1,1)"><path fill="none" stroke="#000000" d="M 97.2890625 1175 L 216.83349609375 1175 L 216.83349609375 1199 L 97.2890625 1199 L 97.2890625 1175 Z Z" stroke-miterlimit="10"/></g><g transform="translate(-76.46630859375,-115) scale(1,1)"><g><path fill="none" stroke="none"/><text fill="#000000" stroke="none" font-family="Arial" font-size="13px" font-style="normal" font-weight="bold" text-decoration="none" x="105.759521484375" y="1194.5">LoginUserService</text></g></g><g transform="translate(-76.46630859375,-115) scale(1,1)"><rect fill="#C0C0C0" stroke="none" x="107.878662109375" y="1252" width="112.365234375" height="37" opacity="0.2"/></g><g transform="translate(-76.46630859375,-115) scale(1,1)"><rect fill="#ffffff" stroke="none" x="100.878662109375" y="1245" width="112.365234375" height="37"/></g><g transform="translate(-76.46630859375,-115) scale(1,1)"><path fill="none" stroke="#000000" d="M 100.878662109375 1245 L 213.243896484375 1245 L 213.243896484375 1282 L 100.878662109375 1282 L 100.878662109375 1245 Z Z" stroke-miterlimit="10"/></g><g transform="translate(-76.46630859375,-115) scale(1,1)"><g><path fill="none" stroke="none"/><text fill="#000000" stroke="none" font-family="Arial" font-size="13px" font-style="normal" font-weight="normal" text-decoration="none" x="105.378662109375" y="1262.5">«annotationType»</text></g></g><g transform="translate(-76.46630859375,-115) scale(1,1)"><g><path fill="none" stroke="none"/><text fill="#000000" stroke="none" font-family="Arial" font-size="13px" font-style="normal" font-weight="bold" text-decoration="none" x="118.397705078125" y="1277.5">Configuration</text></g></g><g transform="translate(-76.46630859375,-115) scale(1,1)"><rect fill="#C0C0C0" stroke="none" x="93.47900390625" y="1300" width="141.16455078125" height="24" opacity="0.2"/></g><g transform="translate(-76.46630859375,-115) scale(1,1)"><rect fill="#ffffff" stroke="none" x="86.47900390625" y="1293" width="141.16455078125" height="24"/></g><g transform="translate(-76.46630859375,-115) scale(1,1)"><path fill="none" stroke="#000000" d="M 86.47900390625 1293 L 227.6435546875 1293 L 227.6435546875 1317 L 86.47900390625 1317 L 86.47900390625 1293 Z Z" stroke-miterlimit="10"/></g><g transform="translate(-76.46630859375,-115) scale(1,1)"><g><path fill="none" stroke="none"/><text fill="#000000" stroke="none" font-family="Arial" font-size="13px" font-style="normal" font-weight="bold" text-decoration="none" x="96.726806640625" y="1312.5">ConfigurationFactory</text></g></g><g transform="translate(-76.46630859375,-115) scale(1,1)"><path fill="none" stroke="#000000" d="M 724 923 Q 675 921 565 947" stroke-miterlimit="10"/></g><g transform="translate(-76.46630859375,-115) scale(1,1)"><path fill="#FFFFFF" stroke="none" d="M 582.8437251268798 934.1313763907573 L 565 947 L 586.7169100574783 950.5179280202126"/></g><g transform="translate(-76.46630859375,-115) scale(1,1)"><path fill="none" stroke="#000000" d="M 582.8437251268798 934.1313763907573 L 565 947 L 586.7169100574783 950.5179280202126 L 582.8437251268798 934.1313763907573" stroke-miterlimit="10"/></g><g transform="translate(-76.46630859375,-115) scale(1,1)"><path fill="none" stroke="#000000" d="M 735 959 Q 675 956 565 959" stroke-miterlimit="10"/></g><g transform="translate(-76.46630859375,-115) scale(1,1)"><path fill="#FFFFFF" stroke="none" d="M 585.0882702002301 950.0299721091544 L 565 959 L 585.5473196299397 966.861784531841"/></g><g transform="translate(-76.46630859375,-115) scale(1,1)"><path fill="none" stroke="#000000" d="M 585.0882702002301 950.0299721091544 L 565 959 L 585.5473196299397 966.861784531841 L 585.0882702002301 950.0299721091544" stroke-miterlimit="10"/></g></g></svg>