<svg version="1.1" xmlns="http://www.w3.org/2000/svg" xmlns:xlink="http://www.w3.org/1999/xlink" width="449.02880859375" height="345"><defs/><g><g transform="translate(-278,-126) scale(1,1)"><rect fill="#C0C0C0" stroke="none" x="295" y="271" width="184.55078125" height="37" opacity="0.2"/></g><g transform="translate(-278,-126) scale(1,1)"><rect fill="#ffffff" stroke="none" x="288" y="264" width="184.55078125" height="37"/></g><g transform="translate(-278,-126) scale(1,1)"><path fill="none" stroke="#000000" d="M 288 264 L 472.55078125 264 L 472.55078125 301 L 288 301 L 288 264 Z Z" stroke-miterlimit="10"/></g><g transform="translate(-278,-126) scale(1,1)"><g><path fill="none" stroke="none"/><text fill="#000000" stroke="none" font-family="Arial" font-size="13px" font-style="normal" font-weight="normal" text-decoration="none" x="351.371337890625" y="281.5">«Service»</text></g></g><g transform="translate(-278,-126) scale(1,1)"><g><path fill="none" stroke="none"/><text fill="#000000" stroke="none" font-family="Arial" font-size="13px" font-style="normal" font-weight="bold" text-decoration="none" x="298.622314453125" y="296.5">MeteringPointEnedisService</text></g></g><g transform="translate(-278,-126) scale(1,1)"><rect fill="#C0C0C0" stroke="none" x="543" y="271" width="118.83984375" height="37" opacity="0.2"/></g><g transform="translate(-278,-126) scale(1,1)"><rect fill="#ffffff" stroke="none" x="536" y="264" width="118.83984375" height="37"/></g><g transform="translate(-278,-126) scale(1,1)"><path fill="none" stroke="#000000" d="M 536 264 L 654.83984375 264 L 654.83984375 301 L 536 301 L 536 264 Z Z" stroke-miterlimit="10"/></g><g transform="translate(-278,-126) scale(1,1)"><g><path fill="none" stroke="none"/><text fill="#000000" stroke="none" font-family="Arial" font-size="13px" font-style="normal" font-weight="normal" text-decoration="none" x="560.0126953125" y="281.5">«Controller»</text></g></g><g transform="translate(-278,-126) scale(1,1)"><g><path fill="none" stroke="none"/><text fill="#000000" stroke="none" font-family="Arial" font-size="13px" font-style="normal" font-weight="bold" text-decoration="none" x="542.686767578125" y="296.5">UserRESTService</text></g></g><g transform="translate(-278,-126) scale(1,1)"><rect fill="#C0C0C0" stroke="none" x="311" y="351" width="134.6962890625" height="37" opacity="0.2"/></g><g transform="translate(-278,-126) scale(1,1)"><rect fill="#ffffff" stroke="none" x="304" y="344" width="134.6962890625" height="37"/></g><g transform="translate(-278,-126) scale(1,1)"><path fill="none" stroke="#000000" d="M 304 344 L 438.6962890625 344 L 438.6962890625 381 L 304 381 L 304 344 Z Z" stroke-miterlimit="10"/></g><g transform="translate(-278,-126) scale(1,1)"><g><path fill="none" stroke="none"/><text fill="#000000" stroke="none" font-family="Arial" font-size="13px" font-style="normal" font-weight="normal" text-decoration="none" x="341.35546875" y="361.5">«Handler»</text></g></g><g transform="translate(-278,-126) scale(1,1)"><g><path fill="none" stroke="none"/><text fill="#000000" stroke="none" font-family="Arial" font-size="13px" font-style="italic" font-weight="bold" text-decoration="none" x="313.1845703125" y="376.5">AbstractDpsHandler</text></g></g><g transform="translate(-278,-126) scale(1,1)"><rect fill="#C0C0C0" stroke="none" x="495" y="351" width="152.76171875" height="37" opacity="0.2"/></g><g transform="translate(-278,-126) scale(1,1)"><rect fill="#ffffff" stroke="none" x="488" y="344" width="152.76171875" height="37"/></g><g transform="translate(-278,-126) scale(1,1)"><path fill="none" stroke="#000000" d="M 488 344 L 640.76171875 344 L 640.76171875 381 L 488 381 L 488 344 Z Z" stroke-miterlimit="10"/></g><g transform="translate(-278,-126) scale(1,1)"><g><path fill="none" stroke="none"/><text fill="#000000" stroke="none" font-family="Arial" font-size="13px" font-style="normal" font-weight="normal" text-decoration="none" x="534.38818359375" y="361.5">«Handler»</text></g></g><g transform="translate(-278,-126) scale(1,1)"><g><path fill="none" stroke="none"/><text fill="#000000" stroke="none" font-family="Arial" font-size="13px" font-style="italic" font-weight="bold" text-decoration="none" x="497.90185546875" y="376.5">AbstractEnedisHandler</text></g></g><g transform="translate(-278,-126) scale(1,1)"><path fill="none" stroke="#000000" d="M 487 362 L 440 362" stroke-miterlimit="10"/></g><g transform="translate(-278,-126) scale(1,1)"><path fill="#FFFFFF" stroke="none" d="M 460.3253497152483 353.580964487968 L 440 362 L 460.3253497152483 370.419035512032"/></g><g transform="translate(-278,-126) scale(1,1)"><path fill="none" stroke="#000000" d="M 460.3253497152483 353.580964487968 L 440 362 L 460.3253497152483 370.419035512032 L 460.3253497152483 353.580964487968" stroke-miterlimit="10"/></g><g transform="translate(-278,-126) scale(1,1)"><rect fill="#C0C0C0" stroke="none" x="327" y="431" width="111.60986328125" height="37" opacity="0.2"/></g><g transform="translate(-278,-126) scale(1,1)"><rect fill="#ffffff" stroke="none" x="320" y="424" width="111.60986328125" height="37"/></g><g transform="translate(-278,-126) scale(1,1)"><path fill="none" stroke="#000000" d="M 320 424 L 431.60986328125 424 L 431.60986328125 461 L 320 461 L 320 424 Z Z" stroke-miterlimit="10"/></g><g transform="translate(-278,-126) scale(1,1)"><g><path fill="none" stroke="none"/><text fill="#000000" stroke="none" font-family="Arial" font-size="13px" font-style="normal" font-weight="normal" text-decoration="none" x="346.90087890625" y="441.5">«Service»</text></g></g><g transform="translate(-278,-126) scale(1,1)"><g><path fill="none" stroke="none"/><text fill="#000000" stroke="none" font-family="Arial" font-size="13px" font-style="normal" font-weight="bold" text-decoration="none" x="328.127685546875" y="456.5">DpsErrorService</text></g></g><g transform="translate(-278,-126) scale(1,1)"><path fill="none" stroke="#000000" d="M 372 382 L 374 423" stroke-miterlimit="10"/></g><g transform="translate(-278,-126) scale(1,1)"><path fill="none" stroke="#000000" d="M 369.30033020138916 413.0544932867136 L 374 423 L 377.70936685536583 412.6442963767635" stroke-miterlimit="10"/></g><g transform="translate(-278,-126) scale(1,1)"><g><path fill="none" stroke="none"/><text fill="#000000" stroke="none" font-family="Arial" font-size="13px" font-style="normal" font-weight="normal" text-decoration="none" x="405.5" y="411.5">+dpsErrorService</text></g></g><g transform="translate(-278,-126) scale(1,1)"><path fill="none" stroke="#000000" d="M 535 282 L 474 282" stroke-miterlimit="10"/></g><g transform="translate(-278,-126) scale(1,1)"><path fill="none" stroke="#000000" d="M 484.16267485762415 277.790482243984 L 474 282 L 484.16267485762415 286.209517756016" stroke-miterlimit="10"/></g><g transform="translate(-278,-126) scale(1,1)"><path fill="none" stroke="#000000" d="M 378 302 L 373 343" stroke-miterlimit="10" stroke-dasharray="3"/></g><g transform="translate(-278,-126) scale(1,1)"><path fill="none" stroke="#000000" d="M 370.0516758093939 332.40248215537775 L 373 343 L 378.4087967033639 333.4216432400082" stroke-miterlimit="10"/></g><g transform="translate(-278,-126) scale(1,1)"><rect fill="#C0C0C0" stroke="none" x="495" y="143" width="229.02880859375" height="203" opacity="0.2"/></g><g transform="translate(-278,-126) scale(1,1)"><rect fill="#ffffff" stroke="none" x="488" y="136" width="229.02880859375" height="203"/></g><g transform="translate(-278,-126) scale(1,1)"><path fill="none" stroke="#000000" d="M 488 136 L 717.02880859375 136 L 717.02880859375 339 L 488 339 L 488 136 Z Z" stroke-miterlimit="10"/></g><g transform="translate(-278,-126) scale(1,1)"><path fill="none" stroke="#000000" d="M 488 174 L 717.02880859375 174" stroke-miterlimit="10"/></g><g transform="translate(-278,-126) scale(1,1)"><path fill="none" stroke="#000000" d="M 488 197 L 717.02880859375 197" stroke-miterlimit="10"/></g><g transform="translate(-278,-126) scale(1,1)"><g><path fill="none" stroke="none"/><text fill="#000000" stroke="none" font-family="Arial" font-size="13px" font-style="normal" font-weight="normal" text-decoration="none" x="567.107177734375" y="153.5">«Controller»</text></g></g><g transform="translate(-278,-126) scale(1,1)"><g><path fill="none" stroke="none"/><text fill="#000000" stroke="none" font-family="Arial" font-size="13px" font-style="normal" font-weight="bold" text-decoration="none" x="552.291748046875" y="168.5">dpsLandingCtrl.js</text></g></g><g transform="translate(-278,-126) scale(1,1)"><g><path fill="none" stroke="none"/><text fill="#000000" stroke="none" font-family="Arial" font-size="13px" font-style="normal" font-weight="normal" text-decoration="none" x="493" y="191.5">+$scope.message</text></g></g><g transform="translate(-278,-126) scale(1,1)"><g><path fill="none" stroke="none"/><text fill="#000000" stroke="none" font-family="Arial" font-size="13px" font-style="normal" font-weight="normal" text-decoration="none" x="493" y="214.5">+$scope.buildEnedisRequestBody()</text></g></g><g transform="translate(-278,-126) scale(1,1)"><g><path fill="none" stroke="none"/><text fill="#000000" stroke="none" font-family="Arial" font-size="13px" font-style="normal" font-weight="normal" text-decoration="none" x="493" y="229.5">+$scope.saveRootUrl()</text></g></g><g transform="translate(-278,-126) scale(1,1)"><g><path fill="none" stroke="none"/><text fill="#000000" stroke="none" font-family="Arial" font-size="13px" font-style="normal" font-weight="normal" text-decoration="none" x="493" y="244.5">+$scope.readEnedisQueryPassword()</text></g></g><g transform="translate(-278,-126) scale(1,1)"><g><path fill="none" stroke="none"/><text fill="#000000" stroke="none" font-family="Arial" font-size="13px" font-style="normal" font-weight="normal" text-decoration="none" x="493" y="259.5">+$scope.gatherClientRawData()</text></g></g><g transform="translate(-278,-126) scale(1,1)"><g><path fill="none" stroke="none"/><text fill="#000000" stroke="none" font-family="Arial" font-size="13px" font-style="normal" font-weight="normal" text-decoration="none" x="493" y="274.5">+$scope.refreshSessionToken()</text></g></g><g transform="translate(-278,-126) scale(1,1)"><g><path fill="none" stroke="none"/><text fill="#000000" stroke="none" font-family="Arial" font-size="13px" font-style="normal" font-weight="normal" text-decoration="none" x="493" y="289.5">+$scope.createSmartMeteringPoint()</text></g></g><g transform="translate(-278,-126) scale(1,1)"><g><path fill="none" stroke="none"/><text fill="#000000" stroke="none" font-family="Arial" font-size="13px" font-style="normal" font-weight="normal" text-decoration="none" x="493" y="304.5">+$scope.clearBrowserUrl()</text></g></g><g transform="translate(-278,-126) scale(1,1)"><g><path fill="none" stroke="none"/><text fill="#000000" stroke="none" font-family="Arial" font-size="13px" font-style="normal" font-weight="normal" text-decoration="none" x="493" y="319.5">+$scope.detectBrowser()</text></g></g><g transform="translate(-278,-126) scale(1,1)"><g><path fill="none" stroke="none"/><text fill="#000000" stroke="none" font-family="Arial" font-size="13px" font-style="normal" font-weight="normal" text-decoration="none" x="493" y="334.5">+$scope.updatePage()</text></g></g><g transform="translate(-278,-126) scale(1,1)"><path fill="none" stroke="#000000" d="M 602 237 L 598 263" stroke-miterlimit="10" stroke-dasharray="3"/></g><g transform="translate(-278,-126) scale(1,1)"><path fill="none" stroke="#000000" d="M 595.3847395125347 252.315412381252 L 598 263 L 603.7058759341426 253.59558721534552" stroke-miterlimit="10"/></g></g></svg>