<svg version="1.1" xmlns="http://www.w3.org/2000/svg" xmlns:xlink="http://www.w3.org/1999/xlink" width="197.53173828125" height="99"><defs/><g><g transform="translate(-4,-10) scale(1,1)"><rect fill="#C0C0C0" stroke="none" x="27" y="27" width="171.53173828125" height="24" opacity="0.2"/></g><g transform="translate(-4,-10) scale(1,1)"><rect fill="#ffffff" stroke="none" x="20" y="20" width="171.53173828125" height="24"/></g><g transform="translate(-4,-10) scale(1,1)"><path fill="none" stroke="#000000" d="M 20 20 L 191.53173828125 20 L 191.53173828125 44 L 20 44 L 20 20 Z Z" stroke-miterlimit="10"/></g><g transform="translate(-4,-10) scale(1,1)"><g><path fill="none" stroke="none"/><text fill="#000000" stroke="none" font-family="Arial" font-size="13px" font-style="normal" font-weight="bold" text-decoration="none" x="29.898681640625" y="39.5">RequestMpControlService</text></g></g><g transform="translate(-4,-10) scale(1,1)"><rect fill="#C0C0C0" stroke="none" x="50.10546875" y="82" width="125.32080078125" height="24" opacity="0.2"/></g><g transform="translate(-4,-10) scale(1,1)"><rect fill="#ffffff" stroke="none" x="43.10546875" y="75" width="125.32080078125" height="24"/></g><g transform="translate(-4,-10) scale(1,1)"><path fill="none" stroke="#000000" d="M 43.10546875 75 L 168.42626953125 75 L 168.42626953125 99 L 43.10546875 99 L 43.10546875 75 Z Z" stroke-miterlimit="10"/></g><g transform="translate(-4,-10) scale(1,1)"><g><path fill="none" stroke="none"/><text fill="#000000" stroke="none" font-family="Arial" font-size="13px" font-style="normal" font-weight="bold" text-decoration="none" x="50.852294921875" y="94.5">RequestMpService</text></g></g><g transform="translate(-4,-10) scale(1,1)"><path fill="none" stroke="#000000" d="M 105 74 Q 106 60 105 45" stroke-miterlimit="10"/></g><g transform="translate(-4,-10) scale(1,1)"><path fill="none" stroke="#000000" d="M 109.8762054144906 54.86015318114747 L 105 45 L 101.47581673711738 55.42017909297235" stroke-miterlimit="10"/></g><g transform="translate(-4,-10) scale(1,1)"><g><path fill="none" stroke="none"/><text fill="#000000" stroke="none" font-family="Arial" font-size="13px" font-style="normal" font-weight="normal" text-decoration="none" x="13.5" y="77.5">~requestMpControlService</text></g></g></g></svg>