<svg version="1.1" xmlns="http://www.w3.org/2000/svg" xmlns:xlink="http://www.w3.org/1999/xlink" width="197.53173828125" height="112"><defs/><g><g transform="translate(-4,-10) scale(1,1)"><rect fill="#C0C0C0" stroke="none" x="27" y="27" width="171.53173828125" height="37" opacity="0.2"/></g><g transform="translate(-4,-10) scale(1,1)"><rect fill="#ffffff" stroke="none" x="20" y="20" width="171.53173828125" height="37"/></g><g transform="translate(-4,-10) scale(1,1)"><path fill="none" stroke="#000000" d="M 20 20 L 191.53173828125 20 L 191.53173828125 57 L 20 57 L 20 20 Z Z" stroke-miterlimit="10"/></g><g transform="translate(-4,-10) scale(1,1)"><g><path fill="none" stroke="none"/><text fill="#000000" stroke="none" font-family="Arial" font-size="13px" font-style="normal" font-weight="normal" text-decoration="none" x="76.86181640625" y="37.5">«Service»</text></g></g><g transform="translate(-4,-10) scale(1,1)"><g><path fill="none" stroke="none"/><text fill="#000000" stroke="none" font-family="Arial" font-size="13px" font-style="normal" font-weight="bold" text-decoration="none" x="29.898681640625" y="52.5">RequestMpControlService</text></g></g><g transform="translate(-4,-10) scale(1,1)"><rect fill="#C0C0C0" stroke="none" x="50.10546875" y="82" width="125.32080078125" height="37" opacity="0.2"/></g><g transform="translate(-4,-10) scale(1,1)"><rect fill="#ffffff" stroke="none" x="43.10546875" y="75" width="125.32080078125" height="37"/></g><g transform="translate(-4,-10) scale(1,1)"><path fill="none" stroke="#000000" d="M 43.10546875 75 L 168.42626953125 75 L 168.42626953125 112 L 43.10546875 112 L 43.10546875 75 Z Z" stroke-miterlimit="10"/></g><g transform="translate(-4,-10) scale(1,1)"><g><path fill="none" stroke="none"/><text fill="#000000" stroke="none" font-family="Arial" font-size="13px" font-style="normal" font-weight="normal" text-decoration="none" x="76.86181640625" y="92.5">«Service»</text></g></g><g transform="translate(-4,-10) scale(1,1)"><g><path fill="none" stroke="none"/><text fill="#000000" stroke="none" font-family="Arial" font-size="13px" font-style="normal" font-weight="bold" text-decoration="none" x="50.852294921875" y="107.5">RequestMpService</text></g></g><g transform="translate(-4,-10) scale(1,1)"><path fill="none" stroke="#000000" d="M 106 74 Q 106 60 106 58" stroke-miterlimit="10"/></g><g transform="translate(-4,-10) scale(1,1)"><path fill="none" stroke="#000000" d="M 110.20951775601598 68.16267485762415 L 106 58 L 101.79048224398402 68.16267485762415" stroke-miterlimit="10"/></g><g transform="translate(-4,-10) scale(1,1)"><g><path fill="none" stroke="none"/><text fill="#000000" stroke="none" font-family="Arial" font-size="13px" font-style="normal" font-weight="normal" text-decoration="none" x="13.5" y="89.5">~requestMpControlService</text></g></g></g></svg>