<svg version="1.1" xmlns="http://www.w3.org/2000/svg" xmlns:xlink="http://www.w3.org/1999/xlink" width="676.919921875" height="465"><defs/><g><g transform="translate(-390,-94) scale(1,1)"><rect fill="#C0C0C0" stroke="none" x="471" y="111" width="119.5" height="37" opacity="0.2"/></g><g transform="translate(-390,-94) scale(1,1)"><rect fill="#ffffff" stroke="none" x="464" y="104" width="119.5" height="37"/></g><g transform="translate(-390,-94) scale(1,1)"><path fill="none" stroke="#000000" d="M 464 104 L 583.5 104 L 583.5 141 L 464 141 L 464 104 Z Z" stroke-miterlimit="10"/></g><g transform="translate(-390,-94) scale(1,1)"><g><path fill="none" stroke="none"/><text fill="#000000" stroke="none" font-family="Arial" font-size="13px" font-style="normal" font-weight="normal" text-decoration="none" x="488.3427734375" y="121.5">«Controller»</text></g></g><g transform="translate(-390,-94) scale(1,1)"><g><path fill="none" stroke="none"/><text fill="#000000" stroke="none" font-family="Arial" font-size="13px" font-style="normal" font-weight="bold" text-decoration="none" x="473.52734375" y="136.5">dpsLandingCtrl.js</text></g></g><g transform="translate(-390,-94) scale(1,1)"><rect fill="#C0C0C0" stroke="none" x="727" y="111" width="118.83984375" height="37" opacity="0.2"/></g><g transform="translate(-390,-94) scale(1,1)"><rect fill="#ffffff" stroke="none" x="720" y="104" width="118.83984375" height="37"/></g><g transform="translate(-390,-94) scale(1,1)"><path fill="none" stroke="#000000" d="M 720 104 L 838.83984375 104 L 838.83984375 141 L 720 141 L 720 104 Z Z" stroke-miterlimit="10"/></g><g transform="translate(-390,-94) scale(1,1)"><g><path fill="none" stroke="none"/><text fill="#000000" stroke="none" font-family="Arial" font-size="13px" font-style="normal" font-weight="normal" text-decoration="none" x="744.0126953125" y="121.5">«Controller»</text></g></g><g transform="translate(-390,-94) scale(1,1)"><g><path fill="none" stroke="none"/><text fill="#000000" stroke="none" font-family="Arial" font-size="13px" font-style="normal" font-weight="bold" text-decoration="none" x="726.686767578125" y="136.5">UserRESTService</text></g></g><g transform="translate(-390,-94) scale(1,1)"><path fill="none" stroke="#000000" d="M 584 122 L 720 122" stroke-miterlimit="10" stroke-dasharray="3"/></g><g transform="translate(-390,-94) scale(1,1)"><path fill="none" stroke="#000000" d="M 709.8373251423759 126.20951775601598 L 720 122 L 709.8373251423758 117.79048224398402" stroke-miterlimit="10"/></g><g transform="translate(-390,-94) scale(1,1)"><rect fill="#C0C0C0" stroke="none" x="431" y="215" width="95.68994140625" height="37" opacity="0.2"/></g><g transform="translate(-390,-94) scale(1,1)"><rect fill="#ffffff" stroke="none" x="424" y="208" width="95.68994140625" height="37"/></g><g transform="translate(-390,-94) scale(1,1)"><path fill="none" stroke="#000000" d="M 424 208 L 519.68994140625 208 L 519.68994140625 245 L 424 245 L 424 208 Z Z" stroke-miterlimit="10"/></g><g transform="translate(-390,-94) scale(1,1)"><g><path fill="none" stroke="none"/><text fill="#000000" stroke="none" font-family="Arial" font-size="13px" font-style="normal" font-weight="normal" text-decoration="none" x="435.345947265625" y="225.5">«Response»</text></g></g><g transform="translate(-390,-94) scale(1,1)"><g><path fill="none" stroke="none"/><text fill="#000000" stroke="none" font-family="Arial" font-size="13px" font-style="normal" font-weight="bold" text-decoration="none" x="431.016845703125" y="240.5">DpsResponse</text></g></g><g transform="translate(-390,-94) scale(1,1)"><rect fill="#C0C0C0" stroke="none" x="567" y="207" width="131.8525390625" height="37" opacity="0.2"/></g><g transform="translate(-390,-94) scale(1,1)"><rect fill="#ffffff" stroke="none" x="560" y="200" width="131.8525390625" height="37"/></g><g transform="translate(-390,-94) scale(1,1)"><path fill="none" stroke="#000000" d="M 560 200 L 691.8525390625 200 L 691.8525390625 237 L 560 237 L 560 200 Z Z" stroke-miterlimit="10"/></g><g transform="translate(-390,-94) scale(1,1)"><g><path fill="none" stroke="none"/><text fill="#000000" stroke="none" font-family="Arial" font-size="13px" font-style="normal" font-weight="normal" text-decoration="none" x="597.022216796875" y="217.5">«Service»</text></g></g><g transform="translate(-390,-94) scale(1,1)"><g><path fill="none" stroke="none"/><text fill="#000000" stroke="none" font-family="Arial" font-size="13px" font-style="normal" font-weight="bold" text-decoration="none" x="567.7626953125" y="232.5">MessageProService</text></g></g><g transform="translate(-390,-94) scale(1,1)"><rect fill="#C0C0C0" stroke="none" x="767" y="207" width="111.60986328125" height="37" opacity="0.2"/></g><g transform="translate(-390,-94) scale(1,1)"><rect fill="#ffffff" stroke="none" x="760" y="200" width="111.60986328125" height="37"/></g><g transform="translate(-390,-94) scale(1,1)"><path fill="none" stroke="#000000" d="M 760 200 L 871.60986328125 200 L 871.60986328125 237 L 760 237 L 760 200 Z Z" stroke-miterlimit="10"/></g><g transform="translate(-390,-94) scale(1,1)"><g><path fill="none" stroke="none"/><text fill="#000000" stroke="none" font-family="Arial" font-size="13px" font-style="normal" font-weight="normal" text-decoration="none" x="786.90087890625" y="217.5">«Service»</text></g></g><g transform="translate(-390,-94) scale(1,1)"><g><path fill="none" stroke="none"/><text fill="#000000" stroke="none" font-family="Arial" font-size="13px" font-style="normal" font-weight="bold" text-decoration="none" x="768.127685546875" y="232.5">DpsErrorService</text></g></g><g transform="translate(-390,-94) scale(1,1)"><path fill="none" stroke="#000000" d="M 692 218 L 760 218" stroke-miterlimit="10"/></g><g transform="translate(-390,-94) scale(1,1)"><path fill="#000000" stroke="none" d="M 749.8373251423759 222.209517756016 L 760 218 L 749.8373251423758 213.790482243984 L 738 218"/></g><g transform="translate(-390,-94) scale(1,1)"><path fill="none" stroke="#000000" d="M 749.8373251423759 222.209517756016 L 760 218 L 749.8373251423758 213.790482243984 L 738 218 L 749.8373251423759 222.209517756016" stroke-miterlimit="10"/></g><g transform="translate(-390,-94) scale(1,1)"><rect fill="#C0C0C0" stroke="none" x="407" y="287" width="134.6962890625" height="37" opacity="0.2"/></g><g transform="translate(-390,-94) scale(1,1)"><rect fill="#ffffff" stroke="none" x="400" y="280" width="134.6962890625" height="37"/></g><g transform="translate(-390,-94) scale(1,1)"><path fill="none" stroke="#000000" d="M 400 280 L 534.6962890625 280 L 534.6962890625 317 L 400 317 L 400 280 Z Z" stroke-miterlimit="10"/></g><g transform="translate(-390,-94) scale(1,1)"><g><path fill="none" stroke="none"/><text fill="#000000" stroke="none" font-family="Arial" font-size="13px" font-style="normal" font-weight="normal" text-decoration="none" x="437.35546875" y="297.5">«Handler»</text></g></g><g transform="translate(-390,-94) scale(1,1)"><g><path fill="none" stroke="none"/><text fill="#000000" stroke="none" font-family="Arial" font-size="13px" font-style="italic" font-weight="bold" text-decoration="none" x="409.1845703125" y="312.5">AbstractDpsHandler</text></g></g><g transform="translate(-390,-94) scale(1,1)"><path fill="none" stroke="#000000" d="M 535 298 L 536 298 L 536 184 L 736 184 L 736 218 L 760 218" stroke-miterlimit="10"/></g><g transform="translate(-390,-94) scale(1,1)"><path fill="none" stroke="#000000" d="M 749.8373251423759 222.209517756016 L 760 218 L 749.8373251423758 213.790482243984" stroke-miterlimit="10"/></g><g transform="translate(-390,-94) scale(1,1)"><g><path fill="none" stroke="none"/><text fill="#000000" stroke="none" font-family="Arial" font-size="13px" font-style="normal" font-weight="normal" text-decoration="none" x="683.5" y="209.5">+dpsErrorService</text></g></g><g transform="translate(-390,-94) scale(1,1)"><path fill="none" stroke="#000000" d="M 470 280 L 470 245" stroke-miterlimit="10" stroke-dasharray="3"/></g><g transform="translate(-390,-94) scale(1,1)"><path fill="none" stroke="#000000" d="M 474.209517756016 255.16267485762415 L 470 245 L 465.790482243984 255.16267485762415" stroke-miterlimit="10"/></g><g transform="translate(-390,-94) scale(1,1)"><rect fill="#C0C0C0" stroke="none" x="663" y="295" width="169.3671875" height="37" opacity="0.2"/></g><g transform="translate(-390,-94) scale(1,1)"><rect fill="#ffffff" stroke="none" x="656" y="288" width="169.3671875" height="37"/></g><g transform="translate(-390,-94) scale(1,1)"><path fill="none" stroke="#000000" d="M 656 288 L 825.3671875 288 L 825.3671875 325 L 656 325 L 656 288 Z Z" stroke-miterlimit="10"/></g><g transform="translate(-390,-94) scale(1,1)"><g><path fill="none" stroke="none"/><text fill="#000000" stroke="none" font-family="Arial" font-size="13px" font-style="normal" font-weight="normal" text-decoration="none" x="711.779541015625" y="305.5">«Service»</text></g></g><g transform="translate(-390,-94) scale(1,1)"><g><path fill="none" stroke="none"/><text fill="#000000" stroke="none" font-family="Arial" font-size="13px" font-style="normal" font-weight="bold" text-decoration="none" x="666.263671875" y="320.5">MeteringPointGrdfService</text></g></g><g transform="translate(-390,-94) scale(1,1)"><rect fill="#C0C0C0" stroke="none" x="935" y="247" width="128.919921875" height="37" opacity="0.2"/></g><g transform="translate(-390,-94) scale(1,1)"><rect fill="#ffffff" stroke="none" x="928" y="240" width="128.919921875" height="37"/></g><g transform="translate(-390,-94) scale(1,1)"><path fill="none" stroke="#000000" d="M 928 240 L 1056.919921875 240 L 1056.919921875 277 L 928 277 L 928 240 Z Z" stroke-miterlimit="10"/></g><g transform="translate(-390,-94) scale(1,1)"><g><path fill="none" stroke="none"/><text fill="#000000" stroke="none" font-family="Arial" font-size="13px" font-style="normal" font-weight="normal" text-decoration="none" x="963.55908203125" y="257.5">«Factory»</text></g></g><g transform="translate(-390,-94) scale(1,1)"><g><path fill="none" stroke="none"/><text fill="#000000" stroke="none" font-family="Arial" font-size="13px" font-style="normal" font-weight="bold" text-decoration="none" x="936.46728515625" y="272.5">DpsHandlerFactory</text></g></g><g transform="translate(-390,-94) scale(1,1)"><path fill="none" stroke="#000000" d="M 960 277 L 960 290 L 825 290" stroke-miterlimit="10"/></g><g transform="translate(-390,-94) scale(1,1)"><path fill="#000000" stroke="none" d="M 835.1626748576241 285.790482243984 L 825 290 L 835.1626748576241 294.209517756016 L 847 290"/></g><g transform="translate(-390,-94) scale(1,1)"><path fill="none" stroke="#000000" d="M 835.1626748576241 285.790482243984 L 825 290 L 835.1626748576241 294.209517756016 L 847 290 L 835.1626748576241 285.790482243984" stroke-miterlimit="10"/></g><g transform="translate(-390,-94) scale(1,1)"><path fill="none" stroke="#ff0000" d="M 928 261 L 840 261 L 840 256 L 576 256 L 576 280 L 552 280 L 552 283 L 535 283" stroke-miterlimit="10" stroke-dasharray="3"/></g><g transform="translate(-390,-94) scale(1,1)"><path fill="none" stroke="#ff0000" d="M 545.1626748576241 278.790482243984 L 535 283 L 545.1626748576241 287.209517756016" stroke-miterlimit="10"/></g><g transform="translate(-390,-94) scale(1,1)"><rect fill="#C0C0C0" stroke="none" x="407" y="367" width="137.578125" height="37" opacity="0.2"/></g><g transform="translate(-390,-94) scale(1,1)"><rect fill="#ffffff" stroke="none" x="400" y="360" width="137.578125" height="37"/></g><g transform="translate(-390,-94) scale(1,1)"><path fill="none" stroke="#000000" d="M 400 360 L 537.578125 360 L 537.578125 397 L 400 397 L 400 360 Z Z" stroke-miterlimit="10"/></g><g transform="translate(-390,-94) scale(1,1)"><g><path fill="none" stroke="none"/><text fill="#000000" stroke="none" font-family="Arial" font-size="13px" font-style="normal" font-weight="normal" text-decoration="none" x="438.79638671875" y="377.5">«Handler»</text></g></g><g transform="translate(-390,-94) scale(1,1)"><g><path fill="none" stroke="none"/><text fill="#000000" stroke="none" font-family="Arial" font-size="13px" font-style="italic" font-weight="bold" text-decoration="none" x="409.543212890625" y="392.5">AbstractGrdfHandler</text></g></g><g transform="translate(-390,-94) scale(1,1)"><path fill="none" stroke="#000000" d="M 467 360 L 467 317" stroke-miterlimit="10"/></g><g transform="translate(-390,-94) scale(1,1)"><path fill="#FFFFFF" stroke="none" d="M 475.419035512032 337.3253497152483 L 467 317 L 458.580964487968 337.3253497152483"/></g><g transform="translate(-390,-94) scale(1,1)"><path fill="none" stroke="#000000" d="M 475.419035512032 337.3253497152483 L 467 317 L 458.580964487968 337.3253497152483 L 475.419035512032 337.3253497152483" stroke-miterlimit="10"/></g><g transform="translate(-390,-94) scale(1,1)"><path fill="none" stroke="#ee0808" d="M 664 325 L 664 378 L 538 378" stroke-miterlimit="10" stroke-dasharray="3"/></g><g transform="translate(-390,-94) scale(1,1)"><path fill="none" stroke="#ee0808" d="M 548.1626748576241 373.790482243984 L 538 378 L 548.1626748576241 382.209517756016" stroke-miterlimit="10"/></g><g transform="translate(-390,-94) scale(1,1)"><rect fill="#C0C0C0" stroke="none" x="599" y="367" width="112.29541015625" height="37" opacity="0.2"/></g><g transform="translate(-390,-94) scale(1,1)"><rect fill="#ffffff" stroke="none" x="592" y="360" width="112.29541015625" height="37"/></g><g transform="translate(-390,-94) scale(1,1)"><path fill="none" stroke="#000000" d="M 592 360 L 704.29541015625 360 L 704.29541015625 397 L 592 397 L 592 360 Z Z" stroke-miterlimit="10"/></g><g transform="translate(-390,-94) scale(1,1)"><g><path fill="none" stroke="none"/><text fill="#000000" stroke="none" font-family="Arial" font-size="13px" font-style="normal" font-weight="normal" text-decoration="none" x="618.155029296875" y="377.5">«Handler»</text></g></g><g transform="translate(-390,-94) scale(1,1)"><g><path fill="none" stroke="none"/><text fill="#000000" stroke="none" font-family="Arial" font-size="13px" font-style="normal" font-weight="bold" text-decoration="none" x="599.619873046875" y="392.5">GrdfTrueHandler</text></g></g><g transform="translate(-390,-94) scale(1,1)"><path fill="none" stroke="#000000" d="M 592 378 L 538 378" stroke-miterlimit="10"/></g><g transform="translate(-390,-94) scale(1,1)"><path fill="#FFFFFF" stroke="none" d="M 558.3253497152483 369.580964487968 L 538 378 L 558.3253497152483 386.419035512032"/></g><g transform="translate(-390,-94) scale(1,1)"><path fill="none" stroke="#000000" d="M 558.3253497152483 369.580964487968 L 538 378 L 558.3253497152483 386.419035512032 L 558.3253497152483 369.580964487968" stroke-miterlimit="10"/></g><g transform="translate(-390,-94) scale(1,1)"><path fill="none" stroke="#000000" d="M 616 360 L 616 272 L 815 272 L 815 237" stroke-miterlimit="10"/></g><g transform="translate(-390,-94) scale(1,1)"><path fill="none" stroke="#000000" d="M 819.209517756016 247.16267485762415 L 815 237 L 810.790482243984 247.16267485762415" stroke-miterlimit="10"/></g><g transform="translate(-390,-94) scale(1,1)"><g><path fill="none" stroke="none"/><text fill="#000000" stroke="none" font-family="Arial" font-size="13px" font-style="normal" font-weight="normal" text-decoration="none" x="785.5" y="404.5">-dpsErrorService</text></g></g><g transform="translate(-390,-94) scale(1,1)"><rect fill="#C0C0C0" stroke="none" x="751" y="367" width="113.7236328125" height="37" opacity="0.2"/></g><g transform="translate(-390,-94) scale(1,1)"><rect fill="#ffffff" stroke="none" x="744" y="360" width="113.7236328125" height="37"/></g><g transform="translate(-390,-94) scale(1,1)"><path fill="none" stroke="#000000" d="M 744 360 L 857.7236328125 360 L 857.7236328125 397 L 744 397 L 744 360 Z Z" stroke-miterlimit="10"/></g><g transform="translate(-390,-94) scale(1,1)"><g><path fill="none" stroke="none"/><text fill="#000000" stroke="none" font-family="Arial" font-size="13px" font-style="normal" font-weight="normal" text-decoration="none" x="770.869140625" y="377.5">«Handler»</text></g></g><g transform="translate(-390,-94) scale(1,1)"><g><path fill="none" stroke="none"/><text fill="#000000" stroke="none" font-family="Arial" font-size="13px" font-style="normal" font-weight="bold" text-decoration="none" x="752.08642578125" y="392.5">GrdfStubHandler</text></g></g><g transform="translate(-390,-94) scale(1,1)"><path fill="none" stroke="#000000" d="M 779 397 L 779 424 L 519 424 L 519 397" stroke-miterlimit="10"/></g><g transform="translate(-390,-94) scale(1,1)"><path fill="#FFFFFF" stroke="none" d="M 527.419035512032 417.3253497152483 L 519 397 L 510.580964487968 417.3253497152483"/></g><g transform="translate(-390,-94) scale(1,1)"><path fill="none" stroke="#000000" d="M 527.419035512032 417.3253497152483 L 519 397 L 510.580964487968 417.3253497152483 L 527.419035512032 417.3253497152483" stroke-miterlimit="10"/></g><g transform="translate(-390,-94) scale(1,1)"><rect fill="#C0C0C0" stroke="none" x="575" y="439" width="171.53173828125" height="37" opacity="0.2"/></g><g transform="translate(-390,-94) scale(1,1)"><rect fill="#ffffff" stroke="none" x="568" y="432" width="171.53173828125" height="37"/></g><g transform="translate(-390,-94) scale(1,1)"><path fill="none" stroke="#000000" d="M 568 432 L 739.53173828125 432 L 739.53173828125 469 L 568 469 L 568 432 Z Z" stroke-miterlimit="10"/></g><g transform="translate(-390,-94) scale(1,1)"><g><path fill="none" stroke="none"/><text fill="#000000" stroke="none" font-family="Arial" font-size="13px" font-style="normal" font-weight="normal" text-decoration="none" x="624.86181640625" y="449.5">«Service»</text></g></g><g transform="translate(-390,-94) scale(1,1)"><g><path fill="none" stroke="none"/><text fill="#000000" stroke="none" font-family="Arial" font-size="13px" font-style="normal" font-weight="bold" text-decoration="none" x="577.898681640625" y="464.5">RequestMpControlService</text></g></g><g transform="translate(-390,-94) scale(1,1)"><path fill="none" stroke="#f70505" d="M 960 277 L 960 436 L 740 436" stroke-miterlimit="10"/></g><g transform="translate(-390,-94) scale(1,1)"><path fill="#f70505" stroke="none" d="M 750.1626748576241 431.790482243984 L 740 436 L 750.1626748576241 440.209517756016 L 762 436"/></g><g transform="translate(-390,-94) scale(1,1)"><path fill="none" stroke="#f70505" d="M 750.1626748576241 431.790482243984 L 740 436 L 750.1626748576241 440.209517756016 L 762 436 L 750.1626748576241 431.790482243984" stroke-miterlimit="10"/></g><g transform="translate(-390,-94) scale(1,1)"><path fill="none" stroke="#fc0404" d="M 720 325 L 720 432" stroke-miterlimit="10"/></g><g transform="translate(-390,-94) scale(1,1)"><path fill="#fc0404" stroke="none" d="M 715.790482243984 421.83732514237585 L 720 432 L 724.209517756016 421.83732514237585 L 720 410"/></g><g transform="translate(-390,-94) scale(1,1)"><path fill="none" stroke="#fc0404" d="M 715.790482243984 421.83732514237585 L 720 432 L 724.209517756016 421.83732514237585 L 720 410 L 715.790482243984 421.83732514237585" stroke-miterlimit="10"/></g><g transform="translate(-390,-94) scale(1,1)"><rect fill="#C0C0C0" stroke="none" x="807" y="455" width="125.32080078125" height="37" opacity="0.2"/></g><g transform="translate(-390,-94) scale(1,1)"><rect fill="#ffffff" stroke="none" x="800" y="448" width="125.32080078125" height="37"/></g><g transform="translate(-390,-94) scale(1,1)"><path fill="none" stroke="#000000" d="M 800 448 L 925.32080078125 448 L 925.32080078125 485 L 800 485 L 800 448 Z Z" stroke-miterlimit="10"/></g><g transform="translate(-390,-94) scale(1,1)"><g><path fill="none" stroke="none"/><text fill="#000000" stroke="none" font-family="Arial" font-size="13px" font-style="normal" font-weight="normal" text-decoration="none" x="833.75634765625" y="465.5">«Service»</text></g></g><g transform="translate(-390,-94) scale(1,1)"><g><path fill="none" stroke="none"/><text fill="#000000" stroke="none" font-family="Arial" font-size="13px" font-style="normal" font-weight="bold" text-decoration="none" x="807.746826171875" y="480.5">RequestMpService</text></g></g><g transform="translate(-390,-94) scale(1,1)"><path fill="none" stroke="#000000" d="M 800 451 L 740 451" stroke-miterlimit="10"/></g><g transform="translate(-390,-94) scale(1,1)"><path fill="none" stroke="#000000" d="M 750.1626748576241 446.790482243984 L 740 451 L 750.1626748576241 455.209517756016" stroke-miterlimit="10"/></g><g transform="translate(-390,-94) scale(1,1)"><g><path fill="none" stroke="none"/><text fill="#000000" stroke="none" font-family="Arial" font-size="13px" font-style="normal" font-weight="normal" text-decoration="none" x="644.5" y="540.5">~requestMpControlService</text></g></g><g transform="translate(-390,-94) scale(1,1)"><rect fill="#C0C0C0" stroke="none" x="655" y="519" width="146.9599609375" height="37" opacity="0.2"/></g><g transform="translate(-390,-94) scale(1,1)"><rect fill="#ffffff" stroke="none" x="648" y="512" width="146.9599609375" height="37"/></g><g transform="translate(-390,-94) scale(1,1)"><path fill="none" stroke="#000000" d="M 648 512 L 794.9599609375 512 L 794.9599609375 549 L 648 549 L 648 512 Z Z" stroke-miterlimit="10"/></g><g transform="translate(-390,-94) scale(1,1)"><g><path fill="none" stroke="none"/><text fill="#000000" stroke="none" font-family="Arial" font-size="13px" font-style="normal" font-weight="normal" text-decoration="none" x="683.181396484375" y="529.5">«Repository»</text></g></g><g transform="translate(-390,-94) scale(1,1)"><g><path fill="none" stroke="none"/><text fill="#000000" stroke="none" font-family="Arial" font-size="13px" font-style="normal" font-weight="bold" text-decoration="none" x="657.171875" y="544.5">RequestMpRepository</text></g></g><g transform="translate(-390,-94) scale(1,1)"><path fill="none" stroke="#000000" d="M 648 520 L 528 520 L 528 504 L 478 504 L 478 397" stroke-miterlimit="10"/></g><g transform="translate(-390,-94) scale(1,1)"><path fill="#000000" stroke="none" d="M 482.209517756016 407.16267485762415 L 478 397 L 473.790482243984 407.16267485762415 L 478 419"/></g><g transform="translate(-390,-94) scale(1,1)"><path fill="none" stroke="#000000" d="M 482.209517756016 407.16267485762415 L 478 397 L 473.790482243984 407.16267485762415 L 478 419 L 482.209517756016 407.16267485762415" stroke-miterlimit="10"/></g><g transform="translate(-390,-94) scale(1,1)"><path fill="none" stroke="#000000" d="M 795 527 L 944 527 L 944 344 L 734 344 L 734 325" stroke-miterlimit="10"/></g><g transform="translate(-390,-94) scale(1,1)"><path fill="#000000" stroke="none" d="M 738.209517756016 335.16267485762415 L 734 325 L 729.790482243984 335.16267485762415 L 734 347"/></g><g transform="translate(-390,-94) scale(1,1)"><path fill="none" stroke="#000000" d="M 738.209517756016 335.16267485762415 L 734 325 L 729.790482243984 335.16267485762415 L 734 347 L 738.209517756016 335.16267485762415" stroke-miterlimit="10"/></g><g transform="translate(-390,-94) scale(1,1)"><path fill="none" stroke="#000000" d="M 670 512 L 670 469" stroke-miterlimit="10"/></g><g transform="translate(-390,-94) scale(1,1)"><path fill="#000000" stroke="none" d="M 674.209517756016 479.16267485762415 L 670 469 L 665.790482243984 479.16267485762415 L 670 491"/></g><g transform="translate(-390,-94) scale(1,1)"><path fill="none" stroke="#000000" d="M 674.209517756016 479.16267485762415 L 670 469 L 665.790482243984 479.16267485762415 L 670 491 L 674.209517756016 479.16267485762415" stroke-miterlimit="10"/></g><g transform="translate(-390,-94) scale(1,1)"><path fill="none" stroke="#000000" d="M 839 121 L 912 121 L 912 232 L 904 232 L 904 306 L 825 306" stroke-miterlimit="10" stroke-dasharray="3"/></g><g transform="translate(-390,-94) scale(1,1)"><path fill="none" stroke="#000000" d="M 835.1626748576241 301.790482243984 L 825 306 L 835.1626748576241 310.209517756016" stroke-miterlimit="10"/></g></g></svg>