<svg version="1.1" xmlns="http://www.w3.org/2000/svg" xmlns:xlink="http://www.w3.org/1999/xlink" width="554.83984375" height="65"><defs/><g><g transform="translate(-958,-494) scale(1,1)"><rect fill="#C0C0C0" stroke="none" x="975" y="519" width="131.8525390625" height="37" opacity="0.2"/></g><g transform="translate(-958,-494) scale(1,1)"><rect fill="#ffffff" stroke="none" x="968" y="512" width="131.8525390625" height="37"/></g><g transform="translate(-958,-494) scale(1,1)"><path fill="none" stroke="#000000" d="M 968 512 L 1099.8525390625 512 L 1099.8525390625 549 L 968 549 L 968 512 Z Z" stroke-miterlimit="10"/></g><g transform="translate(-958,-494) scale(1,1)"><g><path fill="none" stroke="none"/><text fill="#000000" stroke="none" font-family="Arial" font-size="13px" font-style="normal" font-weight="normal" text-decoration="none" x="1005.022216796875" y="529.5">«Service»</text></g></g><g transform="translate(-958,-494) scale(1,1)"><g><path fill="none" stroke="none"/><text fill="#000000" stroke="none" font-family="Arial" font-size="13px" font-style="normal" font-weight="bold" text-decoration="none" x="975.7626953125" y="544.5">MessageProService</text></g></g><g transform="translate(-958,-494) scale(1,1)"><rect fill="#C0C0C0" stroke="none" x="1191" y="511" width="111.60986328125" height="37" opacity="0.2"/></g><g transform="translate(-958,-494) scale(1,1)"><rect fill="#ffffff" stroke="none" x="1184" y="504" width="111.60986328125" height="37"/></g><g transform="translate(-958,-494) scale(1,1)"><path fill="none" stroke="#000000" d="M 1184 504 L 1295.60986328125 504 L 1295.60986328125 541 L 1184 541 L 1184 504 Z Z" stroke-miterlimit="10"/></g><g transform="translate(-958,-494) scale(1,1)"><g><path fill="none" stroke="none"/><text fill="#000000" stroke="none" font-family="Arial" font-size="13px" font-style="normal" font-weight="normal" text-decoration="none" x="1210.90087890625" y="521.5">«Service»</text></g></g><g transform="translate(-958,-494) scale(1,1)"><g><path fill="none" stroke="none"/><text fill="#000000" stroke="none" font-family="Arial" font-size="13px" font-style="normal" font-weight="bold" text-decoration="none" x="1192.127685546875" y="536.5">DpsErrorService</text></g></g><g transform="translate(-958,-494) scale(1,1)"><path fill="none" stroke="#000000" d="M 1101 527 L 1183 524" stroke-miterlimit="10"/></g><g transform="translate(-958,-494) scale(1,1)"><path fill="#000000" stroke="none" d="M 1172.9980234189504 528.5782599830217 L 1183 524 L 1172.6902158542412 520.1648532143006 L 1161.0147086150973 524.804339928716"/></g><g transform="translate(-958,-494) scale(1,1)"><path fill="none" stroke="#000000" d="M 1172.9980234189504 528.5782599830217 L 1183 524 L 1172.6902158542412 520.1648532143006 L 1161.0147086150973 524.804339928716 L 1172.9980234189504 528.5782599830217" stroke-miterlimit="10"/></g><g transform="translate(-958,-494) scale(1,1)"><rect fill="#C0C0C0" stroke="none" x="1391" y="511" width="118.83984375" height="37" opacity="0.2"/></g><g transform="translate(-958,-494) scale(1,1)"><rect fill="#ffffff" stroke="none" x="1384" y="504" width="118.83984375" height="37"/></g><g transform="translate(-958,-494) scale(1,1)"><path fill="none" stroke="#000000" d="M 1384 504 L 1502.83984375 504 L 1502.83984375 541 L 1384 541 L 1384 504 Z Z" stroke-miterlimit="10"/></g><g transform="translate(-958,-494) scale(1,1)"><g><path fill="none" stroke="none"/><text fill="#000000" stroke="none" font-family="Arial" font-size="13px" font-style="normal" font-weight="normal" text-decoration="none" x="1408.0126953125" y="521.5">«Controller»</text></g></g><g transform="translate(-958,-494) scale(1,1)"><g><path fill="none" stroke="none"/><text fill="#000000" stroke="none" font-family="Arial" font-size="13px" font-style="normal" font-weight="bold" text-decoration="none" x="1390.686767578125" y="536.5">UserRESTService</text></g></g><g transform="translate(-958,-494) scale(1,1)"><path fill="none" stroke="#000000" d="M 1383 522 L 1297 522" stroke-miterlimit="10" stroke-dasharray="3"/></g><g transform="translate(-958,-494) scale(1,1)"><path fill="none" stroke="#000000" d="M 1307.162674857624 517.790482243984 L 1297 522 L 1307.162674857624 526.209517756016" stroke-miterlimit="10"/></g></g></svg>