<svg version="1.1" xmlns="http://www.w3.org/2000/svg" xmlns:xlink="http://www.w3.org/1999/xlink" width="251.287109375" height="311"><defs/><g><g transform="translate(-1611,-629) scale(1,1)"><rect fill="#C0C0C0" stroke="none" x="1628" y="646" width="231.287109375" height="120" opacity="0.2"/></g><g transform="translate(-1611,-629) scale(1,1)"><rect fill="#ffffff" stroke="none" x="1621" y="639" width="231.287109375" height="120"/></g><g transform="translate(-1611,-629) scale(1,1)"><path fill="none" stroke="#000000" d="M 1621 639 L 1852.287109375 639 L 1852.287109375 759 L 1621 759 L 1621 639 Z Z" stroke-miterlimit="10"/></g><g transform="translate(-1611,-629) scale(1,1)"><path fill="none" stroke="#000000" d="M 1621 662 L 1852.287109375 662" stroke-miterlimit="10"/></g><g transform="translate(-1611,-629) scale(1,1)"><path fill="none" stroke="#000000" d="M 1649.05908203125 662 L 1649.05908203125 759" stroke-miterlimit="10"/></g><g transform="translate(-1611,-629) scale(1,1)"><path fill="none" stroke="#000000" d="M 1793.45166015625 662 L 1793.45166015625 759" stroke-miterlimit="10"/></g><g transform="translate(-1611,-629) scale(1,1)"><g><path fill="none" stroke="none"/><text fill="#000000" stroke="none" font-family="Arial" font-size="13px" font-style="normal" font-weight="bold" text-decoration="none" x="1672.694091796875" y="656.5">data_provider_system</text></g></g><g transform="translate(-1611,-629) scale(1,1)"><g><path fill="none" stroke="none"/><text fill="#000000" stroke="none" font-family="Arial" font-size="13px" font-style="normal" font-weight="normal" text-decoration="none" x="1626" y="680">PK</text></g></g><g transform="translate(-1611,-629) scale(1,1)"><g><path fill="none" stroke="none"/><text fill="#000000" stroke="none" font-family="Arial" font-size="13px" font-style="normal" font-weight="normal" text-decoration="none" x="1654.05908203125" y="680">id_dps</text></g></g><g transform="translate(-1611,-629) scale(1,1)"><g><path fill="none" stroke="none"/><text fill="#000000" stroke="none" font-family="Arial" font-size="13px" font-style="normal" font-weight="normal" text-decoration="none" x="1798.45166015625" y="680">text</text></g></g><g transform="translate(-1611,-629) scale(1,1)"><g><path fill="none" stroke="none"/><text fill="#000000" stroke="none" font-family="Arial" font-size="13px" font-style="normal" font-weight="normal" text-decoration="none" x="1626" y="679.5"></text></g></g><g transform="translate(-1611,-629) scale(1,1)"><g><path fill="none" stroke="none"/><text fill="#000000" stroke="none" font-family="Arial" font-size="13px" font-style="normal" font-weight="normal" text-decoration="none" x="1626" y="695"></text></g></g><g transform="translate(-1611,-629) scale(1,1)"><g><path fill="none" stroke="none"/><text fill="#000000" stroke="none" font-family="Arial" font-size="13px" font-style="normal" font-weight="normal" text-decoration="none" x="1654.05908203125" y="695">dps_name</text></g></g><g transform="translate(-1611,-629) scale(1,1)"><g><path fill="none" stroke="none"/><text fill="#000000" stroke="none" font-family="Arial" font-size="13px" font-style="normal" font-weight="normal" text-decoration="none" x="1798.45166015625" y="695">text</text></g></g><g transform="translate(-1611,-629) scale(1,1)"><g><path fill="none" stroke="none"/><text fill="#000000" stroke="none" font-family="Arial" font-size="13px" font-style="normal" font-weight="normal" text-decoration="none" x="1626" y="694.5"></text></g></g><g transform="translate(-1611,-629) scale(1,1)"><g><path fill="none" stroke="none"/><text fill="#000000" stroke="none" font-family="Arial" font-size="13px" font-style="normal" font-weight="normal" text-decoration="none" x="1626" y="710"></text></g></g><g transform="translate(-1611,-629) scale(1,1)"><g><path fill="none" stroke="none"/><text fill="#000000" stroke="none" font-family="Arial" font-size="13px" font-style="normal" font-weight="normal" text-decoration="none" x="1654.05908203125" y="710">dps_desc</text></g></g><g transform="translate(-1611,-629) scale(1,1)"><g><path fill="none" stroke="none"/><text fill="#000000" stroke="none" font-family="Arial" font-size="13px" font-style="normal" font-weight="normal" text-decoration="none" x="1798.45166015625" y="710">text</text></g></g><g transform="translate(-1611,-629) scale(1,1)"><g><path fill="none" stroke="none"/><text fill="#000000" stroke="none" font-family="Arial" font-size="13px" font-style="normal" font-weight="normal" text-decoration="none" x="1626" y="709.5"></text></g></g><g transform="translate(-1611,-629) scale(1,1)"><g><path fill="none" stroke="none"/><text fill="#000000" stroke="none" font-family="Arial" font-size="13px" font-style="normal" font-weight="normal" text-decoration="none" x="1626" y="725"></text></g></g><g transform="translate(-1611,-629) scale(1,1)"><g><path fill="none" stroke="none"/><text fill="#000000" stroke="none" font-family="Arial" font-size="13px" font-style="normal" font-weight="normal" text-decoration="none" x="1654.05908203125" y="725">dps_data_retreive</text></g></g><g transform="translate(-1611,-629) scale(1,1)"><g><path fill="none" stroke="none"/><text fill="#000000" stroke="none" font-family="Arial" font-size="13px" font-style="normal" font-weight="normal" text-decoration="none" x="1798.45166015625" y="725">boolean</text></g></g><g transform="translate(-1611,-629) scale(1,1)"><g><path fill="none" stroke="none"/><text fill="#000000" stroke="none" font-family="Arial" font-size="13px" font-style="normal" font-weight="normal" text-decoration="none" x="1626" y="724.5"></text></g></g><g transform="translate(-1611,-629) scale(1,1)"><g><path fill="none" stroke="none"/><text fill="#000000" stroke="none" font-family="Arial" font-size="13px" font-style="normal" font-weight="normal" text-decoration="none" x="1626" y="740"></text></g></g><g transform="translate(-1611,-629) scale(1,1)"><g><path fill="none" stroke="none"/><text fill="#000000" stroke="none" font-family="Arial" font-size="13px" font-style="normal" font-weight="normal" text-decoration="none" x="1654.05908203125" y="740">dps_meter_subscribe</text></g></g><g transform="translate(-1611,-629) scale(1,1)"><g><path fill="none" stroke="none"/><text fill="#000000" stroke="none" font-family="Arial" font-size="13px" font-style="normal" font-weight="normal" text-decoration="none" x="1798.45166015625" y="740">boolean</text></g></g><g transform="translate(-1611,-629) scale(1,1)"><g><path fill="none" stroke="none"/><text fill="#000000" stroke="none" font-family="Arial" font-size="13px" font-style="normal" font-weight="normal" text-decoration="none" x="1626" y="739.5"></text></g></g><g transform="translate(-1611,-629) scale(1,1)"><g><path fill="none" stroke="none"/><text fill="#000000" stroke="none" font-family="Arial" font-size="13px" font-style="normal" font-weight="normal" text-decoration="none" x="1626" y="755"></text></g></g><g transform="translate(-1611,-629) scale(1,1)"><g><path fill="none" stroke="none"/><text fill="#000000" stroke="none" font-family="Arial" font-size="13px" font-style="normal" font-weight="normal" text-decoration="none" x="1654.05908203125" y="755">dps_pcs_inside</text></g></g><g transform="translate(-1611,-629) scale(1,1)"><g><path fill="none" stroke="none"/><text fill="#000000" stroke="none" font-family="Arial" font-size="13px" font-style="normal" font-weight="normal" text-decoration="none" x="1798.45166015625" y="755">boolean</text></g></g><g transform="translate(-1611,-629) scale(1,1)"><g><path fill="none" stroke="none"/><text fill="#000000" stroke="none" font-family="Arial" font-size="13px" font-style="normal" font-weight="normal" text-decoration="none" x="1626" y="754.5"></text></g></g><g transform="translate(-1611,-629) scale(1,1)"><rect fill="#C0C0C0" stroke="none" x="1687" y="847" width="171.3271484375" height="90" opacity="0.2"/></g><g transform="translate(-1611,-629) scale(1,1)"><rect fill="#ffffff" stroke="none" x="1680" y="840" width="171.3271484375" height="90"/></g><g transform="translate(-1611,-629) scale(1,1)"><path fill="none" stroke="#000000" d="M 1680 840 L 1851.3271484375 840 L 1851.3271484375 930 L 1680 930 L 1680 840 Z Z" stroke-miterlimit="10"/></g><g transform="translate(-1611,-629) scale(1,1)"><path fill="none" stroke="#000000" d="M 1680 863 L 1851.3271484375 863" stroke-miterlimit="10"/></g><g transform="translate(-1611,-629) scale(1,1)"><path fill="none" stroke="#000000" d="M 1708.05908203125 863 L 1708.05908203125 930" stroke-miterlimit="10"/></g><g transform="translate(-1611,-629) scale(1,1)"><path fill="none" stroke="#000000" d="M 1819.208984375 863 L 1819.208984375 930" stroke-miterlimit="10"/></g><g transform="translate(-1611,-629) scale(1,1)"><g><path fill="none" stroke="none"/><text fill="#000000" stroke="none" font-family="Arial" font-size="13px" font-style="normal" font-weight="bold" text-decoration="none" x="1720.135009765625" y="857.5">dps_error_code</text></g></g><g transform="translate(-1611,-629) scale(1,1)"><g><path fill="none" stroke="none"/><text fill="#000000" stroke="none" font-family="Arial" font-size="13px" font-style="normal" font-weight="normal" text-decoration="none" x="1685" y="881">PK</text></g></g><g transform="translate(-1611,-629) scale(1,1)"><g><path fill="none" stroke="none"/><text fill="#000000" stroke="none" font-family="Arial" font-size="13px" font-style="normal" font-weight="normal" text-decoration="none" x="1713.05908203125" y="881">id_dps</text></g></g><g transform="translate(-1611,-629) scale(1,1)"><g><path fill="none" stroke="none"/><text fill="#000000" stroke="none" font-family="Arial" font-size="13px" font-style="normal" font-weight="normal" text-decoration="none" x="1824.208984375" y="881">text</text></g></g><g transform="translate(-1611,-629) scale(1,1)"><g><path fill="none" stroke="none"/><text fill="#000000" stroke="none" font-family="Arial" font-size="13px" font-style="normal" font-weight="normal" text-decoration="none" x="1685" y="880.5"></text></g></g><g transform="translate(-1611,-629) scale(1,1)"><g><path fill="none" stroke="none"/><text fill="#000000" stroke="none" font-family="Arial" font-size="13px" font-style="normal" font-weight="normal" text-decoration="none" x="1685" y="896">PK</text></g></g><g transform="translate(-1611,-629) scale(1,1)"><g><path fill="none" stroke="none"/><text fill="#000000" stroke="none" font-family="Arial" font-size="13px" font-style="normal" font-weight="normal" text-decoration="none" x="1713.05908203125" y="896">dec_desc</text></g></g><g transform="translate(-1611,-629) scale(1,1)"><g><path fill="none" stroke="none"/><text fill="#000000" stroke="none" font-family="Arial" font-size="13px" font-style="normal" font-weight="normal" text-decoration="none" x="1824.208984375" y="896">text</text></g></g><g transform="translate(-1611,-629) scale(1,1)"><g><path fill="none" stroke="none"/><text fill="#000000" stroke="none" font-family="Arial" font-size="13px" font-style="normal" font-weight="normal" text-decoration="none" x="1685" y="895.5"></text></g></g><g transform="translate(-1611,-629) scale(1,1)"><g><path fill="none" stroke="none"/><text fill="#000000" stroke="none" font-family="Arial" font-size="13px" font-style="normal" font-weight="normal" text-decoration="none" x="1685" y="911">PK</text></g></g><g transform="translate(-1611,-629) scale(1,1)"><g><path fill="none" stroke="none"/><text fill="#000000" stroke="none" font-family="Arial" font-size="13px" font-style="normal" font-weight="normal" text-decoration="none" x="1713.05908203125" y="911">dec_http_code</text></g></g><g transform="translate(-1611,-629) scale(1,1)"><g><path fill="none" stroke="none"/><text fill="#000000" stroke="none" font-family="Arial" font-size="13px" font-style="normal" font-weight="normal" text-decoration="none" x="1824.208984375" y="911">text</text></g></g><g transform="translate(-1611,-629) scale(1,1)"><g><path fill="none" stroke="none"/><text fill="#000000" stroke="none" font-family="Arial" font-size="13px" font-style="normal" font-weight="normal" text-decoration="none" x="1685" y="910.5"></text></g></g><g transform="translate(-1611,-629) scale(1,1)"><g><path fill="none" stroke="none"/><text fill="#000000" stroke="none" font-family="Arial" font-size="13px" font-style="normal" font-weight="normal" text-decoration="none" x="1685" y="926"></text></g></g><g transform="translate(-1611,-629) scale(1,1)"><g><path fill="none" stroke="none"/><text fill="#000000" stroke="none" font-family="Arial" font-size="13px" font-style="normal" font-weight="normal" text-decoration="none" x="1713.05908203125" y="926">dec_return_type</text></g></g><g transform="translate(-1611,-629) scale(1,1)"><g><path fill="none" stroke="none"/><text fill="#000000" stroke="none" font-family="Arial" font-size="13px" font-style="normal" font-weight="normal" text-decoration="none" x="1824.208984375" y="926">text</text></g></g><g transform="translate(-1611,-629) scale(1,1)"><g><path fill="none" stroke="none"/><text fill="#000000" stroke="none" font-family="Arial" font-size="13px" font-style="normal" font-weight="normal" text-decoration="none" x="1685" y="925.5"></text></g></g><g transform="translate(-1611,-629) scale(1,1)"><path fill="none" stroke="#000000" d="M 1755 759 L 1755 840" stroke-miterlimit="10"/></g><g transform="translate(-1611,-629) scale(1,1)"><path fill="none" stroke="#000000" d="M 1755 826 L 1748 840" stroke-miterlimit="10"/></g><g transform="translate(-1611,-629) scale(1,1)"><path fill="none" stroke="#000000" d="M 1755 826 L 1762 840" stroke-miterlimit="10"/></g><g transform="translate(-1611,-629) scale(1,1)"><path fill="#FFFFFF" stroke="none" d="M 1748 818 C 1748 814.1340064 1751.1340064 811 1755 811 C 1758.8659936 811 1762 814.1340064 1762 818 C 1762 821.8659936 1758.8659936 825 1755 825 C 1751.1340064 825 1748 821.8659936 1748 818 Z"/></g><g transform="translate(-1611,-629) scale(1,1)"><path fill="none" stroke="#000000" d="M 1748 818 C 1748 814.1340064 1751.1340064 811 1755 811 C 1758.8659936 811 1762 814.1340064 1762 818 C 1762 821.8659936 1758.8659936 825 1755 825 C 1751.1340064 825 1748 821.8659936 1748 818 Z" stroke-miterlimit="10"/></g><g transform="translate(-1611,-629) scale(1,1)"><path fill="none" stroke="#000000" d="M 1762 766 L 1748 766" stroke-miterlimit="10"/></g><g transform="translate(-1611,-629) scale(1,1)"><path fill="none" stroke="#000000" d="M 1762 773 L 1748 773" stroke-miterlimit="10"/></g><g transform="translate(-1611,-629) scale(1,1)"><g><path fill="none" stroke="none"/><text fill="#000000" stroke="none" font-family="Arial" font-size="13px" font-style="normal" font-weight="normal" text-decoration="none" x="1769.5" y="790.5"></text></g></g><g transform="translate(-1611,-629) scale(1,1)"><g><path fill="none" stroke="none"/><text fill="#000000" stroke="none" font-family="Arial" font-size="13px" font-style="normal" font-weight="normal" text-decoration="none" x="1769.5" y="820.5"></text></g></g></g></svg>