<svg version="1.1" xmlns="http://www.w3.org/2000/svg" xmlns:xlink="http://www.w3.org/1999/xlink" width="292.4853515625" height="77"><defs/><g><g transform="translate(-422,-358) scale(1,1)"><rect fill="#C0C0C0" stroke="none" x="439" y="375" width="131.8525390625" height="57" opacity="0.2"/></g><g transform="translate(-422,-358) scale(1,1)"><rect fill="#ffffff" stroke="none" x="432" y="368" width="131.8525390625" height="57"/></g><g transform="translate(-422,-358) scale(1,1)"><path fill="none" stroke="#000000" d="M 432 368 L 563.8525390625 368 L 563.8525390625 425 L 432 425 L 432 368 Z Z" stroke-miterlimit="10"/></g><g transform="translate(-422,-358) scale(1,1)"><path fill="none" stroke="#000000" d="M 432 406 L 563.8525390625 406" stroke-miterlimit="10"/></g><g transform="translate(-422,-358) scale(1,1)"><path fill="none" stroke="#000000" d="M 432 416 L 563.8525390625 416" stroke-miterlimit="10"/></g><g transform="translate(-422,-358) scale(1,1)"><g><path fill="none" stroke="none"/><text fill="#000000" stroke="none" font-family="Arial" font-size="13px" font-style="normal" font-weight="normal" text-decoration="none" x="464.32177734375" y="385.5">«Producer»</text></g></g><g transform="translate(-422,-358) scale(1,1)"><g><path fill="none" stroke="none"/><text fill="#000000" stroke="none" font-family="Arial" font-size="13px" font-style="normal" font-weight="bold" text-decoration="none" x="439.7626953125" y="400.5">MessageProService</text></g></g><g transform="translate(-422,-358) scale(1,1)"><rect fill="#C0C0C0" stroke="none" x="623" y="375" width="88.4853515625" height="57" opacity="0.2"/></g><g transform="translate(-422,-358) scale(1,1)"><rect fill="#ffffff" stroke="none" x="616" y="368" width="88.4853515625" height="57"/></g><g transform="translate(-422,-358) scale(1,1)"><path fill="none" stroke="#000000" d="M 616 368 L 704.4853515625 368 L 704.4853515625 425 L 616 425 L 616 368 Z Z" stroke-miterlimit="10"/></g><g transform="translate(-422,-358) scale(1,1)"><path fill="none" stroke="#000000" d="M 616 406 L 704.4853515625 406" stroke-miterlimit="10"/></g><g transform="translate(-422,-358) scale(1,1)"><path fill="none" stroke="#000000" d="M 616 416 L 704.4853515625 416" stroke-miterlimit="10"/></g><g transform="translate(-422,-358) scale(1,1)"><g><path fill="none" stroke="none"/><text fill="#000000" stroke="none" font-family="Arial" font-size="13px" font-style="normal" font-weight="normal" text-decoration="none" x="626.63818359375" y="385.5">«Producer»</text></g></g><g transform="translate(-422,-358) scale(1,1)"><g><path fill="none" stroke="none"/><text fill="#000000" stroke="none" font-family="Arial" font-size="13px" font-style="normal" font-weight="bold" text-decoration="none" x="623.759521484375" y="400.5">ProfilService</text></g></g></g></svg>