<svg version="1.1" xmlns="http://www.w3.org/2000/svg" xmlns:xlink="http://www.w3.org/1999/xlink" width="968.009765625" height="614"><defs/><g><g transform="translate(-94,-38) scale(1,1)"><rect fill="#C0C0C0" stroke="none" x="447" y="55" width="44.60097656250002" height="15" opacity="0.2"/></g><g transform="translate(-94,-38) scale(1,1)"><rect fill="#C0C0C0" stroke="none" x="447" y="69" width="111.50244140625" height="44" opacity="0.2"/></g><g transform="translate(-94,-38) scale(1,1)"><rect fill="#ffffff" stroke="none" x="440" y="63" width="111.50244140625" height="43"/></g><g transform="translate(-94,-38) scale(1,1)"><path fill="none" stroke="#000000" d="M 440 63 L 551.50244140625 63 L 551.50244140625 106 L 440 106 L 440 63 Z Z" stroke-miterlimit="10"/></g><g transform="translate(-94,-38) scale(1,1)"><rect fill="#ffffff" stroke="none" x="440" y="48" width="44.60097656250002" height="15"/></g><g transform="translate(-94,-38) scale(1,1)"><path fill="none" stroke="#000000" d="M 440 48 L 484.6009765625 48 L 484.6009765625 63 L 440 63 L 440 48 Z Z" stroke-miterlimit="10"/></g><g transform="translate(-94,-38) scale(1,1)"><rect fill="#ffffff" stroke="none" x="440" y="62" width="111.50244140625" height="44"/></g><g transform="translate(-94,-38) scale(1,1)"><path fill="none" stroke="#000000" d="M 440 62 L 551.50244140625 62 L 551.50244140625 106 L 440 106 L 440 62 Z Z" stroke-miterlimit="10"/></g><g transform="translate(-94,-38) scale(1,1)"><path fill="none" stroke="#000000" d="M 476.6009765625 51 L 476.6009765625 55" stroke-miterlimit="10"/></g><g transform="translate(-94,-38) scale(1,1)"><path fill="none" stroke="#000000" d="M 473.6009765625 59 L 473.6009765625 55 L 479.6009765625 55" stroke-miterlimit="10"/></g><g transform="translate(-94,-38) scale(1,1)"><path fill="none" stroke="#000000" d="M 479.6009765625 59 L 479.6009765625 55 L 473.6009765625 55" stroke-miterlimit="10"/></g><g transform="translate(-94,-38) scale(1,1)"><g><path fill="none" stroke="none"/><text fill="#000000" stroke="none" font-family="Arial" font-size="15px" font-style="normal" font-weight="bold" text-decoration="none" x="448.2353515625" y="84.5">MT-fabrication</text></g></g><g transform="translate(-94,-38) scale(1,1)"><g><path fill="none" stroke="none"/><text fill="#000000" stroke="none" font-family="Arial" font-size="15px" font-style="normal" font-weight="normal" text-decoration="none" x="445.338623046875" y="101.5">(from S2G-MT)</text></g></g><g transform="translate(-94,-38) scale(1,1)"><rect fill="#C0C0C0" stroke="none" x="111" y="183" width="76.9359375" height="15" opacity="0.2"/></g><g transform="translate(-94,-38) scale(1,1)"><rect fill="#C0C0C0" stroke="none" x="111" y="197" width="192.33984375" height="44" opacity="0.2"/></g><g transform="translate(-94,-38) scale(1,1)"><rect fill="#ffffff" stroke="none" x="104" y="191" width="192.33984375" height="43"/></g><g transform="translate(-94,-38) scale(1,1)"><path fill="none" stroke="#000000" d="M 104 191 L 296.33984375 191 L 296.33984375 234 L 104 234 L 104 191 Z Z" stroke-miterlimit="10"/></g><g transform="translate(-94,-38) scale(1,1)"><rect fill="#ffffff" stroke="none" x="104" y="176" width="76.9359375" height="15"/></g><g transform="translate(-94,-38) scale(1,1)"><path fill="none" stroke="#000000" d="M 104 176 L 180.9359375 176 L 180.9359375 191 L 104 191 L 104 176 Z Z" stroke-miterlimit="10"/></g><g transform="translate(-94,-38) scale(1,1)"><rect fill="#ffffff" stroke="none" x="104" y="190" width="192.33984375" height="44"/></g><g transform="translate(-94,-38) scale(1,1)"><path fill="none" stroke="#000000" d="M 104 190 L 296.33984375 190 L 296.33984375 234 L 104 234 L 104 190 Z Z" stroke-miterlimit="10"/></g><g transform="translate(-94,-38) scale(1,1)"><path fill="none" stroke="#000000" d="M 172.9359375 179 L 172.9359375 183" stroke-miterlimit="10"/></g><g transform="translate(-94,-38) scale(1,1)"><path fill="none" stroke="#000000" d="M 169.9359375 187 L 169.9359375 183 L 175.9359375 183" stroke-miterlimit="10"/></g><g transform="translate(-94,-38) scale(1,1)"><path fill="none" stroke="#000000" d="M 175.9359375 187 L 175.9359375 183 L 169.9359375 183" stroke-miterlimit="10"/></g><g transform="translate(-94,-38) scale(1,1)"><g><path fill="none" stroke="none"/><text fill="#000000" stroke="none" font-family="Arial" font-size="15px" font-style="normal" font-weight="bold" text-decoration="none" x="111.810546875" y="212.5">S2G-MT-ASGS-Connector</text></g></g><g transform="translate(-94,-38) scale(1,1)"><g><path fill="none" stroke="none"/><text fill="#000000" stroke="none" font-family="Arial" font-size="15px" font-style="normal" font-weight="normal" text-decoration="none" x="149.75732421875" y="229.5">(from S2G-MT)</text></g></g><g transform="translate(-94,-38) scale(1,1)"><rect fill="#C0C0C0" stroke="none" x="335" y="183" width="64.61953125000002" height="15" opacity="0.2"/></g><g transform="translate(-94,-38) scale(1,1)"><rect fill="#C0C0C0" stroke="none" x="335" y="197" width="161.548828125" height="44" opacity="0.2"/></g><g transform="translate(-94,-38) scale(1,1)"><rect fill="#ffffff" stroke="none" x="328" y="191" width="161.548828125" height="43"/></g><g transform="translate(-94,-38) scale(1,1)"><path fill="none" stroke="#000000" d="M 328 191 L 489.548828125 191 L 489.548828125 234 L 328 234 L 328 191 Z Z" stroke-miterlimit="10"/></g><g transform="translate(-94,-38) scale(1,1)"><rect fill="#ffffff" stroke="none" x="328" y="176" width="64.61953125000002" height="15"/></g><g transform="translate(-94,-38) scale(1,1)"><path fill="none" stroke="#000000" d="M 328 176 L 392.61953125 176 L 392.61953125 191 L 328 191 L 328 176 Z Z" stroke-miterlimit="10"/></g><g transform="translate(-94,-38) scale(1,1)"><rect fill="#ffffff" stroke="none" x="328" y="190" width="161.548828125" height="44"/></g><g transform="translate(-94,-38) scale(1,1)"><path fill="none" stroke="#000000" d="M 328 190 L 489.548828125 190 L 489.548828125 234 L 328 234 L 328 190 Z Z" stroke-miterlimit="10"/></g><g transform="translate(-94,-38) scale(1,1)"><path fill="none" stroke="#000000" d="M 384.61953125 179 L 384.61953125 183" stroke-miterlimit="10"/></g><g transform="translate(-94,-38) scale(1,1)"><path fill="none" stroke="#000000" d="M 381.61953125 187 L 381.61953125 183 L 387.61953125 183" stroke-miterlimit="10"/></g><g transform="translate(-94,-38) scale(1,1)"><path fill="none" stroke="#000000" d="M 387.61953125 187 L 387.61953125 183 L 381.61953125 183" stroke-miterlimit="10"/></g><g transform="translate(-94,-38) scale(1,1)"><g><path fill="none" stroke="none"/><text fill="#000000" stroke="none" font-family="Arial" font-size="15px" font-style="normal" font-weight="bold" text-decoration="none" x="335.008544921875" y="212.5">S2G-MT-Usager-Back</text></g></g><g transform="translate(-94,-38) scale(1,1)"><g><path fill="none" stroke="none"/><text fill="#000000" stroke="none" font-family="Arial" font-size="15px" font-style="normal" font-weight="normal" text-decoration="none" x="358.36181640625" y="229.5">(from S2G-MT)</text></g></g><g transform="translate(-94,-38) scale(1,1)"><rect fill="#C0C0C0" stroke="none" x="703" y="183" width="54.27773437500002" height="15" opacity="0.2"/></g><g transform="translate(-94,-38) scale(1,1)"><rect fill="#C0C0C0" stroke="none" x="703" y="197" width="135.6943359375" height="44" opacity="0.2"/></g><g transform="translate(-94,-38) scale(1,1)"><rect fill="#ffffff" stroke="none" x="696" y="191" width="135.6943359375" height="43"/></g><g transform="translate(-94,-38) scale(1,1)"><path fill="none" stroke="#000000" d="M 696 191 L 831.6943359375 191 L 831.6943359375 234 L 696 234 L 696 191 Z Z" stroke-miterlimit="10"/></g><g transform="translate(-94,-38) scale(1,1)"><rect fill="#ffffff" stroke="none" x="696" y="176" width="54.27773437500002" height="15"/></g><g transform="translate(-94,-38) scale(1,1)"><path fill="none" stroke="#000000" d="M 696 176 L 750.277734375 176 L 750.277734375 191 L 696 191 L 696 176 Z Z" stroke-miterlimit="10"/></g><g transform="translate(-94,-38) scale(1,1)"><rect fill="#ffffff" stroke="none" x="696" y="190" width="135.6943359375" height="44"/></g><g transform="translate(-94,-38) scale(1,1)"><path fill="none" stroke="#000000" d="M 696 190 L 831.6943359375 190 L 831.6943359375 234 L 696 234 L 696 190 Z Z" stroke-miterlimit="10"/></g><g transform="translate(-94,-38) scale(1,1)"><path fill="none" stroke="#000000" d="M 742.277734375 179 L 742.277734375 183" stroke-miterlimit="10"/></g><g transform="translate(-94,-38) scale(1,1)"><path fill="none" stroke="#000000" d="M 739.277734375 187 L 739.277734375 183 L 745.277734375 183" stroke-miterlimit="10"/></g><g transform="translate(-94,-38) scale(1,1)"><path fill="none" stroke="#000000" d="M 745.277734375 187 L 745.277734375 183 L 739.277734375 183" stroke-miterlimit="10"/></g><g transform="translate(-94,-38) scale(1,1)"><g><path fill="none" stroke="none"/><text fill="#000000" stroke="none" font-family="Arial" font-size="15px" font-style="normal" font-weight="bold" text-decoration="none" x="702.58740234375" y="212.5">S2G-MT-Pro-Back</text></g></g><g transform="translate(-94,-38) scale(1,1)"><g><path fill="none" stroke="none"/><text fill="#000000" stroke="none" font-family="Arial" font-size="15px" font-style="normal" font-weight="normal" text-decoration="none" x="713.4345703125" y="229.5">(from S2G-MT)</text></g></g><g transform="translate(-94,-38) scale(1,1)"><rect fill="#C0C0C0" stroke="none" x="527" y="183" width="55.26210937500002" height="15" opacity="0.2"/></g><g transform="translate(-94,-38) scale(1,1)"><rect fill="#C0C0C0" stroke="none" x="527" y="197" width="138.1552734375" height="44" opacity="0.2"/></g><g transform="translate(-94,-38) scale(1,1)"><rect fill="#ffffff" stroke="none" x="520" y="191" width="138.1552734375" height="43"/></g><g transform="translate(-94,-38) scale(1,1)"><path fill="none" stroke="#000000" d="M 520 191 L 658.1552734375 191 L 658.1552734375 234 L 520 234 L 520 191 Z Z" stroke-miterlimit="10"/></g><g transform="translate(-94,-38) scale(1,1)"><rect fill="#ffffff" stroke="none" x="520" y="176" width="55.26210937500002" height="15"/></g><g transform="translate(-94,-38) scale(1,1)"><path fill="none" stroke="#000000" d="M 520 176 L 575.262109375 176 L 575.262109375 191 L 520 191 L 520 176 Z Z" stroke-miterlimit="10"/></g><g transform="translate(-94,-38) scale(1,1)"><rect fill="#ffffff" stroke="none" x="520" y="190" width="138.1552734375" height="44"/></g><g transform="translate(-94,-38) scale(1,1)"><path fill="none" stroke="#000000" d="M 520 190 L 658.1552734375 190 L 658.1552734375 234 L 520 234 L 520 190 Z Z" stroke-miterlimit="10"/></g><g transform="translate(-94,-38) scale(1,1)"><path fill="none" stroke="#000000" d="M 567.262109375 179 L 567.262109375 183" stroke-miterlimit="10"/></g><g transform="translate(-94,-38) scale(1,1)"><path fill="none" stroke="#000000" d="M 564.262109375 187 L 564.262109375 183 L 570.262109375 183" stroke-miterlimit="10"/></g><g transform="translate(-94,-38) scale(1,1)"><path fill="none" stroke="#000000" d="M 570.262109375 187 L 570.262109375 183 L 564.262109375 183" stroke-miterlimit="10"/></g><g transform="translate(-94,-38) scale(1,1)"><g><path fill="none" stroke="none"/><text fill="#000000" stroke="none" font-family="Arial" font-size="15px" font-style="normal" font-weight="bold" text-decoration="none" x="526.986572265625" y="212.5">S2G-MT-Pro-Front</text></g></g><g transform="translate(-94,-38) scale(1,1)"><g><path fill="none" stroke="none"/><text fill="#000000" stroke="none" font-family="Arial" font-size="15px" font-style="normal" font-weight="normal" text-decoration="none" x="538.6650390625" y="229.5">(from S2G-MT)</text></g></g><g transform="translate(-94,-38) scale(1,1)"><rect fill="#C0C0C0" stroke="none" x="895" y="183" width="65.60390625000002" height="15" opacity="0.2"/></g><g transform="translate(-94,-38) scale(1,1)"><rect fill="#C0C0C0" stroke="none" x="895" y="197" width="164.009765625" height="44" opacity="0.2"/></g><g transform="translate(-94,-38) scale(1,1)"><rect fill="#ffffff" stroke="none" x="888" y="191" width="164.009765625" height="43"/></g><g transform="translate(-94,-38) scale(1,1)"><path fill="none" stroke="#000000" d="M 888 191 L 1052.009765625 191 L 1052.009765625 234 L 888 234 L 888 191 Z Z" stroke-miterlimit="10"/></g><g transform="translate(-94,-38) scale(1,1)"><rect fill="#ffffff" stroke="none" x="888" y="176" width="65.60390625000002" height="15"/></g><g transform="translate(-94,-38) scale(1,1)"><path fill="none" stroke="#000000" d="M 888 176 L 953.60390625 176 L 953.60390625 191 L 888 191 L 888 176 Z Z" stroke-miterlimit="10"/></g><g transform="translate(-94,-38) scale(1,1)"><rect fill="#ffffff" stroke="none" x="888" y="190" width="164.009765625" height="44"/></g><g transform="translate(-94,-38) scale(1,1)"><path fill="none" stroke="#000000" d="M 888 190 L 1052.009765625 190 L 1052.009765625 234 L 888 234 L 888 190 Z Z" stroke-miterlimit="10"/></g><g transform="translate(-94,-38) scale(1,1)"><path fill="none" stroke="#000000" d="M 945.60390625 179 L 945.60390625 183" stroke-miterlimit="10"/></g><g transform="translate(-94,-38) scale(1,1)"><path fill="none" stroke="#000000" d="M 942.60390625 187 L 942.60390625 183 L 948.60390625 183" stroke-miterlimit="10"/></g><g transform="translate(-94,-38) scale(1,1)"><path fill="none" stroke="#000000" d="M 948.60390625 187 L 948.60390625 183 L 942.60390625 183" stroke-miterlimit="10"/></g><g transform="translate(-94,-38) scale(1,1)"><g><path fill="none" stroke="none"/><text fill="#000000" stroke="none" font-family="Arial" font-size="15px" font-style="normal" font-weight="bold" text-decoration="none" x="895.40771484375" y="212.5">S2G-MT-Usager-Front</text></g></g><g transform="translate(-94,-38) scale(1,1)"><g><path fill="none" stroke="none"/><text fill="#000000" stroke="none" font-family="Arial" font-size="15px" font-style="normal" font-weight="normal" text-decoration="none" x="919.59228515625" y="229.5">(from S2G-MT)</text></g></g><g transform="translate(-94,-38) scale(1,1)"><rect fill="#C0C0C0" stroke="none" x="359" y="351" width="52.62246093750002" height="15" opacity="0.2"/></g><g transform="translate(-94,-38) scale(1,1)"><rect fill="#C0C0C0" stroke="none" x="359" y="365" width="131.55615234375" height="44" opacity="0.2"/></g><g transform="translate(-94,-38) scale(1,1)"><rect fill="#ffffff" stroke="none" x="352" y="359" width="131.55615234375" height="43"/></g><g transform="translate(-94,-38) scale(1,1)"><path fill="none" stroke="#000000" d="M 352 359 L 483.55615234375 359 L 483.55615234375 402 L 352 402 L 352 359 Z Z" stroke-miterlimit="10"/></g><g transform="translate(-94,-38) scale(1,1)"><rect fill="#ffffff" stroke="none" x="352" y="344" width="52.62246093750002" height="15"/></g><g transform="translate(-94,-38) scale(1,1)"><path fill="none" stroke="#000000" d="M 352 344 L 404.6224609375 344 L 404.6224609375 359 L 352 359 L 352 344 Z Z" stroke-miterlimit="10"/></g><g transform="translate(-94,-38) scale(1,1)"><rect fill="#ffffff" stroke="none" x="352" y="358" width="131.55615234375" height="44"/></g><g transform="translate(-94,-38) scale(1,1)"><path fill="none" stroke="#000000" d="M 352 358 L 483.55615234375 358 L 483.55615234375 402 L 352 402 L 352 358 Z Z" stroke-miterlimit="10"/></g><g transform="translate(-94,-38) scale(1,1)"><path fill="none" stroke="#000000" d="M 396.6224609375 347 L 396.6224609375 351" stroke-miterlimit="10"/></g><g transform="translate(-94,-38) scale(1,1)"><path fill="none" stroke="#000000" d="M 393.6224609375 355 L 393.6224609375 351 L 399.6224609375 351" stroke-miterlimit="10"/></g><g transform="translate(-94,-38) scale(1,1)"><path fill="none" stroke="#000000" d="M 399.6224609375 355 L 399.6224609375 351 L 393.6224609375 351" stroke-miterlimit="10"/></g><g transform="translate(-94,-38) scale(1,1)"><g><path fill="none" stroke="none"/><text fill="#000000" stroke="none" font-family="Arial" font-size="15px" font-style="normal" font-weight="bold" text-decoration="none" x="358.60205078125" y="380.5">S2G-MT-Services</text></g></g><g transform="translate(-94,-38) scale(1,1)"><g><path fill="none" stroke="none"/><text fill="#000000" stroke="none" font-family="Arial" font-size="15px" font-style="normal" font-weight="normal" text-decoration="none" x="367.365478515625" y="397.5">(from S2G-MT)</text></g></g><g transform="translate(-94,-38) scale(1,1)"><rect fill="#C0C0C0" stroke="none" x="663" y="351" width="43.93007812500002" height="15" opacity="0.2"/></g><g transform="translate(-94,-38) scale(1,1)"><rect fill="#C0C0C0" stroke="none" x="663" y="365" width="109.8251953125" height="44" opacity="0.2"/></g><g transform="translate(-94,-38) scale(1,1)"><rect fill="#ffffff" stroke="none" x="656" y="359" width="109.8251953125" height="43"/></g><g transform="translate(-94,-38) scale(1,1)"><path fill="none" stroke="#000000" d="M 656 359 L 765.8251953125 359 L 765.8251953125 402 L 656 402 L 656 359 Z Z" stroke-miterlimit="10"/></g><g transform="translate(-94,-38) scale(1,1)"><rect fill="#ffffff" stroke="none" x="656" y="344" width="43.93007812500002" height="15"/></g><g transform="translate(-94,-38) scale(1,1)"><path fill="none" stroke="#000000" d="M 656 344 L 699.930078125 344 L 699.930078125 359 L 656 359 L 656 344 Z Z" stroke-miterlimit="10"/></g><g transform="translate(-94,-38) scale(1,1)"><rect fill="#ffffff" stroke="none" x="656" y="358" width="109.8251953125" height="44"/></g><g transform="translate(-94,-38) scale(1,1)"><path fill="none" stroke="#000000" d="M 656 358 L 765.8251953125 358 L 765.8251953125 402 L 656 402 L 656 358 Z Z" stroke-miterlimit="10"/></g><g transform="translate(-94,-38) scale(1,1)"><path fill="none" stroke="#000000" d="M 691.930078125 347 L 691.930078125 351" stroke-miterlimit="10"/></g><g transform="translate(-94,-38) scale(1,1)"><path fill="none" stroke="#000000" d="M 688.930078125 355 L 688.930078125 351 L 694.930078125 351" stroke-miterlimit="10"/></g><g transform="translate(-94,-38) scale(1,1)"><path fill="none" stroke="#000000" d="M 694.930078125 355 L 694.930078125 351 L 688.930078125 351" stroke-miterlimit="10"/></g><g transform="translate(-94,-38) scale(1,1)"><g><path fill="none" stroke="none"/><text fill="#000000" stroke="none" font-family="Arial" font-size="15px" font-style="normal" font-weight="bold" text-decoration="none" x="667.9853515625" y="380.5">MT-prevision</text></g></g><g transform="translate(-94,-38) scale(1,1)"><g><path fill="none" stroke="none"/><text fill="#000000" stroke="none" font-family="Arial" font-size="15px" font-style="normal" font-weight="normal" text-decoration="none" x="660.5" y="397.5">(from S2G-MT)</text></g></g><g transform="translate(-94,-38) scale(1,1)"><rect fill="#C0C0C0" stroke="none" x="223" y="471" width="51.61171875000002" height="15" opacity="0.2"/></g><g transform="translate(-94,-38) scale(1,1)"><rect fill="#C0C0C0" stroke="none" x="223" y="485" width="129.029296875" height="44" opacity="0.2"/></g><g transform="translate(-94,-38) scale(1,1)"><rect fill="#ffffff" stroke="none" x="216" y="479" width="129.029296875" height="43"/></g><g transform="translate(-94,-38) scale(1,1)"><path fill="none" stroke="#000000" d="M 216 479 L 345.029296875 479 L 345.029296875 522 L 216 522 L 216 479 Z Z" stroke-miterlimit="10"/></g><g transform="translate(-94,-38) scale(1,1)"><rect fill="#ffffff" stroke="none" x="216" y="464" width="51.61171875000002" height="15"/></g><g transform="translate(-94,-38) scale(1,1)"><path fill="none" stroke="#000000" d="M 216 464 L 267.61171875 464 L 267.61171875 479 L 216 479 L 216 464 Z Z" stroke-miterlimit="10"/></g><g transform="translate(-94,-38) scale(1,1)"><rect fill="#ffffff" stroke="none" x="216" y="478" width="129.029296875" height="44"/></g><g transform="translate(-94,-38) scale(1,1)"><path fill="none" stroke="#000000" d="M 216 478 L 345.029296875 478 L 345.029296875 522 L 216 522 L 216 478 Z Z" stroke-miterlimit="10"/></g><g transform="translate(-94,-38) scale(1,1)"><path fill="none" stroke="#000000" d="M 259.61171875 467 L 259.61171875 471" stroke-miterlimit="10"/></g><g transform="translate(-94,-38) scale(1,1)"><path fill="none" stroke="#000000" d="M 256.61171875 475 L 256.61171875 471 L 262.61171875 471" stroke-miterlimit="10"/></g><g transform="translate(-94,-38) scale(1,1)"><path fill="none" stroke="#000000" d="M 262.61171875 475 L 262.61171875 471 L 256.61171875 471" stroke-miterlimit="10"/></g><g transform="translate(-94,-38) scale(1,1)"><g><path fill="none" stroke="none"/><text fill="#000000" stroke="none" font-family="Arial" font-size="15px" font-style="normal" font-weight="bold" text-decoration="none" x="223.0048828125" y="500.5">S2G-MT-Security</text></g></g><g transform="translate(-94,-38) scale(1,1)"><g><path fill="none" stroke="none"/><text fill="#000000" stroke="none" font-family="Arial" font-size="15px" font-style="normal" font-weight="normal" text-decoration="none" x="230.10205078125" y="517.5">(from S2G-MT)</text></g></g><g transform="translate(-94,-38) scale(1,1)"><rect fill="#C0C0C0" stroke="none" x="431" y="471" width="43.93007812500002" height="15" opacity="0.2"/></g><g transform="translate(-94,-38) scale(1,1)"><rect fill="#C0C0C0" stroke="none" x="431" y="485" width="109.8251953125" height="44" opacity="0.2"/></g><g transform="translate(-94,-38) scale(1,1)"><rect fill="#ffffff" stroke="none" x="424" y="479" width="109.8251953125" height="43"/></g><g transform="translate(-94,-38) scale(1,1)"><path fill="none" stroke="#000000" d="M 424 479 L 533.8251953125 479 L 533.8251953125 522 L 424 522 L 424 479 Z Z" stroke-miterlimit="10"/></g><g transform="translate(-94,-38) scale(1,1)"><rect fill="#ffffff" stroke="none" x="424" y="464" width="43.93007812500002" height="15"/></g><g transform="translate(-94,-38) scale(1,1)"><path fill="none" stroke="#000000" d="M 424 464 L 467.930078125 464 L 467.930078125 479 L 424 479 L 424 464 Z Z" stroke-miterlimit="10"/></g><g transform="translate(-94,-38) scale(1,1)"><rect fill="#ffffff" stroke="none" x="424" y="478" width="109.8251953125" height="44"/></g><g transform="translate(-94,-38) scale(1,1)"><path fill="none" stroke="#000000" d="M 424 478 L 533.8251953125 478 L 533.8251953125 522 L 424 522 L 424 478 Z Z" stroke-miterlimit="10"/></g><g transform="translate(-94,-38) scale(1,1)"><path fill="none" stroke="#000000" d="M 459.930078125 467 L 459.930078125 471" stroke-miterlimit="10"/></g><g transform="translate(-94,-38) scale(1,1)"><path fill="none" stroke="#000000" d="M 456.930078125 475 L 456.930078125 471 L 462.930078125 471" stroke-miterlimit="10"/></g><g transform="translate(-94,-38) scale(1,1)"><path fill="none" stroke="#000000" d="M 462.930078125 475 L 462.930078125 471 L 456.930078125 471" stroke-miterlimit="10"/></g><g transform="translate(-94,-38) scale(1,1)"><g><path fill="none" stroke="none"/><text fill="#000000" stroke="none" font-family="Arial" font-size="15px" font-style="normal" font-weight="bold" text-decoration="none" x="438.061767578125" y="500.5">MT-outillage</text></g></g><g transform="translate(-94,-38) scale(1,1)"><g><path fill="none" stroke="none"/><text fill="#000000" stroke="none" font-family="Arial" font-size="15px" font-style="normal" font-weight="normal" text-decoration="none" x="428.5" y="517.5">(from S2G-MT)</text></g></g><g transform="translate(-94,-38) scale(1,1)"><rect fill="#C0C0C0" stroke="none" x="583" y="591" width="43.93593750000002" height="15" opacity="0.2"/></g><g transform="translate(-94,-38) scale(1,1)"><rect fill="#C0C0C0" stroke="none" x="583" y="605" width="109.83984375" height="44" opacity="0.2"/></g><g transform="translate(-94,-38) scale(1,1)"><rect fill="#ffffff" stroke="none" x="576" y="599" width="109.83984375" height="43"/></g><g transform="translate(-94,-38) scale(1,1)"><path fill="none" stroke="#000000" d="M 576 599 L 685.83984375 599 L 685.83984375 642 L 576 642 L 576 599 Z Z" stroke-miterlimit="10"/></g><g transform="translate(-94,-38) scale(1,1)"><rect fill="#ffffff" stroke="none" x="576" y="584" width="43.93593750000002" height="15"/></g><g transform="translate(-94,-38) scale(1,1)"><path fill="none" stroke="#000000" d="M 576 584 L 619.9359375 584 L 619.9359375 599 L 576 599 L 576 584 Z Z" stroke-miterlimit="10"/></g><g transform="translate(-94,-38) scale(1,1)"><rect fill="#ffffff" stroke="none" x="576" y="598" width="109.83984375" height="44"/></g><g transform="translate(-94,-38) scale(1,1)"><path fill="none" stroke="#000000" d="M 576 598 L 685.83984375 598 L 685.83984375 642 L 576 642 L 576 598 Z Z" stroke-miterlimit="10"/></g><g transform="translate(-94,-38) scale(1,1)"><path fill="none" stroke="#000000" d="M 611.9359375 587 L 611.9359375 591" stroke-miterlimit="10"/></g><g transform="translate(-94,-38) scale(1,1)"><path fill="none" stroke="#000000" d="M 608.9359375 595 L 608.9359375 591 L 614.9359375 591" stroke-miterlimit="10"/></g><g transform="translate(-94,-38) scale(1,1)"><path fill="none" stroke="#000000" d="M 614.9359375 595 L 614.9359375 591 L 608.9359375 591" stroke-miterlimit="10"/></g><g transform="translate(-94,-38) scale(1,1)"><g><path fill="none" stroke="none"/><text fill="#000000" stroke="none" font-family="Arial" font-size="15px" font-style="normal" font-weight="bold" text-decoration="none" x="582.98291015625" y="620.5">MT-datamodel</text></g></g><g transform="translate(-94,-38) scale(1,1)"><g><path fill="none" stroke="none"/><text fill="#000000" stroke="none" font-family="Arial" font-size="15px" font-style="normal" font-weight="normal" text-decoration="none" x="580.50732421875" y="637.5">(from S2G-MT)</text></g></g><g transform="translate(-94,-38) scale(1,1)"><path fill="none" stroke="#000000" d="M 439 78 L 200 80 L 200 175" stroke-miterlimit="10" stroke-dasharray="3"/></g><g transform="translate(-94,-38) scale(1,1)"><path fill="none" stroke="#000000" d="M 195.790482243984 164.83732514237585 L 200 175 L 204.209517756016 164.83732514237585" stroke-miterlimit="10"/></g><g transform="translate(-94,-38) scale(1,1)"><path fill="none" stroke="#000000" d="M 451 107 L 408 136 L 408 175" stroke-miterlimit="10" stroke-dasharray="3"/></g><g transform="translate(-94,-38) scale(1,1)"><path fill="none" stroke="#000000" d="M 403.790482243984 164.83732514237585 L 408 175 L 412.209517756016 164.83732514237585" stroke-miterlimit="10"/></g><g transform="translate(-94,-38) scale(1,1)"><path fill="none" stroke="#000000" d="M 553 100 L 584 112 L 760 120 L 762 175" stroke-miterlimit="10" stroke-dasharray="3"/></g><g transform="translate(-94,-38) scale(1,1)"><path fill="none" stroke="#000000" d="M 757.4239549158333 164.99700987765792 L 762 175 L 765.8374296376205 164.6910653423202" stroke-miterlimit="10"/></g><g transform="translate(-94,-38) scale(1,1)"><path fill="none" stroke="#000000" d="M 547 107 L 584 128 L 587 175" stroke-miterlimit="10" stroke-dasharray="3"/></g><g transform="translate(-94,-38) scale(1,1)"><path fill="none" stroke="#000000" d="M 582.1516674699579 165.1261116231681 L 587 175 L 590.5536046184968 164.58981776262306" stroke-miterlimit="10"/></g><g transform="translate(-94,-38) scale(1,1)"><path fill="none" stroke="#000000" d="M 553 77 L 968 80 L 970 175" stroke-miterlimit="10" stroke-dasharray="3"/></g><g transform="translate(-94,-38) scale(1,1)"><path fill="none" stroke="#000000" d="M 965.577511138714 164.92817830420924 L 970 175 L 973.9946815564581 164.75097471646728" stroke-miterlimit="10"/></g><g transform="translate(-94,-38) scale(1,1)"><path fill="none" stroke="#000000" d="M 733 235 L 712 256 L 711 343" stroke-miterlimit="10" stroke-dasharray="3"/></g><g transform="translate(-94,-38) scale(1,1)"><path fill="none" stroke="#000000" d="M 706.9075649316002 332.78961434563166 L 711 343 L 715.3260443463025 332.88637847683515" stroke-miterlimit="10"/></g><g transform="translate(-94,-38) scale(1,1)"><path fill="none" stroke="#000000" d="M 766 235 L 768 248 L 776 248 L 776 608 L 687 611" stroke-miterlimit="10" stroke-dasharray="3"/></g><g transform="translate(-94,-38) scale(1,1)"><path fill="none" stroke="#000000" d="M 697.0150929406203 606.4505040509155 L 687 611 L 697.2987195691046 614.8647606959478" stroke-miterlimit="10"/></g><g transform="translate(-94,-38) scale(1,1)"><path fill="none" stroke="#000000" d="M 799 235 L 824 256 L 824 488 L 535 492" stroke-miterlimit="10" stroke-dasharray="3"/></g><g transform="translate(-94,-38) scale(1,1)"><path fill="none" stroke="#000000" d="M 545.1034439311893 487.65023900319625 L 535 492 L 545.2199592144626 496.0684682197013" stroke-miterlimit="10"/></g><g transform="translate(-94,-38) scale(1,1)"><path fill="none" stroke="#000000" d="M 588 235 L 584 416 L 312 416 L 292 463" stroke-miterlimit="10" stroke-dasharray="3"/></g><g transform="translate(-94,-38) scale(1,1)"><path fill="none" stroke="#000000" d="M 292.1058405445853 452.0005092036439 L 292 463 L 299.85265509850313 455.2970260350983" stroke-miterlimit="10"/></g><g transform="translate(-94,-38) scale(1,1)"><path fill="none" stroke="#000000" d="M 410 235 L 415 343" stroke-miterlimit="10" stroke-dasharray="3"/></g><g transform="translate(-94,-38) scale(1,1)"><path fill="none" stroke="#000000" d="M 410.3249954345252 333.0428752989234 L 415 343 L 418.735022966926 332.6535221724234" stroke-miterlimit="10"/></g><g transform="translate(-94,-38) scale(1,1)"><path fill="none" stroke="#000000" d="M 451 235 L 528 288 L 528 432 L 503 463" stroke-miterlimit="10" stroke-dasharray="3"/></g><g transform="translate(-94,-38) scale(1,1)"><path fill="none" stroke="#000000" d="M 506.10290054133253 452.44670628521135 L 503 463 L 512.6563875637041 457.7317764645432" stroke-miterlimit="10"/></g><g transform="translate(-94,-38) scale(1,1)"><path fill="none" stroke="#000000" d="M 486 235 L 624 288 L 629 583" stroke-miterlimit="10" stroke-dasharray="3"/></g><g transform="translate(-94,-38) scale(1,1)"><path fill="none" stroke="#000000" d="M 624.6188627653046 572.9101220755272 L 629 583 L 633.0366892537772 572.7674470502988" stroke-miterlimit="10"/></g><g transform="translate(-94,-38) scale(1,1)"><path fill="none" stroke="#000000" d="M 375 235 L 272 328 L 279 463" stroke-miterlimit="10" stroke-dasharray="3"/></g><g transform="translate(-94,-38) scale(1,1)"><path fill="none" stroke="#000000" d="M 274.26988319495024 453.0689378709734 L 279 463 L 282.6776237071645 452.6329809555253" stroke-miterlimit="10"/></g><g transform="translate(-94,-38) scale(1,1)"><path fill="none" stroke="#000000" d="M 214 235 L 240 288 L 368 288 L 400 343" stroke-miterlimit="10" stroke-dasharray="3"/></g><g transform="translate(-94,-38) scale(1,1)"><path fill="none" stroke="#000000" d="M 391.25076640074246 336.33284832738724 L 400 343 L 398.5277457506835 332.0989694328761" stroke-miterlimit="10"/></g><g transform="translate(-94,-38) scale(1,1)"><path fill="none" stroke="#000000" d="M 207 235 L 224 304 L 224 432 L 384 432 L 432 463" stroke-miterlimit="10" stroke-dasharray="3"/></g><g transform="translate(-94,-38) scale(1,1)"><path fill="none" stroke="#000000" d="M 421.17918249924804 461.02265111439084 L 432 463 L 425.7467233730221 453.9503297614503" stroke-miterlimit="10"/></g><g transform="translate(-94,-38) scale(1,1)"><path fill="none" stroke="#000000" d="M 193 235 L 184 272 L 184 488 L 215 490" stroke-miterlimit="10" stroke-dasharray="3"/></g><g transform="translate(-94,-38) scale(1,1)"><path fill="none" stroke="#000000" d="M 204.58739121035424 493.54648814939395 L 215 490 L 205.1294278951646 485.14491953483304" stroke-miterlimit="10"/></g><g transform="translate(-94,-38) scale(1,1)"><path fill="none" stroke="#000000" d="M 150 235 L 128 248 L 128 608 L 575 612" stroke-miterlimit="10" stroke-dasharray="3"/></g><g transform="translate(-94,-38) scale(1,1)"><path fill="none" stroke="#000000" d="M 564.8000644589386 616.1184117033381 L 575 612 L 564.8753995681013 607.6997132543983" stroke-miterlimit="10"/></g><g transform="translate(-94,-38) scale(1,1)"><path fill="none" stroke="#000000" d="M 346 516 L 575 594" stroke-miterlimit="10" stroke-dasharray="3"/></g><g transform="translate(-94,-38) scale(1,1)"><path fill="none" stroke="#000000" d="M 564.0228115694707 594.7080495467515 L 575 594 L 566.7372889864862 586.7386222583343" stroke-miterlimit="10"/></g><g transform="translate(-94,-38) scale(1,1)"><path fill="none" stroke="#000000" d="M 415 403 L 408 488 L 346 490" stroke-miterlimit="10" stroke-dasharray="3"/></g><g transform="translate(-94,-38) scale(1,1)"><path fill="none" stroke="#000000" d="M 356.0216711290793 485.4650129238797 L 346 490 L 356.29311172831143 493.8796715000754" stroke-miterlimit="10"/></g><g transform="translate(-94,-38) scale(1,1)"><path fill="none" stroke="#000000" d="M 432 403 L 463 463" stroke-miterlimit="10" stroke-dasharray="3"/></g><g transform="translate(-94,-38) scale(1,1)"><path fill="none" stroke="#000000" d="M 454.59528382983007 455.9034694322589 L 463 463 L 462.07497308947194 452.0389633147773" stroke-miterlimit="10"/></g><g transform="translate(-94,-38) scale(1,1)"><path fill="none" stroke="#000000" d="M 485 374 L 600 376 L 600 456 L 680 456 L 680 552 L 655 583" stroke-miterlimit="10" stroke-dasharray="3"/></g><g transform="translate(-94,-38) scale(1,1)"><path fill="none" stroke="#000000" d="M 658.1029005413326 572.4467062852113 L 655 583 L 664.6563875637041 577.7317764645433" stroke-miterlimit="10"/></g><g transform="translate(-94,-38) scale(1,1)"><path fill="none" stroke="#000000" d="M 535 502 L 592 512 L 592 560 L 608 583" stroke-miterlimit="10" stroke-dasharray="3"/></g><g transform="translate(-94,-38) scale(1,1)"><path fill="none" stroke="#000000" d="M 598.7408422607801 577.0613134482239 L 608 583 L 605.652072306624 572.2535012424196" stroke-miterlimit="10"/></g></g></svg>