<svg version="1.1" xmlns="http://www.w3.org/2000/svg" xmlns:xlink="http://www.w3.org/1999/xlink" width="436.81201171875" height="225"><defs/><g><g transform="translate(-246,-230) scale(1,1)"><rect fill="#C0C0C0" stroke="none" x="271" y="255" width="119.779296875" height="37" opacity="0.2"/></g><g transform="translate(-246,-230) scale(1,1)"><rect fill="#ffffff" stroke="none" x="264" y="248" width="119.779296875" height="37"/></g><g transform="translate(-246,-230) scale(1,1)"><path fill="none" stroke="#000000" d="M 264 248 L 383.779296875 248 L 383.779296875 285 L 264 285 L 264 248 Z Z" stroke-miterlimit="10"/></g><g transform="translate(-246,-230) scale(1,1)"><g><path fill="none" stroke="none"/><text fill="#000000" stroke="none" font-family="Arial" font-size="13px" font-style="normal" font-weight="normal" text-decoration="none" x="299.314697265625" y="265.5">«Token»</text></g></g><g transform="translate(-246,-230) scale(1,1)"><g><path fill="none" stroke="none"/><text fill="#000000" stroke="none" font-family="Arial" font-size="13px" font-style="italic" font-weight="bold" text-decoration="none" x="272.8291015625" y="280.5">GrdfAccessToken</text></g></g><g transform="translate(-246,-230) scale(1,1)"><rect fill="#C0C0C0" stroke="none" x="447" y="247" width="137.578125" height="37" opacity="0.2"/></g><g transform="translate(-246,-230) scale(1,1)"><rect fill="#ffffff" stroke="none" x="440" y="240" width="137.578125" height="37"/></g><g transform="translate(-246,-230) scale(1,1)"><path fill="none" stroke="#000000" d="M 440 240 L 577.578125 240 L 577.578125 277 L 440 277 L 440 240 Z Z" stroke-miterlimit="10"/></g><g transform="translate(-246,-230) scale(1,1)"><g><path fill="none" stroke="none"/><text fill="#000000" stroke="none" font-family="Arial" font-size="13px" font-style="normal" font-weight="normal" text-decoration="none" x="478.79638671875" y="257.5">«Handler»</text></g></g><g transform="translate(-246,-230) scale(1,1)"><g><path fill="none" stroke="none"/><text fill="#000000" stroke="none" font-family="Arial" font-size="13px" font-style="italic" font-weight="bold" text-decoration="none" x="449.543212890625" y="272.5">AbstractGrdfHandler</text></g></g><g transform="translate(-246,-230) scale(1,1)"><rect fill="#C0C0C0" stroke="none" x="263" y="351" width="128.8818359375" height="37" opacity="0.2"/></g><g transform="translate(-246,-230) scale(1,1)"><rect fill="#ffffff" stroke="none" x="256" y="344" width="128.8818359375" height="37"/></g><g transform="translate(-246,-230) scale(1,1)"><path fill="none" stroke="#000000" d="M 256 344 L 384.8818359375 344 L 384.8818359375 381 L 256 381 L 256 344 Z Z" stroke-miterlimit="10"/></g><g transform="translate(-246,-230) scale(1,1)"><g><path fill="none" stroke="none"/><text fill="#000000" stroke="none" font-family="Arial" font-size="13px" font-style="normal" font-weight="normal" text-decoration="none" x="295.865966796875" y="361.5">«Token»</text></g></g><g transform="translate(-246,-230) scale(1,1)"><g><path fill="none" stroke="none"/><text fill="#000000" stroke="none" font-family="Arial" font-size="13px" font-style="normal" font-weight="bold" text-decoration="none" x="264.800537109375" y="376.5">GrdfAuthorizeCode</text></g></g><g transform="translate(-246,-230) scale(1,1)"><path fill="none" stroke="#000000" d="M 321 343 L 322 286" stroke-miterlimit="10"/></g><g transform="translate(-246,-230) scale(1,1)"><path fill="#FFFFFF" stroke="none" d="M 330.0612099568909 306.4699021500085 L 322 286 L 313.22572960458996 306.1745428455822"/></g><g transform="translate(-246,-230) scale(1,1)"><path fill="none" stroke="#000000" d="M 330.0612099568909 306.4699021500085 L 322 286 L 313.22572960458996 306.1745428455822 L 330.0612099568909 306.4699021500085" stroke-miterlimit="10"/></g><g transform="translate(-246,-230) scale(1,1)"><rect fill="#C0C0C0" stroke="none" x="463" y="351" width="112.29541015625" height="37" opacity="0.2"/></g><g transform="translate(-246,-230) scale(1,1)"><rect fill="#ffffff" stroke="none" x="456" y="344" width="112.29541015625" height="37"/></g><g transform="translate(-246,-230) scale(1,1)"><path fill="none" stroke="#000000" d="M 456 344 L 568.29541015625 344 L 568.29541015625 381 L 456 381 L 456 344 Z Z" stroke-miterlimit="10"/></g><g transform="translate(-246,-230) scale(1,1)"><g><path fill="none" stroke="none"/><text fill="#000000" stroke="none" font-family="Arial" font-size="13px" font-style="normal" font-weight="normal" text-decoration="none" x="482.155029296875" y="361.5">«Handler»</text></g></g><g transform="translate(-246,-230) scale(1,1)"><g><path fill="none" stroke="none"/><text fill="#000000" stroke="none" font-family="Arial" font-size="13px" font-style="normal" font-weight="bold" text-decoration="none" x="463.619873046875" y="376.5">GrdfTrueHandler</text></g></g><g transform="translate(-246,-230) scale(1,1)"><path fill="none" stroke="#000000" d="M 511 343 L 509 278" stroke-miterlimit="10"/></g><g transform="translate(-246,-230) scale(1,1)"><path fill="#FFFFFF" stroke="none" d="M 518.0401525381252 298.0568103667415 L 509 278 L 501.2100465433735 298.5746597819646"/></g><g transform="translate(-246,-230) scale(1,1)"><path fill="none" stroke="#000000" d="M 518.0401525381252 298.0568103667415 L 509 278 L 501.2100465433735 298.5746597819646 L 518.0401525381252 298.0568103667415" stroke-miterlimit="10"/></g><g transform="translate(-246,-230) scale(1,1)"><rect fill="#C0C0C0" stroke="none" x="367" y="415" width="105.052734375" height="37" opacity="0.2"/></g><g transform="translate(-246,-230) scale(1,1)"><rect fill="#ffffff" stroke="none" x="360" y="408" width="105.052734375" height="37"/></g><g transform="translate(-246,-230) scale(1,1)"><path fill="none" stroke="#000000" d="M 360 408 L 465.052734375 408 L 465.052734375 445 L 360 445 L 360 408 Z Z" stroke-miterlimit="10"/></g><g transform="translate(-246,-230) scale(1,1)"><g><path fill="none" stroke="none"/><text fill="#000000" stroke="none" font-family="Arial" font-size="13px" font-style="normal" font-weight="normal" text-decoration="none" x="369.90185546875" y="425.5">«HTTP Client»</text></g></g><g transform="translate(-246,-230) scale(1,1)"><g><path fill="none" stroke="none"/><text fill="#000000" stroke="none" font-family="Arial" font-size="13px" font-style="italic" font-weight="bold" text-decoration="none" x="368.81640625" y="440.5">GrdfAdictClient</text></g></g><g transform="translate(-246,-230) scale(1,1)"><path fill="none" stroke="#000000" d="M 512 382 L 512 424 L 466 425" stroke-miterlimit="10" stroke-dasharray="3"/></g><g transform="translate(-246,-230) scale(1,1)"><path fill="none" stroke="#000000" d="M 476.06878468065963 420.57060105042297 L 466 425 L 476.25176395982817 428.9876478921751" stroke-miterlimit="10"/></g><g transform="translate(-246,-230) scale(1,1)"><rect fill="#C0C0C0" stroke="none" x="551" y="399" width="128.81201171875" height="37" opacity="0.2"/></g><g transform="translate(-246,-230) scale(1,1)"><rect fill="#ffffff" stroke="none" x="544" y="392" width="128.81201171875" height="37"/></g><g transform="translate(-246,-230) scale(1,1)"><path fill="none" stroke="#000000" d="M 544 392 L 672.81201171875 392 L 672.81201171875 429 L 544 429 L 544 392 Z Z" stroke-miterlimit="10"/></g><g transform="translate(-246,-230) scale(1,1)"><g><path fill="none" stroke="none"/><text fill="#000000" stroke="none" font-family="Arial" font-size="13px" font-style="normal" font-weight="normal" text-decoration="none" x="579.866943359375" y="409.5">«Crypter»</text></g></g><g transform="translate(-246,-230) scale(1,1)"><g><path fill="none" stroke="none"/><text fill="#000000" stroke="none" font-family="Arial" font-size="13px" font-style="normal" font-weight="bold" text-decoration="none" x="553.136962890625" y="424.5">SecurityWithJose4j</text></g></g><g transform="translate(-246,-230) scale(1,1)"><path fill="none" stroke="#000000" d="M 455 362 L 386 362" stroke-miterlimit="10" stroke-dasharray="3"/></g><g transform="translate(-246,-230) scale(1,1)"><path fill="none" stroke="#000000" d="M 396.16267485762415 357.790482243984 L 386 362 L 396.16267485762415 366.209517756016" stroke-miterlimit="10"/></g><g transform="translate(-246,-230) scale(1,1)"><path fill="none" stroke="#000000" d="M 345 343 L 376 320 L 608 320 L 608 391" stroke-miterlimit="10" stroke-dasharray="3"/></g><g transform="translate(-246,-230) scale(1,1)"><path fill="none" stroke="#000000" d="M 603.790482243984 380.83732514237585 L 608 391 L 612.209517756016 380.83732514237585" stroke-miterlimit="10"/></g></g></svg>