<svg version="1.1" xmlns="http://www.w3.org/2000/svg" xmlns:xlink="http://www.w3.org/1999/xlink" width="673.4927978515625" height="549"><defs/><g><g transform="translate(-10,-10) scale(1,1)"><rect fill="#C0C0C0" stroke="none" x="173.9320068359375" y="27" width="19.599999999999994" height="15" opacity="0.2"/></g><g transform="translate(-10,-10) scale(1,1)"><rect fill="#C0C0C0" stroke="none" x="173.9320068359375" y="41" width="49" height="25" opacity="0.2"/></g><g transform="translate(-10,-10) scale(1,1)"><rect fill="#ffffff" stroke="none" x="166.9320068359375" y="35" width="49" height="24"/></g><g transform="translate(-10,-10) scale(1,1)"><path fill="none" stroke="#000000" d="M 166.9320068359375 35 L 215.9320068359375 35 L 215.9320068359375 59 L 166.9320068359375 59 L 166.9320068359375 35 Z Z" stroke-miterlimit="10"/></g><g transform="translate(-10,-10) scale(1,1)"><rect fill="#ffffff" stroke="none" x="166.9320068359375" y="20" width="19.599999999999994" height="15"/></g><g transform="translate(-10,-10) scale(1,1)"><path fill="none" stroke="#000000" d="M 166.9320068359375 20 L 186.5320068359375 20 L 186.5320068359375 35 L 166.9320068359375 35 L 166.9320068359375 20 Z Z" stroke-miterlimit="10"/></g><g transform="translate(-10,-10) scale(1,1)"><rect fill="#ffffff" stroke="none" x="166.9320068359375" y="34" width="49" height="25"/></g><g transform="translate(-10,-10) scale(1,1)"><path fill="none" stroke="#000000" d="M 166.9320068359375 34 L 215.9320068359375 34 L 215.9320068359375 59 L 166.9320068359375 59 L 166.9320068359375 34 Z Z" stroke-miterlimit="10"/></g><g transform="translate(-10,-10) scale(1,1)"><g><path fill="none" stroke="none"/><text fill="#000000" stroke="none" font-family="Arial" font-size="13px" font-style="normal" font-weight="bold" text-decoration="none" x="182.3961181640625" y="54.5">net</text></g></g><g transform="translate(-10,-10) scale(1,1)"><rect fill="#C0C0C0" stroke="none" x="173.9320068359375" y="97" width="19.599999999999994" height="15" opacity="0.2"/></g><g transform="translate(-10,-10) scale(1,1)"><rect fill="#C0C0C0" stroke="none" x="173.9320068359375" y="111" width="49" height="25" opacity="0.2"/></g><g transform="translate(-10,-10) scale(1,1)"><rect fill="#ffffff" stroke="none" x="166.9320068359375" y="105" width="49" height="24"/></g><g transform="translate(-10,-10) scale(1,1)"><path fill="none" stroke="#000000" d="M 166.9320068359375 105 L 215.9320068359375 105 L 215.9320068359375 129 L 166.9320068359375 129 L 166.9320068359375 105 Z Z" stroke-miterlimit="10"/></g><g transform="translate(-10,-10) scale(1,1)"><rect fill="#ffffff" stroke="none" x="166.9320068359375" y="90" width="19.599999999999994" height="15"/></g><g transform="translate(-10,-10) scale(1,1)"><path fill="none" stroke="#000000" d="M 166.9320068359375 90 L 186.5320068359375 90 L 186.5320068359375 105 L 166.9320068359375 105 L 166.9320068359375 90 Z Z" stroke-miterlimit="10"/></g><g transform="translate(-10,-10) scale(1,1)"><rect fill="#ffffff" stroke="none" x="166.9320068359375" y="104" width="49" height="25"/></g><g transform="translate(-10,-10) scale(1,1)"><path fill="none" stroke="#000000" d="M 166.9320068359375 104 L 215.9320068359375 104 L 215.9320068359375 129 L 166.9320068359375 129 L 166.9320068359375 104 Z Z" stroke-miterlimit="10"/></g><g transform="translate(-10,-10) scale(1,1)"><g><path fill="none" stroke="none"/><text fill="#000000" stroke="none" font-family="Arial" font-size="13px" font-style="normal" font-weight="bold" text-decoration="none" x="179.1461181640625" y="124.5">atos</text></g></g><g transform="translate(-10,-10) scale(1,1)"><rect fill="#C0C0C0" stroke="none" x="173.9320068359375" y="167" width="19.599999999999994" height="15" opacity="0.2"/></g><g transform="translate(-10,-10) scale(1,1)"><rect fill="#C0C0C0" stroke="none" x="173.9320068359375" y="181" width="49" height="25" opacity="0.2"/></g><g transform="translate(-10,-10) scale(1,1)"><rect fill="#ffffff" stroke="none" x="166.9320068359375" y="175" width="49" height="24"/></g><g transform="translate(-10,-10) scale(1,1)"><path fill="none" stroke="#000000" d="M 166.9320068359375 175 L 215.9320068359375 175 L 215.9320068359375 199 L 166.9320068359375 199 L 166.9320068359375 175 Z Z" stroke-miterlimit="10"/></g><g transform="translate(-10,-10) scale(1,1)"><rect fill="#ffffff" stroke="none" x="166.9320068359375" y="160" width="19.599999999999994" height="15"/></g><g transform="translate(-10,-10) scale(1,1)"><path fill="none" stroke="#000000" d="M 166.9320068359375 160 L 186.5320068359375 160 L 186.5320068359375 175 L 166.9320068359375 175 L 166.9320068359375 160 Z Z" stroke-miterlimit="10"/></g><g transform="translate(-10,-10) scale(1,1)"><rect fill="#ffffff" stroke="none" x="166.9320068359375" y="174" width="49" height="25"/></g><g transform="translate(-10,-10) scale(1,1)"><path fill="none" stroke="#000000" d="M 166.9320068359375 174 L 215.9320068359375 174 L 215.9320068359375 199 L 166.9320068359375 199 L 166.9320068359375 174 Z Z" stroke-miterlimit="10"/></g><g transform="translate(-10,-10) scale(1,1)"><g><path fill="none" stroke="none"/><text fill="#000000" stroke="none" font-family="Arial" font-size="13px" font-style="normal" font-weight="bold" text-decoration="none" x="180.9520263671875" y="194.5">s2g</text></g></g><g transform="translate(-10,-10) scale(1,1)"><rect fill="#C0C0C0" stroke="none" x="173.9320068359375" y="237" width="19.599999999999994" height="15" opacity="0.2"/></g><g transform="translate(-10,-10) scale(1,1)"><rect fill="#C0C0C0" stroke="none" x="173.9320068359375" y="251" width="49" height="25" opacity="0.2"/></g><g transform="translate(-10,-10) scale(1,1)"><rect fill="#ffffff" stroke="none" x="166.9320068359375" y="245" width="49" height="24"/></g><g transform="translate(-10,-10) scale(1,1)"><path fill="none" stroke="#000000" d="M 166.9320068359375 245 L 215.9320068359375 245 L 215.9320068359375 269 L 166.9320068359375 269 L 166.9320068359375 245 Z Z" stroke-miterlimit="10"/></g><g transform="translate(-10,-10) scale(1,1)"><rect fill="#ffffff" stroke="none" x="166.9320068359375" y="230" width="19.599999999999994" height="15"/></g><g transform="translate(-10,-10) scale(1,1)"><path fill="none" stroke="#000000" d="M 166.9320068359375 230 L 186.5320068359375 230 L 186.5320068359375 245 L 166.9320068359375 245 L 166.9320068359375 230 Z Z" stroke-miterlimit="10"/></g><g transform="translate(-10,-10) scale(1,1)"><rect fill="#ffffff" stroke="none" x="166.9320068359375" y="244" width="49" height="25"/></g><g transform="translate(-10,-10) scale(1,1)"><path fill="none" stroke="#000000" d="M 166.9320068359375 244 L 215.9320068359375 244 L 215.9320068359375 269 L 166.9320068359375 269 L 166.9320068359375 244 Z Z" stroke-miterlimit="10"/></g><g transform="translate(-10,-10) scale(1,1)"><g><path fill="none" stroke="none"/><text fill="#000000" stroke="none" font-family="Arial" font-size="13px" font-style="normal" font-weight="bold" text-decoration="none" x="184.2115478515625" y="264.5">mt</text></g></g><g transform="translate(-10,-10) scale(1,1)"><rect fill="#C0C0C0" stroke="none" x="126.7847900390625" y="307" width="21.805078124999994" height="15" opacity="0.2"/></g><g transform="translate(-10,-10) scale(1,1)"><rect fill="#C0C0C0" stroke="none" x="126.7847900390625" y="321" width="54.5126953125" height="25" opacity="0.2"/></g><g transform="translate(-10,-10) scale(1,1)"><rect fill="#ffffff" stroke="none" x="119.7847900390625" y="315" width="54.5126953125" height="24"/></g><g transform="translate(-10,-10) scale(1,1)"><path fill="none" stroke="#000000" d="M 119.7847900390625 315 L 174.2974853515625 315 L 174.2974853515625 339 L 119.7847900390625 339 L 119.7847900390625 315 Z Z" stroke-miterlimit="10"/></g><g transform="translate(-10,-10) scale(1,1)"><rect fill="#ffffff" stroke="none" x="119.7847900390625" y="300" width="21.805078124999994" height="15"/></g><g transform="translate(-10,-10) scale(1,1)"><path fill="none" stroke="#000000" d="M 119.7847900390625 300 L 141.5898681640625 300 L 141.5898681640625 315 L 119.7847900390625 315 L 119.7847900390625 300 Z Z" stroke-miterlimit="10"/></g><g transform="translate(-10,-10) scale(1,1)"><rect fill="#ffffff" stroke="none" x="119.7847900390625" y="314" width="54.5126953125" height="25"/></g><g transform="translate(-10,-10) scale(1,1)"><path fill="none" stroke="#000000" d="M 119.7847900390625 314 L 174.2974853515625 314 L 174.2974853515625 339 L 119.7847900390625 339 L 119.7847900390625 314 Z Z" stroke-miterlimit="10"/></g><g transform="translate(-10,-10) scale(1,1)"><g><path fill="none" stroke="none"/><text fill="#000000" stroke="none" font-family="Arial" font-size="13px" font-style="normal" font-weight="bold" text-decoration="none" x="126.4525146484375" y="334.5">comelit</text></g></g><g transform="translate(-10,-10) scale(1,1)"><rect fill="#C0C0C0" stroke="none" x="265.58544921875" y="307" width="24.420312500000023" height="15" opacity="0.2"/></g><g transform="translate(-10,-10) scale(1,1)"><rect fill="#C0C0C0" stroke="none" x="265.58544921875" y="321" width="61.05078125" height="25" opacity="0.2"/></g><g transform="translate(-10,-10) scale(1,1)"><rect fill="#ffffff" stroke="none" x="258.58544921875" y="315" width="61.05078125" height="24"/></g><g transform="translate(-10,-10) scale(1,1)"><path fill="none" stroke="#000000" d="M 258.58544921875 315 L 319.63623046875 315 L 319.63623046875 339 L 258.58544921875 339 L 258.58544921875 315 Z Z" stroke-miterlimit="10"/></g><g transform="translate(-10,-10) scale(1,1)"><rect fill="#ffffff" stroke="none" x="258.58544921875" y="300" width="24.420312500000023" height="15"/></g><g transform="translate(-10,-10) scale(1,1)"><path fill="none" stroke="#000000" d="M 258.58544921875 300 L 283.00576171875 300 L 283.00576171875 315 L 258.58544921875 315 L 258.58544921875 300 Z Z" stroke-miterlimit="10"/></g><g transform="translate(-10,-10) scale(1,1)"><rect fill="#ffffff" stroke="none" x="258.58544921875" y="314" width="61.05078125" height="25"/></g><g transform="translate(-10,-10) scale(1,1)"><path fill="none" stroke="#000000" d="M 258.58544921875 314 L 319.63623046875 314 L 319.63623046875 339 L 258.58544921875 339 L 258.58544921875 314 Z Z" stroke-miterlimit="10"/></g><g transform="translate(-10,-10) scale(1,1)"><g><path fill="none" stroke="none"/><text fill="#000000" stroke="none" font-family="Arial" font-size="13px" font-style="normal" font-weight="bold" text-decoration="none" x="265.272216796875" y="334.5">services</text></g></g><g transform="translate(-10,-10) scale(1,1)"><rect fill="#C0C0C0" stroke="none" x="27" y="377" width="19.6" height="15" opacity="0.2"/></g><g transform="translate(-10,-10) scale(1,1)"><rect fill="#C0C0C0" stroke="none" x="27" y="391" width="49" height="25" opacity="0.2"/></g><g transform="translate(-10,-10) scale(1,1)"><rect fill="#ffffff" stroke="none" x="20" y="385" width="49" height="24"/></g><g transform="translate(-10,-10) scale(1,1)"><path fill="none" stroke="#000000" d="M 20 385 L 69 385 L 69 409 L 20 409 L 20 385 Z Z" stroke-miterlimit="10"/></g><g transform="translate(-10,-10) scale(1,1)"><rect fill="#ffffff" stroke="none" x="20" y="370" width="19.6" height="15"/></g><g transform="translate(-10,-10) scale(1,1)"><path fill="none" stroke="#000000" d="M 20 370 L 39.6 370 L 39.6 385 L 20 385 L 20 370 Z Z" stroke-miterlimit="10"/></g><g transform="translate(-10,-10) scale(1,1)"><rect fill="#ffffff" stroke="none" x="20" y="384" width="49" height="25"/></g><g transform="translate(-10,-10) scale(1,1)"><path fill="none" stroke="#000000" d="M 20 384 L 69 384 L 69 409 L 20 409 L 20 384 Z Z" stroke-miterlimit="10"/></g><g transform="translate(-10,-10) scale(1,1)"><g><path fill="none" stroke="none"/><text fill="#000000" stroke="none" font-family="Arial" font-size="13px" font-style="normal" font-weight="bold" text-decoration="none" x="31.84912109375" y="404.5">data</text></g></g><g transform="translate(-10,-10) scale(1,1)"><rect fill="#C0C0C0" stroke="none" x="107" y="377" width="26.720703125" height="15" opacity="0.2"/></g><g transform="translate(-10,-10) scale(1,1)"><rect fill="#C0C0C0" stroke="none" x="107" y="391" width="66.8017578125" height="25" opacity="0.2"/></g><g transform="translate(-10,-10) scale(1,1)"><rect fill="#ffffff" stroke="none" x="100" y="385" width="66.8017578125" height="24"/></g><g transform="translate(-10,-10) scale(1,1)"><path fill="none" stroke="#000000" d="M 100 385 L 166.8017578125 385 L 166.8017578125 409 L 100 409 L 100 385 Z Z" stroke-miterlimit="10"/></g><g transform="translate(-10,-10) scale(1,1)"><rect fill="#ffffff" stroke="none" x="100" y="370" width="26.720703125" height="15"/></g><g transform="translate(-10,-10) scale(1,1)"><path fill="none" stroke="#000000" d="M 100 370 L 126.720703125 370 L 126.720703125 385 L 100 385 L 100 370 Z Z" stroke-miterlimit="10"/></g><g transform="translate(-10,-10) scale(1,1)"><rect fill="#ffffff" stroke="none" x="100" y="384" width="66.8017578125" height="25"/></g><g transform="translate(-10,-10) scale(1,1)"><path fill="none" stroke="#000000" d="M 100 384 L 166.8017578125 384 L 166.8017578125 409 L 100 409 L 100 384 Z Z" stroke-miterlimit="10"/></g><g transform="translate(-10,-10) scale(1,1)"><g><path fill="none" stroke="none"/><text fill="#000000" stroke="none" font-family="Arial" font-size="13px" font-style="normal" font-weight="bold" text-decoration="none" x="106.661376953125" y="404.5">decoders</text></g></g><g transform="translate(-10,-10) scale(1,1)"><rect fill="#C0C0C0" stroke="none" x="204.8017578125" y="377" width="33.64472656250001" height="15" opacity="0.2"/></g><g transform="translate(-10,-10) scale(1,1)"><rect fill="#C0C0C0" stroke="none" x="204.8017578125" y="391" width="84.11181640625" height="25" opacity="0.2"/></g><g transform="translate(-10,-10) scale(1,1)"><rect fill="#ffffff" stroke="none" x="197.8017578125" y="385" width="84.11181640625" height="24"/></g><g transform="translate(-10,-10) scale(1,1)"><path fill="none" stroke="#000000" d="M 197.8017578125 385 L 281.91357421875 385 L 281.91357421875 409 L 197.8017578125 409 L 197.8017578125 385 Z Z" stroke-miterlimit="10"/></g><g transform="translate(-10,-10) scale(1,1)"><rect fill="#ffffff" stroke="none" x="197.8017578125" y="370" width="33.64472656250001" height="15"/></g><g transform="translate(-10,-10) scale(1,1)"><path fill="none" stroke="#000000" d="M 197.8017578125 370 L 231.446484375 370 L 231.446484375 385 L 197.8017578125 385 L 197.8017578125 370 Z Z" stroke-miterlimit="10"/></g><g transform="translate(-10,-10) scale(1,1)"><rect fill="#ffffff" stroke="none" x="197.8017578125" y="384" width="84.11181640625" height="25"/></g><g transform="translate(-10,-10) scale(1,1)"><path fill="none" stroke="#000000" d="M 197.8017578125 384 L 281.91357421875 384 L 281.91357421875 409 L 197.8017578125 409 L 197.8017578125 384 Z Z" stroke-miterlimit="10"/></g><g transform="translate(-10,-10) scale(1,1)"><g><path fill="none" stroke="none"/><text fill="#000000" stroke="none" font-family="Arial" font-size="13px" font-style="normal" font-weight="bold" text-decoration="none" x="205.167724609375" y="404.5">dpsConnect</text></g></g><g transform="translate(-10,-10) scale(1,1)"><rect fill="#C0C0C0" stroke="none" x="136.9783935546875" y="447" width="20.07343750000001" height="15" opacity="0.2"/></g><g transform="translate(-10,-10) scale(1,1)"><rect fill="#C0C0C0" stroke="none" x="136.9783935546875" y="461" width="50.18359375" height="25" opacity="0.2"/></g><g transform="translate(-10,-10) scale(1,1)"><rect fill="#ffffff" stroke="none" x="129.9783935546875" y="455" width="50.18359375" height="24"/></g><g transform="translate(-10,-10) scale(1,1)"><path fill="none" stroke="#000000" d="M 129.9783935546875 455 L 180.1619873046875 455 L 180.1619873046875 479 L 129.9783935546875 479 L 129.9783935546875 455 Z Z" stroke-miterlimit="10"/></g><g transform="translate(-10,-10) scale(1,1)"><rect fill="#ffffff" stroke="none" x="129.9783935546875" y="440" width="20.07343750000001" height="15"/></g><g transform="translate(-10,-10) scale(1,1)"><path fill="none" stroke="#000000" d="M 129.9783935546875 440 L 150.0518310546875 440 L 150.0518310546875 455 L 129.9783935546875 455 L 129.9783935546875 440 Z Z" stroke-miterlimit="10"/></g><g transform="translate(-10,-10) scale(1,1)"><rect fill="#ffffff" stroke="none" x="129.9783935546875" y="454" width="50.18359375" height="25"/></g><g transform="translate(-10,-10) scale(1,1)"><path fill="none" stroke="#000000" d="M 129.9783935546875 454 L 180.1619873046875 454 L 180.1619873046875 479 L 129.9783935546875 479 L 129.9783935546875 454 Z Z" stroke-miterlimit="10"/></g><g transform="translate(-10,-10) scale(1,1)"><g><path fill="none" stroke="none"/><text fill="#000000" stroke="none" font-family="Arial" font-size="13px" font-style="normal" font-weight="bold" text-decoration="none" x="135.9161376953125" y="474.5">enedis</text></g></g><g transform="translate(-10,-10) scale(1,1)"><rect fill="#C0C0C0" stroke="none" x="75.0743408203125" y="517" width="31.344335937500006" height="15" opacity="0.2"/></g><g transform="translate(-10,-10) scale(1,1)"><rect fill="#C0C0C0" stroke="none" x="75.0743408203125" y="531" width="78.36083984375" height="25" opacity="0.2"/></g><g transform="translate(-10,-10) scale(1,1)"><rect fill="#ffffff" stroke="none" x="68.0743408203125" y="525" width="78.36083984375" height="24"/></g><g transform="translate(-10,-10) scale(1,1)"><path fill="none" stroke="#000000" d="M 68.0743408203125 525 L 146.4351806640625 525 L 146.4351806640625 549 L 68.0743408203125 549 L 68.0743408203125 525 Z Z" stroke-miterlimit="10"/></g><g transform="translate(-10,-10) scale(1,1)"><rect fill="#ffffff" stroke="none" x="68.0743408203125" y="510" width="31.344335937500006" height="15"/></g><g transform="translate(-10,-10) scale(1,1)"><path fill="none" stroke="#000000" d="M 68.0743408203125 510 L 99.4186767578125 510 L 99.4186767578125 525 L 68.0743408203125 525 L 68.0743408203125 510 Z Z" stroke-miterlimit="10"/></g><g transform="translate(-10,-10) scale(1,1)"><rect fill="#ffffff" stroke="none" x="68.0743408203125" y="524" width="78.36083984375" height="25"/></g><g transform="translate(-10,-10) scale(1,1)"><path fill="none" stroke="#000000" d="M 68.0743408203125 524 L 146.4351806640625 524 L 146.4351806640625 549 L 68.0743408203125 549 L 68.0743408203125 524 Z Z" stroke-miterlimit="10"/></g><g transform="translate(-10,-10) scale(1,1)"><g><path fill="none" stroke="none"/><text fill="#000000" stroke="none" font-family="Arial" font-size="13px" font-style="normal" font-weight="bold" text-decoration="none" x="74.3707275390625" y="544.5">enedisData</text></g></g><g transform="translate(-10,-10) scale(1,1)"><rect fill="#C0C0C0" stroke="none" x="184.4351806640625" y="517" width="20.3603515625" height="15" opacity="0.2"/></g><g transform="translate(-10,-10) scale(1,1)"><rect fill="#C0C0C0" stroke="none" x="184.4351806640625" y="531" width="50.90087890625" height="25" opacity="0.2"/></g><g transform="translate(-10,-10) scale(1,1)"><rect fill="#ffffff" stroke="none" x="177.4351806640625" y="525" width="50.90087890625" height="24"/></g><g transform="translate(-10,-10) scale(1,1)"><path fill="none" stroke="#000000" d="M 177.4351806640625 525 L 228.3360595703125 525 L 228.3360595703125 549 L 177.4351806640625 549 L 177.4351806640625 525 Z Z" stroke-miterlimit="10"/></g><g transform="translate(-10,-10) scale(1,1)"><rect fill="#ffffff" stroke="none" x="177.4351806640625" y="510" width="20.3603515625" height="15"/></g><g transform="translate(-10,-10) scale(1,1)"><path fill="none" stroke="#000000" d="M 177.4351806640625 510 L 197.7955322265625 510 L 197.7955322265625 525 L 177.4351806640625 525 L 177.4351806640625 510 Z Z" stroke-miterlimit="10"/></g><g transform="translate(-10,-10) scale(1,1)"><rect fill="#ffffff" stroke="none" x="177.4351806640625" y="524" width="50.90087890625" height="25"/></g><g transform="translate(-10,-10) scale(1,1)"><path fill="none" stroke="#000000" d="M 177.4351806640625 524 L 228.3360595703125 524 L 228.3360595703125 549 L 177.4351806640625 549 L 177.4351806640625 524 Z Z" stroke-miterlimit="10"/></g><g transform="translate(-10,-10) scale(1,1)"><g><path fill="none" stroke="none"/><text fill="#000000" stroke="none" font-family="Arial" font-size="13px" font-style="normal" font-weight="bold" text-decoration="none" x="183.3760986328125" y="544.5">enums</text></g></g><g transform="translate(-10,-10) scale(1,1)"><rect fill="#C0C0C0" stroke="none" x="311.12353515625" y="447" width="19.600000000000023" height="15" opacity="0.2"/></g><g transform="translate(-10,-10) scale(1,1)"><rect fill="#C0C0C0" stroke="none" x="311.12353515625" y="461" width="49" height="25" opacity="0.2"/></g><g transform="translate(-10,-10) scale(1,1)"><rect fill="#ffffff" stroke="none" x="304.12353515625" y="455" width="49" height="24"/></g><g transform="translate(-10,-10) scale(1,1)"><path fill="none" stroke="#000000" d="M 304.12353515625 455 L 353.12353515625 455 L 353.12353515625 479 L 304.12353515625 479 L 304.12353515625 455 Z Z" stroke-miterlimit="10"/></g><g transform="translate(-10,-10) scale(1,1)"><rect fill="#ffffff" stroke="none" x="304.12353515625" y="440" width="19.600000000000023" height="15"/></g><g transform="translate(-10,-10) scale(1,1)"><path fill="none" stroke="#000000" d="M 304.12353515625 440 L 323.72353515625 440 L 323.72353515625 455 L 304.12353515625 455 L 304.12353515625 440 Z Z" stroke-miterlimit="10"/></g><g transform="translate(-10,-10) scale(1,1)"><rect fill="#ffffff" stroke="none" x="304.12353515625" y="454" width="49" height="25"/></g><g transform="translate(-10,-10) scale(1,1)"><path fill="none" stroke="#000000" d="M 304.12353515625 454 L 353.12353515625 454 L 353.12353515625 479 L 304.12353515625 479 L 304.12353515625 454 Z Z" stroke-miterlimit="10"/></g><g transform="translate(-10,-10) scale(1,1)"><g><path fill="none" stroke="none"/><text fill="#000000" stroke="none" font-family="Arial" font-size="13px" font-style="normal" font-weight="bold" text-decoration="none" x="317.423095703125" y="474.5">grdf</text></g></g><g transform="translate(-10,-10) scale(1,1)"><rect fill="#C0C0C0" stroke="none" x="266.3360595703125" y="517" width="20.3603515625" height="15" opacity="0.2"/></g><g transform="translate(-10,-10) scale(1,1)"><rect fill="#C0C0C0" stroke="none" x="266.3360595703125" y="531" width="50.90087890625" height="25" opacity="0.2"/></g><g transform="translate(-10,-10) scale(1,1)"><rect fill="#ffffff" stroke="none" x="259.3360595703125" y="525" width="50.90087890625" height="24"/></g><g transform="translate(-10,-10) scale(1,1)"><path fill="none" stroke="#000000" d="M 259.3360595703125 525 L 310.2369384765625 525 L 310.2369384765625 549 L 259.3360595703125 549 L 259.3360595703125 525 Z Z" stroke-miterlimit="10"/></g><g transform="translate(-10,-10) scale(1,1)"><rect fill="#ffffff" stroke="none" x="259.3360595703125" y="510" width="20.3603515625" height="15"/></g><g transform="translate(-10,-10) scale(1,1)"><path fill="none" stroke="#000000" d="M 259.3360595703125 510 L 279.6964111328125 510 L 279.6964111328125 525 L 259.3360595703125 525 L 259.3360595703125 510 Z Z" stroke-miterlimit="10"/></g><g transform="translate(-10,-10) scale(1,1)"><rect fill="#ffffff" stroke="none" x="259.3360595703125" y="524" width="50.90087890625" height="25"/></g><g transform="translate(-10,-10) scale(1,1)"><path fill="none" stroke="#000000" d="M 259.3360595703125 524 L 310.2369384765625 524 L 310.2369384765625 549 L 259.3360595703125 549 L 259.3360595703125 524 Z Z" stroke-miterlimit="10"/></g><g transform="translate(-10,-10) scale(1,1)"><g><path fill="none" stroke="none"/><text fill="#000000" stroke="none" font-family="Arial" font-size="13px" font-style="normal" font-weight="bold" text-decoration="none" x="265.2769775390625" y="544.5">enums</text></g></g><g transform="translate(-10,-10) scale(1,1)"><rect fill="#C0C0C0" stroke="none" x="348.2369384765625" y="517" width="24.978906250000023" height="15" opacity="0.2"/></g><g transform="translate(-10,-10) scale(1,1)"><rect fill="#C0C0C0" stroke="none" x="348.2369384765625" y="531" width="62.447265625" height="25" opacity="0.2"/></g><g transform="translate(-10,-10) scale(1,1)"><rect fill="#ffffff" stroke="none" x="341.2369384765625" y="525" width="62.447265625" height="24"/></g><g transform="translate(-10,-10) scale(1,1)"><path fill="none" stroke="#000000" d="M 341.2369384765625 525 L 403.6842041015625 525 L 403.6842041015625 549 L 341.2369384765625 549 L 341.2369384765625 525 Z Z" stroke-miterlimit="10"/></g><g transform="translate(-10,-10) scale(1,1)"><rect fill="#ffffff" stroke="none" x="341.2369384765625" y="510" width="24.978906250000023" height="15"/></g><g transform="translate(-10,-10) scale(1,1)"><path fill="none" stroke="#000000" d="M 341.2369384765625 510 L 366.2158447265625 510 L 366.2158447265625 525 L 341.2369384765625 525 L 341.2369384765625 510 Z Z" stroke-miterlimit="10"/></g><g transform="translate(-10,-10) scale(1,1)"><rect fill="#ffffff" stroke="none" x="341.2369384765625" y="524" width="62.447265625" height="25"/></g><g transform="translate(-10,-10) scale(1,1)"><path fill="none" stroke="#000000" d="M 341.2369384765625 524 L 403.6842041015625 524 L 403.6842041015625 549 L 341.2369384765625 549 L 341.2369384765625 524 Z Z" stroke-miterlimit="10"/></g><g transform="translate(-10,-10) scale(1,1)"><g><path fill="none" stroke="none"/><text fill="#000000" stroke="none" font-family="Arial" font-size="13px" font-style="normal" font-weight="bold" text-decoration="none" x="347.5301513671875" y="544.5">grdfData</text></g></g><g transform="translate(-10,-10) scale(1,1)"><rect fill="#C0C0C0" stroke="none" x="399.731689453125" y="377" width="20.3603515625" height="15" opacity="0.2"/></g><g transform="translate(-10,-10) scale(1,1)"><rect fill="#C0C0C0" stroke="none" x="399.731689453125" y="391" width="50.90087890625" height="25" opacity="0.2"/></g><g transform="translate(-10,-10) scale(1,1)"><rect fill="#ffffff" stroke="none" x="392.731689453125" y="385" width="50.90087890625" height="24"/></g><g transform="translate(-10,-10) scale(1,1)"><path fill="none" stroke="#000000" d="M 392.731689453125 385 L 443.632568359375 385 L 443.632568359375 409 L 392.731689453125 409 L 392.731689453125 385 Z Z" stroke-miterlimit="10"/></g><g transform="translate(-10,-10) scale(1,1)"><rect fill="#ffffff" stroke="none" x="392.731689453125" y="370" width="20.3603515625" height="15"/></g><g transform="translate(-10,-10) scale(1,1)"><path fill="none" stroke="#000000" d="M 392.731689453125 370 L 413.092041015625 370 L 413.092041015625 385 L 392.731689453125 385 L 392.731689453125 370 Z Z" stroke-miterlimit="10"/></g><g transform="translate(-10,-10) scale(1,1)"><rect fill="#ffffff" stroke="none" x="392.731689453125" y="384" width="50.90087890625" height="25"/></g><g transform="translate(-10,-10) scale(1,1)"><path fill="none" stroke="#000000" d="M 392.731689453125 384 L 443.632568359375 384 L 443.632568359375 409 L 392.731689453125 409 L 392.731689453125 384 Z Z" stroke-miterlimit="10"/></g><g transform="translate(-10,-10) scale(1,1)"><g><path fill="none" stroke="none"/><text fill="#000000" stroke="none" font-family="Arial" font-size="13px" font-style="normal" font-weight="bold" text-decoration="none" x="398.672607421875" y="404.5">enums</text></g></g><g transform="translate(-10,-10) scale(1,1)"><rect fill="#C0C0C0" stroke="none" x="481.632568359375" y="377" width="26.13671875" height="15" opacity="0.2"/></g><g transform="translate(-10,-10) scale(1,1)"><rect fill="#C0C0C0" stroke="none" x="481.632568359375" y="391" width="65.341796875" height="25" opacity="0.2"/></g><g transform="translate(-10,-10) scale(1,1)"><rect fill="#ffffff" stroke="none" x="474.632568359375" y="385" width="65.341796875" height="24"/></g><g transform="translate(-10,-10) scale(1,1)"><path fill="none" stroke="#000000" d="M 474.632568359375 385 L 539.974365234375 385 L 539.974365234375 409 L 474.632568359375 409 L 474.632568359375 385 Z Z" stroke-miterlimit="10"/></g><g transform="translate(-10,-10) scale(1,1)"><rect fill="#ffffff" stroke="none" x="474.632568359375" y="370" width="26.13671875" height="15"/></g><g transform="translate(-10,-10) scale(1,1)"><path fill="none" stroke="#000000" d="M 474.632568359375 370 L 500.769287109375 370 L 500.769287109375 385 L 474.632568359375 385 L 474.632568359375 370 Z Z" stroke-miterlimit="10"/></g><g transform="translate(-10,-10) scale(1,1)"><rect fill="#ffffff" stroke="none" x="474.632568359375" y="384" width="65.341796875" height="25"/></g><g transform="translate(-10,-10) scale(1,1)"><path fill="none" stroke="#000000" d="M 474.632568359375 384 L 539.974365234375 384 L 539.974365234375 409 L 474.632568359375 409 L 474.632568359375 384 Z Z" stroke-miterlimit="10"/></g><g transform="translate(-10,-10) scale(1,1)"><g><path fill="none" stroke="none"/><text fill="#000000" stroke="none" font-family="Arial" font-size="13px" font-style="normal" font-weight="bold" text-decoration="none" x="481.6494140625" y="404.5">producer</text></g></g><g transform="translate(-10,-10) scale(1,1)"><rect fill="#C0C0C0" stroke="none" x="391.12353515625" y="447" width="20.3603515625" height="15" opacity="0.2"/></g><g transform="translate(-10,-10) scale(1,1)"><rect fill="#C0C0C0" stroke="none" x="391.12353515625" y="461" width="50.90087890625" height="25" opacity="0.2"/></g><g transform="translate(-10,-10) scale(1,1)"><rect fill="#ffffff" stroke="none" x="384.12353515625" y="455" width="50.90087890625" height="24"/></g><g transform="translate(-10,-10) scale(1,1)"><path fill="none" stroke="#000000" d="M 384.12353515625 455 L 435.0244140625 455 L 435.0244140625 479 L 384.12353515625 479 L 384.12353515625 455 Z Z" stroke-miterlimit="10"/></g><g transform="translate(-10,-10) scale(1,1)"><rect fill="#ffffff" stroke="none" x="384.12353515625" y="440" width="20.3603515625" height="15"/></g><g transform="translate(-10,-10) scale(1,1)"><path fill="none" stroke="#000000" d="M 384.12353515625 440 L 404.48388671875 440 L 404.48388671875 455 L 384.12353515625 455 L 384.12353515625 440 Z Z" stroke-miterlimit="10"/></g><g transform="translate(-10,-10) scale(1,1)"><rect fill="#ffffff" stroke="none" x="384.12353515625" y="454" width="50.90087890625" height="25"/></g><g transform="translate(-10,-10) scale(1,1)"><path fill="none" stroke="#000000" d="M 384.12353515625 454 L 435.0244140625 454 L 435.0244140625 479 L 384.12353515625 479 L 384.12353515625 454 Z Z" stroke-miterlimit="10"/></g><g transform="translate(-10,-10) scale(1,1)"><g><path fill="none" stroke="none"/><text fill="#000000" stroke="none" font-family="Arial" font-size="13px" font-style="normal" font-weight="bold" text-decoration="none" x="390.064453125" y="474.5">enums</text></g></g><g transform="translate(-10,-10) scale(1,1)"><rect fill="#C0C0C0" stroke="none" x="474.0391845703125" y="447" width="38.557812499999955" height="15" opacity="0.2"/></g><g transform="translate(-10,-10) scale(1,1)"><rect fill="#C0C0C0" stroke="none" x="474.0391845703125" y="461" width="96.39453125" height="25" opacity="0.2"/></g><g transform="translate(-10,-10) scale(1,1)"><rect fill="#ffffff" stroke="none" x="467.0391845703125" y="455" width="96.39453125" height="24"/></g><g transform="translate(-10,-10) scale(1,1)"><path fill="none" stroke="#000000" d="M 467.0391845703125 455 L 563.4337158203125 455 L 563.4337158203125 479 L 467.0391845703125 479 L 467.0391845703125 455 Z Z" stroke-miterlimit="10"/></g><g transform="translate(-10,-10) scale(1,1)"><rect fill="#ffffff" stroke="none" x="467.0391845703125" y="440" width="38.55781250000001" height="15"/></g><g transform="translate(-10,-10) scale(1,1)"><path fill="none" stroke="#000000" d="M 467.0391845703125 440 L 505.5969970703125 440 L 505.5969970703125 455 L 467.0391845703125 455 L 467.0391845703125 440 Z Z" stroke-miterlimit="10"/></g><g transform="translate(-10,-10) scale(1,1)"><rect fill="#ffffff" stroke="none" x="467.0391845703125" y="454" width="96.39453125" height="25"/></g><g transform="translate(-10,-10) scale(1,1)"><path fill="none" stroke="#000000" d="M 467.0391845703125 454 L 563.4337158203125 454 L 563.4337158203125 479 L 467.0391845703125 479 L 467.0391845703125 454 Z Z" stroke-miterlimit="10"/></g><g transform="translate(-10,-10) scale(1,1)"><g><path fill="none" stroke="none"/><text fill="#000000" stroke="none" font-family="Arial" font-size="13px" font-style="normal" font-weight="bold" text-decoration="none" x="475.1319580078125" y="474.5">meteringPoint</text></g></g><g transform="translate(-10,-10) scale(1,1)"><rect fill="#C0C0C0" stroke="none" x="601.4337158203125" y="447" width="31.623632812499977" height="15" opacity="0.2"/></g><g transform="translate(-10,-10) scale(1,1)"><rect fill="#C0C0C0" stroke="none" x="601.4337158203125" y="461" width="79.05908203125" height="25" opacity="0.2"/></g><g transform="translate(-10,-10) scale(1,1)"><rect fill="#ffffff" stroke="none" x="594.4337158203125" y="455" width="79.05908203125" height="24"/></g><g transform="translate(-10,-10) scale(1,1)"><path fill="none" stroke="#000000" d="M 594.4337158203125 455 L 673.4927978515625 455 L 673.4927978515625 479 L 594.4337158203125 479 L 594.4337158203125 455 Z Z" stroke-miterlimit="10"/></g><g transform="translate(-10,-10) scale(1,1)"><rect fill="#ffffff" stroke="none" x="594.4337158203125" y="440" width="31.623632812499977" height="15"/></g><g transform="translate(-10,-10) scale(1,1)"><path fill="none" stroke="#000000" d="M 594.4337158203125 440 L 626.0573486328125 440 L 626.0573486328125 455 L 594.4337158203125 455 L 594.4337158203125 440 Z Z" stroke-miterlimit="10"/></g><g transform="translate(-10,-10) scale(1,1)"><rect fill="#ffffff" stroke="none" x="594.4337158203125" y="454" width="79.05908203125" height="25"/></g><g transform="translate(-10,-10) scale(1,1)"><path fill="none" stroke="#000000" d="M 594.4337158203125 454 L 673.4927978515625 454 L 673.4927978515625 479 L 594.4337158203125 479 L 594.4337158203125 454 Z Z" stroke-miterlimit="10"/></g><g transform="translate(-10,-10) scale(1,1)"><g><path fill="none" stroke="none"/><text fill="#000000" stroke="none" font-family="Arial" font-size="13px" font-style="normal" font-weight="bold" text-decoration="none" x="600.7237548828125" y="474.5">RequestMp</text></g></g><g transform="translate(-10,-10) scale(1,1)"><rect fill="#C0C0C0" stroke="none" x="577.974365234375" y="377" width="19.600000000000023" height="15" opacity="0.2"/></g><g transform="translate(-10,-10) scale(1,1)"><rect fill="#C0C0C0" stroke="none" x="577.974365234375" y="391" width="49" height="25" opacity="0.2"/></g><g transform="translate(-10,-10) scale(1,1)"><rect fill="#ffffff" stroke="none" x="570.974365234375" y="385" width="49" height="24"/></g><g transform="translate(-10,-10) scale(1,1)"><path fill="none" stroke="#000000" d="M 570.974365234375 385 L 619.974365234375 385 L 619.974365234375 409 L 570.974365234375 409 L 570.974365234375 385 Z Z" stroke-miterlimit="10"/></g><g transform="translate(-10,-10) scale(1,1)"><rect fill="#ffffff" stroke="none" x="570.974365234375" y="370" width="19.600000000000023" height="15"/></g><g transform="translate(-10,-10) scale(1,1)"><path fill="none" stroke="#000000" d="M 570.974365234375 370 L 590.574365234375 370 L 590.574365234375 385 L 570.974365234375 385 L 570.974365234375 370 Z Z" stroke-miterlimit="10"/></g><g transform="translate(-10,-10) scale(1,1)"><rect fill="#ffffff" stroke="none" x="570.974365234375" y="384" width="49" height="25"/></g><g transform="translate(-10,-10) scale(1,1)"><path fill="none" stroke="#000000" d="M 570.974365234375 384 L 619.974365234375 384 L 619.974365234375 409 L 570.974365234375 409 L 570.974365234375 384 Z Z" stroke-miterlimit="10"/></g><g transform="translate(-10,-10) scale(1,1)"><g><path fill="none" stroke="none"/><text fill="#000000" stroke="none" font-family="Arial" font-size="13px" font-style="normal" font-weight="bold" text-decoration="none" x="583.915283203125" y="404.5">utils</text></g></g><g transform="translate(-10,-10) scale(1,1)"><path fill="none" stroke="#000000" d="M 192 89 Q 192 75 192 60" stroke-miterlimit="10"/></g><g transform="translate(-10,-10) scale(1,1)"><path fill="#FFFFFF" stroke="none" d="M 185 67 C 185 63.1340064 188.1340064 60 192 60 C 195.8659936 60 199 63.1340064 199 67 C 199 70.8659936 195.8659936 74 192 74 C 188.1340064 74 185 70.8659936 185 67 Z"/></g><g transform="translate(-10,-10) scale(1,1)"><path fill="none" stroke="#000000" d="M 185 67 C 185 63.1340064 188.1340064 60 192 60 C 195.8659936 60 199 63.1340064 199 67 C 199 70.8659936 195.8659936 74 192 74 C 188.1340064 74 185 70.8659936 185 67 Z" stroke-miterlimit="10"/></g><g transform="translate(-10,-10) scale(1,1)"><path fill="none" stroke="#000000" d="M 192 74 L 192 60" stroke-miterlimit="10"/></g><g transform="translate(-10,-10) scale(1,1)"><path fill="none" stroke="#000000" d="M 199 67 L 185 67" stroke-miterlimit="10"/></g><g transform="translate(-10,-10) scale(1,1)"><path fill="none" stroke="#000000" d="M 192 159 Q 192 145 192 130" stroke-miterlimit="10"/></g><g transform="translate(-10,-10) scale(1,1)"><path fill="#FFFFFF" stroke="none" d="M 185 137 C 185 133.1340064 188.1340064 130 192 130 C 195.8659936 130 199 133.1340064 199 137 C 199 140.8659936 195.8659936 144 192 144 C 188.1340064 144 185 140.8659936 185 137 Z"/></g><g transform="translate(-10,-10) scale(1,1)"><path fill="none" stroke="#000000" d="M 185 137 C 185 133.1340064 188.1340064 130 192 130 C 195.8659936 130 199 133.1340064 199 137 C 199 140.8659936 195.8659936 144 192 144 C 188.1340064 144 185 140.8659936 185 137 Z" stroke-miterlimit="10"/></g><g transform="translate(-10,-10) scale(1,1)"><path fill="none" stroke="#000000" d="M 192 144 L 192 130" stroke-miterlimit="10"/></g><g transform="translate(-10,-10) scale(1,1)"><path fill="none" stroke="#000000" d="M 199 137 L 185 137" stroke-miterlimit="10"/></g><g transform="translate(-10,-10) scale(1,1)"><path fill="none" stroke="#000000" d="M 192 229 Q 192 215 192 200" stroke-miterlimit="10"/></g><g transform="translate(-10,-10) scale(1,1)"><path fill="#FFFFFF" stroke="none" d="M 185 207 C 185 203.1340064 188.1340064 200 192 200 C 195.8659936 200 199 203.1340064 199 207 C 199 210.8659936 195.8659936 214 192 214 C 188.1340064 214 185 210.8659936 185 207 Z"/></g><g transform="translate(-10,-10) scale(1,1)"><path fill="none" stroke="#000000" d="M 185 207 C 185 203.1340064 188.1340064 200 192 200 C 195.8659936 200 199 203.1340064 199 207 C 199 210.8659936 195.8659936 214 192 214 C 188.1340064 214 185 210.8659936 185 207 Z" stroke-miterlimit="10"/></g><g transform="translate(-10,-10) scale(1,1)"><path fill="none" stroke="#000000" d="M 192 214 L 192 200" stroke-miterlimit="10"/></g><g transform="translate(-10,-10) scale(1,1)"><path fill="none" stroke="#000000" d="M 199 207 L 185 207" stroke-miterlimit="10"/></g><g transform="translate(-10,-10) scale(1,1)"><path fill="none" stroke="#000000" d="M 148 299 Q 148 285 166 270" stroke-miterlimit="10"/></g><g transform="translate(-10,-10) scale(1,1)"><path fill="#FFFFFF" stroke="none" d="M 153.62245104281837 274.48129079765135 C 153.62245104281837 270.61529719765133 156.75645744281837 267.48129079765135 160.62245104281837 267.48129079765135 C 164.48844464281837 267.48129079765135 167.62245104281837 270.61529719765133 167.62245104281837 274.48129079765135 C 167.62245104281837 278.3472843976514 164.48844464281837 281.48129079765135 160.62245104281837 281.48129079765135 C 156.75645744281837 281.48129079765135 153.62245104281837 278.3472843976514 153.62245104281837 274.48129079765135 Z"/></g><g transform="translate(-10,-10) scale(1,1)"><path fill="none" stroke="#000000" d="M 153.62245104281837 274.48129079765135 C 153.62245104281837 270.61529719765133 156.75645744281837 267.48129079765135 160.62245104281837 267.48129079765135 C 164.48844464281837 267.48129079765135 167.62245104281837 270.61529719765133 167.62245104281837 274.48129079765135 C 167.62245104281837 278.3472843976514 164.48844464281837 281.48129079765135 160.62245104281837 281.48129079765135 C 156.75645744281837 281.48129079765135 153.62245104281837 278.3472843976514 153.62245104281837 274.48129079765135 Z" stroke-miterlimit="10"/></g><g transform="translate(-10,-10) scale(1,1)"><path fill="none" stroke="#000000" d="M 155.24490208563674 278.9625815953027 L 166 270" stroke-miterlimit="10"/></g><g transform="translate(-10,-10) scale(1,1)"><path fill="none" stroke="#000000" d="M 165.10374184046972 279.85883975483296 L 156.14116024516701 269.10374184046975" stroke-miterlimit="10"/></g><g transform="translate(-10,-10) scale(1,1)"><path fill="none" stroke="#000000" d="M 290 299 Q 290 285 217 258" stroke-miterlimit="10"/></g><g transform="translate(-10,-10) scale(1,1)"><path fill="#FFFFFF" stroke="none" d="M 216.56532554446366 260.4282710917879 C 216.56532554446366 256.5622774917879 219.69933194446367 253.4282710917879 223.56532554446366 253.4282710917879 C 227.43131914446366 253.4282710917879 230.56532554446366 256.5622774917879 230.56532554446366 260.4282710917879 C 230.56532554446366 264.29426469178793 227.43131914446366 267.4282710917879 223.56532554446366 267.4282710917879 C 219.69933194446367 267.4282710917879 216.56532554446366 264.29426469178793 216.56532554446366 260.4282710917879 Z"/></g><g transform="translate(-10,-10) scale(1,1)"><path fill="none" stroke="#000000" d="M 216.56532554446366 260.4282710917879 C 216.56532554446366 256.5622774917879 219.69933194446367 253.4282710917879 223.56532554446366 253.4282710917879 C 227.43131914446366 253.4282710917879 230.56532554446366 256.5622774917879 230.56532554446366 260.4282710917879 C 230.56532554446366 264.29426469178793 227.43131914446366 267.4282710917879 223.56532554446366 267.4282710917879 C 219.69933194446367 267.4282710917879 216.56532554446366 264.29426469178793 216.56532554446366 260.4282710917879 Z" stroke-miterlimit="10"/></g><g transform="translate(-10,-10) scale(1,1)"><path fill="none" stroke="#000000" d="M 230.13065108892732 262.85654218357587 L 217 258" stroke-miterlimit="10"/></g><g transform="translate(-10,-10) scale(1,1)"><path fill="none" stroke="#000000" d="M 225.9935966362516 253.86294554732424 L 221.13705445267573 266.99359663625154" stroke-miterlimit="10"/></g><g transform="translate(-10,-10) scale(1,1)"><path fill="none" stroke="#000000" d="M 45 369 Q 45 355 258 324" stroke-miterlimit="10"/></g><g transform="translate(-10,-10) scale(1,1)"><path fill="#FFFFFF" stroke="none" d="M 244.07297917381212 325.0081579606189 C 244.07297917381212 321.1421643606189 247.2069855738121 318.0081579606189 251.0729791738121 318.0081579606189 C 254.93897277381208 318.0081579606189 258.0729791738121 321.1421643606189 258.0729791738121 325.0081579606189 C 258.0729791738121 328.87415156061894 254.93897277381208 332.0081579606189 251.0729791738121 332.0081579606189 C 247.2069855738121 332.0081579606189 244.07297917381212 328.87415156061894 244.07297917381212 325.0081579606189 Z"/></g><g transform="translate(-10,-10) scale(1,1)"><path fill="none" stroke="#000000" d="M 244.07297917381212 325.0081579606189 C 244.07297917381212 321.1421643606189 247.2069855738121 318.0081579606189 251.0729791738121 318.0081579606189 C 254.93897277381208 318.0081579606189 258.0729791738121 321.1421643606189 258.0729791738121 325.0081579606189 C 258.0729791738121 328.87415156061894 254.93897277381208 332.0081579606189 251.0729791738121 332.0081579606189 C 247.2069855738121 332.0081579606189 244.07297917381212 328.87415156061894 244.07297917381212 325.0081579606189 Z" stroke-miterlimit="10"/></g><g transform="translate(-10,-10) scale(1,1)"><path fill="none" stroke="#000000" d="M 244.14595834762423 326.0163159212378 L 258 324" stroke-miterlimit="10"/></g><g transform="translate(-10,-10) scale(1,1)"><path fill="none" stroke="#000000" d="M 252.081137134431 331.93517878680683 L 250.06482121319323 318.081137134431" stroke-miterlimit="10"/></g><g transform="translate(-10,-10) scale(1,1)"><path fill="none" stroke="#000000" d="M 134 369 Q 134 355 258 326" stroke-miterlimit="10"/></g><g transform="translate(-10,-10) scale(1,1)"><path fill="#FFFFFF" stroke="none" d="M 244.18392333133562 327.5940824467038 C 244.18392333133562 323.72808884670377 247.31792973133562 320.5940824467038 251.18392333133562 320.5940824467038 C 255.04991693133562 320.5940824467038 258.1839233313356 323.72808884670377 258.1839233313356 327.5940824467038 C 258.1839233313356 331.4600760467038 255.04991693133562 334.5940824467038 251.18392333133562 334.5940824467038 C 247.31792973133562 334.5940824467038 244.18392333133562 331.4600760467038 244.18392333133562 327.5940824467038 Z"/></g><g transform="translate(-10,-10) scale(1,1)"><path fill="none" stroke="#000000" d="M 244.18392333133562 327.5940824467038 C 244.18392333133562 323.72808884670377 247.31792973133562 320.5940824467038 251.18392333133562 320.5940824467038 C 255.04991693133562 320.5940824467038 258.1839233313356 323.72808884670377 258.1839233313356 327.5940824467038 C 258.1839233313356 331.4600760467038 255.04991693133562 334.5940824467038 251.18392333133562 334.5940824467038 C 247.31792973133562 334.5940824467038 244.18392333133562 331.4600760467038 244.18392333133562 327.5940824467038 Z" stroke-miterlimit="10"/></g><g transform="translate(-10,-10) scale(1,1)"><path fill="none" stroke="#000000" d="M 244.36784666267124 329.18816489340753 L 258 326" stroke-miterlimit="10"/></g><g transform="translate(-10,-10) scale(1,1)"><path fill="none" stroke="#000000" d="M 252.7780057780394 334.4101591153682 L 249.58984088463185 320.7780057780394" stroke-miterlimit="10"/></g><g transform="translate(-10,-10) scale(1,1)"><path fill="none" stroke="#000000" d="M 240 369 Q 240 355 260 340" stroke-miterlimit="10"/></g><g transform="translate(-10,-10) scale(1,1)"><path fill="#FFFFFF" stroke="none" d="M 247.4 344.2 C 247.4 340.33400639999996 250.53400639999998 337.2 254.39999999999998 337.2 C 258.26599359999994 337.2 261.4 340.33400639999996 261.4 344.2 C 261.4 348.0659936 258.26599359999994 351.2 254.39999999999998 351.2 C 250.53400639999998 351.2 247.4 348.0659936 247.4 344.2 Z"/></g><g transform="translate(-10,-10) scale(1,1)"><path fill="none" stroke="#000000" d="M 247.4 344.2 C 247.4 340.33400639999996 250.53400639999998 337.2 254.39999999999998 337.2 C 258.26599359999994 337.2 261.4 340.33400639999996 261.4 344.2 C 261.4 348.0659936 258.26599359999994 351.2 254.39999999999998 351.2 C 250.53400639999998 351.2 247.4 348.0659936 247.4 344.2 Z" stroke-miterlimit="10"/></g><g transform="translate(-10,-10) scale(1,1)"><path fill="none" stroke="#000000" d="M 248.8 348.4 L 260 340" stroke-miterlimit="10"/></g><g transform="translate(-10,-10) scale(1,1)"><path fill="none" stroke="#000000" d="M 258.6 349.8 L 250.20000000000002 338.59999999999997" stroke-miterlimit="10"/></g><g transform="translate(-10,-10) scale(1,1)"><path fill="none" stroke="#000000" d="M 156 439 Q 156 425 197 407" stroke-miterlimit="10"/></g><g transform="translate(-10,-10) scale(1,1)"><path fill="#FFFFFF" stroke="none" d="M 183.590491788661 409.8139304342464 C 183.590491788661 405.9479368342464 186.72449818866102 402.8139304342464 190.590491788661 402.8139304342464 C 194.456485388661 402.8139304342464 197.590491788661 405.9479368342464 197.590491788661 409.8139304342464 C 197.590491788661 413.6799240342464 194.456485388661 416.8139304342464 190.590491788661 416.8139304342464 C 186.72449818866102 416.8139304342464 183.590491788661 413.6799240342464 183.590491788661 409.8139304342464 Z"/></g><g transform="translate(-10,-10) scale(1,1)"><path fill="none" stroke="#000000" d="M 183.590491788661 409.8139304342464 C 183.590491788661 405.9479368342464 186.72449818866102 402.8139304342464 190.590491788661 402.8139304342464 C 194.456485388661 402.8139304342464 197.590491788661 405.9479368342464 197.590491788661 409.8139304342464 C 197.590491788661 413.6799240342464 194.456485388661 416.8139304342464 190.590491788661 416.8139304342464 C 186.72449818866102 416.8139304342464 183.590491788661 413.6799240342464 183.590491788661 409.8139304342464 Z" stroke-miterlimit="10"/></g><g transform="translate(-10,-10) scale(1,1)"><path fill="none" stroke="#000000" d="M 184.18098357732202 412.62786086849275 L 197 407" stroke-miterlimit="10"/></g><g transform="translate(-10,-10) scale(1,1)"><path fill="none" stroke="#000000" d="M 193.40442222290739 416.2234386455854 L 187.77656135441464 403.4044222229074" stroke-miterlimit="10"/></g><g transform="translate(-10,-10) scale(1,1)"><path fill="none" stroke="#000000" d="M 108 509 Q 108 495 129 479" stroke-miterlimit="10"/></g><g transform="translate(-10,-10) scale(1,1)"><path fill="#FFFFFF" stroke="none" d="M 116.43197795977251 483.24230250684 C 116.43197795977251 479.37630890684 119.5659843597725 476.24230250684 123.4319779597725 476.24230250684 C 127.29797155977249 476.24230250684 130.4319779597725 479.37630890684 130.4319779597725 483.24230250684 C 130.4319779597725 487.10829610684004 127.29797155977249 490.24230250684 123.4319779597725 490.24230250684 C 119.5659843597725 490.24230250684 116.43197795977251 487.10829610684004 116.43197795977251 483.24230250684 Z"/></g><g transform="translate(-10,-10) scale(1,1)"><path fill="none" stroke="#000000" d="M 116.43197795977251 483.24230250684 C 116.43197795977251 479.37630890684 119.5659843597725 476.24230250684 123.4319779597725 476.24230250684 C 127.29797155977249 476.24230250684 130.4319779597725 479.37630890684 130.4319779597725 483.24230250684 C 130.4319779597725 487.10829610684004 127.29797155977249 490.24230250684 123.4319779597725 490.24230250684 C 119.5659843597725 490.24230250684 116.43197795977251 487.10829610684004 116.43197795977251 483.24230250684 Z" stroke-miterlimit="10"/></g><g transform="translate(-10,-10) scale(1,1)"><path fill="none" stroke="#000000" d="M 117.86395591954502 487.48460501368 L 129 479" stroke-miterlimit="10"/></g><g transform="translate(-10,-10) scale(1,1)"><path fill="none" stroke="#000000" d="M 127.6742804666125 488.8103245470675 L 119.18967545293252 477.6742804666125" stroke-miterlimit="10"/></g><g transform="translate(-10,-10) scale(1,1)"><path fill="none" stroke="#000000" d="M 203 509 Q 203 495 181 479" stroke-miterlimit="10"/></g><g transform="translate(-10,-10) scale(1,1)"><path fill="#FFFFFF" stroke="none" d="M 179.66115259012233 483.11720188372533 C 179.66115259012233 479.2512082837253 182.79515899012233 476.11720188372533 186.66115259012233 476.11720188372533 C 190.52714619012232 476.11720188372533 193.66115259012233 479.2512082837253 193.66115259012233 483.11720188372533 C 193.66115259012233 486.98319548372535 190.52714619012232 490.11720188372533 186.66115259012233 490.11720188372533 C 182.79515899012233 490.11720188372533 179.66115259012233 486.98319548372535 179.66115259012233 483.11720188372533 Z"/></g><g transform="translate(-10,-10) scale(1,1)"><path fill="none" stroke="#000000" d="M 179.66115259012233 483.11720188372533 C 179.66115259012233 479.2512082837253 182.79515899012233 476.11720188372533 186.66115259012233 476.11720188372533 C 190.52714619012232 476.11720188372533 193.66115259012233 479.2512082837253 193.66115259012233 483.11720188372533 C 193.66115259012233 486.98319548372535 190.52714619012232 490.11720188372533 186.66115259012233 490.11720188372533 C 182.79515899012233 490.11720188372533 179.66115259012233 486.98319548372535 179.66115259012233 483.11720188372533 Z" stroke-miterlimit="10"/></g><g transform="translate(-10,-10) scale(1,1)"><path fill="none" stroke="#000000" d="M 192.32230518024465 487.23440376745066 L 181 479" stroke-miterlimit="10"/></g><g transform="translate(-10,-10) scale(1,1)"><path fill="none" stroke="#000000" d="M 190.77835447384766 477.45604929360303 L 182.543950706397 488.7783544738476" stroke-miterlimit="10"/></g><g transform="translate(-10,-10) scale(1,1)"><path fill="none" stroke="#000000" d="M 329 439 Q 329 425 283 407" stroke-miterlimit="10"/></g><g transform="translate(-10,-10) scale(1,1)"><path fill="#FFFFFF" stroke="none" d="M 282.5186994579403 409.5507954400636 C 282.5186994579403 405.6848018400636 285.65270585794025 402.5507954400636 289.5186994579403 402.5507954400636 C 293.3846930579403 402.5507954400636 296.5186994579403 405.6848018400636 296.5186994579403 409.5507954400636 C 296.5186994579403 413.41678904006363 293.3846930579403 416.5507954400636 289.5186994579403 416.5507954400636 C 285.65270585794025 416.5507954400636 282.5186994579403 413.41678904006363 282.5186994579403 409.5507954400636 Z"/></g><g transform="translate(-10,-10) scale(1,1)"><path fill="none" stroke="#000000" d="M 282.5186994579403 409.5507954400636 C 282.5186994579403 405.6848018400636 285.65270585794025 402.5507954400636 289.5186994579403 402.5507954400636 C 293.3846930579403 402.5507954400636 296.5186994579403 405.6848018400636 296.5186994579403 409.5507954400636 C 296.5186994579403 413.41678904006363 293.3846930579403 416.5507954400636 289.5186994579403 416.5507954400636 C 285.65270585794025 416.5507954400636 282.5186994579403 413.41678904006363 282.5186994579403 409.5507954400636 Z" stroke-miterlimit="10"/></g><g transform="translate(-10,-10) scale(1,1)"><path fill="none" stroke="#000000" d="M 296.03739891588054 412.10159088012716 L 283 407" stroke-miterlimit="10"/></g><g transform="translate(-10,-10) scale(1,1)"><path fill="none" stroke="#000000" d="M 292.0694948980039 403.03209598212334 L 286.96790401787666 416.0694948980039" stroke-miterlimit="10"/></g><g transform="translate(-10,-10) scale(1,1)"><path fill="none" stroke="#000000" d="M 285 509 Q 285 495 303 480" stroke-miterlimit="10"/></g><g transform="translate(-10,-10) scale(1,1)"><path fill="#FFFFFF" stroke="none" d="M 290.6224510428184 484.48129079765135 C 290.6224510428184 480.61529719765133 293.7564574428184 477.48129079765135 297.6224510428184 477.48129079765135 C 301.4884446428184 477.48129079765135 304.6224510428184 480.61529719765133 304.6224510428184 484.48129079765135 C 304.6224510428184 488.3472843976514 301.4884446428184 491.48129079765135 297.6224510428184 491.48129079765135 C 293.7564574428184 491.48129079765135 290.6224510428184 488.3472843976514 290.6224510428184 484.48129079765135 Z"/></g><g transform="translate(-10,-10) scale(1,1)"><path fill="none" stroke="#000000" d="M 290.6224510428184 484.48129079765135 C 290.6224510428184 480.61529719765133 293.7564574428184 477.48129079765135 297.6224510428184 477.48129079765135 C 301.4884446428184 477.48129079765135 304.6224510428184 480.61529719765133 304.6224510428184 484.48129079765135 C 304.6224510428184 488.3472843976514 301.4884446428184 491.48129079765135 297.6224510428184 491.48129079765135 C 293.7564574428184 491.48129079765135 290.6224510428184 488.3472843976514 290.6224510428184 484.48129079765135 Z" stroke-miterlimit="10"/></g><g transform="translate(-10,-10) scale(1,1)"><path fill="none" stroke="#000000" d="M 292.24490208563674 488.9625815953027 L 303 480" stroke-miterlimit="10"/></g><g transform="translate(-10,-10) scale(1,1)"><path fill="none" stroke="#000000" d="M 302.10374184046975 489.85883975483296 L 293.14116024516704 479.10374184046975" stroke-miterlimit="10"/></g><g transform="translate(-10,-10) scale(1,1)"><path fill="none" stroke="#000000" d="M 373 509 Q 373 495 354 480" stroke-miterlimit="10"/></g><g transform="translate(-10,-10) scale(1,1)"><path fill="#FFFFFF" stroke="none" d="M 352.49417935873396 484.3375100200532 C 352.49417935873396 480.47151642005315 355.62818575873393 477.3375100200532 359.49417935873396 477.3375100200532 C 363.360172958734 477.3375100200532 366.49417935873396 480.47151642005315 366.49417935873396 484.3375100200532 C 366.49417935873396 488.2035036200532 363.360172958734 491.3375100200532 359.49417935873396 491.3375100200532 C 355.62818575873393 491.3375100200532 352.49417935873396 488.2035036200532 352.49417935873396 484.3375100200532 Z"/></g><g transform="translate(-10,-10) scale(1,1)"><path fill="none" stroke="#000000" d="M 352.49417935873396 484.3375100200532 C 352.49417935873396 480.47151642005315 355.62818575873393 477.3375100200532 359.49417935873396 477.3375100200532 C 363.360172958734 477.3375100200532 366.49417935873396 480.47151642005315 366.49417935873396 484.3375100200532 C 366.49417935873396 488.2035036200532 363.360172958734 491.3375100200532 359.49417935873396 491.3375100200532 C 355.62818575873393 491.3375100200532 352.49417935873396 488.2035036200532 352.49417935873396 484.3375100200532 Z" stroke-miterlimit="10"/></g><g transform="translate(-10,-10) scale(1,1)"><path fill="none" stroke="#000000" d="M 364.988358717468 488.6750200401063 L 354 480" stroke-miterlimit="10"/></g><g transform="translate(-10,-10) scale(1,1)"><path fill="none" stroke="#000000" d="M 363.83168937878713 478.8433306613192 L 355.1566693386808 489.83168937878713" stroke-miterlimit="10"/></g><g transform="translate(-10,-10) scale(1,1)"><path fill="none" stroke="#000000" d="M 419 369 Q 419 355 321 328" stroke-miterlimit="10"/></g><g transform="translate(-10,-10) scale(1,1)"><path fill="#FFFFFF" stroke="none" d="M 320.7485566987834 329.8592962333383 C 320.7485566987834 325.99330263333826 323.88256309878335 322.8592962333383 327.7485566987834 322.8592962333383 C 331.6145502987834 322.8592962333383 334.7485566987834 325.99330263333826 334.7485566987834 329.8592962333383 C 334.7485566987834 333.7252898333383 331.6145502987834 336.8592962333383 327.7485566987834 336.8592962333383 C 323.88256309878335 336.8592962333383 320.7485566987834 333.7252898333383 320.7485566987834 329.8592962333383 Z"/></g><g transform="translate(-10,-10) scale(1,1)"><path fill="none" stroke="#000000" d="M 320.7485566987834 329.8592962333383 C 320.7485566987834 325.99330263333826 323.88256309878335 322.8592962333383 327.7485566987834 322.8592962333383 C 331.6145502987834 322.8592962333383 334.7485566987834 325.99330263333826 334.7485566987834 329.8592962333383 C 334.7485566987834 333.7252898333383 331.6145502987834 336.8592962333383 327.7485566987834 336.8592962333383 C 323.88256309878335 336.8592962333383 320.7485566987834 333.7252898333383 320.7485566987834 329.8592962333383 Z" stroke-miterlimit="10"/></g><g transform="translate(-10,-10) scale(1,1)"><path fill="none" stroke="#000000" d="M 334.49711339756675 331.71859246667657 L 321 328" stroke-miterlimit="10"/></g><g transform="translate(-10,-10) scale(1,1)"><path fill="none" stroke="#000000" d="M 329.60785293212166 323.1107395345549 L 325.8892604654451 336.60785293212166" stroke-miterlimit="10"/></g><g transform="translate(-10,-10) scale(1,1)"><path fill="none" stroke="#000000" d="M 508 369 Q 508 355 321 324" stroke-miterlimit="10"/></g><g transform="translate(-10,-10) scale(1,1)"><path fill="#FFFFFF" stroke="none" d="M 320.90575295530954 325.14480396585344 C 320.90575295530954 321.2788103658534 324.0397593553095 318.14480396585344 327.90575295530954 318.14480396585344 C 331.77174655530956 318.14480396585344 334.90575295530954 321.2788103658534 334.90575295530954 325.14480396585344 C 334.90575295530954 329.01079756585347 331.77174655530956 332.14480396585344 327.90575295530954 332.14480396585344 C 324.0397593553095 332.14480396585344 320.90575295530954 329.01079756585347 320.90575295530954 325.14480396585344 Z"/></g><g transform="translate(-10,-10) scale(1,1)"><path fill="none" stroke="#000000" d="M 320.90575295530954 325.14480396585344 C 320.90575295530954 321.2788103658534 324.0397593553095 318.14480396585344 327.90575295530954 318.14480396585344 C 331.77174655530956 318.14480396585344 334.90575295530954 321.2788103658534 334.90575295530954 325.14480396585344 C 334.90575295530954 329.01079756585347 331.77174655530956 332.14480396585344 327.90575295530954 332.14480396585344 C 324.0397593553095 332.14480396585344 320.90575295530954 329.01079756585347 320.90575295530954 325.14480396585344 Z" stroke-miterlimit="10"/></g><g transform="translate(-10,-10) scale(1,1)"><path fill="none" stroke="#000000" d="M 334.8115059106191 326.2896079317069 L 321 324" stroke-miterlimit="10"/></g><g transform="translate(-10,-10) scale(1,1)"><path fill="none" stroke="#000000" d="M 329.050556921163 318.2390510105439 L 326.7609489894561 332.050556921163" stroke-miterlimit="10"/></g><g transform="translate(-10,-10) scale(1,1)"><path fill="none" stroke="#000000" d="M 410 439 Q 410 425 474 401" stroke-miterlimit="10"/></g><g transform="translate(-10,-10) scale(1,1)"><path fill="#FFFFFF" stroke="none" d="M 460.44569575701667 403.4578640911187 C 460.44569575701667 399.5918704911187 463.57970215701664 396.4578640911187 467.44569575701667 396.4578640911187 C 471.3116893570167 396.4578640911187 474.44569575701667 399.5918704911187 474.44569575701667 403.4578640911187 C 474.44569575701667 407.32385769111875 471.3116893570167 410.4578640911187 467.44569575701667 410.4578640911187 C 463.57970215701664 410.4578640911187 460.44569575701667 407.32385769111875 460.44569575701667 403.4578640911187 Z"/></g><g transform="translate(-10,-10) scale(1,1)"><path fill="none" stroke="#000000" d="M 460.44569575701667 403.4578640911187 C 460.44569575701667 399.5918704911187 463.57970215701664 396.4578640911187 467.44569575701667 396.4578640911187 C 471.3116893570167 396.4578640911187 474.44569575701667 399.5918704911187 474.44569575701667 403.4578640911187 C 474.44569575701667 407.32385769111875 471.3116893570167 410.4578640911187 467.44569575701667 410.4578640911187 C 463.57970215701664 410.4578640911187 460.44569575701667 407.32385769111875 460.44569575701667 403.4578640911187 Z" stroke-miterlimit="10"/></g><g transform="translate(-10,-10) scale(1,1)"><path fill="none" stroke="#000000" d="M 460.8913915140334 405.9157281822375 L 474 401" stroke-miterlimit="10"/></g><g transform="translate(-10,-10) scale(1,1)"><path fill="none" stroke="#000000" d="M 469.9035598481354 410.01216833410206 L 464.98783166589794 396.9035598481354" stroke-miterlimit="10"/></g><g transform="translate(-10,-10) scale(1,1)"><path fill="none" stroke="#000000" d="M 516 439 Q 516 425 512 410" stroke-miterlimit="10"/></g><g transform="translate(-10,-10) scale(1,1)"><path fill="#FFFFFF" stroke="none" d="M 506.80363855392227 416.7636445772087 C 506.80363855392227 412.8976509772087 509.93764495392224 409.7636445772087 513.8036385539223 409.7636445772087 C 517.6696321539223 409.7636445772087 520.8036385539223 412.8976509772087 520.8036385539223 416.7636445772087 C 520.8036385539223 420.62963817720873 517.6696321539223 423.7636445772087 513.8036385539223 423.7636445772087 C 509.93764495392224 423.7636445772087 506.80363855392227 420.62963817720873 506.80363855392227 416.7636445772087 Z"/></g><g transform="translate(-10,-10) scale(1,1)"><path fill="none" stroke="#000000" d="M 506.80363855392227 416.7636445772087 C 506.80363855392227 412.8976509772087 509.93764495392224 409.7636445772087 513.8036385539223 409.7636445772087 C 517.6696321539223 409.7636445772087 520.8036385539223 412.8976509772087 520.8036385539223 416.7636445772087 C 520.8036385539223 420.62963817720873 517.6696321539223 423.7636445772087 513.8036385539223 423.7636445772087 C 509.93764495392224 423.7636445772087 506.80363855392227 420.62963817720873 506.80363855392227 416.7636445772087 Z" stroke-miterlimit="10"/></g><g transform="translate(-10,-10) scale(1,1)"><path fill="none" stroke="#000000" d="M 515.6072771078447 423.5272891544175 L 512 410" stroke-miterlimit="10"/></g><g transform="translate(-10,-10) scale(1,1)"><path fill="none" stroke="#000000" d="M 520.567283131131 414.9600060232864 L 507.03999397671356 418.56728313113103" stroke-miterlimit="10"/></g><g transform="translate(-10,-10) scale(1,1)"><path fill="none" stroke="#000000" d="M 634 439 Q 634 425 541 399" stroke-miterlimit="10"/></g><g transform="translate(-10,-10) scale(1,1)"><path fill="#FFFFFF" stroke="none" d="M 540.7415004574821 400.8847205580057 C 540.7415004574821 397.0187269580057 543.875506857482 393.8847205580057 547.7415004574821 393.8847205580057 C 551.6074940574821 393.8847205580057 554.7415004574821 397.0187269580057 554.7415004574821 400.8847205580057 C 554.7415004574821 404.75071415800574 551.6074940574821 407.8847205580057 547.7415004574821 407.8847205580057 C 543.875506857482 407.8847205580057 540.7415004574821 404.75071415800574 540.7415004574821 400.8847205580057 Z"/></g><g transform="translate(-10,-10) scale(1,1)"><path fill="none" stroke="#000000" d="M 540.7415004574821 400.8847205580057 C 540.7415004574821 397.0187269580057 543.875506857482 393.8847205580057 547.7415004574821 393.8847205580057 C 551.6074940574821 393.8847205580057 554.7415004574821 397.0187269580057 554.7415004574821 400.8847205580057 C 554.7415004574821 404.75071415800574 551.6074940574821 407.8847205580057 547.7415004574821 407.8847205580057 C 543.875506857482 407.8847205580057 540.7415004574821 404.75071415800574 540.7415004574821 400.8847205580057 Z" stroke-miterlimit="10"/></g><g transform="translate(-10,-10) scale(1,1)"><path fill="none" stroke="#000000" d="M 554.4830009149641 402.7694411160115 L 541 399" stroke-miterlimit="10"/></g><g transform="translate(-10,-10) scale(1,1)"><path fill="none" stroke="#000000" d="M 549.6262210154878 394.14322010052365 L 545.8567798994764 407.6262210154878" stroke-miterlimit="10"/></g><g transform="translate(-10,-10) scale(1,1)"><path fill="none" stroke="#000000" d="M 596 369 Q 596 355 321 323" stroke-miterlimit="10"/></g><g transform="translate(-10,-10) scale(1,1)"><path fill="#FFFFFF" stroke="none" d="M 320.95308417808025 323.8090861589039 C 320.95308417808025 319.94309255890386 324.0870905780802 316.8090861589039 327.95308417808025 316.8090861589039 C 331.81907777808027 316.8090861589039 334.95308417808025 319.94309255890386 334.95308417808025 323.8090861589039 C 334.95308417808025 327.6750797589039 331.81907777808027 330.8090861589039 327.95308417808025 330.8090861589039 C 324.0870905780802 330.8090861589039 320.95308417808025 327.6750797589039 320.95308417808025 323.8090861589039 Z"/></g><g transform="translate(-10,-10) scale(1,1)"><path fill="none" stroke="#000000" d="M 320.95308417808025 323.8090861589039 C 320.95308417808025 319.94309255890386 324.0870905780802 316.8090861589039 327.95308417808025 316.8090861589039 C 331.81907777808027 316.8090861589039 334.95308417808025 319.94309255890386 334.95308417808025 323.8090861589039 C 334.95308417808025 327.6750797589039 331.81907777808027 330.8090861589039 327.95308417808025 330.8090861589039 C 324.0870905780802 330.8090861589039 320.95308417808025 327.6750797589039 320.95308417808025 323.8090861589039 Z" stroke-miterlimit="10"/></g><g transform="translate(-10,-10) scale(1,1)"><path fill="none" stroke="#000000" d="M 334.90616835616055 324.61817231780776 L 321 323" stroke-miterlimit="10"/></g><g transform="translate(-10,-10) scale(1,1)"><path fill="none" stroke="#000000" d="M 328.7621703369841 316.85600198082363 L 327.14399801917637 330.7621703369841" stroke-miterlimit="10"/></g></g></svg>