<svg version="1.1" xmlns="http://www.w3.org/2000/svg" xmlns:xlink="http://www.w3.org/1999/xlink" width="1148" height="363"><defs/><g><g transform="translate(-71,-248) scale(1,1)"><path fill="#C0C0C0" stroke="none" d="M 652.224951171875 519 L 679.664951171875 519 L 691.424951171875 530.76 L 691.424951171875 568 L 652.224951171875 568" opacity="0.2"/></g><g transform="translate(-71,-248) scale(1,1)"><path fill="#ffffff" stroke="none" d="M 645.224951171875 512 L 672.664951171875 512 L 684.424951171875 523.76 L 684.424951171875 561 L 645.224951171875 561"/></g><g transform="translate(-71,-248) scale(1,1)"><path fill="none" stroke="#000000" d="M 645.224951171875 512 L 672.664951171875 512 L 684.424951171875 523.76 L 684.424951171875 561 L 645.224951171875 561 L 645.224951171875 512" stroke-miterlimit="10"/></g><g transform="translate(-71,-248) scale(1,1)"><path fill="none" stroke="#000000" d="M 672.664951171875 512 L 672.664951171875 523.76 L 684.424951171875 523.76 L 672.664951171875 512" stroke-miterlimit="10"/></g><g transform="translate(-71,-248) scale(1,1)"><g><path fill="none" stroke="none"/><text fill="#000000" stroke="none" font-family="Arial" font-size="13px" font-style="normal" font-weight="bold" text-decoration="none" x="609.5400390625" y="580.5">extnal_si_conf.json</text></g></g><g transform="translate(-71,-248) scale(1,1)"><g><path fill="none" stroke="none"/><text fill="#000000" stroke="none" font-family="Arial" font-size="13px" font-style="normal" font-weight="normal" text-decoration="none" x="604.509521484375" y="595.5">(from MT-fabrication)</text></g></g><g transform="translate(-71,-248) scale(1,1)"><path fill="#C0C0C0" stroke="none" d="M 88 275 L 389 275 L 389 552 L 88 552" opacity="0.2"/></g><g transform="translate(-71,-248) scale(1,1)"><path fill="#C0C0C0" stroke="none" d="M 88 275 L 98 265 L 399 265 L 389 275" opacity="0.2"/></g><g transform="translate(-71,-248) scale(1,1)"><path fill="#C0C0C0" stroke="none" d="M 399 265 L 389 275 L 389 552 L 399 542" opacity="0.2"/></g><g transform="translate(-71,-248) scale(1,1)"><path fill="#ffffff" stroke="none" d="M 81 268 L 382 268 L 382 545 L 81 545"/></g><g transform="translate(-71,-248) scale(1,1)"><path fill="#ffffff" stroke="none" d="M 81 268 L 91 258 L 392 258 L 382 268"/></g><g transform="translate(-71,-248) scale(1,1)"><path fill="#ffffff" stroke="none" d="M 392 258 L 382 268 L 382 545 L 392 535"/></g><g transform="translate(-71,-248) scale(1,1)"><path fill="none" stroke="#000000" d="M 81 268 L 382 268 L 382 545 L 81 545 L 81 268" stroke-miterlimit="10"/></g><g transform="translate(-71,-248) scale(1,1)"><path fill="none" stroke="#000000" d="M 81 268 L 91 258 L 392 258 L 382 268 L 81 268" stroke-miterlimit="10"/></g><g transform="translate(-71,-248) scale(1,1)"><path fill="none" stroke="#000000" d="M 392 258 L 382 268 L 382 545 L 392 535 L 392 258" stroke-miterlimit="10"/></g><g transform="translate(-71,-248) scale(1,1)"><g><path fill="none" stroke="none"/><text fill="#000000" stroke="none" font-family="Arial" font-size="13px" font-style="normal" font-weight="normal" text-decoration="none" x="205.62548828125" y="285.5">«Server»</text></g></g><g transform="translate(-71,-248) scale(1,1)"><g><path fill="none" stroke="none"/><text fill="#000000" stroke="none" font-family="Arial" font-size="13px" font-style="normal" font-weight="bold" text-decoration="none" x="188.064697265625" y="300.5">INTEGRATION</text></g></g><g transform="translate(-71,-248) scale(1,1)"><path fill="#C0C0C0" stroke="none" d="M 432 275 L 797 275 L 797 432 L 432 432" opacity="0.2"/></g><g transform="translate(-71,-248) scale(1,1)"><path fill="#C0C0C0" stroke="none" d="M 432 275 L 442 265 L 807 265 L 797 275" opacity="0.2"/></g><g transform="translate(-71,-248) scale(1,1)"><path fill="#C0C0C0" stroke="none" d="M 807 265 L 797 275 L 797 432 L 807 422" opacity="0.2"/></g><g transform="translate(-71,-248) scale(1,1)"><path fill="#ffffff" stroke="none" d="M 425 268 L 790 268 L 790 425 L 425 425"/></g><g transform="translate(-71,-248) scale(1,1)"><path fill="#ffffff" stroke="none" d="M 425 268 L 435 258 L 800 258 L 790 268"/></g><g transform="translate(-71,-248) scale(1,1)"><path fill="#ffffff" stroke="none" d="M 800 258 L 790 268 L 790 425 L 800 415"/></g><g transform="translate(-71,-248) scale(1,1)"><path fill="none" stroke="#000000" d="M 425 268 L 790 268 L 790 425 L 425 425 L 425 268" stroke-miterlimit="10"/></g><g transform="translate(-71,-248) scale(1,1)"><path fill="none" stroke="#000000" d="M 425 268 L 435 258 L 800 258 L 790 268 L 425 268" stroke-miterlimit="10"/></g><g transform="translate(-71,-248) scale(1,1)"><path fill="none" stroke="#000000" d="M 800 258 L 790 268 L 790 425 L 800 415 L 800 258" stroke-miterlimit="10"/></g><g transform="translate(-71,-248) scale(1,1)"><g><path fill="none" stroke="none"/><text fill="#000000" stroke="none" font-family="Arial" font-size="13px" font-style="normal" font-weight="normal" text-decoration="none" x="581.62548828125" y="285.5">«Server»</text></g></g><g transform="translate(-71,-248) scale(1,1)"><g><path fill="none" stroke="none"/><text fill="#000000" stroke="none" font-family="Arial" font-size="13px" font-style="normal" font-weight="bold" text-decoration="none" x="575.85546875" y="300.5">PREPROD</text></g></g><g transform="translate(-71,-248) scale(1,1)"><path fill="#C0C0C0" stroke="none" d="M 840 275 L 1205 275 L 1205 432 L 840 432" opacity="0.2"/></g><g transform="translate(-71,-248) scale(1,1)"><path fill="#C0C0C0" stroke="none" d="M 840 275 L 850 265 L 1215 265 L 1205 275" opacity="0.2"/></g><g transform="translate(-71,-248) scale(1,1)"><path fill="#C0C0C0" stroke="none" d="M 1215 265 L 1205 275 L 1205 432 L 1215 422" opacity="0.2"/></g><g transform="translate(-71,-248) scale(1,1)"><path fill="#ffffff" stroke="none" d="M 833 268 L 1198 268 L 1198 425 L 833 425"/></g><g transform="translate(-71,-248) scale(1,1)"><path fill="#ffffff" stroke="none" d="M 833 268 L 843 258 L 1208 258 L 1198 268"/></g><g transform="translate(-71,-248) scale(1,1)"><path fill="#ffffff" stroke="none" d="M 1208 258 L 1198 268 L 1198 425 L 1208 415"/></g><g transform="translate(-71,-248) scale(1,1)"><path fill="none" stroke="#000000" d="M 833 268 L 1198 268 L 1198 425 L 833 425 L 833 268" stroke-miterlimit="10"/></g><g transform="translate(-71,-248) scale(1,1)"><path fill="none" stroke="#000000" d="M 833 268 L 843 258 L 1208 258 L 1198 268 L 833 268" stroke-miterlimit="10"/></g><g transform="translate(-71,-248) scale(1,1)"><path fill="none" stroke="#000000" d="M 1208 258 L 1198 268 L 1198 425 L 1208 415 L 1208 258" stroke-miterlimit="10"/></g><g transform="translate(-71,-248) scale(1,1)"><g><path fill="none" stroke="none"/><text fill="#000000" stroke="none" font-family="Arial" font-size="13px" font-style="normal" font-weight="normal" text-decoration="none" x="989.62548828125" y="285.5">«Server»</text></g></g><g transform="translate(-71,-248) scale(1,1)"><g><path fill="none" stroke="none"/><text fill="#000000" stroke="none" font-family="Arial" font-size="13px" font-style="normal" font-weight="bold" text-decoration="none" x="997.220458984375" y="300.5">PROD</text></g></g><g transform="translate(-71,-248) scale(1,1)"><rect fill="#C0C0C0" stroke="none" x="106" y="321" width="262" height="200" opacity="0.2"/></g><g transform="translate(-71,-248) scale(1,1)"><rect fill="#ffffff" stroke="none" x="99" y="314" width="262" height="200"/></g><g transform="translate(-71,-248) scale(1,1)"><path fill="none" stroke="#000000" d="M 99 314 L 361 314 L 361 514 L 99 514 L 99 314 Z Z" stroke-miterlimit="10"/></g><g transform="translate(-71,-248) scale(1,1)"><rect fill="#ffffff" stroke="none" x="89" y="321" width="20" height="10"/></g><g transform="translate(-71,-248) scale(1,1)"><path fill="none" stroke="#000000" d="M 89 321 L 109 321 L 109 331 L 89 331 L 89 321 Z Z" stroke-miterlimit="10"/></g><g transform="translate(-71,-248) scale(1,1)"><rect fill="#ffffff" stroke="none" x="89" y="341" width="20" height="10"/></g><g transform="translate(-71,-248) scale(1,1)"><path fill="none" stroke="#000000" d="M 89 341 L 109 341 L 109 351 L 89 351 L 89 341 Z Z" stroke-miterlimit="10"/></g><g transform="translate(-71,-248) scale(1,1)"><g><path fill="none" stroke="none"/><text fill="#000000" stroke="none" font-family="Arial" font-size="15px" font-style="normal" font-weight="normal" text-decoration="none" x="175.1025390625" y="333.5">«Virtual Machine»</text></g></g><g transform="translate(-71,-248) scale(1,1)"><g><path fill="none" stroke="none"/><text fill="#000000" stroke="none" font-family="Arial" font-size="15px" font-style="normal" font-weight="bold" text-decoration="none" x="170.9716796875" y="350.5">VM INTEGRATION</text></g></g><g transform="translate(-71,-248) scale(1,1)"><rect fill="#C0C0C0" stroke="none" x="642" y="321" width="138.18359375" height="96" opacity="0.2"/></g><g transform="translate(-71,-248) scale(1,1)"><rect fill="#ffffff" stroke="none" x="635" y="314" width="138.18359375" height="96"/></g><g transform="translate(-71,-248) scale(1,1)"><path fill="none" stroke="#000000" d="M 635 314 L 773.18359375 314 L 773.18359375 410 L 635 410 L 635 314 Z Z" stroke-miterlimit="10"/></g><g transform="translate(-71,-248) scale(1,1)"><rect fill="#ffffff" stroke="none" x="625" y="321" width="20" height="10"/></g><g transform="translate(-71,-248) scale(1,1)"><path fill="none" stroke="#000000" d="M 625 321 L 645 321 L 645 331 L 625 331 L 625 321 Z Z" stroke-miterlimit="10"/></g><g transform="translate(-71,-248) scale(1,1)"><rect fill="#ffffff" stroke="none" x="625" y="341" width="20" height="10"/></g><g transform="translate(-71,-248) scale(1,1)"><path fill="none" stroke="#000000" d="M 625 341 L 645 341 L 645 351 L 625 351 L 625 341 Z Z" stroke-miterlimit="10"/></g><g transform="translate(-71,-248) scale(1,1)"><g><path fill="none" stroke="none"/><text fill="#000000" stroke="none" font-family="Arial" font-size="13px" font-style="normal" font-weight="normal" text-decoration="none" x="657.1806640625" y="331.5">«Virtual Machine»</text></g></g><g transform="translate(-71,-248) scale(1,1)"><g><path fill="none" stroke="none"/><text fill="#000000" stroke="none" font-family="Arial" font-size="13px" font-style="normal" font-weight="bold" text-decoration="none" x="649.5" y="346.5">VM PREPROD PRO</text></g></g><g transform="translate(-71,-248) scale(1,1)"><rect fill="#C0C0C0" stroke="none" x="666" y="361" width="102.3203125" height="44" opacity="0.2"/></g><g transform="translate(-71,-248) scale(1,1)"><rect fill="#ffffff" stroke="none" x="659" y="354" width="102.3203125" height="44"/></g><g transform="translate(-71,-248) scale(1,1)"><path fill="none" stroke="#000000" d="M 659 354 L 761.3203125 354 L 761.3203125 398 L 659 398 L 659 354 Z Z" stroke-miterlimit="10"/></g><g transform="translate(-71,-248) scale(1,1)"><rect fill="#ffffff" stroke="none" x="649" y="361" width="20" height="10"/></g><g transform="translate(-71,-248) scale(1,1)"><path fill="none" stroke="#000000" d="M 649 361 L 669 361 L 669 371 L 649 371 L 649 361 Z Z" stroke-miterlimit="10"/></g><g transform="translate(-71,-248) scale(1,1)"><rect fill="#ffffff" stroke="none" x="649" y="381" width="20" height="10"/></g><g transform="translate(-71,-248) scale(1,1)"><path fill="none" stroke="#000000" d="M 649 381 L 669 381 L 669 391 L 649 391 L 649 381 Z Z" stroke-miterlimit="10"/></g><g transform="translate(-71,-248) scale(1,1)"><g><path fill="none" stroke="none"/><text fill="#000000" stroke="none" font-family="Arial" font-size="13px" font-style="normal" font-weight="normal" text-decoration="none" x="681.311279296875" y="371.5">«Web App»</text></g></g><g transform="translate(-71,-248) scale(1,1)"><g><path fill="none" stroke="none"/><text fill="#000000" stroke="none" font-family="Arial" font-size="13px" font-style="normal" font-weight="bold" text-decoration="none" x="684.815185546875" y="386.5">Portail Pro</text></g></g><g transform="translate(-71,-248) scale(1,1)"><rect fill="#C0C0C0" stroke="none" x="450" y="321" width="166" height="96" opacity="0.2"/></g><g transform="translate(-71,-248) scale(1,1)"><rect fill="#ffffff" stroke="none" x="443" y="314" width="166" height="96"/></g><g transform="translate(-71,-248) scale(1,1)"><path fill="none" stroke="#000000" d="M 443 314 L 609 314 L 609 410 L 443 410 L 443 314 Z Z" stroke-miterlimit="10"/></g><g transform="translate(-71,-248) scale(1,1)"><rect fill="#ffffff" stroke="none" x="433" y="321" width="20" height="10"/></g><g transform="translate(-71,-248) scale(1,1)"><path fill="none" stroke="#000000" d="M 433 321 L 453 321 L 453 331 L 433 331 L 433 321 Z Z" stroke-miterlimit="10"/></g><g transform="translate(-71,-248) scale(1,1)"><rect fill="#ffffff" stroke="none" x="433" y="341" width="20" height="10"/></g><g transform="translate(-71,-248) scale(1,1)"><path fill="none" stroke="#000000" d="M 433 341 L 453 341 L 453 351 L 433 351 L 433 341 Z Z" stroke-miterlimit="10"/></g><g transform="translate(-71,-248) scale(1,1)"><g><path fill="none" stroke="none"/><text fill="#000000" stroke="none" font-family="Arial" font-size="13px" font-style="normal" font-weight="normal" text-decoration="none" x="479.0888671875" y="331.5">«Virtual Machine»</text></g></g><g transform="translate(-71,-248) scale(1,1)"><g><path fill="none" stroke="none"/><text fill="#000000" stroke="none" font-family="Arial" font-size="13px" font-style="normal" font-weight="bold" text-decoration="none" x="458.043212890625" y="346.5">VM PREPROD USAGER</text></g></g><g transform="translate(-71,-248) scale(1,1)"><rect fill="#C0C0C0" stroke="none" x="122" y="369" width="127.484375" height="44" opacity="0.2"/></g><g transform="translate(-71,-248) scale(1,1)"><rect fill="#ffffff" stroke="none" x="115" y="362" width="127.484375" height="44"/></g><g transform="translate(-71,-248) scale(1,1)"><path fill="none" stroke="#000000" d="M 115 362 L 242.484375 362 L 242.484375 406 L 115 406 L 115 362 Z Z" stroke-miterlimit="10"/></g><g transform="translate(-71,-248) scale(1,1)"><rect fill="#ffffff" stroke="none" x="105" y="369" width="20" height="10"/></g><g transform="translate(-71,-248) scale(1,1)"><path fill="none" stroke="#000000" d="M 105 369 L 125 369 L 125 379 L 105 379 L 105 369 Z Z" stroke-miterlimit="10"/></g><g transform="translate(-71,-248) scale(1,1)"><rect fill="#ffffff" stroke="none" x="105" y="389" width="20" height="10"/></g><g transform="translate(-71,-248) scale(1,1)"><path fill="none" stroke="#000000" d="M 105 389 L 125 389 L 125 399 L 105 399 L 105 389 Z Z" stroke-miterlimit="10"/></g><g transform="translate(-71,-248) scale(1,1)"><g><path fill="none" stroke="none"/><text fill="#000000" stroke="none" font-family="Arial" font-size="13px" font-style="normal" font-weight="normal" text-decoration="none" x="149.893310546875" y="379.5">«Web App»</text></g></g><g transform="translate(-71,-248) scale(1,1)"><g><path fill="none" stroke="none"/><text fill="#000000" stroke="none" font-family="Arial" font-size="13px" font-style="normal" font-weight="bold" text-decoration="none" x="142.55859375" y="394.5">Portail Usager</text></g></g><g transform="translate(-71,-248) scale(1,1)"><rect fill="#C0C0C0" stroke="none" x="258" y="369" width="102.3203125" height="44" opacity="0.2"/></g><g transform="translate(-71,-248) scale(1,1)"><rect fill="#ffffff" stroke="none" x="251" y="362" width="102.3203125" height="44"/></g><g transform="translate(-71,-248) scale(1,1)"><path fill="none" stroke="#000000" d="M 251 362 L 353.3203125 362 L 353.3203125 406 L 251 406 L 251 362 Z Z" stroke-miterlimit="10"/></g><g transform="translate(-71,-248) scale(1,1)"><rect fill="#ffffff" stroke="none" x="241" y="369" width="20" height="10"/></g><g transform="translate(-71,-248) scale(1,1)"><path fill="none" stroke="#000000" d="M 241 369 L 261 369 L 261 379 L 241 379 L 241 369 Z Z" stroke-miterlimit="10"/></g><g transform="translate(-71,-248) scale(1,1)"><rect fill="#ffffff" stroke="none" x="241" y="389" width="20" height="10"/></g><g transform="translate(-71,-248) scale(1,1)"><path fill="none" stroke="#000000" d="M 241 389 L 261 389 L 261 399 L 241 399 L 241 389 Z Z" stroke-miterlimit="10"/></g><g transform="translate(-71,-248) scale(1,1)"><g><path fill="none" stroke="none"/><text fill="#000000" stroke="none" font-family="Arial" font-size="13px" font-style="normal" font-weight="normal" text-decoration="none" x="273.311279296875" y="379.5">«Web App»</text></g></g><g transform="translate(-71,-248) scale(1,1)"><g><path fill="none" stroke="none"/><text fill="#000000" stroke="none" font-family="Arial" font-size="13px" font-style="normal" font-weight="bold" text-decoration="none" x="276.815185546875" y="394.5">Portail Pro</text></g></g><g transform="translate(-71,-248) scale(1,1)"><rect fill="#C0C0C0" stroke="none" x="178" y="457" width="155.5859375" height="44" opacity="0.2"/></g><g transform="translate(-71,-248) scale(1,1)"><rect fill="#ffffff" stroke="none" x="171" y="450" width="155.5859375" height="44"/></g><g transform="translate(-71,-248) scale(1,1)"><path fill="none" stroke="#000000" d="M 171 450 L 326.5859375 450 L 326.5859375 494 L 171 494 L 171 450 Z Z" stroke-miterlimit="10"/></g><g transform="translate(-71,-248) scale(1,1)"><rect fill="#ffffff" stroke="none" x="161" y="457" width="20" height="10"/></g><g transform="translate(-71,-248) scale(1,1)"><path fill="none" stroke="#000000" d="M 161 457 L 181 457 L 181 467 L 161 467 L 161 457 Z Z" stroke-miterlimit="10"/></g><g transform="translate(-71,-248) scale(1,1)"><rect fill="#ffffff" stroke="none" x="161" y="477" width="20" height="10"/></g><g transform="translate(-71,-248) scale(1,1)"><path fill="none" stroke="#000000" d="M 161 477 L 181 477 L 181 487 L 161 487 L 161 477 Z Z" stroke-miterlimit="10"/></g><g transform="translate(-71,-248) scale(1,1)"><g><path fill="none" stroke="none"/><text fill="#000000" stroke="none" font-family="Arial" font-size="13px" font-style="normal" font-weight="normal" text-decoration="none" x="221.988037109375" y="467.5">«Databae»</text></g></g><g transform="translate(-71,-248) scale(1,1)"><g><path fill="none" stroke="none"/><text fill="#000000" stroke="none" font-family="Arial" font-size="13px" font-style="normal" font-weight="bold" text-decoration="none" x="199.022216796875" y="482.5">DB INTEGRATION</text></g></g><g transform="translate(-71,-248) scale(1,1)"><path fill="none" stroke="#000000" d="M 166 407 L 161 426 L 201 426 L 222 449" stroke-miterlimit="10" stroke-dasharray="3"/></g><g transform="translate(-71,-248) scale(1,1)"><path fill="none" stroke="#000000" d="M 212.0389518877435 444.33336089832187 L 222 449 L 218.25628748624484 438.6566631779511" stroke-miterlimit="10"/></g><g transform="translate(-71,-248) scale(1,1)"><path fill="none" stroke="#000000" d="M 297 407 L 297 426 L 249 426 L 246 449" stroke-miterlimit="10" stroke-dasharray="3"/></g><g transform="translate(-71,-248) scale(1,1)"><path fill="none" stroke="#000000" d="M 243.14027253626998 438.3782318405461 L 246 449 L 251.4885916117923 439.4671430243099" stroke-miterlimit="10"/></g><g transform="translate(-71,-248) scale(1,1)"><rect fill="#C0C0C0" stroke="none" x="474" y="361" width="127.484375" height="44" opacity="0.2"/></g><g transform="translate(-71,-248) scale(1,1)"><rect fill="#ffffff" stroke="none" x="467" y="354" width="127.484375" height="44"/></g><g transform="translate(-71,-248) scale(1,1)"><path fill="none" stroke="#000000" d="M 467 354 L 594.484375 354 L 594.484375 398 L 467 398 L 467 354 Z Z" stroke-miterlimit="10"/></g><g transform="translate(-71,-248) scale(1,1)"><rect fill="#ffffff" stroke="none" x="457" y="361" width="20" height="10"/></g><g transform="translate(-71,-248) scale(1,1)"><path fill="none" stroke="#000000" d="M 457 361 L 477 361 L 477 371 L 457 371 L 457 361 Z Z" stroke-miterlimit="10"/></g><g transform="translate(-71,-248) scale(1,1)"><rect fill="#ffffff" stroke="none" x="457" y="381" width="20" height="10"/></g><g transform="translate(-71,-248) scale(1,1)"><path fill="none" stroke="#000000" d="M 457 381 L 477 381 L 477 391 L 457 391 L 457 381 Z Z" stroke-miterlimit="10"/></g><g transform="translate(-71,-248) scale(1,1)"><g><path fill="none" stroke="none"/><text fill="#000000" stroke="none" font-family="Arial" font-size="13px" font-style="normal" font-weight="normal" text-decoration="none" x="501.893310546875" y="371.5">«Web App»</text></g></g><g transform="translate(-71,-248) scale(1,1)"><g><path fill="none" stroke="none"/><text fill="#000000" stroke="none" font-family="Arial" font-size="13px" font-style="normal" font-weight="bold" text-decoration="none" x="494.55859375" y="386.5">Portail Usager</text></g></g><g transform="translate(-71,-248) scale(1,1)"><rect fill="#C0C0C0" stroke="none" x="858" y="321" width="166.5703125" height="96" opacity="0.2"/></g><g transform="translate(-71,-248) scale(1,1)"><rect fill="#ffffff" stroke="none" x="851" y="314" width="166.5703125" height="96"/></g><g transform="translate(-71,-248) scale(1,1)"><path fill="none" stroke="#000000" d="M 851 314 L 1017.5703125 314 L 1017.5703125 410 L 851 410 L 851 314 Z Z" stroke-miterlimit="10"/></g><g transform="translate(-71,-248) scale(1,1)"><rect fill="#ffffff" stroke="none" x="841" y="321" width="20" height="10"/></g><g transform="translate(-71,-248) scale(1,1)"><path fill="none" stroke="#000000" d="M 841 321 L 861 321 L 861 331 L 841 331 L 841 321 Z Z" stroke-miterlimit="10"/></g><g transform="translate(-71,-248) scale(1,1)"><rect fill="#ffffff" stroke="none" x="841" y="341" width="20" height="10"/></g><g transform="translate(-71,-248) scale(1,1)"><path fill="none" stroke="#000000" d="M 841 341 L 861 341 L 861 351 L 841 351 L 841 341 Z Z" stroke-miterlimit="10"/></g><g transform="translate(-71,-248) scale(1,1)"><g><path fill="none" stroke="none"/><text fill="#000000" stroke="none" font-family="Arial" font-size="13px" font-style="normal" font-weight="normal" text-decoration="none" x="886.894775390625" y="331.5">«VIrtual Machine»</text></g></g><g transform="translate(-71,-248) scale(1,1)"><g><path fill="none" stroke="none"/><text fill="#000000" stroke="none" font-family="Arial" font-size="13px" font-style="normal" font-weight="bold" text-decoration="none" x="879.693359375" y="346.5">VM PROD USAGER</text></g></g><g transform="translate(-71,-248) scale(1,1)"><rect fill="#C0C0C0" stroke="none" x="1050" y="321" width="146.78125" height="96" opacity="0.2"/></g><g transform="translate(-71,-248) scale(1,1)"><rect fill="#ffffff" stroke="none" x="1043" y="314" width="146.78125" height="96"/></g><g transform="translate(-71,-248) scale(1,1)"><path fill="none" stroke="#000000" d="M 1043 314 L 1189.78125 314 L 1189.78125 410 L 1043 410 L 1043 314 Z Z" stroke-miterlimit="10"/></g><g transform="translate(-71,-248) scale(1,1)"><rect fill="#ffffff" stroke="none" x="1033" y="321" width="20" height="10"/></g><g transform="translate(-71,-248) scale(1,1)"><path fill="none" stroke="#000000" d="M 1033 321 L 1053 321 L 1053 331 L 1033 331 L 1033 321 Z Z" stroke-miterlimit="10"/></g><g transform="translate(-71,-248) scale(1,1)"><rect fill="#ffffff" stroke="none" x="1033" y="341" width="20" height="10"/></g><g transform="translate(-71,-248) scale(1,1)"><path fill="none" stroke="#000000" d="M 1033 341 L 1053 341 L 1053 351 L 1033 351 L 1033 341 Z Z" stroke-miterlimit="10"/></g><g transform="translate(-71,-248) scale(1,1)"><g><path fill="none" stroke="none"/><text fill="#000000" stroke="none" font-family="Arial" font-size="13px" font-style="normal" font-weight="normal" text-decoration="none" x="1069.4794921875" y="331.5">«Virtual Machine»</text></g></g><g transform="translate(-71,-248) scale(1,1)"><g><path fill="none" stroke="none"/><text fill="#000000" stroke="none" font-family="Arial" font-size="13px" font-style="normal" font-weight="bold" text-decoration="none" x="1075.163818359375" y="346.5">VM PROD PRO</text></g></g><g transform="translate(-71,-248) scale(1,1)"><rect fill="#C0C0C0" stroke="none" x="882" y="361" width="127.484375" height="44" opacity="0.2"/></g><g transform="translate(-71,-248) scale(1,1)"><rect fill="#ffffff" stroke="none" x="875" y="354" width="127.484375" height="44"/></g><g transform="translate(-71,-248) scale(1,1)"><path fill="none" stroke="#000000" d="M 875 354 L 1002.484375 354 L 1002.484375 398 L 875 398 L 875 354 Z Z" stroke-miterlimit="10"/></g><g transform="translate(-71,-248) scale(1,1)"><rect fill="#ffffff" stroke="none" x="865" y="361" width="20" height="10"/></g><g transform="translate(-71,-248) scale(1,1)"><path fill="none" stroke="#000000" d="M 865 361 L 885 361 L 885 371 L 865 371 L 865 361 Z Z" stroke-miterlimit="10"/></g><g transform="translate(-71,-248) scale(1,1)"><rect fill="#ffffff" stroke="none" x="865" y="381" width="20" height="10"/></g><g transform="translate(-71,-248) scale(1,1)"><path fill="none" stroke="#000000" d="M 865 381 L 885 381 L 885 391 L 865 391 L 865 381 Z Z" stroke-miterlimit="10"/></g><g transform="translate(-71,-248) scale(1,1)"><g><path fill="none" stroke="none"/><text fill="#000000" stroke="none" font-family="Arial" font-size="13px" font-style="normal" font-weight="normal" text-decoration="none" x="909.893310546875" y="371.5">«Web App»</text></g></g><g transform="translate(-71,-248) scale(1,1)"><g><path fill="none" stroke="none"/><text fill="#000000" stroke="none" font-family="Arial" font-size="13px" font-style="normal" font-weight="bold" text-decoration="none" x="902.55859375" y="386.5">Portail Usager</text></g></g><g transform="translate(-71,-248) scale(1,1)"><rect fill="#C0C0C0" stroke="none" x="1074" y="361" width="102.3203125" height="44" opacity="0.2"/></g><g transform="translate(-71,-248) scale(1,1)"><rect fill="#ffffff" stroke="none" x="1067" y="354" width="102.3203125" height="44"/></g><g transform="translate(-71,-248) scale(1,1)"><path fill="none" stroke="#000000" d="M 1067 354 L 1169.3203125 354 L 1169.3203125 398 L 1067 398 L 1067 354 Z Z" stroke-miterlimit="10"/></g><g transform="translate(-71,-248) scale(1,1)"><rect fill="#ffffff" stroke="none" x="1057" y="361" width="20" height="10"/></g><g transform="translate(-71,-248) scale(1,1)"><path fill="none" stroke="#000000" d="M 1057 361 L 1077 361 L 1077 371 L 1057 371 L 1057 361 Z Z" stroke-miterlimit="10"/></g><g transform="translate(-71,-248) scale(1,1)"><rect fill="#ffffff" stroke="none" x="1057" y="381" width="20" height="10"/></g><g transform="translate(-71,-248) scale(1,1)"><path fill="none" stroke="#000000" d="M 1057 381 L 1077 381 L 1077 391 L 1057 391 L 1057 381 Z Z" stroke-miterlimit="10"/></g><g transform="translate(-71,-248) scale(1,1)"><g><path fill="none" stroke="none"/><text fill="#000000" stroke="none" font-family="Arial" font-size="13px" font-style="normal" font-weight="normal" text-decoration="none" x="1089.311279296875" y="371.5">«Web App»</text></g></g><g transform="translate(-71,-248) scale(1,1)"><g><path fill="none" stroke="none"/><text fill="#000000" stroke="none" font-family="Arial" font-size="13px" font-style="normal" font-weight="bold" text-decoration="none" x="1092.815185546875" y="386.5">Portail Pro</text></g></g><g transform="translate(-71,-248) scale(1,1)"><path fill="none" stroke="#000000" d="M 362 458 L 599 535" stroke-miterlimit="10" stroke-dasharray="3"/></g><g transform="translate(-71,-248) scale(1,1)"><path fill="none" stroke="#000000" d="M 588.0339289894864 535.8632998276227 L 599 535 L 590.6353716631835 527.8562619878018" stroke-miterlimit="10"/></g><g transform="translate(-71,-248) scale(1,1)"><path fill="none" stroke="#000000" d="M 557 411 L 631 511" stroke-miterlimit="10" stroke-dasharray="3"/></g><g transform="translate(-71,-248) scale(1,1)"><path fill="none" stroke="#000000" d="M 621.5710171969581 505.3348183347803 L 631 511 L 628.3385906924083 500.3268139481472" stroke-miterlimit="10"/></g><g transform="translate(-71,-248) scale(1,1)"><path fill="none" stroke="#000000" d="M 690 411 L 672 511" stroke-miterlimit="10" stroke-dasharray="3"/></g><g transform="translate(-71,-248) scale(1,1)"><path fill="none" stroke="#000000" d="M 669.6574111444892 500.25233618621996 L 672 511 L 677.9432854993734 501.7437935700991" stroke-miterlimit="10"/></g><g transform="translate(-71,-248) scale(1,1)"><path fill="none" stroke="#000000" d="M 862 411 L 725 511" stroke-miterlimit="10" stroke-dasharray="3"/></g><g transform="translate(-71,-248) scale(1,1)"><path fill="none" stroke="#000000" d="M 730.7267274139912 501.60826996097944 L 725 511 L 735.690363786105 508.40845179077525" stroke-miterlimit="10"/></g><g transform="translate(-71,-248) scale(1,1)"><path fill="none" stroke="#000000" d="M 1032 396 L 731 527" stroke-miterlimit="10" stroke-dasharray="3"/></g><g transform="translate(-71,-248) scale(1,1)"><path fill="none" stroke="#000000" d="M 738.6385564196181 519.0846695694803 L 731 527 L 741.9982588655407 526.8042912200353" stroke-miterlimit="10"/></g></g></svg>