<svg version="1.1" xmlns="http://www.w3.org/2000/svg" xmlns:xlink="http://www.w3.org/1999/xlink" width="513.72802734375" height="344"><defs/><g><g transform="translate(-342,-238) scale(1,1)"><rect fill="#C0C0C0" stroke="none" x="359" y="255" width="205.287109375" height="90" opacity="0.2"/></g><g transform="translate(-342,-238) scale(1,1)"><rect fill="#ffffff" stroke="none" x="352" y="248" width="205.287109375" height="90"/></g><g transform="translate(-342,-238) scale(1,1)"><path fill="none" stroke="#000000" d="M 352 248 L 557.287109375 248 L 557.287109375 338 L 352 338 L 352 248 Z Z" stroke-miterlimit="10"/></g><g transform="translate(-342,-238) scale(1,1)"><path fill="none" stroke="#000000" d="M 352 271 L 557.287109375 271" stroke-miterlimit="10"/></g><g transform="translate(-342,-238) scale(1,1)"><path fill="none" stroke="#000000" d="M 380.05908203125 271 L 380.05908203125 338" stroke-miterlimit="10"/></g><g transform="translate(-342,-238) scale(1,1)"><path fill="none" stroke="#000000" d="M 470.9599609375 271 L 470.9599609375 338" stroke-miterlimit="10"/></g><g transform="translate(-342,-238) scale(1,1)"><g><path fill="none" stroke="none"/><text fill="#000000" stroke="none" font-family="Arial" font-size="13px" font-style="normal" font-weight="bold" text-decoration="none" x="417.792236328125" y="265.5">email_model</text></g></g><g transform="translate(-342,-238) scale(1,1)"><g><path fill="none" stroke="none"/><text fill="#000000" stroke="none" font-family="Arial" font-size="13px" font-style="normal" font-weight="normal" text-decoration="none" x="357" y="289">PK</text></g></g><g transform="translate(-342,-238) scale(1,1)"><g><path fill="none" stroke="none"/><text fill="#000000" stroke="none" font-family="Arial" font-size="13px" font-style="normal" font-weight="normal" text-decoration="none" x="385.05908203125" y="289">emo_desc</text></g></g><g transform="translate(-342,-238) scale(1,1)"><g><path fill="none" stroke="none"/><text fill="#000000" stroke="none" font-family="Arial" font-size="13px" font-style="normal" font-weight="normal" text-decoration="none" x="475.9599609375" y="289">text</text></g></g><g transform="translate(-342,-238) scale(1,1)"><g><path fill="none" stroke="none"/><text fill="#000000" stroke="none" font-family="Arial" font-size="13px" font-style="normal" font-weight="normal" text-decoration="none" x="357" y="288.5"></text></g></g><g transform="translate(-342,-238) scale(1,1)"><g><path fill="none" stroke="none"/><text fill="#000000" stroke="none" font-family="Arial" font-size="13px" font-style="normal" font-weight="normal" text-decoration="none" x="357" y="304"></text></g></g><g transform="translate(-342,-238) scale(1,1)"><g><path fill="none" stroke="none"/><text fill="#000000" stroke="none" font-family="Arial" font-size="13px" font-style="normal" font-weight="normal" text-decoration="none" x="385.05908203125" y="304">emo_type</text></g></g><g transform="translate(-342,-238) scale(1,1)"><g><path fill="none" stroke="none"/><text fill="#000000" stroke="none" font-family="Arial" font-size="13px" font-style="normal" font-weight="normal" text-decoration="none" x="475.9599609375" y="304">varchar(30)</text></g></g><g transform="translate(-342,-238) scale(1,1)"><g><path fill="none" stroke="none"/><text fill="#000000" stroke="none" font-family="Arial" font-size="13px" font-style="normal" font-weight="normal" text-decoration="none" x="357" y="303.5"></text></g></g><g transform="translate(-342,-238) scale(1,1)"><g><path fill="none" stroke="none"/><text fill="#000000" stroke="none" font-family="Arial" font-size="13px" font-style="normal" font-weight="normal" text-decoration="none" x="357" y="319"></text></g></g><g transform="translate(-342,-238) scale(1,1)"><g><path fill="none" stroke="none"/><text fill="#000000" stroke="none" font-family="Arial" font-size="13px" font-style="normal" font-weight="normal" text-decoration="none" x="385.05908203125" y="319">emo_content</text></g></g><g transform="translate(-342,-238) scale(1,1)"><g><path fill="none" stroke="none"/><text fill="#000000" stroke="none" font-family="Arial" font-size="13px" font-style="normal" font-weight="normal" text-decoration="none" x="475.9599609375" y="319">text</text></g></g><g transform="translate(-342,-238) scale(1,1)"><g><path fill="none" stroke="none"/><text fill="#000000" stroke="none" font-family="Arial" font-size="13px" font-style="normal" font-weight="normal" text-decoration="none" x="357" y="318.5"></text></g></g><g transform="translate(-342,-238) scale(1,1)"><g><path fill="none" stroke="none"/><text fill="#000000" stroke="none" font-family="Arial" font-size="13px" font-style="normal" font-weight="normal" text-decoration="none" x="357" y="334"></text></g></g><g transform="translate(-342,-238) scale(1,1)"><g><path fill="none" stroke="none"/><text fill="#000000" stroke="none" font-family="Arial" font-size="13px" font-style="normal" font-weight="normal" text-decoration="none" x="385.05908203125" y="334">emo_subject</text></g></g><g transform="translate(-342,-238) scale(1,1)"><g><path fill="none" stroke="none"/><text fill="#000000" stroke="none" font-family="Arial" font-size="13px" font-style="normal" font-weight="normal" text-decoration="none" x="475.9599609375" y="334">varchar(120)</text></g></g><g transform="translate(-342,-238) scale(1,1)"><g><path fill="none" stroke="none"/><text fill="#000000" stroke="none" font-family="Arial" font-size="13px" font-style="normal" font-weight="normal" text-decoration="none" x="357" y="333.5"></text></g></g><g transform="translate(-342,-238) scale(1,1)"><rect fill="#C0C0C0" stroke="none" x="659" y="255" width="193.72802734375" height="90" opacity="0.2"/></g><g transform="translate(-342,-238) scale(1,1)"><rect fill="#ffffff" stroke="none" x="652" y="248" width="193.72802734375" height="90"/></g><g transform="translate(-342,-238) scale(1,1)"><path fill="none" stroke="#000000" d="M 652 248 L 845.72802734375 248 L 845.72802734375 338 L 652 338 L 652 248 Z Z" stroke-miterlimit="10"/></g><g transform="translate(-342,-238) scale(1,1)"><path fill="none" stroke="#000000" d="M 652 271 L 845.72802734375 271" stroke-miterlimit="10"/></g><g transform="translate(-342,-238) scale(1,1)"><path fill="none" stroke="#000000" d="M 680.05908203125 271 L 680.05908203125 338" stroke-miterlimit="10"/></g><g transform="translate(-342,-238) scale(1,1)"><path fill="none" stroke="#000000" d="M 766.630859375 271 L 766.630859375 338" stroke-miterlimit="10"/></g><g transform="translate(-342,-238) scale(1,1)"><g><path fill="none" stroke="none"/><text fill="#000000" stroke="none" font-family="Arial" font-size="13px" font-style="normal" font-weight="bold" text-decoration="none" x="685.27001953125" y="265.5">presubscription_token</text></g></g><g transform="translate(-342,-238) scale(1,1)"><g><path fill="none" stroke="none"/><text fill="#000000" stroke="none" font-family="Arial" font-size="13px" font-style="normal" font-weight="normal" text-decoration="none" x="657" y="289">PK</text></g></g><g transform="translate(-342,-238) scale(1,1)"><g><path fill="none" stroke="none"/><text fill="#000000" stroke="none" font-family="Arial" font-size="13px" font-style="normal" font-weight="normal" text-decoration="none" x="685.05908203125" y="289">pt_gen_date</text></g></g><g transform="translate(-342,-238) scale(1,1)"><g><path fill="none" stroke="none"/><text fill="#000000" stroke="none" font-family="Arial" font-size="13px" font-style="normal" font-weight="normal" text-decoration="none" x="771.630859375" y="289">timestamp</text></g></g><g transform="translate(-342,-238) scale(1,1)"><g><path fill="none" stroke="none"/><text fill="#000000" stroke="none" font-family="Arial" font-size="13px" font-style="normal" font-weight="normal" text-decoration="none" x="657" y="288.5"></text></g></g><g transform="translate(-342,-238) scale(1,1)"><g><path fill="none" stroke="none"/><text fill="#000000" stroke="none" font-family="Arial" font-size="13px" font-style="normal" font-weight="normal" text-decoration="none" x="657" y="304">PK</text></g></g><g transform="translate(-342,-238) scale(1,1)"><g><path fill="none" stroke="none"/><text fill="#000000" stroke="none" font-family="Arial" font-size="13px" font-style="normal" font-weight="normal" text-decoration="none" x="685.05908203125" y="304">id_ots</text></g></g><g transform="translate(-342,-238) scale(1,1)"><g><path fill="none" stroke="none"/><text fill="#000000" stroke="none" font-family="Arial" font-size="13px" font-style="normal" font-weight="normal" text-decoration="none" x="771.630859375" y="304">integer</text></g></g><g transform="translate(-342,-238) scale(1,1)"><g><path fill="none" stroke="none"/><text fill="#000000" stroke="none" font-family="Arial" font-size="13px" font-style="normal" font-weight="normal" text-decoration="none" x="657" y="303.5"></text></g></g><g transform="translate(-342,-238) scale(1,1)"><g><path fill="none" stroke="none"/><text fill="#000000" stroke="none" font-family="Arial" font-size="13px" font-style="normal" font-weight="normal" text-decoration="none" x="657" y="319"></text></g></g><g transform="translate(-342,-238) scale(1,1)"><g><path fill="none" stroke="none"/><text fill="#000000" stroke="none" font-family="Arial" font-size="13px" font-style="normal" font-weight="normal" text-decoration="none" x="685.05908203125" y="319">pt_value</text></g></g><g transform="translate(-342,-238) scale(1,1)"><g><path fill="none" stroke="none"/><text fill="#000000" stroke="none" font-family="Arial" font-size="13px" font-style="normal" font-weight="normal" text-decoration="none" x="771.630859375" y="319">varchar(10)</text></g></g><g transform="translate(-342,-238) scale(1,1)"><g><path fill="none" stroke="none"/><text fill="#000000" stroke="none" font-family="Arial" font-size="13px" font-style="normal" font-weight="normal" text-decoration="none" x="657" y="318.5"></text></g></g><g transform="translate(-342,-238) scale(1,1)"><g><path fill="none" stroke="none"/><text fill="#000000" stroke="none" font-family="Arial" font-size="13px" font-style="normal" font-weight="normal" text-decoration="none" x="657" y="334"></text></g></g><g transform="translate(-342,-238) scale(1,1)"><g><path fill="none" stroke="none"/><text fill="#000000" stroke="none" font-family="Arial" font-size="13px" font-style="normal" font-weight="normal" text-decoration="none" x="685.05908203125" y="334">pt_valid</text></g></g><g transform="translate(-342,-238) scale(1,1)"><g><path fill="none" stroke="none"/><text fill="#000000" stroke="none" font-family="Arial" font-size="13px" font-style="normal" font-weight="normal" text-decoration="none" x="771.630859375" y="334">boolean</text></g></g><g transform="translate(-342,-238) scale(1,1)"><g><path fill="none" stroke="none"/><text fill="#000000" stroke="none" font-family="Arial" font-size="13px" font-style="normal" font-weight="normal" text-decoration="none" x="657" y="333.5"></text></g></g><g transform="translate(-342,-238) scale(1,1)"><rect fill="#C0C0C0" stroke="none" x="658" y="459" width="184.30810546875" height="120" opacity="0.2"/></g><g transform="translate(-342,-238) scale(1,1)"><rect fill="#ffffff" stroke="none" x="651" y="452" width="184.30810546875" height="120"/></g><g transform="translate(-342,-238) scale(1,1)"><path fill="none" stroke="#000000" d="M 651 452 L 835.30810546875 452 L 835.30810546875 572 L 651 572 L 651 452 Z Z" stroke-miterlimit="10"/></g><g transform="translate(-342,-238) scale(1,1)"><path fill="none" stroke="#000000" d="M 651 475 L 835.30810546875 475" stroke-miterlimit="10"/></g><g transform="translate(-342,-238) scale(1,1)"><path fill="none" stroke="#000000" d="M 679.05908203125 475 L 679.05908203125 572" stroke-miterlimit="10"/></g><g transform="translate(-342,-238) scale(1,1)"><path fill="none" stroke="#000000" d="M 776.47265625 475 L 776.47265625 572" stroke-miterlimit="10"/></g><g transform="translate(-342,-238) scale(1,1)"><g><path fill="none" stroke="none"/><text fill="#000000" stroke="none" font-family="Arial" font-size="13px" font-style="normal" font-weight="bold" text-decoration="none" x="676.3037109375" y="469.5">occupant_to_subscribe</text></g></g><g transform="translate(-342,-238) scale(1,1)"><g><path fill="none" stroke="none"/><text fill="#000000" stroke="none" font-family="Arial" font-size="13px" font-style="normal" font-weight="normal" text-decoration="none" x="656" y="493">PK</text></g></g><g transform="translate(-342,-238) scale(1,1)"><g><path fill="none" stroke="none"/><text fill="#000000" stroke="none" font-family="Arial" font-size="13px" font-style="normal" font-weight="normal" text-decoration="none" x="684.05908203125" y="493">id_ots</text></g></g><g transform="translate(-342,-238) scale(1,1)"><g><path fill="none" stroke="none"/><text fill="#000000" stroke="none" font-family="Arial" font-size="13px" font-style="normal" font-weight="normal" text-decoration="none" x="781.47265625" y="493">integer</text></g></g><g transform="translate(-342,-238) scale(1,1)"><g><path fill="none" stroke="none"/><text fill="#000000" stroke="none" font-family="Arial" font-size="13px" font-style="normal" font-weight="normal" text-decoration="none" x="656" y="492.5"></text></g></g><g transform="translate(-342,-238) scale(1,1)"><g><path fill="none" stroke="none"/><text fill="#000000" stroke="none" font-family="Arial" font-size="13px" font-style="normal" font-weight="normal" text-decoration="none" x="656" y="508"></text></g></g><g transform="translate(-342,-238) scale(1,1)"><g><path fill="none" stroke="none"/><text fill="#000000" stroke="none" font-family="Arial" font-size="13px" font-style="normal" font-weight="normal" text-decoration="none" x="684.05908203125" y="508">ots_login_</text></g></g><g transform="translate(-342,-238) scale(1,1)"><g><path fill="none" stroke="none"/><text fill="#000000" stroke="none" font-family="Arial" font-size="13px" font-style="normal" font-weight="normal" text-decoration="none" x="781.47265625" y="508">text</text></g></g><g transform="translate(-342,-238) scale(1,1)"><g><path fill="none" stroke="none"/><text fill="#000000" stroke="none" font-family="Arial" font-size="13px" font-style="normal" font-weight="normal" text-decoration="none" x="656" y="507.5"></text></g></g><g transform="translate(-342,-238) scale(1,1)"><g><path fill="none" stroke="none"/><text fill="#000000" stroke="none" font-family="Arial" font-size="13px" font-style="normal" font-weight="normal" text-decoration="none" x="656" y="523"></text></g></g><g transform="translate(-342,-238) scale(1,1)"><g><path fill="none" stroke="none"/><text fill="#000000" stroke="none" font-family="Arial" font-size="13px" font-style="normal" font-weight="normal" text-decoration="none" x="684.05908203125" y="523">ots_password</text></g></g><g transform="translate(-342,-238) scale(1,1)"><g><path fill="none" stroke="none"/><text fill="#000000" stroke="none" font-family="Arial" font-size="13px" font-style="normal" font-weight="normal" text-decoration="none" x="781.47265625" y="523">text</text></g></g><g transform="translate(-342,-238) scale(1,1)"><g><path fill="none" stroke="none"/><text fill="#000000" stroke="none" font-family="Arial" font-size="13px" font-style="normal" font-weight="normal" text-decoration="none" x="656" y="522.5"></text></g></g><g transform="translate(-342,-238) scale(1,1)"><g><path fill="none" stroke="none"/><text fill="#000000" stroke="none" font-family="Arial" font-size="13px" font-style="normal" font-weight="normal" text-decoration="none" x="656" y="538"></text></g></g><g transform="translate(-342,-238) scale(1,1)"><g><path fill="none" stroke="none"/><text fill="#000000" stroke="none" font-family="Arial" font-size="13px" font-style="normal" font-weight="normal" text-decoration="none" x="684.05908203125" y="538">ots_street</text></g></g><g transform="translate(-342,-238) scale(1,1)"><g><path fill="none" stroke="none"/><text fill="#000000" stroke="none" font-family="Arial" font-size="13px" font-style="normal" font-weight="normal" text-decoration="none" x="781.47265625" y="538">boolean</text></g></g><g transform="translate(-342,-238) scale(1,1)"><g><path fill="none" stroke="none"/><text fill="#000000" stroke="none" font-family="Arial" font-size="13px" font-style="normal" font-weight="normal" text-decoration="none" x="656" y="537.5"></text></g></g><g transform="translate(-342,-238) scale(1,1)"><g><path fill="none" stroke="none"/><text fill="#000000" stroke="none" font-family="Arial" font-size="13px" font-style="normal" font-weight="normal" text-decoration="none" x="656" y="553"></text></g></g><g transform="translate(-342,-238) scale(1,1)"><g><path fill="none" stroke="none"/><text fill="#000000" stroke="none" font-family="Arial" font-size="13px" font-style="normal" font-weight="normal" text-decoration="none" x="684.05908203125" y="553">ots_city</text></g></g><g transform="translate(-342,-238) scale(1,1)"><g><path fill="none" stroke="none"/><text fill="#000000" stroke="none" font-family="Arial" font-size="13px" font-style="normal" font-weight="normal" text-decoration="none" x="781.47265625" y="553">text</text></g></g><g transform="translate(-342,-238) scale(1,1)"><g><path fill="none" stroke="none"/><text fill="#000000" stroke="none" font-family="Arial" font-size="13px" font-style="normal" font-weight="normal" text-decoration="none" x="656" y="552.5"></text></g></g><g transform="translate(-342,-238) scale(1,1)"><g><path fill="none" stroke="none"/><text fill="#000000" stroke="none" font-family="Arial" font-size="13px" font-style="normal" font-weight="normal" text-decoration="none" x="656" y="568"></text></g></g><g transform="translate(-342,-238) scale(1,1)"><g><path fill="none" stroke="none"/><text fill="#000000" stroke="none" font-family="Arial" font-size="13px" font-style="normal" font-weight="normal" text-decoration="none" x="684.05908203125" y="568">ots_number</text></g></g><g transform="translate(-342,-238) scale(1,1)"><g><path fill="none" stroke="none"/><text fill="#000000" stroke="none" font-family="Arial" font-size="13px" font-style="normal" font-weight="normal" text-decoration="none" x="781.47265625" y="568">text</text></g></g><g transform="translate(-342,-238) scale(1,1)"><g><path fill="none" stroke="none"/><text fill="#000000" stroke="none" font-family="Arial" font-size="13px" font-style="normal" font-weight="normal" text-decoration="none" x="656" y="567.5"></text></g></g><g transform="translate(-342,-238) scale(1,1)"><path fill="none" stroke="#000000" d="M 720 452 L 720 338" stroke-miterlimit="10"/></g><g transform="translate(-342,-238) scale(1,1)"><path fill="none" stroke="#000000" d="M 720 352 L 727 338" stroke-miterlimit="10"/></g><g transform="translate(-342,-238) scale(1,1)"><path fill="none" stroke="#000000" d="M 720 352 L 713 338" stroke-miterlimit="10"/></g><g transform="translate(-342,-238) scale(1,1)"><path fill="#FFFFFF" stroke="none" d="M 713 360 C 713 356.1340064 716.1340064 353 720 353 C 723.8659936 353 727 356.1340064 727 360 C 727 363.8659936 723.8659936 367 720 367 C 716.1340064 367 713 363.8659936 713 360 Z"/></g><g transform="translate(-342,-238) scale(1,1)"><path fill="none" stroke="#000000" d="M 713 360 C 713 356.1340064 716.1340064 353 720 353 C 723.8659936 353 727 356.1340064 727 360 C 727 363.8659936 723.8659936 367 720 367 C 716.1340064 367 713 363.8659936 713 360 Z" stroke-miterlimit="10"/></g><g transform="translate(-342,-238) scale(1,1)"><path fill="none" stroke="#000000" d="M 713 445 L 727 445" stroke-miterlimit="10"/></g><g transform="translate(-342,-238) scale(1,1)"><path fill="none" stroke="#000000" d="M 713 438 L 727 438" stroke-miterlimit="10"/></g><g transform="translate(-342,-238) scale(1,1)"><g><path fill="none" stroke="none"/><text fill="#000000" stroke="none" font-family="Arial" font-size="13px" font-style="normal" font-weight="normal" text-decoration="none" x="704.5" y="432.5"></text></g></g><g transform="translate(-342,-238) scale(1,1)"><g><path fill="none" stroke="none"/><text fill="#000000" stroke="none" font-family="Arial" font-size="13px" font-style="normal" font-weight="normal" text-decoration="none" x="704.5" y="369.5"></text></g></g></g></svg>