<svg version="1.1" xmlns="http://www.w3.org/2000/svg" xmlns:xlink="http://www.w3.org/1999/xlink" width="589.6630859375" height="695"><defs/><g><g transform="translate(-134,-422) scale(1,1)"><rect fill="#C0C0C0" stroke="none" x="159" y="439" width="542.9521484375" height="130" opacity="0.2"/></g><g transform="translate(-134,-422) scale(1,1)"><rect fill="#ffffff" stroke="none" x="152" y="432" width="542.9521484375" height="130"/></g><g transform="translate(-134,-422) scale(1,1)"><path fill="none" stroke="#000000" d="M 152 432 L 694.9521484375 432 L 694.9521484375 562 L 152 562 L 152 432 Z Z" stroke-miterlimit="10"/></g><g transform="translate(-134,-422) scale(1,1)"><path fill="none" stroke="#000000" d="M 152 470 L 694.9521484375 470" stroke-miterlimit="10"/></g><g transform="translate(-134,-422) scale(1,1)"><path fill="none" stroke="#000000" d="M 152 480 L 694.9521484375 480" stroke-miterlimit="10"/></g><g transform="translate(-134,-422) scale(1,1)"><g><path fill="none" stroke="none"/><text fill="#000000" stroke="none" font-family="Arial" font-size="13px" font-style="normal" font-weight="normal" text-decoration="none" x="380.8515625" y="449.5">«HTTP Client»</text></g></g><g transform="translate(-134,-422) scale(1,1)"><g><path fill="none" stroke="none"/><text fill="#000000" stroke="none" font-family="Arial" font-size="13px" font-style="italic" font-weight="bold" text-decoration="none" x="379.76611328125" y="464.5">GrdfAdictClient</text></g></g><g transform="translate(-134,-422) scale(1,1)"><g><path fill="none" stroke="none"/><text fill="#000000" stroke="none" font-family="Arial" font-size="13px" font-style="normal" font-weight="normal" text-decoration="none" x="157" y="497.5">#retreiveOauth2AccessToken(config, proxyHost, proxyPort)</text><path fill="none" stroke="#000000" d="M 157 497.5 L 498.7578125 497.5" stroke-miterlimit="10"/></g></g><g transform="translate(-134,-422) scale(1,1)"><g><path fill="none" stroke="none"/><text fill="#000000" stroke="none" font-family="Arial" font-size="13px" font-style="normal" font-weight="normal" text-decoration="none" x="157" y="512.5">#getContractualData(config, proxyHost, proxyPort, mp, accessToken)</text><path fill="none" stroke="#000000" d="M 157 512.5 L 555.84228515625 512.5" stroke-miterlimit="10"/></g></g><g transform="translate(-134,-422) scale(1,1)"><g><path fill="none" stroke="none"/><text fill="#000000" stroke="none" font-family="Arial" font-size="13px" font-style="normal" font-weight="normal" text-decoration="none" x="157" y="527.5">#getTechnicalData(config, proxyHost, proxyPort, mp, accessToken)</text><path fill="none" stroke="#000000" d="M 157 527.5 L 543.5595703125 527.5" stroke-miterlimit="10"/></g></g><g transform="translate(-134,-422) scale(1,1)"><g><path fill="none" stroke="none"/><text fill="#000000" stroke="none" font-family="Arial" font-size="13px" font-style="normal" font-weight="normal" text-decoration="none" x="157" y="542.5">#getInfrmativesConsumptionData(config, proxyHost, proxyPort, mp, accessToken, start, end)</text><path fill="none" stroke="#000000" d="M 157 542.5 L 690.9521484375 542.5" stroke-miterlimit="10"/></g></g><g transform="translate(-134,-422) scale(1,1)"><g><path fill="none" stroke="none"/><text fill="#000000" stroke="none" font-family="Arial" font-size="13px" font-style="normal" font-weight="normal" text-decoration="none" x="157" y="557.5">#retreiveOpenIdAccessToken(config, proxyHost, proxyPort, code)</text><path fill="none" stroke="#000000" d="M 157 557.5 L 534.17138671875 557.5" stroke-miterlimit="10"/></g></g><g transform="translate(-134,-422) scale(1,1)"><rect fill="#C0C0C0" stroke="none" x="151" y="671" width="569.6630859375" height="443" opacity="0.2"/></g><g transform="translate(-134,-422) scale(1,1)"><rect fill="#ffffff" stroke="none" x="144" y="664" width="569.6630859375" height="443"/></g><g transform="translate(-134,-422) scale(1,1)"><path fill="none" stroke="#000000" d="M 144 664 L 713.6630859375 664 L 713.6630859375 1107 L 144 1107 L 144 664 Z Z" stroke-miterlimit="10"/></g><g transform="translate(-134,-422) scale(1,1)"><path fill="none" stroke="#000000" d="M 144 702 L 713.6630859375 702" stroke-miterlimit="10"/></g><g transform="translate(-134,-422) scale(1,1)"><path fill="none" stroke="#000000" d="M 144 740 L 713.6630859375 740" stroke-miterlimit="10"/></g><g transform="translate(-134,-422) scale(1,1)"><g><path fill="none" stroke="none"/><text fill="#000000" stroke="none" font-family="Arial" font-size="13px" font-style="normal" font-weight="normal" text-decoration="none" x="398.8388671875" y="681.5">«Handler»</text></g></g><g transform="translate(-134,-422) scale(1,1)"><g><path fill="none" stroke="none"/><text fill="#000000" stroke="none" font-family="Arial" font-size="13px" font-style="normal" font-weight="bold" text-decoration="none" x="380.3037109375" y="696.5">GrdfTrueHandler</text></g></g><g transform="translate(-134,-422) scale(1,1)"><g><path fill="none" stroke="none"/><text fill="#000000" stroke="none" font-family="Arial" font-size="13px" font-style="normal" font-weight="normal" text-decoration="none" x="149" y="719.5">-log</text></g></g><g transform="translate(-134,-422) scale(1,1)"><g><path fill="none" stroke="none"/><text fill="#000000" stroke="none" font-family="Arial" font-size="13px" font-style="normal" font-weight="normal" text-decoration="none" x="149" y="734.5">-grdfAdictRequestTransaction</text></g></g><g transform="translate(-134,-422) scale(1,1)"><g><path fill="none" stroke="none"/><text fill="#000000" stroke="none" font-family="Arial" font-size="13px" font-style="normal" font-weight="normal" text-decoration="none" x="149" y="757.5">#init()</text></g></g><g transform="translate(-134,-422) scale(1,1)"><g><path fill="none" stroke="none"/><text fill="#000000" stroke="none" font-family="Arial" font-size="13px" font-style="normal" font-weight="normal" text-decoration="none" x="149" y="772.5">#loadConfig()</text></g></g><g transform="translate(-134,-422) scale(1,1)"><g><path fill="none" stroke="none"/><text fill="#000000" stroke="none" font-family="Arial" font-size="13px" font-style="normal" font-weight="normal" text-decoration="none" x="149" y="787.5">#setProxy()</text></g></g><g transform="translate(-134,-422) scale(1,1)"><g><path fill="none" stroke="none"/><text fill="#000000" stroke="none" font-family="Arial" font-size="13px" font-style="normal" font-weight="normal" text-decoration="none" x="149" y="802.5">+prepareDsoData(req)</text></g></g><g transform="translate(-134,-422) scale(1,1)"><g><path fill="none" stroke="none"/><text fill="#000000" stroke="none" font-family="Arial" font-size="13px" font-style="normal" font-weight="normal" text-decoration="none" x="149" y="817.5">+getDpsPortalUrl(idPremise)</text></g></g><g transform="translate(-134,-422) scale(1,1)"><g><path fill="none" stroke="none"/><text fill="#000000" stroke="none" font-family="Arial" font-size="13px" font-style="normal" font-weight="normal" text-decoration="none" x="149" y="832.5">#retreiveAuthorizeCode(code)</text></g></g><g transform="translate(-134,-422) scale(1,1)"><g><path fill="none" stroke="none"/><text fill="#000000" stroke="none" font-family="Arial" font-size="13px" font-style="normal" font-weight="normal" text-decoration="none" x="149" y="847.5">#retreiveAccessToken()</text></g></g><g transform="translate(-134,-422) scale(1,1)"><g><path fill="none" stroke="none"/><text fill="#000000" stroke="none" font-family="Arial" font-size="13px" font-style="normal" font-weight="normal" text-decoration="none" x="149" y="862.5">+parseJsonError(rawJson, httpCode)</text></g></g><g transform="translate(-134,-422) scale(1,1)"><g><path fill="none" stroke="none"/><text fill="#000000" stroke="none" font-family="Arial" font-size="13px" font-style="normal" font-weight="normal" text-decoration="none" x="149" y="877.5">#getContractualData(mp)</text></g></g><g transform="translate(-134,-422) scale(1,1)"><g><path fill="none" stroke="none"/><text fill="#000000" stroke="none" font-family="Arial" font-size="13px" font-style="normal" font-weight="normal" text-decoration="none" x="149" y="892.5">#getTechnicalData(mp)</text></g></g><g transform="translate(-134,-422) scale(1,1)"><g><path fill="none" stroke="none"/><text fill="#000000" stroke="none" font-family="Arial" font-size="13px" font-style="normal" font-weight="normal" text-decoration="none" x="149" y="907.5">#getInformativesConsumptionData(mp, start, end, subscription)</text></g></g><g transform="translate(-134,-422) scale(1,1)"><g><path fill="none" stroke="none"/><text fill="#000000" stroke="none" font-family="Arial" font-size="13px" font-style="normal" font-weight="normal" text-decoration="none" x="149" y="922.5">-technicalDataEndpointCall(mp)</text></g></g><g transform="translate(-134,-422) scale(1,1)"><g><path fill="none" stroke="none"/><text fill="#000000" stroke="none" font-family="Arial" font-size="13px" font-style="normal" font-weight="normal" text-decoration="none" x="149" y="937.5">-contractualDataEndpointCall(mp)</text></g></g><g transform="translate(-134,-422) scale(1,1)"><g><path fill="none" stroke="none"/><text fill="#000000" stroke="none" font-family="Arial" font-size="13px" font-style="normal" font-weight="normal" text-decoration="none" x="149" y="952.5">-informativesConsumptionDataEndpoitCall(mp, start, end, subscription)</text></g></g><g transform="translate(-134,-422) scale(1,1)"><g><path fill="none" stroke="none"/><text fill="#000000" stroke="none" font-family="Arial" font-size="13px" font-style="normal" font-weight="normal" text-decoration="none" x="149" y="967.5">-initTransaction()</text></g></g><g transform="translate(-134,-422) scale(1,1)"><g><path fill="none" stroke="none"/><text fill="#000000" stroke="none" font-family="Arial" font-size="13px" font-style="normal" font-weight="normal" text-decoration="none" x="149" y="982.5">-startTransaction()</text></g></g><g transform="translate(-134,-422) scale(1,1)"><g><path fill="none" stroke="none"/><text fill="#000000" stroke="none" font-family="Arial" font-size="13px" font-style="normal" font-weight="normal" text-decoration="none" x="149" y="997.5">-endTransaction()</text></g></g><g transform="translate(-134,-422) scale(1,1)"><g><path fill="none" stroke="none"/><text fill="#000000" stroke="none" font-family="Arial" font-size="13px" font-style="normal" font-weight="normal" text-decoration="none" x="149" y="1012.5">-rollbackTransaction()</text></g></g><g transform="translate(-134,-422) scale(1,1)"><g><path fill="none" stroke="none"/><text fill="#000000" stroke="none" font-family="Arial" font-size="13px" font-style="normal" font-weight="normal" text-decoration="none" x="149" y="1027.5">-waitAboutOneSecond()</text></g></g><g transform="translate(-134,-422) scale(1,1)"><g><path fill="none" stroke="none"/><text fill="#000000" stroke="none" font-family="Arial" font-size="13px" font-style="normal" font-weight="normal" text-decoration="none" x="149" y="1042.5">-retryRetreiveAccessToken(config, proxyHost, proxyPort)</text></g></g><g transform="translate(-134,-422) scale(1,1)"><g><path fill="none" stroke="none"/><text fill="#000000" stroke="none" font-family="Arial" font-size="13px" font-style="normal" font-weight="normal" text-decoration="none" x="149" y="1057.5">-retryRetreiveAuthorizeCode(config, proxyHost, proxyPort, code)</text></g></g><g transform="translate(-134,-422) scale(1,1)"><g><path fill="none" stroke="none"/><text fill="#000000" stroke="none" font-family="Arial" font-size="13px" font-style="normal" font-weight="normal" text-decoration="none" x="149" y="1072.5">-retryGetContractualData(config, proxyHost, proxyPort, mp, accessToken)</text></g></g><g transform="translate(-134,-422) scale(1,1)"><g><path fill="none" stroke="none"/><text fill="#000000" stroke="none" font-family="Arial" font-size="13px" font-style="normal" font-weight="normal" text-decoration="none" x="149" y="1087.5">-retryGetTechnicalData(config, proxyHost, proxyPort, mp, accessToken)</text></g></g><g transform="translate(-134,-422) scale(1,1)"><g><path fill="none" stroke="none"/><text fill="#000000" stroke="none" font-family="Arial" font-size="13px" font-style="normal" font-weight="normal" text-decoration="none" x="149" y="1102.5">-retryGetInformativeConsumptionData(config, proxyHost, proxyPort, mp, accessToken, start, end)</text></g></g><g transform="translate(-134,-422) scale(1,1)"><path fill="none" stroke="#000000" d="M 425 663 L 424 563" stroke-miterlimit="10" stroke-dasharray="3"/></g><g transform="translate(-134,-422) scale(1,1)"><path fill="none" stroke="#000000" d="M 428.31092896353243 573.120073689029 L 424 563 L 419.8923143717073 573.2042598349473" stroke-miterlimit="10"/></g></g></svg>