<svg version="1.1" xmlns="http://www.w3.org/2000/svg" xmlns:xlink="http://www.w3.org/1999/xlink" width="908" height="416"><defs/><g><g transform="translate(2,-200) scale(1,1)"><path fill="#C0C0C0" stroke="none" d="M 15 227 L 316 227 L 316 504 L 15 504" opacity="0.2"/></g><g transform="translate(2,-200) scale(1,1)"><path fill="#C0C0C0" stroke="none" d="M 15 227 L 25 217 L 326 217 L 316 227" opacity="0.2"/></g><g transform="translate(2,-200) scale(1,1)"><path fill="#C0C0C0" stroke="none" d="M 326 217 L 316 227 L 316 504 L 326 494" opacity="0.2"/></g><g transform="translate(2,-200) scale(1,1)"><path fill="#ffffff" stroke="none" d="M 8 220 L 309 220 L 309 497 L 8 497"/></g><g transform="translate(2,-200) scale(1,1)"><path fill="#ffffff" stroke="none" d="M 8 220 L 18 210 L 319 210 L 309 220"/></g><g transform="translate(2,-200) scale(1,1)"><path fill="#ffffff" stroke="none" d="M 319 210 L 309 220 L 309 497 L 319 487"/></g><g transform="translate(2,-200) scale(1,1)"><path fill="none" stroke="#000000" d="M 8 220 L 309 220 L 309 497 L 8 497 L 8 220" stroke-miterlimit="10"/></g><g transform="translate(2,-200) scale(1,1)"><path fill="none" stroke="#000000" d="M 8 220 L 18 210 L 319 210 L 309 220 L 8 220" stroke-miterlimit="10"/></g><g transform="translate(2,-200) scale(1,1)"><path fill="none" stroke="#000000" d="M 319 210 L 309 220 L 309 497 L 319 487 L 319 210" stroke-miterlimit="10"/></g><g transform="translate(2,-200) scale(1,1)"><g><path fill="none" stroke="none"/><text fill="#000000" stroke="none" font-family="Arial" font-size="13px" font-style="normal" font-weight="normal" text-decoration="none" x="132.62548828125" y="237.5">«Server»</text></g></g><g transform="translate(2,-200) scale(1,1)"><g><path fill="none" stroke="none"/><text fill="#000000" stroke="none" font-family="Arial" font-size="13px" font-style="normal" font-weight="bold" text-decoration="none" x="115.064697265625" y="252.5">INTEGRATION</text></g></g><g transform="translate(2,-200) scale(1,1)"><path fill="#C0C0C0" stroke="none" d="M 359 227 L 724 227 L 724 384 L 359 384" opacity="0.2"/></g><g transform="translate(2,-200) scale(1,1)"><path fill="#C0C0C0" stroke="none" d="M 359 227 L 369 217 L 734 217 L 724 227" opacity="0.2"/></g><g transform="translate(2,-200) scale(1,1)"><path fill="#C0C0C0" stroke="none" d="M 734 217 L 724 227 L 724 384 L 734 374" opacity="0.2"/></g><g transform="translate(2,-200) scale(1,1)"><path fill="#ffffff" stroke="none" d="M 352 220 L 717 220 L 717 377 L 352 377"/></g><g transform="translate(2,-200) scale(1,1)"><path fill="#ffffff" stroke="none" d="M 352 220 L 362 210 L 727 210 L 717 220"/></g><g transform="translate(2,-200) scale(1,1)"><path fill="#ffffff" stroke="none" d="M 727 210 L 717 220 L 717 377 L 727 367"/></g><g transform="translate(2,-200) scale(1,1)"><path fill="none" stroke="#000000" d="M 352 220 L 717 220 L 717 377 L 352 377 L 352 220" stroke-miterlimit="10"/></g><g transform="translate(2,-200) scale(1,1)"><path fill="none" stroke="#000000" d="M 352 220 L 362 210 L 727 210 L 717 220 L 352 220" stroke-miterlimit="10"/></g><g transform="translate(2,-200) scale(1,1)"><path fill="none" stroke="#000000" d="M 727 210 L 717 220 L 717 377 L 727 367 L 727 210" stroke-miterlimit="10"/></g><g transform="translate(2,-200) scale(1,1)"><g><path fill="none" stroke="none"/><text fill="#000000" stroke="none" font-family="Arial" font-size="13px" font-style="normal" font-weight="normal" text-decoration="none" x="508.62548828125" y="237.5">«Server»</text></g></g><g transform="translate(2,-200) scale(1,1)"><g><path fill="none" stroke="none"/><text fill="#000000" stroke="none" font-family="Arial" font-size="13px" font-style="normal" font-weight="bold" text-decoration="none" x="502.85546875" y="252.5">PREPROD</text></g></g><g transform="translate(2,-200) scale(1,1)"><path fill="#C0C0C0" stroke="none" d="M 591 499 L 892 499 L 892 612 L 591 612" opacity="0.2"/></g><g transform="translate(2,-200) scale(1,1)"><path fill="#C0C0C0" stroke="none" d="M 591 499 L 601 489 L 902 489 L 892 499" opacity="0.2"/></g><g transform="translate(2,-200) scale(1,1)"><path fill="#C0C0C0" stroke="none" d="M 902 489 L 892 499 L 892 612 L 902 602" opacity="0.2"/></g><g transform="translate(2,-200) scale(1,1)"><path fill="#ffffff" stroke="none" d="M 584 492 L 885 492 L 885 605 L 584 605"/></g><g transform="translate(2,-200) scale(1,1)"><path fill="#ffffff" stroke="none" d="M 584 492 L 594 482 L 895 482 L 885 492"/></g><g transform="translate(2,-200) scale(1,1)"><path fill="#ffffff" stroke="none" d="M 895 482 L 885 492 L 885 605 L 895 595"/></g><g transform="translate(2,-200) scale(1,1)"><path fill="none" stroke="#000000" d="M 584 492 L 885 492 L 885 605 L 584 605 L 584 492" stroke-miterlimit="10"/></g><g transform="translate(2,-200) scale(1,1)"><path fill="none" stroke="#000000" d="M 584 492 L 594 482 L 895 482 L 885 492 L 584 492" stroke-miterlimit="10"/></g><g transform="translate(2,-200) scale(1,1)"><path fill="none" stroke="#000000" d="M 895 482 L 885 492 L 885 605 L 895 595 L 895 482" stroke-miterlimit="10"/></g><g transform="translate(2,-200) scale(1,1)"><g><path fill="none" stroke="none"/><text fill="#000000" stroke="none" font-family="Arial" font-size="13px" font-style="normal" font-weight="normal" text-decoration="none" x="708.62548828125" y="509.5">«Server»</text></g></g><g transform="translate(2,-200) scale(1,1)"><g><path fill="none" stroke="none"/><text fill="#000000" stroke="none" font-family="Arial" font-size="13px" font-style="normal" font-weight="bold" text-decoration="none" x="696.9521484375" y="524.5">DATABASES</text></g></g><g transform="translate(2,-200) scale(1,1)"><rect fill="#C0C0C0" stroke="none" x="625" y="553" width="125.6796875" height="44" opacity="0.2"/></g><g transform="translate(2,-200) scale(1,1)"><rect fill="#ffffff" stroke="none" x="618" y="546" width="125.6796875" height="44"/></g><g transform="translate(2,-200) scale(1,1)"><path fill="none" stroke="#000000" d="M 618 546 L 743.6796875 546 L 743.6796875 590 L 618 590 L 618 546 Z Z" stroke-miterlimit="10"/></g><g transform="translate(2,-200) scale(1,1)"><rect fill="#ffffff" stroke="none" x="608" y="553" width="20" height="10"/></g><g transform="translate(2,-200) scale(1,1)"><path fill="none" stroke="#000000" d="M 608 553 L 628 553 L 628 563 L 608 563 L 608 553 Z Z" stroke-miterlimit="10"/></g><g transform="translate(2,-200) scale(1,1)"><rect fill="#ffffff" stroke="none" x="608" y="573" width="20" height="10"/></g><g transform="translate(2,-200) scale(1,1)"><path fill="none" stroke="#000000" d="M 608 573 L 628 573 L 628 583 L 608 583 L 608 573 Z Z" stroke-miterlimit="10"/></g><g transform="translate(2,-200) scale(1,1)"><g><path fill="none" stroke="none"/><text fill="#000000" stroke="none" font-family="Arial" font-size="13px" font-style="normal" font-weight="normal" text-decoration="none" x="650.784912109375" y="563.5">«Database»</text></g></g><g transform="translate(2,-200) scale(1,1)"><g><path fill="none" stroke="none"/><text fill="#000000" stroke="none" font-family="Arial" font-size="13px" font-style="normal" font-weight="bold" text-decoration="none" x="642.85986328125" y="578.5">PREPROD DB</text></g></g><g transform="translate(2,-200) scale(1,1)"><rect fill="#C0C0C0" stroke="none" x="777" y="553" width="105.2890625" height="44" opacity="0.2"/></g><g transform="translate(2,-200) scale(1,1)"><rect fill="#ffffff" stroke="none" x="770" y="546" width="105.2890625" height="44"/></g><g transform="translate(2,-200) scale(1,1)"><path fill="none" stroke="#000000" d="M 770 546 L 875.2890625 546 L 875.2890625 590 L 770 590 L 770 546 Z Z" stroke-miterlimit="10"/></g><g transform="translate(2,-200) scale(1,1)"><rect fill="#ffffff" stroke="none" x="760" y="553" width="20" height="10"/></g><g transform="translate(2,-200) scale(1,1)"><path fill="none" stroke="#000000" d="M 760 553 L 780 553 L 780 563 L 760 563 L 760 553 Z Z" stroke-miterlimit="10"/></g><g transform="translate(2,-200) scale(1,1)"><rect fill="#ffffff" stroke="none" x="760" y="573" width="20" height="10"/></g><g transform="translate(2,-200) scale(1,1)"><path fill="none" stroke="#000000" d="M 760 573 L 780 573 L 780 583 L 760 583 L 760 573 Z Z" stroke-miterlimit="10"/></g><g transform="translate(2,-200) scale(1,1)"><g><path fill="none" stroke="none"/><text fill="#000000" stroke="none" font-family="Arial" font-size="13px" font-style="normal" font-weight="normal" text-decoration="none" x="792.589599609375" y="563.5">«Database»</text></g></g><g transform="translate(2,-200) scale(1,1)"><g><path fill="none" stroke="none"/><text fill="#000000" stroke="none" font-family="Arial" font-size="13px" font-style="normal" font-weight="bold" text-decoration="none" x="798.029541015625" y="578.5">PROD DB</text></g></g><g transform="translate(2,-200) scale(1,1)"><rect fill="#C0C0C0" stroke="none" x="33" y="273" width="262" height="200" opacity="0.2"/></g><g transform="translate(2,-200) scale(1,1)"><rect fill="#ffffff" stroke="none" x="26" y="266" width="262" height="200"/></g><g transform="translate(2,-200) scale(1,1)"><path fill="none" stroke="#000000" d="M 26 266 L 288 266 L 288 466 L 26 466 L 26 266 Z Z" stroke-miterlimit="10"/></g><g transform="translate(2,-200) scale(1,1)"><rect fill="#ffffff" stroke="none" x="16" y="273" width="20" height="10"/></g><g transform="translate(2,-200) scale(1,1)"><path fill="none" stroke="#000000" d="M 16 273 L 36 273 L 36 283 L 16 283 L 16 273 Z Z" stroke-miterlimit="10"/></g><g transform="translate(2,-200) scale(1,1)"><rect fill="#ffffff" stroke="none" x="16" y="293" width="20" height="10"/></g><g transform="translate(2,-200) scale(1,1)"><path fill="none" stroke="#000000" d="M 16 293 L 36 293 L 36 303 L 16 303 L 16 293 Z Z" stroke-miterlimit="10"/></g><g transform="translate(2,-200) scale(1,1)"><g><path fill="none" stroke="none"/><text fill="#000000" stroke="none" font-family="Arial" font-size="15px" font-style="normal" font-weight="normal" text-decoration="none" x="102.1025390625" y="285.5">«Virtual Machine»</text></g></g><g transform="translate(2,-200) scale(1,1)"><g><path fill="none" stroke="none"/><text fill="#000000" stroke="none" font-family="Arial" font-size="15px" font-style="normal" font-weight="bold" text-decoration="none" x="97.9716796875" y="302.5">VM INTEGRATION</text></g></g><g transform="translate(2,-200) scale(1,1)"><rect fill="#C0C0C0" stroke="none" x="569" y="273" width="138.18359375" height="96" opacity="0.2"/></g><g transform="translate(2,-200) scale(1,1)"><rect fill="#ffffff" stroke="none" x="562" y="266" width="138.18359375" height="96"/></g><g transform="translate(2,-200) scale(1,1)"><path fill="none" stroke="#000000" d="M 562 266 L 700.18359375 266 L 700.18359375 362 L 562 362 L 562 266 Z Z" stroke-miterlimit="10"/></g><g transform="translate(2,-200) scale(1,1)"><rect fill="#ffffff" stroke="none" x="552" y="273" width="20" height="10"/></g><g transform="translate(2,-200) scale(1,1)"><path fill="none" stroke="#000000" d="M 552 273 L 572 273 L 572 283 L 552 283 L 552 273 Z Z" stroke-miterlimit="10"/></g><g transform="translate(2,-200) scale(1,1)"><rect fill="#ffffff" stroke="none" x="552" y="293" width="20" height="10"/></g><g transform="translate(2,-200) scale(1,1)"><path fill="none" stroke="#000000" d="M 552 293 L 572 293 L 572 303 L 552 303 L 552 293 Z Z" stroke-miterlimit="10"/></g><g transform="translate(2,-200) scale(1,1)"><g><path fill="none" stroke="none"/><text fill="#000000" stroke="none" font-family="Arial" font-size="13px" font-style="normal" font-weight="normal" text-decoration="none" x="584.1806640625" y="283.5">«Virtual Machine»</text></g></g><g transform="translate(2,-200) scale(1,1)"><g><path fill="none" stroke="none"/><text fill="#000000" stroke="none" font-family="Arial" font-size="13px" font-style="normal" font-weight="bold" text-decoration="none" x="576.5" y="298.5">VM PREPROD PRO</text></g></g><g transform="translate(2,-200) scale(1,1)"><rect fill="#C0C0C0" stroke="none" x="593" y="313" width="102.3203125" height="44" opacity="0.2"/></g><g transform="translate(2,-200) scale(1,1)"><rect fill="#ffffff" stroke="none" x="586" y="306" width="102.3203125" height="44"/></g><g transform="translate(2,-200) scale(1,1)"><path fill="none" stroke="#000000" d="M 586 306 L 688.3203125 306 L 688.3203125 350 L 586 350 L 586 306 Z Z" stroke-miterlimit="10"/></g><g transform="translate(2,-200) scale(1,1)"><rect fill="#ffffff" stroke="none" x="576" y="313" width="20" height="10"/></g><g transform="translate(2,-200) scale(1,1)"><path fill="none" stroke="#000000" d="M 576 313 L 596 313 L 596 323 L 576 323 L 576 313 Z Z" stroke-miterlimit="10"/></g><g transform="translate(2,-200) scale(1,1)"><rect fill="#ffffff" stroke="none" x="576" y="333" width="20" height="10"/></g><g transform="translate(2,-200) scale(1,1)"><path fill="none" stroke="#000000" d="M 576 333 L 596 333 L 596 343 L 576 343 L 576 333 Z Z" stroke-miterlimit="10"/></g><g transform="translate(2,-200) scale(1,1)"><g><path fill="none" stroke="none"/><text fill="#000000" stroke="none" font-family="Arial" font-size="13px" font-style="normal" font-weight="normal" text-decoration="none" x="608.311279296875" y="323.5">«Web App»</text></g></g><g transform="translate(2,-200) scale(1,1)"><g><path fill="none" stroke="none"/><text fill="#000000" stroke="none" font-family="Arial" font-size="13px" font-style="normal" font-weight="bold" text-decoration="none" x="611.815185546875" y="338.5">Portail Pro</text></g></g><g transform="translate(2,-200) scale(1,1)"><rect fill="#C0C0C0" stroke="none" x="377" y="273" width="166" height="96" opacity="0.2"/></g><g transform="translate(2,-200) scale(1,1)"><rect fill="#ffffff" stroke="none" x="370" y="266" width="166" height="96"/></g><g transform="translate(2,-200) scale(1,1)"><path fill="none" stroke="#000000" d="M 370 266 L 536 266 L 536 362 L 370 362 L 370 266 Z Z" stroke-miterlimit="10"/></g><g transform="translate(2,-200) scale(1,1)"><rect fill="#ffffff" stroke="none" x="360" y="273" width="20" height="10"/></g><g transform="translate(2,-200) scale(1,1)"><path fill="none" stroke="#000000" d="M 360 273 L 380 273 L 380 283 L 360 283 L 360 273 Z Z" stroke-miterlimit="10"/></g><g transform="translate(2,-200) scale(1,1)"><rect fill="#ffffff" stroke="none" x="360" y="293" width="20" height="10"/></g><g transform="translate(2,-200) scale(1,1)"><path fill="none" stroke="#000000" d="M 360 293 L 380 293 L 380 303 L 360 303 L 360 293 Z Z" stroke-miterlimit="10"/></g><g transform="translate(2,-200) scale(1,1)"><g><path fill="none" stroke="none"/><text fill="#000000" stroke="none" font-family="Arial" font-size="13px" font-style="normal" font-weight="normal" text-decoration="none" x="406.0888671875" y="283.5">«Virtual Machine»</text></g></g><g transform="translate(2,-200) scale(1,1)"><g><path fill="none" stroke="none"/><text fill="#000000" stroke="none" font-family="Arial" font-size="13px" font-style="normal" font-weight="bold" text-decoration="none" x="385.043212890625" y="298.5">VM PREPROD USAGER</text></g></g><g transform="translate(2,-200) scale(1,1)"><rect fill="#C0C0C0" stroke="none" x="49" y="321" width="127.484375" height="44" opacity="0.2"/></g><g transform="translate(2,-200) scale(1,1)"><rect fill="#ffffff" stroke="none" x="42" y="314" width="127.484375" height="44"/></g><g transform="translate(2,-200) scale(1,1)"><path fill="none" stroke="#000000" d="M 42 314 L 169.484375 314 L 169.484375 358 L 42 358 L 42 314 Z Z" stroke-miterlimit="10"/></g><g transform="translate(2,-200) scale(1,1)"><rect fill="#ffffff" stroke="none" x="32" y="321" width="20" height="10"/></g><g transform="translate(2,-200) scale(1,1)"><path fill="none" stroke="#000000" d="M 32 321 L 52 321 L 52 331 L 32 331 L 32 321 Z Z" stroke-miterlimit="10"/></g><g transform="translate(2,-200) scale(1,1)"><rect fill="#ffffff" stroke="none" x="32" y="341" width="20" height="10"/></g><g transform="translate(2,-200) scale(1,1)"><path fill="none" stroke="#000000" d="M 32 341 L 52 341 L 52 351 L 32 351 L 32 341 Z Z" stroke-miterlimit="10"/></g><g transform="translate(2,-200) scale(1,1)"><g><path fill="none" stroke="none"/><text fill="#000000" stroke="none" font-family="Arial" font-size="13px" font-style="normal" font-weight="normal" text-decoration="none" x="76.893310546875" y="331.5">«Web App»</text></g></g><g transform="translate(2,-200) scale(1,1)"><g><path fill="none" stroke="none"/><text fill="#000000" stroke="none" font-family="Arial" font-size="13px" font-style="normal" font-weight="bold" text-decoration="none" x="69.55859375" y="346.5">Portail Usager</text></g></g><g transform="translate(2,-200) scale(1,1)"><rect fill="#C0C0C0" stroke="none" x="185" y="321" width="102.3203125" height="44" opacity="0.2"/></g><g transform="translate(2,-200) scale(1,1)"><rect fill="#ffffff" stroke="none" x="178" y="314" width="102.3203125" height="44"/></g><g transform="translate(2,-200) scale(1,1)"><path fill="none" stroke="#000000" d="M 178 314 L 280.3203125 314 L 280.3203125 358 L 178 358 L 178 314 Z Z" stroke-miterlimit="10"/></g><g transform="translate(2,-200) scale(1,1)"><rect fill="#ffffff" stroke="none" x="168" y="321" width="20" height="10"/></g><g transform="translate(2,-200) scale(1,1)"><path fill="none" stroke="#000000" d="M 168 321 L 188 321 L 188 331 L 168 331 L 168 321 Z Z" stroke-miterlimit="10"/></g><g transform="translate(2,-200) scale(1,1)"><rect fill="#ffffff" stroke="none" x="168" y="341" width="20" height="10"/></g><g transform="translate(2,-200) scale(1,1)"><path fill="none" stroke="#000000" d="M 168 341 L 188 341 L 188 351 L 168 351 L 168 341 Z Z" stroke-miterlimit="10"/></g><g transform="translate(2,-200) scale(1,1)"><g><path fill="none" stroke="none"/><text fill="#000000" stroke="none" font-family="Arial" font-size="13px" font-style="normal" font-weight="normal" text-decoration="none" x="200.311279296875" y="331.5">«Web App»</text></g></g><g transform="translate(2,-200) scale(1,1)"><g><path fill="none" stroke="none"/><text fill="#000000" stroke="none" font-family="Arial" font-size="13px" font-style="normal" font-weight="bold" text-decoration="none" x="203.815185546875" y="346.5">Portail Pro</text></g></g><g transform="translate(2,-200) scale(1,1)"><rect fill="#C0C0C0" stroke="none" x="105" y="409" width="155.5859375" height="44" opacity="0.2"/></g><g transform="translate(2,-200) scale(1,1)"><rect fill="#ffffff" stroke="none" x="98" y="402" width="155.5859375" height="44"/></g><g transform="translate(2,-200) scale(1,1)"><path fill="none" stroke="#000000" d="M 98 402 L 253.5859375 402 L 253.5859375 446 L 98 446 L 98 402 Z Z" stroke-miterlimit="10"/></g><g transform="translate(2,-200) scale(1,1)"><rect fill="#ffffff" stroke="none" x="88" y="409" width="20" height="10"/></g><g transform="translate(2,-200) scale(1,1)"><path fill="none" stroke="#000000" d="M 88 409 L 108 409 L 108 419 L 88 419 L 88 409 Z Z" stroke-miterlimit="10"/></g><g transform="translate(2,-200) scale(1,1)"><rect fill="#ffffff" stroke="none" x="88" y="429" width="20" height="10"/></g><g transform="translate(2,-200) scale(1,1)"><path fill="none" stroke="#000000" d="M 88 429 L 108 429 L 108 439 L 88 439 L 88 429 Z Z" stroke-miterlimit="10"/></g><g transform="translate(2,-200) scale(1,1)"><g><path fill="none" stroke="none"/><text fill="#000000" stroke="none" font-family="Arial" font-size="13px" font-style="normal" font-weight="normal" text-decoration="none" x="148.988037109375" y="419.5">«Databae»</text></g></g><g transform="translate(2,-200) scale(1,1)"><g><path fill="none" stroke="none"/><text fill="#000000" stroke="none" font-family="Arial" font-size="13px" font-style="normal" font-weight="bold" text-decoration="none" x="126.022216796875" y="434.5">DB INTEGRATION</text></g></g><g transform="translate(2,-200) scale(1,1)"><path fill="none" stroke="#000000" d="M 93 359 L 88 378 L 128 378 L 149 401" stroke-miterlimit="10" stroke-dasharray="3"/></g><g transform="translate(2,-200) scale(1,1)"><path fill="none" stroke="#000000" d="M 139.0389518877435 396.33336089832187 L 149 401 L 145.25628748624484 390.6566631779511" stroke-miterlimit="10"/></g><g transform="translate(2,-200) scale(1,1)"><path fill="none" stroke="#000000" d="M 224 359 L 224 378 L 176 378 L 173 401" stroke-miterlimit="10" stroke-dasharray="3"/></g><g transform="translate(2,-200) scale(1,1)"><path fill="none" stroke="#000000" d="M 170.14027253626998 390.3782318405461 L 173 401 L 178.4885916117923 391.4671430243099" stroke-miterlimit="10"/></g><g transform="translate(2,-200) scale(1,1)"><rect fill="#C0C0C0" stroke="none" x="401" y="313" width="127.484375" height="44" opacity="0.2"/></g><g transform="translate(2,-200) scale(1,1)"><rect fill="#ffffff" stroke="none" x="394" y="306" width="127.484375" height="44"/></g><g transform="translate(2,-200) scale(1,1)"><path fill="none" stroke="#000000" d="M 394 306 L 521.484375 306 L 521.484375 350 L 394 350 L 394 306 Z Z" stroke-miterlimit="10"/></g><g transform="translate(2,-200) scale(1,1)"><rect fill="#ffffff" stroke="none" x="384" y="313" width="20" height="10"/></g><g transform="translate(2,-200) scale(1,1)"><path fill="none" stroke="#000000" d="M 384 313 L 404 313 L 404 323 L 384 323 L 384 313 Z Z" stroke-miterlimit="10"/></g><g transform="translate(2,-200) scale(1,1)"><rect fill="#ffffff" stroke="none" x="384" y="333" width="20" height="10"/></g><g transform="translate(2,-200) scale(1,1)"><path fill="none" stroke="#000000" d="M 384 333 L 404 333 L 404 343 L 384 343 L 384 333 Z Z" stroke-miterlimit="10"/></g><g transform="translate(2,-200) scale(1,1)"><g><path fill="none" stroke="none"/><text fill="#000000" stroke="none" font-family="Arial" font-size="13px" font-style="normal" font-weight="normal" text-decoration="none" x="428.893310546875" y="323.5">«Web App»</text></g></g><g transform="translate(2,-200) scale(1,1)"><g><path fill="none" stroke="none"/><text fill="#000000" stroke="none" font-family="Arial" font-size="13px" font-style="normal" font-weight="bold" text-decoration="none" x="421.55859375" y="338.5">Portail Usager</text></g></g><g transform="translate(2,-200) scale(1,1)"><path fill="none" stroke="#000000" d="M 655 379 L 664 386 L 664 418 L 736 418 L 738 481" stroke-miterlimit="10"/></g><g transform="translate(2,-200) scale(1,1)"><g><path fill="none" stroke="none"/><text fill="#000000" stroke="none" font-family="Arial" font-size="13px" font-style="normal" font-weight="normal" text-decoration="none" x="670.2099609375" y="406.5">+TCP IP</text></g></g><g transform="translate(2,-200) scale(1,1)"><path fill="none" stroke="#000000" d="M 452 351 L 456 570 L 607 569" stroke-miterlimit="10" stroke-dasharray="3"/></g><g transform="translate(2,-200) scale(1,1)"><path fill="none" stroke="#000000" d="M 596.8654249806772 573.2767264557975 L 607 569 L 596.8096710012187 564.8578755575674" stroke-miterlimit="10"/></g><g transform="translate(2,-200) scale(1,1)"><path fill="none" stroke="#000000" d="M 632 351 L 632 442 L 664 442 L 673 545" stroke-miterlimit="10" stroke-dasharray="3"/></g><g transform="translate(2,-200) scale(1,1)"><path fill="none" stroke="#000000" d="M 667.9218306454605 535.2423263014888 L 673 545 L 676.3089092542143 534.5094747725686" stroke-miterlimit="10"/></g></g></svg>