<svg version="1.1" xmlns="http://www.w3.org/2000/svg" xmlns:xlink="http://www.w3.org/1999/xlink" width="518.13720703125" height="283"><defs/><g><g transform="translate(-302,-182) scale(1,1)"><rect fill="#C0C0C0" stroke="none" x="319" y="263" width="95.72802734375" height="120" opacity="0.2"/></g><g transform="translate(-302,-182) scale(1,1)"><rect fill="#ffffff" stroke="none" x="312" y="256" width="95.72802734375" height="120"/></g><g transform="translate(-302,-182) scale(1,1)"><path fill="none" stroke="#000000" d="M 312 256 L 407.72802734375 256 L 407.72802734375 376 L 312 376 L 312 256 Z Z" stroke-miterlimit="10"/></g><g transform="translate(-302,-182) scale(1,1)"><path fill="none" stroke="#000000" d="M 312 294 L 407.72802734375 294" stroke-miterlimit="10"/></g><g transform="translate(-302,-182) scale(1,1)"><g><path fill="none" stroke="none"/><text fill="#000000" stroke="none" font-family="Arial" font-size="13px" font-style="normal" font-weight="normal" text-decoration="none" x="316.5" y="273.5">«enumeration»</text></g></g><g transform="translate(-302,-182) scale(1,1)"><g><path fill="none" stroke="none"/><text fill="#000000" stroke="none" font-family="Arial" font-size="13px" font-style="normal" font-weight="bold" text-decoration="none" x="329.871337890625" y="288.5">ApeStatus</text></g></g><g transform="translate(-302,-182) scale(1,1)"><g><path fill="none" stroke="none"/><text fill="#000000" stroke="none" font-family="Arial" font-size="13px" font-style="normal" font-weight="normal" text-decoration="none" x="317" y="311.5">NEW</text></g></g><g transform="translate(-302,-182) scale(1,1)"><g><path fill="none" stroke="none"/><text fill="#000000" stroke="none" font-family="Arial" font-size="13px" font-style="normal" font-weight="normal" text-decoration="none" x="317" y="326.5">OLD</text></g></g><g transform="translate(-302,-182) scale(1,1)"><g><path fill="none" stroke="none"/><text fill="#000000" stroke="none" font-family="Arial" font-size="13px" font-style="normal" font-weight="normal" text-decoration="none" x="317" y="341.5">ONGOING</text></g></g><g transform="translate(-302,-182) scale(1,1)"><g><path fill="none" stroke="none"/><text fill="#000000" stroke="none" font-family="Arial" font-size="13px" font-style="normal" font-weight="normal" text-decoration="none" x="317" y="356.5">IGNORED</text></g></g><g transform="translate(-302,-182) scale(1,1)"><g><path fill="none" stroke="none"/><text fill="#000000" stroke="none" font-family="Arial" font-size="13px" font-style="normal" font-weight="normal" text-decoration="none" x="317" y="371.5">INFO</text></g></g><g transform="translate(-302,-182) scale(1,1)"><rect fill="#C0C0C0" stroke="none" x="479" y="199" width="115.9326171875" height="37" opacity="0.2"/></g><g transform="translate(-302,-182) scale(1,1)"><rect fill="#ffffff" stroke="none" x="472" y="192" width="115.9326171875" height="37"/></g><g transform="translate(-302,-182) scale(1,1)"><path fill="none" stroke="#000000" d="M 472 192 L 587.9326171875 192 L 587.9326171875 229 L 472 229 L 472 192 Z Z" stroke-miterlimit="10"/></g><g transform="translate(-302,-182) scale(1,1)"><g><path fill="none" stroke="none"/><text fill="#000000" stroke="none" font-family="Arial" font-size="13px" font-style="normal" font-weight="normal" text-decoration="none" x="501.062255859375" y="209.5">«Service»</text></g></g><g transform="translate(-302,-182) scale(1,1)"><g><path fill="none" stroke="none"/><text fill="#000000" stroke="none" font-family="Arial" font-size="13px" font-style="normal" font-weight="bold" text-decoration="none" x="480.10546875" y="224.5">AppEventService</text></g></g><g transform="translate(-302,-182) scale(1,1)"><rect fill="#C0C0C0" stroke="none" x="655" y="207" width="162.13720703125" height="255" opacity="0.2"/></g><g transform="translate(-302,-182) scale(1,1)"><rect fill="#ffffff" stroke="none" x="648" y="200" width="162.13720703125" height="255"/></g><g transform="translate(-302,-182) scale(1,1)"><path fill="none" stroke="#000000" d="M 648 200 L 810.13720703125 200 L 810.13720703125 455 L 648 455 L 648 200 Z Z" stroke-miterlimit="10"/></g><g transform="translate(-302,-182) scale(1,1)"><path fill="none" stroke="#000000" d="M 648 238 L 810.13720703125 238" stroke-miterlimit="10"/></g><g transform="translate(-302,-182) scale(1,1)"><g><path fill="none" stroke="none"/><text fill="#000000" stroke="none" font-family="Arial" font-size="13px" font-style="normal" font-weight="normal" text-decoration="none" x="685.70458984375" y="217.5">«enumeration»</text></g></g><g transform="translate(-302,-182) scale(1,1)"><g><path fill="none" stroke="none"/><text fill="#000000" stroke="none" font-family="Arial" font-size="13px" font-style="normal" font-weight="bold" text-decoration="none" x="685.3427734375" y="232.5">AppEventCode</text></g></g><g transform="translate(-302,-182) scale(1,1)"><g><path fill="none" stroke="none"/><text fill="#000000" stroke="none" font-family="Arial" font-size="13px" font-style="normal" font-weight="normal" text-decoration="none" x="653" y="255.5">CONTRACT_PERIOD</text></g></g><g transform="translate(-302,-182) scale(1,1)"><g><path fill="none" stroke="none"/><text fill="#000000" stroke="none" font-family="Arial" font-size="13px" font-style="normal" font-weight="normal" text-decoration="none" x="653" y="270.5">CONTRACT_TARIFF</text></g></g><g transform="translate(-302,-182) scale(1,1)"><g><path fill="none" stroke="none"/><text fill="#000000" stroke="none" font-family="Arial" font-size="13px" font-style="normal" font-weight="normal" text-decoration="none" x="653" y="285.5">CUP_CHANGED</text></g></g><g transform="translate(-302,-182) scale(1,1)"><g><path fill="none" stroke="none"/><text fill="#000000" stroke="none" font-family="Arial" font-size="13px" font-style="normal" font-weight="normal" text-decoration="none" x="653" y="300.5">MP_DATA_MISSING</text></g></g><g transform="translate(-302,-182) scale(1,1)"><g><path fill="none" stroke="none"/><text fill="#000000" stroke="none" font-family="Arial" font-size="13px" font-style="normal" font-weight="normal" text-decoration="none" x="653" y="315.5">PCS_UPDATE</text></g></g><g transform="translate(-302,-182) scale(1,1)"><g><path fill="none" stroke="none"/><text fill="#000000" stroke="none" font-family="Arial" font-size="13px" font-style="normal" font-weight="normal" text-decoration="none" x="653" y="330.5">REMIND_MAIL</text></g></g><g transform="translate(-302,-182) scale(1,1)"><g><path fill="none" stroke="none"/><text fill="#000000" stroke="none" font-family="Arial" font-size="13px" font-style="normal" font-weight="normal" text-decoration="none" x="653" y="345.5">DROP_ACCOUNT</text></g></g><g transform="translate(-302,-182) scale(1,1)"><g><path fill="none" stroke="none"/><text fill="#000000" stroke="none" font-family="Arial" font-size="13px" font-style="normal" font-weight="normal" text-decoration="none" x="653" y="360.5">MAN_ENTRY</text></g></g><g transform="translate(-302,-182) scale(1,1)"><g><path fill="none" stroke="none"/><text fill="#000000" stroke="none" font-family="Arial" font-size="13px" font-style="normal" font-weight="normal" text-decoration="none" x="653" y="375.5">MP_DATA_ERROR</text></g></g><g transform="translate(-302,-182) scale(1,1)"><g><path fill="none" stroke="none"/><text fill="#000000" stroke="none" font-family="Arial" font-size="13px" font-style="normal" font-weight="normal" text-decoration="none" x="653" y="390.5">BAD_GATEWAY</text></g></g><g transform="translate(-302,-182) scale(1,1)"><g><path fill="none" stroke="none"/><text fill="#000000" stroke="none" font-family="Arial" font-size="13px" font-style="normal" font-weight="normal" text-decoration="none" x="653" y="405.5">SERVICE_UNAVAILABLE</text></g></g><g transform="translate(-302,-182) scale(1,1)"><g><path fill="none" stroke="none"/><text fill="#000000" stroke="none" font-family="Arial" font-size="13px" font-style="normal" font-weight="normal" text-decoration="none" x="653" y="420.5">DELETE_OCCUPANT</text></g></g><g transform="translate(-302,-182) scale(1,1)"><g><path fill="none" stroke="none"/><text fill="#000000" stroke="none" font-family="Arial" font-size="13px" font-style="normal" font-weight="normal" text-decoration="none" x="653" y="435.5">DSO_CONSENT_ERROR</text></g></g><g transform="translate(-302,-182) scale(1,1)"><g><path fill="none" stroke="none"/><text fill="#000000" stroke="none" font-family="Arial" font-size="13px" font-style="normal" font-weight="normal" text-decoration="none" x="653" y="450.5">DSO_COLLECT_ERROR</text></g></g><g transform="translate(-302,-182) scale(1,1)"><rect fill="#C0C0C0" stroke="none" x="479" y="303" width="111.60986328125" height="37" opacity="0.2"/></g><g transform="translate(-302,-182) scale(1,1)"><rect fill="#ffffff" stroke="none" x="472" y="296" width="111.60986328125" height="37"/></g><g transform="translate(-302,-182) scale(1,1)"><path fill="none" stroke="#000000" d="M 472 296 L 583.60986328125 296 L 583.60986328125 333 L 472 333 L 472 296 Z Z" stroke-miterlimit="10"/></g><g transform="translate(-302,-182) scale(1,1)"><g><path fill="none" stroke="none"/><text fill="#000000" stroke="none" font-family="Arial" font-size="13px" font-style="normal" font-weight="normal" text-decoration="none" x="498.90087890625" y="313.5">«Service»</text></g></g><g transform="translate(-302,-182) scale(1,1)"><g><path fill="none" stroke="none"/><text fill="#000000" stroke="none" font-family="Arial" font-size="13px" font-style="normal" font-weight="bold" text-decoration="none" x="480.127685546875" y="328.5">DpsErrorService</text></g></g><g transform="translate(-302,-182) scale(1,1)"><rect fill="#C0C0C0" stroke="none" x="479" y="391" width="137.57177734375" height="37" opacity="0.2"/></g><g transform="translate(-302,-182) scale(1,1)"><rect fill="#ffffff" stroke="none" x="472" y="384" width="137.57177734375" height="37"/></g><g transform="translate(-302,-182) scale(1,1)"><path fill="none" stroke="#000000" d="M 472 384 L 609.57177734375 384 L 609.57177734375 421 L 472 421 L 472 384 Z Z" stroke-miterlimit="10"/></g><g transform="translate(-302,-182) scale(1,1)"><g><path fill="none" stroke="none"/><text fill="#000000" stroke="none" font-family="Arial" font-size="13px" font-style="normal" font-weight="normal" text-decoration="none" x="502.4873046875" y="401.5">«Repository»</text></g></g><g transform="translate(-302,-182) scale(1,1)"><g><path fill="none" stroke="none"/><text fill="#000000" stroke="none" font-family="Arial" font-size="13px" font-style="normal" font-weight="bold" text-decoration="none" x="481.530517578125" y="416.5">AppEventRepository</text></g></g><g transform="translate(-302,-182) scale(1,1)"><path fill="none" stroke="#000000" d="M 497 230 L 409 285" stroke-miterlimit="10" stroke-dasharray="3"/></g><g transform="translate(-302,-182) scale(1,1)"><path fill="none" stroke="#000000" d="M 415.38689109480737 276.04412918008137 L 409 285 L 419.84897099203346 283.1834570156431" stroke-miterlimit="10"/></g><g transform="translate(-302,-182) scale(1,1)"><path fill="none" stroke="#000000" d="M 500 383 L 409 340" stroke-miterlimit="10" stroke-dasharray="3"/></g><g transform="translate(-302,-182) scale(1,1)"><path fill="none" stroke="#000000" d="M 419.9869422336635 340.53581746345327 L 409 340 L 416.3900611960423 348.14782151981433" stroke-miterlimit="10"/></g><g transform="translate(-302,-182) scale(1,1)"><path fill="none" stroke="#000000" d="M 563 230 L 647 279" stroke-miterlimit="10" stroke-dasharray="3"/></g><g transform="translate(-302,-182) scale(1,1)"><path fill="none" stroke="#000000" d="M 636.1006418526076 277.515415218025 L 647 279 L 640.3427499099789 270.24322997681713" stroke-miterlimit="10"/></g><g transform="translate(-302,-182) scale(1,1)"><path fill="none" stroke="#000000" d="M 588 383 L 647 360" stroke-miterlimit="10" stroke-dasharray="3"/></g><g transform="translate(-302,-182) scale(1,1)"><path fill="none" stroke="#000000" d="M 639.0602859002598 367.61320826027946 L 647 360 L 636.0024231319622 359.7691255068204" stroke-miterlimit="10"/></g><g transform="translate(-302,-182) scale(1,1)"><path fill="none" stroke="#000000" d="M 557 383 L 600 336 L 600 280 L 568 256 L 546 230" stroke-miterlimit="10"/></g><g transform="translate(-302,-182) scale(1,1)"><path fill="#000000" stroke="none" d="M 555.777989099786 235.03894127416316 L 546 230 L 549.3510128538653 240.4771519437884 L 560.2107293122558 246.79449827812053"/></g><g transform="translate(-302,-182) scale(1,1)"><path fill="none" stroke="#000000" d="M 555.777989099786 235.03894127416316 L 546 230 L 549.3510128538653 240.4771519437884 L 560.2107293122558 246.79449827812053 L 555.777989099786 235.03894127416316" stroke-miterlimit="10"/></g><g transform="translate(-302,-182) scale(1,1)"><path fill="none" stroke="#000000" d="M 537 383 L 530 334" stroke-miterlimit="10"/></g><g transform="translate(-302,-182) scale(1,1)"><path fill="#000000" stroke="none" d="M 535.6044292324897 343.46521911938726 L 530 334 L 527.2700092902382 344.6558505397089 L 533.1112698372208 355.77888886054563"/></g><g transform="translate(-302,-182) scale(1,1)"><path fill="none" stroke="#000000" d="M 535.6044292324897 343.46521911938726 L 530 334 L 527.2700092902382 344.6558505397089 L 533.1112698372208 355.77888886054563 L 535.6044292324897 343.46521911938726" stroke-miterlimit="10"/></g><g transform="translate(-302,-182) scale(1,1)"><path fill="none" stroke="#000000" d="M 529 230 L 527 295" stroke-miterlimit="10"/></g><g transform="translate(-302,-182) scale(1,1)"><path fill="#000000" stroke="none" d="M 523.1050232716867 284.71267010901767 L 527 295 L 531.5200762690625 284.97159481662925 L 527.6766028673135 273.0104068123136"/></g><g transform="translate(-302,-182) scale(1,1)"><path fill="none" stroke="#000000" d="M 523.1050232716867 284.71267010901767 L 527 295 L 531.5200762690625 284.97159481662925 L 527.6766028673135 273.0104068123136 L 523.1050232716867 284.71267010901767" stroke-miterlimit="10"/></g></g></svg>