<svg version="1.1" xmlns="http://www.w3.org/2000/svg" xmlns:xlink="http://www.w3.org/1999/xlink" width="447.8251953125" height="301"><defs/><g><g transform="translate(-438,-166) scale(1,1)"><rect fill="#C0C0C0" stroke="none" x="455" y="191" width="135.08349609375" height="128" opacity="0.2"/></g><g transform="translate(-438,-166) scale(1,1)"><rect fill="#ffffff" stroke="none" x="448" y="184" width="135.08349609375" height="128"/></g><g transform="translate(-438,-166) scale(1,1)"><path fill="none" stroke="#000000" d="M 448 184 L 583.08349609375 184 L 583.08349609375 312 L 448 312 L 448 184 Z Z" stroke-miterlimit="10"/></g><g transform="translate(-438,-166) scale(1,1)"><path fill="none" stroke="#000000" d="M 448 222 L 583.08349609375 222" stroke-miterlimit="10"/></g><g transform="translate(-438,-166) scale(1,1)"><path fill="none" stroke="#000000" d="M 448 275 L 583.08349609375 275" stroke-miterlimit="10"/></g><g transform="translate(-438,-166) scale(1,1)"><g><path fill="none" stroke="none"/><text fill="#000000" stroke="none" font-family="Arial" font-size="13px" font-style="normal" font-weight="normal" text-decoration="none" x="466.76318359375" y="201.5">«Cron Manager»</text></g></g><g transform="translate(-438,-166) scale(1,1)"><g><path fill="none" stroke="none"/><text fill="#000000" stroke="none" font-family="Arial" font-size="13px" font-style="normal" font-weight="bold" text-decoration="none" x="467.48046875" y="216.5">StartupSingleton</text></g></g><g transform="translate(-438,-166) scale(1,1)"><g><path fill="none" stroke="none"/><text fill="#000000" stroke="none" font-family="Arial" font-size="13px" font-style="normal" font-weight="normal" text-decoration="none" x="453" y="239.5">-log</text></g></g><g transform="translate(-438,-166) scale(1,1)"><g><path fill="none" stroke="none"/><text fill="#000000" stroke="none" font-family="Arial" font-size="13px" font-style="normal" font-weight="normal" text-decoration="none" x="453" y="254.5">~cronManager</text></g></g><g transform="translate(-438,-166) scale(1,1)"><g><path fill="none" stroke="none"/><text fill="#000000" stroke="none" font-family="Arial" font-size="13px" font-style="normal" font-weight="normal" text-decoration="none" x="453" y="269.5">+idCronsList: String[*]</text></g></g><g transform="translate(-438,-166) scale(1,1)"><g><path fill="none" stroke="none"/><text fill="#000000" stroke="none" font-family="Arial" font-size="13px" font-style="normal" font-weight="normal" text-decoration="none" x="453" y="292.5">-startup(): void</text></g></g><g transform="translate(-438,-166) scale(1,1)"><g><path fill="none" stroke="none"/><text fill="#000000" stroke="none" font-family="Arial" font-size="13px" font-style="normal" font-weight="normal" text-decoration="none" x="453" y="307.5">+stopJobs(): void</text></g></g><g transform="translate(-438,-166) scale(1,1)"><rect fill="#C0C0C0" stroke="none" x="639" y="183" width="243.8251953125" height="143" opacity="0.2"/></g><g transform="translate(-438,-166) scale(1,1)"><rect fill="#ffffff" stroke="none" x="632" y="176" width="243.8251953125" height="143"/></g><g transform="translate(-438,-166) scale(1,1)"><path fill="none" stroke="#000000" d="M 632 176 L 875.8251953125 176 L 875.8251953125 319 L 632 319 L 632 176 Z Z" stroke-miterlimit="10"/></g><g transform="translate(-438,-166) scale(1,1)"><path fill="none" stroke="#000000" d="M 632 214 L 875.8251953125 214" stroke-miterlimit="10"/></g><g transform="translate(-438,-166) scale(1,1)"><path fill="none" stroke="#000000" d="M 632 267 L 875.8251953125 267" stroke-miterlimit="10"/></g><g transform="translate(-438,-166) scale(1,1)"><g><path fill="none" stroke="none"/><text fill="#000000" stroke="none" font-family="Arial" font-size="13px" font-style="normal" font-weight="normal" text-decoration="none" x="736.20263671875" y="193.5">«Job»</text></g></g><g transform="translate(-438,-166) scale(1,1)"><g><path fill="none" stroke="none"/><text fill="#000000" stroke="none" font-family="Arial" font-size="13px" font-style="normal" font-weight="bold" text-decoration="none" x="719.5908203125" y="208.5">JobAbstract</text></g></g><g transform="translate(-438,-166) scale(1,1)"><g><path fill="none" stroke="none"/><text fill="#000000" stroke="none" font-family="Arial" font-size="13px" font-style="normal" font-weight="normal" text-decoration="none" x="637" y="231.5">-indicatorRepository: IndicatorRepository</text></g></g><g transform="translate(-438,-166) scale(1,1)"><g><path fill="none" stroke="none"/><text fill="#000000" stroke="none" font-family="Arial" font-size="13px" font-style="normal" font-weight="normal" text-decoration="none" x="637" y="246.5">-cronRepository: CronTableRepository</text></g></g><g transform="translate(-438,-166) scale(1,1)"><g><path fill="none" stroke="none"/><text fill="#000000" stroke="none" font-family="Arial" font-size="13px" font-style="normal" font-weight="normal" text-decoration="none" x="637" y="261.5">-params: String</text></g></g><g transform="translate(-438,-166) scale(1,1)"><g><path fill="none" stroke="none"/><text fill="#000000" stroke="none" font-family="Arial" font-size="13px" font-style="normal" font-weight="normal" text-decoration="none" x="637" y="284.5">+getParam(int): String</text></g></g><g transform="translate(-438,-166) scale(1,1)"><g><path fill="none" stroke="none"/><text fill="#000000" stroke="none" font-family="Arial" font-size="13px" font-style="normal" font-weight="normal" text-decoration="none" x="637" y="299.5">+startTraitement(): void</text></g></g><g transform="translate(-438,-166) scale(1,1)"><g><path fill="none" stroke="none"/><text fill="#000000" stroke="none" font-family="Arial" font-size="13px" font-style="normal" font-weight="normal" text-decoration="none" x="637" y="314.5">+execute(JobExecutionContext): void</text></g></g><g transform="translate(-438,-166) scale(1,1)"><rect fill="#C0C0C0" stroke="none" x="647" y="383" width="224.7060546875" height="60" opacity="0.2"/></g><g transform="translate(-438,-166) scale(1,1)"><rect fill="#ffffff" stroke="none" x="640" y="376" width="224.7060546875" height="60"/></g><g transform="translate(-438,-166) scale(1,1)"><path fill="none" stroke="#000000" d="M 640 376 L 864.7060546875 376 L 864.7060546875 436 L 640 436 L 640 376 Z Z" stroke-miterlimit="10"/></g><g transform="translate(-438,-166) scale(1,1)"><path fill="none" stroke="#000000" d="M 640 414 L 864.7060546875 414" stroke-miterlimit="10"/></g><g transform="translate(-438,-166) scale(1,1)"><g><path fill="none" stroke="none"/><text fill="#000000" stroke="none" font-family="Arial" font-size="13px" font-style="normal" font-weight="normal" text-decoration="none" x="720.192626953125" y="393.5">«interface»</text></g></g><g transform="translate(-438,-166) scale(1,1)"><g><path fill="none" stroke="none"/><text fill="#000000" stroke="none" font-family="Arial" font-size="13px" font-style="normal" font-weight="bold" text-decoration="none" x="741.873046875" y="408.5">Job</text></g></g><g transform="translate(-438,-166) scale(1,1)"><g><path fill="none" stroke="none"/><text fill="#000000" stroke="none" font-family="Arial" font-size="13px" font-style="normal" font-weight="normal" text-decoration="none" x="645" y="431.5">+execute(JobExecutionContext): void</text></g></g><g transform="translate(-438,-166) scale(1,1)"><path fill="none" stroke="#000000" d="M 753 320 L 752 375" stroke-miterlimit="10" stroke-dasharray="3"/></g><g transform="translate(-438,-166) scale(1,1)"><path fill="#FFFFFF" stroke="none" d="M 743.9518464643625 354.52496093613485 L 752 375 L 760.7871350260388 354.83105709180165"/></g><g transform="translate(-438,-166) scale(1,1)"><path fill="none" stroke="#000000" d="M 743.9518464643625 354.52496093613485 L 752 375 L 760.7871350260388 354.83105709180165 L 743.9518464643625 354.52496093613485" stroke-miterlimit="10"/></g><g transform="translate(-438,-166) scale(1,1)"><rect fill="#C0C0C0" stroke="none" x="471" y="351" width="131.84619140625" height="113" opacity="0.2"/></g><g transform="translate(-438,-166) scale(1,1)"><rect fill="#ffffff" stroke="none" x="464" y="344" width="131.84619140625" height="113"/></g><g transform="translate(-438,-166) scale(1,1)"><path fill="none" stroke="#000000" d="M 464 344 L 595.84619140625 344 L 595.84619140625 457 L 464 457 L 464 344 Z Z" stroke-miterlimit="10"/></g><g transform="translate(-438,-166) scale(1,1)"><path fill="none" stroke="#000000" d="M 464 382 L 595.84619140625 382" stroke-miterlimit="10"/></g><g transform="translate(-438,-166) scale(1,1)"><path fill="none" stroke="#000000" d="M 464 420 L 595.84619140625 420" stroke-miterlimit="10"/></g><g transform="translate(-438,-166) scale(1,1)"><g><path fill="none" stroke="none"/><text fill="#000000" stroke="none" font-family="Arial" font-size="13px" font-style="normal" font-weight="normal" text-decoration="none" x="488.003173828125" y="361.5">«Deleted Job»</text></g></g><g transform="translate(-438,-166) scale(1,1)"><g><path fill="none" stroke="none"/><text fill="#000000" stroke="none" font-family="Arial" font-size="13px" font-style="normal" font-weight="bold" text-decoration="none" x="486.206787109375" y="376.5">CleanEmailJob</text></g></g><g transform="translate(-438,-166) scale(1,1)"><g><path fill="none" stroke="none"/><text fill="#000000" stroke="none" font-family="Arial" font-size="13px" font-style="normal" font-weight="normal" text-decoration="none" x="469" y="399.5">-emailDeamndRepo</text></g></g><g transform="translate(-438,-166) scale(1,1)"><g><path fill="none" stroke="none"/><text fill="#000000" stroke="none" font-family="Arial" font-size="13px" font-style="normal" font-weight="normal" text-decoration="none" x="469" y="414.5">-parameterAppRepo</text></g></g><g transform="translate(-438,-166) scale(1,1)"><g><path fill="none" stroke="none"/><text fill="#000000" stroke="none" font-family="Arial" font-size="13px" font-style="normal" font-weight="normal" text-decoration="none" x="469" y="437.5">+startTraitement()</text></g></g><g transform="translate(-438,-166) scale(1,1)"><g><path fill="none" stroke="none"/><text fill="#000000" stroke="none" font-family="Arial" font-size="13px" font-style="normal" font-weight="normal" text-decoration="none" x="469" y="452.5">-deleteOldEmails()</text></g></g><g transform="translate(-438,-166) scale(1,1)"><path fill="none" stroke="#000000" d="M 597 354 L 646 320" stroke-miterlimit="10"/></g><g transform="translate(-438,-166) scale(1,1)"><path fill="#FFFFFF" stroke="none" d="M 634.1004710684662 338.5040863380927 L 646 320 L 624.5013974702601 324.67012732891357"/></g><g transform="translate(-438,-166) scale(1,1)"><path fill="none" stroke="#000000" d="M 634.1004710684662 338.5040863380927 L 646 320 L 624.5013974702601 324.67012732891357 L 634.1004710684662 338.5040863380927" stroke-miterlimit="10"/></g><g transform="translate(-438,-166) scale(1,1)"><path fill="none" stroke="#000000" d="M 631 248 L 584 248" stroke-miterlimit="10"/></g><g transform="translate(-438,-166) scale(1,1)"><path fill="none" stroke="#000000" d="M 594.1626748576241 243.790482243984 L 584 248 L 594.1626748576241 252.209517756016" stroke-miterlimit="10"/></g></g></svg>