<svg version="1.1" xmlns="http://www.w3.org/2000/svg" xmlns:xlink="http://www.w3.org/1999/xlink" width="2206.49365234375" height="489"><defs/><g><g transform="translate(-211.814453125,-10) scale(1,1)"><rect fill="#C0C0C0" stroke="none" x="228.814453125" y="34.5" width="84.841796875" height="24" opacity="0.2"/></g><g transform="translate(-211.814453125,-10) scale(1,1)"><rect fill="#ffffff" stroke="none" x="221.814453125" y="27.5" width="84.841796875" height="24"/></g><g transform="translate(-211.814453125,-10) scale(1,1)"><path fill="none" stroke="#000000" d="M 221.814453125 27.5 L 306.65625 27.5 L 306.65625 51.5 L 221.814453125 51.5 L 221.814453125 27.5 Z Z" stroke-miterlimit="10"/></g><g transform="translate(-211.814453125,-10) scale(1,1)"><g><path fill="none" stroke="none"/><text fill="#000000" stroke="none" font-family="Arial" font-size="13px" font-style="normal" font-weight="bold" text-decoration="none" x="228.463134765625" y="47">CleanDbJob</text></g></g><g transform="translate(-211.814453125,-10) scale(1,1)"><rect fill="#C0C0C0" stroke="none" x="344.65625" y="34.5" width="154.91357421875" height="37" opacity="0.2"/></g><g transform="translate(-211.814453125,-10) scale(1,1)"><rect fill="#ffffff" stroke="none" x="337.65625" y="27.5" width="154.91357421875" height="37"/></g><g transform="translate(-211.814453125,-10) scale(1,1)"><path fill="none" stroke="#000000" d="M 337.65625 27.5 L 492.56982421875 27.5 L 492.56982421875 64.5 L 337.65625 64.5 L 337.65625 27.5 Z Z" stroke-miterlimit="10"/></g><g transform="translate(-211.814453125,-10) scale(1,1)"><g><path fill="none" stroke="none"/><text fill="#000000" stroke="none" font-family="Arial" font-size="13px" font-style="normal" font-weight="normal" text-decoration="none" x="397.403076171875" y="45">«Job»</text></g></g><g transform="translate(-211.814453125,-10) scale(1,1)"><g><path fill="none" stroke="none"/><text fill="#000000" stroke="none" font-family="Arial" font-size="13px" font-style="normal" font-weight="bold" text-decoration="none" x="346.818603515625" y="60">DataConnectEnedisJob</text></g></g><g transform="translate(-211.814453125,-10) scale(1,1)"><rect fill="#C0C0C0" stroke="none" x="530.56982421875" y="27" width="33.644726562499955" height="15" opacity="0.2"/></g><g transform="translate(-211.814453125,-10) scale(1,1)"><rect fill="#C0C0C0" stroke="none" x="530.56982421875" y="41" width="84.11181640625" height="25" opacity="0.2"/></g><g transform="translate(-211.814453125,-10) scale(1,1)"><rect fill="#ffffff" stroke="none" x="523.56982421875" y="35" width="84.11181640625" height="24"/></g><g transform="translate(-211.814453125,-10) scale(1,1)"><path fill="none" stroke="#000000" d="M 523.56982421875 35 L 607.681640625 35 L 607.681640625 59 L 523.56982421875 59 L 523.56982421875 35 Z Z" stroke-miterlimit="10"/></g><g transform="translate(-211.814453125,-10) scale(1,1)"><rect fill="#ffffff" stroke="none" x="523.56982421875" y="20" width="33.644726562499955" height="15"/></g><g transform="translate(-211.814453125,-10) scale(1,1)"><path fill="none" stroke="#000000" d="M 523.56982421875 20 L 557.21455078125 20 L 557.21455078125 35 L 523.56982421875 35 L 523.56982421875 20 Z Z" stroke-miterlimit="10"/></g><g transform="translate(-211.814453125,-10) scale(1,1)"><rect fill="#ffffff" stroke="none" x="523.56982421875" y="34" width="84.11181640625" height="25"/></g><g transform="translate(-211.814453125,-10) scale(1,1)"><path fill="none" stroke="#000000" d="M 523.56982421875 34 L 607.681640625 34 L 607.681640625 59 L 523.56982421875 59 L 523.56982421875 34 Z Z" stroke-miterlimit="10"/></g><g transform="translate(-211.814453125,-10) scale(1,1)"><g><path fill="none" stroke="none"/><text fill="#000000" stroke="none" font-family="Arial" font-size="13px" font-style="normal" font-weight="bold" text-decoration="none" x="530.935791015625" y="54.5">dpsConnect</text></g></g><g transform="translate(-211.814453125,-10) scale(1,1)"><rect fill="#C0C0C0" stroke="none" x="1318.318359375" y="34.5" width="87.00634765625" height="24" opacity="0.2"/></g><g transform="translate(-211.814453125,-10) scale(1,1)"><rect fill="#ffffff" stroke="none" x="1311.318359375" y="27.5" width="87.00634765625" height="24"/></g><g transform="translate(-211.814453125,-10) scale(1,1)"><path fill="none" stroke="#000000" d="M 1311.318359375 27.5 L 1398.32470703125 27.5 L 1398.32470703125 51.5 L 1311.318359375 51.5 L 1311.318359375 27.5 Z Z" stroke-miterlimit="10"/></g><g transform="translate(-211.814453125,-10) scale(1,1)"><g><path fill="none" stroke="none"/><text fill="#000000" stroke="none" font-family="Arial" font-size="13px" font-style="normal" font-weight="bold" text-decoration="none" x="1319.4111328125" y="47">IndicatorJob</text></g></g><g transform="translate(-211.814453125,-10) scale(1,1)"><rect fill="#C0C0C0" stroke="none" x="1646.06103515625" y="34.5" width="98.578125" height="24" opacity="0.2"/></g><g transform="translate(-211.814453125,-10) scale(1,1)"><rect fill="#ffffff" stroke="none" x="1639.06103515625" y="27.5" width="98.578125" height="24"/></g><g transform="translate(-211.814453125,-10) scale(1,1)"><path fill="none" stroke="#000000" d="M 1639.06103515625 27.5 L 1737.63916015625 27.5 L 1737.63916015625 51.5 L 1639.06103515625 51.5 L 1639.06103515625 27.5 Z Z" stroke-miterlimit="10"/></g><g transform="translate(-211.814453125,-10) scale(1,1)"><g><path fill="none" stroke="none"/><text fill="#000000" stroke="none" font-family="Arial" font-size="13px" font-style="normal" font-weight="bold" text-decoration="none" x="1646.4365234375" y="47">SendEmailJob</text></g></g><g transform="translate(-211.814453125,-10) scale(1,1)"><rect fill="#C0C0C0" stroke="none" x="2035.9599609375" y="34.5" width="113.71728515625" height="37" opacity="0.2"/></g><g transform="translate(-211.814453125,-10) scale(1,1)"><rect fill="#ffffff" stroke="none" x="2028.9599609375" y="27.5" width="113.71728515625" height="37"/></g><g transform="translate(-211.814453125,-10) scale(1,1)"><path fill="none" stroke="#000000" d="M 2028.9599609375 27.5 L 2142.67724609375 27.5 L 2142.67724609375 64.5 L 2028.9599609375 64.5 L 2028.9599609375 27.5 Z Z" stroke-miterlimit="10"/></g><g transform="translate(-211.814453125,-10) scale(1,1)"><g><path fill="none" stroke="none"/><text fill="#000000" stroke="none" font-family="Arial" font-size="13px" font-style="normal" font-weight="normal" text-decoration="none" x="2037.0400390625" y="45">«Cron Manager»</text></g></g><g transform="translate(-211.814453125,-10) scale(1,1)"><g><path fill="none" stroke="none"/><text fill="#000000" stroke="none" font-family="Arial" font-size="13px" font-style="normal" font-weight="bold" text-decoration="none" x="2037.75732421875" y="60">StartupSingleton</text></g></g><g transform="translate(-211.814453125,-10) scale(1,1)"><rect fill="#C0C0C0" stroke="none" x="2180.67724609375" y="34.5" width="110.61962890625" height="24" opacity="0.2"/></g><g transform="translate(-211.814453125,-10) scale(1,1)"><rect fill="#ffffff" stroke="none" x="2173.67724609375" y="27.5" width="110.61962890625" height="24"/></g><g transform="translate(-211.814453125,-10) scale(1,1)"><path fill="none" stroke="#000000" d="M 2173.67724609375 27.5 L 2284.296875 27.5 L 2284.296875 51.5 L 2173.67724609375 51.5 L 2173.67724609375 27.5 Z Z" stroke-miterlimit="10"/></g><g transform="translate(-211.814453125,-10) scale(1,1)"><g><path fill="none" stroke="none"/><text fill="#000000" stroke="none" font-family="Arial" font-size="13px" font-style="normal" font-weight="bold" text-decoration="none" x="2179.138916015625" y="47">TestENEDISSGE</text></g></g><g transform="translate(-211.814453125,-10) scale(1,1)"><rect fill="#C0C0C0" stroke="none" x="2304.7138671875" y="97" width="110.59423828125" height="24" opacity="0.2"/></g><g transform="translate(-211.814453125,-10) scale(1,1)"><rect fill="#ffffff" stroke="none" x="2297.7138671875" y="90" width="110.59423828125" height="24"/></g><g transform="translate(-211.814453125,-10) scale(1,1)"><path fill="none" stroke="#000000" d="M 2297.7138671875 90 L 2408.30810546875 90 L 2408.30810546875 114 L 2297.7138671875 114 L 2297.7138671875 90 Z Z" stroke-miterlimit="10"/></g><g transform="translate(-211.814453125,-10) scale(1,1)"><g><path fill="none" stroke="none"/><text fill="#000000" stroke="none" font-family="Arial" font-size="13px" font-style="normal" font-weight="bold" text-decoration="none" x="2303.5341796875" y="109.5">TestGRDFADICT</text></g></g><g transform="translate(-211.814453125,-10) scale(1,1)"><rect fill="#C0C0C0" stroke="none" x="2322.296875" y="34.5" width="75.42822265625" height="24" opacity="0.2"/></g><g transform="translate(-211.814453125,-10) scale(1,1)"><rect fill="#ffffff" stroke="none" x="2315.296875" y="27.5" width="75.42822265625" height="24"/></g><g transform="translate(-211.814453125,-10) scale(1,1)"><path fill="none" stroke="#000000" d="M 2315.296875 27.5 L 2390.72509765625 27.5 L 2390.72509765625 51.5 L 2315.296875 51.5 L 2315.296875 27.5 Z Z" stroke-miterlimit="10"/></g><g transform="translate(-211.814453125,-10) scale(1,1)"><g><path fill="none" stroke="none"/><text fill="#000000" stroke="none" font-family="Arial" font-size="13px" font-style="normal" font-weight="bold" text-decoration="none" x="2320.866455078125" y="47">ConfGRDF</text></g></g><g transform="translate(-211.814453125,-10) scale(1,1)"><path fill="none" stroke="#000000" d="M 2353 89 Q 2354 75 2353 53" stroke-miterlimit="10"/></g><g transform="translate(-211.814453125,-10) scale(1,1)"><path fill="none" stroke="#000000" d="M 2357.666639101678 62.961048112256506 L 2353 53 L 2349.2562874862447 63.343336822048926" stroke-miterlimit="10"/></g><g transform="translate(-211.814453125,-10) scale(1,1)"><g><path fill="none" stroke="none"/><text fill="#000000" stroke="none" font-family="Arial" font-size="13px" font-style="normal" font-weight="normal" text-decoration="none" x="2319.5" y="85.5">-config</text></g></g><g transform="translate(-211.814453125,-10) scale(1,1)"><rect fill="#C0C0C0" stroke="none" x="367" y="247" width="243.8251953125" height="143" opacity="0.2"/></g><g transform="translate(-211.814453125,-10) scale(1,1)"><rect fill="#ffffff" stroke="none" x="360" y="240" width="243.8251953125" height="143"/></g><g transform="translate(-211.814453125,-10) scale(1,1)"><path fill="none" stroke="#000000" d="M 360 240 L 603.8251953125 240 L 603.8251953125 383 L 360 383 L 360 240 Z Z" stroke-miterlimit="10"/></g><g transform="translate(-211.814453125,-10) scale(1,1)"><path fill="none" stroke="#000000" d="M 360 278 L 603.8251953125 278" stroke-miterlimit="10"/></g><g transform="translate(-211.814453125,-10) scale(1,1)"><path fill="none" stroke="#000000" d="M 360 331 L 603.8251953125 331" stroke-miterlimit="10"/></g><g transform="translate(-211.814453125,-10) scale(1,1)"><g><path fill="none" stroke="none"/><text fill="#000000" stroke="none" font-family="Arial" font-size="13px" font-style="normal" font-weight="normal" text-decoration="none" x="464.20263671875" y="257.5">«Job»</text></g></g><g transform="translate(-211.814453125,-10) scale(1,1)"><g><path fill="none" stroke="none"/><text fill="#000000" stroke="none" font-family="Arial" font-size="13px" font-style="normal" font-weight="bold" text-decoration="none" x="447.5908203125" y="272.5">JobAbstract</text></g></g><g transform="translate(-211.814453125,-10) scale(1,1)"><g><path fill="none" stroke="none"/><text fill="#000000" stroke="none" font-family="Arial" font-size="13px" font-style="normal" font-weight="normal" text-decoration="none" x="365" y="295.5">-indicatorRepository: IndicatorRepository</text></g></g><g transform="translate(-211.814453125,-10) scale(1,1)"><g><path fill="none" stroke="none"/><text fill="#000000" stroke="none" font-family="Arial" font-size="13px" font-style="normal" font-weight="normal" text-decoration="none" x="365" y="310.5">-cronRepository: CronTableRepository</text></g></g><g transform="translate(-211.814453125,-10) scale(1,1)"><g><path fill="none" stroke="none"/><text fill="#000000" stroke="none" font-family="Arial" font-size="13px" font-style="normal" font-weight="normal" text-decoration="none" x="365" y="325.5">-params: String</text></g></g><g transform="translate(-211.814453125,-10) scale(1,1)"><g><path fill="none" stroke="none"/><text fill="#000000" stroke="none" font-family="Arial" font-size="13px" font-style="normal" font-weight="normal" text-decoration="none" x="365" y="348.5">+getParam(int): String</text></g></g><g transform="translate(-211.814453125,-10) scale(1,1)"><g><path fill="none" stroke="none"/><text fill="#000000" stroke="none" font-family="Arial" font-size="13px" font-style="normal" font-weight="normal" text-decoration="none" x="365" y="363.5">+startTraitement(): void</text></g></g><g transform="translate(-211.814453125,-10) scale(1,1)"><g><path fill="none" stroke="none"/><text fill="#000000" stroke="none" font-family="Arial" font-size="13px" font-style="normal" font-weight="normal" text-decoration="none" x="365" y="378.5">+execute(JobExecutionContext): void</text></g></g><g transform="translate(-211.814453125,-10) scale(1,1)"><path fill="#C0C0C0" stroke="none" d="M 616.160400390625 275.5 C 616.160400390625 268.59644 621.756840390625 263 628.660400390625 263 C 635.563960390625 263 641.160400390625 268.59644 641.160400390625 275.5 C 641.160400390625 282.40356 635.563960390625 288 628.660400390625 288 C 621.756840390625 288 616.160400390625 282.40356 616.160400390625 275.5 Z" opacity="0.2"/></g><g transform="translate(-211.814453125,-10) scale(1,1)"><path fill="#ffffff" stroke="none" d="M 609.160400390625 268.5 C 609.160400390625 261.59644 614.756840390625 256 621.660400390625 256 C 628.563960390625 256 634.160400390625 261.59644 634.160400390625 268.5 C 634.160400390625 275.40356 628.563960390625 281 621.660400390625 281 C 614.756840390625 281 609.160400390625 275.40356 609.160400390625 268.5 Z"/></g><g transform="translate(-211.814453125,-10) scale(1,1)"><path fill="none" stroke="#000000" d="M 609.160400390625 268.5 C 609.160400390625 261.59644 614.756840390625 256 621.660400390625 256 C 628.563960390625 256 634.160400390625 261.59644 634.160400390625 268.5 C 634.160400390625 275.40356 628.563960390625 281 621.660400390625 281 C 614.756840390625 281 609.160400390625 275.40356 609.160400390625 268.5 Z" stroke-miterlimit="10"/></g><g transform="translate(-211.814453125,-10) scale(1,1)"><g><path fill="none" stroke="none"/><text fill="#000000" stroke="none" font-family="Arial" font-size="13px" font-style="normal" font-weight="normal" text-decoration="none" x="589.5" y="298.5">«interface»</text></g></g><g transform="translate(-211.814453125,-10) scale(1,1)"><g><path fill="none" stroke="none"/><text fill="#000000" stroke="none" font-family="Arial" font-size="13px" font-style="normal" font-weight="bold" text-decoration="none" x="611.180419921875" y="313.5">Job</text></g></g><g transform="translate(-211.814453125,-10) scale(1,1)"><path fill="none" stroke="#000000" d="M 605 290 L 621 281" stroke-miterlimit="10"/></g><g transform="translate(-211.814453125,-10) scale(1,1)"><rect fill="#C0C0C0" stroke="none" x="455" y="383" width="131.84619140625" height="113" opacity="0.2"/></g><g transform="translate(-211.814453125,-10) scale(1,1)"><rect fill="#ffffff" stroke="none" x="448" y="376" width="131.84619140625" height="113"/></g><g transform="translate(-211.814453125,-10) scale(1,1)"><path fill="none" stroke="#000000" d="M 448 376 L 579.84619140625 376 L 579.84619140625 489 L 448 489 L 448 376 Z Z" stroke-miterlimit="10"/></g><g transform="translate(-211.814453125,-10) scale(1,1)"><path fill="none" stroke="#000000" d="M 448 414 L 579.84619140625 414" stroke-miterlimit="10"/></g><g transform="translate(-211.814453125,-10) scale(1,1)"><path fill="none" stroke="#000000" d="M 448 452 L 579.84619140625 452" stroke-miterlimit="10"/></g><g transform="translate(-211.814453125,-10) scale(1,1)"><g><path fill="none" stroke="none"/><text fill="#000000" stroke="none" font-family="Arial" font-size="13px" font-style="normal" font-weight="normal" text-decoration="none" x="472.003173828125" y="393.5">«Deleted Job»</text></g></g><g transform="translate(-211.814453125,-10) scale(1,1)"><g><path fill="none" stroke="none"/><text fill="#000000" stroke="none" font-family="Arial" font-size="13px" font-style="normal" font-weight="bold" text-decoration="none" x="470.206787109375" y="408.5">CleanEmailJob</text></g></g><g transform="translate(-211.814453125,-10) scale(1,1)"><g><path fill="none" stroke="none"/><text fill="#000000" stroke="none" font-family="Arial" font-size="13px" font-style="normal" font-weight="normal" text-decoration="none" x="453" y="431.5">-emailDeamndRepo</text></g></g><g transform="translate(-211.814453125,-10) scale(1,1)"><g><path fill="none" stroke="none"/><text fill="#000000" stroke="none" font-family="Arial" font-size="13px" font-style="normal" font-weight="normal" text-decoration="none" x="453" y="446.5">-parameterAppRepo</text></g></g><g transform="translate(-211.814453125,-10) scale(1,1)"><g><path fill="none" stroke="none"/><text fill="#000000" stroke="none" font-family="Arial" font-size="13px" font-style="normal" font-weight="normal" text-decoration="none" x="453" y="469.5">+startTraitement()</text></g></g><g transform="translate(-211.814453125,-10) scale(1,1)"><g><path fill="none" stroke="none"/><text fill="#000000" stroke="none" font-family="Arial" font-size="13px" font-style="normal" font-weight="normal" text-decoration="none" x="453" y="484.5">-deleteOldEmails()</text></g></g></g></svg>