<svg version="1.1" xmlns="http://www.w3.org/2000/svg" xmlns:xlink="http://www.w3.org/1999/xlink" width="443.39794921875" height="210"><defs/><g><g transform="translate(-606,-287) scale(1,1)"><rect fill="#C0C0C0" stroke="none" x="873" y="304" width="173.39794921875" height="190" opacity="0.2"/></g><g transform="translate(-606,-287) scale(1,1)"><rect fill="#ffffff" stroke="none" x="866" y="297" width="173.39794921875" height="190"/></g><g transform="translate(-606,-287) scale(1,1)"><path fill="none" stroke="#000000" d="M 866 297 L 1039.39794921875 297 L 1039.39794921875 487 L 866 487 L 866 297 Z Z" stroke-miterlimit="10"/></g><g transform="translate(-606,-287) scale(1,1)"><path fill="none" stroke="#000000" d="M 866 335 L 1039.39794921875 335" stroke-miterlimit="10"/></g><g transform="translate(-606,-287) scale(1,1)"><path fill="none" stroke="#000000" d="M 866 345 L 1039.39794921875 345" stroke-miterlimit="10"/></g><g transform="translate(-606,-287) scale(1,1)"><g><path fill="none" stroke="none"/><text fill="#000000" stroke="none" font-family="Arial" font-size="13px" font-style="normal" font-weight="normal" text-decoration="none" x="923.794921875" y="314.5">«Service»</text></g></g><g transform="translate(-606,-287) scale(1,1)"><g><path fill="none" stroke="none"/><text fill="#000000" stroke="none" font-family="Arial" font-size="13px" font-style="normal" font-weight="bold" text-decoration="none" x="917.304443359375" y="329.5">UserFactory</text></g></g><g transform="translate(-606,-287) scale(1,1)"><g><path fill="none" stroke="none"/><text fill="#000000" stroke="none" font-family="Arial" font-size="13px" font-style="normal" font-weight="normal" text-decoration="none" x="871" y="362.5">+changePasswordRequest()</text></g></g><g transform="translate(-606,-287) scale(1,1)"><g><path fill="none" stroke="none"/><text fill="#000000" stroke="none" font-family="Arial" font-size="13px" font-style="normal" font-weight="normal" text-decoration="none" x="871" y="377.5">+clientConnectGrdfAdict()</text></g></g><g transform="translate(-606,-287) scale(1,1)"><g><path fill="none" stroke="none"/><text fill="#000000" stroke="none" font-family="Arial" font-size="13px" font-style="normal" font-weight="normal" text-decoration="none" x="871" y="392.5">+isConnected()</text></g></g><g transform="translate(-606,-287) scale(1,1)"><g><path fill="none" stroke="none"/><text fill="#000000" stroke="none" font-family="Arial" font-size="13px" font-style="normal" font-weight="normal" text-decoration="none" x="871" y="407.5">+getUserId()</text></g></g><g transform="translate(-606,-287) scale(1,1)"><g><path fill="none" stroke="none"/><text fill="#000000" stroke="none" font-family="Arial" font-size="13px" font-style="normal" font-weight="normal" text-decoration="none" x="871" y="422.5">+getUserOccupyId()</text></g></g><g transform="translate(-606,-287) scale(1,1)"><g><path fill="none" stroke="none"/><text fill="#000000" stroke="none" font-family="Arial" font-size="13px" font-style="normal" font-weight="normal" text-decoration="none" x="871" y="437.5">+getUserName()</text></g></g><g transform="translate(-606,-287) scale(1,1)"><g><path fill="none" stroke="none"/><text fill="#000000" stroke="none" font-family="Arial" font-size="13px" font-style="normal" font-weight="normal" text-decoration="none" x="871" y="452.5">+getUserIdPromise()</text></g></g><g transform="translate(-606,-287) scale(1,1)"><g><path fill="none" stroke="none"/><text fill="#000000" stroke="none" font-family="Arial" font-size="13px" font-style="normal" font-weight="normal" text-decoration="none" x="871" y="467.5">+getUserOccupyStartDate()</text></g></g><g transform="translate(-606,-287) scale(1,1)"><g><path fill="none" stroke="none"/><text fill="#000000" stroke="none" font-family="Arial" font-size="13px" font-style="normal" font-weight="normal" text-decoration="none" x="871" y="482.5">+getUserOccupyEndDate()</text></g></g><g transform="translate(-606,-287) scale(1,1)"><rect fill="#C0C0C0" stroke="none" x="623" y="311" width="158.20166015625" height="85" opacity="0.2"/></g><g transform="translate(-606,-287) scale(1,1)"><rect fill="#ffffff" stroke="none" x="616" y="304" width="158.20166015625" height="85"/></g><g transform="translate(-606,-287) scale(1,1)"><path fill="none" stroke="#000000" d="M 616 304 L 774.20166015625 304 L 774.20166015625 389 L 616 389 L 616 304 Z Z" stroke-miterlimit="10"/></g><g transform="translate(-606,-287) scale(1,1)"><path fill="none" stroke="#000000" d="M 616 342 L 774.20166015625 342" stroke-miterlimit="10"/></g><g transform="translate(-606,-287) scale(1,1)"><path fill="none" stroke="#000000" d="M 616 352 L 774.20166015625 352" stroke-miterlimit="10"/></g><g transform="translate(-606,-287) scale(1,1)"><g><path fill="none" stroke="none"/><text fill="#000000" stroke="none" font-family="Arial" font-size="13px" font-style="normal" font-weight="normal" text-decoration="none" x="659.693603515625" y="321.5">«Controller»</text></g></g><g transform="translate(-606,-287) scale(1,1)"><g><path fill="none" stroke="none"/><text fill="#000000" stroke="none" font-family="Arial" font-size="13px" font-style="normal" font-weight="bold" text-decoration="none" x="649.588134765625" y="336.5">mpPopUpCtrl.js</text></g></g><g transform="translate(-606,-287) scale(1,1)"><g><path fill="none" stroke="none"/><text fill="#000000" stroke="none" font-family="Arial" font-size="13px" font-style="normal" font-weight="normal" text-decoration="none" x="621" y="369.5">+clientConnectGrdfAdict()</text></g></g><g transform="translate(-606,-287) scale(1,1)"><g><path fill="none" stroke="none"/><text fill="#000000" stroke="none" font-family="Arial" font-size="13px" font-style="normal" font-weight="normal" text-decoration="none" x="621" y="384.5">+authorizeDataConnect()</text></g></g><g transform="translate(-606,-287) scale(1,1)"><path fill="none" stroke="#000000" d="M 775 360 L 865 376" stroke-miterlimit="10" stroke-dasharray="3"/></g><g transform="translate(-606,-287) scale(1,1)"><path fill="none" stroke="#000000" d="M 854.2574054259768 378.3657264884528 L 865 376 L 855.7310172867527 370.076659771588" stroke-miterlimit="10"/></g></g></svg>