<svg version="1.1" xmlns="http://www.w3.org/2000/svg" xmlns:xlink="http://www.w3.org/1999/xlink" width="391.3662109375" height="210"><defs/><g><g transform="translate(-262,-222) scale(1,1)"><rect fill="#C0C0C0" stroke="none" x="279" y="239" width="173.39794921875" height="190" opacity="0.2"/></g><g transform="translate(-262,-222) scale(1,1)"><rect fill="#ffffff" stroke="none" x="272" y="232" width="173.39794921875" height="190"/></g><g transform="translate(-262,-222) scale(1,1)"><path fill="none" stroke="#000000" d="M 272 232 L 445.39794921875 232 L 445.39794921875 422 L 272 422 L 272 232 Z Z" stroke-miterlimit="10"/></g><g transform="translate(-262,-222) scale(1,1)"><path fill="none" stroke="#000000" d="M 272 270 L 445.39794921875 270" stroke-miterlimit="10"/></g><g transform="translate(-262,-222) scale(1,1)"><path fill="none" stroke="#000000" d="M 272 280 L 445.39794921875 280" stroke-miterlimit="10"/></g><g transform="translate(-262,-222) scale(1,1)"><g><path fill="none" stroke="none"/><text fill="#000000" stroke="none" font-family="Arial" font-size="13px" font-style="normal" font-weight="normal" text-decoration="none" x="329.794921875" y="249.5">«Service»</text></g></g><g transform="translate(-262,-222) scale(1,1)"><g><path fill="none" stroke="none"/><text fill="#000000" stroke="none" font-family="Arial" font-size="13px" font-style="normal" font-weight="bold" text-decoration="none" x="323.304443359375" y="264.5">UserFactory</text></g></g><g transform="translate(-262,-222) scale(1,1)"><g><path fill="none" stroke="none"/><text fill="#000000" stroke="none" font-family="Arial" font-size="13px" font-style="normal" font-weight="normal" text-decoration="none" x="277" y="297.5">+changePasswordRequest()</text></g></g><g transform="translate(-262,-222) scale(1,1)"><g><path fill="none" stroke="none"/><text fill="#000000" stroke="none" font-family="Arial" font-size="13px" font-style="normal" font-weight="normal" text-decoration="none" x="277" y="312.5">+clientConnectGrdfAdict()</text></g></g><g transform="translate(-262,-222) scale(1,1)"><g><path fill="none" stroke="none"/><text fill="#000000" stroke="none" font-family="Arial" font-size="13px" font-style="normal" font-weight="normal" text-decoration="none" x="277" y="327.5">+isConnected()</text></g></g><g transform="translate(-262,-222) scale(1,1)"><g><path fill="none" stroke="none"/><text fill="#000000" stroke="none" font-family="Arial" font-size="13px" font-style="normal" font-weight="normal" text-decoration="none" x="277" y="342.5">+getUserId()</text></g></g><g transform="translate(-262,-222) scale(1,1)"><g><path fill="none" stroke="none"/><text fill="#000000" stroke="none" font-family="Arial" font-size="13px" font-style="normal" font-weight="normal" text-decoration="none" x="277" y="357.5">+getUserOccupyId()</text></g></g><g transform="translate(-262,-222) scale(1,1)"><g><path fill="none" stroke="none"/><text fill="#000000" stroke="none" font-family="Arial" font-size="13px" font-style="normal" font-weight="normal" text-decoration="none" x="277" y="372.5">+getUserName()</text></g></g><g transform="translate(-262,-222) scale(1,1)"><g><path fill="none" stroke="none"/><text fill="#000000" stroke="none" font-family="Arial" font-size="13px" font-style="normal" font-weight="normal" text-decoration="none" x="277" y="387.5">+getUserIdPromise()</text></g></g><g transform="translate(-262,-222) scale(1,1)"><g><path fill="none" stroke="none"/><text fill="#000000" stroke="none" font-family="Arial" font-size="13px" font-style="normal" font-weight="normal" text-decoration="none" x="277" y="402.5">+getUserOccupyStartDate()</text></g></g><g transform="translate(-262,-222) scale(1,1)"><g><path fill="none" stroke="none"/><text fill="#000000" stroke="none" font-family="Arial" font-size="13px" font-style="normal" font-weight="normal" text-decoration="none" x="277" y="417.5">+getUserOccupyEndDate()</text></g></g><g transform="translate(-262,-222) scale(1,1)"><rect fill="#C0C0C0" stroke="none" x="503" y="239" width="147.3662109375" height="70" opacity="0.2"/></g><g transform="translate(-262,-222) scale(1,1)"><rect fill="#ffffff" stroke="none" x="496" y="232" width="147.3662109375" height="70"/></g><g transform="translate(-262,-222) scale(1,1)"><path fill="none" stroke="#000000" d="M 496 232 L 643.3662109375 232 L 643.3662109375 302 L 496 302 L 496 232 Z Z" stroke-miterlimit="10"/></g><g transform="translate(-262,-222) scale(1,1)"><path fill="none" stroke="#000000" d="M 496 270 L 643.3662109375 270" stroke-miterlimit="10"/></g><g transform="translate(-262,-222) scale(1,1)"><path fill="none" stroke="#000000" d="M 496 280 L 643.3662109375 280" stroke-miterlimit="10"/></g><g transform="translate(-262,-222) scale(1,1)"><g><path fill="none" stroke="none"/><text fill="#000000" stroke="none" font-family="Arial" font-size="13px" font-style="normal" font-weight="normal" text-decoration="none" x="540.779052734375" y="249.5">«Service»</text></g></g><g transform="translate(-262,-222) scale(1,1)"><g><path fill="none" stroke="none"/><text fill="#000000" stroke="none" font-family="Arial" font-size="13px" font-style="normal" font-weight="bold" text-decoration="none" x="532.108154296875" y="264.5">LoginFactory</text></g></g><g transform="translate(-262,-222) scale(1,1)"><g><path fill="none" stroke="none"/><text fill="#000000" stroke="none" font-family="Arial" font-size="13px" font-style="normal" font-weight="normal" text-decoration="none" x="501" y="297.5">+subcribeNewAccount()</text></g></g></g></svg>