<svg version="1.1" xmlns="http://www.w3.org/2000/svg" xmlns:xlink="http://www.w3.org/1999/xlink" width="3891.97265625" height="127"><defs/><g><g transform="translate(-311.0888671875,-10) scale(1,1)"><rect fill="#C0C0C0" stroke="none" x="331.09130859375" y="97" width="69.42333984375" height="24" opacity="0.2"/></g><g transform="translate(-311.0888671875,-10) scale(1,1)"><rect fill="#ffffff" stroke="none" x="324.09130859375" y="90" width="69.42333984375" height="24"/></g><g transform="translate(-311.0888671875,-10) scale(1,1)"><path fill="none" stroke="#000000" d="M 324.09130859375 90 L 393.5146484375 90 L 393.5146484375 114 L 324.09130859375 114 L 324.09130859375 90 Z Z" stroke-miterlimit="10"/></g><g transform="translate(-311.0888671875,-10) scale(1,1)"><g><path fill="none" stroke="none"/><text fill="#000000" stroke="none" font-family="Arial" font-size="13px" font-style="normal" font-weight="bold" text-decoration="none" x="329.30859375" y="109.5">ADICTAPI</text></g></g><g transform="translate(-311.0888671875,-10) scale(1,1)"><rect fill="#C0C0C0" stroke="none" x="328.0888671875" y="34.5" width="75.42822265625" height="24" opacity="0.2"/></g><g transform="translate(-311.0888671875,-10) scale(1,1)"><rect fill="#ffffff" stroke="none" x="321.0888671875" y="27.5" width="75.42822265625" height="24"/></g><g transform="translate(-311.0888671875,-10) scale(1,1)"><path fill="none" stroke="#000000" d="M 321.0888671875 27.5 L 396.51708984375 27.5 L 396.51708984375 51.5 L 321.0888671875 51.5 L 321.0888671875 27.5 Z Z" stroke-miterlimit="10"/></g><g transform="translate(-311.0888671875,-10) scale(1,1)"><g><path fill="none" stroke="none"/><text fill="#000000" stroke="none" font-family="Arial" font-size="13px" font-style="normal" font-weight="bold" text-decoration="none" x="326.658447265625" y="47">ConfGRDF</text></g></g><g transform="translate(-311.0888671875,-10) scale(1,1)"><rect fill="#C0C0C0" stroke="none" x="765.9287109375" y="34.5" width="115.9326171875" height="37" opacity="0.2"/></g><g transform="translate(-311.0888671875,-10) scale(1,1)"><rect fill="#ffffff" stroke="none" x="758.9287109375" y="27.5" width="115.9326171875" height="37"/></g><g transform="translate(-311.0888671875,-10) scale(1,1)"><path fill="none" stroke="#000000" d="M 758.9287109375 27.5 L 874.861328125 27.5 L 874.861328125 64.5 L 758.9287109375 64.5 L 758.9287109375 27.5 Z Z" stroke-miterlimit="10"/></g><g transform="translate(-311.0888671875,-10) scale(1,1)"><g><path fill="none" stroke="none"/><text fill="#000000" stroke="none" font-family="Arial" font-size="13px" font-style="normal" font-weight="normal" text-decoration="none" x="787.990966796875" y="45">«Service»</text></g></g><g transform="translate(-311.0888671875,-10) scale(1,1)"><g><path fill="none" stroke="none"/><text fill="#000000" stroke="none" font-family="Arial" font-size="13px" font-style="normal" font-weight="bold" text-decoration="none" x="767.0341796875" y="60">AppEventService</text></g></g><g transform="translate(-311.0888671875,-10) scale(1,1)"><rect fill="#C0C0C0" stroke="none" x="2201.84228515625" y="34.5" width="141.234375" height="24" opacity="0.2"/></g><g transform="translate(-311.0888671875,-10) scale(1,1)"><rect fill="#ffffff" stroke="none" x="2194.84228515625" y="27.5" width="141.234375" height="24"/></g><g transform="translate(-311.0888671875,-10) scale(1,1)"><path fill="none" stroke="#000000" d="M 2194.84228515625 27.5 L 2336.07666015625 27.5 L 2336.07666015625 51.5 L 2194.84228515625 51.5 L 2194.84228515625 27.5 Z Z" stroke-miterlimit="10"/></g><g transform="translate(-311.0888671875,-10) scale(1,1)"><g><path fill="none" stroke="none"/><text fill="#000000" stroke="none" font-family="Arial" font-size="13px" font-style="normal" font-weight="bold" text-decoration="none" x="2202.963623046875" y="47">EmailDemandService</text></g></g><g transform="translate(-311.0888671875,-10) scale(1,1)"><rect fill="#C0C0C0" stroke="none" x="2515.96923828125" y="27" width="20.3603515625" height="15" opacity="0.2"/></g><g transform="translate(-311.0888671875,-10) scale(1,1)"><rect fill="#C0C0C0" stroke="none" x="2515.96923828125" y="41" width="50.90087890625" height="25" opacity="0.2"/></g><g transform="translate(-311.0888671875,-10) scale(1,1)"><rect fill="#ffffff" stroke="none" x="2508.96923828125" y="35" width="50.90087890625" height="24"/></g><g transform="translate(-311.0888671875,-10) scale(1,1)"><path fill="none" stroke="#000000" d="M 2508.96923828125 35 L 2559.8701171875 35 L 2559.8701171875 59 L 2508.96923828125 59 L 2508.96923828125 35 Z Z" stroke-miterlimit="10"/></g><g transform="translate(-311.0888671875,-10) scale(1,1)"><rect fill="#ffffff" stroke="none" x="2508.96923828125" y="20" width="20.3603515625" height="15"/></g><g transform="translate(-311.0888671875,-10) scale(1,1)"><path fill="none" stroke="#000000" d="M 2508.96923828125 20 L 2529.32958984375 20 L 2529.32958984375 35 L 2508.96923828125 35 L 2508.96923828125 20 Z Z" stroke-miterlimit="10"/></g><g transform="translate(-311.0888671875,-10) scale(1,1)"><rect fill="#ffffff" stroke="none" x="2508.96923828125" y="34" width="50.90087890625" height="25"/></g><g transform="translate(-311.0888671875,-10) scale(1,1)"><path fill="none" stroke="#000000" d="M 2508.96923828125 34 L 2559.8701171875 34 L 2559.8701171875 59 L 2508.96923828125 59 L 2508.96923828125 34 Z Z" stroke-miterlimit="10"/></g><g transform="translate(-311.0888671875,-10) scale(1,1)"><g><path fill="none" stroke="none"/><text fill="#000000" stroke="none" font-family="Arial" font-size="13px" font-style="normal" font-weight="bold" text-decoration="none" x="2514.91015625" y="54.5">enums</text></g></g><g transform="translate(-311.0888671875,-10) scale(1,1)"><rect fill="#C0C0C0" stroke="none" x="3355.26123046875" y="34.5" width="131.8525390625" height="37" opacity="0.2"/></g><g transform="translate(-311.0888671875,-10) scale(1,1)"><rect fill="#ffffff" stroke="none" x="3348.26123046875" y="27.5" width="131.8525390625" height="37"/></g><g transform="translate(-311.0888671875,-10) scale(1,1)"><path fill="none" stroke="#000000" d="M 3348.26123046875 27.5 L 3480.11376953125 27.5 L 3480.11376953125 64.5 L 3348.26123046875 64.5 L 3348.26123046875 27.5 Z Z" stroke-miterlimit="10"/></g><g transform="translate(-311.0888671875,-10) scale(1,1)"><g><path fill="none" stroke="none"/><text fill="#000000" stroke="none" font-family="Arial" font-size="13px" font-style="normal" font-weight="normal" text-decoration="none" x="3385.283447265625" y="45">«Service»</text></g></g><g transform="translate(-311.0888671875,-10) scale(1,1)"><g><path fill="none" stroke="none"/><text fill="#000000" stroke="none" font-family="Arial" font-size="13px" font-style="normal" font-weight="bold" text-decoration="none" x="3356.02392578125" y="60">MessageProService</text></g></g><g transform="translate(-311.0888671875,-10) scale(1,1)"><rect fill="#C0C0C0" stroke="none" x="3518.11376953125" y="27" width="38.55781250000018" height="15" opacity="0.2"/></g><g transform="translate(-311.0888671875,-10) scale(1,1)"><rect fill="#C0C0C0" stroke="none" x="3518.11376953125" y="41" width="96.39453125" height="25" opacity="0.2"/></g><g transform="translate(-311.0888671875,-10) scale(1,1)"><rect fill="#ffffff" stroke="none" x="3511.11376953125" y="35" width="96.39453125" height="24"/></g><g transform="translate(-311.0888671875,-10) scale(1,1)"><path fill="none" stroke="#000000" d="M 3511.11376953125 35 L 3607.50830078125 35 L 3607.50830078125 59 L 3511.11376953125 59 L 3511.11376953125 35 Z Z" stroke-miterlimit="10"/></g><g transform="translate(-311.0888671875,-10) scale(1,1)"><rect fill="#ffffff" stroke="none" x="3511.11376953125" y="20" width="38.55781250000018" height="15"/></g><g transform="translate(-311.0888671875,-10) scale(1,1)"><path fill="none" stroke="#000000" d="M 3511.11376953125 20 L 3549.67158203125 20 L 3549.67158203125 35 L 3511.11376953125 35 L 3511.11376953125 20 Z Z" stroke-miterlimit="10"/></g><g transform="translate(-311.0888671875,-10) scale(1,1)"><rect fill="#ffffff" stroke="none" x="3511.11376953125" y="34" width="96.39453125" height="25"/></g><g transform="translate(-311.0888671875,-10) scale(1,1)"><path fill="none" stroke="#000000" d="M 3511.11376953125 34 L 3607.50830078125 34 L 3607.50830078125 59 L 3511.11376953125 59 L 3511.11376953125 34 Z Z" stroke-miterlimit="10"/></g><g transform="translate(-311.0888671875,-10) scale(1,1)"><g><path fill="none" stroke="none"/><text fill="#000000" stroke="none" font-family="Arial" font-size="13px" font-style="normal" font-weight="bold" text-decoration="none" x="3519.20654296875" y="54.5">meteringPoint</text></g></g><g transform="translate(-311.0888671875,-10) scale(1,1)"><rect fill="#C0C0C0" stroke="none" x="2517.0372314453125" y="97" width="95.71533203125" height="37" opacity="0.2"/></g><g transform="translate(-311.0888671875,-10) scale(1,1)"><rect fill="#ffffff" stroke="none" x="2510.0372314453125" y="90" width="95.71533203125" height="37"/></g><g transform="translate(-311.0888671875,-10) scale(1,1)"><path fill="none" stroke="#000000" d="M 2510.0372314453125 90 L 2605.7525634765625 90 L 2605.7525634765625 127 L 2510.0372314453125 127 L 2510.0372314453125 90 Z Z" stroke-miterlimit="10"/></g><g transform="translate(-311.0888671875,-10) scale(1,1)"><g><path fill="none" stroke="none"/><text fill="#000000" stroke="none" font-family="Arial" font-size="13px" font-style="normal" font-weight="normal" text-decoration="none" x="2531.1553955078125" y="107.5">«Sevice»</text></g></g><g transform="translate(-311.0888671875,-10) scale(1,1)"><g><path fill="none" stroke="none"/><text fill="#000000" stroke="none" font-family="Arial" font-size="13px" font-style="normal" font-weight="bold" text-decoration="none" x="2517.7967529296875" y="122.5">ProfileService</text></g></g><g transform="translate(-311.0888671875,-10) scale(1,1)"><rect fill="#C0C0C0" stroke="none" x="4121.00244140625" y="27" width="31.623632812499636" height="15" opacity="0.2"/></g><g transform="translate(-311.0888671875,-10) scale(1,1)"><rect fill="#C0C0C0" stroke="none" x="4121.00244140625" y="41" width="79.05908203125" height="25" opacity="0.2"/></g><g transform="translate(-311.0888671875,-10) scale(1,1)"><rect fill="#ffffff" stroke="none" x="4114.00244140625" y="35" width="79.05908203125" height="24"/></g><g transform="translate(-311.0888671875,-10) scale(1,1)"><path fill="none" stroke="#000000" d="M 4114.00244140625 35 L 4193.0615234375 35 L 4193.0615234375 59 L 4114.00244140625 59 L 4114.00244140625 35 Z Z" stroke-miterlimit="10"/></g><g transform="translate(-311.0888671875,-10) scale(1,1)"><rect fill="#ffffff" stroke="none" x="4114.00244140625" y="20" width="31.623632812499636" height="15"/></g><g transform="translate(-311.0888671875,-10) scale(1,1)"><path fill="none" stroke="#000000" d="M 4114.00244140625 20 L 4145.62607421875 20 L 4145.62607421875 35 L 4114.00244140625 35 L 4114.00244140625 20 Z Z" stroke-miterlimit="10"/></g><g transform="translate(-311.0888671875,-10) scale(1,1)"><rect fill="#ffffff" stroke="none" x="4114.00244140625" y="34" width="79.05908203125" height="25"/></g><g transform="translate(-311.0888671875,-10) scale(1,1)"><path fill="none" stroke="#000000" d="M 4114.00244140625 34 L 4193.0615234375 34 L 4193.0615234375 59 L 4114.00244140625 59 L 4114.00244140625 34 Z Z" stroke-miterlimit="10"/></g><g transform="translate(-311.0888671875,-10) scale(1,1)"><g><path fill="none" stroke="none"/><text fill="#000000" stroke="none" font-family="Arial" font-size="13px" font-style="normal" font-weight="bold" text-decoration="none" x="4120.29248046875" y="54.5">RequestMp</text></g></g><g transform="translate(-311.0888671875,-10) scale(1,1)"><path fill="none" stroke="#000000" d="M 358 89 Q 359 75 358 53" stroke-miterlimit="10"/></g><g transform="translate(-311.0888671875,-10) scale(1,1)"><path fill="none" stroke="#000000" d="M 362.66663910167813 62.961048112256506 L 358 53 L 354.25628748624484 63.343336822048926" stroke-miterlimit="10"/></g><g transform="translate(-311.0888671875,-10) scale(1,1)"><g><path fill="none" stroke="none"/><text fill="#000000" stroke="none" font-family="Arial" font-size="13px" font-style="normal" font-weight="normal" text-decoration="none" x="324.5" y="85.5">-config</text></g></g><g transform="translate(-311.0888671875,-10) scale(1,1)"><path fill="none" stroke="#000000" d="M 2558 89 Q 2558 75 2337 48" stroke-miterlimit="10"/></g><g transform="translate(-311.0888671875,-10) scale(1,1)"><path fill="none" stroke="#000000" d="M 2347.5981588128075 45.05398068938593 L 2337 48 L 2346.57718019667 53.410879732586416" stroke-miterlimit="10"/></g><g transform="translate(-311.0888671875,-10) scale(1,1)"><g><path fill="none" stroke="none"/><text fill="#000000" stroke="none" font-family="Arial" font-size="13px" font-style="normal" font-weight="normal" text-decoration="none" x="2318.5" y="72.5">~emailService</text></g></g></g></svg>