<svg version="1.1" xmlns="http://www.w3.org/2000/svg" xmlns:xlink="http://www.w3.org/1999/xlink" width="251.3251953125" height="155"><defs/><g><g transform="translate(-662,-390) scale(1,1)"><rect fill="#C0C0C0" stroke="none" x="679" y="407" width="231.3251953125" height="135" opacity="0.2"/></g><g transform="translate(-662,-390) scale(1,1)"><rect fill="#ffffff" stroke="none" x="672" y="400" width="231.3251953125" height="135"/></g><g transform="translate(-662,-390) scale(1,1)"><path fill="none" stroke="#000000" d="M 672 400 L 903.3251953125 400 L 903.3251953125 535 L 672 535 L 672 400 Z Z" stroke-miterlimit="10"/></g><g transform="translate(-662,-390) scale(1,1)"><path fill="none" stroke="#000000" d="M 672 423 L 903.3251953125 423" stroke-miterlimit="10"/></g><g transform="translate(-662,-390) scale(1,1)"><path fill="none" stroke="#000000" d="M 700.05908203125 423 L 700.05908203125 535" stroke-miterlimit="10"/></g><g transform="translate(-662,-390) scale(1,1)"><path fill="none" stroke="#000000" d="M 809.76806640625 423 L 809.76806640625 535" stroke-miterlimit="10"/></g><g transform="translate(-662,-390) scale(1,1)"><g><path fill="none" stroke="none"/><text fill="#000000" stroke="none" font-family="Arial" font-size="13px" font-style="normal" font-weight="bold" text-decoration="none" x="743.578125" y="417.5">parameter_app</text></g></g><g transform="translate(-662,-390) scale(1,1)"><g><path fill="none" stroke="none"/><text fill="#000000" stroke="none" font-family="Arial" font-size="13px" font-style="normal" font-weight="normal" text-decoration="none" x="677" y="441">PK</text></g></g><g transform="translate(-662,-390) scale(1,1)"><g><path fill="none" stroke="none"/><text fill="#000000" stroke="none" font-family="Arial" font-size="13px" font-style="normal" font-weight="normal" text-decoration="none" x="705.05908203125" y="441">param_id</text></g></g><g transform="translate(-662,-390) scale(1,1)"><g><path fill="none" stroke="none"/><text fill="#000000" stroke="none" font-family="Arial" font-size="13px" font-style="normal" font-weight="normal" text-decoration="none" x="814.76806640625" y="441">varchar(1000)</text></g></g><g transform="translate(-662,-390) scale(1,1)"><g><path fill="none" stroke="none"/><text fill="#000000" stroke="none" font-family="Arial" font-size="13px" font-style="normal" font-weight="normal" text-decoration="none" x="677" y="440.5"></text></g></g><g transform="translate(-662,-390) scale(1,1)"><g><path fill="none" stroke="none"/><text fill="#000000" stroke="none" font-family="Arial" font-size="13px" font-style="normal" font-weight="normal" text-decoration="none" x="677" y="456"></text></g></g><g transform="translate(-662,-390) scale(1,1)"><g><path fill="none" stroke="none"/><text fill="#000000" stroke="none" font-family="Arial" font-size="13px" font-style="normal" font-weight="normal" text-decoration="none" x="705.05908203125" y="456">param_name</text></g></g><g transform="translate(-662,-390) scale(1,1)"><g><path fill="none" stroke="none"/><text fill="#000000" stroke="none" font-family="Arial" font-size="13px" font-style="normal" font-weight="normal" text-decoration="none" x="814.76806640625" y="456">varchar(80)</text></g></g><g transform="translate(-662,-390) scale(1,1)"><g><path fill="none" stroke="none"/><text fill="#000000" stroke="none" font-family="Arial" font-size="13px" font-style="normal" font-weight="normal" text-decoration="none" x="677" y="455.5"></text></g></g><g transform="translate(-662,-390) scale(1,1)"><g><path fill="none" stroke="none"/><text fill="#000000" stroke="none" font-family="Arial" font-size="13px" font-style="normal" font-weight="normal" text-decoration="none" x="677" y="471"></text></g></g><g transform="translate(-662,-390) scale(1,1)"><g><path fill="none" stroke="none"/><text fill="#000000" stroke="none" font-family="Arial" font-size="13px" font-style="normal" font-weight="normal" text-decoration="none" x="705.05908203125" y="471">param_value</text></g></g><g transform="translate(-662,-390) scale(1,1)"><g><path fill="none" stroke="none"/><text fill="#000000" stroke="none" font-family="Arial" font-size="13px" font-style="normal" font-weight="normal" text-decoration="none" x="814.76806640625" y="471">text</text></g></g><g transform="translate(-662,-390) scale(1,1)"><g><path fill="none" stroke="none"/><text fill="#000000" stroke="none" font-family="Arial" font-size="13px" font-style="normal" font-weight="normal" text-decoration="none" x="677" y="470.5"></text></g></g><g transform="translate(-662,-390) scale(1,1)"><g><path fill="none" stroke="none"/><text fill="#000000" stroke="none" font-family="Arial" font-size="13px" font-style="normal" font-weight="normal" text-decoration="none" x="677" y="486"></text></g></g><g transform="translate(-662,-390) scale(1,1)"><g><path fill="none" stroke="none"/><text fill="#000000" stroke="none" font-family="Arial" font-size="13px" font-style="normal" font-weight="normal" text-decoration="none" x="705.05908203125" y="486">param_desc</text></g></g><g transform="translate(-662,-390) scale(1,1)"><g><path fill="none" stroke="none"/><text fill="#000000" stroke="none" font-family="Arial" font-size="13px" font-style="normal" font-weight="normal" text-decoration="none" x="814.76806640625" y="486">varchar(1000)</text></g></g><g transform="translate(-662,-390) scale(1,1)"><g><path fill="none" stroke="none"/><text fill="#000000" stroke="none" font-family="Arial" font-size="13px" font-style="normal" font-weight="normal" text-decoration="none" x="677" y="485.5"></text></g></g><g transform="translate(-662,-390) scale(1,1)"><g><path fill="none" stroke="none"/><text fill="#000000" stroke="none" font-family="Arial" font-size="13px" font-style="normal" font-weight="normal" text-decoration="none" x="677" y="501"></text></g></g><g transform="translate(-662,-390) scale(1,1)"><g><path fill="none" stroke="none"/><text fill="#000000" stroke="none" font-family="Arial" font-size="13px" font-style="normal" font-weight="normal" text-decoration="none" x="705.05908203125" y="501">param_datatype</text></g></g><g transform="translate(-662,-390) scale(1,1)"><g><path fill="none" stroke="none"/><text fill="#000000" stroke="none" font-family="Arial" font-size="13px" font-style="normal" font-weight="normal" text-decoration="none" x="814.76806640625" y="501">varchar(10)</text></g></g><g transform="translate(-662,-390) scale(1,1)"><g><path fill="none" stroke="none"/><text fill="#000000" stroke="none" font-family="Arial" font-size="13px" font-style="normal" font-weight="normal" text-decoration="none" x="677" y="500.5"></text></g></g><g transform="translate(-662,-390) scale(1,1)"><g><path fill="none" stroke="none"/><text fill="#000000" stroke="none" font-family="Arial" font-size="13px" font-style="normal" font-weight="normal" text-decoration="none" x="677" y="516"></text></g></g><g transform="translate(-662,-390) scale(1,1)"><g><path fill="none" stroke="none"/><text fill="#000000" stroke="none" font-family="Arial" font-size="13px" font-style="normal" font-weight="normal" text-decoration="none" x="705.05908203125" y="516">param_check</text></g></g><g transform="translate(-662,-390) scale(1,1)"><g><path fill="none" stroke="none"/><text fill="#000000" stroke="none" font-family="Arial" font-size="13px" font-style="normal" font-weight="normal" text-decoration="none" x="814.76806640625" y="516">varchar(1000)</text></g></g><g transform="translate(-662,-390) scale(1,1)"><g><path fill="none" stroke="none"/><text fill="#000000" stroke="none" font-family="Arial" font-size="13px" font-style="normal" font-weight="normal" text-decoration="none" x="677" y="515.5"></text></g></g><g transform="translate(-662,-390) scale(1,1)"><g><path fill="none" stroke="none"/><text fill="#000000" stroke="none" font-family="Arial" font-size="13px" font-style="normal" font-weight="normal" text-decoration="none" x="677" y="531"></text></g></g><g transform="translate(-662,-390) scale(1,1)"><g><path fill="none" stroke="none"/><text fill="#000000" stroke="none" font-family="Arial" font-size="13px" font-style="normal" font-weight="normal" text-decoration="none" x="705.05908203125" y="531">param_exposed</text></g></g><g transform="translate(-662,-390) scale(1,1)"><g><path fill="none" stroke="none"/><text fill="#000000" stroke="none" font-family="Arial" font-size="13px" font-style="normal" font-weight="normal" text-decoration="none" x="814.76806640625" y="531">boolean</text></g></g><g transform="translate(-662,-390) scale(1,1)"><g><path fill="none" stroke="none"/><text fill="#000000" stroke="none" font-family="Arial" font-size="13px" font-style="normal" font-weight="normal" text-decoration="none" x="677" y="530.5"></text></g></g></g></svg>