<svg version="1.1" xmlns="http://www.w3.org/2000/svg" xmlns:xlink="http://www.w3.org/1999/xlink" width="135.21533203125" height="74"><defs/><g><g transform="translate(-462,-286) scale(1,1)"><rect fill="#C0C0C0" stroke="none" x="479" y="303" width="46.086132812499955" height="15" opacity="0.2"/></g><g transform="translate(-462,-286) scale(1,1)"><rect fill="#C0C0C0" stroke="none" x="479" y="317" width="115.21533203125" height="40" opacity="0.2"/></g><g transform="translate(-462,-286) scale(1,1)"><rect fill="#ffffff" stroke="none" x="472" y="311" width="115.21533203125" height="39"/></g><g transform="translate(-462,-286) scale(1,1)"><path fill="none" stroke="#000000" d="M 472 311 L 587.21533203125 311 L 587.21533203125 350 L 472 350 L 472 311 Z Z" stroke-miterlimit="10"/></g><g transform="translate(-462,-286) scale(1,1)"><rect fill="#ffffff" stroke="none" x="472" y="296" width="46.086132812499955" height="15"/></g><g transform="translate(-462,-286) scale(1,1)"><path fill="none" stroke="#000000" d="M 472 296 L 518.0861328125 296 L 518.0861328125 311 L 472 311 L 472 296 Z Z" stroke-miterlimit="10"/></g><g transform="translate(-462,-286) scale(1,1)"><rect fill="#ffffff" stroke="none" x="472" y="310" width="115.21533203125" height="40"/></g><g transform="translate(-462,-286) scale(1,1)"><path fill="none" stroke="#000000" d="M 472 310 L 587.21533203125 310 L 587.21533203125 350 L 472 350 L 472 310 Z Z" stroke-miterlimit="10"/></g><g transform="translate(-462,-286) scale(1,1)"><path fill="none" stroke="#000000" d="M 510.08613281249995 299 L 510.08613281249995 303" stroke-miterlimit="10"/></g><g transform="translate(-462,-286) scale(1,1)"><path fill="none" stroke="#000000" d="M 507.08613281249995 307 L 507.08613281249995 303 L 513.0861328125 303" stroke-miterlimit="10"/></g><g transform="translate(-462,-286) scale(1,1)"><path fill="none" stroke="#000000" d="M 513.0861328125 307 L 513.0861328125 303 L 507.08613281249995 303" stroke-miterlimit="10"/></g><g transform="translate(-462,-286) scale(1,1)"><g><path fill="none" stroke="none"/><text fill="#000000" stroke="none" font-family="Arial" font-size="13px" font-style="normal" font-weight="bold" text-decoration="none" x="478.32177734375" y="330.5">S2G-MT-Services</text></g></g><g transform="translate(-462,-286) scale(1,1)"><g><path fill="none" stroke="none"/><text fill="#000000" stroke="none" font-family="Arial" font-size="13px" font-style="normal" font-weight="normal" text-decoration="none" x="485.916748046875" y="345.5">(from S2G-MT)</text></g></g></g></svg>